<svg width="40" height="40" viewBox="0 0 40 40" fill="none" xmlns="http://www.w3.org/2000/svg">
<path d="M20 1C30.4934 1 39 9.50659 39 20C39 30.4934 30.4934 39 20 39C9.50659 39 1 30.4934 1 20C1 9.50659 9.50659 1 20 1Z" stroke="black" stroke-width="2"/>
<path d="M23.1254 11.667H16.8754C13.9993 11.667 11.667 13.9993 11.667 16.8754V23.1254C11.667 26.0014 13.9993 28.3337 16.8754 28.3337H23.1254C26.0014 28.3337 28.3337 26.0014 28.3337 23.1254V16.8754C28.3337 13.9993 26.0014 11.667 23.1254 11.667ZM26.7712 23.1254C26.7712 25.1358 25.1358 26.7712 23.1254 26.7712H16.8754C14.8649 26.7712 13.2295 25.1358 13.2295 23.1254V16.8754C13.2295 14.865 14.8649 13.2295 16.8754 13.2295H23.1254C25.1358 13.2295 26.7712 14.865 26.7712 16.8754V23.1254Z" fill="black"/>
<path d="M19.9997 15.833C17.6986 15.833 15.833 17.6986 15.833 19.9997C15.833 22.3007 17.6986 24.1663 19.9997 24.1663C22.3007 24.1663 24.1663 22.3007 24.1663 19.9997C24.1663 17.6986 22.3007 15.833 19.9997 15.833ZM19.9997 22.6038C18.5642 22.6038 17.3955 21.4351 17.3955 19.9997C17.3955 18.5632 18.5642 17.3955 19.9997 17.3955C21.4351 17.3955 22.6038 18.5632 22.6038 19.9997C22.6038 21.4351 21.4351 22.6038 19.9997 22.6038Z" fill="black"/>
<path d="M24.479 16.0762C24.7856 16.0762 25.0342 15.8276 25.0342 15.521C25.0342 15.2144 24.7856 14.9658 24.479 14.9658C24.1723 14.9658 23.9238 15.2144 23.9238 15.521C23.9238 15.8276 24.1723 16.0762 24.479 16.0762Z" fill="black"/>
</svg>
