<svg width="40" height="40" viewBox="0 0 40 40" fill="none" xmlns="http://www.w3.org/2000/svg">
<path d="M20 1C30.4934 1 39 9.50659 39 20C39 30.4934 30.4934 39 20 39C9.50659 39 1 30.4934 1 20C1 9.50659 9.50659 1 20 1Z" stroke="black" stroke-width="2"/>
<path d="M15.6503 17.3801H12.502C12.3622 17.3801 12.249 17.4934 12.249 17.6331V27.7472C12.249 27.8869 12.3622 28.0001 12.502 28.0001H15.6503C15.79 28.0001 15.9032 27.8869 15.9032 27.7472V17.6331C15.9032 17.4934 15.79 17.3801 15.6503 17.3801Z" fill="black"/>
<path d="M14.0775 12C12.9319 12 12 12.9309 12 14.0752C12 15.22 12.9319 16.1513 14.0775 16.1513C15.2221 16.1513 16.1533 15.2199 16.1533 14.0752C16.1533 12.9309 15.2221 12 14.0775 12Z" fill="black"/>
<path d="M23.976 17.1284C22.7116 17.1284 21.7768 17.672 21.2099 18.2897V17.6327C21.2099 17.4931 21.0967 17.3798 20.9569 17.3798H17.9419C17.8022 17.3798 17.689 17.4931 17.689 17.6327V27.7469C17.689 27.8866 17.8022 27.9998 17.9419 27.9998H21.0833C21.223 27.9998 21.3363 27.8866 21.3363 27.7469V22.7427C21.3363 21.0564 21.7943 20.3995 22.9698 20.3995C24.25 20.3995 24.3517 21.4527 24.3517 22.8295V27.7469C24.3517 27.8866 24.4649 27.9998 24.6046 27.9998H27.7472C27.887 27.9998 28.0002 27.8866 28.0002 27.7469V22.1991C28.0002 19.6917 27.5221 17.1284 23.976 17.1284Z" fill="black"/>
</svg>
