<svg width="369" height="327" viewBox="0 0 369 327" fill="none" xmlns="http://www.w3.org/2000/svg">
<g clip-path="url(#clip0_15_267)">
<path d="M327.613 214.782H194.219C191.836 214.782 189.895 212.841 189.895 210.457V16.1342C189.895 13.7502 191.836 11.8091 194.219 11.8091H327.613C329.997 11.8091 331.938 13.7502 331.938 16.1342V210.449C331.938 212.833 329.997 214.774 327.613 214.774V214.782ZM194.219 11.9936C191.939 11.9936 190.079 13.8536 190.079 16.1342V210.449C190.079 212.73 191.939 214.59 194.219 214.59H327.613C329.893 214.59 331.753 212.73 331.753 210.449V16.1342C331.753 13.8536 329.893 11.9936 327.613 11.9936H194.219Z" fill="#E0E0E0"/>
<path d="M173.792 214.782H40.4055C38.0218 214.782 36.0808 212.841 36.0808 210.457V16.1342C36.0808 13.7502 38.0218 11.8091 40.4055 11.8091H173.799C176.183 11.8091 178.124 13.7502 178.124 16.1342V210.449C178.124 212.833 176.183 214.774 173.799 214.774L173.792 214.782ZM40.4055 11.9936C38.1251 11.9936 36.2653 13.8536 36.2653 16.1342V210.449C36.2653 212.73 38.1251 214.59 40.4055 214.59H173.799C176.079 214.59 177.939 212.73 177.939 210.449V16.1342C177.939 13.8536 176.079 11.9936 173.799 11.9936H40.4055Z" fill="#E0E0E0"/>
<path d="M369 231.256H0V231.44H369V231.256Z" fill="#E0E0E0"/>
<path d="M49.9847 241.788H38.1324V241.973H49.9847V241.788Z" fill="#E0E0E0"/>
<path d="M165.223 239.788H125.718V239.973H165.223V239.788Z" fill="#E0E0E0"/>
<path d="M77.4753 248.645H50.7228V248.83H77.4753V248.645Z" fill="#E0E0E0"/>
<path d="M311.097 239.692H279.222V239.876H311.097V239.692Z" fill="#E0E0E0"/>
<path d="M322.344 239.692H317.672V239.876H322.344V239.692Z" fill="#E0E0E0"/>
<path d="M273.134 244.291H233.363V244.475H273.134V244.291Z" fill="#E0E0E0"/>
<path d="M21.7046 157.278C24.937 163.758 32.4868 166.548 38.5679 163.522L40.7302 162.445L29.0329 138.981L26.8706 140.059C20.7895 143.092 18.4721 150.805 21.7046 157.285V157.278Z" fill="#E0E0E0"/>
<path d="M47.3132 154.872C45.018 161.736 37.5864 165.441 30.723 163.146C23.8596 160.85 20.1548 153.418 22.45 146.553C24.7452 139.689 32.1768 135.984 39.0402 138.28C45.9036 140.575 49.6084 148.007 47.3132 154.872Z" fill="#EBEBEB"/>
<path d="M25.4906 155.388C28.0736 160.577 34.3761 162.688 39.5642 160.097C44.7524 157.514 46.8631 151.211 44.2727 146.022C41.6897 140.833 35.3872 138.722 30.199 141.313C25.0109 143.896 22.9002 150.199 25.4906 155.388Z" fill="#F0F0F0"/>
<path d="M38.1915 153.698C37.8815 154.31 37.3944 154.79 36.745 155.137L36.8483 155.469C36.9 155.639 36.8852 155.801 36.804 155.971C36.7228 156.141 36.5974 156.244 36.4276 156.303C36.2579 156.355 36.1029 156.34 35.9479 156.252C35.793 156.163 35.6896 156.03 35.638 155.853L35.5494 155.565C34.9 155.683 34.2948 155.661 33.7487 155.491C33.1952 155.329 32.7598 155.063 32.4351 154.702C32.2801 154.525 32.1841 154.37 32.1472 154.244C32.0882 154.067 32.1103 153.897 32.1989 153.727C32.2875 153.558 32.4203 153.447 32.6048 153.388C32.7524 153.344 32.9 153.344 33.0402 153.395C33.1804 153.447 33.3059 153.535 33.4018 153.661C33.5863 153.919 33.8446 154.104 34.1694 154.215C34.4941 154.318 34.8336 154.355 35.1878 154.325L34.3539 151.476C33.5494 151.469 32.8779 151.343 32.3391 151.107C31.8078 150.871 31.4388 150.443 31.2543 149.838C31.0624 149.218 31.1067 148.635 31.4019 148.081C31.6971 147.527 32.1915 147.092 32.9074 146.76L32.8188 146.479C32.7672 146.31 32.7819 146.147 32.8557 145.978C32.9369 145.815 33.055 145.704 33.21 145.653C33.3797 145.601 33.5421 145.616 33.7044 145.704C33.8668 145.793 33.9775 145.918 34.0291 146.088L34.1103 146.354C34.8483 146.199 35.4682 146.228 35.9701 146.435C36.4793 146.642 36.8114 147.003 36.9738 147.513C37.0328 147.705 37.0254 147.889 36.9369 148.052C36.8557 148.221 36.7228 148.332 36.5457 148.384C36.3907 148.435 36.2358 148.428 36.0955 148.362C35.9553 148.295 35.852 148.184 35.7782 148.029C35.697 147.852 35.5347 147.719 35.2985 147.638C35.0623 147.55 34.7819 147.527 34.4572 147.564L35.1952 150.096C36.9516 150.118 38.0143 150.701 38.376 151.845C38.5752 152.473 38.5162 153.093 38.2062 153.698H38.1915ZM32.9148 149.86C33.1435 149.978 33.4756 150.052 33.9184 150.089L33.2616 147.956C32.9074 148.133 32.6712 148.339 32.5384 148.583C32.4055 148.827 32.3834 149.077 32.4646 149.343C32.5384 149.572 32.686 149.742 32.9148 149.86ZM37.0549 153.174C37.2025 152.879 37.2247 152.591 37.1361 152.303C37.0623 152.074 36.9073 151.89 36.6712 151.742C36.435 151.602 36.0734 151.513 35.6011 151.476L36.3538 153.912C36.6786 153.713 36.9147 153.462 37.0549 153.166V153.174Z" fill="#E0E0E0"/>
<path d="M24.9813 146.723C27.1879 141.254 33.4019 138.604 38.8704 140.811C44.339 143.018 46.9884 149.233 44.7818 154.702C46.184 149.484 43.4682 144.044 38.4572 142.029C32.9886 139.822 26.7672 142.472 24.568 147.941C24.6787 147.528 24.8189 147.122 24.9739 146.723H24.9813Z" fill="#E0E0E0"/>
<path d="M323.384 166.512C326.189 172.143 332.749 174.564 338.034 171.936L339.915 170.999L329.753 150.613L327.871 151.551C322.587 154.186 320.58 160.887 323.384 166.512Z" fill="#E0E0E0"/>
<path d="M345.627 164.423C343.635 170.387 337.177 173.605 331.214 171.612C325.251 169.619 322.034 163.161 324.026 157.197C326.019 151.233 332.476 148.015 338.439 150.008C344.402 152.001 347.62 158.459 345.627 164.423Z" fill="#EBEBEB"/>
<path d="M326.668 164.873C328.912 169.383 334.388 171.213 338.897 168.962C343.406 166.718 345.236 161.242 342.985 156.732C340.735 152.222 335.266 150.392 330.757 152.643C326.248 154.887 324.417 160.363 326.668 164.873Z" fill="#F0F0F0"/>
<path d="M337.701 163.404C337.428 163.936 337.008 164.356 336.439 164.659L336.528 164.947C336.572 165.095 336.558 165.235 336.491 165.382C336.417 165.53 336.307 165.626 336.166 165.67C336.026 165.715 335.879 165.7 335.746 165.626C335.613 165.552 335.524 165.434 335.473 165.279L335.391 165.028C334.823 165.131 334.307 165.109 333.827 164.962C333.347 164.814 332.971 164.585 332.683 164.275C332.55 164.12 332.469 163.987 332.432 163.877C332.38 163.722 332.395 163.574 332.476 163.426C332.55 163.279 332.668 163.183 332.831 163.131C332.963 163.087 333.089 163.094 333.214 163.131C333.34 163.176 333.443 163.257 333.524 163.36C333.687 163.589 333.908 163.744 334.189 163.84C334.469 163.936 334.764 163.965 335.074 163.936L334.351 161.463C333.65 161.463 333.067 161.345 332.602 161.138C332.137 160.932 331.82 160.563 331.657 160.031C331.487 159.492 331.532 158.991 331.783 158.511C332.034 158.031 332.469 157.647 333.089 157.359L333.015 157.116C332.971 156.968 332.978 156.828 333.052 156.68C333.118 156.54 333.222 156.444 333.362 156.4C333.51 156.356 333.65 156.37 333.79 156.444C333.93 156.525 334.026 156.636 334.07 156.776L334.144 157.005C334.786 156.872 335.325 156.894 335.76 157.079C336.203 157.263 336.491 157.573 336.631 158.016C336.683 158.186 336.676 158.341 336.602 158.489C336.528 158.636 336.417 158.732 336.262 158.777C336.122 158.821 335.997 158.813 335.871 158.754C335.746 158.695 335.657 158.599 335.598 158.467C335.524 158.312 335.384 158.201 335.185 158.127C334.978 158.053 334.735 158.031 334.454 158.061L335.096 160.26C336.624 160.275 337.546 160.784 337.856 161.781C338.026 162.327 337.975 162.866 337.709 163.39L337.701 163.404ZM333.118 160.068C333.318 160.172 333.606 160.238 333.989 160.267L333.421 158.415C333.118 158.57 332.904 158.754 332.794 158.961C332.676 159.168 332.654 159.389 332.727 159.618C332.786 159.817 332.919 159.965 333.118 160.068ZM336.713 162.947C336.838 162.688 336.86 162.437 336.786 162.194C336.727 161.995 336.587 161.832 336.38 161.707C336.174 161.581 335.864 161.507 335.451 161.478L336.1 163.596C336.38 163.426 336.587 163.205 336.713 162.947Z" fill="#E0E0E0"/>
<path d="M326.225 157.345C328.137 152.592 333.546 150.296 338.292 152.208C343.044 154.119 345.34 159.53 343.428 164.275C344.646 159.744 342.284 155.02 337.938 153.263C333.185 151.352 327.783 153.647 325.871 158.4C325.967 158.039 326.085 157.684 326.225 157.337V157.345Z" fill="#E0E0E0"/>
<path d="M300.292 267.282C297.333 277.216 302.491 287.52 311.812 290.295L315.133 291.284L325.849 255.317L322.528 254.328C313.207 251.553 303.252 257.347 300.292 267.282Z" fill="#E0E0E0"/>
<path d="M329.414 289.808C320.299 294.739 308.912 291.344 303.982 282.228C299.052 273.113 302.447 261.724 311.562 256.794C320.676 251.864 332.063 255.259 336.993 264.374C341.923 273.489 338.528 284.878 329.414 289.808Z" fill="#EBEBEB"/>
<path d="M306.093 269.009C303.724 276.958 308.248 285.328 316.196 287.697C324.144 290.066 332.513 285.542 334.882 277.593C337.251 269.644 332.727 261.274 324.779 258.904C316.831 256.535 308.462 261.06 306.093 269.009Z" fill="#F0F0F0"/>
<path d="M321.015 279.66C320.093 279.992 319.119 280.021 318.085 279.748L317.871 280.198C317.761 280.427 317.584 280.582 317.333 280.678C317.082 280.774 316.846 280.759 316.617 280.656C316.388 280.545 316.24 280.376 316.167 280.132C316.093 279.888 316.115 279.652 316.226 279.416L316.418 279.025C315.62 278.508 315.015 277.896 314.609 277.187C314.196 276.478 313.997 275.77 314.012 275.069C314.026 274.737 314.071 274.486 314.159 274.301C314.277 274.065 314.462 273.895 314.713 273.807C314.971 273.718 315.222 273.733 315.473 273.851C315.672 273.947 315.827 274.094 315.923 274.286C316.019 274.478 316.063 274.692 316.041 274.914C315.982 275.371 316.071 275.814 316.307 276.242C316.543 276.67 316.86 277.039 317.266 277.357L319.178 273.563C318.344 272.766 317.761 271.984 317.436 271.209C317.111 270.434 317.148 269.636 317.539 268.817C317.938 267.983 318.565 267.422 319.406 267.127C320.248 266.839 321.207 266.869 322.27 267.216L322.447 266.839C322.558 266.61 322.735 266.455 322.978 266.359C323.222 266.263 323.451 266.271 323.665 266.367C323.893 266.477 324.048 266.655 324.13 266.913C324.211 267.164 324.203 267.407 324.093 267.629L323.923 267.983C324.845 268.544 325.465 269.179 325.79 269.895C326.115 270.611 326.115 271.312 325.783 272.006C325.657 272.271 325.465 272.449 325.222 272.537C324.971 272.633 324.727 272.618 324.491 272.508C324.277 272.404 324.13 272.249 324.041 272.043C323.96 271.836 323.96 271.615 324.041 271.393C324.13 271.127 324.085 270.832 323.923 270.515C323.761 270.197 323.495 269.895 323.111 269.607L321.406 272.973C323.229 274.714 323.761 276.36 323.015 277.91C322.609 278.759 321.945 279.35 321.023 279.682L321.015 279.66ZM319.266 270.485C319.392 270.832 319.665 271.238 320.085 271.703L321.488 268.832C320.949 268.677 320.491 268.655 320.115 268.78C319.739 268.898 319.465 269.142 319.296 269.496C319.148 269.806 319.133 270.131 319.259 270.478L319.266 270.485ZM320.351 277.999C320.794 277.829 321.104 277.556 321.288 277.172C321.436 276.862 321.458 276.515 321.347 276.132C321.237 275.748 320.949 275.305 320.491 274.803L318.89 278.088C319.421 278.198 319.908 278.169 320.351 277.999Z" fill="#E0E0E0"/>
<path d="M314.026 259.451C321.679 255.886 330.764 259.2 334.329 266.854C337.893 274.508 334.58 283.594 326.927 287.158C333.487 283.077 335.974 274.737 332.713 267.732C329.148 260.078 320.063 256.764 312.41 260.329C312.934 260.004 313.473 259.709 314.034 259.451H314.026Z" fill="#E0E0E0"/>
<path d="M127.814 15.2565C128.382 21.5228 133.607 26.1653 139.489 25.6339L141.585 25.442L139.534 2.76074L137.438 2.95264C131.556 3.48406 127.253 8.99754 127.814 15.2565Z" fill="#E0E0E0"/>
<path d="M149.297 21.3971C145.268 26.2242 138.087 26.8737 133.261 22.8511C128.434 18.8212 127.785 11.6397 131.807 6.8126C135.836 1.98554 143.017 1.33603 147.844 5.35858C152.67 9.38113 153.319 16.57 149.297 21.3971Z" fill="#EBEBEB"/>
<path d="M131.475 14.9242C131.925 19.9358 136.36 23.6336 141.379 23.1833C146.39 22.7257 150.087 18.2972 149.637 13.2783C149.187 8.2593 144.751 4.56888 139.733 5.01912C134.722 5.47673 131.024 9.90522 131.475 14.9242Z" fill="#F0F0F0"/>
<path d="M142.279 17.5736C141.836 17.9722 141.29 18.2084 140.648 18.2822L140.626 18.5848C140.618 18.7398 140.552 18.8653 140.427 18.976C140.308 19.0867 140.168 19.131 140.021 19.1236C139.866 19.1162 139.748 19.0498 139.652 18.9317C139.556 18.8136 139.511 18.6734 139.526 18.511L139.541 18.2453C138.98 18.1346 138.5 17.9279 138.109 17.6179C137.718 17.3079 137.445 16.9536 137.297 16.5625C137.231 16.3705 137.201 16.2156 137.209 16.0975C137.216 15.9351 137.29 15.8022 137.408 15.6915C137.534 15.5808 137.681 15.5365 137.844 15.5439C137.976 15.5513 138.094 15.6029 138.198 15.6915C138.294 15.7801 138.368 15.8908 138.404 16.0163C138.471 16.2894 138.626 16.5182 138.855 16.7027C139.083 16.8946 139.349 17.0274 139.644 17.116L139.866 14.5475C139.216 14.2892 138.714 13.9718 138.353 13.6101C137.999 13.2485 137.836 12.7908 137.873 12.2373C137.91 11.6763 138.139 11.2187 138.545 10.8645C138.958 10.5102 139.497 10.3109 140.176 10.2666L140.19 10.0157C140.198 9.86066 140.264 9.73519 140.382 9.62448C140.5 9.51376 140.626 9.46948 140.773 9.47686C140.928 9.48424 141.054 9.55805 141.157 9.67614C141.26 9.80162 141.305 9.93447 141.297 10.0895L141.283 10.333C141.925 10.4437 142.419 10.6578 142.766 10.9899C143.113 11.3221 143.268 11.7132 143.231 12.1782C143.216 12.3554 143.15 12.4956 143.032 12.6063C142.914 12.717 142.773 12.7613 142.611 12.7539C142.463 12.7466 142.345 12.6875 142.257 12.5916C142.161 12.4956 142.117 12.3701 142.109 12.2225C142.094 12.0528 142.006 11.8978 141.844 11.7502C141.681 11.6025 141.46 11.4992 141.187 11.418L140.98 13.6987C142.397 14.267 143.069 15.0789 143.002 16.1196C142.965 16.6879 142.722 17.1677 142.279 17.5662V17.5736ZM139.231 12.7908C139.379 12.9606 139.63 13.123 139.969 13.2927L140.109 11.359C139.77 11.3885 139.504 11.4844 139.327 11.6394C139.142 11.7944 139.046 11.9863 139.024 12.2299C139.01 12.4366 139.076 12.6285 139.224 12.7908H139.231ZM141.534 16.7839C141.748 16.592 141.858 16.3632 141.873 16.1048C141.888 15.8982 141.821 15.6989 141.674 15.507C141.526 15.3151 141.268 15.1306 140.891 14.9534L140.729 17.1603C141.054 17.1013 141.32 16.9758 141.534 16.7839Z" fill="#E0E0E0"/>
<path d="M133.792 7.75001C137.305 4.0227 143.172 3.84556 146.899 7.35145C150.626 10.8647 150.803 16.7325 147.297 20.4598C150.08 16.6808 149.6 11.4257 146.183 8.20763C142.456 4.69435 136.582 4.87149 133.076 8.60619C133.298 8.30358 133.534 8.01572 133.792 7.75001Z" fill="#E0E0E0"/>
<path d="M280.268 0.0335115L203.694 18.1087C203.036 18.2641 202.628 18.924 202.783 19.5826L214.164 67.8051C214.319 68.4637 214.979 68.8716 215.637 68.7161L292.212 50.6409C292.87 50.4855 293.278 49.8256 293.122 49.167L281.742 0.94452C281.587 0.285946 280.927 -0.121926 280.268 0.0335115Z" fill="#F0F0F0"/>
<path opacity="0.6" d="M228.677 22.5602L215.943 25.5663C215.125 25.7592 214.619 26.5781 214.812 27.3953L217.311 37.9837C217.504 38.801 218.323 39.3072 219.14 39.1143L231.875 36.1082C232.692 35.9153 233.198 35.0964 233.005 34.2792L230.506 23.6908C230.313 22.8735 229.495 22.3673 228.677 22.5602Z" fill="white"/>
<path d="M220.094 49.784C223.496 48.9795 226.898 48.175 230.3 47.3778C231.459 47.1048 231.031 45.3038 229.88 45.5769C226.477 46.3814 223.075 47.1859 219.673 47.9831C218.514 48.2562 218.942 50.0571 220.094 49.784Z" fill="#E0E0E0"/>
<path d="M235.806 46.0789C239.208 45.2744 242.61 44.4699 246.012 43.6728C247.171 43.3997 246.743 41.5988 245.592 41.8718C242.189 42.6764 238.787 43.4809 235.385 44.278C234.226 44.5511 234.654 46.352 235.806 46.0789Z" fill="#E0E0E0"/>
<path d="M251.518 42.366C254.92 41.5615 258.322 40.757 261.724 39.9599C262.883 39.6868 262.455 37.8859 261.304 38.159C257.901 38.9635 254.499 39.768 251.097 40.5651C249.938 40.8382 250.366 42.6391 251.518 42.366Z" fill="#E0E0E0"/>
<path d="M267.23 38.6609C270.632 37.8564 274.034 37.0519 277.436 36.2548C278.595 35.9817 278.167 34.1808 277.016 34.4539C273.613 35.2584 270.211 36.0629 266.809 36.86C265.65 37.1331 266.079 38.934 267.23 38.6609Z" fill="#E0E0E0"/>
<path d="M174.301 327C261.879 327 332.875 323.375 332.875 318.903C332.875 314.432 261.879 310.807 174.301 310.807C86.7228 310.807 15.7268 314.432 15.7268 318.903C15.7268 323.375 86.7228 327 174.301 327Z" fill="#F5F5F5"/>
<path d="M101.313 171.161C101.313 171.161 101.327 171.132 101.32 171.132C101.305 171.132 101.305 171.147 101.313 171.161Z" fill="#407BFF"/>
<path d="M281.045 100.372L293.665 114.322L246.426 169.286L199.282 115.074L128.574 202.367C128.574 202.367 101.586 172.239 101.313 171.161C101.047 172.556 19.712 315.501 21.9112 318.903H46.9516L103.999 207.231L128.117 235.109L200.183 145.609L246.189 200.589L305.355 127.009L318.115 138.7L326.742 88.4443L281.053 100.357L281.045 100.372Z" fill="#407BFF"/>
<path opacity="0.7" d="M281.045 100.372L293.665 114.322L246.426 169.286L199.282 115.074L128.574 202.367C128.574 202.367 101.586 172.239 101.313 171.161C101.047 172.556 19.712 315.501 21.9112 318.903H46.9516L103.999 207.231L128.117 235.109L200.183 145.609L246.189 200.589L305.355 127.009L318.115 138.7L326.742 88.4443L281.053 100.357L281.045 100.372Z" fill="white"/>
<path d="M330.823 168.379H278.005C275.702 168.379 273.835 170.246 273.835 172.549V236.246C273.835 238.549 275.702 240.416 278.005 240.416H330.823C333.126 240.416 334.993 238.549 334.993 236.246V172.549C334.993 170.246 333.126 168.379 330.823 168.379Z" fill="#407BFF"/>
<path opacity="0.8" d="M328.823 173.361H279.709C278.894 173.361 278.233 174.022 278.233 174.837V189.089C278.233 189.905 278.894 190.566 279.709 190.566H328.823C329.638 190.566 330.299 189.905 330.299 189.089V174.837C330.299 174.022 329.638 173.361 328.823 173.361Z" fill="white"/>
<path opacity="0.8" d="M294.425 173.361C294.425 173.361 281.414 182.365 286.167 182.712C290.92 183.059 304.462 183.746 302.019 186.233C299.576 188.713 295.945 190.566 295.945 190.566H301.097C301.097 190.566 314.831 183.974 307.503 181.967C300.174 179.959 286.831 183.199 288.285 181.059C289.739 178.919 300.964 173.361 300.964 173.361H294.425Z" fill="white"/>
<path opacity="0.5" d="M328.174 194.456H280.359C279.185 194.456 278.233 195.407 278.233 196.581V233.057C278.233 234.231 279.185 235.183 280.359 235.183H328.174C329.348 235.183 330.299 234.231 330.299 233.057V196.581C330.299 195.407 329.348 194.456 328.174 194.456Z" fill="#263238"/>
<path d="M287.562 194.455V235.493C287.562 235.847 288.115 235.847 288.115 235.493V194.455C288.115 194.101 287.562 194.101 287.562 194.455Z" fill="#407BFF"/>
<path d="M298.196 194.455V235.493C298.196 235.847 298.75 235.847 298.75 235.493V194.455C298.75 194.101 298.196 194.101 298.196 194.455Z" fill="#407BFF"/>
<path d="M308.831 194.81V235.847C308.831 236.201 309.384 236.201 309.384 235.847V194.81C309.384 194.455 308.831 194.455 308.831 194.81Z" fill="#407BFF"/>
<path d="M319.473 195.046V236.083C319.473 236.438 320.026 236.438 320.026 236.083V195.046C320.026 194.692 319.473 194.692 319.473 195.046Z" fill="#407BFF"/>
<path d="M277.997 205.755H330.58C330.934 205.755 330.934 205.202 330.58 205.202H277.997C277.643 205.202 277.643 205.755 277.997 205.755Z" fill="#407BFF"/>
<path d="M277.997 216.206H330.58C330.934 216.206 330.934 215.653 330.58 215.653H277.997C277.643 215.653 277.643 216.206 277.997 216.206Z" fill="#407BFF"/>
<path d="M277.997 226.658H319.746C320.1 226.658 320.1 226.104 319.746 226.104H277.997C277.643 226.104 277.643 226.658 277.997 226.658Z" fill="#407BFF"/>
<path d="M295.436 178.712V185.399H294.779V179.325H293.274V178.712H295.444H295.436Z" fill="#263238"/>
<path d="M301.2 183.473C301.2 184.587 300.425 185.451 298.875 185.451C297.953 185.451 297.067 185.118 296.573 184.594L296.89 184.048C297.303 184.498 298.041 184.823 298.875 184.823C299.938 184.823 300.521 184.307 300.521 183.48C300.521 182.653 299.982 182.151 298.794 182.151H298.337V181.642L300.108 179.325H296.831V178.712H300.949V179.199L299.141 181.576C300.514 181.649 301.2 182.41 301.2 183.48V183.473Z" fill="#263238"/>
<path d="M307.569 183.635H306.292V185.392H305.635V183.635H302.027V183.14L305.421 178.712H306.152L302.875 183.03H305.658V181.48H306.3V183.03H307.576V183.642L307.569 183.635Z" fill="#263238"/>
<path d="M308.366 184.919C308.366 184.624 308.587 184.402 308.853 184.402C309.119 184.402 309.348 184.624 309.348 184.919C309.348 185.214 309.119 185.443 308.853 185.443C308.587 185.443 308.366 185.214 308.366 184.919Z" fill="#263238"/>
<path d="M314.639 183.428C314.639 184.565 313.879 185.451 312.314 185.451C311.392 185.451 310.514 185.118 310.019 184.594L310.337 184.048C310.75 184.498 311.48 184.823 312.3 184.823C313.384 184.823 313.96 184.27 313.96 183.458C313.96 182.602 313.451 182.063 311.82 182.063H310.455L310.787 178.712H314.292V179.325H311.37L311.148 181.458H311.975C313.901 181.458 314.639 182.247 314.639 183.436V183.428Z" fill="#263238"/>
<path d="M315.473 182.055C315.473 179.922 316.543 178.653 318.026 178.653C319.51 178.653 320.587 179.922 320.587 182.055C320.587 184.188 319.51 185.458 318.026 185.458C316.543 185.458 315.473 184.188 315.473 182.055ZM319.908 182.055C319.908 180.269 319.141 179.288 318.026 179.288C316.912 179.288 316.144 180.269 316.144 182.055C316.144 183.842 316.912 184.823 318.026 184.823C319.141 184.823 319.908 183.842 319.908 182.055Z" fill="#263238"/>
<path d="M321.532 182.055C321.532 179.922 322.602 178.653 324.085 178.653C325.569 178.653 326.646 179.922 326.646 182.055C326.646 184.188 325.569 185.458 324.085 185.458C322.602 185.458 321.532 184.188 321.532 182.055ZM325.967 182.055C325.967 180.269 325.2 179.288 324.085 179.288C322.971 179.288 322.204 180.269 322.204 182.055C322.204 183.842 322.971 184.823 324.085 184.823C325.2 184.823 325.967 183.842 325.967 182.055Z" fill="#263238"/>
<path d="M258.669 40.3213H101.283C98.5319 40.3213 96.3016 42.5518 96.3016 45.3033V280.132C96.3016 282.883 98.5319 285.114 101.283 285.114H258.669C261.42 285.114 263.651 282.883 263.651 280.132V45.3033C263.651 42.5518 261.42 40.3213 258.669 40.3213Z" fill="#407BFF"/>
<path opacity="0.5" d="M258.669 40.3213H101.283C98.5319 40.3213 96.3016 42.5518 96.3016 45.3033V280.132C96.3016 282.883 98.5319 285.114 101.283 285.114H258.669C261.42 285.114 263.651 282.883 263.651 280.132V45.3033C263.651 42.5518 261.42 40.3213 258.669 40.3213Z" fill="white"/>
<path d="M109.394 47.0083H102.021V278.892L256.758 280.213L261.031 274.891L257.289 56.1531L109.394 47.0083Z" fill="#EBEBEB"/>
<path d="M261.031 274.891H108.036V47.0083H102.021V280.213H256.758L261.031 274.891Z" fill="#E0E0E0"/>
<path opacity="0.2" d="M102.021 280.213L108.036 274.892H261.031L256.758 280.213H102.021Z" fill="black"/>
<path d="M274.211 267.414H123.032C108.301 230.761 105.696 137.512 108.028 47.0156H258.13C256.905 137.468 259.865 218.686 274.204 267.414H274.211Z" fill="white" stroke="#263238" stroke-miterlimit="10"/>
<path opacity="0.2" d="M256.721 246.66H134.36V257.738H256.721V246.66Z" fill="black"/>
<path opacity="0.2" d="M150.05 64.9067H117.468V100.032H150.05V64.9067Z" fill="black"/>
<path d="M145.216 241.759C145.216 241.759 135.6 197.016 134.36 175.929H149.253C151.002 197.186 155.061 219.077 160.419 241.338L145.216 241.759Z" fill="#407BFF"/>
<path d="M166.043 241.759C166.043 241.759 159.319 209.542 158.072 186.55H172.965C174.714 209.719 175.88 217.033 181.245 241.301L166.043 241.759Z" fill="#407BFF"/>
<path d="M228.352 241.759C228.352 241.759 221.629 209.542 220.382 186.55H235.274C237.023 209.719 238.19 217.033 243.555 241.301L228.352 241.759Z" fill="#407BFF"/>
<path d="M187.526 241.759C187.526 241.759 184.057 227.152 181.245 203.319H196.138C197.887 226.488 202.729 241.308 202.729 241.308L187.526 241.766V241.759Z" fill="#407BFF"/>
<path d="M209.127 241.759C209.127 241.759 207.039 237.987 204.219 214.154H219.112C220.861 237.323 224.33 241.301 224.33 241.301L209.127 241.759Z" fill="#407BFF"/>
<path d="M126.05 172.468C126.058 174.571 126.272 176.697 126.419 178.793C126.737 183.458 127.106 188.115 127.534 192.772C128.604 204.53 129.873 216.332 132.139 227.927C133.091 232.791 134.132 237.81 136.205 242.342C136.286 242.512 136.5 242.615 136.685 242.615C140.39 242.593 144.087 242.563 147.792 242.541C156.648 242.482 165.504 242.423 174.353 242.364C185.061 242.29 195.769 242.216 206.47 242.143C215.747 242.076 225.024 242.017 234.308 241.951C237.348 241.929 240.381 241.906 243.422 241.892C244.861 241.884 246.322 241.951 247.761 241.862C247.828 241.862 247.894 241.862 247.953 241.862C248.662 241.862 248.669 240.748 247.953 240.755C244.248 240.777 240.551 240.807 236.846 240.829C227.99 240.888 219.134 240.947 210.286 241.006C199.577 241.08 188.869 241.154 178.168 241.227C168.891 241.294 159.615 241.353 150.331 241.419C147.29 241.441 144.257 241.464 141.216 241.478L138.375 241.5C137.903 241.5 137.342 241.427 136.877 241.508C136.818 241.523 136.744 241.508 136.685 241.508L137.165 241.781C135.364 237.862 134.419 233.514 133.548 229.315C132.375 223.646 131.512 217.919 130.759 212.184C129.364 201.496 128.368 190.743 127.615 179.989C127.438 177.494 127.172 174.97 127.165 172.468C127.165 171.752 126.058 171.752 126.058 172.468H126.05Z" fill="#263238"/>
<path opacity="0.2" d="M176.131 65.2241H154.021V69.3721H176.131V65.2241Z" fill="black"/>
<path opacity="0.2" d="M161.925 72.0884H154.021V79.9932H161.925V72.0884Z" fill="black"/>
<path d="M184.552 112.033H215.991C215.991 129.282 201.799 143.476 184.552 143.476C167.305 143.476 153.113 129.282 153.113 112.033C153.113 99.4638 160.655 88.0457 172.212 83.1079L184.552 112.033Z" fill="#407BFF"/>
<path d="M186.087 107.516L174.131 78.4283C177.925 76.8709 181.984 76.0664 186.087 76.0664C194.057 76.0664 201.74 79.0999 207.57 84.547L186.087 107.509V107.516Z" fill="#407BFF"/>
<path opacity="0.2" d="M186.087 107.516L174.131 78.4283C177.925 76.8709 181.984 76.0664 186.087 76.0664C194.057 76.0664 201.74 79.0999 207.57 84.547L186.087 107.509V107.516Z" fill="black"/>
<path d="M189.142 109.251L211.599 87.2412C214.33 90.0238 216.514 93.2935 218.05 96.8806C219.585 100.468 220.441 104.306 220.566 108.21L189.142 109.251Z" fill="#407BFF"/>
<path opacity="0.3" d="M189.142 109.251L211.599 87.2412C214.33 90.0238 216.514 93.2935 218.05 96.8806C219.585 100.468 220.441 104.306 220.566 108.21L189.142 109.251Z" fill="white"/>
<path d="M218.655 139.365H244.47C244.824 139.365 244.824 138.811 244.47 138.811H218.655C218.3 138.811 218.3 139.365 218.655 139.365Z" fill="#263238"/>
<path d="M218.839 141.896H244.654C245.009 141.896 245.009 141.343 244.654 141.343H218.839C218.485 141.343 218.485 141.896 218.839 141.896Z" fill="#263238"/>
<path d="M218.839 144.428H231.562C231.917 144.428 231.917 143.874 231.562 143.874H218.839C218.485 143.874 218.485 144.428 218.839 144.428Z" fill="#263238"/>
<path d="M214.743 76.3099H240.559C240.913 76.3099 240.913 75.7563 240.559 75.7563H214.743C214.389 75.7563 214.389 76.3099 214.743 76.3099Z" fill="#263238"/>
<path d="M214.743 78.8416H240.559C240.913 78.8416 240.913 78.2881 240.559 78.2881H214.743C214.389 78.2881 214.389 78.8416 214.743 78.8416Z" fill="#263238"/>
<path d="M214.743 81.3734H227.466C227.821 81.3734 227.821 80.8198 227.466 80.8198H214.743C214.389 80.8198 214.389 81.3734 214.743 81.3734Z" fill="#263238"/>
<path d="M122.39 124.662H148.205C148.559 124.662 148.559 124.108 148.205 124.108H122.39C122.036 124.108 122.036 124.662 122.39 124.662Z" fill="#263238"/>
<path d="M122.39 127.194H148.205C148.559 127.194 148.559 126.64 148.205 126.64H122.39C122.036 126.64 122.036 127.194 122.39 127.194Z" fill="#263238"/>
<path d="M122.39 129.725H135.113C135.467 129.725 135.467 129.171 135.113 129.171H122.39C122.036 129.171 122.036 129.725 122.39 129.725Z" fill="#263238"/>
<path d="M205.762 127.481C208.839 129.371 211.917 131.268 214.987 133.157L205.762 127.481Z" fill="white"/>
<path d="M205.622 127.718C208.699 129.607 211.769 131.504 214.847 133.393C215.149 133.578 215.43 133.106 215.127 132.914C212.05 131.024 208.98 129.127 205.902 127.238C205.6 127.053 205.319 127.526 205.622 127.718Z" fill="#263238"/>
<path d="M216.153 133.157C216.153 133.8 215.629 134.324 214.987 134.324C214.345 134.324 213.821 133.8 213.821 133.157C213.821 132.515 214.345 131.991 214.987 131.991C215.629 131.991 216.153 132.515 216.153 133.157Z" fill="#263238"/>
<path d="M203.541 82.6648C205.164 81.0557 206.788 79.4393 208.411 77.8303C208.647 77.6015 208.876 77.3653 209.112 77.1365C209.363 76.8856 208.972 76.4944 208.721 76.7453C207.098 78.3544 205.474 79.9707 203.85 81.5798C203.614 81.8086 203.386 82.0448 203.149 82.2736C202.898 82.5245 203.29 82.9157 203.541 82.6648Z" fill="#263238"/>
<path d="M209.703 75.4908C210.337 75.6605 210.721 76.2805 210.559 76.8784C210.404 77.4762 209.762 77.8305 209.127 77.6607C208.492 77.491 208.109 76.871 208.271 76.2731C208.433 75.6753 209.068 75.321 209.703 75.4908Z" fill="#263238"/>
<path d="M154.021 111.303H136.493C136.139 111.303 136.139 111.856 136.493 111.856H154.021C154.375 111.856 154.375 111.303 154.021 111.303Z" fill="#263238"/>
<path d="M134.906 112.019C134.589 111.45 134.766 110.742 135.305 110.439C135.844 110.136 136.545 110.351 136.862 110.919C137.18 111.487 137.002 112.196 136.464 112.498C135.925 112.801 135.224 112.587 134.906 112.019Z" fill="#263238"/>
<path opacity="0.2" d="M244.02 154.576H125.076V166.533H244.02V154.576Z" fill="black"/>
<path opacity="0.2" d="M231.09 121.193H222.16V135.32H231.09V121.193Z" fill="black"/>
<path opacity="0.2" d="M242.374 128.079H233.444V135.46H242.374V128.079Z" fill="black"/>
<path opacity="0.2" d="M130.493 136.146H120.766V145.874H130.493V136.146Z" fill="black"/>
<path opacity="0.2" d="M151.504 136.146H133.755V145.874H151.504V136.146Z" fill="black"/>
<path opacity="0.2" d="M241.284 104.452C242.154 100.783 239.885 97.104 236.217 96.234C232.549 95.364 228.87 97.6329 228 101.302C227.13 104.971 229.398 108.65 233.067 109.52C236.735 110.39 240.414 108.121 241.284 104.452Z" fill="black"/>
<path opacity="0.2" d="M153.105 40.3216V58.0356L208.212 58.3456L208.123 55.0906L181.666 39.4507L153.105 40.3216Z" fill="black"/>
<path d="M161.984 36.5796H205.208C208.308 36.5796 210.824 39.0964 210.824 42.1964V55.0907H156.367V42.1964C156.367 39.0964 158.884 36.5796 161.984 36.5796Z" fill="#263238"/>
<path d="M173.533 38.0334L171.46 30.8592C171.305 30.3352 171.674 29.7964 172.183 29.7964H196.552C197.076 29.7964 197.445 30.3573 197.267 30.8887L194.825 38.4024C194.714 38.7346 194.426 38.956 194.094 38.9486L174.242 38.6091C173.917 38.6091 173.629 38.3729 173.526 38.0334H173.533Z" fill="#263238"/>
<path d="M114.656 36.8599H153.098" stroke="#407BFF" stroke-width="0.75" stroke-linejoin="round"/>
<path d="M112.486 36.8599H106.501" stroke="#407BFF" stroke-width="0.75" stroke-linejoin="round"/>
<path d="M174.434 36.2102H195.592C196.308 36.2102 196.308 35.103 195.592 35.103H174.434C173.718 35.103 173.718 36.2102 174.434 36.2102Z" fill="black"/>
<path d="M276.647 57.3638H240.78C238.192 57.3638 236.094 59.4621 236.094 62.0506V97.9214C236.094 100.51 238.192 102.608 240.78 102.608H276.647C279.235 102.608 281.333 100.51 281.333 97.9214V62.0506C281.333 59.4621 279.235 57.3638 276.647 57.3638Z" fill="#407BFF"/>
<path opacity="0.8" d="M276.647 57.3638H240.78C238.192 57.3638 236.094 59.4621 236.094 62.0506V97.9214C236.094 100.51 238.192 102.608 240.78 102.608H276.647C279.235 102.608 281.333 100.51 281.333 97.9214V62.0506C281.333 59.4621 279.235 57.3638 276.647 57.3638Z" fill="white"/>
<g opacity="0.3">
<path d="M242.927 64.1099V95.6186C242.927 95.7662 243.053 95.8991 243.208 95.8991H274.233C274.588 95.8991 274.588 95.3455 274.233 95.3455H243.208L243.488 95.626V64.1173C243.488 63.763 242.935 63.763 242.935 64.1173L242.927 64.1099Z" fill="black"/>
</g>
<g opacity="0.3">
<path d="M251.016 63.9698V95.5597C251.016 95.914 251.569 95.914 251.569 95.5597V63.9698C251.569 63.6155 251.016 63.6155 251.016 63.9698Z" fill="black"/>
</g>
<g opacity="0.3">
<path d="M258.994 63.9698V95.5597C258.994 95.914 259.547 95.914 259.547 95.5597V63.9698C259.547 63.6155 258.994 63.6155 258.994 63.9698Z" fill="black"/>
</g>
<g opacity="0.3">
<path d="M266.964 63.9698V95.5597C266.964 95.914 267.518 95.914 267.518 95.5597V63.9698C267.518 63.6155 266.964 63.6155 266.964 63.9698Z" fill="black"/>
</g>
<g opacity="0.3">
<path d="M243.378 87.9129H273.983C274.337 87.9129 274.337 87.3594 273.983 87.3594H243.378C243.024 87.3594 243.024 87.9129 243.378 87.9129Z" fill="black"/>
</g>
<g opacity="0.3">
<path d="M243.378 80.0453H273.983C274.337 80.0453 274.337 79.4917 273.983 79.4917H243.378C243.024 79.4917 243.024 80.0453 243.378 80.0453Z" fill="black"/>
</g>
<g opacity="0.3">
<path d="M243.378 71.7713H273.983C274.337 71.7713 274.337 71.2178 273.983 71.2178H243.378C243.024 71.2178 243.024 71.7713 243.378 71.7713Z" fill="black"/>
</g>
<path d="M243.887 79.3588C245.016 76.8863 246.455 74.1996 249.001 72.9818C249.872 72.5685 250.891 72.2511 251.857 72.3544C252.957 72.4725 253.747 73.2549 254.293 74.1627C255.466 76.1187 256.042 78.5322 256.802 80.6726C257.665 83.1009 259.119 89.1015 262.986 87.6032C264.411 87.0497 265.193 85.4554 265.828 84.1711C266.315 83.1895 266.787 82.1931 267.186 81.1745C268.16 78.7019 270.005 76.2441 272.898 76.1998C273.252 76.1998 273.252 75.6389 272.898 75.6463C267.016 75.7348 266.927 82.7909 263.946 86.1935C263.245 86.998 262.293 87.4556 261.223 87.1161C259.887 86.688 259.127 85.3225 258.632 84.1121C257.688 81.8166 256.942 79.4253 256.116 77.0929C255.54 75.4765 254.994 73.5796 253.577 72.4799C252.315 71.5056 250.677 71.6975 249.274 72.2511C246.308 73.4246 244.669 76.3032 243.407 79.071C243.26 79.3957 243.739 79.6762 243.887 79.3515V79.3588Z" fill="#263238"/>
<path d="M267.245 81.7204C268.149 81.7204 268.883 80.9868 268.883 80.0819C268.883 79.177 268.149 78.4434 267.245 78.4434C266.34 78.4434 265.606 79.177 265.606 80.0819C265.606 80.9868 266.34 81.7204 267.245 81.7204Z" fill="#407BFF"/>
<path d="M262.809 87.64C262.809 88.5478 262.071 89.2786 261.171 89.2786C260.27 89.2786 259.532 88.5478 259.532 87.64C259.532 86.7322 260.263 86.0015 261.171 86.0015C262.079 86.0015 262.809 86.7395 262.809 87.64Z" fill="#407BFF"/>
<path d="M251.68 73.4763C252.585 73.4763 253.319 72.7427 253.319 71.8378C253.319 70.9328 252.585 70.1992 251.68 70.1992C250.775 70.1992 250.042 70.9328 250.042 71.8378C250.042 72.7427 250.775 73.4763 251.68 73.4763Z" fill="#407BFF"/>
<path d="M83.1504 68.0366H40.5752C37.987 68.0366 35.8889 70.135 35.8889 72.7234V115.303C35.8889 117.892 37.987 119.99 40.5752 119.99H83.1504C85.7386 119.99 87.8367 117.892 87.8367 115.303V72.7234C87.8367 70.135 85.7386 68.0366 83.1504 68.0366Z" fill="#407BFF"/>
<path opacity="0.7" d="M83.1504 68.0366H40.5752C37.987 68.0366 35.8889 70.135 35.8889 72.7234V115.303C35.8889 117.892 37.987 119.99 40.5752 119.99H83.1504C85.7386 119.99 87.8367 117.892 87.8367 115.303V72.7234C87.8367 70.135 85.7386 68.0366 83.1504 68.0366Z" fill="white"/>
<path d="M62.7299 76.4951C52.9957 76.4951 45.1064 84.3852 45.1064 94.1205C45.1064 103.856 52.9957 111.746 62.7299 111.746C72.4641 111.746 80.3533 103.856 80.3533 94.1205C80.3533 84.3852 72.4641 76.4951 62.7299 76.4951ZM62.7299 104.697C57.0916 104.697 52.5233 100.129 52.5233 94.4896C52.5233 88.8506 57.0916 84.2819 62.7299 84.2819C68.3682 84.2819 72.9364 88.8506 72.9364 94.4896C72.9364 100.129 68.3682 104.697 62.7299 104.697Z" fill="#407BFF"/>
<path opacity="0.3" d="M65.0326 76.65L63.5197 84.3186C68.6119 84.7098 72.6561 88.8357 72.9218 93.9654C74.8849 93.4561 77.6966 92.6663 80.2132 91.943C79.2317 83.9939 72.9661 77.6833 65.0326 76.6426V76.65Z" fill="white"/>
<path d="M62.7299 76.4951C56.1765 76.4951 50.4643 80.0748 47.4312 85.3742L53.8296 89.5075C55.5787 86.3928 58.9071 84.2893 62.7299 84.2893C62.9956 84.2893 63.2539 84.304 63.5122 84.3188L65.0251 76.6501C64.2723 76.5542 63.5048 76.4951 62.7225 76.4951H62.7299Z" fill="white"/>
<path d="M45.1065 94.1207C45.1065 94.4307 45.1139 94.7407 45.1286 95.0507C47.6305 95.0507 50.8408 95.0802 52.5455 95.1024C52.5308 94.9031 52.5234 94.6964 52.5234 94.4972C52.5234 92.6888 52.9957 90.9839 53.8223 89.5151L47.4238 85.3818C45.9478 87.9577 45.0991 90.9396 45.0991 94.1281L45.1065 94.1207Z" fill="#263238"/>
<path d="M126.619 293.823H77.9327V302.296H126.619V293.823Z" fill="#407BFF"/>
<g opacity="0.3">
<path d="M81.918 294.288V301.883C81.918 302.237 82.4715 302.237 82.4715 301.883V294.288C82.4715 293.934 81.918 293.934 81.918 294.288Z" fill="#263238"/>
</g>
<g opacity="0.3">
<path d="M85.9401 294.288V301.883C85.9401 302.237 86.4936 302.237 86.4936 301.883V294.288C86.4936 293.934 85.9401 293.934 85.9401 294.288Z" fill="#263238"/>
</g>
<g opacity="0.3">
<path d="M89.9031 294.288V301.883C89.9031 302.237 90.4566 302.237 90.4566 301.883V294.288C90.4566 293.934 89.9031 293.934 89.9031 294.288Z" fill="#263238"/>
</g>
<g opacity="0.3">
<path d="M93.8735 294.288V301.883C93.8735 302.237 94.427 302.237 94.427 301.883V294.288C94.427 293.934 93.8735 293.934 93.8735 294.288Z" fill="#263238"/>
</g>
<g opacity="0.3">
<path d="M97.8367 294.288V301.883C97.8367 302.237 98.3902 302.237 98.3902 301.883V294.288C98.3902 293.934 97.8367 293.934 97.8367 294.288Z" fill="#263238"/>
</g>
<g opacity="0.3">
<path d="M101.8 294.288V301.883C101.8 302.237 102.353 302.237 102.353 301.883V294.288C102.353 293.934 101.8 293.934 101.8 294.288Z" fill="#263238"/>
</g>
<g opacity="0.3">
<path d="M105.763 294.288V301.883C105.763 302.237 106.316 302.237 106.316 301.883V294.288C106.316 293.934 105.763 293.934 105.763 294.288Z" fill="#263238"/>
</g>
<g opacity="0.3">
<path d="M109.733 294.288V301.883C109.733 302.237 110.287 302.237 110.287 301.883V294.288C110.287 293.934 109.733 293.934 109.733 294.288Z" fill="#263238"/>
</g>
<g opacity="0.3">
<path d="M113.696 294.288V301.883C113.696 302.237 114.25 302.237 114.25 301.883V294.288C114.25 293.934 113.696 293.934 113.696 294.288Z" fill="#263238"/>
</g>
<g opacity="0.3">
<path d="M117.659 294.288V301.883C117.659 302.237 118.213 302.237 118.213 301.883V294.288C118.213 293.934 117.659 293.934 117.659 294.288Z" fill="#263238"/>
</g>
<g opacity="0.3">
<path d="M121.622 294.288V301.883C121.622 302.237 122.176 302.237 122.176 301.883V294.288C122.176 293.934 121.622 293.934 121.622 294.288Z" fill="#263238"/>
</g>
<path d="M125.888 310.305H77.2021V318.778H125.888V310.305Z" fill="#407BFF"/>
<path d="M129.615 302.053H80.9291V310.526H129.615V302.053Z" fill="#407BFF"/>
<path opacity="0.2" d="M129.615 302.053H80.9291V310.526H129.615V302.053Z" fill="black"/>
<g opacity="0.3">
<path d="M85.1356 302.488V310.083C85.1356 310.438 85.6891 310.438 85.6891 310.083V302.488C85.6891 302.134 85.1356 302.134 85.1356 302.488Z" fill="#263238"/>
</g>
<g opacity="0.3">
<path d="M89.165 302.488V310.083C89.165 310.438 89.7185 310.438 89.7185 310.083V302.488C89.7185 302.134 89.165 302.134 89.165 302.488Z" fill="#263238"/>
</g>
<g opacity="0.3">
<path d="M93.1282 302.488V310.083C93.1282 310.438 93.6817 310.438 93.6817 310.083V302.488C93.6817 302.134 93.1282 302.134 93.1282 302.488Z" fill="#263238"/>
</g>
<g opacity="0.3">
<path d="M97.0912 302.488V310.083C97.0912 310.438 97.6447 310.438 97.6447 310.083V302.488C97.6447 302.134 97.0912 302.134 97.0912 302.488Z" fill="#263238"/>
</g>
<g opacity="0.3">
<path d="M101.054 302.488V310.083C101.054 310.438 101.608 310.438 101.608 310.083V302.488C101.608 302.134 101.054 302.134 101.054 302.488Z" fill="#263238"/>
</g>
<g opacity="0.3">
<path d="M105.025 302.488V310.083C105.025 310.438 105.578 310.438 105.578 310.083V302.488C105.578 302.134 105.025 302.134 105.025 302.488Z" fill="#263238"/>
</g>
<g opacity="0.3">
<path d="M108.988 302.488V310.083C108.988 310.438 109.541 310.438 109.541 310.083V302.488C109.541 302.134 108.988 302.134 108.988 302.488Z" fill="#263238"/>
</g>
<g opacity="0.3">
<path d="M112.951 302.488V310.083C112.951 310.438 113.504 310.438 113.504 310.083V302.488C113.504 302.134 112.951 302.134 112.951 302.488Z" fill="#263238"/>
</g>
<g opacity="0.3">
<path d="M116.921 302.488V310.083C116.921 310.438 117.475 310.438 117.475 310.083V302.488C117.475 302.134 116.921 302.134 116.921 302.488Z" fill="#263238"/>
</g>
<g opacity="0.3">
<path d="M120.884 302.488V310.083C120.884 310.438 121.438 310.438 121.438 310.083V302.488C121.438 302.134 120.884 302.134 120.884 302.488Z" fill="#263238"/>
</g>
<g opacity="0.3">
<path d="M124.847 302.488V310.083C124.847 310.438 125.401 310.438 125.401 310.083V302.488C125.401 302.134 124.847 302.134 124.847 302.488Z" fill="#263238"/>
</g>
<path d="M129.615 285.225H80.9291V293.698H129.615V285.225Z" fill="#407BFF"/>
<path opacity="0.2" d="M129.615 285.225H80.9291V293.698H129.615V285.225Z" fill="black"/>
<g opacity="0.3">
<path d="M85.1356 285.668V293.262C85.1356 293.617 85.6891 293.617 85.6891 293.262V285.668C85.6891 285.313 85.1356 285.313 85.1356 285.668Z" fill="#263238"/>
</g>
<g opacity="0.3">
<path d="M89.165 285.668V293.262C89.165 293.617 89.7185 293.617 89.7185 293.262V285.668C89.7185 285.313 89.165 285.313 89.165 285.668Z" fill="#263238"/>
</g>
<g opacity="0.3">
<path d="M93.1282 285.668V293.262C93.1282 293.617 93.6817 293.617 93.6817 293.262V285.668C93.6817 285.313 93.1282 285.313 93.1282 285.668Z" fill="#263238"/>
</g>
<g opacity="0.3">
<path d="M97.0912 285.668V293.262C97.0912 293.617 97.6447 293.617 97.6447 293.262V285.668C97.6447 285.313 97.0912 285.313 97.0912 285.668Z" fill="#263238"/>
</g>
<g opacity="0.3">
<path d="M101.054 285.668V293.262C101.054 293.617 101.608 293.617 101.608 293.262V285.668C101.608 285.313 101.054 285.313 101.054 285.668Z" fill="#263238"/>
</g>
<g opacity="0.3">
<path d="M105.025 285.668V293.262C105.025 293.617 105.578 293.617 105.578 293.262V285.668C105.578 285.313 105.025 285.313 105.025 285.668Z" fill="#263238"/>
</g>
<g opacity="0.3">
<path d="M108.988 285.668V293.262C108.988 293.617 109.541 293.617 109.541 293.262V285.668C109.541 285.313 108.988 285.313 108.988 285.668Z" fill="#263238"/>
</g>
<g opacity="0.3">
<path d="M112.951 285.668V293.262C112.951 293.617 113.504 293.617 113.504 293.262V285.668C113.504 285.313 112.951 285.313 112.951 285.668Z" fill="#263238"/>
</g>
<g opacity="0.3">
<path d="M116.921 285.668V293.262C116.921 293.617 117.475 293.617 117.475 293.262V285.668C117.475 285.313 116.921 285.313 116.921 285.668Z" fill="#263238"/>
</g>
<g opacity="0.3">
<path d="M120.884 285.668V293.262C120.884 293.617 121.438 293.617 121.438 293.262V285.668C121.438 285.313 120.884 285.313 120.884 285.668Z" fill="#263238"/>
</g>
<g opacity="0.3">
<path d="M124.847 285.668V293.262C124.847 293.617 125.401 293.617 125.401 293.262V285.668C125.401 285.313 124.847 285.313 124.847 285.668Z" fill="#263238"/>
</g>
<g opacity="0.3">
<path d="M80.7888 310.895V318.49C80.7888 318.844 81.3423 318.844 81.3423 318.49V310.895C81.3423 310.541 80.7888 310.541 80.7888 310.895Z" fill="#263238"/>
</g>
<g opacity="0.3">
<path d="M84.8109 310.895V318.49C84.8109 318.844 85.3644 318.844 85.3644 318.49V310.895C85.3644 310.541 84.8109 310.541 84.8109 310.895Z" fill="#263238"/>
</g>
<g opacity="0.3">
<path d="M88.7814 310.895V318.49C88.7814 318.844 89.3349 318.844 89.3349 318.49V310.895C89.3349 310.541 88.7814 310.541 88.7814 310.895Z" fill="#263238"/>
</g>
<g opacity="0.3">
<path d="M92.7444 310.895V318.49C92.7444 318.844 93.2979 318.844 93.2979 318.49V310.895C93.2979 310.541 92.7444 310.541 92.7444 310.895Z" fill="#263238"/>
</g>
<g opacity="0.3">
<path d="M96.7075 310.895V318.49C96.7075 318.844 97.261 318.844 97.261 318.49V310.895C97.261 310.541 96.7075 310.541 96.7075 310.895Z" fill="#263238"/>
</g>
<g opacity="0.3">
<path d="M100.671 310.895V318.49C100.671 318.844 101.224 318.844 101.224 318.49V310.895C101.224 310.541 100.671 310.541 100.671 310.895Z" fill="#263238"/>
</g>
<g opacity="0.3">
<path d="M104.641 310.895V318.49C104.641 318.844 105.194 318.844 105.194 318.49V310.895C105.194 310.541 104.641 310.541 104.641 310.895Z" fill="#263238"/>
</g>
<g opacity="0.3">
<path d="M108.604 310.895V318.49C108.604 318.844 109.158 318.844 109.158 318.49V310.895C109.158 310.541 108.604 310.541 108.604 310.895Z" fill="#263238"/>
</g>
<g opacity="0.3">
<path d="M112.567 310.895V318.49C112.567 318.844 113.121 318.844 113.121 318.49V310.895C113.121 310.541 112.567 310.541 112.567 310.895Z" fill="#263238"/>
</g>
<g opacity="0.3">
<path d="M116.53 310.895V318.49C116.53 318.844 117.084 318.844 117.084 318.49V310.895C117.084 310.541 116.53 310.541 116.53 310.895Z" fill="#263238"/>
</g>
<g opacity="0.3">
<path d="M120.501 310.895V318.49C120.501 318.844 121.054 318.844 121.054 318.49V310.895C121.054 310.541 120.501 310.541 120.501 310.895Z" fill="#263238"/>
</g>
<g opacity="0.3">
<path d="M126.619 293.823H77.9328V302.304H80.9291V310.305H77.2021V318.785H125.888V310.526H129.608V302.053H126.619V293.823Z" fill="black"/>
</g>
<g opacity="0.2">
<path d="M129.615 285.225H80.9291V293.698H129.615V285.225Z" fill="black"/>
</g>
<path d="M96.4123 293.949H47.7264V302.422H96.4123V293.949Z" fill="#407BFF"/>
<g opacity="0.3">
<path d="M51.7043 294.414V302.009C51.7043 302.363 52.2578 302.363 52.2578 302.009V294.414C52.2578 294.059 51.7043 294.059 51.7043 294.414Z" fill="#263238"/>
</g>
<g opacity="0.3">
<path d="M55.7264 294.414V302.009C55.7264 302.363 56.2799 302.363 56.2799 302.009V294.414C56.2799 294.059 55.7264 294.059 55.7264 294.414Z" fill="#263238"/>
</g>
<g opacity="0.3">
<path d="M59.6969 294.414V302.009C59.6969 302.363 60.2504 302.363 60.2504 302.009V294.414C60.2504 294.059 59.6969 294.059 59.6969 294.414Z" fill="#263238"/>
</g>
<g opacity="0.3">
<path d="M63.6599 294.414V302.009C63.6599 302.363 64.2134 302.363 64.2134 302.009V294.414C64.2134 294.059 63.6599 294.059 63.6599 294.414Z" fill="#263238"/>
</g>
<g opacity="0.3">
<path d="M67.623 294.414V302.009C67.623 302.363 68.1765 302.363 68.1765 302.009V294.414C68.1765 294.059 67.623 294.059 67.623 294.414Z" fill="#263238"/>
</g>
<g opacity="0.3">
<path d="M71.5935 294.414V302.009C71.5935 302.363 72.147 302.363 72.147 302.009V294.414C72.147 294.059 71.5935 294.059 71.5935 294.414Z" fill="#263238"/>
</g>
<g opacity="0.3">
<path d="M75.5565 294.414V302.009C75.5565 302.363 76.11 302.363 76.11 302.009V294.414C76.11 294.059 75.5565 294.059 75.5565 294.414Z" fill="#263238"/>
</g>
<g opacity="0.3">
<path d="M79.5195 294.414V302.009C79.5195 302.363 80.073 302.363 80.073 302.009V294.414C80.073 294.059 79.5195 294.059 79.5195 294.414Z" fill="#263238"/>
</g>
<g opacity="0.3">
<path d="M83.4827 294.414V302.009C83.4827 302.363 84.0362 302.363 84.0362 302.009V294.414C84.0362 294.059 83.4827 294.059 83.4827 294.414Z" fill="#263238"/>
</g>
<g opacity="0.3">
<path d="M87.4531 294.414V302.009C87.4531 302.363 88.0066 302.363 88.0066 302.009V294.414C88.0066 294.059 87.4531 294.059 87.4531 294.414Z" fill="#263238"/>
</g>
<g opacity="0.3">
<path d="M91.4161 294.414V302.009C91.4161 302.363 91.9696 302.363 91.9696 302.009V294.414C91.9696 294.059 91.4161 294.059 91.4161 294.414Z" fill="#263238"/>
</g>
<path d="M95.6817 310.43H46.9958V318.903H95.6817V310.43Z" fill="#407BFF"/>
<path d="M99.4012 302.171H50.7153V310.644H99.4012V302.171Z" fill="#407BFF"/>
<path opacity="0.2" d="M99.4012 302.171H50.7153V310.644H99.4012V302.171Z" fill="black"/>
<g opacity="0.3">
<path d="M54.9293 302.614V310.209C54.9293 310.563 55.4828 310.563 55.4828 310.209V302.614C55.4828 302.26 54.9293 302.26 54.9293 302.614Z" fill="#263238"/>
</g>
<g opacity="0.3">
<path d="M58.9514 302.614V310.209C58.9514 310.563 59.5049 310.563 59.5049 310.209V302.614C59.5049 302.26 58.9514 302.26 58.9514 302.614Z" fill="#263238"/>
</g>
<g opacity="0.3">
<path d="M62.9144 302.614V310.209C62.9144 310.563 63.4679 310.563 63.4679 310.209V302.614C63.4679 302.26 62.9144 302.26 62.9144 302.614Z" fill="#263238"/>
</g>
<g opacity="0.3">
<path d="M66.8849 302.614V310.209C66.8849 310.563 67.4384 310.563 67.4384 310.209V302.614C67.4384 302.26 66.8849 302.26 66.8849 302.614Z" fill="#263238"/>
</g>
<g opacity="0.3">
<path d="M70.848 302.614V310.209C70.848 310.563 71.4015 310.563 71.4015 310.209V302.614C71.4015 302.26 70.848 302.26 70.848 302.614Z" fill="#263238"/>
</g>
<g opacity="0.3">
<path d="M74.811 302.614V310.209C74.811 310.563 75.3645 310.563 75.3645 310.209V302.614C75.3645 302.26 74.811 302.26 74.811 302.614Z" fill="#263238"/>
</g>
<g opacity="0.3">
<path d="M78.774 302.614V310.209C78.774 310.563 79.3275 310.563 79.3275 310.209V302.614C79.3275 302.26 78.774 302.26 78.774 302.614Z" fill="#263238"/>
</g>
<g opacity="0.3">
<path d="M82.7445 302.614V310.209C82.7445 310.563 83.298 310.563 83.298 310.209V302.614C83.298 302.26 82.7445 302.26 82.7445 302.614Z" fill="#263238"/>
</g>
<g opacity="0.3">
<path d="M86.7076 302.614V310.209C86.7076 310.563 87.2611 310.563 87.2611 310.209V302.614C87.2611 302.26 86.7076 302.26 86.7076 302.614Z" fill="#263238"/>
</g>
<g opacity="0.3">
<path d="M90.6707 302.614V310.209C90.6707 310.563 91.2242 310.563 91.2242 310.209V302.614C91.2242 302.26 90.6707 302.26 90.6707 302.614Z" fill="#263238"/>
</g>
<g opacity="0.3">
<path d="M94.6337 302.614V310.209C94.6337 310.563 95.1872 310.563 95.1872 310.209V302.614C95.1872 302.26 94.6337 302.26 94.6337 302.614Z" fill="#263238"/>
</g>
<path d="M99.4012 285.35H50.7153V293.823H99.4012V285.35Z" fill="#407BFF"/>
<path opacity="0.2" d="M99.4012 285.35H50.7153V293.823H99.4012V285.35Z" fill="black"/>
<g opacity="0.3">
<path d="M54.9293 285.793V293.388C54.9293 293.742 55.4828 293.742 55.4828 293.388V285.793C55.4828 285.439 54.9293 285.439 54.9293 285.793Z" fill="#263238"/>
</g>
<g opacity="0.3">
<path d="M58.9514 285.793V293.388C58.9514 293.742 59.5049 293.742 59.5049 293.388V285.793C59.5049 285.439 58.9514 285.439 58.9514 285.793Z" fill="#263238"/>
</g>
<g opacity="0.3">
<path d="M62.9144 285.793V293.388C62.9144 293.742 63.4679 293.742 63.4679 293.388V285.793C63.4679 285.439 62.9144 285.439 62.9144 285.793Z" fill="#263238"/>
</g>
<g opacity="0.3">
<path d="M66.8849 285.793V293.388C66.8849 293.742 67.4384 293.742 67.4384 293.388V285.793C67.4384 285.439 66.8849 285.439 66.8849 285.793Z" fill="#263238"/>
</g>
<g opacity="0.3">
<path d="M70.848 285.793V293.388C70.848 293.742 71.4015 293.742 71.4015 293.388V285.793C71.4015 285.439 70.848 285.439 70.848 285.793Z" fill="#263238"/>
</g>
<g opacity="0.3">
<path d="M74.811 285.793V293.388C74.811 293.742 75.3645 293.742 75.3645 293.388V285.793C75.3645 285.439 74.811 285.439 74.811 285.793Z" fill="#263238"/>
</g>
<g opacity="0.3">
<path d="M78.774 285.793V293.388C78.774 293.742 79.3275 293.742 79.3275 293.388V285.793C79.3275 285.439 78.774 285.439 78.774 285.793Z" fill="#263238"/>
</g>
<g opacity="0.3">
<path d="M82.7445 285.793V293.388C82.7445 293.742 83.298 293.742 83.298 293.388V285.793C83.298 285.439 82.7445 285.439 82.7445 285.793Z" fill="#263238"/>
</g>
<g opacity="0.3">
<path d="M86.7076 285.793V293.388C86.7076 293.742 87.2611 293.742 87.2611 293.388V285.793C87.2611 285.439 86.7076 285.439 86.7076 285.793Z" fill="#263238"/>
</g>
<g opacity="0.3">
<path d="M90.6707 285.793V293.388C90.6707 293.742 91.2242 293.742 91.2242 293.388V285.793C91.2242 285.439 90.6707 285.439 90.6707 285.793Z" fill="#263238"/>
</g>
<g opacity="0.3">
<path d="M94.6337 285.793V293.388C94.6337 293.742 95.1872 293.742 95.1872 293.388V285.793C95.1872 285.439 94.6337 285.439 94.6337 285.793Z" fill="#263238"/>
</g>
<g opacity="0.3">
<path d="M50.5752 311.021V318.615C50.5752 318.97 51.1287 318.97 51.1287 318.615V311.021C51.1287 310.666 50.5752 310.666 50.5752 311.021Z" fill="#263238"/>
</g>
<g opacity="0.3">
<path d="M54.6046 311.021V318.615C54.6046 318.97 55.1581 318.97 55.1581 318.615V311.021C55.1581 310.666 54.6046 310.666 54.6046 311.021Z" fill="#263238"/>
</g>
<g opacity="0.3">
<path d="M58.5677 311.021V318.615C58.5677 318.97 59.1212 318.97 59.1212 318.615V311.021C59.1212 310.666 58.5677 310.666 58.5677 311.021Z" fill="#263238"/>
</g>
<g opacity="0.3">
<path d="M62.5308 311.021V318.615C62.5308 318.97 63.0843 318.97 63.0843 318.615V311.021C63.0843 310.666 62.5308 310.666 62.5308 311.021Z" fill="#263238"/>
</g>
<g opacity="0.3">
<path d="M66.5012 311.021V318.615C66.5012 318.97 67.0547 318.97 67.0547 318.615V311.021C67.0547 310.666 66.5012 310.666 66.5012 311.021Z" fill="#263238"/>
</g>
<g opacity="0.3">
<path d="M70.4644 311.021V318.615C70.4644 318.97 71.0179 318.97 71.0179 318.615V311.021C71.0179 310.666 70.4644 310.666 70.4644 311.021Z" fill="#263238"/>
</g>
<g opacity="0.3">
<path d="M74.4274 311.021V318.615C74.4274 318.97 74.9809 318.97 74.9809 318.615V311.021C74.9809 310.666 74.4274 310.666 74.4274 311.021Z" fill="#263238"/>
</g>
<g opacity="0.3">
<path d="M78.3904 311.021V318.615C78.3904 318.97 78.9439 318.97 78.9439 318.615V311.021C78.9439 310.666 78.3904 310.666 78.3904 311.021Z" fill="#263238"/>
</g>
<g opacity="0.3">
<path d="M82.3608 311.021V318.615C82.3608 318.97 82.9143 318.97 82.9143 318.615V311.021C82.9143 310.666 82.3608 310.666 82.3608 311.021Z" fill="#263238"/>
</g>
<g opacity="0.3">
<path d="M86.324 311.021V318.615C86.324 318.97 86.8775 318.97 86.8775 318.615V311.021C86.8775 310.666 86.324 310.666 86.324 311.021Z" fill="#263238"/>
</g>
<g opacity="0.3">
<path d="M90.287 311.021V318.615C90.287 318.97 90.8405 318.97 90.8405 318.615V311.021C90.8405 310.666 90.287 310.666 90.287 311.021Z" fill="#263238"/>
</g>
<path d="M96.4123 260.735H47.7264V269.208H96.4123V260.735Z" fill="#407BFF"/>
<g opacity="0.3">
<path d="M51.7043 261.2V268.795C51.7043 269.149 52.2578 269.149 52.2578 268.795V261.2C52.2578 260.846 51.7043 260.846 51.7043 261.2Z" fill="#263238"/>
</g>
<g opacity="0.3">
<path d="M55.7264 261.2V268.795C55.7264 269.149 56.2799 269.149 56.2799 268.795V261.2C56.2799 260.846 55.7264 260.846 55.7264 261.2Z" fill="#263238"/>
</g>
<g opacity="0.3">
<path d="M59.6969 261.2V268.795C59.6969 269.149 60.2504 269.149 60.2504 268.795V261.2C60.2504 260.846 59.6969 260.846 59.6969 261.2Z" fill="#263238"/>
</g>
<g opacity="0.3">
<path d="M63.6599 261.2V268.795C63.6599 269.149 64.2134 269.149 64.2134 268.795V261.2C64.2134 260.846 63.6599 260.846 63.6599 261.2Z" fill="#263238"/>
</g>
<g opacity="0.3">
<path d="M67.623 261.2V268.795C67.623 269.149 68.1765 269.149 68.1765 268.795V261.2C68.1765 260.846 67.623 260.846 67.623 261.2Z" fill="#263238"/>
</g>
<g opacity="0.3">
<path d="M71.5935 261.2V268.795C71.5935 269.149 72.147 269.149 72.147 268.795V261.2C72.147 260.846 71.5935 260.846 71.5935 261.2Z" fill="#263238"/>
</g>
<g opacity="0.3">
<path d="M75.5565 261.2V268.795C75.5565 269.149 76.11 269.149 76.11 268.795V261.2C76.11 260.846 75.5565 260.846 75.5565 261.2Z" fill="#263238"/>
</g>
<g opacity="0.3">
<path d="M79.5195 261.2V268.795C79.5195 269.149 80.073 269.149 80.073 268.795V261.2C80.073 260.846 79.5195 260.846 79.5195 261.2Z" fill="#263238"/>
</g>
<g opacity="0.3">
<path d="M83.4827 261.2V268.795C83.4827 269.149 84.0362 269.149 84.0362 268.795V261.2C84.0362 260.846 83.4827 260.846 83.4827 261.2Z" fill="#263238"/>
</g>
<g opacity="0.3">
<path d="M87.4531 261.2V268.795C87.4531 269.149 88.0066 269.149 88.0066 268.795V261.2C88.0066 260.846 87.4531 260.846 87.4531 261.2Z" fill="#263238"/>
</g>
<g opacity="0.3">
<path d="M91.4161 261.2V268.795C91.4161 269.149 91.9696 269.149 91.9696 268.795V261.2C91.9696 260.846 91.4161 260.846 91.4161 261.2Z" fill="#263238"/>
</g>
<path d="M95.6817 277.216H46.9958V285.69H95.6817V277.216Z" fill="#407BFF"/>
<path d="M99.4012 268.957H50.7153V277.43H99.4012V268.957Z" fill="#407BFF"/>
<path opacity="0.2" d="M99.4012 268.957H50.7153V277.43H99.4012V268.957Z" fill="black"/>
<g opacity="0.3">
<path d="M54.9293 269.4V276.995C54.9293 277.349 55.4828 277.349 55.4828 276.995V269.4C55.4828 269.046 54.9293 269.046 54.9293 269.4Z" fill="#263238"/>
</g>
<g opacity="0.3">
<path d="M58.9514 269.4V276.995C58.9514 277.349 59.5049 277.349 59.5049 276.995V269.4C59.5049 269.046 58.9514 269.046 58.9514 269.4Z" fill="#263238"/>
</g>
<g opacity="0.3">
<path d="M62.9144 269.4V276.995C62.9144 277.349 63.4679 277.349 63.4679 276.995V269.4C63.4679 269.046 62.9144 269.046 62.9144 269.4Z" fill="#263238"/>
</g>
<g opacity="0.3">
<path d="M66.8849 269.4V276.995C66.8849 277.349 67.4384 277.349 67.4384 276.995V269.4C67.4384 269.046 66.8849 269.046 66.8849 269.4Z" fill="#263238"/>
</g>
<g opacity="0.3">
<path d="M70.848 269.4V276.995C70.848 277.349 71.4015 277.349 71.4015 276.995V269.4C71.4015 269.046 70.848 269.046 70.848 269.4Z" fill="#263238"/>
</g>
<g opacity="0.3">
<path d="M74.811 269.4V276.995C74.811 277.349 75.3645 277.349 75.3645 276.995V269.4C75.3645 269.046 74.811 269.046 74.811 269.4Z" fill="#263238"/>
</g>
<g opacity="0.3">
<path d="M78.774 269.4V276.995C78.774 277.349 79.3275 277.349 79.3275 276.995V269.4C79.3275 269.046 78.774 269.046 78.774 269.4Z" fill="#263238"/>
</g>
<g opacity="0.3">
<path d="M82.7445 269.4V276.995C82.7445 277.349 83.298 277.349 83.298 276.995V269.4C83.298 269.046 82.7445 269.046 82.7445 269.4Z" fill="#263238"/>
</g>
<g opacity="0.3">
<path d="M86.7076 269.4V276.995C86.7076 277.349 87.2611 277.349 87.2611 276.995V269.4C87.2611 269.046 86.7076 269.046 86.7076 269.4Z" fill="#263238"/>
</g>
<g opacity="0.3">
<path d="M90.6707 269.4V276.995C90.6707 277.349 91.2242 277.349 91.2242 276.995V269.4C91.2242 269.046 90.6707 269.046 90.6707 269.4Z" fill="#263238"/>
</g>
<g opacity="0.3">
<path d="M94.6337 269.4V276.995C94.6337 277.349 95.1872 277.349 95.1872 276.995V269.4C95.1872 269.046 94.6337 269.046 94.6337 269.4Z" fill="#263238"/>
</g>
<g opacity="0.3">
<path d="M50.5752 277.807V285.402C50.5752 285.756 51.1287 285.756 51.1287 285.402V277.807C51.1287 277.452 50.5752 277.452 50.5752 277.807Z" fill="#263238"/>
</g>
<g opacity="0.3">
<path d="M54.6046 277.807V285.402C54.6046 285.756 55.1581 285.756 55.1581 285.402V277.807C55.1581 277.452 54.6046 277.452 54.6046 277.807Z" fill="#263238"/>
</g>
<g opacity="0.3">
<path d="M58.5677 277.807V285.402C58.5677 285.756 59.1212 285.756 59.1212 285.402V277.807C59.1212 277.452 58.5677 277.452 58.5677 277.807Z" fill="#263238"/>
</g>
<g opacity="0.3">
<path d="M62.5308 277.807V285.402C62.5308 285.756 63.0843 285.756 63.0843 285.402V277.807C63.0843 277.452 62.5308 277.452 62.5308 277.807Z" fill="#263238"/>
</g>
<g opacity="0.3">
<path d="M66.5012 277.807V285.402C66.5012 285.756 67.0547 285.756 67.0547 285.402V277.807C67.0547 277.452 66.5012 277.452 66.5012 277.807Z" fill="#263238"/>
</g>
<g opacity="0.3">
<path d="M70.4644 277.807V285.402C70.4644 285.756 71.0179 285.756 71.0179 285.402V277.807C71.0179 277.452 70.4644 277.452 70.4644 277.807Z" fill="#263238"/>
</g>
<g opacity="0.3">
<path d="M74.4274 277.807V285.402C74.4274 285.756 74.9809 285.756 74.9809 285.402V277.807C74.9809 277.452 74.4274 277.452 74.4274 277.807Z" fill="#263238"/>
</g>
<g opacity="0.3">
<path d="M78.3904 277.807V285.402C78.3904 285.756 78.9439 285.756 78.9439 285.402V277.807C78.9439 277.452 78.3904 277.452 78.3904 277.807Z" fill="#263238"/>
</g>
<g opacity="0.3">
<path d="M82.3608 277.807V285.402C82.3608 285.756 82.9143 285.756 82.9143 285.402V277.807C82.9143 277.452 82.3608 277.452 82.3608 277.807Z" fill="#263238"/>
</g>
<g opacity="0.3">
<path d="M86.324 277.807V285.402C86.324 285.756 86.8775 285.756 86.8775 285.402V277.807C86.8775 277.452 86.324 277.452 86.324 277.807Z" fill="#263238"/>
</g>
<g opacity="0.3">
<path d="M90.287 277.807V285.402C90.287 285.756 90.8405 285.756 90.8405 285.402V277.807C90.8405 277.452 90.287 277.452 90.287 277.807Z" fill="#263238"/>
</g>
<path d="M296.669 74.4651C305.857 81.3219 318.521 79.89 324.956 71.2618L327.244 68.1914L293.975 43.3623L291.687 46.4327C285.252 55.0609 287.48 67.6083 296.669 74.4651Z" fill="#407BFF"/>
<path opacity="0.3" d="M296.669 74.4651C305.857 81.3219 318.521 79.89 324.956 71.2618L327.244 68.1914L293.975 43.3623L291.687 46.4327C285.252 55.0609 287.48 67.6083 296.669 74.4651Z" fill="black"/>
<path d="M331.155 52.7875C332.801 64.1318 324.941 74.6643 313.598 76.3176C302.255 77.9635 291.724 70.1029 290.071 58.7586C288.425 47.4143 296.285 36.8819 307.628 35.2285C318.971 33.5826 329.502 41.4432 331.155 52.7875Z" fill="#407BFF"/>
<path d="M327.12 57.4696C328.06 48.338 321.421 40.1731 312.29 39.2326C303.16 38.2922 294.996 44.9324 294.055 54.064C293.115 63.1955 299.755 71.3605 308.885 72.301C318.016 73.2414 326.18 66.6011 327.12 57.4696Z" fill="#407BFF"/>
<path opacity="0.3" d="M327.12 57.4696C328.06 48.338 321.421 40.1731 312.29 39.2326C303.16 38.2922 294.996 44.9324 294.055 54.064C293.115 63.1955 299.755 71.3605 308.885 72.301C318.016 73.2414 326.18 66.6011 327.12 57.4696Z" fill="white"/>
<path d="M317.421 57.6517C317.421 58.7367 317.074 59.7626 316.403 60.7221L316.786 61.1133C316.978 61.3126 317.074 61.5561 317.074 61.8514C317.074 62.1466 316.978 62.3902 316.779 62.5821C316.58 62.774 316.344 62.8625 316.063 62.8478C315.783 62.833 315.539 62.7223 315.34 62.5083L315.001 62.1614C314.167 62.7887 313.296 63.1873 312.403 63.3423C311.502 63.4973 310.698 63.4383 309.975 63.1578C309.635 63.0175 309.392 62.8699 309.237 62.7149C309.03 62.5083 308.934 62.2499 308.934 61.9473C308.934 61.6447 309.052 61.3938 309.274 61.1797C309.451 61.01 309.657 60.9066 309.901 60.8771C310.144 60.8476 310.373 60.8919 310.595 60.9952C311.045 61.2314 311.539 61.3052 312.071 61.224C312.602 61.1428 313.111 60.9509 313.591 60.6483L310.381 57.2162C309.237 57.7772 308.196 58.0798 307.274 58.1241C306.344 58.1683 305.532 57.8288 304.831 57.1055C304.115 56.3748 303.768 55.5113 303.79 54.5222C303.812 53.5332 304.204 52.5515 304.971 51.5846L304.654 51.2525C304.462 51.0532 304.359 50.8097 304.351 50.5144C304.351 50.2266 304.432 49.9904 304.624 49.8059C304.823 49.614 305.067 49.518 305.362 49.5328C305.657 49.5402 305.901 49.6435 306.093 49.8428L306.395 50.1602C307.325 49.4147 308.226 49.0161 309.089 48.9497C309.953 48.8833 310.683 49.1564 311.274 49.7616C311.495 49.9904 311.613 50.2561 311.613 50.5513C311.613 50.8466 311.51 51.0975 311.303 51.2968C311.111 51.4813 310.897 51.5773 310.646 51.5846C310.395 51.5846 310.174 51.5108 309.967 51.3411C309.724 51.1492 309.399 51.0828 309.008 51.127C308.617 51.1713 308.196 51.3411 307.761 51.6216L310.602 54.6698C313.104 53.4446 315.015 53.511 316.344 54.8765C317.067 55.622 317.429 56.5372 317.421 57.6222V57.6517ZM307.222 55.9762C307.628 55.9762 308.159 55.8508 308.801 55.5851L306.351 53.0387C305.982 53.5406 305.79 54.0056 305.776 54.441C305.761 54.8765 305.901 55.2529 306.211 55.5629C306.477 55.836 306.816 55.9762 307.222 55.9762ZM315.443 57.7107C315.436 57.1867 315.266 56.7586 314.941 56.4265C314.676 56.1534 314.322 55.9984 313.886 55.9689C313.443 55.9393 312.882 56.0648 312.181 56.3527L314.978 59.2607C315.296 58.7514 315.451 58.2274 315.443 57.7107Z" fill="#407BFF"/>
<path d="M293.768 57.2089C292.986 47.9016 299.886 39.7237 309.192 38.9413C318.499 38.159 326.676 45.06 327.458 54.3672C325.716 45.9974 318.004 40.2404 309.488 40.9563C300.181 41.7387 293.281 49.924 294.063 59.2238C293.923 58.5596 293.827 57.8805 293.768 57.2089Z" fill="#407BFF"/>
<path opacity="0.3" d="M293.768 57.2089C292.986 47.9016 299.886 39.7237 309.192 38.9413C318.499 38.159 326.676 45.06 327.458 54.3672C325.716 45.9974 318.004 40.2404 309.488 40.9563C300.181 41.7387 293.281 49.924 294.063 59.2238C293.923 58.5596 293.827 57.8805 293.768 57.2089Z" fill="black"/>
<path d="M60.4643 54.1164C67.7115 59.5266 77.704 58.3973 82.7815 51.5922L84.5896 49.1713L58.3389 29.5752L56.5308 31.9961C51.4534 38.8012 53.2098 48.7063 60.457 54.1164H60.4643Z" fill="#407BFF"/>
<path opacity="0.3" d="M60.4643 54.1164C67.7115 59.5266 77.704 58.3973 82.7815 51.5922L84.5896 49.1713L58.3389 29.5752L56.5308 31.9961C51.4534 38.8012 53.2098 48.7063 60.457 54.1164H60.4643Z" fill="black"/>
<path d="M82.6805 51.3079C89.2714 45.1137 89.5935 34.7487 83.3999 28.1571C77.2063 21.5655 66.8425 21.2433 60.2516 27.4376C53.6607 33.6319 53.3386 43.9969 59.5322 50.5885C65.7258 57.1801 76.0896 57.5022 82.6805 51.3079Z" fill="#407BFF"/>
<path d="M63.623 49.88C69.4237 54.2125 77.645 53.0168 81.977 47.2155C86.3091 41.4141 85.1135 33.1919 79.3129 28.8667C73.5122 24.5342 65.2909 25.7299 60.9662 31.5312C56.6341 37.3326 57.8297 45.5548 63.6304 49.88H63.623Z" fill="#407BFF"/>
<path opacity="0.3" d="M63.623 49.88C69.4237 54.2125 77.645 53.0168 81.977 47.2155C86.3091 41.4141 85.1135 33.1919 79.3129 28.8667C73.5122 24.5342 65.2909 25.7299 60.9662 31.5312C56.6341 37.3326 57.8297 45.5548 63.6304 49.88H63.623Z" fill="white"/>
<path d="M76.8405 40.853C76.8405 41.7092 76.5675 42.5211 76.0361 43.2813L76.3387 43.5913C76.4937 43.7463 76.5675 43.9456 76.5675 44.1744C76.5675 44.4106 76.4937 44.6025 76.3313 44.7501C76.1763 44.9051 75.9844 44.9715 75.763 44.9641C75.5416 44.9494 75.3498 44.8682 75.1948 44.6984L74.9291 44.4254C74.2723 44.9199 73.5859 45.2299 72.8775 45.3553C72.169 45.4808 71.5343 45.4291 70.966 45.2151C70.7004 45.1044 70.5011 44.9863 70.383 44.8608C70.2207 44.6984 70.1395 44.4918 70.1469 44.2556C70.1469 44.0194 70.2354 43.8201 70.4125 43.6504C70.5528 43.5101 70.7151 43.4363 70.907 43.4142C71.0989 43.392 71.276 43.4216 71.4605 43.5101C71.8147 43.6947 72.2059 43.7537 72.6265 43.6947C73.0472 43.6282 73.4457 43.4806 73.8295 43.237L71.2981 40.5283C70.3904 40.9711 69.5786 41.2147 68.848 41.2442C68.1174 41.2811 67.4753 41.008 66.9218 40.4397C66.3609 39.8566 66.0879 39.1776 66.1026 38.4026C66.1174 37.6276 66.4273 36.8526 67.0325 36.085L66.7816 35.8267C66.6266 35.6717 66.5528 35.4798 66.5454 35.2436C66.5454 35.0148 66.6118 34.8303 66.7594 34.6827C66.9144 34.5277 67.1137 34.4539 67.3425 34.4612C67.5786 34.4686 67.7705 34.5498 67.9181 34.7048L68.1616 34.9558C68.8996 34.3727 69.6081 34.0553 70.2871 34.0036C70.9734 33.952 71.5417 34.166 72.014 34.6458C72.1911 34.8303 72.2797 35.0369 72.2797 35.2657C72.2797 35.5019 72.1985 35.6938 72.0288 35.8562C71.8812 36.0038 71.704 36.0776 71.5122 36.085C71.3129 36.085 71.1358 36.026 70.9734 35.8931C70.7815 35.7455 70.5306 35.6865 70.2207 35.7234C69.9107 35.7603 69.5786 35.8931 69.2317 36.1145L71.4753 38.5207C73.4457 37.5538 74.9586 37.6055 76.0066 38.6831C76.5748 39.2735 76.8627 39.9969 76.8553 40.853H76.8405ZM68.7963 39.5319C69.121 39.5319 69.5343 39.4285 70.0435 39.2219L68.11 37.2143C67.8222 37.6128 67.6672 37.9819 67.6524 38.3214C67.6377 38.6683 67.7557 38.9635 67.9919 39.2071C68.1985 39.4212 68.4642 39.5319 68.7889 39.5319H68.7963ZM75.276 40.8973C75.276 40.484 75.1357 40.1445 74.8774 39.8788C74.6708 39.6647 74.3904 39.5392 74.0435 39.5171C73.6966 39.495 73.2465 39.5909 72.7003 39.8197L74.907 42.1152C75.1579 41.7092 75.276 41.3033 75.276 40.8899V40.8973Z" fill="#407BFF"/>
<path d="M58.1765 40.5063C57.5566 33.1624 63.003 26.7115 70.3461 26.0915C77.6892 25.4716 84.1393 30.9186 84.7593 38.2625C83.3866 31.6567 77.2981 27.1175 70.5749 27.6858C63.2318 28.3058 57.7854 34.7566 58.4053 42.1006C58.2946 41.5765 58.2208 41.0451 58.1765 40.5063Z" fill="#407BFF"/>
<path opacity="0.3" d="M58.1765 40.5063C57.5566 33.1624 63.003 26.7115 70.3461 26.0915C77.6892 25.4716 84.1393 30.9186 84.7593 38.2625C83.3866 31.6567 77.2981 27.1175 70.5749 27.6858C63.2318 28.3058 57.7854 34.7566 58.4053 42.1006C58.2946 41.5765 58.2208 41.0451 58.1765 40.5063Z" fill="black"/>
<path d="M291.436 280.279C293.281 280.537 295.178 279.991 296.772 279.017C298.359 278.043 299.672 276.67 300.816 275.201C303.864 271.304 305.894 266.617 306.646 261.724C306.809 260.676 306.912 259.591 306.646 258.565C306.388 257.539 305.702 256.564 304.698 256.21C303.2 255.686 301.621 256.653 300.403 257.664C294.883 262.277 291.185 269.009 290.248 276.146C290.019 277.888 290.263 279.666 291.429 280.279" fill="#407BFF"/>
<path d="M280.647 271.334C282.174 268.153 282.292 264.388 281.281 261.008C280.27 257.628 278.189 254.624 275.621 252.21C272.802 249.568 269.171 247.531 265.304 247.508C263.658 247.501 261.872 247.944 260.854 249.243C259.776 250.63 259.865 252.601 260.337 254.291C261.112 257.059 262.758 259.524 264.721 261.628C266.684 263.731 268.972 265.503 271.245 267.252C273.813 269.23 276.588 271.275 279.82 271.518" fill="#407BFF"/>
<path d="M280.418 282.058C279.96 278.486 277.185 275.533 273.946 273.969C270.698 272.404 267.023 272.02 263.429 271.843C262.632 271.806 261.805 271.776 261.045 272.013C260.278 272.249 259.569 272.81 259.363 273.585C259.097 274.603 259.739 275.622 260.411 276.426C264.352 281.157 270.514 283.947 276.669 283.792C277.377 283.778 278.108 283.719 278.765 283.445C279.422 283.172 280.012 282.656 280.211 281.969" fill="#407BFF"/>
<path d="M303.65 258.676C297.37 268.197 291.864 278.22 287.222 288.634C285.945 291.506 284.728 294.406 283.576 297.336C283.444 297.669 283.982 297.809 284.108 297.484C289.414 283.985 296.13 271.068 304.122 258.956C304.322 258.661 303.842 258.38 303.643 258.676H303.65Z" fill="#263238"/>
<path d="M284.883 295.108C285.097 288.509 284.558 281.829 282.669 275.482C280.779 269.134 277.695 263.577 273.407 258.757C270.669 255.672 267.503 253 264.101 250.668C263.805 250.468 263.532 250.948 263.82 251.147C269.569 255.089 274.573 260.086 278.078 266.145C281.274 271.673 283.126 277.873 283.901 284.191C284.344 287.815 284.447 291.469 284.329 295.108C284.314 295.462 284.868 295.462 284.883 295.108Z" fill="#263238"/>
<path d="M284.529 285.822C279.385 279.851 272.182 275.681 264.418 274.294C264.071 274.235 263.924 274.766 264.27 274.825C271.953 276.198 279.045 280.302 284.137 286.206C284.374 286.479 284.757 286.081 284.529 285.815V285.822Z" fill="#263238"/>
<path d="M272.883 299.757V292.022H294.418V299.757C294.418 299.757 294.831 313.426 287.237 314.666H280.056C272.462 313.426 272.875 299.757 272.875 299.757H272.883Z" fill="#407BFF"/>
<path opacity="0.5" d="M272.883 299.757V292.022H294.418V299.757C294.418 299.757 294.831 313.426 287.237 314.666H280.056C272.462 313.426 272.875 299.757 272.875 299.757H272.883Z" fill="black"/>
<path d="M90.6485 188.351C90.9585 188.454 102.353 207.718 103.076 207.718C103.8 207.718 114.574 203.408 114.574 203.408L116.729 208.538C116.729 208.538 102.877 216.885 97.3864 216.251C91.8883 215.623 82.7593 193.547 82.7593 193.547L90.6559 188.351H90.6485Z" fill="#FDBBB5"/>
<path d="M114.36 203.371L120.604 199.112L122.154 208.56C122.154 208.56 116.028 211.003 114.397 207.851L114.368 203.371H114.36Z" fill="#FDBBB5"/>
<path d="M126.796 199.496L127.703 207.364L122.146 208.56L120.597 199.105L126.796 199.496Z" fill="#FDBBB5"/>
<path d="M147.408 316.49L154.655 312.711L149.762 295.292L142.515 299.078L147.408 316.49Z" fill="#FDBBB5"/>
<path d="M154.899 311.574L146.087 314.143C145.777 314.216 145.593 314.526 145.666 314.836L147.26 321.937C147.482 322.697 148.279 323.133 149.039 322.926C152.094 321.981 153.511 321.376 157.334 320.217C159.718 319.509 164.478 318.365 167.578 316.896C170.677 315.42 169.15 312.401 167.703 312.748C164.286 313.56 159.054 312.711 156.338 311.618C155.873 311.449 155.364 311.434 154.891 311.574H154.899Z" fill="#263238"/>
<path d="M171.895 283.254L175.733 276.803L164.079 265.917L160.249 272.36L171.895 283.254Z" fill="#FDBBB5"/>
<path d="M176.463 275.969H176.522C176.522 275.969 176.53 275.932 176.522 275.91C177.076 275.541 177.592 275.113 178.05 274.626C178.426 274.293 178.662 273.828 178.714 273.334C178.692 272.972 178.471 272.655 178.131 272.515C177.932 272.404 177.696 272.404 177.496 272.515C176.958 273.002 176.603 273.666 176.515 274.389C176.434 273.747 176.124 273.157 175.644 272.721C175.386 272.566 175.054 272.611 174.84 272.825C174.64 272.994 174.522 273.245 174.53 273.511C174.603 274.552 176.323 275.807 176.404 275.873L176.471 275.762L176.412 275.888C176.456 275.895 176.412 276.013 176.412 276.013C176.434 276.006 176.456 275.991 176.471 275.976L176.463 275.969ZM176.345 275.327V275.504C175.799 275.032 174.936 274.19 174.936 273.57C174.928 273.43 174.972 273.29 175.068 273.186L175.135 273.127C175.319 272.958 175.459 272.994 175.548 273.053C176.072 273.696 176.352 274.5 176.345 275.319V275.327ZM176.729 275.497C176.906 274.478 177.275 273.135 177.74 272.891C177.843 272.839 177.961 272.839 178.057 272.891C178.264 272.987 178.404 273.179 178.434 273.408C178.456 273.902 177.806 274.663 176.729 275.497Z" fill="#407BFF"/>
<path d="M175.378 275.799L169.755 282.051C169.548 282.257 169.548 282.589 169.755 282.803L174.441 287.579C174.98 288.073 175.821 288.036 176.316 287.498C178.249 285.283 179.061 284.132 181.526 281.364C183.046 279.674 186.212 276.471 187.917 273.865C189.622 271.26 186.98 269.599 186.042 270.566C183.755 272.854 179.268 274.699 176.67 275.157C176.175 275.216 175.718 275.445 175.378 275.806V275.799Z" fill="#263238"/>
<path d="M92.5525 187.532L85.5341 192.669L80.2943 196.515L79.5342 195.577L77.6006 193.186L73.8516 188.61L78.191 171.508C82.3533 171.7 89.2241 182.476 91.5045 185.93C92.1687 186.912 92.5525 187.525 92.5525 187.525V187.532Z" fill="#407BFF"/>
<path opacity="0.2" d="M85.5342 192.669L80.2944 196.515L77.6007 193.186C78.228 187.879 78.8848 182.461 78.8848 182.461C81.7778 185.377 84.0361 188.853 85.5342 192.669Z" fill="black"/>
<path d="M155.563 306.718C155.563 306.718 139.991 250.313 137.416 247.066C133.231 241.766 92.9215 236.172 92.9215 236.172L82.3755 217.934L44.2947 223.27C44.2947 223.27 47.1065 250.055 51.7928 256.956C56.4791 263.857 117.844 262.706 121.918 264.042C125.999 265.385 141.43 309.412 141.43 309.412L155.57 306.71L155.563 306.718Z" fill="#263238"/>
<path opacity="0.2" d="M155.563 306.71L141.356 309.411C141.356 309.411 125.932 265.392 121.844 264.049C117.755 262.706 56.3758 263.864 51.719 256.963C47.0622 250.062 44.2209 223.277 44.2209 223.277L82.3017 217.941L85.4161 223.329L87.1578 226.34L92.9142 236.179C92.9142 236.179 133.224 241.803 137.445 247.073C139.984 250.306 155.556 306.717 155.556 306.717L155.563 306.71Z" fill="white"/>
<path opacity="0.2" d="M85.4161 223.329L87.1946 226.326L58.1322 235.22L85.4161 223.329Z" fill="black"/>
<path d="M64.3167 233.64C64.3167 233.64 108.53 216.693 120.567 221.395C132.604 226.089 170.67 268.566 170.67 268.566L162.065 279.46C162.065 279.46 123.512 242.829 119.002 240.733C114.493 238.644 69.217 261.362 69.217 261.362L64.3167 233.64Z" fill="#263238"/>
<path opacity="0.2" d="M64.3167 233.64C64.3167 233.64 108.53 216.693 120.567 221.395C132.604 226.089 170.67 268.566 170.67 268.566L162.065 279.46C162.065 279.46 123.512 242.829 119.002 240.733C114.493 238.644 69.217 261.362 69.217 261.362L64.3167 233.64Z" fill="white"/>
<path opacity="0.2" d="M73.549 259.259C73.549 259.259 112.921 239.427 120.095 236.755C127.268 234.083 142.596 242.593 145.268 263.658L142.109 260.204C142.109 260.204 138.965 247.568 134.53 243.744C131.467 241.102 117.504 242.652 117.504 242.652C120.818 241.014 88.6706 257.111 73.5416 259.259H73.549Z" fill="black"/>
<path d="M86.0064 224.901C73.3054 230.783 59.7041 235.507 44.2282 232.983C44.2282 232.983 43.719 218.516 43.1286 210.501C42.7522 205.379 42.3759 199.378 42.1914 193.436C41.8888 184.432 44.6341 175.147 45.6895 169.766C53.7042 167.64 60.0731 168.378 67.6819 169.072C72.4641 170.792 74.9807 170.054 79.8736 172.157C79.8736 172.157 83.202 198.197 85.999 224.901H86.0064Z" fill="#407BFF"/>
<path d="M84.3608 208.324L91.5341 205.94L90.4271 215.446C90.4271 215.446 83.8663 216.111 83.1578 212.634L84.3608 208.324Z" fill="#FDBBB5"/>
<path d="M97.3791 208.014L96.095 215.83L90.4271 215.453L91.5341 205.932L97.3791 208.014Z" fill="#FDBBB5"/>
<path opacity="0.2" d="M43.1287 210.198C42.7523 205.076 42.3759 199.075 42.1914 193.134C45.5788 186.89 50.885 179.494 50.885 179.494C50.885 179.494 64.6856 194.566 43.1287 210.198Z" fill="black"/>
<path d="M39.0992 188.639C41.0476 197.629 45.3132 212.567 53.6895 217.505C54.4644 217.911 55.2983 218.184 56.1618 218.332C59.0548 218.62 61.9699 218.531 64.8407 218.081C72.3904 217.062 79.859 215.49 87.1799 213.394L86.2427 208.183L71.431 209.003C67.5196 209.217 60.6931 209.49 58.2134 209.069L58.516 209.231C58.3832 209.106 58.1101 208.862 57.992 208.722C55.9035 206.257 54.6932 203.164 53.4755 199.968C51.9183 195.562 50.5973 191.067 49.5272 186.513L39.0992 188.654V188.639Z" fill="#FDBBB5"/>
<path d="M53.7042 193.798L38.5014 197.363L38.0808 195.547C35.424 183.362 39.114 171.087 45.6969 169.766C45.6969 169.766 47.6379 172.157 49.6895 176.165C51.291 179.258 52.8334 188.159 53.4385 191.99C53.6083 193.104 53.7116 193.798 53.7116 193.798H53.7042Z" fill="#407BFF"/>
<path d="M58.4865 150.879V154.274C58.2724 159.824 56.944 166.128 53.35 168.556C56.1101 172.608 60.8038 175.029 64.9735 175.191C68.5675 175.258 68.693 171.117 67.9329 169.154C66.1986 168.571 66.3093 168.63 66.3093 168.63C65.372 166.401 66.1321 163.744 67.2465 161.249L58.4791 150.879H58.4865Z" fill="#FDBBB5"/>
<path opacity="0.2" d="M58.4865 150.879C58.42 152.008 58.42 153.145 58.4865 154.274C58.7005 158.776 60.051 166.342 66.3535 168.63C65.4163 166.401 66.1764 163.744 67.2908 161.249L58.4865 150.879Z" fill="black"/>
<path d="M58.0954 146.325C58.2799 139.01 65.8813 134.132 72.6561 137.593C79.5269 141.106 79.5859 151.986 77.4605 158.385C75.0989 165.5 65.8296 168.054 60.7891 161.957C57.4385 157.905 57.9182 153.632 58.0954 146.325Z" fill="#FDBBB5"/>
<path d="M64.0583 134.117C57.8149 133.002 56.4053 136.796 55.3057 140.893C53.8887 141.638 53.623 143.048 54.885 145.351C54.9145 145.631 54.9662 145.919 55.0547 146.229C55.468 147.757 57.1138 151.307 58.5676 154.318C58.4791 153.927 58.42 153.514 58.3757 153.056C58.2281 151.55 58.1027 149.476 58.051 147.004C58.6045 147.159 58.9735 147.417 59.2909 147.698C61.6082 149.779 62.2576 151.351 63.7041 150.325C64.5823 149.698 64.3609 146.96 64.3314 144.664C64.3314 144.066 64.3683 142.723 64.6635 141.468C65.0546 139.793 67.0768 138.841 67.0768 138.841C67.0768 138.841 67.2022 138.745 67.3498 138.59C69.276 140.634 74.2354 144.671 78.7003 143.705C85.3718 142.258 71.6302 128.965 64.0657 134.11L64.0583 134.117Z" fill="#263238"/>
<path d="M54.9071 150.879C55.2023 152.901 56.4052 154.584 57.7705 155.558C59.8296 157.02 61.0399 154.71 61.2023 152.318C61.3425 150.17 61.1358 147.484 58.7152 146.974C56.3314 146.473 54.5676 148.569 54.8997 150.879H54.9071Z" fill="#FDBBB5"/>
<path d="M69.2687 150.015C69.1063 150.864 69.372 151.595 69.8591 151.647C70.3535 151.698 70.8849 151.049 71.0472 150.2C71.2096 149.351 70.9439 148.62 70.4568 148.569C69.9624 148.517 69.431 149.167 69.2613 150.015H69.2687Z" fill="#263238"/>
<path d="M76.132 151.241C75.9697 152.089 76.228 152.82 76.7224 152.872C77.2169 152.923 77.7483 152.274 77.918 151.425C78.0804 150.576 77.8221 149.846 77.3276 149.794C76.8331 149.742 76.3018 150.392 76.1394 151.241H76.132Z" fill="#263238"/>
<path d="M72.9881 150.244C72.9881 150.244 74.7445 154.281 75.2611 155.89C74.0877 156.658 72.3829 155.95 72.3829 155.95L72.9881 150.244Z" fill="#FA7B76"/>
<path d="M68.0509 146.354C68.1543 146.421 68.2871 146.421 68.4052 146.354C69.741 145.609 70.8258 146.125 70.9365 146.184C71.1063 146.273 71.3203 146.207 71.4088 146.037C71.4974 145.867 71.431 145.653 71.2612 145.564C71.2022 145.535 69.7631 144.804 68.0583 145.749C67.8886 145.845 67.8295 146.052 67.9181 146.221C67.9476 146.273 67.9919 146.317 68.0436 146.347L68.0509 146.354Z" fill="#263238"/>
<path d="M68.5233 157.477C68.5085 157.359 68.4347 157.249 68.3092 157.197C66.8997 156.599 66.6414 155.433 66.6118 155.307C66.5749 155.116 66.3904 154.99 66.2059 155.027C66.0141 155.064 65.8886 155.241 65.9255 155.433C65.9403 155.499 66.2502 157.086 68.0362 157.839C68.2133 157.913 68.4199 157.839 68.4937 157.655C68.5159 157.595 68.5233 157.536 68.5159 157.477H68.5233Z" fill="#263238"/>
<path opacity="0.2" d="M56.9366 149.078C57.3056 148.679 57.9477 148.613 58.4495 148.819C58.9514 149.033 59.3278 149.476 59.5787 149.956C59.8813 150.539 60.0289 151.196 59.9993 151.853" stroke="black" stroke-width="0.5" stroke-linecap="round" stroke-linejoin="round"/>
<path d="M79.0176 148.421C79.084 148.421 79.1505 148.391 79.2095 148.354C79.3645 148.236 79.4014 148.022 79.2833 147.867C78.1394 146.317 76.5306 146.413 76.4568 146.413C76.2649 146.428 76.1173 146.59 76.1247 146.782C76.132 146.974 76.3018 147.122 76.4937 147.107C76.5601 147.107 77.7999 147.041 78.715 148.281C78.7888 148.377 78.8995 148.428 79.0102 148.421H79.0176Z" fill="#263238"/>
<path d="M72.1247 153.447H71.9918L67.6598 152.576C67.49 152.539 67.3424 152.436 67.2391 152.296C67.1432 152.148 67.1136 151.971 67.1432 151.801L67.6229 149.417C67.6967 149.063 68.0435 148.834 68.3978 148.908L72.7224 149.779C73.0841 149.853 73.3128 150.2 73.2464 150.554L72.7667 152.923C72.7298 153.1 72.6265 153.248 72.4789 153.344C72.3756 153.418 72.2501 153.454 72.1247 153.454V153.447ZM72.0361 153.218L68.2723 149.373C68.1985 149.373 68.1247 149.417 68.0952 149.484L67.6155 151.868C67.6007 151.912 67.6007 151.964 67.6155 152.008C67.645 152.052 67.6893 152.082 67.7409 152.089L72.0656 152.96C72.1173 152.982 72.1689 152.982 72.2132 152.96C72.2501 152.93 72.2796 152.886 72.287 152.834L72.7741 150.45C72.7889 150.347 72.7224 150.251 72.6265 150.229L68.2944 149.358H68.2723L72.0361 153.218Z" fill="#263238"/>
<path d="M79.0619 154.865L74.7372 154.001C74.7372 154.001 74.7372 154.001 74.7298 154.001C74.3756 153.927 74.1468 153.58 74.2206 153.226L74.7003 150.842C74.7003 150.842 74.7003 150.842 74.7003 150.835C74.7741 150.48 75.121 150.252 75.4752 150.325L79.7999 151.196C79.7999 151.196 79.7999 151.196 79.8073 151.196C80.1615 151.27 80.3903 151.617 80.3165 151.971L79.8368 154.341C79.7778 154.651 79.5047 154.879 79.1874 154.872L79.0545 154.85L79.0619 154.865ZM75.3498 150.776C75.2464 150.761 75.1505 150.827 75.1357 150.923L74.656 153.307C74.6413 153.411 74.7077 153.506 74.8036 153.529L79.1283 154.392C79.2316 154.407 79.3276 154.341 79.3423 154.237L79.822 151.868C79.8368 151.765 79.7704 151.669 79.6744 151.639L75.3498 150.768H75.3424L75.3498 150.776Z" fill="#263238"/>
<path d="M74.8036 151.735C74.8627 151.735 74.9217 151.713 74.966 151.668C75.0546 151.58 75.0546 151.432 74.966 151.344C74.3904 150.783 73.5417 150.606 72.7889 150.893C72.6708 150.938 72.6118 151.078 72.6561 151.196C72.7003 151.314 72.8258 151.373 72.9439 151.329C72.9439 151.329 72.9513 151.329 72.9586 151.329C73.5269 151.108 74.1763 151.233 74.6191 151.654C74.6634 151.705 74.7372 151.735 74.8036 151.728V151.735Z" fill="#263238"/>
<path d="M67.8 150.207C67.8886 150.207 67.9624 150.126 67.9845 150.023C68.0067 149.897 67.9476 149.772 67.8443 149.742L61.217 147.867C61.1137 147.838 61.0104 147.919 60.9883 148.045C60.9661 148.17 61.0252 148.295 61.1285 148.325L67.7557 150.2H67.8V150.207Z" fill="#263238"/>
<path d="M62.1912 219.447L82.3312 226.547L106.265 215.83L62.1912 217.934V219.447Z" fill="#263238"/>
<path d="M84.9733 226.547H126.272C127.335 226.547 128.25 225.787 128.456 224.746L134.501 193.163C134.766 191.79 133.711 190.521 132.316 190.521H90.4419C89.3644 190.521 88.4345 191.296 88.25 192.366L82.7888 223.949C82.5527 225.307 83.6006 226.547 84.9807 226.547H84.9733Z" fill="#263238"/>
<path opacity="0.2" d="M62.1912 217.934C62.7004 217.911 82.5009 224.569 82.5009 224.569L83.2094 216.922L62.1985 217.926L62.1912 217.934Z" fill="black"/>
<path d="M52.8777 168.63C52.8777 168.63 56.0511 165.36 56.0363 165.389C56.0216 165.419 64.3019 170.836 64.7521 170.386C65.2023 169.936 65.9255 167.434 65.9255 167.434C65.9255 167.434 68.7447 169.353 69.1949 170.408C69.645 171.464 68.634 177.058 65.9255 177.546C58.8629 178.815 52.8777 168.637 52.8777 168.637V168.63Z" fill="#407BFF"/>
<g opacity="0.3">
<path d="M53.0178 169.161C54.3315 170.187 55.6377 171.213 56.9514 172.239C57.8148 172.911 58.634 173.693 59.6008 174.224C60.2945 174.601 61.1654 174.852 61.7927 174.224C62.693 173.339 63.2687 172.18 63.9771 171.147C64.1764 170.851 63.6967 170.571 63.4974 170.866C62.848 171.818 62.2945 172.8 61.5417 173.678C60.8849 174.446 59.9329 173.818 59.2687 173.353C58.4052 172.748 57.6008 172.04 56.7669 171.39C55.6451 170.512 54.5234 169.641 53.409 168.763C53.1285 168.548 52.7374 168.932 53.0178 169.154V169.161Z" fill="black"/>
</g>
<g opacity="0.3">
<path d="M64.4643 171.235L66.206 173.08C66.4717 173.361 66.73 173.678 67.0325 173.922C67.2908 174.128 67.6229 174.254 67.9403 174.099C68.5307 173.811 68.4938 172.94 68.5159 172.394C68.5528 171.552 68.5381 170.711 68.479 169.877C68.4495 169.523 67.896 169.523 67.9255 169.877C67.9846 170.608 67.9993 171.346 67.9772 172.084C67.9698 172.416 67.9624 172.748 67.9181 173.08C67.896 173.243 67.8665 173.531 67.6967 173.612C67.4827 173.708 67.2318 173.368 67.1137 173.243L66.3757 172.468L64.8481 170.851C64.6045 170.593 64.2134 170.984 64.4569 171.242L64.4643 171.235Z" fill="black"/>
</g>
</g>
<defs>
<clipPath id="clip0_15_267">
<rect width="369" height="327" fill="white"/>
</clipPath>
</defs>
</svg>
