<?xml version="1.0" encoding="UTF-8"?>
<svg xmlns="http://www.w3.org/2000/svg" xmlns:xlink="http://www.w3.org/1999/xlink" viewBox="0 0 800 504.38">
  <defs>
    <style>
      .cls-1 {
        fill: url(#_Безымянный_градиент_108-3);
      }

      .cls-2 {
        fill: #d30f95;
      }

      .cls-2, .cls-3, .cls-4, .cls-5, .cls-6, .cls-7, .cls-8, .cls-9, .cls-10, .cls-11, .cls-12, .cls-13, .cls-14, .cls-15, .cls-16, .cls-17, .cls-18, .cls-19, .cls-20, .cls-21, .cls-22, .cls-23, .cls-24, .cls-25, .cls-26, .cls-27, .cls-28, .cls-29, .cls-30, .cls-31 {
        mix-blend-mode: multiply;
      }

      .cls-2, .cls-28 {
        opacity: .4;
      }

      .cls-3 {
        fill: url(#_Безымянный_градиент_190);
        opacity: .79;
      }

      .cls-32 {
        fill: url(#_Безымянный_градиент_118);
      }

      .cls-33 {
        fill: #520081;
      }

      .cls-4, .cls-19 {
        fill: #de299a;
      }

      .cls-4, .cls-34, .cls-23 {
        opacity: .3;
      }

      .cls-35 {
        fill: url(#_Безымянный_градиент_204-2);
      }

      .cls-5 {
        fill: #c40756;
      }

      .cls-5, .cls-6, .cls-11, .cls-36, .cls-37, .cls-38, .cls-21, .cls-39, .cls-40, .cls-22, .cls-25 {
        opacity: .5;
      }

      .cls-41 {
        fill: url(#_Безымянный_градиент_124);
      }

      .cls-42, .cls-43, .cls-34 {
        fill: #fff;
      }

      .cls-6 {
        fill: #f1ffff;
      }

      .cls-44 {
        fill: url(#_Безымянный_градиент_206);
      }

      .cls-45 {
        fill: url(#_Безымянный_градиент_160);
      }

      .cls-46 {
        fill: url(#_Безымянный_градиент_47);
      }

      .cls-7 {
        fill: #f60f95;
      }

      .cls-7, .cls-10, .cls-13, .cls-17, .cls-47, .cls-24, .cls-26 {
        opacity: .2;
      }

      .cls-48 {
        fill: url(#_Безымянный_градиент_178-2);
      }

      .cls-49 {
        fill: url(#_Безымянный_градиент_206-3);
      }

      .cls-50 {
        fill: url(#_Безымянный_градиент_134);
      }

      .cls-51 {
        fill: url(#_Безымянный_градиент_226-2);
      }

      .cls-52 {
        fill: url(#_Безымянный_градиент_204);
      }

      .cls-53 {
        fill: url(#_Безымянный_градиент_185-2);
      }

      .cls-54 {
        fill: url(#_Безымянный_градиент_5-9);
      }

      .cls-55 {
        fill: url(#_Безымянный_градиент_108-2);
      }

      .cls-56 {
        fill: #ffd481;
      }

      .cls-57 {
        fill: url(#_Безымянный_градиент_108-5);
      }

      .cls-58 {
        fill: url(#_Безымянный_градиент_204-3);
      }

      .cls-59 {
        fill: url(#_Безымянный_градиент_5-5);
      }

      .cls-60 {
        fill: url(#_Безымянный_градиент_18);
      }

      .cls-61 {
        fill: #ff0054;
      }

      .cls-8 {
        fill: #590f65;
      }

      .cls-8, .cls-18, .cls-19, .cls-20 {
        opacity: .85;
      }

      .cls-62 {
        fill: url(#_Безымянный_градиент_108);
      }

      .cls-9, .cls-13, .cls-22 {
        fill: #b30f5b;
      }

      .cls-9, .cls-16, .cls-63, .cls-27, .cls-29, .cls-64, .cls-65, .cls-31 {
        opacity: .8;
      }

      .cls-66 {
        fill: url(#_Безымянный_градиент_158-3);
      }

      .cls-67 {
        fill: url(#_Безымянный_градиент_5-6);
      }

      .cls-11 {
        fill: #b86395;
      }

      .cls-68 {
        fill: url(#_Безымянный_градиент_112);
      }

      .cls-69 {
        fill: url(#_Безымянный_градиент_141);
      }

      .cls-70 {
        fill: url(#_Безымянный_градиент_95);
      }

      .cls-71 {
        isolation: isolate;
      }

      .cls-72 {
        fill: url(#_Безымянный_градиент_13);
      }

      .cls-73, .cls-36, .cls-37, .cls-38, .cls-43, .cls-63, .cls-39, .cls-34, .cls-74, .cls-47, .cls-40, .cls-75, .cls-76, .cls-65 {
        mix-blend-mode: soft-light;
      }

      .cls-73, .cls-77 {
        fill: #ffe0ca;
      }

      .cls-78 {
        fill: #5d3968;
      }

      .cls-79 {
        fill: #db473b;
      }

      .cls-80 {
        fill: #ccd3ff;
      }

      .cls-81 {
        fill: url(#_Безымянный_градиент_118-2);
      }

      .cls-36, .cls-47 {
        fill: #ffcafc;
      }

      .cls-82 {
        fill: url(#_Безымянный_градиент_158);
      }

      .cls-83 {
        fill: url(#_Безымянный_градиент_104);
      }

      .cls-84 {
        fill: url(#_Безымянный_градиент_171);
      }

      .cls-85 {
        fill: url(#_Безымянный_градиент_137);
      }

      .cls-12 {
        opacity: .71;
      }

      .cls-12, .cls-14, .cls-15, .cls-20, .cls-24, .cls-25, .cls-28, .cls-30 {
        fill: #c40f95;
      }

      .cls-86 {
        fill: url(#_Безымянный_градиент_206-4);
      }

      .cls-87 {
        fill: url(#_Безымянный_градиент_142);
      }

      .cls-88 {
        fill: url(#_Безымянный_градиент_185);
      }

      .cls-37, .cls-63, .cls-75 {
        fill: #e5d7ff;
      }

      .cls-89 {
        fill: #7268ff;
      }

      .cls-38 {
        fill: #c292ac;
      }

      .cls-90 {
        fill: #e33b95;
      }

      .cls-14 {
        opacity: .6;
      }

      .cls-91 {
        fill: url(#_Безымянный_градиент_128);
      }

      .cls-16 {
        fill: url(#_Безымянный_градиент_9);
      }

      .cls-17 {
        fill: #ff95af;
      }

      .cls-92 {
        fill: url(#_Безымянный_градиент_39);
      }

      .cls-93 {
        fill: url(#_Безымянный_градиент_108-7);
      }

      .cls-94 {
        fill: url(#_Безымянный_градиент_175);
      }

      .cls-95 {
        fill: #cc5860;
      }

      .cls-96 {
        fill: url(#_Безымянный_градиент_118-3);
      }

      .cls-97 {
        fill: url(#_Безымянный_градиент_142-3);
      }

      .cls-98 {
        fill: url(#_Безымянный_градиент_5-4);
      }

      .cls-18 {
        fill: #e05195;
      }

      .cls-99 {
        fill: url(#_Безымянный_градиент_112-4);
      }

      .cls-100 {
        fill: url(#_Безымянный_градиент_108-4);
      }

      .cls-101 {
        fill: url(#_Безымянный_градиент_142-2);
      }

      .cls-102 {
        fill: url(#_Безымянный_градиент_214);
      }

      .cls-103 {
        fill: url(#_Безымянный_градиент_5-8);
      }

      .cls-104 {
        fill: #ffb94d;
      }

      .cls-105 {
        fill: url(#_Безымянный_градиент_5-7);
      }

      .cls-21, .cls-23 {
        fill: #c7639a;
      }

      .cls-106 {
        fill: url(#_Безымянный_градиент_158-2);
      }

      .cls-107 {
        fill: url(#_Безымянный_градиент_13-2);
      }

      .cls-39 {
        fill: #bb9ffc;
      }

      .cls-108 {
        fill: url(#_Безымянный_градиент_52);
      }

      .cls-74 {
        fill: #606060;
      }

      .cls-109 {
        fill: url(#_Безымянный_градиент_224);
      }

      .cls-110 {
        fill: #ff472c;
      }

      .cls-111 {
        fill: url(#_Безымянный_градиент_209);
      }

      .cls-112 {
        fill: url(#_Безымянный_градиент_112-3);
      }

      .cls-113 {
        fill: #c284cf;
      }

      .cls-114 {
        fill: url(#_Безымянный_градиент_5-3);
      }

      .cls-40, .cls-76, .cls-65 {
        fill: #ffca93;
      }

      .cls-115 {
        fill: url(#_Безымянный_градиент_188);
      }

      .cls-116 {
        clip-path: url(#clippath);
      }

      .cls-117 {
        fill: #b8aeff;
      }

      .cls-118 {
        fill: url(#_Безымянный_градиент_209-2);
      }

      .cls-119 {
        fill: url(#_Безымянный_градиент_47-2);
      }

      .cls-120 {
        fill: none;
      }

      .cls-121 {
        fill: url(#_Безымянный_градиент_167-2);
      }

      .cls-122 {
        fill: url(#_Безымянный_градиент_219);
      }

      .cls-123 {
        fill: url(#_Безымянный_градиент_159);
      }

      .cls-124 {
        fill: #ff681d;
      }

      .cls-125 {
        fill: #ff7d88;
      }

      .cls-126 {
        fill: #ff989a;
      }

      .cls-127 {
        fill: url(#_Безымянный_градиент_95-2);
      }

      .cls-128 {
        fill: url(#_Безымянный_градиент_206-2);
      }

      .cls-26 {
        fill: #c4d6ff;
      }

      .cls-129 {
        fill: url(#_Безымянный_градиент_179);
      }

      .cls-130 {
        fill: url(#_Безымянный_градиент_107);
      }

      .cls-131 {
        fill: #b8a1c4;
      }

      .cls-132 {
        fill: url(#_Безымянный_градиент_178);
      }

      .cls-133 {
        fill: url(#_Безымянный_градиент_5);
      }

      .cls-134 {
        fill: url(#_Безымянный_градиент_67);
      }

      .cls-135 {
        fill: #5e2445;
      }

      .cls-136 {
        fill: url(#_Безымянный_градиент_167);
      }

      .cls-137 {
        fill: url(#_Безымянный_градиент_196);
      }

      .cls-27 {
        fill: url(#_Безымянный_градиент_9-4);
      }

      .cls-138 {
        fill: url(#_Безымянный_градиент_112-2);
      }

      .cls-139 {
        fill: #ffdf7a;
      }

      .cls-29 {
        fill: url(#_Безымянный_градиент_9-3);
      }

      .cls-140 {
        fill: url(#_Безымянный_градиент_5-2);
      }

      .cls-141 {
        fill: #810b23;
      }

      .cls-142 {
        fill: url(#_Безымянный_градиент_162);
      }

      .cls-143 {
        fill: #1d0022;
      }

      .cls-30 {
        opacity: .32;
      }

      .cls-144 {
        fill: #9c7c8b;
      }

      .cls-145 {
        fill: url(#_Безымянный_градиент_5-10);
      }

      .cls-146 {
        fill: #480002;
      }

      .cls-147 {
        fill: url(#_Безымянный_градиент_118-4);
      }

      .cls-148 {
        fill: url(#_Безымянный_градиент_47-3);
      }

      .cls-149 {
        fill: url(#_Безымянный_градиент_226);
      }

      .cls-150 {
        fill: #ff898b;
      }

      .cls-64 {
        fill: url(#_Безымянный_градиент_369);
        mix-blend-mode: screen;
      }

      .cls-151 {
        fill: url(#_Безымянный_градиент_188-2);
      }

      .cls-152 {
        fill: url(#_Безымянный_градиент_108-6);
      }

      .cls-153 {
        fill: url(#_Безымянный_градиент_174);
      }

      .cls-31 {
        fill: url(#_Безымянный_градиент_9-2);
      }
    </style>
    <clipPath id="clippath">
      <rect class="cls-120" width="800" height="500"/>
    </clipPath>
    <linearGradient id="_Безымянный_градиент_204" data-name="Безымянный градиент 204" x1="634.3" y1="471.23" x2="634.3" y2="425.56" gradientUnits="userSpaceOnUse">
      <stop offset="0" stop-color="#ffae8d"/>
      <stop offset=".1" stop-color="#ffbca3"/>
      <stop offset=".22" stop-color="#ffc8b4"/>
      <stop offset=".37" stop-color="#ffd0c1"/>
      <stop offset=".56" stop-color="#ffd5c8"/>
      <stop offset="1" stop-color="#ffd7cb"/>
    </linearGradient>
    <linearGradient id="_Безымянный_градиент_118" data-name="Безымянный градиент 118" x1="390.1" y1="417.88" x2="390.1" y2="247.62" gradientUnits="userSpaceOnUse">
      <stop offset="0" stop-color="#ff8600"/>
      <stop offset=".32" stop-color="#ff9c05"/>
      <stop offset=".74" stop-color="#ffb40b"/>
      <stop offset=".99" stop-color="#ffbd0e"/>
    </linearGradient>
    <linearGradient id="_Безымянный_градиент_118-2" data-name="Безымянный градиент 118" x1="462.4" x2="462.4" y2="186.65" xlink:href="#_Безымянный_градиент_118"/>
    <linearGradient id="_Безымянный_градиент_118-3" data-name="Безымянный градиент 118" x1="542.21" x2="542.21" y2="114.21" xlink:href="#_Безымянный_градиент_118"/>
    <linearGradient id="_Безымянный_градиент_118-4" data-name="Безымянный градиент 118" x1="624.66" x2="624.66" y2="66.48" xlink:href="#_Безымянный_градиент_118"/>
    <linearGradient id="_Безымянный_градиент_112" data-name="Безымянный градиент 112" x1="425.16" y1="419.21" x2="425.16" y2="247.62" gradientUnits="userSpaceOnUse">
      <stop offset="0" stop-color="#ff5200"/>
      <stop offset=".3" stop-color="#ff6206"/>
      <stop offset=".67" stop-color="#ff700c"/>
      <stop offset=".99" stop-color="#ff750e"/>
    </linearGradient>
    <linearGradient id="_Безымянный_градиент_112-2" data-name="Безымянный градиент 112" x1="498.73" y1="417.88" x2="498.73" y2="186.65" xlink:href="#_Безымянный_градиент_112"/>
    <linearGradient id="_Безымянный_градиент_112-3" data-name="Безымянный градиент 112" x1="574.42" y1="417.88" x2="574.42" y2="114.21" xlink:href="#_Безымянный_градиент_112"/>
    <linearGradient id="_Безымянный_градиент_112-4" data-name="Безымянный градиент 112" x1="655.61" y1="417.88" x2="655.61" y2="66.48" xlink:href="#_Безымянный_градиент_112"/>
    <linearGradient id="_Безымянный_градиент_162" data-name="Безымянный градиент 162" x1="217.04" y1="128.22" x2="217.04" y2="-.33" gradientTransform="translate(-20.18 197.25) rotate(-32.43)" gradientUnits="userSpaceOnUse">
      <stop offset="0" stop-color="#60007f"/>
      <stop offset="1" stop-color="#41174e"/>
    </linearGradient>
    <linearGradient id="_Безымянный_градиент_175" data-name="Безымянный градиент 175" x1="217.9" y1="125.16" x2="217.9" y2="-.43" gradientTransform="translate(-20.18 197.25) rotate(-32.43)" gradientUnits="userSpaceOnUse">
      <stop offset=".08" stop-color="#a21584"/>
      <stop offset="1" stop-color="#541368"/>
    </linearGradient>
    <linearGradient id="_Безымянный_градиент_179" data-name="Безымянный градиент 179" x1="217.59" y1="117.03" x2="217.59" y2="10.09" gradientTransform="translate(-20.18 197.25) rotate(-32.43)" gradientUnits="userSpaceOnUse">
      <stop offset="0" stop-color="#ff65c2"/>
      <stop offset=".48" stop-color="#a4408b"/>
      <stop offset="1" stop-color="#35004e"/>
    </linearGradient>
    <linearGradient id="_Безымянный_градиент_141" data-name="Безымянный градиент 141" x1="189.56" y1="152.63" x2="189.56" y2="136.41" gradientTransform="translate(-6.29 127.76) rotate(-19.65)" gradientUnits="userSpaceOnUse">
      <stop offset="0" stop-color="#1f013b"/>
      <stop offset="1" stop-color="#41174e"/>
    </linearGradient>
    <linearGradient id="_Безымянный_градиент_18" data-name="Безымянный градиент 18" x1="189.6" y1="238.23" x2="189.6" y2="151.43" gradientTransform="translate(-6.29 127.76) rotate(-19.65)" gradientUnits="userSpaceOnUse">
      <stop offset="0" stop-color="#dd0e2c"/>
      <stop offset=".52" stop-color="#e51323"/>
      <stop offset="1" stop-color="#f21b17"/>
    </linearGradient>
    <linearGradient id="_Безымянный_градиент_128" data-name="Безымянный градиент 128" x1="127.96" y1="425.71" x2="131.14" y2="295.31" gradientTransform="translate(-1.19 -.41) skewX(1.4)" gradientUnits="userSpaceOnUse">
      <stop offset="0" stop-color="#dd0e2c"/>
      <stop offset=".52" stop-color="#dc0823"/>
      <stop offset="1" stop-color="#db0017"/>
    </linearGradient>
    <linearGradient id="_Безымянный_градиент_5" data-name="Безымянный градиент 5" x1="92.48" y1="411.43" x2="92.48" y2="387" gradientTransform="translate(-1.19 -.41) skewX(1.4)" gradientUnits="userSpaceOnUse">
      <stop offset="0" stop-color="#806480"/>
      <stop offset=".11" stop-color="#896f88"/>
      <stop offset=".5" stop-color="#a694a4"/>
      <stop offset=".8" stop-color="#b8abb5"/>
      <stop offset="1" stop-color="#bfb4bc"/>
    </linearGradient>
    <linearGradient id="_Безымянный_градиент_13" data-name="Безымянный градиент 13" x1="87.77" y1="377.06" x2="87.77" y2="315.47" gradientTransform="translate(-1.19 -.41) skewX(1.4)" gradientUnits="userSpaceOnUse">
      <stop offset="0" stop-color="#ffd4b3"/>
      <stop offset=".36" stop-color="#ffc4ad"/>
      <stop offset="1" stop-color="#ffaba4"/>
    </linearGradient>
    <linearGradient id="_Безымянный_градиент_5-2" data-name="Безымянный градиент 5" x1="118.21" y1="324.78" x2="118.21" y2="315.01" xlink:href="#_Безымянный_градиент_5"/>
    <linearGradient id="_Безымянный_градиент_5-3" data-name="Безымянный градиент 5" x1="118.21" y1="321.74" x2="118.21" y2="318.06" xlink:href="#_Безымянный_градиент_5"/>
    <linearGradient id="_Безымянный_градиент_9" data-name="Безымянный градиент 9" x1="118.52" y1="321.79" x2="118.52" y2="320.58" gradientTransform="translate(-1.19 -.41) skewX(1.4)" gradientUnits="userSpaceOnUse">
      <stop offset="0" stop-color="#77345b"/>
      <stop offset=".09" stop-color="#884d6f"/>
      <stop offset=".33" stop-color="#b28ca2"/>
      <stop offset=".55" stop-color="#d3bdca"/>
      <stop offset=".74" stop-color="#ebe1e7"/>
      <stop offset=".9" stop-color="#f9f7f8"/>
      <stop offset="1" stop-color="#fff"/>
    </linearGradient>
    <linearGradient id="_Безымянный_градиент_5-4" data-name="Безымянный градиент 5" x1="123.19" y1="403.63" x2="123.19" y2="393.86" xlink:href="#_Безымянный_градиент_5"/>
    <linearGradient id="_Безымянный_градиент_5-5" data-name="Безымянный градиент 5" x1="123.19" y1="400.59" x2="123.19" y2="396.91" xlink:href="#_Безымянный_градиент_5"/>
    <linearGradient id="_Безымянный_градиент_9-2" data-name="Безымянный градиент 9" x1="123.49" y1="400.64" x2="123.49" y2="399.43" xlink:href="#_Безымянный_градиент_9"/>
    <linearGradient id="_Безымянный_градиент_204-2" data-name="Безымянный градиент 204" x1="202.39" y1="319.65" x2="202.39" y2="271.99" xlink:href="#_Безымянный_градиент_204"/>
    <linearGradient id="_Безымянный_градиент_134" data-name="Безымянный градиент 134" x1="203.94" y1="427.42" x2="203.94" y2="286.2" gradientUnits="userSpaceOnUse">
      <stop offset=".08" stop-color="#4c2fd6"/>
      <stop offset=".99" stop-color="#4531ef"/>
    </linearGradient>
    <linearGradient id="_Безымянный_градиент_5-6" data-name="Безымянный градиент 5" x1="164.79" y1="412.43" x2="164.79" y2="386" gradientTransform="matrix(1, 0, 0, 1, 0, 0)" xlink:href="#_Безымянный_градиент_5"/>
    <linearGradient id="_Безымянный_градиент_13-2" data-name="Безымянный градиент 13" x1="159.83" y1="375.26" x2="159.83" y2="308.68" gradientTransform="matrix(1, 0, 0, 1, 0, 0)" xlink:href="#_Безымянный_градиент_13"/>
    <linearGradient id="_Безымянный_градиент_5-7" data-name="Безымянный градиент 5" x1="190.91" y1="318.74" x2="190.91" y2="308.18" gradientTransform="matrix(1, 0, 0, 1, 0, 0)" xlink:href="#_Безымянный_градиент_5"/>
    <linearGradient id="_Безымянный_градиент_5-8" data-name="Безымянный градиент 5" x1="190.91" y1="315.46" x2="190.91" y2="311.47" gradientTransform="matrix(1, 0, 0, 1, 0, 0)" xlink:href="#_Безымянный_градиент_5"/>
    <linearGradient id="_Безымянный_градиент_9-3" data-name="Безымянный градиент 9" x1="191.23" y1="315.5" x2="191.23" y2="314.2" gradientTransform="matrix(1, 0, 0, 1, 0, 0)" xlink:href="#_Безымянный_градиент_9"/>
    <linearGradient id="_Безымянный_градиент_5-9" data-name="Безымянный градиент 5" x1="196.21" y1="403.99" x2="196.21" y2="393.42" gradientTransform="matrix(1, 0, 0, 1, 0, 0)" xlink:href="#_Безымянный_градиент_5"/>
    <linearGradient id="_Безымянный_градиент_5-10" data-name="Безымянный градиент 5" x1="196.21" y1="400.7" x2="196.21" y2="396.72" gradientTransform="matrix(1, 0, 0, 1, 0, 0)" xlink:href="#_Безымянный_градиент_5"/>
    <linearGradient id="_Безымянный_градиент_9-4" data-name="Безымянный градиент 9" x1="196.53" y1="400.75" x2="196.53" y2="399.45" gradientTransform="matrix(1, 0, 0, 1, 0, 0)" xlink:href="#_Безымянный_градиент_9"/>
    <linearGradient id="_Безымянный_градиент_219" data-name="Безымянный градиент 219" x1="156.58" y1="288.04" x2="156.58" y2="272.71" gradientUnits="userSpaceOnUse">
      <stop offset="0" stop-color="#e37268"/>
      <stop offset=".12" stop-color="#e18177"/>
      <stop offset=".28" stop-color="#e08d83"/>
      <stop offset=".5" stop-color="#e0948a"/>
      <stop offset="1" stop-color="#e0978d"/>
    </linearGradient>
    <linearGradient id="_Безымянный_градиент_188" data-name="Безымянный градиент 188" x1="639.23" y1="424.32" x2="639.23" y2="336.33" gradientUnits="userSpaceOnUse">
      <stop offset="0" stop-color="#ffccb7"/>
      <stop offset=".17" stop-color="#ffd1c1"/>
      <stop offset=".42" stop-color="#ffd5c8"/>
      <stop offset="1" stop-color="#ffd7cb"/>
    </linearGradient>
    <linearGradient id="_Безымянный_градиент_190" data-name="Безымянный градиент 190" x1="579.87" y1="422.02" x2="579.87" y2="338.96" gradientUnits="userSpaceOnUse">
      <stop offset="0" stop-color="#fff"/>
      <stop offset=".04" stop-color="#fbeff4"/>
      <stop offset=".19" stop-color="#ecb0cc"/>
      <stop offset=".35" stop-color="#df7aaa"/>
      <stop offset=".5" stop-color="#d44e8d"/>
      <stop offset=".64" stop-color="#cc2c77"/>
      <stop offset=".77" stop-color="#c61367"/>
      <stop offset=".9" stop-color="#c3055e"/>
      <stop offset="1" stop-color="#c2005b"/>
    </linearGradient>
    <linearGradient id="_Безымянный_градиент_188-2" data-name="Безымянный градиент 188" x1="641.14" y1="411.16" x2="641.14" y2="336.49" xlink:href="#_Безымянный_градиент_188"/>
    <linearGradient id="_Безымянный_градиент_108" data-name="Безымянный градиент 108" x1="650.88" y1="344.34" x2="650.88" y2="328.5" gradientUnits="userSpaceOnUse">
      <stop offset=".08" stop-color="#31154a"/>
      <stop offset="1" stop-color="#5d3968"/>
    </linearGradient>
    <linearGradient id="_Безымянный_градиент_108-2" data-name="Безымянный градиент 108" x1="639.64" y1="344.05" x2="639.64" y2="328.21" xlink:href="#_Безымянный_градиент_108"/>
    <linearGradient id="_Безымянный_градиент_108-3" data-name="Безымянный градиент 108" x1="628.4" y1="343.76" x2="628.4" y2="327.92" xlink:href="#_Безымянный_градиент_108"/>
    <linearGradient id="_Безымянный_градиент_108-4" data-name="Безымянный градиент 108" x1="617.16" y1="343.47" x2="617.16" y2="327.63" xlink:href="#_Безымянный_градиент_108"/>
    <linearGradient id="_Безымянный_градиент_108-5" data-name="Безымянный градиент 108" x1="605.93" y1="343.19" x2="605.93" y2="327.34" xlink:href="#_Безымянный_градиент_108"/>
    <linearGradient id="_Безымянный_градиент_108-6" data-name="Безымянный градиент 108" x1="594.69" y1="342.9" x2="594.69" y2="327.05" xlink:href="#_Безымянный_градиент_108"/>
    <linearGradient id="_Безымянный_градиент_224" data-name="Безымянный градиент 224" x1="378.23" y1="426.41" x2="378.23" y2="124.41" gradientUnits="userSpaceOnUse">
      <stop offset=".08" stop-color="#1f0025"/>
      <stop offset="1" stop-color="#451b43"/>
    </linearGradient>
    <linearGradient id="_Безымянный_градиент_108-7" data-name="Безымянный градиент 108" x1="310.39" y1="428.82" x2="310.39" y2="124.41" xlink:href="#_Безымянный_градиент_108"/>
    <linearGradient id="_Безымянный_градиент_214" data-name="Безымянный градиент 214" x1="310.39" y1="410.7" x2="310.39" y2="141.8" gradientUnits="userSpaceOnUse">
      <stop offset=".08" stop-color="#1f003a"/>
      <stop offset="1" stop-color="#512a5d"/>
    </linearGradient>
    <linearGradient id="_Безымянный_градиент_39" data-name="Безымянный градиент 39" x1="311.1" y1="410.7" x2="311.1" y2="143.74" gradientUnits="userSpaceOnUse">
      <stop offset="0" stop-color="#ffffc2"/>
      <stop offset=".14" stop-color="#f6fac5" stop-opacity="1"/>
      <stop offset=".35" stop-color="#e1efd0" stop-opacity=".99"/>
      <stop offset=".62" stop-color="#bddce1" stop-opacity=".98"/>
      <stop offset=".93" stop-color="#8bc3f9" stop-opacity=".96"/>
      <stop offset=".99" stop-color="#80bdff" stop-opacity=".96"/>
    </linearGradient>
    <linearGradient id="_Безымянный_градиент_226" data-name="Безымянный градиент 226" x1="400.47" y1="227.66" x2="400.47" y2="160.63" gradientUnits="userSpaceOnUse">
      <stop offset=".08" stop-color="#1f0025"/>
      <stop offset="1" stop-color="#451b43"/>
    </linearGradient>
    <linearGradient id="_Безымянный_градиент_226-2" data-name="Безымянный градиент 226" x1="405.23" y1="266.84" x2="405.23" y2="224.65" gradientTransform="translate(-21.95 38.11) rotate(-3.36)" xlink:href="#_Безымянный_градиент_226"/>
    <linearGradient id="_Безымянный_градиент_124" data-name="Безымянный градиент 124" x1="450.23" y1="428.56" x2="450.23" y2="290.38" gradientUnits="userSpaceOnUse">
      <stop offset="0" stop-color="#a9080e"/>
      <stop offset=".26" stop-color="#a00612"/>
      <stop offset=".67" stop-color="#89031f"/>
      <stop offset="1" stop-color="#72002d"/>
    </linearGradient>
    <linearGradient id="_Безымянный_градиент_158" data-name="Безымянный градиент 158" x1="471.37" y1="429.56" x2="471.37" y2="298.4" gradientUnits="userSpaceOnUse">
      <stop offset="0" stop-color="#9f1222"/>
      <stop offset=".74" stop-color="#9f1a20"/>
      <stop offset="1" stop-color="#9f1f1f"/>
    </linearGradient>
    <linearGradient id="_Безымянный_градиент_167" data-name="Безымянный градиент 167" x1="476.12" y1="422.15" x2="476.12" y2="334.09" gradientUnits="userSpaceOnUse">
      <stop offset="0" stop-color="#88182d"/>
      <stop offset=".61" stop-color="#830616"/>
      <stop offset="1" stop-color="#82000e"/>
    </linearGradient>
    <linearGradient id="_Безымянный_градиент_174" data-name="Безымянный градиент 174" x1="480.05" y1="422.17" x2="480.05" y2="334.15" gradientUnits="userSpaceOnUse">
      <stop offset="0" stop-color="#a51324"/>
      <stop offset=".78" stop-color="#a01b20"/>
      <stop offset="1" stop-color="#9f1f1f"/>
    </linearGradient>
    <linearGradient id="_Безымянный_градиент_142" data-name="Безымянный градиент 142" x1="454.91" y1="358.71" x2="454.91" y2="277.56" gradientUnits="userSpaceOnUse">
      <stop offset="0" stop-color="#cc2422"/>
      <stop offset=".67" stop-color="#c32b28"/>
      <stop offset="1" stop-color="#bd312d"/>
    </linearGradient>
    <linearGradient id="_Безымянный_градиент_171" data-name="Безымянный градиент 171" x1="348.44" y1="318.14" x2="561.38" y2="318.14" gradientUnits="userSpaceOnUse">
      <stop offset="0" stop-color="#86002d"/>
      <stop offset=".61" stop-color="#830016"/>
      <stop offset="1" stop-color="#82000e"/>
    </linearGradient>
    <linearGradient id="_Безымянный_градиент_158-2" data-name="Безымянный градиент 158" x1="485.57" y1="430.84" x2="485.57" y2="369.26" xlink:href="#_Безымянный_градиент_158"/>
    <linearGradient id="_Безымянный_градиент_107" data-name="Безымянный градиент 107" x1="474.24" y1="430.81" x2="474.24" y2="371.81" gradientUnits="userSpaceOnUse">
      <stop offset="0" stop-color="#88182d"/>
      <stop offset=".53" stop-color="#84082d"/>
      <stop offset="1" stop-color="#82002e"/>
    </linearGradient>
    <linearGradient id="_Безымянный_градиент_167-2" data-name="Безымянный градиент 167" x1="468.89" y1="350.59" x2="495.35" y2="350.59" gradientTransform="translate(-2.14 55.26) rotate(.28) scale(1 .86) skewX(.51)" xlink:href="#_Безымянный_градиент_167"/>
    <linearGradient id="_Безымянный_градиент_142-2" data-name="Безымянный градиент 142" x1="480.39" y1="378.12" x2="480.39" y2="284" gradientTransform="translate(13.43 78.51) rotate(2.03) scale(1 .8)" xlink:href="#_Безымянный_градиент_142"/>
    <linearGradient id="_Безымянный_градиент_159" data-name="Безымянный градиент 159" x1="487.16" y1="412.35" x2="487.16" y2="379.96" gradientUnits="userSpaceOnUse">
      <stop offset="0" stop-color="#bfb4bc"/>
      <stop offset=".2" stop-color="#b8abb5"/>
      <stop offset=".5" stop-color="#a694a4"/>
      <stop offset=".89" stop-color="#896f88"/>
      <stop offset=".99" stop-color="#806480"/>
    </linearGradient>
    <linearGradient id="_Безымянный_градиент_52" data-name="Безымянный градиент 52" x1="474.97" y1="396.34" x2="491.95" y2="396.34" gradientUnits="userSpaceOnUse">
      <stop offset="0" stop-color="#765876"/>
      <stop offset=".56" stop-color="#875e7a"/>
      <stop offset="1" stop-color="#90617d"/>
    </linearGradient>
    <linearGradient id="_Безымянный_градиент_178" data-name="Безымянный градиент 178" x1="496.22" y1="294.86" x2="496.22" y2="253.38" gradientUnits="userSpaceOnUse">
      <stop offset="0" stop-color="#72002d"/>
      <stop offset=".61" stop-color="#7d0016"/>
      <stop offset="1" stop-color="#82000e"/>
    </linearGradient>
    <linearGradient id="_Безымянный_градиент_142-3" data-name="Безымянный градиент 142" x1="458.8" y1="261.4" x2="458.8" y2="249.32" xlink:href="#_Безымянный_градиент_142"/>
    <linearGradient id="_Безымянный_градиент_178-2" data-name="Безымянный градиент 178" x1="422.61" y1="291.52" x2="422.61" y2="254.85" xlink:href="#_Безымянный_градиент_178"/>
    <linearGradient id="_Безымянный_градиент_158-3" data-name="Безымянный градиент 158" x1="471.61" y1="294.94" x2="471.61" y2="255.08" xlink:href="#_Безымянный_градиент_158"/>
    <linearGradient id="_Безымянный_градиент_185" data-name="Безымянный градиент 185" x1="411.81" y1="292.3" x2="411.81" y2="278.27" gradientUnits="userSpaceOnUse">
      <stop offset="0" stop-color="#806480"/>
      <stop offset=".11" stop-color="#896f88"/>
      <stop offset=".5" stop-color="#a694a4"/>
      <stop offset=".8" stop-color="#b8abb5"/>
      <stop offset="1" stop-color="#bfb4bc"/>
    </linearGradient>
    <linearGradient id="_Безымянный_градиент_185-2" data-name="Безымянный градиент 185" x1="522.1" y1="294.52" x2="522.1" y2="278.74" xlink:href="#_Безымянный_градиент_185"/>
    <linearGradient id="_Безымянный_градиент_196" data-name="Безымянный градиент 196" x1="300.38" y1="334.36" x2="300.38" y2="172.38" gradientUnits="userSpaceOnUse">
      <stop offset="0" stop-color="#ff9100"/>
      <stop offset=".11" stop-color="#ff9205"/>
      <stop offset=".66" stop-color="#ff991d"/>
      <stop offset="1" stop-color="#ff9c27"/>
    </linearGradient>
    <linearGradient id="_Безымянный_градиент_209" data-name="Безымянный градиент 209" x1="235.82" y1="283.92" x2="222" y2="259.99" gradientUnits="userSpaceOnUse">
      <stop offset="0" stop-color="#ff8118"/>
      <stop offset=".99" stop-color="#ff7000"/>
    </linearGradient>
    <linearGradient id="_Безымянный_градиент_209-2" data-name="Безымянный градиент 209" x1="288.28" y1="262.64" x2="275.43" y2="240.39" xlink:href="#_Безымянный_градиент_209"/>
    <linearGradient id="_Безымянный_градиент_206" data-name="Безымянный градиент 206" x1="340.97" y1="248.6" x2="313.68" y2="201.34" gradientUnits="userSpaceOnUse">
      <stop offset="0" stop-color="#ff8118"/>
      <stop offset=".99" stop-color="#ff4000"/>
    </linearGradient>
    <linearGradient id="_Безымянный_градиент_206-2" data-name="Безымянный градиент 206" x1="309.1" y1="320.94" x2="309.1" y2="282.31" xlink:href="#_Безымянный_градиент_206"/>
    <linearGradient id="_Безымянный_градиент_206-3" data-name="Безымянный градиент 206" x1="239.13" y1="335.68" x2="239.13" y2="288.79" xlink:href="#_Безымянный_градиент_206"/>
    <linearGradient id="_Безымянный_градиент_206-4" data-name="Безымянный градиент 206" x1="366" y1="233.07" x2="366" y2="218.07" xlink:href="#_Безымянный_градиент_206"/>
    <linearGradient id="_Безымянный_градиент_204-3" data-name="Безымянный градиент 204" x1="334.17" y1="502.75" x2="334.17" y2="445.59" xlink:href="#_Безымянный_градиент_204"/>
    <linearGradient id="_Безымянный_градиент_137" data-name="Безымянный градиент 137" x1="216.55" y1="474.81" x2="216.55" y2="436.24" gradientUnits="userSpaceOnUse">
      <stop offset="0" stop-color="#ffdcce"/>
      <stop offset=".19" stop-color="#ffd9cc"/>
      <stop offset="1" stop-color="#ffd7cb"/>
    </linearGradient>
    <radialGradient id="_Безымянный_градиент_369" data-name="Безымянный градиент 369" cx="328.64" cy="310.79" fx="328.64" fy="310.79" r="76.8" gradientTransform="translate(-185.48 -10.61) scale(1.52 1.22)" gradientUnits="userSpaceOnUse">
      <stop offset="0" stop-color="#b000ff"/>
      <stop offset=".11" stop-color="#9200d4"/>
      <stop offset=".3" stop-color="#660095"/>
      <stop offset=".47" stop-color="#42005f"/>
      <stop offset=".64" stop-color="#250036"/>
      <stop offset=".78" stop-color="#100018"/>
      <stop offset=".91" stop-color="#040006"/>
      <stop offset="1" stop-color="#000"/>
    </radialGradient>
    <linearGradient id="_Безымянный_градиент_67" data-name="Безымянный градиент 67" x1="1233.51" y1="1780.93" x2="1233.51" y2="1729.08" gradientTransform="translate(2143.7 -883.66) rotate(85.8)" gradientUnits="userSpaceOnUse">
      <stop offset="0" stop-color="#7f5a79"/>
      <stop offset=".33" stop-color="#765171"/>
      <stop offset=".86" stop-color="#5f3b5e"/>
      <stop offset=".99" stop-color="#593559"/>
    </linearGradient>
    <linearGradient id="_Безымянный_градиент_160" data-name="Безымянный градиент 160" x1="1232.56" y1="1810.78" x2="1205.33" y2="1808.78" gradientTransform="translate(2143.7 -883.66) rotate(85.8)" gradientUnits="userSpaceOnUse">
      <stop offset=".08" stop-color="#40003b"/>
      <stop offset="1" stop-color="#860093"/>
    </linearGradient>
    <linearGradient id="_Безымянный_градиент_47" data-name="Безымянный градиент 47" x1="1218.28" y1="1908.16" x2="1218.28" y2="1901.92" gradientTransform="translate(2143.7 -883.66) rotate(85.8)" gradientUnits="userSpaceOnUse">
      <stop offset="0" stop-color="#bfb4bc"/>
      <stop offset=".2" stop-color="#b8abb5"/>
      <stop offset=".5" stop-color="#a694a4"/>
      <stop offset=".89" stop-color="#896f88"/>
      <stop offset=".99" stop-color="#806480"/>
    </linearGradient>
    <linearGradient id="_Безымянный_градиент_47-2" data-name="Безымянный градиент 47" x1="1205.67" y1="1829.8" x2="1230.98" y2="1829.8" xlink:href="#_Безымянный_градиент_47"/>
    <linearGradient id="_Безымянный_градиент_47-3" data-name="Безымянный градиент 47" x1="1211.67" y1="1751.86" x2="1240.36" y2="1751.86" xlink:href="#_Безымянный_градиент_47"/>
    <linearGradient id="_Безымянный_градиент_95" data-name="Безымянный градиент 95" x1="1112.3" y1="429.8" x2="1112.3" y2="359.8" gradientTransform="translate(1434.62) rotate(-180) scale(1 -1)" gradientUnits="userSpaceOnUse">
      <stop offset="0" stop-color="#ff2d89"/>
      <stop offset=".51" stop-color="#ff3991"/>
      <stop offset="1" stop-color="#ff4196"/>
    </linearGradient>
    <linearGradient id="_Безымянный_градиент_104" data-name="Безымянный градиент 104" x1="1078.35" y1="429.8" x2="1078.35" y2="359.8" gradientTransform="translate(1434.62) rotate(-180) scale(1 -1)" gradientUnits="userSpaceOnUse">
      <stop offset="0" stop-color="#ed006f"/>
      <stop offset=".4" stop-color="#e50068"/>
      <stop offset="1" stop-color="#de0063"/>
    </linearGradient>
    <linearGradient id="_Безымянный_градиент_95-2" data-name="Безымянный градиент 95" x1="1119.9" y1="422.76" x2="1119.9" y2="351.17" xlink:href="#_Безымянный_градиент_95"/>
  </defs>
  <g class="cls-71">
    <g id="objects">
      <g class="cls-116">
        <g>
          <polygon class="cls-22" points="526.13 447.55 649.32 472.97 743.88 437.31 670.56 426.63 526.13 447.55"/>
          <polygon class="cls-52" points="525.43 446.48 650.39 471.23 743.17 436.24 669.86 425.56 525.43 446.48"/>
          <g>
            <polygon class="cls-32" points="421.61 417.88 373.34 417.88 358.59 257.09 411.5 247.62 421.61 417.88"/>
            <polygon class="cls-81" points="491.71 417.88 443.44 417.88 433.1 186.65 488.84 186.65 491.71 417.88"/>
            <polygon class="cls-96" points="559.83 417.88 511.57 417.88 514.77 114.21 572.86 114.21 559.83 417.88"/>
            <polygon class="cls-147" points="632.68 417.88 584.41 417.88 605.28 66.48 664.91 66.48 632.68 417.88"/>
            <polygon class="cls-68" points="411.5 247.62 433.1 255.84 438.83 419.21 421.61 417.88 411.5 247.62"/>
            <polygon class="cls-138" points="488.84 186.65 508.63 203.58 505.91 417.88 491.71 417.88 488.84 186.65"/>
            <polygon class="cls-112" points="559.83 417.88 574.42 417.88 589 145.69 572.86 114.21 559.83 417.88"/>
            <polygon class="cls-99" points="664.91 66.48 678.53 113.64 647.24 417.88 632.68 417.88 664.91 66.48"/>
            <path class="cls-17" d="M364.27,263.95c-1.94,4.96,6.57,110.22,11.78,128.54,5.21,18.32,36.03,.6,40.11-28.23s-6.68-108.75-11.1-111.72c-4.42-2.97-37.84,3.9-40.79,11.41Z"/>
            <path class="cls-17" d="M438.83,191.57c-5.3,2.32,9.52,189.61,13.6,206.53,4.08,16.91,32.18-24.53,33.54-82.19,1.36-57.66,1.81-117.73-3.17-121.93-4.99-4.2-38.55-4.77-43.96-2.4Z"/>
            <path class="cls-17" d="M522.68,120.7c-7.42,3.89-8.61,212.56,4.08,242.62,12.69,30.07,31.27-9.58,34.9-82.25s9.78-151.26,3.3-159.06c-6.48-7.8-34.26-5.52-42.28-1.31Z"/>
            <path class="cls-17" d="M610.26,74.89c-5.65,3.36-20.73,269.84-17,295.07,3.74,25.23,30.93,5.32,44.19-44.42,13.26-49.73,25.49-248.94,21.07-252.95s-38.41-3.56-48.27,2.3Z"/>
            <path class="cls-104" d="M370.82,390.42s-10.06-124.38-8.25-130.08c1.81-5.71,43.4-10.06,45.21-9.46,1.81,.6,5.83,32.41,5.83,32.41l-2.12-35.67-52.91,9.47,12.23,133.34Z"/>
            <path class="cls-104" d="M440.03,341.74l-6.94-155.09h55.75l.45,36.23s-1.91-31.16-3.95-32.7-44.08-.86-46.51,1.39c-2.44,2.25,1.2,150.17,1.2,150.17Z"/>
            <path class="cls-104" d="M512.73,307.48l2.04-193.28h58.09l-2.88,67.16s.55-57.2-2.19-62.18c-2.74-4.98-43.76-4.2-47.83,3.6s-7.23,184.69-7.23,184.69Z"/>
            <path class="cls-104" d="M586.72,378.96l18.55-312.48h59.64l-7.51,81.84s4.44-70.88,2.04-74.18c-2.39-3.3-43.28-6.3-49.19,.75-5.9,7.05-23.54,304.07-23.54,304.07Z"/>
            <path class="cls-24" d="M632.68,417.88s21.77-238.47,28.57-260.1c6.8-21.62,7.84,24.98,6.12,53.06s-20.13,207.03-20.13,207.03h-14.55Z"/>
            <path class="cls-24" d="M559.83,417.88s8.65-208.74,14.58-223.16c5.93-14.42,.87,176.03,0,223.16h-14.58Z"/>
            <path class="cls-24" d="M491.71,417.88s-1.16-186.98,7.03-195.16c8.19-8.18,7.17,195.16,7.17,195.16h-14.2Z"/>
            <path class="cls-24" d="M421.61,417.88s-6.46-121.77,1.36-132.82c7.82-11.05,15.86,134.16,15.86,134.16l-17.22-1.33Z"/>
          </g>
          <g>
            <path class="cls-142" d="M254.19,118.72c-10.9-33.95-43.95-54.89-75.28-45.83-1.04,.31-2.07,.63-3.1,1-1.03,.37-2.04,.77-3.03,1.19-29.99,12.83-42.3,49.97-29.24,83.14,.3,.8,.63,1.6,.97,2.39,12.06,27.84,46.23,45.12,74.73,34.95,28.5-10.17,44.01-45.19,35.71-74.37-.24-.83-.48-1.66-.76-2.47Zm-73.07-29.96c26.19-9.35,54.36,6.38,62.45,33.53,7.61,25.53-4.98,53.66-28.35,62-23.37,8.34-50.92-5.46-61.19-30.04-10.93-26.14,.91-56.14,27.1-65.49Z"/>
            <path class="cls-94" d="M178.91,72.89c-1.04,.31-2.07,.63-3.1,1-1.03,.37-2.04,.77-3.03,1.19-30.8,13-43.88,49.48-30.25,80.95,.32,.74,.65,1.47,1.01,2.19,13.7,28.74,46.7,44.32,74.64,34.35,27.94-9.97,43.61-42.92,36.01-73.85-.18-.78-.38-1.55-.6-2.33-9.38-32.99-42.6-52.94-74.67-43.5Zm36.31,111.4c-23.37,8.34-50.92-5.46-61.19-30.04-10.93-26.14,.91-56.14,27.1-65.49,26.19-9.35,54.36,6.38,62.45,33.53,7.61,25.53-4.98,53.66-28.35,62Z"/>
            <path class="cls-129" d="M179.37,83.86c-27.76,9.91-40.24,41.76-28.58,69.41,10.93,25.92,40.02,40.41,64.64,31.62,24.64-8.79,37.96-38.43,30.01-65.41-8.49-28.79-38.3-45.54-66.07-35.62Zm35.85,100.42c-23.37,8.34-50.92-5.46-61.19-30.04-10.93-26.14,.91-56.14,27.1-65.49,26.19-9.35,54.36,6.38,62.45,33.53,7.61,25.53-4.98,53.66-28.35,62Z"/>
            <path class="cls-6" d="M244.25,120.52c7.8,26.31-5.09,55.22-29.03,63.77-23.94,8.55-52.21-5.67-62.83-30.97-11.32-26.96,.76-57.92,27.67-67.53,26.91-9.61,55.88,6.71,64.19,34.74Z"/>
            <path class="cls-6" d="M180.06,85.78c-26.91,9.61-38.99,40.57-27.67,67.53,10.62,25.31,38.89,39.52,62.84,30.97,23.94-8.55,36.84-37.45,29.03-63.77-8.31-28.03-37.28-44.35-64.19-34.74Zm33.58,94.07c-21.64,7.73-49.06-4.14-58.56-26.96-10.06-24.16,2.92-52.99,26.96-61.57,24.04-8.58,52.49,5.8,60,30.85,7.09,23.67-6.75,49.96-28.39,57.69Z"/>
            <path class="cls-69" d="M216.64,209.7c3.67-2.64-3.9-13.81-3.9-13.81,0,0,4.56-4.94,11.89-4.24,0,0,1.86,12.21,5.66,13.73l-13.65,4.32Z"/>
            <path class="cls-60" d="M252.41,288.37s-.02,.02-.03,.02c-.49,.14-1.13,.17-1.88,.09-5.99-.61-19.74-8.03-25-24.48-5.8-18.14-7.56-42.67-11.94-52.11,3.7-2.97,10.74-7.2,20.07-6.44,1.58,5.92,7.35,15.21,13.23,25.48,.01,.01,.02,.03,.02,.04,3.99,6.97,8.03,14.38,10.85,21.52,7.12,18-1.21,34-5.32,35.88Z"/>
            <path class="cls-39" d="M138.46,120.15c-1.02,4.56,3.61,14.51,5.35,16.57,1.73,2.05-.63-40.34,33.06-51.97,33.66-11.62,53.66,9.43,58.43,14.98,4.7,5.47,7.63-1.69,7.48-4.93-.15-3.26-31.22-32.77-63.81-21.15-36.52,13.03-40.51,46.5-40.51,46.5Z"/>
            <path class="cls-42" d="M207.97,72.68c-1.93,2.26,10.71,11.45,17.31,12.49,6.56,1.03-.62-9.44-17.31-12.49Z"/>
            <path class="cls-43" d="M182.93,183.18c-3.94-.53,4.41,5.53,10.68,6.65,6.23,1.11,8.65-2.9,7.76-3.25-.9-.35-7.33,1.21-18.44-3.4Z"/>
            <path class="cls-42" d="M219.93,182.61s8.8-3.34,13.98-8.51c5.22-5.21,6.7-10.93,6.7-10.93,0,0-7.26,13.57-20.68,19.44Z"/>
            <path class="cls-8" d="M212.74,195.89s2.97,4.62,4.35,6.96c1.38,2.33,8.21-1.23,8.27-4.24,.06-3.03-.73-6.97-.73-6.97,0,0-5.05-.94-11.89,4.24Z"/>
            <path class="cls-14" d="M252.41,288.37s-.02,.02-.03,.02c-.1,.01-.78,.04-1.88,.09-5.99-.61-19.74-8.03-25-24.48-5.8-18.14-7.56-42.67-11.94-52.11,3.7-2.97,10.74-7.2,20.07-6.44,1.58,5.92,7.35,15.21,13.23,25.48-.69-.99-12.14-17.21-20.32-16.37-8.48,.87-1.85,46.65,2.65,55.26,4.38,8.39,19.65,5.51,25.56,5.98,5.79,.47-1.5,12.16-2.34,12.57Z"/>
            <path class="cls-40" d="M226.35,215.6c-4.82,2.05-3.29,44.41,3.69,53.34,6.78,8.68,23,6.64,26.73,2.56,3.76-4.11-5.66-33.82-14.01-45.86-8.65-12.48-16.4-10.04-16.4-10.04Z"/>
            <path class="cls-42" d="M237.11,227.25c-1.76,.59,1.92,4.59,3.83,5.02,1.9,.43,1.41-6.78-3.83-5.02Z"/>
            <path class="cls-76" d="M237.11,281.16c.1-1.28,9.33,3.06,12.65,3.19,3.31,.13,6.62-3.11,6.62-3.11,0,0-1.36,6.12-4.86,7.2-3.5,1.07-14.42-7.27-14.42-7.27Z"/>
            <path class="cls-34" d="M177.4,93.29c-10.52,10.24,19.78,60.03,41.97,63.55,21.65,3.43,26.24-28.86,15.73-51.21-11.11-23.63-51.54-18.33-57.7-12.33Z"/>
            <path class="cls-42" d="M219.26,103.41c-3.15,2.55,4.31,10.27,7.42,9.9,3.1-.37-1.55-14.64-7.42-9.9Z"/>
            <path class="cls-42" d="M177.11,176.65c-2.59-5.96,12.37-5.27,12.33,3.95-.01,3.2-10.19,.98-12.33-3.95Z"/>
          </g>
          <path class="cls-22" d="M74.81,427.63c3.3,8.24,405.21,8.43,574.33,.93,169.12-7.5,7.9-16.33-257.37-12.78-265.28,3.56-319.1,6.49-316.95,11.85Z"/>
          <g>
            <g>
              <path class="cls-91" d="M197.85,302.13s0,.03,0,.05c-.17,1.96-5.6,65.23-6.1,121.53,0,0-54.56,2.94-72.07,2.61-1.93-.03-3.79-.1-5.56-.17-14.23-.63-22.9-2.44-22.9-2.44,0,0-6.36-84.97-14.77-122.22,0,0,17.75-6.21,28.43-6.21,0,0,59.58,0,92.98,6.86Z"/>
              <path class="cls-76" d="M76.96,303.82c.33-3.82,21.33-8.94,24.79-6.33,3.46,2.61,12.32,68.44,12.28,128.64,0,0-18.55-1.14-21.36-2.94s-5.97-63.42-15.72-119.37Z"/>
              <path class="cls-12" d="M94.82,405.48s.75,5.43,5.32,7.72c4.57,2.29,8.11-2.57,8.13-10.7,.02-8.88-3.92-12.9-3.92-12.9l-9.54,15.89Z"/>
              <path class="cls-110" d="M101.75,297.49c.31-2.1,2.28-2.11,3.45-1.6s9.71,81.17,9.97,130.25h-1.14s-1.37-75.42-12.28-128.64Z"/>
              <path class="cls-133" d="M100.74,412.42c-6.35,0-10.38-17.9-1.73-23.77,8.53-5.79,14.34,23.76,1.73,23.77Z"/>
              <path class="cls-135" d="M99.97,409.16c-4.68,0-7.76-13.38-1.28-17.52,6.29-4.02,10.57,17.51,1.28,17.52Z"/>
              <path class="cls-12" d="M101.9,408.79c-3.17,.69-6.18-9.04-3.62-15.12,2.56-6.08,7.14,1.39,7.06,6.75-.08,5.36-1.8,8.01-3.44,8.37Z"/>
              <path class="cls-42" d="M98.73,388.85c-.82,1.53,2.26,1.15,4.07,3.39s2.69,7.46,3.09,7.88,1.74-.38,1.8-1.26c.06-.87-1.31-8.11-4.4-10.01-3.1-1.9-4.56,0-4.56,0Z"/>
              <path class="cls-25" d="M105.96,400.68c-.37-.11-.48,2.98-.54,3.65s2.18,.68,2.38-.26c.2-.94,.29-3.62-.08-3.84-.37-.22-1.75,.45-1.75,.45Z"/>
              <path class="cls-72" d="M81.81,320.35s12.08-3.91,20.35-4.21c0,0,4.59,28.12,6.16,60.29l-18.28,1.5s-3.61-36.39-8.23-57.59Z"/>
              <path class="cls-141" d="M102.27,316.85s-17.85,2.39-18.83,4.5c-.98,2.1,6.26,36.77,7.45,56.52l-.85,.07s-3.26-32.48-8.23-57.59c0,0,12.28-4.06,20.35-4.21l.11,.72Z"/>
              <path class="cls-5" d="M84.38,325.66s7.04-3.58,18.59-4.15l.65,4.66s-10.01,.09-18.45,2.59l-.78-3.11Z"/>
              <path class="cls-5" d="M91.28,373.54s10.85-1.66,16.79-1.66l.08,3.51-16.59,1.29-.28-3.13Z"/>
              <path class="cls-30" d="M197.85,302.18c-.17,1.96-5.6,65.23-6.1,121.53,0,0-54.56,2.94-72.07,2.61-1.93-.03-3.79-.1-5.56-.17l-.1-.84s71.84-1.4,74.8-3.21c2.96-1.82,3.15-77.24,9.03-119.92Z"/>
              <path class="cls-56" d="M105.2,295.89s72.41,1.45,92.32,8.74l.33-2.45s-35.47-8.04-92.64-6.29Z"/>
              <path class="cls-40" d="M110.39,300.13c-4.26,.8,5.28,62.46,14.35,86.09,9.07,23.63,55.53,10.49,62.72-14.36,7.19-24.85,7.97-57.86,5.33-63.55-2.64-5.69-56.29-13.06-82.4-8.18Z"/>
              <path class="cls-43" d="M105.26,298.54c-1.28-2.75-.58,14.59,1.6,24.11,2.18,9.52,.94-18.64-1.6-24.11Z"/>
              <path class="cls-42" d="M184.99,313.58c-1.75-.45-2.42,6.09-.77,7.93,1.65,1.84,2.52-7.48,.77-7.93Z"/>
              <g>
                <path class="cls-12" d="M111.9,320.65s1.52,5.68,12.91,5.68,13.05-4.84,13.05-4.84l-25.96-.83Z"/>
                <path class="cls-140" d="M111.9,320.65c-2.28-6.09,22.54-7.09,25.84-.19,2.45,5.13-22.91,8.01-25.84,.19Z"/>
                <path class="cls-42" d="M112.28,318.53c-.51,1.64,3.81,1.79,11.79,0s13.32,2.76,13.49,2.34c.17-.42-2.17-5.14-12.38-5.17-11.65-.03-12.9,2.83-12.9,2.83Z"/>
                <path class="cls-11" d="M112.25,319.19c-.87-.2,.35,2.26,.99,2.81s8.04-2.81,14.08-2.61c6.04,.2,9.25,2.81,9.81,2.67,.56-.14,.79-1.11,.44-1.19-.35-.08-3.74-2.61-10.49-2.57-6.75,.04-11.18,2.22-12.71,1.88-1.53-.34-2.11-.99-2.11-.99Z"/>
                <path class="cls-135" d="M116.8,320.62c-1.42-3.78,13.99-4.4,16.04-.12,1.52,3.18-14.22,4.97-16.04,.12Z"/>
                <g>
                  <path class="cls-114" d="M117.38,320.61c-1.29-2.3,13.02-2.67,14.89-.07,1.39,1.93-13.24,3.02-14.89,.07Z"/>
                  <path class="cls-42" d="M117.69,319.92c-.26,.28,11.2-.21,11.93-.43,.73-.23-7.5-1.72-11.93,.43Z"/>
                  <path class="cls-11" d="M117.69,320.01c-.42-.02,.07,.76,.43,1.04s2.9-.45,6.92-.76c4.02-.31,6.74,.45,6.94,.29s-.85-.99-2.44-.96c-1.59,.04-9.82,.49-11.85,.39Z"/>
                  <path class="cls-16" d="M118.69,321.59c.82,.28,4.97-.19,7.92-.31,2.95-.11,5.02,.2,5.02,.2,0,0-6.51,2.15-12.94,.11Z"/>
                </g>
              </g>
              <g>
                <path class="cls-12" d="M118.8,399.76s1.52,5.68,12.91,5.68,13.05-4.84,13.05-4.84l-25.96-.83Z"/>
                <path class="cls-98" d="M118.8,399.76c-2.28-6.09,22.54-7.09,25.84-.19,2.45,5.13-22.91,8.01-25.84,.19Z"/>
                <path class="cls-42" d="M119.18,397.65c-.51,1.64,3.81,1.79,11.79,0,7.98-1.79,13.32,2.76,13.49,2.34,.17-.42-2.17-5.14-12.38-5.17-11.65-.03-12.9,2.83-12.9,2.83Z"/>
                <path class="cls-11" d="M119.15,398.31c-.87-.2,.35,2.26,.99,2.81s8.04-2.81,14.08-2.61c6.04,.2,9.25,2.81,9.81,2.67,.56-.14,.79-1.11,.44-1.19-.35-.08-3.74-2.61-10.49-2.57s-11.18,2.22-12.71,1.88-2.11-.99-2.11-.99Z"/>
                <path class="cls-135" d="M123.7,399.74c-1.42-3.78,13.99-4.4,16.04-.12,1.52,3.18-14.22,4.97-16.04,.12Z"/>
                <g>
                  <path class="cls-59" d="M124.27,399.73c-1.29-2.3,13.02-2.67,14.89-.07,1.39,1.93-13.24,3.02-14.89,.07Z"/>
                  <path class="cls-42" d="M124.59,399.04c-.26,.28,11.2-.21,11.93-.43,.73-.23-7.5-1.72-11.93,.43Z"/>
                  <path class="cls-11" d="M124.59,399.12c-.43-.02,.07,.76,.43,1.04,.36,.28,2.9-.45,6.92-.76,4.02-.31,6.74,.45,6.94,.29s-.85-.99-2.44-.96c-1.59,.04-9.82,.49-11.85,.39Z"/>
                  <path class="cls-31" d="M125.59,400.71c.82,.28,4.97-.19,7.92-.31,2.95-.11,5.02,.2,5.02,.2,0,0-6.51,2.15-12.94,.11Z"/>
                </g>
              </g>
              <path class="cls-14" d="M115.17,426.13s60.77-4.78,76.58-2.43c0,0-42.55,2.82-76.58,2.43Z"/>
              <path class="cls-76" d="M137.42,424.61s27.73-2.02,38.57-3.6c10.84-1.58,13.05-4.82,13.89-12.18,.85-7.37,1.96-22.79,1.96-22.79,0,0-1.29,34.88-3.02,36.05-1.73,1.18-51.41,2.52-51.41,2.52Z"/>
            </g>
            <path class="cls-20" d="M133.93,295.61s-28.5,52.97-4.25,130.56c0,0,31.41,.41,34.95-.07,3.54-.48-14.4-129.54-14.4-129.54l-16.29-.94Z"/>
            <g>
              <path class="cls-35" d="M159.83,293.64s-2.46-11.85-4.43-20.92c0,0,46.69-3.56,93.05,5.18,0,0,1.35,23.57,.78,41.76l-89.4-26.02Z"/>
              <path class="cls-50" d="M266.06,293.59s0,.03,0,.05c-.22,2.11-7.18,70.28-8.94,130.94,0,0-55.91,3.16-73.82,2.81-1.98-.03-3.88-.1-5.69-.19-14.55-.68-23.38-2.62-23.38-2.62,0,0-4.62-91.55-12.39-131.69,0,0,18.31-6.69,29.23-6.69,0,0,60.98,0,95.01,7.39Z"/>
              <path class="cls-76" d="M142.29,295.41c.43-4.12,22.03-9.63,25.51-6.82,3.48,2.81,11.08,73.74,9.71,138.61,0,0-18.96-1.23-21.79-3.17-2.84-1.94-4.7-68.34-13.43-128.62Z"/>
              <path class="cls-12" d="M158.31,404.95s.65,5.85,5.28,8.31c4.63,2.46,8.36-2.77,8.56-11.53,.22-9.57-3.72-13.9-3.72-13.9l-10.12,17.12Z"/>
              <path class="cls-89" d="M167.81,288.59c.36-2.26,2.38-2.27,3.57-1.73,1.19,.54,8.13,87.45,7.3,140.34h-1.17s.27-81.26-9.71-138.61Z"/>
              <path class="cls-67" d="M164.22,412.43c-6.5,0-10.23-19.29-1.24-25.61,8.86-6.24,14.14,25.6,1.24,25.61Z"/>
              <path class="cls-135" d="M163.5,408.91c-4.79,0-7.64-14.42-.92-18.88,6.53-4.33,10.42,18.87,.92,18.88Z"/>
              <path class="cls-12" d="M165.48,408.52c-3.26,.75-6.12-9.74-3.37-16.3,2.75-6.55,7.28,1.5,7.08,7.27s-2.02,8.63-3.71,9.02Z"/>
              <path class="cls-42" d="M162.68,387.03c-.87,1.64,2.29,1.24,4.09,3.65,1.8,2.4,2.58,8.04,2.99,8.49,.41,.45,1.79-.41,1.87-1.35,.08-.94-1.16-8.74-4.28-10.78-3.13-2.04-4.66,0-4.66,0Z"/>
              <path class="cls-25" d="M169.82,399.77c-.37-.12-.55,3.21-.63,3.93-.08,.72,2.22,.73,2.44-.28,.22-1.02,.38-3.9,0-4.14-.38-.23-1.8,.49-1.8,.49Z"/>
              <path class="cls-107" d="M146.89,313.21s12.45-4.21,20.92-4.54c0,0,4.07,30.3,4.97,64.97l-18.75,1.62s-2.88-39.21-7.14-62.05Z"/>
              <path class="cls-33" d="M167.91,309.45s-18.32,2.58-19.37,4.85c-1.05,2.27,5.58,39.61,6.36,60.89l-.87,.08s-2.61-34.99-7.14-62.05c0,0,12.66-4.37,20.92-4.54l.1,.77Z"/>
              <path class="cls-5" d="M149.4,318.94s7.28-3.86,19.11-4.47l.56,5.02s-10.24,.09-18.94,2.79l-.73-3.35Z"/>
              <path class="cls-5" d="M155.4,370.52s11.15-1.79,17.22-1.79v3.78l-17,1.39-.22-3.38Z"/>
              <path class="cls-30" d="M266.06,293.64c-.22,2.11-7.18,70.28-8.94,130.94,0,0-55.91,3.16-73.82,2.81-1.98-.03-3.88-.1-5.69-.19l-.09-.91s73.56-1.5,76.63-3.45c3.07-1.96,4.95-83.22,11.91-129.21Z"/>
              <path class="cls-56" d="M171.38,286.86s74.08,1.56,94.29,9.42l.39-2.65s-36.13-8.67-94.68-6.78Z"/>
              <path class="cls-38" d="M176.59,291.44c-4.37,.86,4.01,67.3,12.77,92.76s56.6,11.3,64.51-15.47c7.91-26.77,9.45-62.34,6.87-68.48-2.58-6.13-57.32-14.07-84.15-8.82Z"/>
              <path class="cls-74" d="M171.38,289.72c-1.25-2.97-.92,15.72,1.1,25.98s1.37-20.09-1.1-25.98Z"/>
              <path class="cls-42" d="M252.64,305.92c-1.79-.49-2.61,6.56-.96,8.55,1.65,1.98,2.75-8.06,.96-8.55Z"/>
              <g>
                <path class="cls-12" d="M177.68,313.54s1.43,6.12,13.09,6.12,13.46-5.22,13.46-5.22l-26.55-.9Z"/>
                <path class="cls-105" d="M177.68,313.54c-2.2-6.56,23.22-7.64,26.45-.21,2.4,5.53-23.62,8.63-26.45,.21Z"/>
                <path class="cls-42" d="M178.12,311.26c-.56,1.77,3.86,1.93,12.07,0,8.21-1.93,13.58,2.97,13.76,2.52,.18-.45-2.1-5.54-12.56-5.57-11.92-.04-13.27,3.05-13.27,3.05Z"/>
                <path class="cls-11" d="M178.07,311.97c-.88-.22,.31,2.43,.95,3.02,.64,.59,8.29-3.02,14.47-2.81s9.41,3.03,9.98,2.87,.83-1.2,.47-1.28c-.36-.08-3.77-2.81-10.68-2.77-6.91,.04-11.49,2.39-13.05,2.03s-2.14-1.07-2.14-1.07Z"/>
                <path class="cls-135" d="M182.7,313.51c-1.37-4.08,14.42-4.74,16.42-.13,1.49,3.43-14.67,5.36-16.42,.13Z"/>
                <g>
                  <path class="cls-103" d="M183.29,313.49c-1.27-2.48,13.39-2.88,15.24-.08,1.38,2.08-13.62,3.26-15.24,.08Z"/>
                  <path class="cls-42" d="M183.62,312.76c-.27,.3,11.47-.22,12.22-.47,.76-.24-7.64-1.86-12.22,.47Z"/>
                  <path class="cls-11" d="M183.62,312.85c-.43-.02,.05,.82,.42,1.12,.37,.3,2.98-.48,7.1-.82s6.89,.48,7.1,.31c.21-.17-.85-1.07-2.47-1.03s-10.06,.53-12.14,.42Z"/>
                  <path class="cls-29" d="M184.61,314.55c.83,.3,5.1-.21,8.12-.33,3.02-.12,5.13,.21,5.13,.21,0,0-6.71,2.32-13.25,.12Z"/>
                </g>
              </g>
              <g>
                <path class="cls-12" d="M182.98,398.79s1.43,6.12,13.09,6.12,13.46-5.22,13.46-5.22l-26.55-.9Z"/>
                <path class="cls-54" d="M182.98,398.79c-2.2-6.56,23.22-7.64,26.45-.21,2.4,5.53-23.62,8.63-26.45,.21Z"/>
                <path class="cls-42" d="M183.42,396.51c-.55,1.77,3.86,1.93,12.07,0,8.21-1.93,13.58,2.97,13.76,2.52,.18-.45-2.1-5.54-12.56-5.57-11.92-.04-13.27,3.05-13.27,3.05Z"/>
                <path class="cls-11" d="M183.37,397.22c-.88-.22,.31,2.43,.95,3.02,.64,.59,8.29-3.02,14.47-2.81s9.41,3.03,9.98,2.87,.83-1.2,.47-1.28c-.36-.08-3.77-2.81-10.68-2.77-6.91,.04-11.49,2.39-13.05,2.03s-2.14-1.07-2.14-1.07Z"/>
                <path class="cls-135" d="M188,398.76c-1.36-4.07,14.42-4.74,16.42-.13,1.49,3.43-14.67,5.36-16.42,.13Z"/>
                <g>
                  <path class="cls-145" d="M188.58,398.74c-1.27-2.48,13.39-2.88,15.24-.08,1.38,2.08-13.62,3.26-15.24,.08Z"/>
                  <path class="cls-42" d="M188.92,398c-.27,.3,11.47-.22,12.22-.47,.76-.24-7.64-1.86-12.22,.47Z"/>
                  <path class="cls-11" d="M188.92,398.1c-.43-.02,.05,.82,.42,1.12,.37,.3,2.98-.48,7.1-.82s6.89,.48,7.1,.31c.21-.17-.85-1.07-2.47-1.03s-10.06,.53-12.14,.42Z"/>
                  <path class="cls-27" d="M189.91,399.8c.83,.3,5.1-.21,8.12-.33,3.02-.12,5.13,.21,5.13,.21,0,0-6.71,2.32-13.25,.12Z"/>
                </g>
              </g>
              <path class="cls-14" d="M178.68,427.2s62.3-5.15,78.43-2.62c0,0-43.62,3.04-78.43,2.62Z"/>
              <path class="cls-76" d="M201.48,425.56s28.43-2.18,39.55-3.88c11.12-1.7,13.46-5.19,14.49-13.12,1.03-7.94,2.52-24.56,2.52-24.56,0,0-2.1,37.58-3.89,38.85-1.8,1.27-52.67,2.72-52.67,2.72Z"/>
              <path class="cls-122" d="M155.4,272.71l-.89,.31,3.63,15.02,.49-.11s-2.5-11.76-3.24-15.22Z"/>
            </g>
          </g>
          <path class="cls-22" d="M230.92,291.04s-3.91,1.67-8.47,4.35c-4.42,2.6-8.49,6.77-8.49,6.77l8.54,.92s-26.34,71.78-33.6,124.14l47.32-1.37-5.3-134.81Z"/>
          <g>
            <path class="cls-150" d="M582.29,336.33s8.82,51.77,31.63,82.68l-2.27,5.31-65.31-2.19-.11-6.68s21.61-22.51,32.83-80.56l3.23,1.44Z"/>
            <path class="cls-115" d="M582.29,336.33l76.78,1.49s15,59.87,36.86,80.59l.23,4.78-84.52,1.12,2.27-5.31s-18.68-20.69-31.63-82.68Z"/>
            <path class="cls-3" d="M548.51,419.12s20.72,5.19,62.72,1.67c0,0-18.49-27.98-31.36-81.84,0,0,0,24.83-31.36,80.16Z"/>
            <polygon class="cls-77" points="579.06 334.89 656.34 336.49 659.07 337.82 582.29 336.33 579.06 334.89"/>
            <path class="cls-126" d="M591.11,336.49l-3.22,5.44s10.03,45.66,32.75,72.9l3.76-3.68s-20.99-23.05-33.29-74.66Z"/>
            <path class="cls-151" d="M591.11,336.49l70.26,2.09s8.47,41.66,29.8,69.96l-66.76,2.62s-19.87-20.82-33.29-74.66Z"/>
            <path class="cls-125" d="M624.4,411.16l66.76-2.62-3.73,6.29s-36.33,1.84-66.8,0l3.76-3.68Z"/>
            <g>
              <g>
                <path class="cls-95" d="M655.93,340.91c-2.28,.24-1.14,4.85,1.41,4.85s1.31-5.13-1.41-4.85Z"/>
                <path class="cls-62" d="M642.69,336.49s.4-7.52,7.82-7.98c9.27-.58,10.56,13.11,6.03,15.83,0,0-2.19-.5-1.52-1.92s2.43-1.79,1.98-6.41c-.46-4.61-3.65-6.39-8.02-5.57-4.37,.82-4.51,6.09-4.51,6.09l-1.78-.04Z"/>
              </g>
              <g>
                <path class="cls-95" d="M644.69,340.62c-2.28,.24-1.14,4.85,1.41,4.85s1.31-5.13-1.41-4.85Z"/>
                <path class="cls-55" d="M631.45,336.2s.4-7.52,7.82-7.98c9.27-.58,10.56,13.11,6.03,15.83,0,0-2.19-.5-1.52-1.92,.67-1.42,2.43-1.79,1.98-6.41-.46-4.61-3.65-6.39-8.02-5.57-4.37,.82-4.51,6.09-4.51,6.09l-1.78-.04Z"/>
              </g>
              <g>
                <path class="cls-95" d="M633.46,340.33c-2.28,.24-1.14,4.85,1.41,4.85s1.31-5.13-1.41-4.85Z"/>
                <path class="cls-1" d="M620.21,335.92s.4-7.52,7.82-7.98c9.27-.58,10.56,13.11,6.03,15.83,0,0-2.19-.5-1.52-1.92s2.43-1.79,1.98-6.41-3.65-6.39-8.02-5.57-4.51,6.09-4.51,6.09l-1.78-.04Z"/>
              </g>
              <g>
                <path class="cls-95" d="M622.22,340.04c-2.28,.24-1.14,4.85,1.41,4.85s1.31-5.13-1.41-4.85Z"/>
                <path class="cls-100" d="M608.97,335.63s.4-7.52,7.82-7.98c9.27-.58,10.56,13.11,6.03,15.83,0,0-2.19-.5-1.52-1.92,.67-1.42,2.43-1.79,1.98-6.41-.46-4.61-3.65-6.39-8.02-5.57-4.37,.82-4.51,6.09-4.51,6.09l-1.78-.04Z"/>
              </g>
              <g>
                <path class="cls-95" d="M610.98,339.75c-2.28,.24-1.14,4.85,1.41,4.85s1.31-5.13-1.41-4.85Z"/>
                <path class="cls-57" d="M597.74,335.34s.4-7.52,7.82-7.98c9.27-.58,10.56,13.11,6.03,15.83,0,0-2.19-.5-1.52-1.92,.67-1.42,2.43-1.79,1.98-6.41-.46-4.61-3.65-6.39-8.02-5.57-4.37,.82-4.51,6.09-4.51,6.09l-1.78-.04Z"/>
              </g>
              <g>
                <path class="cls-95" d="M599.74,339.47c-2.28,.24-1.14,4.85,1.41,4.85s1.31-5.13-1.41-4.85Z"/>
                <path class="cls-152" d="M586.5,335.05s.4-7.52,7.82-7.98c9.27-.58,10.56,13.11,6.03,15.83,0,0-2.19-.5-1.52-1.92,.67-1.42,2.43-1.79,1.98-6.41-.46-4.61-3.65-6.39-8.02-5.57-4.37,.82-4.51,6.09-4.51,6.09l-1.78-.04Z"/>
              </g>
            </g>
            <path class="cls-7" d="M613.92,419.01s50.97,6.16,82.01-.6l.23,4.78-84.52,1.12,2.27-5.31Z"/>
            <path class="cls-24" d="M687.44,414.83s2.83-4.04,2.16-5.12-59.1,1.45-62.33,1.89c-3.23,.45-6.63,3.23-6.63,3.23,0,0,33.5,5.29,66.8,0Z"/>
            <path class="cls-24" d="M588.5,341.93s3.58-.79,6.19,9.46c2.61,10.25,15.77,42.94,27.63,57.28,0,0,.16,3.88-1.68,5.55-1.84,1.67-30.25-34.62-32.14-72.29Z"/>
            <path class="cls-61" d="M597.18,348.37s1.53,5.64,2.38,6.89h20.61l-2.66-6.44-20.33-.45Z"/>
            <g class="cls-10">
              <path class="cls-90" d="M628.43,367.45c-2.04-.03-3.06-.04-5.1-.06-.66,0-1.45-.64-1.74-1.41-.91-2.37-1.34-3.55-2.15-5.91-.26-.77,.07-1.38,.73-1.36,2.05,.05,3.07,.07,5.11,.12,.67,.02,1.41,.64,1.67,1.41,.8,2.34,1.23,3.51,2.13,5.86,.29,.76,0,1.38-.66,1.37Z"/>
              <path class="cls-90" d="M614.34,377.68c-2.03,0-3.04,0-5.07,0-.66,0-1.49-.64-1.85-1.43-1.09-2.42-1.62-3.63-2.62-6.06-.33-.79-.04-1.42,.62-1.41,2.04,.02,3.06,.03,5.09,.06,.66,0,1.46,.65,1.78,1.43,.99,2.4,1.51,3.6,2.59,6,.35,.78,.11,1.42-.55,1.42Z"/>
              <path class="cls-90" d="M623.57,377.69c-2.03,0-3.04,0-5.07,0-.66,0-1.49-.63-1.84-1.42-1.08-2.4-1.6-3.6-2.59-5.99-.32-.78-.04-1.41,.63-1.4,2.04,.02,3.06,.03,5.09,.06,.66,0,1.45,.64,1.77,1.41,.98,2.38,1.49,3.56,2.57,5.94,.35,.77,.1,1.4-.56,1.4Z"/>
              <path class="cls-90" d="M632.8,377.69c-2.03,0-3.04,0-5.07,0-.66,0-1.49-.63-1.84-1.4-1.07-2.37-1.58-3.56-2.56-5.93-.32-.77-.03-1.39,.63-1.39,2.04,.02,3.06,.03,5.09,.06,.66,0,1.45,.63,1.77,1.4,.97,2.35,1.48,3.53,2.54,5.88,.35,.77,.1,1.39-.56,1.39Z"/>
              <path class="cls-90" d="M619.52,388.14c-2.02,.02-3.02,.03-5.04,.06-.66,0-1.53-.63-1.94-1.41-1.26-2.42-1.86-3.63-3.03-6.06-.38-.79-.15-1.43,.51-1.43,2.03,0,3.04,0,5.07,0,.66,0,1.49,.63,1.87,1.42,1.15,2.4,1.76,3.6,3,6,.41,.78,.21,1.42-.45,1.43Z"/>
              <path class="cls-90" d="M628.7,388.04c-2.02,.02-3.02,.03-5.04,.06-.66,0-1.52-.62-1.93-1.4-1.25-2.4-1.84-3.59-3-5.99-.38-.78-.14-1.42,.52-1.42,2.03,0,3.04,0,5.07,0,.66,0,1.49,.63,1.86,1.4,1.14,2.38,1.74,3.57,2.97,5.94,.4,.77,.2,1.41-.45,1.41Z"/>
              <path class="cls-90" d="M637.88,387.94c-2.02,.02-3.02,.03-5.04,.06-.66,0-1.52-.61-1.92-1.39-1.23-2.37-1.83-3.56-2.97-5.93-.37-.77-.13-1.4,.53-1.4,2.03,0,3.04,0,5.07,0,.66,0,1.49,.62,1.86,1.39,1.13,2.35,1.72,3.53,2.94,5.88,.4,.77,.19,1.39-.46,1.4Z"/>
              <path class="cls-90" d="M625.4,398.58c-2,.05-3,.07-5.01,.12-.65,.01-1.56-.61-2.02-1.39-1.42-2.41-2.11-3.62-3.43-6.04-.43-.79-.24-1.43,.41-1.44,2.01-.03,3.02-.04,5.04-.06,.66,0,1.53,.62,1.96,1.4,1.32,2.4,2,3.59,3.4,5.99,.46,.78,.31,1.42-.35,1.44Z"/>
              <path class="cls-90" d="M634.51,398.37c-2,.05-3,.07-5.01,.12-.65,.01-1.56-.6-2.02-1.38-1.4-2.39-2.08-3.58-3.4-5.97-.43-.78-.24-1.42,.42-1.43,2.01-.03,3.02-.04,5.04-.06,.66,0,1.53,.61,1.95,1.38,1.3,2.37,1.98,3.56,3.37,5.92,.45,.77,.3,1.41-.35,1.42Z"/>
              <path class="cls-90" d="M643.63,398.16c-2,.05-3,.07-5.01,.12-.65,.02-1.55-.6-2.01-1.36-1.39-2.36-2.06-3.54-3.36-5.91-.42-.77-.23-1.4,.43-1.41,2.01-.03,3.02-.04,5.04-.06,.66,0,1.52,.61,1.94,1.37,1.29,2.35,1.95,3.52,3.33,5.86,.45,.76,.29,1.39-.36,1.41Z"/>
              <path class="cls-90" d="M637.34,367.56c-2.04-.03-3.06-.04-5.1-.06-.66,0-1.45-.63-1.74-1.4-.9-2.34-1.32-3.51-2.13-5.85-.26-.76,.07-1.37,.74-1.35,2.05,.05,3.07,.07,5.11,.12,.67,.01,1.41,.64,1.67,1.39,.8,2.32,1.22,3.48,2.11,5.8,.29,.76,0,1.36-.67,1.36Z"/>
              <path class="cls-90" d="M641.66,377.7c-2.03,0-3.04,0-5.07,0-.66,0-1.48-.62-1.83-1.39-1.06-2.35-1.57-3.52-2.54-5.87-.32-.76-.03-1.38,.64-1.37,2.04,.02,3.06,.03,5.09,.06,.66,0,1.45,.63,1.76,1.39,.96,2.33,1.46,3.49,2.51,5.82,.34,.76,.09,1.37-.57,1.37Z"/>
              <path class="cls-90" d="M646.68,387.85c-2.02,.02-3.02,.03-5.04,.06-.66,0-1.52-.61-1.92-1.37-1.22-2.35-1.81-3.52-2.94-5.87-.37-.77-.12-1.39,.54-1.39,2.03,0,3.04,0,5.07,0,.66,0,1.48,.61,1.85,1.37,1.12,2.33,1.7,3.49,2.91,5.82,.39,.76,.19,1.38-.47,1.39Z"/>
              <path class="cls-90" d="M652.38,397.96c-2,.05-3,.07-5.01,.12-.65,.02-1.55-.59-2-1.35-1.37-2.34-2.04-3.51-3.33-5.85-.42-.76-.22-1.39,.44-1.4,2.01-.03,3.02-.04,5.04-.06,.66,0,1.52,.6,1.93,1.36,1.27,2.32,1.93,3.48,3.3,5.8,.44,.75,.28,1.38-.37,1.39Z"/>
              <path class="cls-90" d="M646.24,367.67c-2.04-.03-3.06-.04-5.1-.06-.66,0-1.44-.63-1.73-1.38-.89-2.32-1.31-3.48-2.11-5.79-.26-.75,.08-1.35,.74-1.34,2.05,.05,3.07,.07,5.11,.12,.67,.01,1.41,.63,1.67,1.38,.79,2.29,1.21,3.44,2.09,5.74,.29,.75-.01,1.35-.68,1.34Z"/>
              <path class="cls-90" d="M650.52,377.71c-2.03,0-3.04,0-5.07,0-.66,0-1.48-.62-1.82-1.37-1.05-2.32-1.55-3.49-2.51-5.81-.31-.76-.02-1.36,.64-1.36,2.04,.02,3.06,.03,5.09,.06,.66,0,1.45,.62,1.76,1.37,.95,2.3,1.45,3.45,2.49,5.76,.34,.75,.08,1.36-.58,1.36Z"/>
              <path class="cls-90" d="M655.49,387.75c-2.02,.02-3.02,.03-5.04,.06-.66,0-1.51-.6-1.91-1.36-1.21-2.32-1.79-3.48-2.91-5.81-.36-.76-.12-1.37,.54-1.37,2.03,0,3.04,0,5.07,0,.66,0,1.48,.61,1.84,1.36,1.11,2.3,1.68,3.46,2.88,5.76,.39,.75,.18,1.36-.48,1.37Z"/>
              <path class="cls-90" d="M661.13,397.76c-2,.05-3,.07-5.01,.12-.65,.01-1.55-.58-1.99-1.34-1.36-2.31-2.02-3.47-3.29-5.79-.41-.76-.21-1.38,.44-1.38,2.01-.03,3.02-.04,5.04-.06,.66,0,1.52,.59,1.93,1.34,1.26,2.3,1.91,3.45,3.26,5.74,.44,.75,.27,1.36-.38,1.38Z"/>
              <path class="cls-90" d="M655.14,367.79c-2.04-.03-3.06-.04-5.1-.06-.66,0-1.44-.62-1.73-1.37-.88-2.3-1.3-3.44-2.08-5.73-.26-.75,.08-1.34,.75-1.32,2.05,.05,3.07,.07,5.11,.12,.67,.01,1.41,.63,1.66,1.36,.78,2.27,1.19,3.4,2.07,5.68,.28,.74-.02,1.34-.68,1.33Z"/>
              <path class="cls-90" d="M659.38,377.72c-2.03,0-3.04,0-5.07,0-.66,0-1.48-.61-1.82-1.36-1.04-2.3-1.54-3.45-2.48-5.75-.31-.75-.01-1.35,.65-1.34,2.04,.02,3.06,.03,5.09,.06,.66,0,1.44,.61,1.75,1.36,.94,2.28,1.43,3.42,2.46,5.7,.34,.74,.08,1.34-.58,1.34Z"/>
              <path class="cls-90" d="M664.3,387.65l-5.04,.06c-.66,0-1.51-.59-1.9-1.34-1.19-2.3-1.77-3.45-2.88-5.75-.36-.75-.11-1.36,.55-1.36,2.03,0,3.04,0,5.07,0,.66,0,1.48,.6,1.84,1.34,1.1,2.28,1.67,3.42,2.85,5.7,.39,.74,.17,1.35-.48,1.36Z"/>
              <path class="cls-90" d="M664.05,367.9c-2.04-.03-3.06-.04-5.1-.06-.66,0-1.44-.62-1.72-1.36-.87-2.27-1.28-3.41-2.06-5.67-.25-.74,.09-1.32,.75-1.31,2.05,.05,3.07,.07,5.11,.12,.67,.02,1.4,.62,1.66,1.35,.77,2.24,1.18,3.37,2.04,5.62,.28,.73-.02,1.32-.69,1.31Z"/>
              <path class="cls-90" d="M668.24,377.73c-2.03,0-3.04,0-5.07,0-.66,0-1.47-.6-1.81-1.34-1.03-2.28-1.52-3.41-2.46-5.69-.31-.74,0-1.34,.65-1.33,2.04,.02,3.06,.03,5.09,.06,.66,0,1.44,.61,1.74,1.34,.93,2.25,1.42,3.38,2.44,5.64,.33,.74,.07,1.33-.59,1.33Z"/>
              <path class="cls-90" d="M673.1,387.55l-5.04,.06c-.66,0-1.51-.59-1.89-1.33-1.18-2.27-1.75-3.41-2.85-5.69-.36-.74-.1-1.34,.56-1.34,2.03,0,3.04,0,5.07,0,.66,0,1.48,.59,1.83,1.33,1.08,2.26,1.65,3.38,2.82,5.64,.38,.73,.16,1.34-.49,1.34Z"/>
            </g>
            <path class="cls-61" d="M664.3,387.81l-5.04,.06c-.66,0-1.51-.59-1.9-1.34-1.19-2.3-1.77-3.45-2.88-5.75-.36-.75-.11-1.36,.55-1.36,2.03,0,3.04,0,5.07,0,.66,0,1.48,.6,1.84,1.34,1.1,2.28,1.67,3.42,2.85,5.7,.39,.74,.17,1.35-.48,1.36Z"/>
            <path class="cls-77" d="M599.16,363.7s13.44,33.61,26.84,45.74c0,0,11.86,2.16,65.16-.9l-66.76,2.62s-15.18-15.65-25.24-47.46Z"/>
            <path class="cls-77" d="M599.88,394.23s10.68,19.24,16.8,22.96c6.13,3.72,56.87,3.75,64.19,3.46,0,0-32.74,4.16-66.96-1.63,0,0-9.9-12.36-14.04-24.78Z"/>
            <path class="cls-73" d="M609.05,417.18l-59.92,2.08s31.58,4.76,62.11,1.53l-2.18-3.61Z"/>
            <path class="cls-2" d="M566.7,383.12c10.22-18.16,32.11,24.36,35.85,30.19,3.74,5.83-54.04,5.81-54.04,5.81,0,0,12.44-21.68,18.19-36Z"/>
          </g>
          <g>
            <path class="cls-109" d="M376.92,124.41s16.57,.57,26.31,8.76c0,0,4.77,5.43,5.16,13.4,0,0-2.81,150.32-18.53,265.25,0,0-5.16,17-30.36,14.3-33.51-3.59,17.43-301.71,17.43-301.71Z"/>
            <path class="cls-93" d="M249.2,132.81l124.61-8.37c11.34-.76,20.86,9.25,20.63,21.71-.88,49.05-6.43,165.38-18.21,262.11-1.25,10.26-9.39,17.81-18.82,18.03l-111.21,2.51c-11.36,.26-20.5-10.18-19.81-22.63,2.53-45.6,7.39-151.43,4.57-251.39-.32-11.54,7.74-21.27,18.24-21.98Z"/>
            <path class="cls-37" d="M230.38,311.39s50.94-14.09,86.59-64.93c35.65-50.84,44.42-116.65,44.18-118.85s-106.11,5.78-115.72,9.94c-8.55,3.7-15.28,10.3-12.22,49.69s-2.82,124.14-2.82,124.14Z"/>
            <path class="cls-102" d="M252.54,149.23l117.8-7.39c10.72-.67,19.72,8.17,19.51,19.18-.83,43.33-6.08,146.09-17.22,231.54-1.18,9.06-8.88,15.74-17.79,15.92l-105.14,2.22c-10.74,.23-19.38-8.99-18.73-19.99,2.39-40.28,6.98-133.76,4.32-222.06-.31-10.2,7.32-18.79,17.25-19.41Z"/>
            <path class="cls-92" d="M254.58,151.11l115.08-7.34c10.47-.67,19.26,8.11,19.06,19.04-.81,43.02-5.94,145.04-16.82,229.87-1.15,8.99-8.68,15.62-17.38,15.81l-102.71,2.2c-10.5,.23-18.94-8.93-18.3-19.85,2.34-39.99,6.82-132.8,4.22-220.46-.3-10.12,7.15-18.66,16.85-19.27Z"/>
            <path class="cls-63" d="M382.99,125.02c-1.54,.15,7.95,4.2,11.13,14.89s14.03,4.4,14.03,4.4c0,0-1.3-8.81-7.49-13.05-6.18-4.23-17.67-6.25-17.67-6.25Z"/>
            <path class="cls-63" d="M378.86,385.39s-2.27,23.02-4.52,29.23c-2.25,6.21,13.56,2.47,14.66-.83,1.1-3.3,4.06-27.38,4.06-27.38l-14.2-1.02Z"/>
            <path class="cls-75" d="M227,394.62s.65,12.51,1.3,18.01c.64,5.5,10.69,12.08,30.17,13.77,19.48,1.69,89-.73,99.49-2.43,10.49-1.7,18.26-15.71,18.26-15.71,0,0-1.84,10.05-9.96,15.5-2.99,2.01-21.2,2.57-42.2,3.25-36.06,1.16-81.62,1.47-81.62,1.47,0,0-16.35-2.9-16.06-22.31l.62-11.56Z"/>
            <path class="cls-75" d="M365.6,125.02s23.49-3.45,27.59,20.03l.45,29.76,.8-28.65s1.04-21.98-20.63-21.71l-8.21,.58Z"/>
            <path class="cls-75" d="M392.49,202.92s-5.89,142.03-16.27,205.36c0,0,9.29-87.36,16.27-205.36Z"/>
            <path class="cls-42" d="M325.37,129.43l34.66-1.83s-16.07,14.19-34.66,1.83Z"/>
            <path class="cls-26" d="M254.08,156.23c-22.82,4.32-20.09,149.15-4.7,197.55,15.39,48.4,112.26-60.76,126.85-138.57,14.58-77.81-64.98-69.81-122.15-58.98Z"/>
            <path class="cls-143" d="M402.27,157.75c-5-1.75-9.22,67.39-5.41,73.68,3.82,6.29,15.42-70.18,5.41-73.68Z"/>
            <path class="cls-78" d="M400.81,160.63s.52,35.62-4.88,67.03c0,0-.16-46.86,4.88-67.03Z"/>
            <path class="cls-149" d="M400.81,160.63l3.6,1.22s3.02,36.79-4.51,64.47l-3.97,1.34s3.18-30.63,4.88-67.03Z"/>
            <path class="cls-143" d="M397.59,236.71c-5.05-.78-6.95,42.92-2.92,46.63,4.02,3.7,13.04-45.07,2.92-46.63Z"/>
            <path class="cls-78" d="M396.67,232.11s1.37,17.88-2.1,33.95c0,0-1.38-23.55,2.1-33.95Z"/>
            <path class="cls-51" d="M396.23,238.61l3.64,.54s4.25,22.91-2.34,40.78l-3.92,1.1s2.15-19.44,2.62-42.41Z"/>
            <path class="cls-117" d="M232.81,400.15s6.12,7.47,17.57,9.57c11.46,2.1,98.66-1.82,107.45-2.8,8.78-.98,14.4-12.31,14.4-12.31,0,0-3.2,11.64-14.02,13.65-10.82,2.01-108.59,3.28-108.59,3.28,0,0-11.25-.96-16.81-11.4Z"/>
            <path class="cls-131" d="M392.17,135.03c1.69,3,11.49,1.11,12.85,1.64,1.36,.52,3.37,8.07,3.37,8.07,0,0-8.22,2.62-10.99,2.41-2.77-.21-2.95-3.41-2.95-3.41,0,0-.38-5.43-2.27-8.71Z"/>
            <path class="cls-144" d="M376.22,406.09c0,2.19-1.17,7.5-2.04,9.1-.87,1.6,1.73,3.55,7.84,2.78,6.11-.76,7.49-5.29,7.83-6.98,.34-1.69-2.09,2.66-7.92,2.38-5.83-.28-5.71-7.27-5.71-7.27h0Z"/>
            <path class="cls-43" d="M347.55,365.5c-6.36,3.51,12.18-55.63,15.57-57.72,3.39-2.09,3.67,47.1-15.57,57.72Z"/>
            <path class="cls-42" d="M251.17,207.2c-2.41,0-3.86,13.95-1.37,15.86,2.49,1.91,3.72-15.86,1.37-15.86Z"/>
          </g>
          <g>
            <path class="cls-146" d="M353.01,315.5s-2.61-26.88,2.24-33.13c4.88-6.29,38.04,11.83,42.16,18.56,4.08,6.66-29.43,31.95-29.43,31.95l-14.97-17.39Z"/>
            <path class="cls-40" d="M460.02,354.99l-50.54,1.18c-5.44-.57-10.78-1.26-15.95-2.06l-3.66-4.12s-.03-7.98-.51-17.72c1.72-4.17,3.12-7.46,3.12-7.46,0,0,1.03,17.02,6.63,23.17,5.55,6.09,60.91,7.01,60.91,7.01Z"/>
            <path class="cls-41" d="M351.3,411.17s-2.9-41.13,3.54-120.78l26.26,8.02s3.06,117.39,10.1,125.26c6.93,7.75,158.63-.97,158.63-.97,0,0-128.53,10.19-183.94,3.7-4.59-.54-14.92-5.94-14.59-15.23Z"/>
            <path class="cls-124" d="M351.36,413.05s10.75,7.43,33.2,6.03c0,0-3.94-12.02-4.6-33.04-.65-21.02-.82-84.12-1.31-86.32-.49-2.2-23.88-9.88-23.88-9.88,0,0-6.48,73.4-3.42,123.21Z"/>
            <path class="cls-82" d="M562,405.28c-.15,5.2-.78,16.49-12.18,17.42,0,0-13.98,1.39-34.33,2.93-22.01,1.64-51.44,3.46-78.66,3.86h-.07c-15.2,.21-29.69-.01-41.58-.98,0,0-7.08-.49-8.42-15.92,0,0-6.88-60.35-6.02-104.36h0c.08-3.4,.19-6.69,.34-9.82,0,0,100.15,18.77,170.3,6.19,0,0,8.61,51.48,10.36,85.85v.09c.28,5.44,.38,10.44,.25,14.74Z"/>
            <path class="cls-136" d="M410.1,335.74s1.46,63.13,1.88,70.83c.42,7.66,4.25,12.89,10.71,14.99,6.4,2.09,97.46-1.54,112.17-7.27,0,0,5.77-3.83,7.1-11.85,1.34-8.06-5.05-68.35-5.05-68.35l-126.8,1.65Z"/>
            <path class="cls-153" d="M542.76,402.46c-1.28,8.02-6.88,11.84-6.88,11.84-4.95,2-18.41,3.71-34.3,5.02-14.78,1.23-31.74,2.11-45.79,2.54-14.77,.46-26.23,.41-28.28-.28-6.23-2.1-9.91-7.31-10.31-14.95-.15-2.86,.03-13.42,.32-25.65,0-.03,0-.04,0-.04,.49-20.78,1.29-46.38,1.29-46.38l119.06-.41s1.01,9.86,2.13,22.13c.04,.5,.1,1.04,.15,1.66,.27,2.98,.54,6.07,.8,9.18,.01,.05,.01,.09,.01,.13,1.32,15.48,2.42,31.31,1.79,35.21Z"/>
            <path class="cls-87" d="M561.39,347.38h-.01c-.1,.3-1.84,4.96-4.81,6.25,0,0-81.01,9.48-147.09,2.55-5.44-.57-10.78-1.26-15.95-2.06l-3.66-4.12s-.03-7.98-.51-17.72c-.54-11.86-1.74-26.37-4.28-31.98-4.69-10.4-24.23-16.79-27.63-16.64-3.41,.17-4.43,31.86-4.43,31.86,0,0-3.21-1.44-4.58-4.92,0,0,4.43-14.83,2.75-33.03,0,0,2.23,.26,6.31,.65,23.6,2.28,105.59,9.04,176.09,.02,0,0,22.25,8.6,25.42,13.25,3.14,4.62-2.7,33.52,2.37,55.9Z"/>
            <path class="cls-84" d="M561.38,347.39c-.1,.28-1.84,4.94-4.81,6.24,0,0-94.99,11.12-163.05,.48l-3.66-4.12s0-.19,0-.56c-.04-4.83-.48-39.64-4.77-49.14-4.69-10.4-24.23-16.79-27.63-16.64-3.41,.16-4.43,31.85-4.43,31.85,0,0-3.2-1.44-4.57-4.91,0,0,4.43-14.83,2.74-33.03,1.98-.04,4.11,.19,6.31,.65,14.26,2.86,31.53,14.34,31.53,14.34,1.25,3.5,2.22,13.54,2.94,24.01v.11c.92,13.31,1.41,27.24,1.47,29.09v.21c1.49,4.78,7.22,6.64,7.22,6.64,124.97,8.64,159.9-4.92,160.72-5.23Z"/>
            <path class="cls-19" d="M351.36,413.05c.97,6.18,31.68,6.46,33.2,6.03,1.52-.43,1.37-14.28,1.37-14.28,0,0,.1,19.86,8.26,23.44,0,0-20.84-.36-28.79-1.91-8.03-1.57-13.78-7.99-14.04-13.27Z"/>
            <path class="cls-4" d="M380.84,389.38s-3.23-66.02-5.1-78.14c-1.89-12.24-14.65-17.17-18.39-16.58-3.76,.6-5.7,87.22-2.86,96.86,2.82,9.55-1.7-52.35,9.2-60.06,10.84-7.67,17.15,57.92,17.15,57.92Z"/>
            <path class="cls-21" d="M393.68,297.17c1.54-1.62,47.2,6.52,85.71,7.94,50.6,1.87,77.03-13.52,78.72-12.26,1.68,1.26-.83,29.42,.07,48.09,.88,18.42-120.9,14.64-141.79,11.26-21.41-3.47-20.95-3.09-22.42-23.32-1.5-20.53-.28-31.72-.28-31.72Z"/>
            <path class="cls-106" d="M475.48,428.16s3.22-28.5-1.76-55.82c0,0,9.9-7.34,18.99,.63,0,0,10.29,30.94,8.71,57.84,0,0-21.13,.08-25.85,0-4.75-.08-5.99-2.46-5.99-2.46l5.91-.18Z"/>
            <path class="cls-130" d="M469.57,428.34s2.18,2.61,5.99,2.46c3.8-.15,4.53-37.13,1.41-58.48,0,0-.98-1.16-3.25,.02,0,0,4.99,33.11,1.76,55.82l-5.91,.18Z"/>
            <path class="cls-121" d="M475.26,362.32c-1.65-7.2-6.63-10.97-6.99-15.54-.38-4.85,10-23.05,12.66-23.23,.17-.01,3.29-.88,3.51-.76,3.36,1.84,9.76,18.67,10.22,22.9,.47,4.27-2.09,11.92-2.15,19.95-.05,7.21,1.21,21.12,.56,25.03-.6,3.67-5.11,7.51-6.4,7.94-1.28,.42-9.44-3.07-10.18-7.1-.79-4.34,.31-22.45-1.23-29.18Z"/>
            <path class="cls-101" d="M476.83,361.79c-1.57-7.26-3.65-11.66-3.96-16.26-.33-4.88,8.9-22.54,11.57-22.73,2.67-.19,11.6,17.69,12.05,22.23,.42,4.31-2.23,12.02-2.38,20.1-.13,7.26,.97,21.26,.28,25.19-.65,3.69-5.21,7.56-6.5,7.98-1.29,.42-7.69-3.29-8.38-7.35-.74-4.36-1.2-22.39-2.66-29.16Z"/>
            <path class="cls-123" d="M474.97,382.51s2.13-2.26,3.65-2.35c1.52-.09,16.47-.48,17.35,.18,.88,.66,3.31,16.92,3.38,20.31,.08,3.38-6.98,11.06-9.16,11.66-2.19,.6-11.26-6.17-12.27-8.71-1.01-2.55-2.95-21.1-2.95-21.1Z"/>
            <path class="cls-108" d="M474.97,382.51s2.74-2.32,3.65-2.35c.91-.03,1.25,20.06,2.07,22.73,.82,2.66,8.9,8.57,11.26,8.33,0,0-1.19,1.31-2.04,1.3-.86,0-10.39-5.06-11.98-8.58-1.6-3.53-2.96-21.44-2.96-21.44Z"/>
            <path class="cls-11" d="M478.22,404.43c-.03-.97,1.64-1.39,2.23-1.34,.58,.05,3.37,5.26,9.92,8.34,0,0-3.34,1.87-12.14-7.01Z"/>
            <path class="cls-42" d="M480.11,380.2c-1.25,.42,0,14.02,.91,16.74,.91,2.72,16.26,2.42,17.08,1.08,.82-1.34-1.09-16.74-2.13-17.68-1.04-.95-14.61-.56-15.86-.14Z"/>
            <path class="cls-11" d="M481.3,398.22c-1.14,.31-.82,3.71,.16,5.4,.97,1.69,16.85-.59,17.34-1.44,.49-.86,.04-3.46-.29-3.64-.33-.17-2.54,.96-7.8,.99-5.29,.03-9.03-1.41-9.41-1.31Z"/>
            <path class="cls-80" d="M479.19,383.12s.46,18.16,.95,19.99c.49,1.83,8.14,8.33,11.81,8.11,0,0,3.6-2.86,5.58-6.23,0,0-3.99,4.89-5.81,5.37-1.82,.48-9.64-3.87-10.79-7.47-.89-2.77-1.75-19.77-1.75-19.77Z"/>
            <path class="cls-22" d="M442.23,358.36s22.72,1.46,27.79,8.06c5.01,6.54,4.45,55.15,4.45,55.15,0,0-7.85-1.05-9.23-.05-1.38,1,4.24,6.11,6.53,6.83,2.29,.71,3.7-.18,3.7-.18,0,0,3.76-34.31,2.84-48.57-.93-14.42-5.19-31.33-5.66-31.94-.47-.62-2.25-.5-3.56,.23-1.32,.73,3.99,8.59,4.17,10.17,.18,1.58-31.03,.3-31.03,.3Z"/>
            <path class="cls-22" d="M389.86,349.99s3.62-2.82,3.58-4.02c-.04-1.2-2.58-49.79-5.09-52.6-2.52-2.83-22.22-14.86-33.95-15.23,0,0,.55,3.55,2.53,4.58,1.98,1.03,25.16,6.56,27.66,14.75,2.48,8.13,5.26,52.51,5.26,52.51Z"/>
            <path class="cls-22" d="M412.51,410.34s2.28-1.56,3.24-1.03c.96,.53,4.06,11.75,12.44,12.74,8.3,.98,36.53-.22,36.53-.22,0,0-27.27,2.52-38.82,3.68-11.69,1.17-13.39-15.17-13.39-15.17Z"/>
            <path class="cls-13" d="M474.79,344.72c-.38,4.42,7.14,12.89,10.38,15.37,3.22,2.47,9.93-12.69,9.86-15.89-.08-3.21-5.12-17.31-9.97-17.4-4.88-.09-9.74,11.93-10.26,17.91Z"/>
            <path class="cls-23" d="M395.68,296.97c-5.3,2.47,81.09,20.9,111.49,24.94,29.33,3.9,50.92-24.26,51.38-27.34,.46-3.09-14.29,8.6-63.9,9.87-52.4,1.35-98.98-7.47-98.98-7.47Z"/>
            <path class="cls-40" d="M542.76,402.45c-1.28,8.02-6.88,11.84-6.88,11.84-4.95,2-18.41,3.71-34.3,5.02h0s27-2.14,33.07-6.5c9.2-6.62,7.81-22.72,6.32-45.57,1.32,15.48,2.42,31.31,1.79,35.21Z"/>
            <path class="cls-9" d="M490.32,286.49s-4.64,2.41-4.91,3.93c-.28,1.52,20.96,5.61,30.24,6.5,9.19,.89,21.15-4.9,24.44-6.04,3.28-1.14-16.95-11.76-49.77-4.39Z"/>
            <path class="cls-40" d="M388.89,288.81c5.53,2.34,58.72,13.72,88.83,14.41,29.15,.67-.59-12.55-27.77-17.91-28.08-5.54-39.58-.87-85.25-6.43,0,0,15.45,6.24,24.19,9.93Z"/>
            <path class="cls-22" d="M401.38,355.23c3.34,.41,6.97,26.04,10.09,35.61,3.09,9.48,6.7-33.89,6.7-33.89l-16.79-1.71Z"/>
            <path class="cls-22" d="M494.75,358.1s41.88-2.21,43.6-1.66c1.72,.56,2.82,14.29,2.82,14.29,0,0,9.77-2.17,12.88-6.58,3.11-4.41,4.19-11.69,4.19-11.69,0,0-1.1,.98-1.67,1.16-.58,.18-61.83,3.88-61.83,3.88v.59Z"/>
            <path class="cls-23" d="M476.48,430.81s1.88-5.1,3.2-6.97c1.33-1.86,18.8-2.89,20.49-2.94,1.68-.05,1.15,8.55,.63,9.23-.53,.68-24.32,.68-24.32,.68Z"/>
            <path class="cls-132" d="M484.42,253.38c12.12,5.77,5.75,32.71,5.45,35.98-.3,3.25,16.47,5.51,16.47,5.51,0,0,2.97-17.29,1.03-26.85-1.95-9.65-22.95-14.63-22.95-14.63Z"/>
            <path class="cls-22" d="M501.35,426.63s7.94-.55,15.24-3.62c7.26-3.05,11.9-6.85,11.9-6.85,0,0-22.05,2.95-24.22,2.52-2.17-.43-4.08-12.56-4.08-12.56,0,0,1.28,10.47,1.16,20.5Z"/>
            <path class="cls-97" d="M412.27,254.94s5.39-3.56,37.32-5.46c30.93-1.84,55.74,11.91,55.74,11.91,0,0-25.33-4.43-43.95-3.58-18.98,.86-29.11,2.34-29.11,2.34l-20-5.21Z"/>
            <path class="cls-48" d="M430.46,257.38s-16.13-3.11-18.19-2.44c-2.06,.67,3.99,23.87,4.41,26.65,.42,2.78-5.66,.31-6.52,2.37-.86,2.06,20.45,9.02,23.96,7.28,3.51-1.74-3.66-33.87-3.66-33.87Z"/>
            <path class="cls-22" d="M384.68,281.13l-4.84-.39s15.59,9.45,26.14,11.2c10.43,1.73,22.56,2.07,27.16,2.05,4.58-.02,14.85-6.32,14.23-8.57-.62-2.25-62.69-4.29-62.69-4.29Z"/>
            <path class="cls-66" d="M431.69,284.68c4.08-6.9-5.05-21.82-1.23-27.3,3.82-5.47,60.17,.22,71.9,2.77,11.57,2.52,7.26,23.49,7.17,27.26-.1,3.76,5.65,.82,5.65,.82l1.74,5.64s-7.58,1.4-10.58,.99c-3.01-.41,5.5-17.95-1.72-27.92-7.32-10.12-66.02-7.39-69.21-5.61-3.19,1.79,2.28,19.15,1.5,26.22-.77,7.04-9.83,2.25-9.83,2.25,0,0-1.58-6.45-.26-5.52,1.31,.92,4.87,.39,4.87,.39Z"/>
            <g>
              <path class="cls-88" d="M391.55,281.91s4.1-2.55,6.11-3.37c2-.82,17.02,.55,17.02,.55,0,0,11.94,2.15,15.6,5.97,0,0,2.02,3.74,1.78,7.25,0,0-15.71-.94-21.21-1.62-5.54-.68-19.29-8.78-19.29-8.78Z"/>
              <path class="cls-42" d="M399.13,278.86c-3.17,1.28,3.7,3.95,15.24,5.85,11.4,1.87,15.22,.05,15.22,.05,0,0-8.56-4.48-16.05-5.14-7.55-.67-14.41-.76-14.41-.76Z"/>
              <path class="cls-11" d="M410.31,290.22c-2.12-1.07,.95-3.75,4.04-4.66,3.09-.91,8.92,.41,13.25-.29,4.31-.7,3.94,6.57,3.94,6.57,0,0-13.59-.45-21.23-1.62Z"/>
            </g>
            <path class="cls-53" d="M509.61,288.18s1.01,.29,1.95,1.63c.93,1.34,1.2,4.71,1.2,4.71l21.83-2.72s-1.12-5.56-4.31-7.7c-3.2-2.15-9.46-6.1-19.98-5.24l-.69,9.32Z"/>
            <path class="cls-42" d="M510.4,279.3c.17-.73,7.67-.32,13.22,2.56,5.5,2.86-4.41,4.59-8.85,5.29-4.46,.71-4.77,.68-4.77,.68,0,0-.29-5.62,.41-8.54Z"/>
            <path class="cls-11" d="M510.29,288.53s13.49-2.93,17.45-3.04c3.94-.11,6.58,6.17,6.58,6.17l-21.55,2.87s-.48-4.28-2.47-5.99Z"/>
            <path class="cls-42" d="M526.81,283c-1.64,.29-.86,1.55,1.72,1.93,2.57,.37,.07-2.24-1.72-1.93Z"/>
            <path class="cls-42" d="M410.48,284c-.88,.07,1.58,1.94,2.34,1.88,.77-.06,3.63-.65,3.71-.74,.09-.09-4.64-1.26-6.06-1.14Z"/>
            <path class="cls-40" d="M455.8,421.87c-14.77,.46-26.23,.41-28.28-.28-6.23-2.1-9.91-7.31-10.31-14.95-.15-2.86,.03-13.42,.32-25.65,.02,1.15-.61,25.41,3.51,31.88,7.36,11.57,18.85,8.59,34.59,9h.17Z"/>
            <path class="cls-40" d="M436.78,429.48c-15.21,.22-29.69,0-41.59-.98,0,0-7.09-.49-8.43-15.92,0,0-6.87-60.35-6.01-104.36,.09,1.46,6.38,96.28,11.01,107.57,4.62,11.23,22.54,13.53,45.02,13.7Z"/>
            <path class="cls-79" d="M390.39,426.63s-3.36,2.35-6.87-25.41c-3.5-27.76-4.86-101.5-4.86-101.5,0,0-.04,76.95,2.17,100.33,2.52,26.58,9.56,26.58,9.56,26.58Z"/>
            <path class="cls-79" d="M426.89,421.8s-9.73-2.52-11.8-12.59c-2.07-10.07,2.06-46.91,2.06-46.91,0,0-2.43,35.3-.49,46.29,1.93,10.99,10.23,13.22,10.23,13.22Z"/>
            <path class="cls-65" d="M455.77,301.48c-12.5-1.83,21.88-7.17,31.05-2.52,9.17,4.65-7.06,6.02-31.05,2.52Z"/>
            <path class="cls-22" d="M562,405.28c-.15,5.2-.78,16.49-12.18,17.42,0,0-13.98,1.39-34.33,2.93l-1.15-.05s28.52-3.46,38.07-7.35c9.01-3.67,9.32-25.27,9.34-27.68,.28,5.44,.38,10.44,.25,14.74Z"/>
            <path class="cls-124" d="M393.44,345.97s-2.16,3.06-3.59,3.46c-.04-4.83-.48-39.64-4.77-49.14-4.69-10.4-24.23-16.79-27.63-16.64-3.41,.16-4.43,31.85-4.43,31.85,0,0-3.2-1.44-4.57-4.91,0,0,4.43-14.83,2.74-33.03,1.98-.04,4.11,.19,6.31,.65,14.26,2.86,31.53,14.34,31.53,14.34,1.25,3.5,2.22,13.54,2.94,24.01v.11s1.47,29.09,1.47,29.09v.21Z"/>
          </g>
          <g>
            <polygon class="cls-137" points="248.75 254 227.38 288.79 269.84 334.36 298.75 282.31 327.18 320.69 361.56 218.07 373.38 229.56 373.38 172.38 332.49 190.99 346.17 204.42 318.58 261.53 298.01 231.76 270.87 272.69 248.75 254"/>
            <polygon class="cls-111" points="227.38 288.79 208.42 288.79 229.48 255.66 248.75 254 227.38 288.79"/>
            <polygon class="cls-118" points="298.01 231.76 283.37 235.8 262.38 265.52 270.87 272.69 298.01 231.76"/>
            <polygon class="cls-44" points="313.38 254 336.54 208.42 323.98 195.39 332.49 190.99 346.17 204.42 318.58 261.53 313.38 254"/>
            <polygon class="cls-128" points="291.02 296.22 309.23 320.94 327.18 320.69 298.75 282.31 291.02 296.22"/>
            <polygon class="cls-49" points="208.42 288.79 256.01 335.68 269.84 334.36 227.38 288.79 208.42 288.79"/>
            <polygon class="cls-14" points="336.54 208.42 346.17 204.42 332.49 190.99 323.98 195.39 336.54 208.42"/>
            <polygon class="cls-86" points="358.63 226.81 364.42 233.07 373.38 229.56 361.56 218.07 358.63 226.81"/>
            <path class="cls-28" d="M291.02,296.22s6.27-11.48,7.58-11.92c1.31-.44,17,22.8,19.17,26.99,2.17,4.19-3.58,7.49-7.93,6.44-4.35-1.05-18.81-21.51-18.81-21.51Z"/>
            <path class="cls-28" d="M211.04,290.18c.64-.64,12.89-.55,17.07,1.7,4.19,2.25,29.89,30.61,29.89,30.61,0,0,1.53,9.63-6.77,5.85-8.3-3.79-40.19-38.15-40.19-38.15Z"/>
            <path class="cls-28" d="M361.56,218.07s6.08,7.1,7.05,8.71-1.25,4.07-3.52,4.97c-2.28,.91-6.45-4.95-6.45-4.95l2.93-8.74Z"/>
            <path class="cls-104" d="M373.38,176.36c-1.03-3.5-37.34,13.05-38.3,14.64-.97,1.58,12.34,13.16,12.34,13.16l-29.17,61.37s-15.43-29.05-20.24-29.46c-4.81-.41-27.04,39.06-27.04,39.06,0,0-18.63-18.2-22.05-17.01-3.42,1.19-18.01,29.54-17.42,32.64,.58,3.1,27.19,31.64,27.19,31.64l-31.31-33.6,21.38-34.79,22.12,18.69,27.14-40.93,20.57,29.77,27.59-57.11-13.68-13.42,40.88-18.61v3.97Z"/>
            <path class="cls-17" d="M337.75,190.49c-2.21,1.8,8.34,11.81,13.78,17.93,5.44,6.12,19.57-19.5,20.18-26.02,.6-6.53-22.73-1.09-33.96,8.1Z"/>
            <path class="cls-17" d="M304.64,244.75c-12.97-9.4-30.94,28.52-34.8,51.72-3.86,23.2,26.87-16.69,29.27-16.8s15.2,21.44,21.24,26.37c6.04,4.93,21.75-44.68,20.3-56.49s-17.5,15.47-22.4,15.97c-4.91,.5-6.61-15.69-13.61-20.77Z"/>
            <path class="cls-139" d="M332.49,190.99s2.86,2.58,4.19,2.83c1.34,.25,4.01-6.56,4.01-6.56l-8.2,3.73Z"/>
            <path class="cls-139" d="M298.01,231.76s-2.67,4.71-2.5,5.82,6.34,2.01,6.55,1.18c.21-.83-4.05-6.99-4.05-6.99Z"/>
            <path class="cls-139" d="M248.75,254s-1.92,4.12-1.91,5.12c0,1.01,6.26,1.3,6.35,0,.09-1.3-4.44-5.12-4.44-5.12Z"/>
            <path class="cls-104" d="M208.42,288.79s19.74-29.72,23.12-31.22c3.38-1.5,17.22-3.57,17.22-3.57l-19.27,1.66-21.06,33.13Z"/>
            <path class="cls-104" d="M262.38,265.52s20.69-27.71,21.96-29.02c1.27-1.31,13.67-4.74,13.67-4.74l-14.63,4.04-20.99,29.72Z"/>
          </g>
          <polygon class="cls-22" points="253.81 457.48 222.38 500.08 445.97 504.38 406.06 447.22 253.81 457.48"/>
          <polygon class="cls-58" points="253.81 455.85 222.38 498.45 445.97 502.75 406.06 445.59 253.81 455.85"/>
          <polygon class="cls-22" points="114.77 461.54 178.25 437.2 318.33 437.78 275.18 476.18 114.77 461.54"/>
          <polygon class="cls-85" points="114.77 460.58 178.25 436.24 318.33 436.82 275.65 474.81 114.77 460.58"/>
          <ellipse class="cls-64" cx="314.09" cy="369.36" rx="116.75" ry="93.9"/>
          <path class="cls-22" d="M327.64,478.66c-3.69,.44,83.46,12.73,158.29,5.96,36.5-3.3,38.23-9.28,39.12-12.46,.89-3.18-94.8-5.85-197.42,6.5Z"/>
          <g>
            <path class="cls-134" d="M508.81,469.2s-21.33,10.73-46.87,2.52c0,0-4.29,.42-3.86,7.99l7.27-4.43s21.76,8.52,44.45,.64c0,0-.2-3.46-.98-6.71Z"/>
            <path class="cls-45" d="M419.23,477.18c44.06-3.65,100.91-16.91,100.91-16.91l-.48-6.57s-58.18-4.81-102.3-1.99c-44.12,2.83-81.44,16.53-81.44,16.53l.16,2.24,.16,2.24s38.92,8.1,82.98,4.45Z"/>
            <path class="cls-46" d="M335.97,468.96s-5.98,1.21-6.1,1.98c-.12,.78,6.34,1.22,6.34,1.22l-.24-3.21Z"/>
            <path class="cls-119" d="M403.53,452.96s2.85,7.83,3.09,24.97l4.9-.17s2.03-8.95-2.53-25.2l-5.46,.4Z"/>
            <path class="cls-148" d="M496.22,452.18s1.9,2.05,1.97,12.82l9.07-1.88s2.45,8.44,2.31,11.44c0,0-17.05,10.31-46.87-.55,0,0-5.09,0-4.62,5.71,0,0,.49,2.27,2.81,2.44s-.64-3.87,2.31-4.89c2.95-1.02,24.56,9.48,48.56-.11l-1.8-14.62,4.44-.97s1.15-3.75-.61-8.31l-17.57-1.08Z"/>
            <path class="cls-42" d="M513.48,453.51c.48,.19,1.51,3.28,.66,3.89-.85,.61-15.02,.44-15.74,.08-.72-.36-1.29-4.16-1.51-4.8-.22-.64,16.58,.83,16.58,.83Z"/>
            <path class="cls-42" d="M408.62,452.92c.87,.59,1.85,6.96,1.91,7.88,.07,.92-4.54,1.25-4.79,.7-.25-.56-1.56-7.56-1.85-8.23s4.72-.35,4.72-.35Z"/>
            <path class="cls-11" d="M410.89,462c-.22-.53-4.91,.17-5.05,.37s.3,4.51,.52,5.03c.22,.52,5.12,.2,5.25-.08,.13-.28-.3-4.31-.72-5.32Z"/>
            <path class="cls-11" d="M514.58,457.91c-.01-.54-16.16-.12-16.48-.06-.31,.07,.32,3.97,.31,4.24s14.98-1.37,15.51-1.71c.54-.35,.65-2.47,.65-2.47Z"/>
            <path class="cls-43" d="M508.54,478.32c1.51-2.81-13.89,1.11-23.88,.79-9.98-.32,11.68,4.49,23.88-.79Z"/>
            <path class="cls-11" d="M508.81,469.2s-2.94,2.01-16.21,4.75c-13.26,2.74,2.93,4.82,8.27,3.72,5.34-1.11,8.7-3.12,8.7-3.12,0,0-.2-2.96-.76-5.35Z"/>
            <path class="cls-42" d="M461.58,477.58c.13-1.22-2.49,.01-2.89,1.51s1.45,2.44,2.18,2.44,.71-3.94,.71-3.94Z"/>
            <path class="cls-36" d="M403.61,455.62s-41.48,2.85-50.19,10.3c-8.71,7.45,51.67,3.79,51.67,3.79,0,0,.26-6.77-1.48-14.09Z"/>
            <path class="cls-47" d="M410.86,455.09s79.23-3.22,83.85,.94c2,1.8-82.75,6.85-82.75,6.85,0,0,.29-2.2-1.1-7.79Z"/>
            <path class="cls-113" d="M403.07,453.71s3.38,11.95,2.5,22.49c0,0-.64-12.33-2.5-22.49Z"/>
            <path class="cls-113" d="M496.11,452.94s1.87,2.04,1.62,11.19c0,0-.09-5.66-1.62-11.19Z"/>
            <path class="cls-40" d="M486.85,467.23c3.22-.64-62.67,.46-75.34,10.52,0,0,39.23-3.34,75.34-10.52Z"/>
            <path class="cls-40" d="M402.49,478.05s-43.9-5.65-61.83-4.51c0,0,22.66,4.78,61.83,4.51Z"/>
            <path class="cls-42" d="M396.49,459.6c-.66-1.99-9.35-.69-9.99,.73-.64,1.43,10.59,1.06,9.99-.73Z"/>
            <path class="cls-42" d="M484.27,454.97c-.04-.56-4.19-1.23-5.01-.1-.83,1.13,5.13,1.63,5.01,.1Z"/>
            <path class="cls-15" d="M408.99,452.56s6.84,11.99,2.53,25.2c0,0,1.93-12.78-2.53-25.2Z"/>
          </g>
          <g>
            <path class="cls-42" d="M551.17,113.43s-.62-2.24-1.82-5.69l.71-.25c1.2,3.47,1.82,5.72,1.83,5.74l-.72,.2Z"/>
            <path class="cls-42" d="M456.76,167.84l-.74-.09c.52-4.16,1.11-8.37,1.77-12.52l.74,.12c-.66,4.14-1.25,8.35-1.77,12.49Zm3.18-20.78l-.74-.13c.77-4.21,1.6-8.38,2.49-12.39l.73,.16c-.89,4-1.73,8.16-2.49,12.36Zm4.43-20.53l-.73-.18c1.07-4.23,2.22-8.32,3.42-12.17l.72,.22c-1.19,3.83-2.34,7.91-3.41,12.13Zm6.07-20.09l-.7-.25c1.51-4.18,3.11-8.12,4.77-11.71l.68,.31c-1.65,3.57-3.25,7.49-4.75,11.65Zm75.94-6.53c-1.67-4.04-3.48-7.86-5.38-11.36l.66-.36c1.91,3.52,3.73,7.37,5.41,11.43l-.69,.29Zm-67.4-12.59l-.65-.37c2.23-3.97,4.6-7.5,7.05-10.51l.58,.47c-2.43,2.97-4.77,6.47-6.98,10.4Zm57.72-5.95c-2.54-3.8-5.2-7.06-7.92-9.68l.52-.54c2.76,2.66,5.45,5.96,8.02,9.8l-.62,.42Zm-44.97-10.45l-.49-.57c3.43-2.97,7.09-5.13,10.88-6.42l.24,.71c-3.7,1.26-7.27,3.38-10.63,6.28Zm30.49-4.3c-3.8-2.24-7.76-3.38-11.76-3.39v-.75c4.14,0,8.23,1.18,12.15,3.49l-.38,.65Z"/>
            <path class="cls-42" d="M455.28,182.12l-.75-.03s0-2.21-.08-5.98l.62-.02s0,0,0,0h.08s.05,0,.05,0h0s.61,.07,.61,.07c-.38,3.73-.53,5.94-.53,5.96Z"/>
            <path class="cls-42" d="M454.17,168.19c-.18-3.94-.41-7.94-.7-11.9l.75-.05c.29,3.97,.53,7.98,.71,11.92l-.75,.03Zm-1.35-19.82c-.37-4-.79-7.99-1.25-11.84l.74-.09c.47,3.86,.89,7.86,1.25,11.87l-.75,.07Zm-2.29-19.72c-.57-4.02-1.21-7.97-1.88-11.76l.74-.13c.68,3.79,1.31,7.75,1.89,11.78l-.74,.11Zm-127.28-16.9l-.72-.22c1.19-3.81,2.48-7.61,3.85-11.3l.7,.26c-1.36,3.68-2.65,7.47-3.84,11.27Zm123.9-2.65c-.83-3.99-1.73-7.89-2.68-11.59l.73-.19c.95,3.71,1.86,7.62,2.69,11.63l-.73,.15Zm-117.17-16.01l-.69-.29c1.56-3.77,3.2-7.43,4.89-10.89l.67,.33c-1.69,3.45-3.33,7.1-4.88,10.85Zm112.38-3.23c-1.18-3.94-2.45-7.74-3.78-11.27l.7-.26c1.34,3.55,2.61,7.36,3.79,11.32l-.72,.21Zm-103.85-14.65l-.66-.36c2-3.61,4.09-7.05,6.22-10.2l.62,.42c-2.12,3.13-4.2,6.55-6.18,10.14Zm97.07-3.95c-1.7-3.81-3.52-7.36-5.42-10.55l.64-.38c1.91,3.22,3.75,6.79,5.46,10.63l-.69,.31Zm-86.22-12.58l-.59-.47c2.59-3.27,5.3-6.25,8.04-8.84l.52,.54c-2.72,2.57-5.4,5.52-7.97,8.77Zm76.44-4.54c-2.5-3.35-5.18-6.28-7.96-8.69l.49-.57c2.83,2.45,5.54,5.42,8.07,8.81l-.6,.45Zm-62.43-9.29l-.44-.6c3.35-2.46,6.83-4.47,10.36-5.97l.29,.69c-3.47,1.47-6.91,3.45-10.21,5.88Zm48.11-3.98c-2.68-1.55-5.52-2.75-8.43-3.54-.84-.23-1.69-.44-2.52-.62l.16-.73c.84,.19,1.7,.4,2.55,.63,2.97,.81,5.86,2.03,8.6,3.62l-.37,.65Zm-30.44-4.31l-.16-.73c3.86-.87,7.85-1.19,11.91-.97l-.04,.75c-3.99-.22-7.91,.1-11.7,.95Z"/>
            <path class="cls-42" d="M319.58,125.1l-.73-.16s.49-2.21,1.47-5.83l.72,.2c-.98,3.6-1.46,5.77-1.47,5.79Z"/>
          </g>
          <path class="cls-22" d="M356.09,421.5s6.27,4.87,13.03,4.67c0,0-4.07-5.77-3.94-17.9,.19-17.85,5.29-34.65,5.02-37.54-.5-5.4-11.61-5.09-11.61-5.09,0,0-4.67,51.01-2.5,55.85Z"/>
          <g>
            <path class="cls-70" d="M356.14,359.8s-6.31,34.9-8.1,70l-56.19-1.13s-.74-39.23-3.33-66.58l67.62-2.29Z"/>
            <path class="cls-83" d="M356.14,359.8l8.39,3.85s-7.74,33.53-8.85,66.16h-7.64s-.58-38.42,8.1-70Z"/>
            <path class="cls-18" d="M364.53,363.65s-6.59,22.75-8.27,42.44c-1.7,19.98-5.77,11.41-6.86,2.17-1.08-9.15,6.74-48.45,6.74-48.45l8.39,3.85Z"/>
            <path class="cls-20" d="M347.9,360.24s-9.93,35.71-7.08,67.07c0,0-38.24,1.25-48.99-1.21l-3.32-64s58.11-1.65,59.38-1.85Z"/>
            <path class="cls-127" d="M345.74,351.17s-6.1,30.84-6.7,71.6l-52.53-1.08s-3.84-37.95-2.54-65.46c0,0,31.63-5.2,61.76-5.05Z"/>
          </g>
        </g>
      </g>
    </g>
  </g>
</svg>