<?xml version="1.0" encoding="UTF-8"?>
<svg xmlns="http://www.w3.org/2000/svg" viewBox="0 0 443.46 460.13">
  <defs>
    <style>
      .cls-1 {
        fill: #fff;
      }

      .cls-2 {
        opacity: .6;
      }

      .cls-3 {
        fill: #f5f5f5;
      }

      .cls-4 {
        fill: #455a64;
      }

      .cls-5 {
        fill: #e0e0e0;
      }

      .cls-6 {
        fill: #ff725e;
      }

      .cls-7 {
        fill: #eb996e;
      }

      .cls-8 {
        opacity: .3;
      }

      .cls-9 {
        fill: #ffbe9d;
      }

      .cls-10 {
        fill: #ff9210;
      }

      .cls-11 {
        fill: #263238;
      }
    </style>
  </defs>
  <g id="Floor">
    <path class="cls-11" d="M421.33,436.46c0,.14-92.3,.26-206.13,.26s-206.15-.12-206.15-.26,92.28-.26,206.15-.26,206.13,.12,206.13,.26Z"/>
  </g>
  <g id="Tax">
    <g>
      <g>
        <g>
          <polyline class="cls-1" points="279.14 425.6 96.01 425.6 96.01 74.56 341.23 74.56 341.23 362.83"/>
          <path class="cls-11" d="M341.23,362.83s-.01-.45-.02-1.35c0-.9-.01-2.23-.02-3.99,0-3.52-.02-8.74-.04-15.54-.01-13.6-.04-33.53-.06-58.82-.02-50.59-.06-122.66-.09-208.57l.23,.23c-72.45,0-156.3,.02-245.22,.03l.26-.26v.31c-.02,134.95-.05,258.18-.06,350.73l-.2-.2c56.41,.04,102.19,.07,133.88,.09,15.84,.02,28.15,.04,36.51,.05,4.17,.01,7.36,.02,9.51,.03,2.14,0,3.24,.03,3.24,.03,0,0-1.1,.02-3.24,.03-2.15,0-5.33,.02-9.51,.03-8.36,.01-20.67,.03-36.51,.05-31.68,.02-77.46,.05-133.88,.09h-.2s0-.2,0-.2c-.02-92.55-.04-215.78-.06-350.73v-.57h.26c88.93,.01,172.77,.02,245.22,.03h.23v.23c-.04,85.92-.07,157.98-.09,208.57-.03,25.29-.05,45.21-.06,58.82-.02,6.8-.03,12.01-.04,15.54,0,1.76-.01,3.09-.02,3.99,0,.89-.02,1.35-.02,1.35Z"/>
        </g>
        <rect class="cls-6" x="111.51" y="96.34" width="107.11" height="57.74"/>
        <path class="cls-11" d="M321.7,109.67c0,.14-19.26,.26-43.01,.26s-43.01-.12-43.01-.26,19.25-.26,43.01-.26,43.01,.12,43.01,.26Z"/>
        <path class="cls-11" d="M321.7,120.03c0,.14-19.26,.26-43.01,.26s-43.01-.12-43.01-.26,19.25-.26,43.01-.26,43.01,.12,43.01,.26Z"/>
        <path class="cls-11" d="M321.7,130.38c0,.14-19.26,.26-43.01,.26s-43.01-.12-43.01-.26,19.25-.26,43.01-.26,43.01,.12,43.01,.26Z"/>
        <path class="cls-11" d="M287.47,140.74c0,.14-11.59,.26-25.89,.26s-25.9-.12-25.9-.26,11.59-.26,25.9-.26,25.89,.12,25.89,.26Z"/>
        <path class="cls-11" d="M324.98,165.76c0,.14-47.52,.26-106.14,.26s-106.15-.12-106.15-.26,47.51-.26,106.15-.26,106.14,.12,106.14,.26Z"/>
        <path class="cls-11" d="M324.98,172.14c0,.14-47.01,.26-104.98,.26s-104.99-.12-104.99-.26,47-.26,104.99-.26,104.98,.12,104.98,.26Z"/>
        <rect class="cls-5" x="112.7" y="182.43" width="212.28" height="12.32"/>
        <rect class="cls-5" x="110.41" y="295.34" width="212.28" height="12.32"/>
        <rect class="cls-5" x="112.7" y="234.67" width="84.66" height="12.32"/>
        <rect class="cls-5" x="216.85" y="234.67" width="105.85" height="12.32"/>
        <path class="cls-11" d="M235.35,205.63c0,.14-27.24,.26-60.84,.26s-60.85-.12-60.85-.26,27.24-.26,60.85-.26,60.84,.12,60.84,.26Z"/>
        <path class="cls-11" d="M323.8,215.32c0,.14-47.09,.26-105.17,.26s-105.18-.12-105.18-.26,47.08-.26,105.18-.26,105.17,.12,105.17,.26Z"/>
        <path class="cls-11" d="M323.8,224.51c0,.14-47.09,.26-105.17,.26s-105.18-.12-105.18-.26,47.08-.26,105.18-.26,105.17,.12,105.17,.26Z"/>
        <path class="cls-11" d="M196.62,254.5c0,.14-18.94,.26-42.3,.26s-42.3-.12-42.3-.26,18.93-.26,42.3-.26,42.3,.12,42.3,.26Z"/>
        <path class="cls-11" d="M196.62,263.96c0,.14-18.62,.26-41.59,.26s-41.6-.12-41.6-.26,18.62-.26,41.6-.26,41.59,.12,41.59,.26Z"/>
        <path class="cls-11" d="M196.28,273.58c0,.14-18.78,.26-41.95,.26s-41.95-.12-41.95-.26,18.78-.26,41.95-.26,41.95,.12,41.95,.26Z"/>
        <path class="cls-11" d="M196.28,282.92c0,.14-18.78,.26-41.95,.26s-41.95-.12-41.95-.26,18.78-.26,41.95-.26,41.95,.12,41.95,.26Z"/>
        <g>
          <path class="cls-11" d="M321.07,256.72c0,.14-19.62,.26-43.81,.26s-43.81-.12-43.81-.26,19.61-.26,43.81-.26,43.81,.12,43.81,.26Z"/>
          <path class="cls-11" d="M226.72,259.74s-.07-.67-.11-1.73c-.04-1.06-.09-2.54-.11-4.3l.23,.23c-1.79,.01-3.84,.02-6.03,.04-.06,.06,.49-.49,.26-.26h0v.21s0,.21,0,.21v.41c0,.27,0,.54,0,.81,0,.53,0,1.05,0,1.56,0,1-.02,1.96-.03,2.85l-.23-.23c1.76,.02,3.24,.07,4.3,.11,1.06,.04,1.7,.08,1.73,.11,.03,.03-.54,.07-1.59,.11-1.05,.04-2.59,.09-4.45,.11h-.22s0-.23,0-.23c0-.89-.02-1.84-.03-2.85,0-.51,0-1.03,0-1.56,0-.27,0-.54,0-.81v-.41s0-.21,0-.21v-.18h0v-.02h0c-.23,.23,.32-.32,.26-.27,2.19,.01,4.24,.02,6.03,.04h.23s0,.23,0,.23c-.02,1.86-.07,3.4-.11,4.45-.04,1.05-.08,1.62-.11,1.59Z"/>
        </g>
        <g>
          <path class="cls-11" d="M321.07,268.31c0,.14-19.62,.26-43.81,.26s-43.81-.12-43.81-.26,19.61-.26,43.81-.26,43.81,.12,43.81,.26Z"/>
          <path class="cls-11" d="M226.72,271.33s-.07-.67-.11-1.73c-.04-1.06-.09-2.54-.11-4.3l.23,.23c-1.79,.01-3.84,.02-6.03,.04-.06,.06,.49-.49,.26-.26h0v.21s0,.21,0,.21v.41c0,.27,0,.54,0,.81,0,.53,0,1.05,0,1.56,0,1-.02,1.96-.03,2.85l-.23-.23c1.76,.02,3.24,.07,4.3,.11,1.06,.04,1.7,.08,1.73,.11,.03,.03-.54,.07-1.59,.11-1.05,.04-2.59,.09-4.45,.11h-.22s0-.23,0-.23c0-.89-.02-1.84-.03-2.85,0-.51,0-1.03,0-1.56,0-.27,0-.54,0-.81v-.41s0-.21,0-.21v-.18h0v-.02h0c-.23,.23,.32-.32,.26-.27,2.19,.01,4.24,.02,6.03,.04h.23s0,.23,0,.23c-.02,1.86-.07,3.4-.11,4.45-.04,1.05-.08,1.62-.11,1.59Z"/>
        </g>
        <g>
          <path class="cls-11" d="M321.07,279.9c0,.14-19.62,.26-43.81,.26s-43.81-.12-43.81-.26,19.61-.26,43.81-.26,43.81,.12,43.81,.26Z"/>
          <path class="cls-11" d="M226.72,282.92s-.07-.67-.11-1.73c-.04-1.06-.09-2.54-.11-4.3l.23,.23c-1.79,.01-3.84,.02-6.03,.04-.06,.06,.49-.49,.26-.26h0v.21s0,.21,0,.21v.41c0,.27,0,.54,0,.81,0,.53,0,1.05,0,1.56,0,1-.02,1.96-.03,2.85l-.23-.23c1.76,.02,3.24,.07,4.3,.11,1.06,.04,1.7,.08,1.73,.11,.03,.03-.54,.07-1.59,.11-1.05,.04-2.59,.09-4.45,.11h-.22s0-.23,0-.23c0-.89-.02-1.84-.03-2.85,0-.51,0-1.03,0-1.56,0-.27,0-.54,0-.81v-.41s0-.21,0-.21v-.18h0v-.02h0c-.23,.23,.32-.32,.26-.27,2.19,.01,4.24,.02,6.03,.04h.23s0,.23,0,.23c-.02,1.86-.07,3.4-.11,4.45-.04,1.05-.08,1.62-.11,1.59Z"/>
        </g>
        <g>
          <path class="cls-11" d="M321.07,375.72s-.01-.34-.02-.99c0-.66,0-1.62-.02-2.88,0-2.54-.02-6.3-.04-11.18-.02-9.75-.05-24-.09-42.01l.16,.16c-47.85,.02-123.75,.06-209.01,.1h-.01l.26-.26c0,19.63,0,38.77,0,57.06l-.25-.25c59.77,.05,111.99,.09,149.28,.12,18.66,.03,33.58,.06,43.85,.07,5.13,.01,9.1,.03,11.79,.03,1.34,0,2.36,.01,3.06,.02,.69,0,1.05,.02,1.05,.02,0,0-.34,.01-1.02,.02-.69,0-1.7,0-3.03,.02-2.68,0-6.63,.02-11.74,.03-10.25,.02-25.15,.04-43.79,.07-37.33,.03-89.62,.07-149.46,.12h-.25s0-.25,0-.25c0-18.29,0-37.43,0-57.06v-.26s.26,0,.26,0h.01c85.26,.04,161.16,.08,209.01,.1h.16s0,.16,0,.16c-.04,18.05-.07,32.33-.09,42.11-.02,4.86-.03,8.61-.04,11.14,0,1.25-.01,2.21-.02,2.86,0,.64-.02,.96-.02,.96Z"/>
          <path class="cls-11" d="M321.07,333.01c0,.14-46.66,.26-104.22,.26s-104.23-.12-104.23-.26,46.66-.26,104.23-.26,104.22,.12,104.22,.26Z"/>
          <path class="cls-11" d="M321.07,347.19c0,.14-46.66,.26-104.22,.26s-104.23-.12-104.23-.26,46.66-.26,104.23-.26,104.22,.12,104.22,.26Z"/>
          <path class="cls-11" d="M321.07,361.51c0,.14-46.66,.26-104.22,.26s-104.23-.12-104.23-.26,46.66-.26,104.23-.26,104.22,.12,104.22,.26Z"/>
          <path class="cls-11" d="M136.34,376.22c-.14,0-.26-12.91-.26-28.83s.12-28.83,.26-28.83,.26,12.9,.26,28.83-.12,28.83-.26,28.83Z"/>
          <path class="cls-11" d="M207.02,374.48c-.14,0-.26-12.33-.26-27.53s.12-27.53,.26-27.53,.26,12.32,.26,27.53-.12,27.53-.26,27.53Z"/>
          <path class="cls-11" d="M281.5,377.08c-.14,0-.26-12.71-.26-28.39s.12-28.4,.26-28.4,.26,12.71,.26,28.4-.12,28.39-.26,28.39Z"/>
        </g>
        <g>
          <polygon class="cls-5" points="279.14 425.6 341.23 362.83 279.14 362.83 279.14 425.6"/>
          <path class="cls-11" d="M279.14,425.6c0-2.1-.1-25.95-.24-62.77v-.24s.24,0,.24,0c13.28,0,28.15-.01,43.8-.02,6.27,0,12.4,0,18.29,0h.62s-.43,.44-.43,.44c-17.72,17.83-33.31,33.51-44.48,44.76-10.93,10.96-16.91,16.94-17.8,17.83,.89-.91,6.87-7.01,17.82-18.17,11.07-11.25,26.52-26.94,44.09-44.78l.18,.44c-5.89,0-12.02,0-18.29,0-15.66,0-30.52-.02-43.8-.02l.24-.24c-.14,36.82-.23,60.67-.24,62.77Z"/>
        </g>
        <path class="cls-11" d="M276.07,388.51c0,.14-36.5,.26-81.51,.26s-81.52-.12-81.52-.26,36.49-.26,81.52-.26,81.51,.12,81.51,.26Z"/>
        <path class="cls-11" d="M276.07,396.76c0,.14-36.5,.26-81.51,.26s-81.52-.12-81.52-.26,36.49-.26,81.52-.26,81.51,.12,81.51,.26Z"/>
        <path class="cls-11" d="M187.22,405c0,.14-16.61,.26-37.09,.26s-37.1-.12-37.1-.26,16.61-.26,37.1-.26,37.09,.12,37.09,.26Z"/>
        <g>
          <path class="cls-1" d="M136.1,116.91h-9.37v-4.44h23.99v4.44h-9.37v23.83h-5.25v-23.83Z"/>
          <path class="cls-1" d="M171.6,134.2h-14.14l-2.79,6.54h-5.41l12.72-28.27h5.17l12.76,28.27h-5.49l-2.83-6.54Zm-1.74-4.12l-5.33-12.36-5.29,12.36h10.62Z"/>
          <path class="cls-1" d="M199.91,140.74l-7.67-10.74-7.59,10.74h-5.98l10.5-14.42-9.94-13.85h5.94l7.23,10.06,7.15-10.06h5.69l-9.9,13.65,10.62,14.62h-6.06Z"/>
        </g>
        <path class="cls-5" d="M326.93,86.79c0,.14-48.21,.26-107.67,.26s-107.68-.12-107.68-.26,48.2-.26,107.68-.26,107.67,.12,107.67,.26Z"/>
        <path class="cls-5" d="M220,90.7c0,.14-24.27,.26-54.2,.26s-54.21-.12-54.21-.26,24.27-.26,54.21-.26,54.2,.12,54.2,.26Z"/>
      </g>
      <g>
        <g>
          <rect class="cls-5" x="83.38" y="53.95" width="269.24" height="382.15" rx="10.88" ry="10.88"/>
          <path class="cls-11" d="M341.75,436.1s.28-.02,.83-.06c.55-.04,1.37-.16,2.42-.47,1.04-.34,2.29-.91,3.56-1.93,1.24-1.02,2.5-2.51,3.26-4.5,.4-.98,.63-2.1,.71-3.29,.06-1.19,.01-2.45,.03-3.77,0-2.64,0-5.53-.01-8.65,0-6.25-.01-13.47-.02-21.59-.02-32.49-.05-79.51-.08-137.6,0-29.05-.02-60.86-.03-95.02,0-17.08,0-34.74-.01-52.93,0-9.1,0-18.33,0-27.68,0-4.68-.01-9.38-.02-14.12-.05-2.32-.94-4.6-2.4-6.42-1.5-1.79-3.57-3.11-5.87-3.62-1.15-.26-2.32-.28-3.53-.27-1.2,0-2.41,0-3.62,0-2.41,0-4.84,0-7.27,0-4.86,0-9.75,0-14.66,0-9.83,0-19.78,0-29.83,0-20.1,0-40.63,0-61.52,0-41.79,0-85.06,0-129.38,0-2.71,0-5.39,1.06-7.34,2.93-1.96,1.85-3.16,4.47-3.28,7.16-.05,5.48-.01,10.99-.03,16.46,0,10.94,0,21.82,0,32.61,0,21.59,0,42.86,0,63.76,0,41.8-.01,82.12-.02,120.53,0,38.41-.02,74.91-.02,109.07,0,4.27,0,8.5,0,12.7,0,2.09-.02,4.2,.02,6.26,.07,2.04,.77,4.03,1.93,5.68,1.16,1.66,2.8,2.95,4.65,3.72,.93,.38,1.9,.62,2.89,.74,.99,.09,2,.07,3.01,.07,4.04,0,8.05,0,12.01,0,15.85,0,31.07,.01,45.59,.02,58.09,.03,105.1,.06,137.59,.08,16.24,.02,28.85,.04,37.41,.05,4.27,.01,7.53,.02,9.73,.03,2.19,0,3.31,.03,3.31,.03,0,0-1.12,.02-3.31,.03-2.2,0-5.45,.01-9.73,.03-8.56,.01-21.17,.03-37.41,.05-32.49,.02-79.5,.05-137.59,.08-14.52,0-29.74,.01-45.59,.02-3.96,0-7.97,0-12.01,0-1.01,0-2.02,.02-3.06-.07-1.03-.13-2.04-.38-3.01-.77-1.92-.8-3.62-2.14-4.83-3.86-1.21-1.71-1.94-3.79-2.01-5.91-.05-2.1-.01-4.17-.03-6.27,0-4.2,0-8.43,0-12.7,0-34.16-.02-70.66-.02-109.07,0-38.41,0-78.73-.02-120.53,0-20.9,0-42.17,0-63.76,0-10.79,0-21.67,0-32.61,.01-5.48-.03-10.95,.03-16.48,.12-2.82,1.38-5.57,3.44-7.51,2.04-1.96,4.86-3.09,7.7-3.07,44.32,0,87.59,0,129.38,0,20.9,0,41.42,0,61.52,0,10.05,0,20,0,29.83,0,4.92,0,9.8,0,14.66,0,2.43,0,4.85,0,7.27,0,1.21,0,2.41,0,3.62,0,1.19-.01,2.44,0,3.64,.28,2.4,.53,4.57,1.91,6.13,3.78,1.53,1.89,2.46,4.28,2.51,6.7,0,4.74,0,9.45,.01,14.13,0,9.36,0,18.59,0,27.68,0,18.19,0,35.86-.01,52.93-.01,34.16-.02,65.97-.03,95.02-.03,58.09-.06,105.1-.08,137.6,0,8.12-.02,15.34-.02,21.59,0,3.13,0,6.01-.01,8.65-.02,1.32,.03,2.57-.04,3.78-.08,1.2-.31,2.33-.73,3.32-.79,2.01-2.05,3.5-3.31,4.52-1.28,1.02-2.55,1.59-3.59,1.92-1.06,.3-1.88,.42-2.44,.45-.55,.02-.84,.03-.84,.03Z"/>
        </g>
        <g class="cls-8">
          <polygon points="106.87 427.46 287.01 427.46 330.36 380.46 330.36 355.45 106.87 390.37 106.87 427.46"/>
        </g>
        <g class="cls-8">
          <polygon points="285.94 54.73 291.08 69.96 291.08 77.42 285.29 77.42 285.94 54.73"/>
        </g>
        <g>
          <g>
            <polyline class="cls-1" points="278.52 420.3 95.39 420.3 95.39 69.26 340.62 69.26 340.62 357.53"/>
            <path class="cls-11" d="M340.62,357.53s-.01-.45-.02-1.35c0-.9-.01-2.23-.02-3.99,0-3.52-.02-8.74-.04-15.54-.01-13.6-.04-33.53-.06-58.82-.02-50.59-.06-122.66-.09-208.57l.23,.23c-72.45,0-156.3,.02-245.22,.03l.26-.26v.31c-.02,134.95-.05,258.18-.06,350.73l-.2-.2c56.41,.04,102.19,.07,133.88,.09,15.84,.02,28.15,.04,36.51,.05,4.17,.01,7.36,.02,9.51,.03,2.14,0,3.24,.03,3.24,.03,0,0-1.1,.02-3.24,.03-2.15,0-5.33,.02-9.51,.03-8.36,.01-20.67,.03-36.51,.05-31.68,.02-77.46,.05-133.88,.09h-.2s0-.2,0-.2c-.02-92.55-.04-215.78-.06-350.73v-.57h.26c88.93,.01,172.77,.02,245.22,.03h.23s0,.23,0,.23c-.04,85.92-.07,157.98-.09,208.57-.03,25.29-.05,45.21-.06,58.82-.02,6.8-.03,12.01-.04,15.54,0,1.76-.01,3.09-.02,3.99,0,.89-.02,1.35-.02,1.35Z"/>
          </g>
          <rect class="cls-10" x="110.9" y="91.04" width="107.11" height="57.74"/>
          <path class="cls-11" d="M321.08,104.37c0,.14-19.26,.26-43.01,.26s-43.01-.12-43.01-.26,19.25-.26,43.01-.26,43.01,.12,43.01,.26Z"/>
          <path class="cls-11" d="M321.08,114.73c0,.14-19.26,.26-43.01,.26s-43.01-.12-43.01-.26,19.25-.26,43.01-.26,43.01,.12,43.01,.26Z"/>
          <path class="cls-11" d="M321.08,125.08c0,.14-19.26,.26-43.01,.26s-43.01-.12-43.01-.26,19.25-.26,43.01-.26,43.01,.12,43.01,.26Z"/>
          <path class="cls-11" d="M286.86,135.44c0,.14-11.59,.26-25.89,.26s-25.9-.12-25.9-.26,11.59-.26,25.9-.26,25.89,.12,25.89,.26Z"/>
          <path class="cls-11" d="M324.37,160.46c0,.14-47.52,.26-106.14,.26s-106.15-.12-106.15-.26,47.51-.26,106.15-.26,106.14,.12,106.14,.26Z"/>
          <path class="cls-11" d="M324.37,166.84c0,.14-47.01,.26-104.98,.26s-104.99-.12-104.99-.26,47-.26,104.99-.26,104.98,.12,104.98,.26Z"/>
          <rect class="cls-5" x="112.08" y="177.13" width="212.28" height="12.32"/>
          <rect class="cls-5" x="109.8" y="290.04" width="212.28" height="12.32"/>
          <rect class="cls-5" x="112.08" y="229.37" width="84.66" height="12.32"/>
          <rect class="cls-5" x="216.23" y="229.37" width="105.85" height="12.32"/>
          <path class="cls-11" d="M234.74,200.33c0,.14-27.24,.26-60.84,.26s-60.85-.12-60.85-.26,27.24-.26,60.85-.26,60.84,.12,60.84,.26Z"/>
          <path class="cls-11" d="M323.18,210.02c0,.14-47.09,.26-105.17,.26s-105.18-.12-105.18-.26,47.08-.26,105.18-.26,105.17,.12,105.17,.26Z"/>
          <path class="cls-11" d="M323.18,219.21c0,.14-47.09,.26-105.17,.26s-105.18-.12-105.18-.26,47.08-.26,105.18-.26,105.17,.12,105.17,.26Z"/>
          <path class="cls-11" d="M196.01,249.2c0,.14-18.94,.26-42.3,.26s-42.3-.12-42.3-.26,18.93-.26,42.3-.26,42.3,.12,42.3,.26Z"/>
          <path class="cls-11" d="M196.01,258.66c0,.14-18.62,.26-41.59,.26s-41.6-.12-41.6-.26,18.62-.26,41.6-.26,41.59,.12,41.59,.26Z"/>
          <path class="cls-11" d="M195.66,268.28c0,.14-18.78,.26-41.95,.26s-41.95-.12-41.95-.26,18.78-.26,41.95-.26,41.95,.12,41.95,.26Z"/>
          <path class="cls-11" d="M195.66,277.61c0,.14-18.78,.26-41.95,.26s-41.95-.12-41.95-.26,18.78-.26,41.95-.26,41.95,.12,41.95,.26Z"/>
          <g>
            <path class="cls-11" d="M320.45,251.42c0,.14-19.62,.26-43.81,.26s-43.81-.12-43.81-.26,19.61-.26,43.81-.26,43.81,.12,43.81,.26Z"/>
            <path class="cls-11" d="M226.11,254.44s-.07-.67-.11-1.73c-.04-1.06-.09-2.54-.11-4.3l.23,.23c-1.79,.01-3.84,.02-6.03,.04-.06,.06,.49-.49,.26-.26h0v.41s0,.41,0,.41c0,.27,0,.54,0,.81,0,.53,0,1.05,0,1.56,0,1-.02,1.96-.03,2.85l-.23-.23c1.76,.02,3.24,.07,4.3,.11,1.06,.04,1.7,.08,1.73,.11,.03,.03-.54,.07-1.59,.11-1.05,.04-2.59,.09-4.45,.11h-.22s0-.23,0-.23c0-.89-.02-1.84-.03-2.85,0-.51,0-1.03,0-1.56,0-.27,0-.54,0-.81v-.41s0-.21,0-.21v-.1s0-.05,0-.05v-.03h0v-.02h0c-.23,.23,.32-.32,.26-.27,2.19,.01,4.24,.02,6.03,.04h.23s0,.23,0,.23c-.02,1.86-.07,3.4-.11,4.45-.04,1.05-.08,1.62-.11,1.59Z"/>
          </g>
          <g>
            <path class="cls-11" d="M320.45,263.01c0,.14-19.62,.26-43.81,.26s-43.81-.12-43.81-.26,19.61-.26,43.81-.26,43.81,.12,43.81,.26Z"/>
            <path class="cls-11" d="M226.11,266.03s-.07-.67-.11-1.73c-.04-1.06-.09-2.54-.11-4.3l.23,.23c-1.79,.01-3.84,.02-6.03,.04-.06,.06,.49-.49,.26-.26h0v.41s0,.41,0,.41c0,.27,0,.54,0,.81,0,.53,0,1.05,0,1.56,0,1-.02,1.96-.03,2.85l-.23-.23c1.76,.02,3.24,.07,4.3,.11,1.06,.04,1.7,.08,1.73,.11,.03,.03-.54,.07-1.59,.11-1.05,.04-2.59,.09-4.45,.11h-.22s0-.23,0-.23c0-.89-.02-1.84-.03-2.85,0-.51,0-1.03,0-1.56,0-.27,0-.54,0-.81v-.41s0-.21,0-.21v-.1s0-.05,0-.05v-.03h0v-.02h0c-.23,.23,.32-.32,.26-.27,2.19,.01,4.24,.02,6.03,.04h.23s0,.23,0,.23c-.02,1.86-.07,3.4-.11,4.45-.04,1.05-.08,1.62-.11,1.59Z"/>
          </g>
          <g>
            <path class="cls-11" d="M320.45,274.6c0,.14-19.62,.26-43.81,.26s-43.81-.12-43.81-.26,19.61-.26,43.81-.26,43.81,.12,43.81,.26Z"/>
            <path class="cls-11" d="M226.11,277.61s-.07-.67-.11-1.73c-.04-1.06-.09-2.54-.11-4.3l.23,.23c-1.79,.01-3.84,.02-6.03,.04-.06,.06,.49-.49,.26-.26h0v.41s0,.41,0,.41c0,.27,0,.54,0,.81,0,.53,0,1.05,0,1.56,0,1-.02,1.96-.03,2.85l-.23-.23c1.76,.02,3.24,.07,4.3,.11,1.06,.04,1.7,.08,1.73,.11,.03,.03-.54,.07-1.59,.11-1.05,.04-2.59,.09-4.45,.11h-.22s0-.23,0-.23c0-.89-.02-1.84-.03-2.85,0-.51,0-1.03,0-1.56,0-.27,0-.54,0-.81v-.41s0-.21,0-.21v-.1s0-.05,0-.05v-.03h0v-.02h0c-.23,.23,.32-.32,.26-.27,2.19,.01,4.24,.02,6.03,.04h.23s0,.23,0,.23c-.02,1.86-.07,3.4-.11,4.45-.04,1.05-.08,1.62-.11,1.59Z"/>
          </g>
          <g>
            <path class="cls-11" d="M320.45,370.42s-.01-.34-.02-.99c0-.66,0-1.62-.02-2.88,0-2.54-.02-6.3-.04-11.18-.02-9.75-.05-24-.09-42.01l.16,.16c-47.85,.02-123.75,.06-209.01,.1h-.01l.26-.26c0,19.63,0,38.77,0,57.06l-.25-.25c59.77,.05,111.99,.09,149.28,.12,18.66,.03,33.58,.06,43.85,.07,5.13,.01,9.1,.03,11.79,.03,1.34,0,2.36,.01,3.06,.02,.69,0,1.05,.02,1.05,.02,0,0-.34,.01-1.02,.02-.69,0-1.7,0-3.03,.02-2.68,0-6.63,.02-11.74,.03-10.25,.02-25.15,.04-43.79,.07-37.33,.03-89.62,.07-149.46,.12h-.25s0-.25,0-.25c0-18.29,0-37.43,0-57.06v-.26s.26,0,.26,0h.01c85.26,.04,161.16,.08,209.01,.1h.16s0,.16,0,.16c-.04,18.05-.07,32.33-.09,42.11-.02,4.86-.03,8.61-.04,11.14,0,1.25-.01,2.21-.02,2.86,0,.64-.02,.96-.02,.96Z"/>
            <path class="cls-11" d="M320.45,327.71c0,.14-46.66,.26-104.22,.26s-104.23-.12-104.23-.26,46.65-.26,104.23-.26,104.22,.12,104.22,.26Z"/>
            <path class="cls-11" d="M320.45,341.89c0,.14-46.66,.26-104.22,.26s-104.23-.12-104.23-.26,46.65-.26,104.23-.26,104.22,.12,104.22,.26Z"/>
            <path class="cls-11" d="M320.45,356.21c0,.14-46.66,.26-104.22,.26s-104.23-.12-104.23-.26,46.65-.26,104.23-.26,104.22,.12,104.22,.26Z"/>
            <path class="cls-11" d="M135.72,370.92c-.14,0-.26-12.91-.26-28.83s.12-28.83,.26-28.83,.26,12.9,.26,28.83-.12,28.83-.26,28.83Z"/>
            <path class="cls-11" d="M206.41,369.18c-.14,0-.26-12.33-.26-27.53s.12-27.53,.26-27.53,.26,12.32,.26,27.53-.12,27.53-.26,27.53Z"/>
            <path class="cls-11" d="M280.88,371.78c-.14,0-.26-12.71-.26-28.39s.12-28.4,.26-28.4,.26,12.71,.26,28.4-.12,28.39-.26,28.39Z"/>
          </g>
          <g>
            <polygon class="cls-5" points="278.52 420.3 340.62 357.53 278.52 357.53 278.52 420.3"/>
            <path class="cls-11" d="M278.52,420.3c0-2.1-.1-25.95-.24-62.77v-.24s.24,0,.24,0c13.28,0,28.15-.01,43.8-.02,6.27,0,12.4,0,18.29,0h.62s-.43,.44-.43,.44c-17.72,17.83-33.31,33.51-44.48,44.76-10.93,10.96-16.91,16.94-17.8,17.83,.89-.91,6.87-7.01,17.82-18.17,11.07-11.25,26.52-26.94,44.09-44.78l.18,.44c-5.89,0-12.02,0-18.29,0-15.66,0-30.52-.02-43.8-.02l.24-.24c-.14,36.82-.23,60.67-.24,62.77Z"/>
          </g>
          <path class="cls-11" d="M275.45,383.21c0,.14-36.5,.26-81.51,.26s-81.52-.12-81.52-.26,36.49-.26,81.52-.26,81.51,.12,81.51,.26Z"/>
          <path class="cls-11" d="M275.45,391.45c0,.14-36.5,.26-81.51,.26s-81.52-.12-81.52-.26,36.49-.26,81.52-.26,81.51,.12,81.51,.26Z"/>
          <path class="cls-11" d="M186.61,399.7c0,.14-16.61,.26-37.09,.26s-37.1-.12-37.1-.26,16.61-.26,37.1-.26,37.09,.12,37.09,.26Z"/>
          <g>
            <path class="cls-1" d="M135.49,111.61h-9.37v-4.44h23.99v4.44h-9.37v23.83h-5.25v-23.83Z"/>
            <path class="cls-1" d="M170.99,128.9h-14.14l-2.79,6.54h-5.41l12.72-28.27h5.17l12.76,28.27h-5.49l-2.83-6.54Zm-1.74-4.12l-5.33-12.36-5.29,12.36h10.62Z"/>
            <path class="cls-1" d="M199.3,135.44l-7.67-10.74-7.59,10.74h-5.98l10.5-14.42-9.94-13.85h5.94l7.23,10.06,7.15-10.06h5.69l-9.9,13.65,10.62,14.62h-6.06Z"/>
          </g>
          <path class="cls-5" d="M326.32,81.49c0,.14-48.21,.26-107.67,.26s-107.68-.12-107.68-.26,48.2-.26,107.68-.26,107.67,.12,107.67,.26Z"/>
          <path class="cls-5" d="M219.38,85.4c0,.14-24.27,.26-54.2,.26s-54.21-.12-54.21-.26,24.27-.26,54.21-.26,54.2,.12,54.2,.26Z"/>
        </g>
      </g>
      <g>
        <path class="cls-11" d="M168.19,44.43h111.43c3.49,0,6.33,2.83,6.33,6.33v29.66h-124.08v-29.66c0-3.49,2.83-6.33,6.33-6.33Z"/>
        <polygon class="cls-11" points="239.69 30.9 208.11 30.9 211.8 57.97 235.59 57.97 239.69 30.9"/>
        <path class="cls-4" d="M277.97,44.43c0,.14-24.21,.26-54.06,.26s-54.07-.12-54.07-.26,24.2-.26,54.07-.26,54.06,.12,54.06,.26Z"/>
        <path class="cls-4" d="M164.64,74.62c-.14,0-.26-5.09-.26-11.37s.12-11.37,.26-11.37,.26,5.09,.26,11.37-.12,11.37-.26,11.37Z"/>
        <path class="cls-4" d="M281.92,71.92c-.14,0-.26-4.62-.26-10.32s.12-10.32,.26-10.32,.26,4.62,.26,10.32-.12,10.32-.26,10.32Z"/>
        <path class="cls-4" d="M275.94,76.71c0,.14-24.85,.26-55.5,.26s-55.5-.12-55.5-.26,24.84-.26,55.5-.26,55.5,.12,55.5,.26Z"/>
      </g>
    </g>
  </g>
  <g id="Device">
    <g>
      <g>
        <path class="cls-11" d="M131.86,436.29l-97.02-.06c-11.67,0-21.12-9.47-21.12-21.14l.05-243.23c0-11.68,9.47-21.14,21.15-21.13l97.02,.06c11.67,0,21.12,9.47,21.12,21.14l-.05,243.23c0,11.68-9.47,21.14-21.15,21.13Z"/>
        <path class="cls-1" d="M131.83,159.39h-18.81c-2.52-.01-4.57,2.12-4.57,4.76v3.41c0,2.64-2.05,4.77-4.57,4.77l-36.67-.02c-2.52,0-4.57-2.14-4.57-4.78v-3.41c0-2.64-2.04-4.78-4.57-4.78h-6.62s-16.46-.01-16.46-.01c-8.18,0-14.81,6.62-14.81,14.8l-.05,237.41c0,8.17,6.62,14.8,14.79,14.8l96.83,.06c8.18,0,14.81-6.62,14.81-14.8l.05-237.41c0-8.17-6.62-14.8-14.79-14.8Z"/>
      </g>
      <path class="cls-3" d="M20.14,257.62h126.48v156.06c0,7.03-5.7,12.73-12.73,12.73H32.87c-7.03,0-12.73-5.7-12.73-12.73v-156.06h0Z"/>
      <rect class="cls-5" x="20.14" y="257.31" width="95.53" height="35.25"/>
      <path class="cls-10" d="M135.36,426.41c6.22,0,11.26-5.04,11.26-11.26v-157.52h-30.95v168.79h19.68Z"/>
      <path class="cls-11" d="M143.72,292.87c0,.14-28,.26-62.54,.26s-62.55-.12-62.55-.26,28-.26,62.55-.26,62.54,.12,62.54,.26Z"/>
      <path class="cls-11" d="M143.72,327.17c0,.14-28,.26-62.54,.26s-62.55-.12-62.55-.26,28-.26,62.55-.26,62.54,.12,62.54,.26Z"/>
      <path class="cls-11" d="M143.72,363.48c0,.14-28,.26-62.54,.26s-62.55-.12-62.55-.26,28-.26,62.55-.26,62.54,.12,62.54,.26Z"/>
      <path class="cls-11" d="M143.72,397.78c0,.14-28,.26-62.54,.26s-62.55-.12-62.55-.26,28-.26,62.55-.26,62.54,.12,62.54,.26Z"/>
      <path class="cls-11" d="M51.09,397.78c-.14,0-.26-31.27-.26-69.83s.12-69.84,.26-69.84,.26,31.26,.26,69.84-.12,69.83-.26,69.83Z"/>
      <path class="cls-11" d="M83.38,426.47c-.14,0-.26-37.69-.26-84.18s.12-84.19,.26-84.19,.26,37.69,.26,84.19-.12,84.18-.26,84.18Z"/>
      <path class="cls-11" d="M115.67,426.41c-.14,0-.26-37.68-.26-84.15s.12-84.16,.26-84.16,.26,37.67,.26,84.16-.12,84.15-.26,84.15Z"/>
      <path class="cls-11" d="M39.91,305.35v1.14l-4.76,10.63h-1.78l4.66-10.31h-5.38v2.1h-1.61v-3.56h8.88Z"/>
      <path class="cls-11" d="M72.31,313.79c0,2.13-1.82,3.46-4.69,3.46s-4.66-1.33-4.66-3.46c0-1.35,.74-2.34,2.07-2.84-1.08-.5-1.65-1.38-1.65-2.54,0-1.97,1.7-3.2,4.24-3.2s4.27,1.23,4.27,3.2c0,1.16-.59,2.03-1.67,2.54,1.35,.52,2.09,1.5,2.09,2.84Zm-1.68-.05c0-1.29-1.14-2.1-3.01-2.1s-2.98,.81-2.98,2.1,1.11,2.15,2.98,2.15,3.01-.82,3.01-2.15Zm-5.58-5.26c0,1.16,.96,1.88,2.57,1.88s2.62-.72,2.62-1.88-1.04-1.9-2.62-1.9-2.57,.72-2.57,1.9Z"/>
      <path class="cls-11" d="M104.13,311.08c0,4.02-2.27,6.17-5.57,6.17-1.11,0-2.17-.22-2.93-.69l.64-1.31c.62,.4,1.41,.55,2.27,.55,2.39,0,3.9-1.5,3.9-4.44v-.42c-.69,1.03-1.93,1.55-3.4,1.55-2.34,0-4.02-1.4-4.02-3.57s1.82-3.72,4.15-3.72c3.16,0,4.94,2.12,4.94,5.87Zm-2.07-2.24c0-1.21-.98-2.27-2.81-2.27-1.53,0-2.59,.89-2.59,2.29s1.03,2.27,2.67,2.27,2.72-.99,2.72-2.29Z"/>
      <path class="cls-11" d="M94.4,273.17c0-1.7,1.03-2.77,2.5-2.77s2.49,1.06,2.49,2.77-1.02,2.77-2.49,2.77-2.5-1.08-2.5-2.77Zm3.55,0c0-1.08-.42-1.6-1.05-1.6s-1.05,.53-1.05,1.6,.43,1.6,1.05,1.6,1.05-.52,1.05-1.6Zm4.94-2.66h1.71l-6.87,10.06h-1.71l6.87-10.06Zm-1.65,7.4c0-1.7,1.04-2.77,2.49-2.77s2.5,1.08,2.5,2.77-1.04,2.77-2.5,2.77-2.49-1.08-2.49-2.77Zm3.54,0c0-1.06-.42-1.6-1.05-1.6s-1.05,.52-1.05,1.6,.43,1.6,1.05,1.6,1.05-.53,1.05-1.6Z"/>
      <path class="cls-11" d="M31.42,275.51c0-2.99,2.28-5.17,5.36-5.17,1.56,0,2.92,.53,3.84,1.58l-.94,.91c-.78-.82-1.73-1.2-2.85-1.2-2.28,0-3.97,1.65-3.97,3.89s1.69,3.89,3.97,3.89c1.11,0,2.07-.39,2.85-1.21l.94,.91c-.92,1.04-2.28,1.59-3.86,1.59-3.06,0-5.35-2.18-5.35-5.17Z"/>
      <path class="cls-11" d="M41.58,349.7h-2.24v2.89h-1.63v-2.89h-6.54v-1.18l6.02-7.7h1.82l-5.77,7.43h4.52v-2.56h1.58v2.56h2.24v1.45Z"/>
      <path class="cls-11" d="M71.28,349.06c0,2.04-1.45,3.67-4.46,3.67-1.66,0-3.31-.54-4.32-1.43l.77-1.33c.79,.74,2.1,1.26,3.53,1.26,1.78,0,2.79-.82,2.79-2.1s-.84-2.15-3.56-2.15h-2.67l.62-6.15h6.64v1.46h-5.23l-.32,3.23h1.31c3.51,0,4.89,1.46,4.89,3.55Z"/>
      <path class="cls-11" d="M104.48,349.01c0,2.27-1.83,3.72-4.17,3.72-3.16,0-4.94-2.12-4.94-5.87,0-4.02,2.27-6.17,5.57-6.17,1.11,0,2.17,.22,2.93,.69l-.64,1.31c-.61-.4-1.41-.55-2.25-.55-2.39,0-3.92,1.5-3.92,4.44,0,.13,0,.27,.02,.42,.67-1.01,1.92-1.55,3.38-1.55,2.34,0,4.04,1.4,4.04,3.56Zm-1.63,.07c0-1.38-1.04-2.27-2.69-2.27s-2.71,.99-2.71,2.29c0,1.21,.98,2.27,2.79,2.27,1.53,0,2.61-.89,2.61-2.29Z"/>
      <path class="cls-11" d="M34.99,375.61v11.77h-1.66v-10.31h-2.66v-1.46h4.32Z"/>
      <path class="cls-11" d="M71.3,385.92v1.46h-8.46v-1.14l4.79-4.62c1.24-1.21,1.48-1.95,1.48-2.69,0-1.21-.86-1.95-2.51-1.95-1.26,0-2.29,.4-3.01,1.28l-1.14-.99c.91-1.13,2.47-1.78,4.3-1.78,2.45,0,4.04,1.26,4.04,3.28,0,1.14-.34,2.17-1.93,3.7l-3.6,3.46h6.04Z"/>
      <path class="cls-11" d="M103.42,383.92c0,1.98-1.46,3.6-4.46,3.6-1.68,0-3.33-.54-4.32-1.43l.77-1.33c.79,.74,2.1,1.26,3.55,1.26,1.77,0,2.77-.81,2.77-2.09s-.89-2.05-2.91-2.05h-.94v-1.18l2.96-3.63h-5.67v-1.46h7.77v1.14l-3.08,3.8c2.35,.22,3.55,1.55,3.55,3.36Z"/>
      <path class="cls-11" d="M45.36,412.04c0-3.83,2.05-6.02,4.81-6.02s4.79,2.19,4.79,6.02-2.05,6.02-4.79,6.02-4.81-2.19-4.81-6.02Zm7.92,0c0-3.01-1.28-4.52-3.11-4.52s-3.13,1.51-3.13,4.52,1.28,4.52,3.13,4.52,3.11-1.51,3.11-4.52Z"/>
      <path class="cls-11" d="M100.87,412.56c0,.34-.07,.59-.29,1.21l-.79,2.34h-1.06l.62-2.5c-.42-.15-.71-.54-.71-1.04,0-.67,.49-1.14,1.13-1.14s1.09,.49,1.09,1.14Z"/>
      <rect class="cls-11" x="125.85" y="409.09" width="11.48" height="1.21"/>
      <rect class="cls-11" x="125.85" y="412.73" width="11.48" height="1.21"/>
      <g>
        <g>
          <rect class="cls-11" x="127.29" y="380.41" width="8.6" height=".9"/>
          <path class="cls-11" d="M136.33,381.76h-9.48v-1.79h9.48v1.79Zm-8.6-.88l7.71-.02-7.71,.02Z"/>
        </g>
        <g>
          <rect class="cls-11" x="127.29" y="380.41" width="8.6" height=".9" transform="translate(-249.28 512.45) rotate(-90)"/>
          <path class="cls-11" d="M132.48,385.61h-1.79v-9.48h1.79v9.48Zm-.9-.88h.02l-.02-7.71v7.71Z"/>
        </g>
      </g>
      <polygon class="cls-11" points="135.57 307.86 134.31 306.6 131.59 309.32 128.87 306.6 127.6 307.86 130.32 310.58 127.6 313.3 128.87 314.57 131.59 311.85 134.31 314.57 135.57 313.3 132.85 310.58 135.57 307.86"/>
      <g>
        <rect class="cls-11" x="127.29" y="346.37" width="8.6" height=".9"/>
        <path class="cls-11" d="M136.33,347.72h-9.48v-1.79h9.48v1.79Zm-8.6-.88l7.71-.02-7.71,.02Z"/>
      </g>
      <g>
        <rect class="cls-11" x="127.29" y="275.65" width="8.6" height=".9"/>
        <path class="cls-11" d="M136.33,277h-9.48v-1.79h9.48v1.79Zm-8.6-.88l7.71-.02-7.71,.02Z"/>
      </g>
      <circle class="cls-11" cx="131.59" cy="271.38" r="1.44"/>
      <path class="cls-11" d="M133.03,280.57c0,.8-.65,1.44-1.44,1.44s-1.44-.65-1.44-1.44,.65-1.44,1.44-1.44,1.44,.65,1.44,1.44Z"/>
      <g>
        <polygon class="cls-11" points="71.69 273.6 70.92 272.83 69.27 274.48 67.62 272.83 66.86 273.6 68.51 275.24 66.86 276.89 67.62 277.66 69.27 276.01 70.92 277.66 71.69 276.89 70.04 275.24 71.69 273.6"/>
        <path class="cls-11" d="M73.69,279.9h-8.25c-.4,0-.8-.17-1.07-.47l-2.9-3.15c-.53-.58-.53-1.48,0-2.06l2.9-3.15c.28-.3,.67-.47,1.07-.47h8.25c.81,0,1.47,.67,1.47,1.5v6.3c0,.83-.66,1.5-1.47,1.5Zm-8.25-8.31c-.13,0-.25,.05-.34,.15l-2.9,3.15c-.18,.19-.18,.51,0,.71l2.9,3.15c.09,.1,.21,.15,.34,.15h8.25c.26,0,.47-.23,.47-.5v-6.3c0-.28-.21-.5-.47-.5h-8.25Z"/>
      </g>
      <g>
        <path class="cls-11" d="M78.59,221.3v20.92h-1.52v-19.55h-5.11v-1.38h6.64Z"/>
        <path class="cls-11" d="M98.26,221.3v1.08l-9,19.85h-1.67l8.91-19.55h-11.75v4.01h-1.49v-5.38h15.01Z"/>
        <path class="cls-11" d="M114.43,236.34c0,3.47-2.51,6.04-7.32,6.04-3.08,0-5.92-1.14-7.38-2.81l.78-1.17c1.29,1.46,3.74,2.57,6.61,2.57,3.77,0,5.77-1.79,5.77-4.63s-1.91-4.63-6.1-4.63h-1.31v-1.11l6.19-7.92h-11.15v-1.38h13.12v1.08l-6.28,8.04c4.75,.12,7.08,2.51,7.08,5.92Z"/>
        <path class="cls-11" d="M133.38,236.49c0,3.65-3.02,5.89-7.95,5.89s-7.89-2.24-7.89-5.89c0-2.63,1.61-4.45,4.45-5.2-2.39-.78-3.71-2.42-3.71-4.72,0-3.35,2.81-5.41,7.14-5.41s7.2,2.06,7.2,5.41c0,2.3-1.35,3.95-3.77,4.72,2.87,.75,4.51,2.6,4.51,5.2Zm-1.52,0c0-2.78-2.39-4.54-6.43-4.54s-6.37,1.76-6.37,4.54,2.33,4.57,6.37,4.57,6.43-1.76,6.43-4.57Zm-6.43-5.8c3.56,0,5.68-1.58,5.68-4.07s-2.21-4.16-5.68-4.16-5.62,1.58-5.62,4.13,2.06,4.1,5.62,4.1Z"/>
      </g>
    </g>
  </g>
  <g id="Table">
    <g>
      <polygon class="cls-11" points="273.8 319.81 273.8 319.9 273.8 360.84 283.15 360.84 273.8 319.81"/>
      <g>
        <rect class="cls-1" x="226.11" y="319.81" width="47.69" height="42.53"/>
        <rect class="cls-10" x="256.27" y="338.07" width="6.52" height="6.87"/>
        <path class="cls-11" d="M230.4,358.84s-.02-.15-.02-.47c0-.35-.01-.82-.02-1.42-.01-1.29-.03-3.12-.05-5.46-.03-4.79-.06-11.62-.11-19.91v-.21s.21,0,.21,0c10.98-.01,24.7-.03,39.55-.05-.05-.06,.5,.49,.26,.26h0v1.81c0,.6,0,1.21,0,1.81,0,1.2,0,2.39,0,3.58,0,2.37,0,4.69,0,6.97,0,4.56-.01,8.94-.02,13.08v.24s-.24,0-.24,0c-11.68-.05-21.59-.09-28.61-.12-3.45-.03-6.19-.05-8.1-.06-.91-.01-1.62-.02-2.13-.03-.22,0-.4-.01-.54-.01-.12,0-.18,0-.17-.01s.07,0,.2-.01c.15,0,.34,0,.57-.01,.53,0,1.25-.02,2.18-.03,1.92-.02,4.68-.04,8.15-.06,6.98-.03,16.83-.07,28.45-.12l-.24,.24c0-4.14-.01-8.52-.02-13.08,0-2.28,0-4.61,0-6.97,0-1.18,0-2.37,0-3.58,0-.6,0-1.2,0-1.81v-.91s0-.46,0-.46v-.43h0v-.02c-.23-.24,.32,.31,.26,.26-14.85-.02-28.58-.04-39.55-.05l.21-.21c-.05,8.24-.08,15.03-.11,19.78-.02,2.35-.04,4.21-.05,5.5,0,.61-.02,1.1-.02,1.45,0,.33-.02,.51-.02,.51Z"/>
        <rect class="cls-10" x="226.11" y="319.81" width="47.69" height="8.2"/>
        <path class="cls-11" d="M226.11,362.35s-.02-.25-.02-.75c0-.53-.01-1.28-.03-2.25-.01-2.01-.03-4.91-.06-8.6-.03-7.47-.07-18.13-.11-30.94v-.22s.22,0,.22,0c13.74-.01,30.13-.02,47.69-.04-.05-.06,.5,.5,.26,.27h0v1.44s0,1.44,0,1.44c0,.96,0,1.92,0,2.87,0,1.9,0,3.79,0,5.66,0,3.74,0,7.4,0,10.97,0,7.14-.02,13.9-.02,20.16v.23s-.23,0-.23,0c-14.26-.05-26.2-.09-34.6-.12-4.15-.03-7.43-.05-9.69-.06-1.09-.01-1.94-.02-2.54-.03-.27,0-.48,0-.65-.01-.14,0-.21,0-.21-.01,0,0,.08,0,.24-.01,.17,0,.39,0,.67-.01,.61,0,1.47-.02,2.59-.03,2.28-.01,5.57-.03,9.74-.06,8.37-.03,20.26-.07,34.46-.12l-.23,.23c0-6.25-.01-13.02-.02-20.16,0-3.57,0-7.23,0-10.97,0-1.87,0-3.76,0-5.66,0-.95,0-1.91,0-2.87v-1.44s0-.72,0-.72v-.7h0c-.23-.25,.32,.3,.26,.24-17.56-.01-33.95-.03-47.69-.04l.22-.22c-.05,12.75-.09,23.36-.11,30.8-.02,3.71-.04,6.63-.06,8.65-.01,.98-.02,1.75-.03,2.29,0,.52-.02,.8-.02,.8Z"/>
        <path class="cls-11" d="M269.84,338.07c0,.14-8.8,.26-19.65,.26s-19.66-.12-19.66-.26,8.8-.26,19.66-.26,19.65,.12,19.65,.26Z"/>
        <path class="cls-11" d="M269.84,344.94c0,.14-8.8,.26-19.65,.26s-19.66-.12-19.66-.26,8.8-.26,19.66-.26,19.65,.12,19.65,.26Z"/>
        <path class="cls-11" d="M269.84,351.81c0,.14-8.8,.26-19.65,.26s-19.66-.12-19.66-.26,8.8-.26,19.66-.26,19.65,.12,19.65,.26Z"/>
        <path class="cls-11" d="M236.84,358.77c-.14,0-.26-6.07-.26-13.56s.12-13.56,.26-13.56,.26,6.07,.26,13.56-.12,13.56-.26,13.56Z"/>
        <path class="cls-11" d="M243.29,358.77c-.14,0-.26-6.07-.26-13.56s.12-13.56,.26-13.56,.26,6.07,.26,13.56-.12,13.56-.26,13.56Z"/>
        <path class="cls-11" d="M249.81,358.77c-.14,0-.26-6.07-.26-13.56s.12-13.56,.26-13.56,.26,6.07,.26,13.56-.12,13.56-.26,13.56Z"/>
        <path class="cls-11" d="M256.27,358.77c-.14,0-.26-6.07-.26-13.56s.12-13.56,.26-13.56,.26,6.07,.26,13.56-.12,13.56-.26,13.56Z"/>
        <path class="cls-11" d="M262.79,358.77c-.14,0-.26-6.07-.26-13.56s.12-13.56,.26-13.56,.26,6.07,.26,13.56-.12,13.56-.26,13.56Z"/>
        <rect class="cls-5" x="265.72" y="332.23" width="3.53" height="1.61"/>
        <rect class="cls-5" x="265.77" y="339.18" width="3.53" height="1.61"/>
        <rect class="cls-5" x="265.77" y="346.14" width="3.53" height="1.61"/>
        <rect class="cls-5" x="265.85" y="353.09" width="3.53" height="1.61"/>
        <rect class="cls-5" x="251.87" y="332.23" width="3.53" height="1.61"/>
        <rect class="cls-5" x="251.92" y="339.18" width="3.53" height="1.61"/>
        <rect class="cls-5" x="251.92" y="346.14" width="3.53" height="1.61"/>
        <rect class="cls-5" x="252" y="353.09" width="3.53" height="1.61"/>
        <rect class="cls-5" x="238.94" y="332.23" width="3.53" height="1.61"/>
        <rect class="cls-5" x="239" y="339.18" width="3.53" height="1.61"/>
        <rect class="cls-5" x="239" y="346.14" width="3.53" height="1.61"/>
        <rect class="cls-5" x="239.07" y="353.09" width="3.53" height="1.61"/>
        <rect class="cls-5" x="245.69" y="332.23" width="3.53" height="1.61"/>
        <rect class="cls-5" x="245.74" y="339.18" width="3.53" height="1.61"/>
        <rect class="cls-5" x="245.74" y="346.14" width="3.53" height="1.61"/>
        <rect class="cls-5" x="245.82" y="353.09" width="3.53" height="1.61"/>
        <rect class="cls-5" x="232.61" y="332.23" width="3.53" height="1.61"/>
        <rect class="cls-5" x="232.66" y="339.18" width="3.53" height="1.61"/>
        <rect class="cls-5" x="232.66" y="346.14" width="3.53" height="1.61"/>
        <rect class="cls-5" x="232.74" y="353.09" width="3.53" height="1.61"/>
        <rect class="cls-5" x="258.28" y="332.23" width="3.53" height="1.61"/>
        <rect class="cls-5" x="258.33" y="346.14" width="3.53" height="1.61"/>
        <rect class="cls-5" x="258.33" y="353.09" width="3.53" height="1.61"/>
        <path class="cls-6" d="M255.92,337.62c-.1-.11,1.5-1.65,3.42-3.59,1.93-1.94,3.45-3.55,3.56-3.45,.11,.09-1.25,1.87-3.19,3.82-1.94,1.96-3.7,3.33-3.79,3.22Z"/>
        <path class="cls-6" d="M264.38,338.26c-.1,.1-2.2-1.61-4.69-3.83-2.49-2.22-4.44-4.11-4.35-4.22,.09-.11,2.19,1.61,4.69,3.83,2.5,2.23,4.44,4.12,4.34,4.22Z"/>
        <path class="cls-11" d="M232.04,323.53h0c-.49,0-.88-.4-.88-.88v-5.16c0-.49,.39-.88,.88-.88h0c.49,0,.88,.4,.88,.88v5.16c0,.49-.4,.88-.88,.88Z"/>
        <path class="cls-11" d="M237.8,323.53h0c-.49,0-.88-.4-.88-.88v-5.16c0-.49,.39-.88,.88-.88h0c.49,0,.88,.4,.88,.88v5.16c0,.49-.39,.88-.88,.88Z"/>
        <path class="cls-11" d="M243.57,323.53h0c-.49,0-.88-.4-.88-.88v-5.16c0-.49,.39-.88,.88-.88h0c.49,0,.88,.4,.88,.88v5.16c0,.49-.39,.88-.88,.88Z"/>
        <path class="cls-11" d="M249.34,323.53h0c-.49,0-.88-.4-.88-.88v-5.16c0-.49,.39-.88,.88-.88h0c.49,0,.88,.4,.88,.88v5.16c0,.49-.39,.88-.88,.88Z"/>
        <path class="cls-11" d="M255.12,323.53h0c-.49,0-.88-.4-.88-.88v-5.16c0-.49,.39-.88,.88-.88h0c.49,0,.88,.4,.88,.88v5.16c0,.49-.39,.88-.88,.88Z"/>
        <path class="cls-11" d="M260.89,323.53h0c-.49,0-.88-.4-.88-.88v-5.16c0-.49,.39-.88,.88-.88h0c.49,0,.88,.4,.88,.88v5.16c0,.49-.39,.88-.88,.88Z"/>
        <path class="cls-11" d="M266.66,323.53h0c-.49,0-.88-.4-.88-.88v-5.16c0-.49,.39-.88,.88-.88h0c.49,0,.88,.4,.88,.88v5.16c0,.49-.39,.88-.88,.88Z"/>
      </g>
      <rect class="cls-4" x="156.83" y="360.84" width="131.97" height="10.73"/>
      <rect class="cls-4" x="161.61" y="368.98" width="120.47" height="31.38"/>
      <rect class="cls-4" x="161.61" y="368.02" width="10.43" height="68.44"/>
      <rect class="cls-4" x="271.65" y="368.02" width="10.43" height="68.44"/>
      <path class="cls-11" d="M288.96,371.57c0,.14-29.62,.26-66.14,.26s-66.15-.12-66.15-.26,29.61-.26,66.15-.26,66.14,.12,66.14,.26Z"/>
      <path class="cls-11" d="M172.19,371.9c.14,0,.23,14.45,.19,32.28-.04,17.83-.19,32.28-.33,32.28-.14,0-.23-14.45-.19-32.28,.04-17.82,.19-32.28,.33-32.28Z"/>
      <path class="cls-11" d="M272.06,371.9c.14,0,.26,13.54,.26,30.23s-.12,30.24-.26,30.24-.26-13.53-.26-30.24,.12-30.23,.26-30.23Z"/>
      <path class="cls-11" d="M268.04,396.8s0-.13-.02-.38c0-.27,0-.63-.02-1.11,0-.99-.02-2.42-.04-4.27-.02-3.72-.05-9.14-.08-15.99l.15,.15c-20.53,.02-54.26,.06-92.35,.11h0l.26-.26c0,7.45,0,14.73,0,21.74l-.26-.26c26.27,.05,49.32,.09,65.82,.12,8.25,.03,14.87,.06,19.44,.07,2.27,.01,4.03,.03,5.25,.03,.59,0,1.04,.01,1.37,.02,.31,0,.48,.02,.48,.02,0,0-.14,.01-.44,.02-.32,0-.76,0-1.33,.02-1.2,0-2.95,.02-5.19,.03-4.56,.02-11.15,.04-19.38,.07-16.55,.03-39.66,.07-66,.12h-.26s0-.26,0-.26c0-7.01,0-14.29,0-21.74v-.26h.27c38.09,.04,71.81,.08,92.35,.11h.15s0,.15,0,.15c-.04,6.89-.06,12.33-.08,16.08-.02,1.83-.03,3.25-.04,4.23,0,.46-.01,.82-.02,1.08,0,.24-.02,.36-.02,.36Z"/>
      <path class="cls-11" d="M223.55,386.45s-.06-.25-.19-.67c-.13-.41-.43-1-1.05-1.45-.6-.45-1.57-.69-2.5-.33-.92,.33-1.71,1.31-1.7,2.45-.01,1.14,.78,2.13,1.7,2.45,.93,.36,1.9,.12,2.5-.33,.62-.45,.92-1.04,1.05-1.45,.13-.42,.14-.67,.19-.67,.03,0,.09,.26,0,.72-.08,.46-.35,1.14-1.02,1.69-.65,.55-1.78,.88-2.89,.49-1.1-.36-2.07-1.53-2.06-2.91-.01-1.38,.96-2.55,2.06-2.9,1.11-.39,2.24-.06,2.89,.49,.68,.55,.95,1.24,1.02,1.69,.08,.47,.02,.72,0,.72Z"/>
      <g>
        <g>
          <polygon class="cls-5" points="234.6 343.01 245.04 353.05 224.41 353.05 234.6 343.01"/>
          <polygon class="cls-3" points="224.41 353.05 234.6 343.01 214.43 343.01 224.41 353.05"/>
          <polygon class="cls-3" points="175.69 353.05 184.58 340.81 213.27 340.81 204.44 353.05 175.69 353.05"/>
          <polygon class="cls-5" points="213.27 340.81 224.41 353.05 204.44 353.05 213.27 340.81"/>
          <path class="cls-11" d="M245.04,353.05s-.29-.22-.79-.67c-.54-.5-1.26-1.17-2.16-1.99-1.89-1.78-4.51-4.26-7.64-7.22h.31c-2.96,2.93-6.44,6.37-10.16,10.06l-.19,.19-.18-.2c-.3-.33-.63-.69-.96-1.05-3.71-4.1-7.19-7.94-10.15-11.21l.35-.02c-2.65,3.61-4.88,6.63-6.48,8.82-.76,1.02-1.38,1.83-1.85,2.45-.43,.56-.67,.85-.69,.84-.02-.01,.18-.33,.58-.92,.44-.63,1.02-1.48,1.74-2.52,1.57-2.21,3.74-5.27,6.33-8.93l.16-.23,.19,.21c2.98,3.25,6.47,7.08,10.21,11.16,.33,.36,.66,.72,.96,1.05h-.37c3.75-3.68,7.24-7.11,10.22-10.02l.16-.15,.15,.15c3.08,3.02,5.65,5.54,7.51,7.35,.86,.86,1.55,1.56,2.07,2.08,.47,.48,.72,.75,.7,.77Z"/>
          <path class="cls-11" d="M175.69,353.05s.19-.36,.59-.97c.46-.67,1.06-1.54,1.78-2.6,1.6-2.27,3.78-5.34,6.29-8.89l.07-.1h.13c2.07,0,4.32,0,6.66-.01,6.03,0,11.49,.03,15.44,.08,1.91,.03,3.49,.06,4.68,.08,1.1,.03,1.72,.07,1.72,.1s-.61,.07-1.72,.1c-1.19,.02-2.77,.05-4.68,.08-3.95,.05-9.41,.08-15.44,.08-2.34,0-4.59,0-6.66-.01l.2-.1c-2.57,3.51-4.8,6.54-6.44,8.78-.77,1.02-1.41,1.86-1.9,2.51-.45,.58-.7,.89-.73,.87Z"/>
          <path class="cls-11" d="M234.37,343.01c0,.14-4.28,.26-9.55,.26s-9.55-.12-9.55-.26,4.27-.26,9.55-.26,9.55,.12,9.55,.26Z"/>
        </g>
        <path class="cls-11" d="M201.16,349.28c0,.14-4.11,.26-9.18,.26s-9.19-.12-9.19-.26,4.11-.26,9.19-.26,9.18,.12,9.18,.26Z"/>
        <path class="cls-11" d="M203.63,346.81c0,.14-4.11,.26-9.18,.26s-9.19-.12-9.19-.26,4.11-.26,9.19-.26,9.18,.12,9.18,.26Z"/>
        <path class="cls-11" d="M206.1,344.34c0,.14-4.11,.26-9.18,.26s-9.19-.12-9.19-.26,4.11-.26,9.19-.26,9.18,.12,9.18,.26Z"/>
      </g>
      <g>
        <rect class="cls-3" x="170.01" y="353.05" width="71.38" height="7.79"/>
        <rect class="cls-5" x="193.61" y="353.05" width="47.79" height="7.79"/>
        <path class="cls-11" d="M170.01,360.84s-.03-.18-.04-.52c-.01-.39-.02-.89-.04-1.52-.02-1.38-.04-3.32-.07-5.74v-.15s.15,0,.15,0c7.1-.06,18.66-.11,31.7-.11,10.88,.03,20.73,.06,27.93,.08,3.53,.03,6.41,.06,8.46,.08,.96,.02,1.73,.04,2.3,.05,.53,.02,.8,.03,.8,.05s-.28,.04-.8,.05c-.57,.01-1.34,.03-2.3,.05-2.05,.02-4.93,.05-8.46,.08-7.19,.02-17.04,.05-27.93,.08-13.04,0-24.6-.04-31.7-.11l.15-.15c-.03,2.43-.05,4.36-.07,5.74-.02,.63-.03,1.13-.04,1.52-.01,.35-.03,.52-.04,.52Z"/>
      </g>
    </g>
  </g>
  <g id="Character">
    <g>
      <g>
        <g>
          <g>
            <rect class="cls-4" x="332.13" y="377.42" width="9.17" height="59.7"/>
            <rect class="cls-4" x="385.32" y="377.42" width="9.17" height="59.02"/>
            <rect class="cls-4" x="338.34" y="398.62" width="48.61" height="8.13"/>
            <path class="cls-11" d="M394.49,377.42s.01,.1,.02,.3c0,.21,.01,.51,.02,.88,0,.79,.02,1.93,.03,3.39,.01,2.96,.03,7.23,.06,12.51,.02,10.61,.04,25.31,.06,41.75v.19s-.19,0-.19,0c-1.38,0-2.85,0-4.33,0-1.66,0-3.3,0-4.83,0h-.19v-.19c.07-16.33,.12-30.91,.16-41.43,.04-5.24,.07-9.46,.09-12.4,.02-1.44,.03-2.57,.04-3.35,0-.37,.02-.66,.02-.87,0-.2,.01-.3,.02-.3s.01,.1,.02,.3c0,.21,0,.5,.02,.87,0,.78,.02,1.91,.03,3.35,0,2.94,.02,7.16,.03,12.4-.01,10.52-.03,25.1-.04,41.43l-.19-.19c1.54,0,3.18,0,4.83,0,1.48,0,2.96,0,4.33,0l-.19,.19c.02-16.44,.05-31.14,.06-41.75,.03-5.28,.05-9.55,.06-12.51,.01-1.46,.03-2.6,.03-3.39,0-.37,.01-.66,.02-.88,0-.2,.01-.3,.02-.3Z"/>
            <path class="cls-11" d="M332.23,379.95s.01,.1,.02,.29c0,.21,0,.49,.02,.85,0,.77,.02,1.87,.03,3.28,0,2.87,.02,7,.04,12.13,0,10.3,0,24.58,0,40.62l-.19-.19c1.81,0,3.73,0,5.68,0,1.19,0,2.38,0,3.49,0l-.19,.19c.02-16.56,.04-31.39,.06-42.1,.03-5.34,.05-9.64,.06-12.64,.02-1.47,.03-2.62,.04-3.42,0-.38,.01-.67,.02-.89,0-.2,.01-.3,.02-.3s.01,.1,.02,.3c0,.22,.01,.51,.02,.89,0,.8,.02,1.95,.04,3.42,.01,3,.03,7.31,.06,12.64,.02,10.72,.04,25.55,.06,42.1v.19s-.19,0-.19,0c-1.11,0-2.29,0-3.49,0-1.94,0-3.87,0-5.68,0h-.19v-.19c.05-16.04,.1-30.32,.13-40.62,.03-5.13,.06-9.26,.08-12.13,.02-1.41,.03-2.51,.04-3.28,0-.36,.01-.64,.02-.85,0-.19,.01-.29,.02-.29Z"/>
          </g>
          <rect class="cls-4" x="319.32" y="349.83" width="89.26" height="28.2" rx="9.23" ry="9.23"/>
          <path class="cls-11" d="M335.44,378.04c0-.11,14.81-.19,33.08-.19s33.08,.09,33.08,.19-14.81,.19-33.08,.19-33.08-.09-33.08-.19Z"/>
        </g>
        <g class="cls-8">
          <path d="M392.56,348c-12.37-.42-24.74-.84-37.1-1.26-2.18-.07-4.58-.08-6.26,1.31-1.58,1.3-2.09,3.47-2.5,5.47-1.88,9.09-3.76,18.19-5.64,27.28l1.18,2.02c7.31-4.5,12.86-11.8,15.23-20.05,.64-2.22,1.34-4.85,3.51-5.65,.95-.35,2-.26,3.01-.15,2.92,.29,5.85,.59,8.77,.88,4.2,.42,8.57,.83,12.56-.55,3.99-1.38,7.52-5.08,7.26-9.3Z"/>
        </g>
      </g>
      <g>
        <g>
          <g>
            <path class="cls-11" d="M368.49,169.13c1.12-1.12,2.78-1.67,4.34-1.43,.64,.1,1.33,.3,1.89-.01,.4-.23,.62-.67,.92-1.01,.93-1.06,2.81-1.07,3.75,0,.23,.26,.42,.58,.72,.75,1.23,.68,2.66-1.62,3.88-.92-.55,.23-1.1,.55-1.41,1.06-.32,.51-.33,1.24,.11,1.65,1.14,1.05,3.11-1.19,4.38-.31,.69,.47,.76,1.66,1.56,1.88,.31,.08,.64-.02,.96-.05,1.08-.09,2.15,.81,2.23,1.9,.07,.92-.42,2.04,.26,2.67,.42,.39,1.07,.35,1.64,.27-.03,.85-.26,1.69-.66,2.43,1.48,.9,1.97,3.1,1.02,4.54,.72,.59,1.45,1.21,1.89,2.03,.44,.82,.52,1.9-.05,2.64-.13,.17-.29,.32-.37,.51-.08,.21-.06,.45-.02,.68,.16,.87,.51,1.72,.47,2.6-.05,.88-.73,1.83-1.6,1.73-.2-.02-.43-.1-.6,.01-.13,.08-.19,.24-.22,.39-.13,.62,0,1.26,.08,1.89,.07,.63,.06,1.32-.33,1.83-.38,.51-1.25,.66-1.64,.16,.23,.99,.45,1.98,.68,2.96,.14,.59,.24,1.3-.2,1.71-.57,.55-1.56,.08-1.97-.6-.41-.68-.5-1.51-.92-2.18-.17-.27-.4-.51-.51-.82-.09-.24-.11-.52-.31-.69-.39-.34-1.01,.2-.97,.71s.44,.91,.75,1.31c.31,.41,.56,.98,.29,1.41-.13,.21-.36,.34-.49,.56-.43,.74,.64,1.49,.75,2.34,.08,.63-.39,1.18-.85,1.62-.56,.53-1.63,.95-1.96,.25-.11-.24-.06-.53-.15-.79-.1-.3-.36-.5-.59-.72-.56-.54-.97-1.24-1.14-2,.63,.82,1.29,1.9,.81,2.81-.2,.38-.57,.64-.88,.95-.6,.6-.99,1.38-1.58,1.99-.59,.6-1.56,1-2.29,.57,.24,.82-.16,1.78-.9,2.19s-1.77,.25-2.34-.38c-.16-.17-.29-.38-.51-.48-.23-.1-.5-.04-.75,0-1.49,.24-3.1-.45-3.95-1.7,.25-.08,.51-.17,.76-.25-1.48-.23-3.03-.48-4.25-1.36-1.22-.88-1.98-2.59-1.3-3.93,.29-.58,.84-1.17,.62-1.78-.16-.42-.62-.62-1.04-.78-1.75-.67-3.51-1.33-5.26-2-.85-.32-1.75-.68-2.3-1.4-.55-.72-.58-1.93,.19-2.42-.39-.83-1.02-1.54-1.79-2.04-.87-.55-1.89-.81-2.79-1.33-.89-.51-1.7-1.41-1.61-2.44,.09-1.03,1.53-1.79,2.22-1.02-.1-1.55-2.86-1.71-3.06-3.26-.16-1.25,1.45-1.86,2.3-2.8-.16-.44-.59-.73-.76-1.16-.36-.91,.6-1.78,1.49-2.18,.89-.4,1.97-.8,2.21-1.74,.24-.97-.57-2.09-.03-2.93,.3-.47,.99-.62,1.46-.33,.75-1.77,4.08-.34,5.1-1.97,.08-.13,.14-.28,.12-.43-.01-.13-.08-.25-.16-.35-.37-.5-.97-.77-1.45-1.17-.48-.39-.88-1.04-.64-1.62,.24-.58,1.34-.53,1.31,.09,.65-.55,1.81-.23,2.08,.58,.44-.51,1.29-.48,1.86-.12,.57,.36,.94,.96,1.29,1.54"/>
            <path class="cls-4" d="M368.27,169.46s-.19-.3-.6-.83c-.21-.26-.5-.58-.95-.77-.43-.18-1.11-.23-1.53,.24l-.11,.12-.04-.15c-.19-.63-1.24-1.08-1.93-.52l-.2,.17,.02-.25c.03-.31-.42-.45-.75-.33-.36,.09-.47,.52-.35,.9,.12,.39,.42,.73,.8,.99,.37,.27,.82,.51,1.19,.91,.16,.17,.4,.47,.3,.82-.04,.16-.12,.28-.21,.39-.09,.12-.18,.23-.3,.31-.47,.37-1.06,.47-1.63,.53-.57,.06-1.15,.07-1.71,.16-.57,.08-1.11,.33-1.32,.84l-.08,.2-.18-.11c-.3-.19-.75-.15-1.04,.09-.29,.23-.37,.66-.3,1.09,.06,.44,.22,.9,.24,1.42,.05,.52-.2,1.11-.61,1.46-.8,.74-1.91,.87-2.61,1.54-.36,.32-.64,.76-.56,1.18,.04,.44,.56,.72,.82,1.34l.05,.12-.09,.1c-.48,.53-1.07,.89-1.56,1.33-.5,.42-.84,.99-.59,1.56,.22,.55,.88,.89,1.49,1.25,.31,.19,.64,.38,.93,.65,.29,.26,.55,.66,.58,1.11l.04,.73-.46-.55c-.48-.57-1.63,.01-1.76,.77-.15,.82,.47,1.67,1.24,2.16,.78,.52,1.77,.78,2.71,1.28,.95,.51,1.74,1.33,2.21,2.33l.1,.22-.2,.12c-.61,.37-.59,1.43-.11,2.03,.51,.66,1.37,1,2.23,1.32,1.76,.66,3.55,1.34,5.38,2.04,.24,.1,.49,.21,.72,.42,.23,.2,.4,.53,.39,.86-.03,.67-.41,1.07-.62,1.49-.47,.77-.34,1.77,.14,2.57,.46,.83,1.27,1.39,2.18,1.75,.92,.36,1.92,.52,2.94,.68l1.23,.19-1.18,.38c-.24,.08-.5,.16-.76,.25l.15-.45c.46,.67,1.17,1.19,1.98,1.43,.4,.13,.83,.19,1.25,.18,.22,0,.4-.03,.65-.07,.23-.04,.61-.05,.88,.17,.25,.2,.37,.41,.51,.52,.14,.13,.31,.23,.5,.31,.37,.14,.8,.16,1.17,.03,.74-.25,1.2-1.19,.98-1.95l-.22-.75,.67,.41c.37,.23,.9,.16,1.35-.1,.46-.24,.81-.67,1.15-1.15,.34-.47,.7-1.01,1.18-1.44,.48-.4,.8-.77,.77-1.29-.03-.65-.46-1.31-.91-1.89l.53-.25c.12,.54,.37,1.05,.71,1.48,.17,.22,.36,.39,.59,.61,.11,.11,.24,.24,.33,.42,.1,.17,.14,.39,.15,.54,.02,.32,.07,.47,.19,.55,.12,.07,.37,.06,.6-.03,.48-.16,.89-.55,1.22-.97,.33-.44,.39-.85,.12-1.32-.12-.23-.29-.47-.44-.75-.14-.26-.32-.63-.21-1.05,.11-.43,.48-.63,.57-.78,.11-.14,.13-.33,.06-.55-.12-.46-.57-.81-.9-1.38-.15-.28-.29-.66-.15-1.07,.15-.35,.41-.66,.88-.72,.24-.02,.49,.11,.62,.28,.14,.18,.18,.35,.22,.49,.07,.27,.16,.42,.33,.66,.79,.96,.75,2.32,1.49,2.89,.36,.3,.88,.42,1.15,.17,.3-.23,.29-.76,.19-1.26-.24-1.06-.48-2.12-.72-3.16l-.32-1.4,.83,1.16c.15,.21,.51,.25,.81,.12,.31-.12,.5-.39,.6-.74,.2-.7-.04-1.5-.08-2.36,0-.22,0-.44,.04-.66,.04-.2,.07-.53,.43-.72,.35-.15,.59-.01,.74-.02,.15,.01,.3-.01,.44-.08,.58-.29,.91-1.05,.83-1.75-.05-.73-.34-1.46-.47-2.27-.03-.21-.05-.45,.04-.71,.1-.25,.26-.41,.37-.55,.21-.26,.33-.57,.37-.91,.07-.68-.16-1.37-.59-1.93-.42-.57-.97-1.04-1.54-1.51l-.18-.15,.13-.19c.9-1.36,.39-3.4-.93-4.19l-.2-.12,.11-.21c.4-.75,.61-1.54,.64-2.32l.27,.25c-.47,.05-.99,.12-1.5-.12-.53-.23-.78-.86-.76-1.34,.01-.97,.32-1.82-.15-2.49-.42-.67-1.22-1.05-1.99-.88-.21,.03-.44,.07-.7,.02-.25-.05-.48-.2-.64-.38-.31-.36-.45-.76-.65-1.08-.19-.34-.44-.56-.77-.62-.33-.06-.7,.03-1.05,.15-.71,.22-1.4,.67-2.26,.61-.43-.05-.83-.34-1-.74-.16-.4-.13-.82,0-1.19,.31-.76,1.02-1.14,1.64-1.4l-.02,.31c-.52-.3-1.16,.09-1.7,.41-.55,.3-1.14,.77-1.88,.61-.35-.09-.62-.35-.8-.59-.19-.24-.35-.45-.58-.61-.44-.32-.98-.46-1.49-.45-.51,0-1,.17-1.39,.44-.39,.27-.61,.69-.94,1.05-.33,.38-.86,.5-1.28,.45-.43-.03-.81-.14-1.18-.18-1.47-.18-2.59,.3-3.24,.67-.66,.4-.93,.7-.95,.68,0,0,.24-.34,.9-.77,.65-.41,1.78-.93,3.31-.78,.38,.04,.76,.14,1.17,.16,.4,.03,.81-.07,1.1-.4,.29-.31,.52-.78,.96-1.09,.42-.31,.96-.5,1.53-.51,.56-.02,1.16,.13,1.67,.48,.53,.34,.75,1.03,1.28,1.13,.52,.12,1.09-.27,1.64-.59,.28-.17,.57-.35,.91-.47,.33-.13,.77-.17,1.13,.05l.3,.18-.32,.14c-.59,.25-1.2,.62-1.43,1.21-.11,.29-.12,.63,0,.91,.12,.27,.39,.46,.7,.5,.64,.06,1.34-.35,2.08-.6,.37-.13,.8-.25,1.26-.17,.47,.07,.86,.44,1.06,.81,.22,.36,.37,.75,.61,1.01,.24,.27,.54,.3,.96,.22,.9-.21,1.93,.25,2.44,1.07,.27,.4,.38,.93,.34,1.4-.02,.47-.11,.91-.1,1.32,0,.41,.16,.77,.5,.92,.34,.16,.79,.13,1.24,.07l.28-.04v.28c-.04,.86-.26,1.72-.7,2.54l-.09-.33c1.56,.96,2.16,3.24,1.1,4.9l-.05-.34c.57,.47,1.16,.96,1.63,1.6,.48,.63,.78,1.46,.69,2.3-.04,.42-.2,.85-.48,1.19-.29,.33-.36,.46-.3,.84,.11,.72,.42,1.47,.48,2.32,.08,.85-.27,1.84-1.14,2.29-.42,.27-1.13,.04-1.18,.1-.03,0-.09,.12-.12,.31-.03,.18-.03,.36-.03,.55,.03,.75,.31,1.61,.07,2.53-.14,.92-1.53,1.77-2.41,.81l.51-.24c.24,1.05,.49,2.11,.73,3.18,.05,.28,.1,.58,.07,.9-.03,.32-.16,.68-.45,.92-.28,.25-.69,.32-1.02,.25-.34-.06-.62-.22-.88-.41-.53-.41-.74-1.05-.91-1.56-.18-.55-.34-1.01-.68-1.43-.17-.21-.36-.56-.42-.84-.07-.28-.16-.35-.24-.34-.11,0-.3,.16-.36,.33-.06,.14,0,.36,.11,.57,.22,.42,.75,.82,.95,1.49,.11,.32,.1,.77-.16,1.09-.25,.3-.45,.41-.47,.57-.1,.32,.31,.83,.6,1.36,.15,.27,.28,.63,.24,1.01-.04,.37-.21,.68-.4,.94-.38,.5-.86,.96-1.5,1.19-.31,.11-.7,.19-1.11-.02-.42-.24-.48-.76-.49-1.01-.02-.27-.1-.38-.3-.58-.2-.18-.45-.42-.65-.67-.4-.5-.69-1.09-.83-1.72l-.32-1.41,.86,1.16c.46,.62,.97,1.31,1.03,2.24,.02,.36-.09,.74-.29,1.05-.2,.3-.46,.52-.68,.72-.43,.38-.74,.85-1.1,1.35-.35,.49-.77,1.01-1.35,1.32-.55,.31-1.32,.46-1.95,.09l.44-.34c.3,1.08-.29,2.3-1.36,2.68-.52,.19-1.09,.16-1.59-.03-.25-.1-.49-.24-.69-.42-.21-.19-.34-.4-.46-.48-.15-.17-.66,.02-1.16,.02-.49,.02-.98-.06-1.45-.21-.93-.29-1.74-.88-2.29-1.67l-.23-.33,.38-.12c.26-.09,.53-.17,.76-.25l.05,.57c-1.02-.16-2.07-.33-3.07-.72-.99-.38-1.94-1.04-2.47-2-.55-.91-.72-2.18-.13-3.15,.26-.44,.56-.85,.55-1.2,.01-.34-.32-.58-.75-.75-1.82-.69-3.61-1.38-5.36-2.04-.86-.33-1.83-.69-2.47-1.51-.32-.42-.48-.94-.46-1.45,0-.51,.24-1.07,.72-1.37l-.1,.34c-.42-.89-1.13-1.64-1.98-2.1-.86-.47-1.85-.73-2.74-1.32-.84-.56-1.65-1.53-1.45-2.69,.13-.57,.55-1,1.03-1.23,.47-.24,1.18-.23,1.59,.24l-.43,.18c-.02-.61-.67-1.02-1.26-1.38-.59-.37-1.33-.7-1.68-1.49-.15-.38-.16-.83,.02-1.2,.17-.37,.44-.64,.7-.88,.54-.47,1.11-.82,1.54-1.28l-.04,.22c-.12-.41-.71-.74-.83-1.41-.11-.67,.3-1.22,.71-1.57,.85-.76,1.96-.88,2.63-1.52,.34-.3,.51-.7,.49-1.14-.02-.44-.16-.9-.23-1.38-.08-.47,0-1.08,.45-1.43,.42-.33,1.01-.38,1.46-.1l-.26,.08c.29-.67,1.01-.96,1.6-1.04,.61-.1,1.19-.1,1.74-.15,.55-.05,1.08-.15,1.47-.45,.19-.14,.35-.35,.42-.54,.06-.18-.06-.36-.22-.55-.32-.35-.74-.59-1.13-.88-.4-.28-.74-.67-.88-1.13-.07-.23-.08-.49,0-.72,.07-.25,.3-.42,.52-.49,.22-.06,.46-.07,.67,.02,.22,.07,.4,.32,.38,.55l-.18-.09c.86-.65,2.01-.11,2.24,.63l-.15-.03c.52-.55,1.26-.45,1.72-.25,.48,.22,.76,.57,.97,.84,.4,.56,.53,.89,.53,.89Z"/>
          </g>
          <path class="cls-6" d="M376.47,189.04c-.55-2.56-2.44-4.64-4.52-6.23-.87-.67-1.83-1.29-2.92-1.46-1.09-.17-2.32,.21-2.87,1.16l.15,1.83c-.23,2.91,2.01,5.36,3.08,8.08,.46,1.18,.84,2.6,2.01,3.11,.61,.26,1.32,.2,1.95-.02,2.48-.85,3.67-3.91,3.12-6.47Z"/>
          <path class="cls-11" d="M376.72,202.5c1.64-2.19,1.36-5.59-.62-7.48,1.05-1.36,.64-3.43-.47-4.74-1.11-1.32-2.73-2.06-4.3-2.76-.91-3.92-5.37-6.63-9.27-5.63-2.08-2.97-6.43-3.38-9.9-2.32-.85,.26-1.69,.59-2.58,.6-.65,0-1.29-.16-1.93-.24-3.55-.43-7.03,2.12-8.36,5.43-.21,.53-.39,1.09-.73,1.54-.45,.6-1.14,.96-1.73,1.42-1.27,1.01-2.06,2.59-2.11,4.21-.04,1.38,.42,2.83-.14,4.09-.28,.63-.8,1.14-1.02,1.8-.63,1.9,1.49,3.8,1.13,5.77-.07,.4-.25,.78-.35,1.17-.22,.81-.13,1.69,.25,2.44,.29,.58,.75,1.1,.79,1.74,.04,.49-.17,.95-.27,1.44-.22,1.17,2.37,5.65,3.39,6.28l30.24-.15c2.28-.5,4.12-2.6,4.3-4.93,.03-.39,.03-.81,.27-1.12,.2-.26,.53-.39,.82-.55,1.93-1.07,2.13-3.75,1.89-5.95-.03-.31-.07-.62,0-.92,.11-.44,.43-.78,.7-1.14Z"/>
          <path class="cls-9" d="M367.92,202.52c.01-5.35-3.43-11.45-8.78-14-3.37-1.6-5.99-1.58-7.75-1.76-3.95-.4-7.11,1.6-7.11,1.6-1.66,.41-7.69,6.09-7.92,12.17-.26,6.75-.31,14.99,.62,20,1.85,10.07,9.63,11.16,9.63,11.16,0-.02-.03,5.64-.03,5.64l21.25,.64,.1-35.45Z"/>
          <path class="cls-11" d="M340.16,208.25c0,.69,.57,1.26,1.28,1.28,.71,.02,1.3-.52,1.31-1.2,0-.68-.57-1.26-1.28-1.28-.72-.02-1.3,.52-1.31,1.2Z"/>
          <path class="cls-11" d="M338.9,204.5c.16,.17,1.13-.59,2.52-.62,1.39-.05,2.43,.64,2.58,.47,.07-.08-.1-.38-.55-.69-.45-.31-1.2-.61-2.07-.58-.87,.03-1.59,.36-2,.7-.42,.34-.56,.65-.48,.72Z"/>
          <path class="cls-11" d="M347.34,215.31c0-.08-.87-.21-2.28-.35-.36-.03-.7-.09-.76-.33-.09-.26,.05-.64,.21-1.06,.31-.87,.64-1.78,.99-2.74,1.37-3.9,2.35-7.1,2.19-7.15-.16-.05-1.39,3.06-2.76,6.96-.33,.96-.64,1.88-.94,2.75-.12,.41-.35,.87-.15,1.4,.1,.26,.37,.45,.6,.51,.23,.06,.43,.06,.61,.07,1.42,.04,2.29,.03,2.3-.05Z"/>
          <path class="cls-7" d="M346.56,231.69s6.81,.27,13.45-3.94c0,0-3.31,7.11-13.45,6.42v-2.47Z"/>
          <path class="cls-11" d="M339.34,199.26c.24,.33,1.31,.08,2.56,.15,1.25,.03,2.29,.38,2.56,.06,.12-.15-.03-.48-.47-.81-.43-.33-1.18-.63-2.04-.67-.86-.04-1.62,.2-2.08,.49-.46,.29-.63,.61-.53,.77Z"/>
          <path class="cls-11" d="M355.47,208.23c.02,.69-.55,1.26-1.27,1.29-.71,.03-1.31-.5-1.32-1.19-.02-.68,.55-1.26,1.27-1.29,.72-.03,1.31,.5,1.32,1.19Z"/>
          <path class="cls-11" d="M358,204.57c-.16,.17-1.14-.57-2.53-.59-1.39-.03-2.43,.67-2.58,.5-.07-.08,.09-.38,.54-.7,.44-.32,1.2-.62,2.06-.61,.87,.02,1.6,.35,2.01,.68,.42,.33,.57,.64,.49,.72Z"/>
          <path class="cls-11" d="M358.28,199.89c-.28,.31-1.35-.03-2.65-.06-1.29-.07-2.39,.18-2.64-.15-.11-.16,.07-.48,.55-.77,.48-.29,1.27-.53,2.16-.49,.89,.04,1.66,.33,2.1,.66,.45,.33,.6,.66,.48,.81Z"/>
          <path class="cls-9" d="M366.66,212.29c-.02-.75,.81-2.55,1.55-2.68,1.98-.36,5.56-.29,5.72,4.75,.22,6.89-6.75,5.68-6.76,5.49-.01-.15-.44-4.96-.5-7.56Z"/>
          <path class="cls-7" d="M368.99,217.27s.12,.08,.33,.17c.2,.08,.54,.14,.9,0,.72-.29,1.3-1.46,1.29-2.71,0-.63-.15-1.22-.39-1.71-.23-.5-.56-.84-.93-.89-.37-.07-.62,.15-.7,.35-.09,.2-.04,.33-.07,.34-.02,.02-.15-.11-.1-.4,.02-.14,.1-.3,.26-.44,.16-.14,.4-.22,.66-.2,.53,.02,1.03,.49,1.29,1.03,.29,.54,.47,1.2,.48,1.91,0,1.39-.67,2.71-1.66,3.03-.48,.14-.89,0-1.1-.15-.22-.16-.26-.32-.24-.33Z"/>
          <path class="cls-11" d="M334.96,200.81c1.37-.9,2.23-2.11,2.11-3.75,.93,.25,1.84-.96,2.36-1.77,.52-.81,1.17-1.23,1.1-2.19-.01-.19-.03-.39,.06-.56,.13-.27,.46-.36,.74-.46,1.46-.49,2.62-1.78,2.96-3.28,1.49,.61,3.14,.84,4.74,.67,.74,1.02,2.02,1.62,3.27,1.53,1.25-.08,2.44-.85,3.04-1.96,.44,.85,1.34,1.38,2.28,1.6,.93,.21,1.91,.15,2.86,.09-.37,1.86,.88,3.9,2.71,4.41,.25,.07,.53,.14,.65,.36,.12,.24,0,.52-.09,.77-.56,1.59,.53,3.55,2.18,3.91-1.11,.9-.94,2.92,.3,3.63,.25,.15,.59,.32,.55,.61-.01,.11-.08,.21-.14,.3-.5,.69-.99,1.45-1.03,2.3-.04,.85,.56,1.79,1.41,1.81-.44,.41-.84,.93-.84,1.53,0,.6,.62,1.19,1.18,.97,.24-.1,3.65-.85,3.8-1.06,1.89-2.69-.64-5.56-.91-8.84-.27-3.28-1.49-6.43-3.2-9.24-.72-1.18-1.53-2.31-2.53-3.26-1.14-1.08-2.5-1.9-3.86-2.7-1.77-1.04-3.58-2.08-5.59-2.5-3.74-.79-7.57,.66-11,2.34-1.3,.64-2.6,1.33-3.69,2.3-1.3,1.16-2.24,2.66-3.05,4.19-1.18,2.22-2.14,4.61-2.32,7.11"/>
          <path class="cls-4" d="M333.55,198.43s.06-.29,.35-.75c.14-.23,.34-.5,.53-.85,.18-.35,.33-.79,.36-1.3,.04-.51-.01-1.08-.07-1.7-.06-.62-.12-1.32,0-2.05,.12-.73,.4-1.49,.86-2.19,.23-.35,.5-.69,.83-.99,.32-.31,.69-.57,1.07-.83,.37-.26,.75-.55,1.03-.93,.28-.38,.44-.84,.62-1.31,.36-.95,.89-1.88,1.61-2.7,.71-.82,1.59-1.58,2.62-2.11,.51-.29,1.07-.49,1.64-.66,.58-.14,1.19-.25,1.81-.25,.31,0,.62,.03,.93,.05,.31,.04,.61,.1,.92,.15,.61,.11,1.23,.11,1.84-.04,.61-.14,1.21-.37,1.85-.54,.63-.19,1.28-.3,1.95-.39,.66-.08,1.34-.09,2.02-.06,.68,.04,1.36,.15,2.03,.33,1.33,.37,2.62,1.08,3.52,2.21,.09,.11,.18,.22,.26,.33l-.11-.04c2.07-.53,4.26-.01,5.96,1.07,1.71,1.08,3,2.76,3.43,4.64l-.06-.07c.84,.38,1.67,.75,2.44,1.22,.77,.47,1.47,1.03,2.01,1.72,.53,.7,.86,1.52,.95,2.36,.09,.83-.1,1.7-.61,2.34v-.12c1,.96,1.52,2.26,1.66,3.5,.14,1.24-.1,2.46-.64,3.44-.12,.25-.29,.47-.44,.69-.16,.21-.33,.41-.46,.63-.13,.21-.22,.44-.23,.68-.02,.24,.01,.48,.04,.71,.09,.95,.09,1.83-.01,2.62-.11,.78-.32,1.47-.63,2.01-.31,.54-.7,.91-1.05,1.14-.35,.24-.66,.34-.84,.47-.18,.12-.24,.22-.25,.21,0,0,.05-.1,.23-.24,.17-.14,.48-.25,.82-.49,.34-.24,.72-.61,1.01-1.14,.3-.53,.5-1.21,.6-1.98,.1-.78,.09-1.65,0-2.59-.02-.24-.06-.48-.04-.74,.01-.26,.11-.52,.24-.74,.14-.23,.31-.43,.46-.64,.15-.22,.31-.43,.43-.68,.52-.95,.74-2.14,.61-3.36-.14-1.21-.65-2.47-1.63-3.4l-.06-.05,.05-.06c.47-.61,.65-1.42,.56-2.22-.09-.8-.41-1.6-.92-2.26-.52-.67-1.21-1.21-1.96-1.67-.76-.46-1.58-.83-2.42-1.21l-.04-.02v-.05c-.44-1.82-1.69-3.46-3.36-4.51-1.66-1.05-3.79-1.55-5.8-1.04l-.07,.02-.05-.06c-.08-.11-.17-.21-.25-.32-.86-1.09-2.12-1.78-3.41-2.14-.65-.17-1.32-.28-1.99-.32-.67-.03-1.33-.02-1.98,.06-.65,.08-1.3,.2-1.91,.38-.62,.17-1.23,.41-1.86,.54-.32,.07-.64,.12-.96,.12-.32,0-.64-.03-.95-.08-.31-.05-.61-.11-.92-.15-.3-.02-.6-.06-.9-.05-.6,0-1.19,.1-1.76,.24-.56,.17-1.11,.36-1.61,.64-1.02,.52-1.87,1.26-2.58,2.07-.71,.81-1.23,1.72-1.59,2.65-.18,.47-.35,.94-.65,1.35-.3,.4-.69,.69-1.07,.96-.38,.26-.75,.52-1.06,.82-.31,.3-.58,.62-.81,.97-.45,.68-.73,1.43-.85,2.14-.13,.71-.08,1.4-.02,2.02,.05,.62,.1,1.2,.05,1.72-.04,.52-.19,.97-.38,1.32-.2,.35-.4,.62-.55,.84-.15,.23-.25,.41-.3,.53-.06,.13-.08,.19-.09,.19Z"/>
          <path class="cls-4" d="M358.78,180.45s-.18-.1-.52-.26c-.34-.15-.85-.34-1.51-.41-.66-.06-1.47,0-2.26,.38-.79,.37-1.54,1.03-2.02,1.91-.14,.25-.25,.52-.33,.79-.07,.26-.07,.54,.07,.72l.17,.23-.28-.07c-.77-.2-1.55-.04-2.13,.3-.58,.34-.95,.85-1.14,1.3-.2,.46-.24,.87-.24,1.14,0,.28,.02,.43,0,.43,0,0-.02-.04-.03-.11-.02-.07-.03-.18-.04-.32-.02-.28,0-.7,.19-1.19,.19-.48,.56-1.03,1.17-1.4,.6-.37,1.43-.55,2.27-.35l-.11,.16c-.2-.27-.18-.61-.1-.9,.08-.29,.2-.57,.34-.83,.5-.93,1.3-1.61,2.12-1.99,.83-.38,1.68-.44,2.35-.35,.68,.08,1.2,.3,1.53,.48,.17,.09,.29,.17,.37,.23,.08,.06,.12,.09,.12,.1Z"/>
          <path class="cls-4" d="M370.14,188.11s-.07,.1-.24,.25c-.17,.15-.42,.36-.77,.56-.35,.2-.81,.4-1.37,.44-.54,.04-1.2-.07-1.72-.48l.15-.03c-.06,.09-.13,.19-.2,.29-.07,.09-.15,.18-.23,.28-.5,.54-1.1,.91-1.7,1.11-.59,.21-1.17,.27-1.64,.24-.47-.03-.84-.13-1.09-.22-.24-.1-.37-.17-.36-.18,.01-.04,.54,.24,1.46,.26,.46,0,1-.07,1.57-.28,.57-.2,1.14-.56,1.61-1.07,.07-.09,.15-.17,.22-.26,.06-.09,.13-.18,.19-.27l.07-.1,.09,.07c.47,.38,1.07,.49,1.58,.46,.52-.03,.96-.2,1.31-.38,.7-.37,1.05-.72,1.07-.69Z"/>
          <path class="cls-4" d="M373.92,194.42s0,.04-.01,.13c-.02,.08-.06,.2-.15,.34-.16,.27-.53,.61-1.09,.76-.56,.16-1.27,.06-1.97-.17-.35-.12-.72-.24-1.1-.41-.37-.17-.77-.42-.97-.85-.02-.04-.03-.08-.05-.11l.16,.05c-.65,.53-1.33,1-2.02,1.27-.69,.28-1.38,.34-1.93,.24-.55-.09-.97-.32-1.2-.52-.12-.1-.2-.19-.25-.25-.05-.06-.07-.1-.07-.1,.01-.01,.13,.12,.37,.29,.24,.17,.65,.37,1.18,.44,.53,.07,1.18,0,1.84-.27,.66-.27,1.31-.73,1.96-1.26l.11-.09,.06,.13s.02,.06,.04,.09c.17,.36,.52,.59,.87,.75,.35,.16,.73,.29,1.07,.41,.69,.24,1.35,.34,1.88,.21,.53-.12,.89-.42,1.06-.67,.18-.25,.21-.43,.23-.42Z"/>
          <path class="cls-4" d="M380.76,169.65s-.12,0-.33,.07c-.2,.06-.5,.2-.76,.51-.26,.3-.47,.76-.49,1.33-.03,.56,.12,1.19,.3,1.87l.03,.11h-.12c-.77,0-1.64,.23-2.37,.78-.73,.54-1.26,1.44-1.25,2.44-.01,.91,.4,1.79,1.05,2.27l.24,.18h-.29c-1.06,.02-2.01,.54-2.59,1.21-.6,.67-.81,1.48-.83,2.13-.02,.66,.13,1.18,.27,1.52,.14,.34,.25,.5,.24,.51,0,0-.04-.04-.09-.12-.06-.08-.13-.2-.21-.37-.16-.33-.34-.86-.33-1.55,0-.68,.21-1.53,.83-2.24,.6-.71,1.58-1.27,2.72-1.29l-.06,.18c-.71-.53-1.15-1.47-1.14-2.44,0-.53,.13-1.05,.37-1.49,.24-.45,.59-.82,.97-1.11,.77-.57,1.68-.81,2.49-.8l-.09,.11c-.17-.68-.31-1.34-.27-1.93,.03-.59,.27-1.08,.56-1.39,.28-.32,.6-.45,.82-.5,.11-.02,.2-.03,.25-.02,.06,0,.09,0,.09,.01Z"/>
          <path class="cls-4" d="M393.39,184.31s-.04,.03-.11,.07c-.08,.04-.19,.1-.34,.17-.3,.13-.77,.28-1.38,.35-.61,.06-1.36,.04-2.17-.21-.81-.23-1.66-.71-2.36-1.47l.16-.02c-.59,1.03-1.67,1.98-3.05,2.2-1.47,.22-2.94-.57-3.47-1.75h.18c-.16,.47-.46,.87-.8,1.18-.35,.3-.73,.52-1.12,.66-.77,.29-1.51,.3-2.09,.27-.59-.04-1.05-.13-1.36-.19-.31-.06-.48-.11-.48-.12,0-.01,.17,.01,.49,.06,.31,.04,.77,.11,1.35,.13,.58,.02,1.29-.01,2.03-.3,.72-.28,1.5-.86,1.79-1.76l.08-.23,.1,.22c.5,1.09,1.89,1.84,3.27,1.62,1.3-.2,2.35-1.11,2.92-2.09l.07-.12,.09,.1c.66,.73,1.48,1.2,2.26,1.44,.78,.26,1.52,.29,2.11,.25,1.2-.1,1.83-.51,1.84-.46Z"/>
          <path class="cls-4" d="M386.38,194.56s0,.05-.08,.13c-.07,.07-.2,.15-.39,.18-.37,.06-.91,.01-1.53-.22-.61-.23-1.3-.69-1.79-1.43-.48-.73-.74-1.72-.57-2.73v-.02s.15,.11,.15,.11c-.9,.48-1.9,.57-2.75,.44-.86-.13-1.58-.49-2.11-.86-.54-.37-.9-.76-1.13-1.04-.23-.28-.33-.46-.32-.46,.03-.03,.47,.67,1.53,1.38,.53,.35,1.23,.68,2.06,.79,.82,.12,1.78,.02,2.63-.44l.18-.1-.03,.21v.02c-.17,.95,.07,1.89,.52,2.59,.45,.7,1.1,1.15,1.68,1.39,.58,.24,1.12,.31,1.46,.28,.36-.03,.47-.25,.48-.23Z"/>
          <path class="cls-4" d="M365.7,170.24c.05,0-.36,.79-.26,2.12,.05,.66,.25,1.44,.72,2.18,.47,.73,1.21,1.39,2.14,1.79,.52,.22,1.06,.34,1.58,.37h.13s-.03,.13-.03,.13c-.22,.78-.27,1.55-.2,2.23,.07,.68,.24,1.27,.43,1.74,.1,.23,.19,.44,.3,.61,.1,.16,.24,.27,.37,.27,.13,.01,.23-.04,.28-.09,.05-.05,.06-.09,.06-.09,0,0,0,.04-.04,.11-.04,.07-.15,.14-.31,.14-.16,0-.33-.11-.45-.28-.12-.17-.22-.38-.33-.62-.22-.47-.4-1.07-.49-1.77-.08-.7-.05-1.5,.18-2.3l.09,.13c-.54-.03-1.11-.15-1.66-.38-.96-.41-1.74-1.11-2.22-1.88-.48-.77-.67-1.59-.7-2.27-.04-.68,.08-1.23,.19-1.59,.06-.18,.11-.32,.15-.41,.04-.09,.07-.14,.07-.13Z"/>
          <path class="cls-9" d="M346.76,236.75s-1.01,11.9,8.28,12.81c9.29,.91,12.95-7.51,12.97-11.45l-4.43-2.76-16.82,1.4Z"/>
        </g>
        <path class="cls-7" d="M347.7,218.93c.12,.17,0,.05,.17,.18,.6,.45,1.23,.89,1.95,1.07,.72,.18,1.56,.01,1.94-.57,.34-.52,.23-1.26-.19-1.78-.41-.51-1.03-.86-1.77-1-.06-.01-.13-.02-.19-.03-1.11-.18-2.17,.72-2.02,1.84,.02,.12,.05,.22,.1,.3Z"/>
        <path class="cls-11" d="M352.64,217.33c.05,.13-1.19,.77-2.77,1.41-1.58,.65-2.91,1.06-2.97,.93s1.19-.77,2.77-1.41c1.58-.65,2.91-1.06,2.97-.93Z"/>
      </g>
      <g>
        <path class="cls-10" d="M333.45,240.09l12.95-4.31c3.81,9.32,16.2,7.98,21.53-.74l15.42,5.24,8.67,17.35-6.51,36.62,11.92,23.59-31.92,5.99-27.88-12.94-2.38-1.8-4.74-62.41,2.95-6.6Z"/>
        <path class="cls-10" d="M333.45,240.09s-10.27,4.27-11.35,15.63c-.41,4.39-3.51,24.95-3.51,24.95l-14.53-1.73-3.51,11.59s16.25,8.47,21.26,9.57c8.66,1.9,12.85-3,12.85-3l-1.21-57.02Z"/>
        <path class="cls-11" d="M330.7,253.95s.02,.2,0,.56c-.01,.41-.03,.94-.05,1.61-.03,.7-.06,1.56-.05,2.55,0,.99-.02,2.13,.03,3.38,.03,1.25,.07,2.62,.17,4.09,.07,1.47,.21,3.04,.34,4.69,.3,3.3,.71,6.92,1.21,10.71,1,7.58,1.97,14.45,2.41,19.45,.13,1.25,.21,2.38,.27,3.37,.08,.99,.13,1.85,.14,2.55,.02,.67,.04,1.21,.05,1.61,0,.37,0,.56,0,.56-.01,0-.04-.19-.07-.56-.03-.4-.07-.94-.12-1.61-.04-.7-.11-1.55-.21-2.54-.09-.99-.19-2.12-.33-3.36-.51-4.98-1.52-11.84-2.52-19.43-.49-3.79-.89-7.42-1.18-10.73-.12-1.65-.25-3.23-.31-4.7-.09-1.47-.11-2.85-.13-4.1-.04-1.25,0-2.39,.03-3.39,.01-1,.06-1.85,.11-2.55,.05-.67,.09-1.21,.12-1.61,.03-.37,.06-.56,.07-.56Z"/>
        <g>
          <path class="cls-9" d="M303.4,256.12s4.42-4.29,6.11-3.77,3.12,1.86,3.12,1.86c0,0,1.69-1,2.6,0,.91,1,1.82,2.82,1.82,2.82,0,0,1.61-.23,2.86,1.85s4.32,9.08,5.48,10.25,2.54,1.83,4.19,2.41,15.45,5.25,15.45,5.25l-5.08,12.67s-20.29-11.87-21.07-12.65-6.89-4.81-7.8-7.28c-.91-2.47-7.67-10.01-7.67-10.01v-3.38Z"/>
          <path class="cls-7" d="M316.82,261.14s-.04,.19-.24,.48c-.2,.28-.57,.68-1.18,.95l.08-.13c.11,.77,0,1.81-.63,2.78-.16,.24-.33,.47-.56,.68-.23,.2-.51,.4-.89,.43-.38,.04-.77-.21-.93-.53-.18-.31-.24-.65-.29-.98-.15-1.16-.3-2.24-.41-3.26-.06-.51,.05-1.08,.37-1.47,.31-.39,.71-.59,1.05-.76,.7-.32,1.26-.54,1.59-.8,.34-.24,.46-.44,.49-.42,.02,0-.07,.24-.4,.54-.32,.31-.9,.58-1.56,.93-.32,.18-.68,.39-.92,.72-.25,.33-.32,.76-.27,1.24,.14,1.01,.29,2.09,.44,3.23,.06,.61,.32,1.23,.82,1.18,.49-.05,.9-.52,1.18-.93,.59-.87,.74-1.83,.67-2.55v-.1s.08-.03,.08-.03c.57-.22,.94-.55,1.17-.8,.23-.25,.32-.41,.35-.4Z"/>
          <path class="cls-7" d="M318.11,264.9c-.04,.09-.71-.17-1.18-.87-.48-.7-.47-1.42-.37-1.42,.11-.02,.27,.59,.69,1.2,.41,.62,.92,.99,.86,1.09Z"/>
          <path class="cls-7" d="M317.61,273.06c-.12,0-.07-1.28-.55-2.75-.46-1.47-1.25-2.48-1.16-2.56,.06-.07,1.03,.88,1.52,2.44,.51,1.55,.28,2.89,.18,2.87Z"/>
          <path class="cls-7" d="M312.29,262.48s-.03,.23-.19,.61c-.16,.37-.4,.97-1.05,1.43-.32,.22-.75,.39-1.24,.32-.48-.07-.93-.42-1.19-.86-.27-.44-.43-.95-.56-1.47-.12-.51-.24-1.05-.3-1.63-.13-1.16,.24-2.28,.77-3.11,.53-.84,1.19-1.46,1.76-1.92,.58-.46,1.08-.79,1.42-1,.35-.22,.55-.32,.56-.3,.04,.05-.71,.57-1.81,1.52-.54,.48-1.15,1.09-1.64,1.9-.49,.8-.81,1.81-.69,2.89,.05,.54,.17,1.06,.28,1.58,.11,.5,.26,.98,.49,1.37,.23,.39,.56,.66,.94,.73,.37,.07,.75-.05,1.04-.23,.59-.37,.86-.92,1.06-1.26,.19-.36,.3-.56,.32-.55Z"/>
        </g>
        <g class="cls-8">
          <path d="M372.74,295.59c-1.26,1.25-2.66,2.54-4.42,2.83-1.55,.26-3.11-.31-4.58-.87-8.32-3.17-16.64-6.33-24.96-9.5l-2.02,2.76c8.59,6.97,19.32,13.07,29.92,15.64,3.44,.83,7.33,.06,10.19-2.02,2.22-1.62,3.58-4.15,4.7-6.67,2.6-5.85,4.28-12.09,4.99-18.45-4.13,5.81-8.76,11.27-13.82,16.29Z"/>
        </g>
        <path class="cls-10" d="M379.18,248.2c-.63,.66-15.15,31.65-15.15,31.65l-28.17-6.3-3.18,15.51s25.54,11.33,32.21,13.34c4.27,1.29,7.21,1.02,11.38-2.96,4.18-3.98,14.77-29.64,15.95-34.81,1.13-4.91,5.18-17.95-8.9-24.36l-4.16,7.93Z"/>
        <g>
          <path class="cls-11" d="M313.33,270.56c.92-.24,1.34-1.47,.81-2.36l-16.7-28.08c-.31-.53-.88-.78-1.42-.63l-15.94,4.41c-1.26,.25-1.61,2.34-1.08,3.23l16.82,26.77c.39,.64,2.1,1.52,3.05,1.16"/>
          <path class="cls-4" d="M313.87,270.11s-.12-.15-.31-.45c-.21-.34-.49-.79-.85-1.35-.74-1.21-1.78-2.91-3.06-5-2.58-4.27-6.11-10.12-10-16.58-.97-1.6-1.92-3.25-2.84-4.7-.25-.31-.59-.51-.93-.59-.36-.09-.69-.03-1.06,.09-.73,.2-1.45,.4-2.15,.59-2.79,.76-5.31,1.44-7.43,2.02-2.09,.55-3.8,1.01-5.02,1.33-.57,.14-1.03,.26-1.37,.34-.31,.07-.48,.11-.48,.09,0-.01,.16-.07,.47-.17,.34-.1,.79-.24,1.35-.41,1.21-.35,2.91-.84,4.99-1.45,2.12-.6,4.63-1.31,7.42-2.1,.7-.2,1.41-.4,2.14-.6,.35-.11,.79-.21,1.19-.1,.4,.09,.79,.33,1.09,.69,.99,1.54,1.89,3.11,2.88,4.74,3.87,6.49,7.37,12.36,9.93,16.65,1.24,2.12,2.26,3.84,2.98,5.07,.33,.58,.6,1.04,.8,1.39,.18,.32,.27,.49,.26,.5Z"/>
          <path class="cls-1" d="M290.53,248.24c0,.5-.39,.9-.88,.9s-.88-.4-.88-.9,.39-.9,.88-.9,.88,.4,.88,.9Z"/>
        </g>
        <g>
          <path class="cls-9" d="M291.03,254.04c-.09,.54-3.69,11.46-4.23,12.53-.54,1.06,0,3.13,0,3.13,0,0-1.26,2.61,.72,4.41,0,0,.14,2.34,1.2,2.79,1.05,.45,1.86,1.53,1.86,1.53,0,0,5.94,8.1,6.57,8.91,.63,.81,3.39,3.2,3.39,3.2,0,0,8.38-3.05,3.94-11.04l-2.52-1.6,.86-6.46s2.07-1.63,1.62-2.71c-.45-1.08-1.35-.63-1.35-.63,0,0,.79-2.25-1.13-2.61l-7.41,3.58s5.49-5.53,4.68-7.06c-.81-1.53-1.17-1.28-1.17-1.28l-7.11,6.01s1.77-6.62,2.25-8.73c.9-3.94-2.16-3.94-2.16-3.94Z"/>
          <path class="cls-7" d="M302.99,268.43s-.45,.61-1.34,1.45c-.89,.84-2.2,1.9-3.78,2.89-1.58,.99-3.12,1.7-4.26,2.13-1.14,.43-1.87,.61-1.89,.57-.02-.06,.68-.33,1.78-.82,1.1-.49,2.6-1.24,4.16-2.21,1.56-.98,2.88-2,3.8-2.77,.93-.77,1.47-1.29,1.52-1.24Z"/>
          <path class="cls-7" d="M298.05,260.7s-.41,.59-1.24,1.39c-.82,.8-2.02,1.84-3.39,2.93-2.74,2.17-5.16,3.68-5.24,3.55-.02-.04,.56-.44,1.47-1.13,.91-.69,2.17-1.64,3.54-2.72,1.37-1.08,2.59-2.08,3.45-2.82,.87-.74,1.38-1.23,1.42-1.19Z"/>
          <path class="cls-7" d="M301.88,270.17s.13-.16,.45-.1c.3,.07,.73,.4,.77,1,.02,.59-.39,1.16-.83,1.66-.44,.52-.93,1.07-1.47,1.64-1.08,1.13-2.15,2.07-2.95,2.71-.8,.64-1.33,.99-1.36,.95-.07-.09,1.89-1.68,4.03-3.92,.54-.56,1.04-1.1,1.48-1.6,.45-.49,.81-.97,.82-1.43,.01-.44-.31-.77-.54-.85-.24-.1-.4-.01-.41-.05Z"/>
          <path class="cls-7" d="M301.2,277.61c-.09,.06-.47-.36-1-.79-.53-.44-1.02-.72-.98-.82,.03-.1,.64,.05,1.22,.53,.58,.47,.85,1.04,.76,1.09Z"/>
          <path class="cls-7" d="M301.4,282.17s.05,.38-.2,.93c-.24,.54-.76,1.24-1.6,1.66-.84,.42-1.71,.42-2.29,.28-.58-.13-.88-.36-.86-.4,.02-.06,.36,.08,.91,.13,.54,.06,1.33,.01,2.07-.36,.74-.37,1.25-.97,1.53-1.44,.29-.47,.38-.82,.44-.81Z"/>
          <path class="cls-7" d="M302.07,265.53s-.61,.42-1.65,.97c-1.05,.55-2.51,1.27-4.16,2-1.65,.74-3.16,1.36-4.26,1.78-1.11,.42-1.8,.64-1.82,.59-.02-.05,.64-.36,1.72-.85,1.2-.54,2.63-1.17,4.21-1.88,1.57-.71,3-1.36,4.2-1.9,1.08-.48,1.75-.77,1.77-.72Z"/>
        </g>
        <path class="cls-11" d="M376.39,253.95s-.06,.16-.2,.47c-.15,.32-.36,.78-.63,1.36-.57,1.21-1.39,2.96-2.44,5.21-2.14,4.52-5.2,11-8.95,18.92l-.05,.11-.12-.03c-8.05-1.79-17.67-3.93-28.17-6.26l.22-.15c-1.01,4.96-2.08,10.17-3.17,15.51l-.11-.22c.7,.31,1.46,.64,2.22,.98,9.59,4.19,18.74,8.19,27.21,11.41,2.12,.78,4.22,1.54,6.34,1.64,2.13,.11,4.11-.75,5.69-1.94,.8-.59,1.57-1.23,2.21-1.94,.31-.36,.63-.71,.88-1.11,.26-.4,.55-.77,.78-1.17,.48-.8,.95-1.59,1.36-2.38,.43-.78,.83-1.57,1.21-2.33,3.03-6.15,5.12-11.3,6.6-14.84,.72-1.76,1.28-3.14,1.67-4.09,.19-.46,.33-.81,.43-1.06,.1-.24,.16-.36,.16-.36,0,0-.03,.13-.12,.37-.09,.26-.23,.62-.4,1.08-.35,.95-.89,2.34-1.6,4.12-1.44,3.56-3.49,8.72-6.49,14.9-.38,.77-.77,1.56-1.2,2.35-.41,.8-.88,1.59-1.36,2.4-.23,.41-.52,.79-.78,1.19-.25,.41-.58,.78-.91,1.15-.66,.74-1.43,1.37-2.24,1.98-.82,.6-1.72,1.14-2.72,1.51-.99,.37-2.08,.55-3.18,.51-2.2-.09-4.32-.87-6.45-1.64-8.5-3.21-17.64-7.21-27.24-11.4-.76-.34-1.52-.67-2.22-.98l-.14-.06,.03-.15c1.1-5.34,2.16-10.55,3.18-15.51l.04-.19,.19,.04c10.5,2.36,20.11,4.52,28.16,6.33l-.17,.08c3.8-7.9,6.91-14.37,9.07-18.87,1.08-2.23,1.93-3.97,2.51-5.17,.29-.58,.51-1.03,.67-1.35,.15-.3,.24-.45,.24-.45Z"/>
        <path class="cls-11" d="M387.37,300.88s-.23,.24-.7,.63c-.46,.39-1.16,.92-2.05,1.53-1.78,1.23-4.39,2.74-7.47,3.95-3.09,1.2-6.02,1.87-8.17,2.17-1.07,.15-1.94,.24-2.55,.27-.6,.03-.94,.04-.94,.01,0-.03,.33-.08,.93-.16,.6-.07,1.46-.2,2.52-.39,2.12-.37,5.01-1.07,8.07-2.26,3.05-1.2,5.66-2.65,7.46-3.82,.9-.58,1.62-1.07,2.11-1.43,.49-.35,.77-.53,.79-.51Z"/>
        <path class="cls-11" d="M324.7,295.14c-.07-.01,.12-.95,.11-2.48,0-.76-.08-1.67-.25-2.67-.19-.99-.48-2.06-.91-3.15-.44-1.08-.98-2.05-1.53-2.89-.57-.83-1.14-1.54-1.68-2.09-1.06-1.1-1.85-1.65-1.81-1.71,.02-.02,.22,.1,.58,.35,.18,.12,.4,.27,.63,.48,.24,.2,.52,.41,.79,.7,.57,.53,1.18,1.24,1.78,2.08,.58,.85,1.14,1.85,1.6,2.95,.44,1.11,.73,2.21,.9,3.23,.15,1.02,.21,1.95,.17,2.73,0,.39-.05,.74-.08,1.05-.03,.31-.08,.57-.12,.78-.09,.43-.15,.66-.18,.65Z"/>
        <path class="cls-11" d="M327.6,291.3c-.07,.01-.19-.74-.56-1.89-.37-1.15-1.04-2.7-2.1-4.21-1.07-1.51-2.3-2.66-3.26-3.39-.96-.73-1.63-1.1-1.6-1.16,.01-.02,.19,.05,.5,.2,.31,.14,.75,.39,1.26,.74,1.02,.69,2.32,1.84,3.42,3.38,1.09,1.55,1.74,3.16,2.04,4.35,.15,.6,.25,1.09,.28,1.43,.04,.34,.04,.53,.02,.54Z"/>
      </g>
      <path class="cls-11" d="M387.19,303.88s-.14,.19-.44,.49c-.3,.3-.75,.71-1.32,1.2-1.14,.98-2.78,2.27-4.7,3.52-1.92,1.26-3.76,2.24-5.12,2.89-.68,.32-1.24,.57-1.63,.72-.39,.16-.61,.23-.62,.21-.02-.05,.81-.47,2.13-1.17,1.32-.71,3.12-1.72,5.03-2.97,1.91-1.25,3.56-2.49,4.74-3.41,1.18-.92,1.89-1.52,1.93-1.48Z"/>
      <g>
        <polygon class="cls-9" points="290.94 367.36 273.19 396.23 287.23 406.8 309.35 379.76 290.94 367.36"/>
        <g>
          <path class="cls-10" d="M274.43,393.94l-.71,.93s-20.61-5.63-23.05-2.76l31.5,23.63,7.43-10.8c-6.31-1.34-11.39-4.78-15.17-10.99Z"/>
          <g class="cls-2">
            <path class="cls-1" d="M283.9,405.89c.48,.62,.39,1.63-.21,2.14-.6,.51-1.62,.42-2.12-.19-.5-.62-.42-1.82,.24-2.26,.66-.44,1.85-.27,2.18,.44"/>
          </g>
          <g class="cls-2">
            <path class="cls-1" d="M282.17,415.73l1.79-2.6-30.84-21.7s-1.86-.44-2.44,.66l31.5,23.63Z"/>
          </g>
          <path class="cls-11" d="M273.55,394.87c-.11,.16,.61,.8,.99,1.87,.41,1.05,.3,2.01,.49,2.06,.16,.08,.62-1.01,.13-2.29-.48-1.28-1.55-1.8-1.62-1.63Z"/>
          <path class="cls-11" d="M269.22,393.76c-.15,.12,.32,.88,.36,1.93,.06,1.04-.33,1.84-.17,1.95,.13,.13,.91-.69,.84-1.98-.06-1.3-.91-2.04-1.03-1.89Z"/>
          <path class="cls-11" d="M264.38,396.31c.11,.14,.91-.47,1.14-1.61,.25-1.14-.23-2.01-.39-1.93-.18,.06-.05,.86-.26,1.8-.19,.94-.63,1.62-.49,1.75Z"/>
        </g>
      </g>
      <g>
        <polygon class="cls-9" points="327.53 393.27 328.06 437.02 342.82 432.1 348.02 392.71 327.53 393.27"/>
        <g>
          <path class="cls-10" d="M342.9,429.48s-9.65,8.06-15.2,2.35l-1.03,3.1-3.92,21.81c-.25,1.41,.55,2.87,1.96,3.27,1.09,.31,2.22-.03,2.95-.83,3.88-4.31,18.07-20.23,17.74-22.19l-.54-5.22c-.11-1.08-.89-1.99-1.96-2.29h0Z"/>
          <g class="cls-2">
            <path class="cls-1" d="M325.23,460.1l20.01-24.94,.1,1.14c.22,1.23-.29,1.77-.82,2.61-1.57,2.51-6.04,8.21-16.78,20.25-.62,.7-1.57,1.05-2.51,.93h0Z"/>
          </g>
          <g class="cls-2">
            <path class="cls-1" d="M341.69,432.07c-.65,.53-.79,1.57-.28,2.22,.51,.65,1.59,.79,2.26,.28,.66-.52,.87-1.76,.28-2.35-.58-.59-1.87-.69-2.38-.04"/>
          </g>
          <path class="cls-11" d="M330.53,447.78c-.15,.09-.9-1.27-2.61-1.88-1.69-.67-3.19-.15-3.24-.32-.03-.06,.3-.3,.94-.45,.63-.15,1.58-.14,2.52,.21,.94,.36,1.64,.97,2,1.49,.37,.53,.45,.92,.38,.95Z"/>
          <path class="cls-11" d="M328.88,451.56c-.12,.13-1.09-.67-2.55-.95-1.46-.31-2.67,.06-2.73-.1-.09-.13,1.19-.82,2.86-.48,1.67,.32,2.56,1.44,2.43,1.53Z"/>
          <path class="cls-11" d="M333.8,442.84c-.12,.14-1.59-1.1-3.83-1.72-2.23-.66-4.16-.4-4.18-.57-.06-.14,1.97-.69,4.36,0,2.4,.67,3.79,2.2,3.66,2.29Z"/>
          <path class="cls-11" d="M333.7,436.32c-.06,.17-1.64-.32-3.64-.22-2,.08-3.53,.71-3.6,.54-.09-.13,1.43-1.05,3.58-1.14,2.14-.11,3.74,.68,3.66,.81Z"/>
          <path class="cls-11" d="M328.93,436.15s-.06-.37,.06-1.02c.13-.65,.42-1.59,1.1-2.59,.35-.47,.72-1.09,1.53-1.37,.4-.14,.97-.02,1.26,.36,.29,.38,.35,.83,.32,1.26-.2,1.71-1.87,3.23-3.87,3.29-2,.03-3.69-1.23-4.32-2.78-.13-.4-.21-.88,.05-1.31,.26-.44,.84-.57,1.23-.47,.81,.19,1.28,.7,1.73,1.09,.88,.83,1.39,1.67,1.68,2.26,.29,.6,.37,.96,.33,.97-.1,.06-.57-1.39-2.3-2.92-.44-.36-.95-.8-1.53-.91-.29-.05-.54,.04-.67,.25-.13,.21-.1,.55,.02,.86,.54,1.27,2.09,2.42,3.78,2.36,1.68-.04,3.15-1.38,3.32-2.75,.04-.33-.02-.67-.18-.89-.16-.21-.43-.29-.69-.21-.56,.16-.98,.7-1.32,1.14-1.36,1.87-1.39,3.42-1.51,3.38Z"/>
        </g>
      </g>
      <g>
        <path class="cls-11" d="M338.38,306.21s-6.57-2.85-14.17,1.69c-5.83,3.49-43.25,64.01-43.25,64.01l24.2,16.61,33.22-49.27,13.6,11.72s28.16,5.71,36.57,2.1c8.41-3.61,12.99-13.16,12.32-21.33-.69-8.38-3.46-13.91-3.46-13.91-9.71,1.48-16.28,5.01-29.59-1.35l-29.44-10.28Z"/>
        <path class="cls-11" d="M330,337.82s15.61-6.64,20.39,5.42c1.61,4.06,.59,21.79-.21,38.39-.79,16.32-1.35,31.54-1.35,31.54l-25.57-.71-.98-43.71s.29-16.1,2.81-21.29c2.52-5.19,4.9-9.63,4.9-9.63Z"/>
        <path class="cls-4" d="M314.25,320.56s-.05,.09-.15,.26c-.11,.18-.27,.42-.48,.73-.43,.66-1.06,1.61-1.87,2.83-1.64,2.48-4.02,6.08-7.01,10.6-5.96,9.08-14.33,21.89-23.63,37.03l-.05-.25c6.67,4.58,13.93,9.55,21.45,14.71,.93,.64,1.86,1.27,2.76,1.89l-.27,.05c13.09-19.37,24.84-36.76,33.27-49.24v-.02s.03-.01,.03-.01c1.49-1.15,2.54-2.65,3.29-4.17,.73-1.53,1.17-3.08,1.39-4.56,.49-2.96-.03-5.58-.84-7.5-.8-1.95-1.83-3.25-2.56-4.06-.37-.4-.67-.7-.89-.89-.21-.19-.31-.3-.31-.3,0,0,.48,.34,1.25,1.14,.76,.8,1.81,2.1,2.64,4.06,.84,1.93,1.38,4.59,.91,7.59-.22,1.5-.65,3.07-1.38,4.63-.75,1.54-1.81,3.09-3.34,4.27l.03-.03c-8.4,12.49-20.12,29.91-33.18,49.3l-.11,.16-.16-.11c-.9-.62-1.82-1.25-2.76-1.89-7.52-5.16-14.77-10.14-21.44-14.73l-.14-.1,.09-.15c9.33-15.13,17.74-27.93,23.75-36.97,3.03-4.5,5.43-8.08,7.1-10.55,.83-1.21,1.48-2.15,1.92-2.8,.22-.31,.38-.55,.5-.72,.11-.16,.18-.24,.18-.24Z"/>
        <path class="cls-4" d="M385.35,336.71c-.1,0,.31-1.66-.26-4.26-.53-2.58-2.26-5.96-5.25-8.68-3-2.72-6.32-4.39-8.7-5.56-1.15-.55-2.11-1.01-2.84-1.36-.67-.32-1.04-.51-1.03-.53,.01-.02,.4,.12,1.09,.4,.69,.28,1.69,.7,2.9,1.25,2.41,1.11,5.79,2.75,8.84,5.52,3.05,2.78,4.78,6.27,5.26,8.91,.25,1.32,.26,2.42,.19,3.17-.02,.37-.09,.66-.12,.85-.04,.19-.06,.29-.07,.29Z"/>
        <path class="cls-4" d="M348.83,413.16s-.03-.29-.02-.84c.01-.6,.03-1.4,.05-2.41,.07-2.14,.17-5.15,.3-8.84,.31-7.51,.72-17.79,1.19-29.16,.24-5.69,.47-11.11,.68-16.05,.1-4.91,.79-9.46-.66-12.92-.66-1.72-1.81-2.99-2.93-3.94-1.11-.95-2.32-1.42-3.3-1.73-.99-.3-1.8-.42-2.34-.48-.54-.06-.83-.07-.83-.09,0,0,.07-.02,.21-.02,.14,0,.35,0,.63,.01,.55,.03,1.37,.12,2.38,.39,2,.47,4.99,2.16,6.51,5.72,.72,1.76,1.05,3.84,1.01,6.06-.04,2.2-.12,4.54-.21,7.01-.2,4.94-.41,10.36-.64,16.06-.52,11.36-.99,21.65-1.34,29.15-.19,3.69-.35,6.7-.46,8.83-.06,1.01-.11,1.8-.15,2.4-.04,.55-.06,.84-.08,.84Z"/>
      </g>
    </g>
  </g>
</svg>