<svg width="57" height="57" viewBox="0 0 57 57" fill="none" xmlns="http://www.w3.org/2000/svg">
<g clip-path="url(#clip0_3_112)">
<path d="M25.1782 55.2155H8.99213" stroke="#3A86FF" stroke-width="3" stroke-linecap="round" stroke-linejoin="round"/>
<path fill-rule="evenodd" clip-rule="evenodd" d="M31.3524 37.1107C31.6659 36.2178 32.5089 35.6217 33.454 35.6241H53.2306C53.9407 35.6217 54.6104 35.9566 55.0354 36.5265C55.4534 37.0893 55.5674 37.8231 55.3418 38.488L49.6377 55.2155H25.1782L31.3524 37.1107Z" stroke="#3A86FF" stroke-width="3" stroke-linecap="round" stroke-linejoin="round"/>
<path fill-rule="evenodd" clip-rule="evenodd" d="M42.7297 44.762C42.7297 46.0728 41.6658 47.1367 40.3549 47.1367C39.0441 47.1367 37.9802 46.0728 37.9802 44.762C37.9802 43.4511 39.0441 42.3873 40.3549 42.3873C41.6658 42.3873 42.7297 43.4511 42.7297 44.762Z" stroke="#3A86FF" stroke-width="3" stroke-linecap="round" stroke-linejoin="round"/>
<path d="M2.02472 55.2155C2.02947 46.353 9.21773 39.1743 18.0802 39.179C19.6878 39.179 21.286 39.4236 22.8225 39.8986" stroke="#3A86FF" stroke-width="3" stroke-linecap="round" stroke-linejoin="round"/>
<path d="M9.61194 20.8558C14.3162 25.7263 21.5425 27.1796 27.7619 24.5033" stroke="#3A86FF" stroke-width="3" stroke-linecap="round" stroke-linejoin="round"/>
<path fill-rule="evenodd" clip-rule="evenodd" d="M18.0541 16.0327C23.4637 16.0327 27.8497 20.4188 27.8497 25.8284C27.8497 31.238 23.4637 35.6241 18.0541 35.6241C12.6445 35.6241 8.25836 31.238 8.25836 25.8284C8.25836 20.4188 12.6445 16.0327 18.0541 16.0327Z" stroke="#3A86FF" stroke-width="3" stroke-linecap="round" stroke-linejoin="round"/>
<path d="M45.6601 5.34651H39.4264C37.6668 5.34177 36.2372 6.76185 36.2325 8.52151C36.2277 9.82998 37.0232 11.0055 38.2391 11.4899L44.544 13.449C46.1778 14.1021 46.9733 15.9567 46.3202 17.5905C45.8358 18.8016 44.6627 19.5948 43.3566 19.5948H35.8644" stroke="#3A86FF" stroke-width="3" stroke-linecap="round" stroke-linejoin="round"/>
<path d="M41.2075 5.34649V1.78442" stroke="#3A86FF" stroke-width="3" stroke-linecap="round" stroke-linejoin="round"/>
<path d="M41.2075 23.1569V19.5948" stroke="#3A86FF" stroke-width="3" stroke-linecap="round" stroke-linejoin="round"/>
</g>
<defs>
<clipPath id="clip0_3_112">
<rect width="57" height="57" fill="white"/>
</clipPath>
</defs>
</svg>
