<svg width="628" height="550" viewBox="0 0 628 550" fill="none" xmlns="http://www.w3.org/2000/svg">
<g clip-path="url(#clip0_287_285)">
<path d="M322.94 550.002C491.42 550.002 628 544.986 628 538.798C628 532.61 491.42 527.594 322.94 527.594C154.46 527.594 17.8799 532.61 17.8799 538.798C17.8799 544.986 154.46 550.002 322.94 550.002Z" fill="#F0EFFF"/>
<path d="M124.405 505.038C120.191 496.234 104.145 475.634 74.4863 469.511C69.6331 468.508 58.858 466.285 54.9939 469.44C47.3195 475.711 82.1349 499.479 77.6838 502.744C72.951 506.213 31.9836 481.21 25.1178 485.415C21.8923 487.391 53.3726 502.836 52.7383 524.256C52.5942 529.096 50.8675 533.138 49.2096 536.035L133.733 535.129C133.733 535.129 134.787 526.731 124.403 505.038H124.405Z" fill="#33DA82"/>
<path d="M442.466 252.534C442.466 372.954 344.929 470.574 224.605 470.574C203.085 470.574 182.296 467.449 162.661 461.628C153.996 459.067 145.558 455.974 137.378 452.395C129.336 448.876 121.55 444.882 114.047 440.449C102.997 433.925 92.5811 426.455 82.8983 418.144C36.2864 378.155 6.75 318.798 6.75 252.534C6.75 132.11 104.287 34.4877 224.605 34.4877C344.922 34.4877 442.466 132.108 442.466 252.534Z" fill="#EFF5FF"/>
<g style="mix-blend-mode:multiply" opacity="0.35">
<path d="M167.074 336.839C167.074 336.839 156.937 260.127 152.43 233.69C148.652 211.517 131.96 200.304 126.672 197.265C124.67 195.524 123.337 194.687 123.305 194.672L123.298 194.666L122.189 187.333C123.752 187.049 125.311 186.539 126.853 185.801C131.665 183.503 131.988 172.531 131.226 163.972C134.845 160.18 142.485 150.642 137.234 142.242C130.667 131.736 108.431 131.522 99.6666 137.749C99.3913 137.947 95.6563 134.852 93.3146 137.273C84.765 146.112 76.7703 164.854 99.9375 185.295C102.18 187.275 106.083 189.918 98.1807 195.955C94.6929 198.664 82.3718 209.399 80.4365 212.322C80.4365 212.328 80.43 212.339 80.415 212.354C80.1957 212.694 79.9892 213.028 79.8022 213.361C76.4606 218.954 60.9936 246.162 60.5828 271.593C60.5613 272.902 60.9656 274.214 61.7634 275.321C64.2728 278.801 71.1085 287.103 85.3177 297.363C80.6967 314.825 75.9295 334.543 76.7057 345.099C76.7057 345.099 79.6043 345.525 84.0318 346.063C83.9329 347.634 83.8469 349.22 83.7587 350.823C82.6491 371.63 82.533 395.357 82.8943 418.144C92.577 426.455 102.993 433.925 114.043 440.448L122.535 370.649L137.374 452.395C145.554 455.974 153.989 459.066 162.657 461.627L155.8 356.537C160.617 360.187 164.859 349.543 165.784 348.198C166.27 347.492 165.549 339.738 165.248 336.751L167.07 336.843L167.074 336.839ZM93.3038 264.747C93.2974 264.818 93.2931 264.896 93.2866 264.971C93.1275 267.138 92.2803 270.973 91.0396 275.861L82.6577 269.344L90.2096 251.936C92.1341 257.129 93.463 261.704 93.3038 264.747Z" fill="#5C76CC"/>
</g>
<path d="M97.9419 506.581C97.9419 506.581 95.5228 520.992 96.4539 526.456C97.3849 531.922 102.647 535.576 97.8773 534.769C93.1101 533.962 84.5154 539.853 83.4854 531.466C83.4274 530.995 84.6251 505.219 84.6251 505.219L97.9397 506.581H97.9419Z" fill="#FDC8AA"/>
<path d="M83.4033 528.814C83.4033 528.814 79.7629 536.762 83.3797 539.158L101.582 539.198C102.354 539.198 102.898 538.428 102.618 537.707C101.735 535.426 99.3456 531.315 93.557 531.046C93.557 531.046 90.3316 531.304 87.4115 533.995C84.2097 532.139 83.4033 528.814 83.4033 528.814Z" fill="#345193"/>
<path d="M157.776 506.729L158.789 519.773C158.864 520.746 159.068 525.976 159.672 526.74C162.182 529.921 169.271 534.1 172.093 534.386C172.093 534.386 167.5 538.394 163.083 537.569C158.666 536.745 147.153 528.498 147.153 528.498L144.969 506.529L157.774 506.729H157.776Z" fill="#FDC8AA"/>
<path d="M81.4082 513.431H99.69L142.251 292.777H103.126C98.3977 301.613 94.697 317.836 91.8027 337.629C91.3038 341.051 90.8265 344.578 90.3749 348.198C81.9028 415.667 81.4082 513.431 81.4082 513.431Z" fill="#3C56A0"/>
<path d="M162.495 295.49L160.629 513.431H143.089L119.668 292.779L162.495 295.49Z" fill="#345193"/>
<path opacity="0.6" d="M90.375 348.198C105.664 350.731 128.882 348.009 128.882 348.009L129.74 343.554L91.8028 337.627C91.3039 341.049 90.8266 344.576 90.375 348.196V348.198Z" fill="#1C3772"/>
<path opacity="0.6" d="M148.288 299.084L145.665 347.998C145.665 347.998 159.182 348.549 164.304 342.493L153.004 299.084H148.291H148.288Z" fill="#1C3772"/>
<path opacity="0.6" d="M131.794 346.993L130.768 397.35L127.685 368.299L131.794 346.993Z" fill="#1C3772"/>
<path d="M172.872 332.744C172.872 332.744 173.262 344.645 172.595 345.534C171.501 346.991 165.828 359.234 161.061 353.008C156.294 346.784 163.228 338.647 163.228 338.647L163.547 331.308L172.872 332.744Z" fill="#FDC8AA"/>
<path d="M143.089 191.625C143.089 191.625 165.153 202.633 167.705 229.437C170.256 256.242 174.72 334.02 174.72 334.02L163.852 333.462L143.089 191.625Z" fill="#1A71D8"/>
<path d="M149.804 160.458C149.804 160.458 165.202 147.638 159.268 136.718C153.475 126.06 131.258 125.843 122.031 132.162C121.58 132.472 120.962 132.388 120.421 132.304C117.212 131.8 106.527 139.911 106.087 150.242C105.893 154.77 116.258 175.028 121.24 178.525C126.22 182.022 139.126 170.484 139.126 170.484L149.802 160.46L149.804 160.458Z" fill="#32385C"/>
<path d="M115.153 198.408C115.153 198.408 115.95 218.429 140.175 218.113C163.96 217.797 142.283 190.889 141.476 189.897C141.461 189.877 141.453 189.869 141.453 189.869L140.657 179.446L125.354 171.845L124.764 180.483L124.235 188.192L115.15 198.408H115.153Z" fill="#FDC8AA"/>
<path d="M149.185 207.772C149 207.516 146.953 217.952 127.026 209.735V296.022L164.302 297.298C164.302 297.298 157.713 219.609 149.185 207.772Z" fill="#345193"/>
<path d="M83.7451 342.394C83.7451 342.394 117.275 347.475 131.092 344.709C131.092 344.709 151.335 230.765 124.237 188.192C124.237 188.192 96.2856 202.207 95.0126 212.845C94.2299 219.381 99.1369 232.171 102.749 243.439C105.018 250.511 106.77 256.98 106.276 260.921C106.267 260.996 106.257 261.071 106.244 261.151C104.693 271.886 83.7473 322.76 83.7473 342.391L83.7451 342.394Z" fill="#3B82F4"/>
<path d="M141.455 189.871C141.455 189.871 160.569 202.422 160.629 233.692C160.69 264.963 169.192 341.972 169.192 341.972C169.192 341.972 158.139 346.332 148.362 345.536C148.362 345.536 154.215 243.267 151.289 225.185C148.362 207.103 141.453 189.873 141.453 189.873L141.455 189.871Z" fill="#3B82F4"/>
<path d="M93.455 310.04L128.019 332.351L157.719 286.261L123.156 263.95L93.455 310.04Z" fill="white"/>
<path d="M124.767 180.483C131.918 188.963 138.086 190.11 141.479 189.897C141.464 189.877 141.455 189.869 141.455 189.869L140.659 179.446L125.356 171.845L124.767 180.483Z" fill="#EFA37D"/>
<path d="M149.359 148.113C150.096 148.036 150.772 148.529 150.909 149.258C151.989 154.933 152.999 177.447 145.665 180.881C136.9 184.985 128.08 182.297 121.68 171.322C121.227 170.543 120.895 168.741 120.878 168.739C120.371 168.707 114.911 166.783 114.784 160.83C114.651 154.653 117.848 154.991 120.231 156.164C122.517 157.288 128.155 157.514 127.434 146.174C127.4 145.647 127.976 145.303 128.415 145.595C130.563 147.031 136.285 149.478 149.361 148.113H149.359Z" fill="#FDC8AA"/>
<path d="M147.155 528.5C147.155 528.5 161.846 530.728 164.613 530.844C167.381 530.962 167.505 532.858 174.313 533.114C180.523 533.349 179.573 539.044 174.98 539.044C170.387 539.044 162.308 539.233 155.573 538.796C152.754 538.796 150.481 538.925 150.481 538.925H146.772C146.772 538.925 142.033 534.333 147.157 528.498L147.155 528.5Z" fill="#345193"/>
<path d="M128.901 297.744C128.901 297.744 135.709 300.38 138.395 300.787C141.08 301.193 145.067 301.6 144.497 303.963C143.927 306.324 136.681 304.544 136.681 304.544C136.681 304.544 145.256 307.955 143.128 312.514C140.999 317.074 130.432 319.885 122.541 307.426L120.947 306.077L128.903 297.744H128.901Z" fill="#FDC8AA"/>
<g style="mix-blend-mode:multiply" opacity="0.3">
<path d="M106.276 260.923C106.268 260.998 106.257 261.074 106.244 261.153H106.249C110.364 249.758 109.435 235.151 109.435 235.151L102.75 243.441C105.019 250.513 106.771 256.982 106.276 260.923Z" fill="#003889"/>
</g>
<path d="M97.2899 207.772C97.1437 207.979 75.6128 239.051 73.054 267.868C72.9357 269.194 73.2432 270.526 73.9593 271.647C77.361 276.978 89.8198 293.478 122.644 311.128L133.221 297.3L95.2923 265.587L112.017 232.205" fill="#3B82F4"/>
<path d="M135.639 172.335L146.214 170.954C146.214 170.954 146.758 177.939 142.197 178.471C137.638 179.003 136.196 175.428 135.639 172.335Z" fill="white"/>
<path d="M581.175 538.796H497.945V374.172H581.175C585.337 374.172 588.718 377.555 588.718 381.721V531.249C588.718 535.415 585.337 538.798 581.175 538.798V538.796Z" fill="#6595E2"/>
<path d="M379.179 538.796H508.461C514.298 538.796 519.029 534.06 519.029 528.218V384.749C519.029 378.908 514.298 374.172 508.461 374.172H379.179C373.342 374.172 368.61 378.908 368.61 384.749V528.218C368.61 534.06 373.342 538.796 379.179 538.796Z" fill="#91B8F6"/>
<path d="M399.245 209.537H482.475V374.161H399.245C395.082 374.161 391.702 370.778 391.702 366.611V217.084C391.702 212.918 395.082 209.535 399.245 209.535V209.537Z" fill="#6595E2"/>
<path d="M601.241 209.537H471.959C466.122 209.537 461.391 214.273 461.391 220.114V363.583C461.391 369.425 466.122 374.161 471.959 374.161H601.241C607.078 374.161 611.81 369.425 611.81 363.583V220.114C611.81 214.273 607.078 209.537 601.241 209.537Z" fill="#91B8F6"/>
<path d="M425.586 511.324C419.404 508.681 414.517 504.874 410.926 499.903C407.333 494.934 405.483 489.065 405.378 482.294H429.152C429.468 486.842 431.078 490.44 433.985 493.081C436.89 495.726 440.879 497.047 445.952 497.047C451.024 497.047 455.196 495.805 458.157 493.32C461.114 490.836 462.595 487.584 462.595 483.564C462.595 480.286 461.589 477.59 459.583 475.474C457.574 473.361 455.065 471.695 452.054 470.477C449.044 469.263 444.894 467.914 439.613 466.431C432.426 464.318 426.588 462.228 422.099 460.164C417.607 458.102 413.751 454.984 410.528 450.804C407.302 446.627 405.694 441.049 405.694 434.07C405.694 427.514 407.33 421.802 410.607 416.937C413.882 412.073 418.478 408.345 424.397 405.754C430.313 403.163 437.078 401.867 444.685 401.867C456.097 401.867 465.369 404.644 472.501 410.196C479.634 415.749 483.569 423.496 484.309 433.435H459.901C459.688 429.628 458.077 426.481 455.067 423.996C452.054 421.512 448.066 420.268 443.1 420.268C438.766 420.268 435.308 421.379 432.719 423.6C430.128 425.821 428.835 429.047 428.835 433.275C428.835 436.237 429.812 438.697 431.768 440.651C433.723 442.609 436.151 444.195 439.06 445.409C441.965 446.625 446.059 448.026 451.343 449.612C458.527 451.73 464.391 453.843 468.936 455.957C473.478 458.074 477.389 461.247 480.666 465.475C483.941 469.707 485.58 475.259 485.58 482.131C485.58 488.056 484.046 493.552 480.982 498.629C477.916 503.706 473.426 507.75 467.511 510.765C461.591 513.78 454.566 515.286 446.431 515.286C438.716 515.286 431.771 513.965 425.589 511.32L425.586 511.324Z" fill="white"/>
<path d="M581.175 209.522H497.945V44.8975H581.175C585.337 44.8975 588.718 48.2807 588.718 52.4472V201.972C588.718 206.139 585.337 209.522 581.175 209.522Z" fill="#6595E2"/>
<path d="M379.179 209.522L508.461 209.522C514.298 209.522 519.029 204.786 519.029 198.944V55.4752C519.029 49.6333 514.298 44.8975 508.461 44.8975L379.179 44.8975C373.342 44.8975 368.61 49.6333 368.61 55.4752V198.944C368.61 204.786 373.342 209.522 379.179 209.522Z" fill="#91B8F6"/>
<g style="mix-blend-mode:multiply" opacity="0.35">
<path d="M417.013 195.163L429.229 538.798H379.177L417.013 195.163Z" fill="#5C76CC"/>
</g>
<path d="M380.196 538.917H190.738C187.213 538.917 184.607 536.056 184.921 532.527L214.789 195.161C215.101 191.633 218.212 188.771 221.738 188.771H411.196C414.721 188.771 417.327 191.631 417.013 195.161L387.145 532.527C386.834 536.054 383.722 538.917 380.196 538.917Z" fill="white"/>
<path d="M384.588 280.57H232.092L236.278 233.29H388.775L384.588 280.57Z" fill="#91B8F6"/>
<path d="M230.638 320.782L216.434 481.216H364.718L378.923 320.782H230.638ZM371.037 373.178H301.766L306.116 324.032H375.387L371.037 373.178ZM301.478 376.427H370.749L366.399 425.573H297.128L301.478 376.427ZM293.878 425.573H224.607L228.957 376.427H298.229L293.878 425.573ZM302.869 324.032L298.519 373.178H229.247L233.597 324.032H302.869ZM224.319 428.823H293.59L289.24 477.969H219.969L224.319 428.823ZM292.487 477.969L296.837 428.823H366.109L361.759 477.969H292.487Z" fill="#F0EFFF"/>
<path d="M276.264 348.605C275.765 354.245 270.789 358.819 265.153 358.819C259.517 358.819 255.352 354.245 255.851 348.605C256.35 342.964 261.326 338.391 266.962 338.391C272.598 338.391 276.763 342.964 276.264 348.605Z" fill="#33DA82"/>
<path d="M271.625 401C271.126 406.641 266.15 411.214 260.515 411.214C254.879 411.214 250.714 406.641 251.212 401C251.711 395.359 256.687 390.786 262.323 390.786C267.959 390.786 272.124 395.359 271.625 401Z" fill="#A6B7F7"/>
<path d="M266.985 453.396C266.486 459.036 261.51 463.61 255.874 463.61C250.238 463.61 246.073 459.036 246.572 453.396C247.071 447.755 252.046 443.182 257.682 443.182C263.318 443.182 267.483 447.755 266.985 453.396Z" fill="#33DA82"/>
<path d="M335.513 343.42H316.244C314.298 343.42 312.861 341.843 313.034 339.895C313.206 337.947 314.924 336.37 316.867 336.37H336.136C338.082 336.37 339.519 337.947 339.347 339.895C339.175 341.843 337.457 343.42 335.513 343.42Z" fill="#F0EFFF"/>
<path d="M359.456 360.839H314.702C312.756 360.839 311.319 359.262 311.492 357.314C311.664 355.367 313.382 353.789 315.325 353.789H360.08C362.026 353.789 363.462 355.367 363.29 357.314C363.118 359.262 361.4 360.839 359.456 360.839Z" fill="#F0EFFF"/>
<path d="M330.874 395.816H311.605C309.659 395.816 308.223 394.238 308.395 392.291C308.567 390.343 310.285 388.765 312.229 388.765H331.498C333.444 388.765 334.88 390.343 334.708 392.291C334.536 394.238 332.818 395.816 330.874 395.816Z" fill="#F0EFFF"/>
<path d="M354.818 413.235H310.064C308.118 413.235 306.682 411.657 306.854 409.71C307.026 407.762 308.744 406.185 310.688 406.185H355.442C357.388 406.185 358.824 407.762 358.652 409.71C358.48 411.657 356.762 413.235 354.818 413.235Z" fill="#F0EFFF"/>
<path d="M326.236 448.211H306.968C305.022 448.211 303.585 446.634 303.757 444.686C303.929 442.738 305.647 441.161 307.591 441.161H326.86C328.806 441.161 330.242 442.738 330.07 444.686C329.898 446.634 328.18 448.211 326.236 448.211Z" fill="#F0EFFF"/>
<path d="M350.178 465.63H305.424C303.478 465.63 302.041 464.053 302.213 462.105C302.385 460.158 304.103 458.58 306.047 458.58H350.801C352.747 458.58 354.184 460.158 354.012 462.105C353.84 464.053 352.121 465.63 350.178 465.63Z" fill="#F0EFFF"/>
<path d="M561.99 486.424H561.971L323.211 484.53C321.888 484.52 320.826 483.439 320.837 482.116C320.848 480.799 321.916 479.74 323.23 479.74H323.25L562.009 481.634C563.332 481.644 564.394 482.725 564.383 484.048C564.373 485.365 563.304 486.424 561.99 486.424Z" fill="#284080"/>
<path d="M561.7 523.189C560.96 523.189 560.231 522.847 559.764 522.203L532.847 485.223C532.069 484.154 532.303 482.656 533.372 481.877C534.44 481.098 535.937 481.332 536.715 482.402L563.633 519.382C564.411 520.451 564.177 521.949 563.108 522.728C562.682 523.038 562.19 523.189 561.7 523.189Z" fill="#284080"/>
<path d="M322.938 521.295C322.437 521.295 321.932 521.138 321.499 520.813C320.444 520.017 320.233 518.514 321.026 517.458L348.527 480.911C349.322 479.854 350.823 479.643 351.879 480.437C352.935 481.233 353.145 482.736 352.352 483.792L324.852 520.34C324.381 520.964 323.665 521.295 322.938 521.295Z" fill="#284080"/>
<path opacity="0.2" d="M376.368 539.558C400.703 539.558 420.43 519.814 420.43 495.459C420.43 471.104 400.703 451.36 376.368 451.36C352.034 451.36 332.307 471.104 332.307 495.459C332.307 519.814 352.034 539.558 376.368 539.558Z" fill="white"/>
<path opacity="0.2" d="M509.542 540.612C533.877 540.612 553.604 520.869 553.604 496.513C553.604 472.158 533.877 452.414 509.542 452.414C485.208 452.414 465.48 472.158 465.48 496.513C465.48 520.869 485.208 540.612 509.542 540.612Z" fill="white"/>
<path d="M376.375 541.355C376.252 541.355 376.13 541.355 376.005 541.355C363.757 541.258 352.279 536.392 343.686 527.655C335.093 518.917 330.414 507.354 330.511 495.095C330.608 482.837 335.47 471.349 344.2 462.749C352.842 454.237 364.249 449.563 376.36 449.563C376.484 449.563 376.609 449.563 376.734 449.563C388.982 449.66 400.46 454.526 409.053 463.263C417.645 472.001 422.324 483.564 422.228 495.823C422.028 521.007 401.495 541.357 376.377 541.357L376.375 541.355ZM376.364 453.157C353.214 453.157 334.289 471.91 334.107 495.121C334.016 506.42 338.33 517.077 346.247 525.128C354.167 533.181 364.744 537.664 376.033 537.754C376.145 537.754 376.261 537.754 376.373 537.754C399.523 537.754 418.445 519.001 418.63 495.79C418.721 484.492 414.407 473.834 406.49 465.783C398.57 457.73 387.993 453.247 376.704 453.157C376.592 453.157 376.476 453.157 376.364 453.157Z" fill="#284080"/>
<path d="M471.883 472.636C464.088 465.222 453.87 461.092 443.109 461.006C442.996 461.006 442.882 461.006 442.77 461.006C432.134 461.006 421.985 464.965 414.156 472.179L411.722 469.532C420.215 461.707 431.229 457.409 442.77 457.409C442.892 457.409 443.015 457.409 443.14 457.409C454.814 457.502 465.9 461.983 474.36 470.027L471.883 472.636Z" fill="#284080"/>
<path d="M509.302 542.409C509.179 542.409 509.056 542.409 508.932 542.409C496.684 542.313 485.205 537.447 476.613 528.709C468.02 519.971 463.341 508.408 463.438 496.15C463.535 483.891 468.397 472.403 477.127 463.803C485.857 455.203 497.413 450.512 509.659 450.617C521.907 450.714 533.385 455.58 541.977 464.318C550.57 473.055 555.249 484.619 555.152 496.877C554.952 522.061 534.419 542.412 509.302 542.412V542.409ZM509.287 454.213C498.124 454.213 487.614 458.522 479.649 466.366C471.603 474.293 467.124 484.879 467.033 496.178C466.943 507.476 471.256 518.134 479.174 526.185C487.093 534.238 497.671 538.721 508.96 538.811C509.071 538.811 509.188 538.811 509.299 538.811C532.449 538.811 551.372 520.058 551.557 496.847C551.742 473.524 532.933 454.399 509.628 454.213C509.514 454.213 509.398 454.213 509.284 454.213H509.287Z" fill="#284080"/>
<path d="M188.538 72.5372C181.642 74.6936 175.522 73.7639 170.177 69.748C164.831 65.7322 160.986 59.9753 158.645 52.4708C156.271 44.8652 156.127 37.8924 158.21 31.5522C160.296 25.2121 164.838 20.9487 171.835 18.76C178.78 16.5885 184.934 17.4924 190.297 21.476C195.66 25.4596 199.522 31.2251 201.881 38.779C204.287 46.4879 204.401 53.4974 202.223 59.8117C200.044 66.126 195.481 70.3657 188.536 72.5372H188.538ZM174.916 28.3649C172.058 29.2581 170.463 31.1412 170.125 34.0121C169.79 36.883 170.631 41.5467 172.648 48.0073C174.632 54.3668 176.587 58.656 178.511 60.8749C180.436 63.0937 182.801 63.763 185.609 62.8871C188.362 62.0262 189.932 60.141 190.31 57.2292C190.688 54.3173 189.936 49.8345 188.046 43.7784C185.934 37.0122 183.919 32.5314 182.001 30.3384C180.083 28.1454 177.722 27.4869 174.916 28.3649ZM197.819 126.286L223.096 3.61341L234.647 0L209.372 122.675L197.819 126.289V126.286ZM260.917 107.436C253.982 109.605 247.845 108.68 242.506 104.662C237.167 100.644 233.318 94.859 230.961 87.3029C228.587 79.6973 228.443 72.7395 230.529 66.4273C232.615 60.1152 237.176 55.8583 244.214 53.6588C251.148 51.4895 257.296 52.4106 262.661 56.42C268.026 60.4294 271.879 66.1863 274.223 73.6886C276.629 81.3975 276.745 88.4069 274.576 94.7169C272.404 101.029 267.852 105.267 260.917 107.434V107.436ZM247.295 63.2637C244.706 64.0729 243.123 65.7838 242.545 68.3922C241.966 71.0027 242.781 75.845 244.99 82.9169C246.992 89.328 248.972 93.6237 250.935 95.8038C252.896 97.9839 255.247 98.6424 257.99 97.7859C260.732 96.9293 262.285 95.0333 262.65 92.0978C263.016 89.1623 262.27 84.7203 260.41 78.7654C258.298 72.0013 256.281 67.5055 254.361 65.2845C252.443 63.0636 250.086 62.3899 247.293 63.2637H247.295Z" fill="#91B8F6"/>
<path d="M331.715 138.683C332.822 133.987 329.916 129.281 325.223 128.172C320.531 127.064 315.829 129.973 314.721 134.669C313.614 139.366 316.52 144.072 321.213 145.18C325.905 146.289 330.607 143.38 331.715 138.683Z" fill="white"/>
<path d="M20.6947 343.452C31.6786 343.452 40.5827 334.541 40.5827 323.547C40.5827 312.554 31.6786 303.643 20.6947 303.643C9.71082 303.643 0.806641 312.554 0.806641 323.547C0.806641 334.541 9.71082 343.452 20.6947 343.452Z" fill="#91B8F6"/>
<path d="M481.921 69.5759V87.5009H452.441V180.3H430.252V87.5009H400.771V69.5759H481.921Z" fill="white"/>
<path d="M561.058 244.235C569.879 248.783 576.695 255.261 581.506 263.667C586.311 272.075 588.718 281.831 588.718 292.934C588.718 304.036 586.314 313.742 581.506 322.043C576.695 330.346 569.881 336.77 561.058 341.318C552.234 345.865 542.011 348.14 530.389 348.14H491.716V237.415H530.389C542.011 237.415 552.234 239.69 561.058 244.238V244.235ZM556.541 319.743C562.88 313.398 566.051 304.463 566.051 292.934C566.051 281.405 562.882 272.392 556.541 265.888C550.202 259.384 541.218 256.132 529.595 256.132H513.905V329.261H529.595C541.218 329.261 550.199 326.089 556.541 319.743Z" fill="white"/>
</g>
<defs>
<clipPath id="clip0_287_285">
<rect width="627.193" height="550" fill="white" transform="translate(0.806641)"/>
</clipPath>
</defs>
</svg>
