<?xml version="1.0" encoding="UTF-8"?>
<svg id="Layer_1" data-name="Layer 1" xmlns="http://www.w3.org/2000/svg" viewBox="0 0 737.52 143.51">
  <defs>
    <style>
      .cls-1 {
        fill: #fff;
        fill-rule: evenodd;
      }

      .cls-2 {
        fill: #3a86ff;
      }

      .cls-3 {
        fill: #ff9210;
      }
    </style>
  </defs>
  <g>
    <path class="cls-2" d="M71.76,143.51c39.63,0,71.76-32.13,71.76-71.76S111.39,0,71.76,0,0,32.13,0,71.76s32.13,71.76,71.76,71.76Z"/>
    <path class="cls-1" d="M65.76,27.96c-6.08,2.43-10,8.45-10,15.38,0,14.47,16.19,21.65,26.93,11.95,7.23-6.53,7.6-16.65,.84-23.17-5.22-5.04-11.74-6.56-17.77-4.15M26.76,64.14c0,11.62,1.28,18.22,5.1,26.34,13.62,28.9,49.57,35.15,71.28,12.4,9.74-10.21,13.62-20.96,13.62-37.75,0-11.76,.24-11.53-9.5-8.93-14.86,3.96-27.15,15.46-31.57,29.55-1.37,4.38-1.9,5.16-2.43,3.6-5.47-16.16-12.29-24.23-25.81-30.56-4.45-2.08-8.74-3.23-13.6-3.64l-7.09-.59v9.6"/>
  </g>
  <g>
    <path class="cls-2" d="M209.03,35.57v17.5h17v13.12h-17.12v26.62c0,5.88,3.25,8.75,8,8.75,2.38,0,5.12-.75,7.38-1.88l4.25,13c-4.38,1.75-8,2.5-12.62,2.62-13.38,.5-22.12-7.12-22.12-22.5v-26.62h-11.5v-13.12h11.5v-15.88l15.25-1.62Z"/>
    <path class="cls-2" d="M286.28,52.94h14.62v61.62h-14.38l-.75-9c-3.5,7.25-13.12,10.75-20,10.88-18.25,.12-31.75-11.12-31.75-32.75s14.12-32.38,32.12-32.25c8.25,0,16.12,3.88,19.62,10l.5-8.5Zm-37,30.75c0,11.75,8.12,18.75,18.25,18.75,24,0,24-37.38,0-37.38-10.12,0-18.25,6.88-18.25,18.62Z"/>
    <path class="cls-2" d="M353.03,52.94h18.25v.5l-20.25,29.88,21.5,30.88v.38h-18.25l-13.38-20.62-13.38,20.62h-18.25v-.38l21.5-30.88-20.25-29.88v-.5h18.25l12.12,20.88,12.12-20.88Z"/>
    <path class="cls-3" d="M444.15,52.82l-26.25,62h-16.5l-26.38-62h16.62l8.5,20.38,9.5,26,9.38-25.75,8.5-20.62h16.62Z"/>
    <path class="cls-3" d="M500.4,52.94h14.62v61.62h-14.38l-.75-9c-3.5,7.25-13.12,10.75-20,10.88-18.25,.12-31.75-11.12-31.75-32.75s14.12-32.38,32.12-32.25c8.25,0,16.12,3.88,19.62,10l.5-8.5Zm-37,30.75c0,11.75,8.12,18.75,18.25,18.75,24,0,24-37.38,0-37.38-10.12,0-18.25,6.88-18.25,18.62Z"/>
    <path class="cls-3" d="M543.15,27.07V61.32c5.5-7.12,12.25-9.25,19.25-9.25,17.5,0,25.25,11.88,25.25,30v32.5h-15.25v-32.38c0-11.25-5.88-16-14-16-9,0-15.25,7.62-15.25,16.88v31.5h-15.25V27.07h15.25Z"/>
    <path class="cls-3" d="M649.4,52.94h14.62v61.62h-14.38l-.75-9c-3.5,7.25-13.12,10.75-20,10.88-18.25,.12-31.75-11.12-31.75-32.75s14.12-32.38,32.12-32.25c8.25,0,16.12,3.88,19.62,10l.5-8.5Zm-37,30.75c0,11.75,8.12,18.75,18.25,18.75,24,0,24-37.38,0-37.38-10.12,0-18.25,6.88-18.25,18.62Z"/>
    <path class="cls-3" d="M722.27,114.57v-32.25c0-9.38-5.12-16.5-14.88-16.5s-15.75,7.88-15.75,17.25v31.5h-15.12V52.82h13.62l1,8.38c6.25-6.12,12.5-9.25,20.25-9.25,14.5,0,26.12,10.88,26.12,30.25v32.38h-15.25Z"/>
  </g>
</svg>