<svg width="502" height="290" viewBox="0 0 502 290" fill="none" xmlns="http://www.w3.org/2000/svg">
<g clip-path="url(#clip0_1196_2075)">
<path d="M422.397 157.921C444.972 157.921 463.274 139.602 463.274 117.005C463.274 94.4077 444.972 76.0891 422.397 76.0891C399.821 76.0891 381.52 94.4077 381.52 117.005C381.52 139.602 399.821 157.921 422.397 157.921Z" fill="#EBEBEB"/>
<path fill-rule="evenodd" clip-rule="evenodd" d="M405.244 137.384C406.114 138.051 407.372 137.956 408.145 137.099L424.104 118.146C424.781 117.289 424.685 116.051 423.814 115.289C422.944 114.622 421.686 114.718 420.913 115.575L404.953 134.527C404.18 135.48 404.373 136.718 405.244 137.384Z" fill="white"/>
<path fill-rule="evenodd" clip-rule="evenodd" d="M425.163 116.008C425.798 116.455 426.705 116.365 427.159 115.741L440.041 98.4301C440.495 97.8055 440.404 96.9132 439.769 96.467C439.134 96.0209 438.227 96.1101 437.773 96.7347L424.8 113.956C424.346 114.67 424.528 115.473 425.163 116.008Z" fill="white"/>
<path d="M423.831 122.03C427.396 122.03 430.286 119.137 430.286 115.569C430.286 112.001 427.396 109.109 423.831 109.109C420.267 109.109 417.377 112.001 417.377 115.569C417.377 119.137 420.267 122.03 423.831 122.03Z" fill="white"/>
<path fill-rule="evenodd" clip-rule="evenodd" d="M489.048 248.318C488.583 255.056 484.701 261.64 477.793 267.836C471.428 273.646 462.579 279.145 451.634 284.257H51.5707C43.4981 278.913 36.5121 272.406 30.6904 264.273C28.5946 261.408 26.6541 258.387 24.9464 255.289C-24.8869 164.82 93.5642 -8.21678 133.384 0.30338C151.703 4.17618 140.836 43.6788 170.953 62.8878C227.85 99.1373 336.754 2.5496 368.889 31.5956C386.044 47.1643 357.324 77.1398 368.036 123.071C386.199 201.147 491.532 211.216 489.048 248.318Z" fill="url(#paint0_linear_1196_2075)"/>
<path fill-rule="evenodd" clip-rule="evenodd" d="M502 286.704C502 287.392 501.64 288.004 501.099 288.463C500.559 288.921 499.749 289.151 498.848 289.151H3.15213C1.44098 289.151 0 288.08 0 286.704C0 286.016 0.360244 285.404 0.90061 284.945C1.44098 284.487 2.25152 284.257 3.15213 284.257H498.848C500.559 284.257 502 285.328 502 286.704Z" fill="#C6C6C6"/>
<path d="M409.698 264.711C405.356 264.711 401.796 268.453 401.796 273.062C401.796 277.671 405.668 281.413 410.01 281.413V278.813C406.998 278.813 404.221 276.214 404.221 273.062C404.221 269.871 406.764 267.35 409.776 267.35L409.698 264.711Z" fill="#2A4C95"/>
<path d="M409.658 263.332L410.01 281.059C410.049 283.265 411.81 284.998 414 284.998H424.249C424.836 284.998 425.383 284.88 425.892 284.644C427.261 284.013 428.239 282.595 428.239 280.98V263.253C428.239 262.465 427.574 261.796 426.791 261.796L412.592 261.835H411.106C410.284 261.835 409.658 262.505 409.658 263.332Z" fill="url(#paint1_linear_1196_2075)"/>
<path opacity="0.27" d="M406.295 212.475C405.63 215.942 405.434 220.551 407.938 224.136C410.363 227.602 412.906 226.736 415.37 230.163C418.734 234.811 418.265 242.099 416.622 246.826C415.566 249.859 413.766 251.396 413.844 254.39C413.923 257.423 415.878 260.22 417.091 261.835H422.646C424.21 261.008 426.362 259.511 427.183 257.029C428.435 253.405 425.579 251.435 425.931 247.85C426.557 241.981 434.85 241.39 438.566 234.496C439.974 231.857 441.226 227.327 438.997 219.684L406.295 212.475Z" fill="url(#paint2_linear_1196_2075)"/>
<path d="M410.206 262.913L410.568 279.979C410.609 282.375 412.42 284.257 414.675 284.257H421.68C419.305 283.872 416.97 282.888 415.319 281.006C413.185 278.653 412.863 276.751 412.501 273.414C411.776 266.568 413.87 264.025 413.226 261.287H411.696C410.85 261.287 410.206 262.014 410.206 262.913Z" fill="#2A4C95"/>
<path d="M423.635 268.304H422.897V261.337H423.635V268.304Z" fill="white"/>
<path d="M421.148 272.619H425.164C425.533 272.619 425.82 272.351 425.82 272.007V268.867C425.82 268.523 425.533 268.255 425.164 268.255H421.148C420.779 268.255 420.492 268.523 420.492 268.867V272.007C420.492 272.313 420.779 272.619 421.148 272.619Z" fill="#FFBB04"/>
<path opacity="0.617769" d="M154.413 142.129H344.821C350.214 142.129 354.585 146.511 354.585 151.917V272.315C354.585 277.721 350.214 282.104 344.821 282.104H154.413C149.02 282.104 144.648 277.721 144.648 272.315V151.917C144.648 146.511 149.02 142.129 154.413 142.129Z" fill="#76BAF9"/>
<path opacity="0.965588" fill-rule="evenodd" clip-rule="evenodd" d="M158.809 152.178H341.405C343.563 152.178 345.311 153.931 345.311 156.094V272.577H154.903V156.094C154.903 153.931 156.652 152.178 158.809 152.178Z" fill="white"/>
<path d="M211.047 272.315H282.328C282.328 275.018 280.142 277.21 277.446 277.21H215.929C213.233 277.21 211.047 275.018 211.047 272.315Z" fill="#8AC9F9"/>
<path opacity="0.22" fill-rule="evenodd" clip-rule="evenodd" d="M106.137 71.5337V175.397C106.137 180.774 101.015 185.198 94.7473 185.198H15.6252C13.3337 185.198 11.2445 184.654 9.49218 183.633C6.39199 181.863 4.30273 178.868 4.30273 175.397V71.5337C4.30273 68.1305 6.39199 65.0677 9.49218 63.2981C11.2445 62.2772 13.4011 61.7327 15.6252 61.7327H94.7473C101.015 61.8007 106.137 66.1567 106.137 71.5337Z" fill="url(#paint3_linear_1196_2075)"/>
<path opacity="0.4" fill-rule="evenodd" clip-rule="evenodd" d="M104.703 103.366V175.547C104.703 180.842 99.5839 185.198 93.3202 185.198H14.2504C7.98682 185.198 2.86816 180.842 2.86816 175.547V126.421C8.66033 121.73 15.9342 117.843 23.6122 118.513C34.321 119.384 34.4557 127.963 45.0297 130.375C65.7738 135.067 87.6628 107.455 104.703 103.366Z" fill="white"/>
<path opacity="0.22" fill-rule="evenodd" clip-rule="evenodd" d="M8.60531 65.6823V182.751C8.60531 183.088 8.53448 183.425 8.32199 183.762C5.06386 182.01 2.86816 179.044 2.86816 175.607V72.759C2.86816 69.3892 5.06386 66.3563 8.32199 64.604C8.53448 65.0084 8.60531 65.3453 8.60531 65.6823Z" fill="url(#paint4_linear_1196_2075)"/>
<path opacity="0.22" fill-rule="evenodd" clip-rule="evenodd" d="M61.6739 63.6277V181.19C61.6739 182.612 60.0502 183.762 58.0206 183.762H57.3711V61.7327H60.4562C61.268 62.2064 61.6739 62.8833 61.6739 63.6277Z" fill="#A1A1A1"/>
<path d="M104.703 111H2.86816V116.743H104.703V111Z" fill="white"/>
<path d="M104.703 98.0001H2.86816V103.743H104.703V98.0001Z" fill="white"/>
<path d="M104.703 85.0001H2.86816V90.7426H104.703V85.0001Z" fill="white"/>
<path d="M104.703 72H2.86816V77.7426H104.703V72Z" fill="white"/>
<path d="M57.3709 61.7327H51.6338V183.762H57.3709V61.7327Z" fill="white"/>
<g opacity="0.929093">
<path fill-rule="evenodd" clip-rule="evenodd" d="M161.429 121.022C157.326 119.994 154.122 116.787 153.094 112.68L152.918 111.98L152.743 112.68C151.715 116.787 148.511 119.994 144.408 121.022L143.708 121.199L144.408 121.375C148.511 122.403 151.715 125.61 152.743 129.717L152.918 130.418L153.094 129.717C154.122 125.61 157.326 122.402 161.429 121.375L162.13 121.199L161.429 121.022Z" fill="white"/>
<path fill-rule="evenodd" clip-rule="evenodd" d="M141.483 127.367C139.277 126.814 137.554 125.089 137.002 122.881L136.907 122.505L136.812 122.881C136.26 125.089 134.537 126.814 132.33 127.367L131.954 127.462L132.33 127.556C134.537 128.109 136.26 129.834 136.812 132.042L136.907 132.419L137.002 132.042C137.555 129.834 139.277 128.109 141.483 127.556L141.86 127.462L141.483 127.367Z" fill="white"/>
</g>
<path fill-rule="evenodd" clip-rule="evenodd" d="M69.5615 278.696C77.7962 278.696 84.4717 280.137 84.4717 281.913C84.4717 283.69 77.7962 285.13 69.5615 285.13C61.3269 285.13 54.6514 283.69 54.6514 281.913C54.6514 280.137 61.3269 278.696 69.5615 278.696Z" fill="#C6C6C6"/>
<path d="M89.4307 263.198C90.5525 265.155 91.1808 267.348 91.1808 269.664C91.1808 277.933 83.1702 284.636 73.2886 284.636C63.407 284.636 55.3965 277.933 55.3965 269.664C55.3965 267.214 56.1001 264.9 57.3476 262.859C65.2737 264.108 81.0502 264.028 89.4307 263.198Z" fill="url(#paint5_linear_1196_2075)"/>
<path d="M73.4137 259.889C82.4032 259.889 89.6906 261.607 89.6906 263.725C89.6906 265.843 82.4032 267.561 73.4137 267.561C64.4241 267.561 57.1367 265.843 57.1367 263.725C57.1367 261.607 64.4241 259.889 73.4137 259.889Z" fill="url(#paint6_linear_1196_2075)"/>
<path d="M72.0463 260.879C71.1574 254.754 68.7121 245.908 61.3607 236.381C57.0302 230.768 57.016 217.101 56.3906 215.594C59.7887 216.758 65.8929 219.757 72.0463 228.214C78.4967 237.08 74.4046 255.161 72.0463 260.879Z" fill="url(#paint7_linear_1196_2075)"/>
<g filter="url(#filter0_i_1196_2075)">
<path d="M72.0463 260.879C71.1574 254.754 68.7121 245.908 61.3607 236.381C57.0302 230.768 57.016 217.101 56.3906 215.594C59.7887 216.758 65.8929 219.757 72.0463 228.214C78.4967 237.08 74.4046 255.161 72.0463 260.879Z" fill="black"/>
</g>
<mask id="mask0_1196_2075" style="mask-type:luminance" maskUnits="userSpaceOnUse" x="56" y="215" width="20" height="46">
<path d="M72.0463 260.879C71.1574 254.754 68.7121 245.908 61.3607 236.381C57.0302 230.768 57.016 217.101 56.3906 215.594C59.7887 216.758 65.8929 219.757 72.0463 228.214C78.4967 237.08 74.4046 255.161 72.0463 260.879Z" fill="white"/>
</mask>
<g mask="url(#mask0_1196_2075)">
<g style="mix-blend-mode:multiply" opacity="0.5">
<path d="M71.7975 260.879C72.4759 245.989 70.6141 236.591 64.7607 227.72" stroke="#489C71" stroke-width="3"/>
</g>
</g>
<path d="M72.0737 267.167C69.3275 262.793 64.4754 256.865 55.6495 252.059C50.4504 249.228 45.8259 238.81 44.8398 237.869C47.8256 237.62 53.4962 237.865 61.0467 242.256C68.9616 246.859 71.9428 262.017 72.0737 267.167Z" fill="url(#paint8_linear_1196_2075)"/>
<g filter="url(#filter1_i_1196_2075)">
<path d="M72.0737 267.167C69.3275 262.793 64.4754 256.865 55.6495 252.059C50.4504 249.228 45.8259 238.81 44.8398 237.869C47.8256 237.62 53.4962 237.865 61.0467 242.256C68.9616 246.859 71.9428 262.017 72.0737 267.167Z" fill="black"/>
</g>
<mask id="mask1_1196_2075" style="mask-type:luminance" maskUnits="userSpaceOnUse" x="44" y="237" width="29" height="31">
<path d="M72.0737 267.167C69.3275 262.793 64.4754 256.865 55.6495 252.059C50.4504 249.228 45.8259 238.81 44.8398 237.869C47.8256 237.62 53.4962 237.865 61.0467 242.256C68.9616 246.859 71.9428 262.017 72.0737 267.167Z" fill="white"/>
</mask>
<g mask="url(#mask1_1196_2075)">
<g style="mix-blend-mode:multiply" opacity="0.5">
<path d="M71.8839 267.25C67.3749 255.668 62.7818 249.124 55.3203 244.316" stroke="#489C71" stroke-width="3"/>
</g>
</g>
<path d="M74.0458 267.766C76.2111 263.058 80.2716 256.533 88.4364 250.614C93.2461 247.127 96.4947 236.159 97.3543 235.097C94.3478 235.232 88.7315 236.204 81.783 241.546C74.499 247.146 73.505 262.621 74.0458 267.766Z" fill="url(#paint9_linear_1196_2075)"/>
<g filter="url(#filter2_i_1196_2075)">
<path d="M74.0458 267.766C76.2111 263.058 80.2716 256.533 88.4364 250.614C93.2461 247.127 96.4947 236.159 97.3543 235.097C94.3478 235.232 88.7315 236.204 81.783 241.546C74.499 247.146 73.505 262.621 74.0458 267.766Z" fill="black"/>
</g>
<mask id="mask2_1196_2075" style="mask-type:luminance" maskUnits="userSpaceOnUse" x="73" y="235" width="25" height="33">
<path d="M74.0458 267.766C76.2111 263.058 80.2716 256.533 88.4364 250.614C93.2461 247.127 96.4947 236.159 97.3543 235.097C94.3478 235.232 88.7315 236.204 81.783 241.546C74.499 247.146 73.505 262.621 74.0458 267.766Z" fill="white"/>
</mask>
<g mask="url(#mask2_1196_2075)">
<g style="mix-blend-mode:multiply" opacity="0.5">
<path d="M73.416 267.756C76.3978 255.644 80.12 248.538 86.9257 242.793" stroke="#489C71" stroke-width="3"/>
</g>
</g>
<path d="M205.859 230.954L201.953 224.71L200.24 225.784L204.146 232.028L205.859 230.954ZM204.146 232.028L200.24 225.784C199.524 224.641 201.238 223.567 201.953 224.71L205.859 230.954C206.575 232.098 204.861 233.172 204.146 232.028Z" fill="#ED5738"/>
<path d="M201.147 150.928C214.884 138.099 303.015 150.864 308.978 162.272C314.941 173.681 297.492 250.092 280.91 260.042C264.327 269.992 217.704 284.276 202.978 265.926C188.251 247.576 187.41 163.757 201.147 150.928Z" fill="#F1A481"/>
<path fill-rule="evenodd" clip-rule="evenodd" d="M200.213 213.935C192.306 214.281 185.366 211.315 184.284 203.858C182.183 189.38 185.777 164.132 196.247 153.379C200.008 149.516 203.323 148.066 206.12 148.21C211.846 146.232 220.735 145.459 230.947 145.575C239.274 145.67 221.561 200.517 250.736 203.586C287.672 207.472 271.162 149.359 277.435 150.591C293.791 153.801 306.809 158.126 308.976 162.272C313.874 171.642 302.979 224.859 289.742 249.091C286.862 254.364 298.493 277.374 295.53 279.152C281.071 287.827 271.77 279.195 245.558 279.922C219.345 280.649 204.204 274.933 204.622 269.858C205.296 261.683 206.654 249.562 205.035 239.212C204.217 233.977 202.193 224.663 200.213 213.935Z" fill="#5D8EF9"/>
<path d="M229.362 170.749C229.298 169.969 229.878 169.285 230.657 169.221C231.436 169.157 232.12 169.737 232.184 170.517C233.828 190.558 240.057 200.875 250.709 201.995C258.239 202.787 264.408 199.603 268.91 193.207C272.952 187.465 275.375 179.402 275.699 171.259C275.73 170.477 276.388 169.868 277.169 169.899C277.95 169.931 278.558 170.59 278.527 171.371C278.183 180.031 275.602 188.62 271.224 194.839C266.159 202.034 259.022 205.719 250.413 204.813C238.067 203.514 231.104 191.983 229.362 170.749Z" fill="white"/>
<path d="M198.221 210.898C193.537 209.795 188.49 207.09 184.036 203.07C183.621 202.695 183.588 202.055 183.962 201.64C184.336 201.225 184.976 201.192 185.39 201.567C189.748 205.5 194.191 207.945 198.738 208.899C199.125 210.278 199.91 210.898 198.221 210.898Z" fill="white"/>
<path d="M200.578 212.418C200.743 212.952 200.444 213.519 199.91 213.683C199.377 213.848 198.811 213.549 198.646 213.015C196.437 205.848 195.516 200.687 195.907 197.45C195.974 196.896 196.477 196.5 197.032 196.567C197.586 196.634 197.981 197.138 197.914 197.693C197.567 200.57 198.447 205.505 200.578 212.418Z" fill="#1D5EF8"/>
<path d="M228.726 157.439C225.107 156.291 218.588 150.543 219.623 146.059C220.697 141.4 224.413 138.28 227.922 139.091C228.058 139.123 228.193 139.16 228.324 139.202C228.444 138.446 228.584 137.716 228.746 137.017C232.533 120.597 249.163 110.42 265.89 114.286C282.617 118.151 293.106 134.595 289.319 151.015C285.532 167.434 266.146 194.315 249.419 190.45C238.3 187.88 231.155 172.372 228.726 157.439Z" fill="#FFBC9D"/>
<path fill-rule="evenodd" clip-rule="evenodd" d="M246.365 138.34L252.054 143.65C252.77 144.319 252.809 145.442 252.141 146.159C251.473 146.876 250.351 146.915 249.635 146.246L243.946 140.936C243.229 140.267 243.19 139.144 243.858 138.427C244.526 137.71 245.648 137.671 246.365 138.34Z" fill="#253238"/>
<path fill-rule="evenodd" clip-rule="evenodd" d="M271.775 142.943L279.038 140.153C279.952 139.801 280.978 140.258 281.329 141.174C281.68 142.089 281.223 143.115 280.309 143.467L273.046 146.257C272.132 146.609 271.106 146.151 270.755 145.236C270.404 144.321 270.861 143.294 271.775 142.943Z" fill="#22537F"/>
<path d="M255.286 163.106C255.2 163.285 255.062 163.434 254.891 163.536C254.244 163.919 254.254 164.001 254.998 164.483C256.002 165.133 257.678 165.524 258.889 165.362C260.308 165.173 261.9 164.432 263.65 163.123C262.405 162.488 261.151 161.491 259.882 160.141C259.027 159.231 258.601 157.95 258.584 156.29L255.286 163.106ZM261.201 146.235C261.772 145.057 263.545 145.852 263.046 147.063C260.447 153.36 259.987 157.299 261.355 158.754C262.979 160.482 264.497 161.491 265.885 161.812C266.69 161.998 266.944 163.019 266.321 163.561C263.76 165.792 261.38 167.072 259.157 167.368C257.462 167.595 255.303 167.091 253.9 166.182C252.1 165.017 251.789 163.21 253.591 161.967L261.201 146.235Z" fill="#ED5738"/>
<path d="M226.87 142.29C227.405 142.13 227.969 142.433 228.129 142.969C228.29 143.504 227.986 144.068 227.452 144.229C224.361 145.158 223.814 146.517 225.457 149.04C225.762 149.508 225.63 150.135 225.163 150.44C224.695 150.745 224.069 150.613 223.764 150.145C221.364 146.462 222.517 143.599 226.87 142.29Z" fill="#EC8B5F"/>
<path d="M245.581 172.923C245.023 172.913 244.579 172.451 244.589 171.893C244.599 171.334 245.06 170.889 245.618 170.899C252.853 171.032 257.884 174.691 260.549 181.737C260.747 182.26 260.484 182.844 259.962 183.042C259.439 183.239 258.856 182.976 258.658 182.453C256.282 176.171 251.977 173.04 245.581 172.923Z" fill="#EC8B5F"/>
<path d="M242.245 150.144L247.489 149.128L243.188 146.367C242.718 146.066 242.581 145.44 242.883 144.969C243.184 144.499 243.809 144.362 244.279 144.664L250.708 148.79C251.476 149.283 251.25 150.462 250.354 150.635L242.629 152.131C242.081 152.237 241.55 151.878 241.444 151.329C241.338 150.78 241.697 150.25 242.245 150.144Z" fill="#1C2229"/>
<path d="M272.575 157.089C273.753 157.362 274.93 156.626 275.202 155.446C275.474 154.266 274.739 153.089 273.56 152.817C272.381 152.544 271.205 153.28 270.933 154.46C270.661 155.64 271.396 156.817 272.575 157.089Z" fill="#1C2229"/>
<path fill-rule="evenodd" clip-rule="evenodd" d="M216.836 112.997C216.967 112.684 217.108 112.378 217.262 112.081C222.111 102.705 225.276 100.251 234.666 104.321C250.85 67.3179 352.752 114.664 322.453 126.976C324.61 141.259 306.747 145.539 300.351 141.799C299.975 154.278 289.521 161.028 284.05 161.204C285.273 159.25 287.405 153.367 288.278 149.582C286.371 142.587 284.93 140.567 285.622 132.25C280.076 135.94 269.852 136.91 260.433 138.377C256.24 139.029 242.484 137.43 238.286 131.476C236.842 137.737 236.808 144.272 232.42 153.129C228.862 154.299 230.502 142.815 228.342 140.651C225.8 138.104 222.448 141.101 220.758 141.731C219.814 139.339 214.886 127.428 215.687 118.019L216.836 112.997Z" fill="#253238"/>
<path d="M315.935 180.425C316.196 187.703 312.638 226.19 297.814 249.275C294.566 254.333 295.429 256.964 293.01 260.899C283.66 276.105 267.954 278.941 267.954 251.188C267.954 244.201 273.474 238.115 274.67 231.844C278.765 210.375 288.254 177.116 297.814 170.545C310.166 162.054 315.605 171.204 315.935 180.425Z" fill="#FFAA83"/>
<path fill-rule="evenodd" clip-rule="evenodd" d="M315.535 169.523C315.815 178.568 317.399 193.44 317.445 206.99C317.49 220.54 279.146 230.72 276.191 206.99C273.237 183.26 286.347 159.723 297.557 159.723C308.767 159.723 315.251 160.298 315.535 169.523Z" fill="url(#paint10_linear_1196_2075)"/>
<path d="M315.373 208.898C301.278 220.583 287.794 220.808 275.283 209.515C274.869 209.141 274.835 208.501 275.209 208.086C275.583 207.671 276.223 207.638 276.637 208.012C288.377 218.609 300.738 218.403 314.084 207.339C314.514 206.983 315.151 207.043 315.507 207.473C315.863 207.904 315.803 208.542 315.373 208.898Z" fill="white"/>
<path d="M278.666 207.308C280.333 199.996 282.114 195.065 284.068 192.458C284.404 192.011 285.037 191.92 285.484 192.256C285.93 192.591 286.021 193.226 285.686 193.673C283.948 195.991 282.245 200.705 280.638 207.758C280.513 208.303 279.971 208.644 279.427 208.52C278.883 208.395 278.542 207.853 278.666 207.308Z" fill="#1D5EF8"/>
<path d="M275.277 232.321V228.167C275.277 227.608 275.73 227.155 276.288 227.155C276.847 227.155 277.299 227.608 277.299 228.167V232.321C277.299 232.88 276.847 233.333 276.288 233.333C275.73 233.333 275.277 232.88 275.277 232.321Z" fill="#EC8B5F"/>
<path d="M292.713 251.53C294.023 248.151 294.025 242.825 292.669 235.592C290.562 227.617 290.155 222.799 291.654 220.773C291.987 220.324 292.62 220.23 293.069 220.562C293.517 220.895 293.612 221.529 293.279 221.978C292.312 223.284 292.695 227.783 294.65 235.182C296.076 242.771 296.076 248.45 294.599 252.262C294.397 252.783 293.811 253.041 293.29 252.839C292.77 252.637 292.511 252.051 292.713 251.53Z" fill="#EC8B5F"/>
<path d="M254.939 222.72C253.329 220.733 253.857 219.965 253.211 217.506C252.988 216.659 254.004 215.318 253.872 214.422C253.774 213.756 252.753 212.794 252.763 212.119C252.781 210.918 253.642 209.733 253.872 208.503C254.074 207.423 252.58 206.548 253.211 204.794C253.842 203.039 255.599 202.848 256.239 201.922C256.748 201.186 254.114 200.1 256.239 197.973C258.365 195.846 264.68 195.047 267.83 196.537C266.867 202.566 272.236 202.909 275.256 201.098C276.018 200.641 275.776 196.935 276.947 196.935C277.93 196.935 280.495 196.935 281.859 197.973C289.883 204.079 292.456 208.438 291.491 220.912C291.009 227.137 273.674 228.238 267.83 227.018C264.462 226.314 257.267 225.592 254.939 222.72Z" fill="#FFAA83"/>
<path d="M269.26 190.352L277.5 192.106L274.813 205.145L266.572 203.392L269.26 190.352Z" fill="#1E5B89"/>
<path d="M277.012 193.476C291.995 193.476 304.141 181.319 304.141 166.322C304.141 151.325 291.995 139.168 277.012 139.168C262.03 139.168 249.884 151.325 249.884 166.322C249.884 181.319 262.03 193.476 277.012 193.476Z" fill="#4C91FC"/>
<path d="M277.013 190.778C290.32 190.778 301.108 179.979 301.108 166.659C301.108 153.339 290.32 142.541 277.013 142.541C263.705 142.541 252.917 153.339 252.917 166.659C252.917 179.979 263.705 190.778 277.013 190.778Z" fill="white"/>
<path d="M299.874 159.018C297.889 168.357 291.929 180.478 284.166 189.697C281.906 190.399 279.503 190.778 277.013 190.778C263.705 190.778 252.917 179.979 252.917 166.659C252.917 153.339 263.705 142.541 277.013 142.541C287.652 142.541 296.681 149.443 299.874 159.018Z" fill="#FFBC9D"/>
<path d="M277.181 176.61C284.44 176.61 290.324 170.72 290.324 163.455C290.324 156.189 284.44 150.299 277.181 150.299C269.922 150.299 264.038 156.189 264.038 163.455C264.038 170.72 269.922 176.61 277.181 176.61Z" fill="white"/>
<path d="M277.518 170.538C281.241 170.538 284.258 167.518 284.258 163.792C284.258 160.066 281.241 157.046 277.518 157.046C273.796 157.046 270.778 160.066 270.778 163.792C270.778 167.518 273.796 170.538 277.518 170.538Z" fill="#22537F"/>
<path d="M277.518 167.165C279.38 167.165 280.888 165.655 280.888 163.792C280.888 161.929 279.38 160.419 277.518 160.419C275.657 160.419 274.148 161.929 274.148 163.792C274.148 165.655 275.657 167.165 277.518 167.165Z" fill="#1C2229"/>
<path d="M282.068 164.129C283.836 164.129 285.269 162.695 285.269 160.925C285.269 159.155 283.836 157.72 282.068 157.72C280.3 157.72 278.866 159.155 278.866 160.925C278.866 162.695 280.3 164.129 282.068 164.129Z" fill="white"/>
<path d="M131.954 272.316H369.232C369.232 278.803 363.986 284.062 357.514 284.062H143.672C137.2 284.062 131.954 278.803 131.954 272.316Z" fill="#76BAF9"/>
</g>
<defs>
<filter id="filter0_i_1196_2075" x="56.3906" y="205.594" width="19.1211" height="55.2853" filterUnits="userSpaceOnUse" color-interpolation-filters="sRGB">
<feFlood flood-opacity="0" result="BackgroundImageFix"/>
<feBlend mode="normal" in="SourceGraphic" in2="BackgroundImageFix" result="shape"/>
<feColorMatrix in="SourceAlpha" type="matrix" values="0 0 0 0 0 0 0 0 0 0 0 0 0 0 0 0 0 0 127 0" result="hardAlpha"/>
<feOffset dy="-10"/>
<feGaussianBlur stdDeviation="11"/>
<feComposite in2="hardAlpha" operator="arithmetic" k2="-1" k3="1"/>
<feColorMatrix type="matrix" values="0 0 0 0 0.221483 0 0 0 0 0.77854 0 0 0 0 0.610041 0 0 0 1 0"/>
<feBlend mode="normal" in2="shape" result="effect1_innerShadow_1196_2075"/>
</filter>
<filter id="filter1_i_1196_2075" x="44.8398" y="227.803" width="27.2334" height="39.3642" filterUnits="userSpaceOnUse" color-interpolation-filters="sRGB">
<feFlood flood-opacity="0" result="BackgroundImageFix"/>
<feBlend mode="normal" in="SourceGraphic" in2="BackgroundImageFix" result="shape"/>
<feColorMatrix in="SourceAlpha" type="matrix" values="0 0 0 0 0 0 0 0 0 0 0 0 0 0 0 0 0 0 127 0" result="hardAlpha"/>
<feOffset dy="-10"/>
<feGaussianBlur stdDeviation="11"/>
<feComposite in2="hardAlpha" operator="arithmetic" k2="-1" k3="1"/>
<feColorMatrix type="matrix" values="0 0 0 0 0.221483 0 0 0 0 0.77854 0 0 0 0 0.610041 0 0 0 1 0"/>
<feBlend mode="normal" in2="shape" result="effect1_innerShadow_1196_2075"/>
</filter>
<filter id="filter2_i_1196_2075" x="73.9219" y="225.097" width="23.4326" height="42.6696" filterUnits="userSpaceOnUse" color-interpolation-filters="sRGB">
<feFlood flood-opacity="0" result="BackgroundImageFix"/>
<feBlend mode="normal" in="SourceGraphic" in2="BackgroundImageFix" result="shape"/>
<feColorMatrix in="SourceAlpha" type="matrix" values="0 0 0 0 0 0 0 0 0 0 0 0 0 0 0 0 0 0 127 0" result="hardAlpha"/>
<feOffset dy="-10"/>
<feGaussianBlur stdDeviation="11"/>
<feComposite in2="hardAlpha" operator="arithmetic" k2="-1" k3="1"/>
<feColorMatrix type="matrix" values="0 0 0 0 0.221483 0 0 0 0 0.77854 0 0 0 0 0.610041 0 0 0 1 0"/>
<feBlend mode="normal" in2="shape" result="effect1_innerShadow_1196_2075"/>
</filter>
<linearGradient id="paint0_linear_1196_2075" x1="219.5" y1="66.5" x2="259" y2="345" gradientUnits="userSpaceOnUse">
<stop stop-color="#EFEFEF"/>
<stop offset="1" stop-color="#CFCFCF"/>
</linearGradient>
<linearGradient id="paint1_linear_1196_2075" x1="2341.61" y1="1420.84" x2="-395.078" y2="1420.84" gradientUnits="userSpaceOnUse">
<stop stop-color="#1B91FB"/>
<stop offset="1" stop-color="#2A4C95"/>
</linearGradient>
<linearGradient id="paint2_linear_1196_2075" x1="2126.68" y1="-94.0311" x2="2126.68" y2="8061.88" gradientUnits="userSpaceOnUse">
<stop stop-color="white"/>
<stop offset="0.4231" stop-color="#A1D2FD"/>
<stop offset="1" stop-color="#1B91FB"/>
</linearGradient>
<linearGradient id="paint3_linear_1196_2075" x1="5092.4" y1="11921.1" x2="5092.4" y2="-13685.9" gradientUnits="userSpaceOnUse">
<stop stop-color="white"/>
<stop offset="0.1573" stop-color="#D4EAFE"/>
<stop offset="0.4628" stop-color="#85C4FD"/>
<stop offset="0.715" stop-color="#4CA9FC"/>
<stop offset="0.9007" stop-color="#2897FB"/>
<stop offset="1" stop-color="#1B91FB"/>
</linearGradient>
<linearGradient id="paint4_linear_1196_2075" x1="292.594" y1="11510.3" x2="292.594" y2="-13203" gradientUnits="userSpaceOnUse">
<stop stop-color="white"/>
<stop offset="0.1573" stop-color="#D4EAFE"/>
<stop offset="0.4628" stop-color="#85C4FD"/>
<stop offset="0.715" stop-color="#4CA9FC"/>
<stop offset="0.9007" stop-color="#2897FB"/>
<stop offset="1" stop-color="#1B91FB"/>
</linearGradient>
<linearGradient id="paint5_linear_1196_2075" x1="3633.83" y1="1770.37" x2="1000.41" y2="1071.59" gradientUnits="userSpaceOnUse">
<stop stop-color="#ACC5E9"/>
<stop offset="0.627469" stop-color="#D3E3FB"/>
<stop offset="1" stop-color="#EAF2FF"/>
</linearGradient>
<linearGradient id="paint6_linear_1196_2075" x1="2583.29" y1="620.768" x2="1932.45" y2="1260.94" gradientUnits="userSpaceOnUse">
<stop stop-color="#86A8D9"/>
<stop offset="1" stop-color="#BCD0F2"/>
</linearGradient>
<linearGradient id="paint7_linear_1196_2075" x1="939.552" y1="443.922" x2="2027.15" y2="4507.97" gradientUnits="userSpaceOnUse">
<stop stop-color="#B1FFBE"/>
<stop offset="0.444207" stop-color="#5CDB8E"/>
<stop offset="1" stop-color="#149654"/>
</linearGradient>
<linearGradient id="paint8_linear_1196_2075" x1="2081.68" y1="-35.3316" x2="2403.85" y2="2840.82" gradientUnits="userSpaceOnUse">
<stop stop-color="#B1FFBE"/>
<stop offset="0.444207" stop-color="#5CDB8E"/>
<stop offset="1" stop-color="#149654"/>
</linearGradient>
<linearGradient id="paint9_linear_1196_2075" x1="1044.8" y1="399.817" x2="2083.49" y2="3334.35" gradientUnits="userSpaceOnUse">
<stop stop-color="#B1FFBE"/>
<stop offset="0.444207" stop-color="#5CDB8E"/>
<stop offset="1" stop-color="#149654"/>
</linearGradient>
<linearGradient id="paint10_linear_1196_2075" x1="5086.01" y1="4607.85" x2="2694.12" y2="854.408" gradientUnits="userSpaceOnUse">
<stop stop-color="#9CBCFF"/>
<stop offset="1" stop-color="#6386FF"/>
</linearGradient>
<clipPath id="clip0_1196_2075">
<rect width="502" height="290" fill="white"/>
</clipPath>
</defs>
</svg>
