<svg width="300" height="240" viewBox="0 0 300 240" fill="none" xmlns="http://www.w3.org/2000/svg">
<g clip-path="url(#clip0_1096_1422)">
<path d="M288.676 240.001H36.8819C36.5985 240.001 36.3694 239.769 36.3694 239.483C36.3694 239.197 36.5985 238.965 36.8819 238.965H288.678C288.962 238.965 289.191 239.197 289.191 239.483C289.191 239.769 288.962 240.001 288.678 240.001H288.676Z" fill="#030047"/>
<path d="M154.91 158.093H50.0736C45.8531 158.093 42.1397 155.28 40.9538 151.184L22.5952 87.7686C20.8146 81.6184 25.3762 75.4629 31.715 75.4629H136.551C140.772 75.4629 144.485 78.2763 145.671 82.3717L164.03 145.787C165.81 151.937 161.249 158.093 154.91 158.093Z" fill="#030047"/>
<path d="M55.3593 150.106C54.6877 150.106 54.086 149.627 53.8971 148.941L36.4497 85.5252C36.2731 84.8833 36.4847 84.3953 36.6929 84.0982C36.901 83.8029 37.2823 83.4492 37.912 83.4492H137.543C138.215 83.4492 138.816 83.9284 139.005 84.6145L156.453 148.03C156.629 148.672 156.418 149.16 156.209 149.457C156.001 149.752 155.62 150.106 154.99 150.106H55.3593Z" fill="white"/>
<path d="M155.8 190.587C155.8 190.587 136.994 203.503 123.066 213.068C114.269 219.108 102.655 218.845 94.1354 212.412L49.8987 179.015C49.8987 179.015 29.0161 168.605 27.2722 164.265C25.5354 159.926 27.4017 159.065 27.4017 159.065C25.5161 155.703 27.6203 153.472 27.6203 153.472C26.5813 149.327 29.5828 146.566 29.5828 146.566C29.5828 146.566 28.3427 135.438 31.9528 133.35C35.5612 131.269 38.7114 147.864 42.8813 150.867C46.1224 153.19 57.168 154.149 57.3219 152.74C57.6962 149.3 47.6581 142.918 47.6581 142.918C46.4372 141.999 45.7533 140.568 45.7533 139.081C45.7533 137.946 46.1468 136.759 47.0686 135.797C48.3245 134.485 50.2345 134.052 51.9766 134.533L58.4501 136.321C61.1612 137.07 63.3371 139.134 64.2536 141.817L70.316 152.741L109.797 174.898L130.022 155.769L155.798 190.587H155.8Z" fill="white"/>
<path d="M109.057 217.939C103.691 217.939 98.3332 216.229 93.8275 212.828L49.6293 179.46C48.2982 178.795 28.57 168.877 26.7965 164.461C25.4304 161.043 26.1843 159.528 26.751 158.932C25.3727 156.11 26.5743 154.021 27.0641 153.347C26.263 149.668 28.3794 147.082 29.0476 146.375C28.8796 144.642 28.1135 134.976 31.6975 132.902C32.1627 132.635 32.6647 132.582 33.1527 132.752C34.9805 133.385 36.4848 137.074 38.2286 141.344C39.7294 145.02 41.4295 149.187 43.1786 150.447C46.236 152.64 55.711 153.36 56.8181 152.599C56.9108 150.301 51.1143 145.731 47.3852 143.36C46.0296 142.34 45.2408 140.75 45.2408 139.084C45.2408 137.717 45.7585 136.423 46.6996 135.44C48.0551 134.025 50.1296 133.487 52.1113 134.036L58.5847 135.823C61.448 136.616 63.7394 138.775 64.7224 141.604L70.6903 152.361L109.718 174.263L129.67 155.392C129.777 155.291 129.917 155.241 130.066 155.254C130.211 155.266 130.344 155.342 130.431 155.459L156.208 190.277C156.292 190.39 156.327 190.533 156.302 190.673C156.279 190.813 156.201 190.937 156.085 191.016L123.351 213.497C119.03 216.464 114.04 217.939 109.055 217.939H109.057ZM32.5825 133.689C32.4583 133.689 32.3359 133.726 32.2064 133.8C29.4883 135.374 29.7577 143.507 30.0918 146.508C30.111 146.672 30.0498 146.836 29.9291 146.948C29.8172 147.052 27.169 149.563 28.117 153.342C28.1608 153.515 28.1135 153.698 27.9911 153.827C27.9176 153.906 26.1825 155.841 27.8477 158.806C27.9176 158.932 27.9334 159.084 27.8896 159.222C27.8442 159.36 27.7462 159.473 27.615 159.533C27.615 159.533 26.2507 160.329 27.748 164.069C29.1175 167.478 44.3662 175.676 50.1261 178.548C50.154 178.562 50.1803 178.578 50.2065 178.597L94.4432 211.994C102.781 218.289 114.17 218.547 122.777 212.636L155.067 190.461L129.955 156.539L110.148 175.273C109.986 175.427 109.743 175.457 109.549 175.347L70.0676 153.19C69.9854 153.144 69.9155 153.075 69.87 152.99L63.8076 142.066C63.7936 142.039 63.7796 142.011 63.7708 141.981C62.9068 139.452 60.8673 137.523 58.3171 136.815L51.8437 135.028C50.2188 134.578 48.5309 135.012 47.4377 136.152C46.6821 136.941 46.2658 137.979 46.2658 139.075C46.2658 140.416 46.9007 141.696 47.9642 142.497C48.9856 143.144 58.2297 149.135 57.8309 152.79C57.8064 153.017 57.6752 153.333 57.1907 153.553C55.1023 154.499 45.6868 153.507 42.5839 151.282C40.5934 149.85 38.909 145.721 37.2789 141.73C35.8393 138.202 34.2074 134.204 32.8186 133.723C32.7364 133.694 32.6595 133.68 32.5825 133.68V133.689Z" fill="#030047"/>
<path d="M29.5811 146.568C29.5811 146.568 32.6228 156.81 39.0682 162.805L29.5811 146.568Z" fill="white"/>
<path d="M39.0682 163.322C38.944 163.322 38.8199 163.276 38.7219 163.186C32.2485 157.165 29.2173 147.14 29.0913 146.716C29.0091 146.442 29.1648 146.154 29.4359 146.071C29.7088 145.989 29.9939 146.143 30.0743 146.417C30.1041 146.518 33.1527 156.596 39.4181 162.422C39.6262 162.617 39.6402 162.944 39.4478 163.154C39.3463 163.266 39.2082 163.322 39.07 163.322H39.0682Z" fill="#030047"/>
<path d="M27.6221 153.473C27.6221 153.473 31.1798 161.084 35.5105 164.785L27.6221 153.473Z" fill="white"/>
<path d="M35.5106 165.302C35.3934 165.302 35.2762 165.262 35.18 165.18C30.8143 161.449 27.3056 154.01 27.1586 153.695C27.0379 153.437 27.1464 153.127 27.4035 153.005C27.6624 152.882 27.965 152.995 28.0857 153.253C28.1206 153.327 31.6468 160.805 35.843 164.39C36.0598 164.574 36.0861 164.901 35.9042 165.12C35.8027 165.242 35.6575 165.304 35.5124 165.304L35.5106 165.302Z" fill="#030047"/>
<path d="M27.4019 159.064C27.4019 159.064 30.2512 164.263 34.3248 167.287L27.4019 159.064Z" fill="white"/>
<path d="M34.3248 167.806C34.2198 167.806 34.1131 167.772 34.0222 167.705C29.9065 164.649 27.073 159.532 26.954 159.316C26.8176 159.065 26.9068 158.75 27.1534 158.612C27.4001 158.473 27.7131 158.565 27.8496 158.814C27.8776 158.865 30.6954 163.953 34.6274 166.87C34.8548 167.04 34.9037 167.364 34.7376 167.595C34.6379 167.733 34.4822 167.808 34.323 167.808L34.3248 167.806Z" fill="#030047"/>
<path d="M295.447 137.726C293.417 140.709 290.762 143.126 287.713 144.847C284.668 146.562 281.238 147.584 277.662 147.759L260.602 148.617L260.551 108.931L261.835 72.6554C261.835 72.6554 256.617 67.0251 253.297 57.996C249.976 48.9581 261.684 44.1394 261.684 44.1394C261.684 44.1394 261.039 38.8699 260.836 37.2483C260.633 35.6268 263.892 27.7471 276.066 31.0751C288.236 34.4084 287.302 52.2242 287.302 52.2242C293.814 56.332 286.672 65.7802 286.672 65.7802L298.904 119.344C300.347 125.694 299.096 132.364 295.446 137.728L295.447 137.726Z" fill="white"/>
<path d="M260.362 149.075C260.322 149.054 260.283 149.026 260.248 148.992C260.147 148.895 260.089 148.759 260.089 148.617L260.04 108.931L261.315 72.8448C260.439 71.8474 255.825 66.355 252.816 58.1748C249.85 50.1059 258.062 45.7488 261.371 43.5242C260.082 43.0645 260.497 38.6737 260.327 37.3104C260.206 36.3431 260.969 34.085 262.987 32.3096C265.104 30.4475 269.113 28.6368 276.198 30.5731C287.737 33.7331 287.87 49.5507 287.823 51.9468C289.266 52.9352 290.146 54.2686 290.443 55.9096C291.19 60.051 287.97 64.8502 287.225 65.8917L299.404 119.224C300.877 125.702 299.587 132.552 295.869 138.018C293.831 141.012 291.097 143.53 287.963 145.298C284.813 147.07 281.26 148.101 277.687 148.274L260.628 149.132C260.535 149.137 260.442 149.116 260.362 149.072V149.075ZM262.688 43.236C262.83 43.312 262.931 43.4535 262.956 43.618C262.986 43.8249 262.891 44.03 262.713 44.1361C262.568 44.2245 250.644 49.2801 253.78 57.8123C257.021 66.6309 262.16 72.2418 262.211 72.2984C262.303 72.3992 262.354 72.5335 262.349 72.6715L261.067 108.947L261.116 148.069L277.638 147.238C281.056 147.072 284.454 146.087 287.464 144.391C290.462 142.701 293.077 140.292 295.026 137.429C298.583 132.202 299.815 125.65 298.407 119.456L286.175 65.8917C286.14 65.7414 286.175 65.5823 286.266 65.4603C286.305 65.409 290.181 60.2154 289.436 56.0917C289.177 54.6558 288.369 53.5029 287.032 52.6594C286.873 52.5604 286.782 52.38 286.791 52.1926C286.8 52.0193 287.562 34.7551 275.933 31.5704C269.284 29.7526 265.59 31.3936 263.663 33.0894C261.849 34.6844 261.279 36.6349 261.347 37.1795C261.455 38.0548 261.116 42.8098 262.576 43.19C262.615 43.2006 262.653 43.2148 262.688 43.2342V43.236Z" fill="#030047"/>
<path d="M236.856 119.491L259.919 108.486C271.693 121.422 277.16 131.895 280.218 146.747L247.426 164.887L236.856 119.489V119.491Z" fill="#3A86FF"/>
<path d="M247.425 165.408C247.243 165.408 247.069 165.311 246.974 165.139C246.839 164.888 246.929 164.573 247.177 164.435L279.635 146.48C276.571 131.859 271.154 121.665 259.793 109.121L237.072 119.962C236.815 120.084 236.511 119.973 236.39 119.715C236.27 119.456 236.38 119.147 236.635 119.025L259.697 108.021C259.9 107.923 260.141 107.971 260.294 108.139C272.065 121.074 277.601 131.509 280.718 146.646C280.763 146.869 280.66 147.097 280.463 147.207L247.67 165.346C247.592 165.388 247.508 165.41 247.425 165.41V165.408Z" fill="#030047"/>
<path d="M238.111 119.419L171.226 123.337C164.213 123.748 158.588 129.348 158.074 136.43L150.593 239.482H255.622L252.895 132.706C252.437 124.913 245.821 118.966 238.111 119.419Z" fill="#3A86FF"/>
<path d="M255.622 240.001C255.345 240.001 255.116 239.778 255.109 239.497L252.382 132.72C252.375 132.434 252.599 132.197 252.881 132.19C253.18 132.178 253.399 132.409 253.407 132.694L256.134 239.47C256.141 239.757 255.917 239.994 255.636 240.001C255.631 240.001 255.627 240.001 255.622 240.001Z" fill="#030047"/>
<path d="M177.066 122.994L164.187 123.67C156.752 124.059 148.2 127.698 143.53 133.562L121.978 155.977L148.594 201.014L173.066 179.86C180.762 173.207 184.367 162.914 182.525 152.849L177.064 122.994H177.066Z" fill="#3A86FF"/>
<path d="M148.594 201.531C148.566 201.531 148.538 201.53 148.512 201.524C148.363 201.5 148.232 201.409 148.155 201.279L121.539 156.241C121.42 156.04 121.449 155.783 121.61 155.613L143.163 133.198C143.36 132.993 143.686 132.988 143.887 133.188C144.09 133.387 144.095 133.715 143.897 133.92L122.62 156.048L148.721 200.218L172.733 179.463C172.948 179.277 173.272 179.302 173.456 179.519C173.639 179.737 173.613 180.064 173.4 180.25L148.926 201.404C148.833 201.485 148.714 201.528 148.594 201.528V201.531Z" fill="#030047"/>
<path d="M223.304 82.1641L219.244 124.629C219.218 130.812 184.139 129.046 184.166 122.862L193.843 89.4619L223.302 82.1641H223.304Z" fill="white"/>
<path d="M205.354 128.994C205.251 128.994 205.148 128.994 205.045 128.994C196.764 128.959 183.636 127.262 183.655 122.862C183.655 122.814 183.662 122.765 183.676 122.719L193.355 89.3187C193.406 89.1418 193.548 89.0057 193.724 88.9615L223.183 81.6636C223.346 81.6229 223.513 81.6654 223.641 81.775C223.767 81.8846 223.832 82.0491 223.816 82.2171L219.756 124.682C219.753 126.176 218.179 127.336 215.081 128.082C212.594 128.681 209.236 128.998 205.356 128.998L205.354 128.994ZM184.682 122.931C184.753 124.215 187.073 125.497 191.069 126.457C194.949 127.389 200.044 127.935 205.05 127.956C205.148 127.956 205.249 127.956 205.347 127.956C213.237 127.956 218.724 126.597 218.733 124.625L222.725 82.8395L194.254 89.8934L184.682 122.929V122.931Z" fill="#030047"/>
<path d="M198.141 102.221C192.962 103.535 187.928 103.565 184.274 102.264C176.772 99.5884 171.227 90.791 171.067 79.9494C169.989 78.3632 168.303 76.2819 167.722 75.113C167.477 74.6179 167.226 74.1086 167.219 73.5534C167.219 72.3527 168.329 71.5039 169.277 70.7859C170.808 69.6365 172.202 68.3068 173.435 66.8373C179.219 51.8136 196.164 39.2957 208.72 43.499C221.714 47.8579 225.271 67.8753 220.12 83.5904C219.468 85.562 218.578 87.3958 217.493 89.0792" fill="white"/>
<path d="M190.545 103.738C188.15 103.738 185.95 103.411 184.106 102.753C176.202 99.9328 170.771 90.849 170.559 80.117C170.194 79.5848 169.765 79.003 169.338 78.4212C168.474 77.2453 167.659 76.1365 167.267 75.3479C167.009 74.8244 166.718 74.2356 166.709 73.5619C166.709 72.0871 167.965 71.1375 168.975 70.3736C170.435 69.2772 171.785 67.997 172.992 66.5699C178.649 51.9901 195.53 38.5385 208.884 43.0088C222.202 47.4774 225.752 68.0695 220.61 83.7545C219.959 85.7208 219.057 87.6076 217.925 89.3636C217.769 89.6023 217.453 89.6713 217.215 89.5157C216.977 89.36 216.911 89.0382 217.065 88.7995C218.149 87.1178 219.013 85.3106 219.636 83.4291C224.624 68.2092 221.304 48.2696 208.56 43.9938C195.703 39.6897 179.377 52.8407 173.914 67.0279C173.893 67.081 173.863 67.1305 173.827 67.1747C172.557 68.6884 171.128 70.0447 169.585 71.2029C168.717 71.859 167.733 72.6052 167.733 73.5548C167.738 73.9845 167.953 74.4213 168.182 74.8828C168.534 75.5901 169.361 76.7148 170.16 77.8041C170.629 78.4424 171.1 79.0826 171.49 79.6573C171.548 79.7421 171.579 79.8412 171.581 79.9437C171.735 90.3132 176.905 99.0858 184.447 101.777C187.977 103.034 192.925 103.013 198.019 101.721C198.295 101.652 198.571 101.82 198.641 102.097C198.709 102.375 198.543 102.656 198.269 102.727C195.606 103.402 192.976 103.74 190.546 103.74L190.545 103.738Z" fill="#030047"/>
<path d="M197.088 65.7076C197.088 65.7076 191.795 57.2462 192.042 50.1552C192.042 50.1552 177.068 54.1622 172.331 41.1633C167.594 28.1644 181.029 23.8461 192.227 29.1334C192.227 29.1334 189.766 20.9868 193.826 19.7419C197.885 18.4987 204.777 26.2723 204.777 26.2723C204.777 26.2723 205.762 21.3581 207.238 18.1875C207.238 18.1875 211.791 28.2015 218.619 29.3208C225.448 30.4402 235.045 33.5507 235.967 51.2127C235.967 51.2127 242.334 54.9137 238.458 73.0744C235.481 87.0229 227.132 95.4313 223.419 98.5807C222.338 99.4984 220.977 100.004 219.564 100.004L209.954 101.155C206.708 101.544 203.901 98.8777 204.081 95.578L205.045 77.9868L197.088 65.7058V65.7076Z" fill="#030047"/>
<path d="M196.208 66.4908C196.208 66.4908 205.335 57.9357 210.196 59.8844C215.056 61.8331 212.543 79.3147 206.633 80.7382C200.722 82.1599 196.101 79.6401 196.101 79.6401" fill="white"/>
<path d="M202.93 81.6941C198.849 81.6941 196.009 80.1769 195.856 80.0938C195.608 79.9576 195.515 79.6446 195.648 79.3918C195.783 79.1389 196.093 79.047 196.343 79.1814C196.388 79.2061 200.88 81.588 206.514 80.2317C209.589 79.4908 211.817 73.5758 212.195 68.2832C212.49 64.1241 211.632 61.0154 210.007 60.3647C205.503 58.5574 196.645 66.7854 196.556 66.8685C196.348 67.063 196.024 67.0507 195.832 66.8402C195.64 66.6298 195.652 66.3027 195.86 66.1082C196.243 65.7492 205.277 57.355 210.385 59.4009C212.497 60.2479 213.556 63.5971 213.216 68.3575C212.807 74.0851 210.456 80.3484 206.752 81.2397C205.398 81.565 204.112 81.6924 202.93 81.6924V81.6941Z" fill="#030047"/>
<path d="M202.512 67.7984C203.859 67.0752 205.206 66.3519 206.551 65.6269C206.796 65.4943 207.06 65.3599 207.336 65.3811C207.651 65.4077 207.92 65.6411 208.069 65.9222C208.218 66.2034 208.265 66.527 208.295 66.8453C208.427 68.3431 208.186 69.8727 207.597 71.252" fill="white"/>
<path d="M207.598 71.7726C207.53 71.7726 207.462 71.7585 207.395 71.7302C207.135 71.617 207.016 71.3111 207.128 71.0494C207.684 69.7461 207.911 68.3085 207.786 66.8938C207.763 66.6374 207.728 66.3722 207.619 66.1688C207.539 66.0185 207.406 65.9089 207.296 65.9C207.173 65.8894 206.956 65.9973 206.794 66.0857L202.753 68.2572C202.503 68.3916 202.194 68.2943 202.061 68.0432C201.928 67.7904 202.022 67.4774 202.272 67.343L206.311 65.1715C206.561 65.0371 206.951 64.8319 207.378 64.8673C207.845 64.9062 208.272 65.2086 208.522 65.679C208.718 66.045 208.774 66.4358 208.807 66.8019C208.949 68.3863 208.695 69.999 208.069 71.4614C207.985 71.6577 207.796 71.7744 207.598 71.7744V71.7726Z" fill="#030047"/>
<path d="M188.753 64.3908C187.872 62.3183 185.698 60.9974 183.233 61.038L188.753 64.3908Z" fill="white"/>
<path d="M188.753 64.9093C188.556 64.9093 188.365 64.7926 188.283 64.5963C187.494 62.7413 185.565 61.5565 183.347 61.5565C183.308 61.5565 183.265 61.5565 183.233 61.5565C182.955 61.5565 182.726 61.3302 182.721 61.0473C182.716 60.7608 182.941 60.5256 183.225 60.5203C185.925 60.4814 188.258 61.9137 189.224 64.186C189.336 64.4495 189.215 64.7537 188.955 64.8668C188.888 64.8951 188.82 64.9093 188.752 64.9093H188.753Z" fill="#030047"/>
<path d="M179.66 69.2999C178.652 70.5236 178.497 72.0638 179.31 72.7535C180.116 73.436 181.589 72.9957 182.602 71.7791C183.609 70.5554 183.772 69.0099 182.952 68.3256C182.145 67.643 180.673 68.0833 179.66 69.2999Z" fill="#030047"/>
<path d="M177.862 83.8086C178.36 85.1914 179.42 86.3585 180.739 86.9792C182.06 87.5999 183.625 87.6653 184.991 87.1596" fill="white"/>
<path d="M177.862 83.2908C178.072 83.2908 178.268 83.4217 178.343 83.6321C178.797 84.8947 179.749 85.9433 180.954 86.5092C182.159 87.075 183.567 87.1352 184.814 86.6719C185.079 86.5728 185.374 86.7108 185.472 86.9795C185.57 87.2483 185.434 87.5454 185.168 87.6444C183.667 88.2015 181.974 88.129 180.522 87.4482C179.072 86.7673 177.926 85.5048 177.379 83.9858C177.283 83.717 177.419 83.4199 177.685 83.3209C177.743 83.2997 177.802 83.2891 177.86 83.2891L177.862 83.2908Z" fill="#030047"/>
<path d="M287.3 52.223C287.3 52.223 275.376 40.9376 270.925 45.3425C266.473 49.7473 276.672 56.6226 276.672 56.6226C276.672 56.6226 271.082 60.4634 276.023 63.9116" fill="white"/>
<path d="M275.784 64.3691C275.766 64.3603 275.749 64.3497 275.731 64.3373C274.227 63.2869 273.466 62.0774 273.47 60.7388C273.477 58.8997 274.96 57.3683 275.808 56.6416C274.168 55.4356 269.629 51.8052 269.303 48.2916C269.186 47.0307 269.611 45.9132 270.563 44.9689C275.312 40.2722 287.146 51.3684 287.648 51.8423C287.854 52.0386 287.865 52.3658 287.673 52.5744C287.48 52.7831 287.155 52.7937 286.948 52.5992C283.732 49.5559 274.645 42.3836 271.282 45.7098C270.551 46.433 270.237 47.2447 270.325 48.1943C270.668 51.906 276.893 56.1464 276.956 56.1889C277.097 56.2844 277.183 56.4453 277.183 56.6168C277.183 56.7883 277.101 56.951 276.959 57.0483C276.935 57.066 274.5 58.7689 274.495 60.7441C274.493 61.7184 275.103 62.6397 276.314 63.4832C276.546 63.6459 276.604 63.9677 276.445 64.2047C276.296 64.4239 276.01 64.4894 275.784 64.3691Z" fill="#030047"/>
<path d="M103.49 180.708C103.343 180.708 103.196 180.645 103.096 180.521C102.916 180.301 102.946 179.974 103.163 179.79L109.472 174.496C109.69 174.314 110.012 174.344 110.194 174.563C110.374 174.783 110.344 175.11 110.128 175.294L103.818 180.588C103.722 180.668 103.607 180.708 103.491 180.708H103.49Z" fill="#030047"/>
<path d="M51.6338 212.987L48.6743 216.227C47.2821 217.737 44.9487 217.831 43.4568 216.435L40.2524 213.443C38.7586 212.048 38.6659 209.689 40.046 208.179L43.0055 204.927C44.3855 203.417 46.7188 203.323 48.2231 204.719L51.4274 207.723C52.9212 209.118 53.0139 211.475 51.6338 212.987Z" fill="#FFCC3D"/>
<path d="M81.4053 47.5927L79.2731 49.9269C78.2709 51.0144 76.59 51.0834 75.5125 50.0772L73.2037 47.9216C72.128 46.9155 72.0615 45.2161 73.055 44.1286L75.1872 41.7856C76.1807 40.6981 77.8616 40.6309 78.9478 41.6353L81.2566 43.7997C82.3323 44.8041 82.3988 46.5035 81.4053 47.5927Z" fill="#FFCC3D"/>
<path d="M173.473 6.66891L171.341 9.00309C170.338 10.0906 168.658 10.1596 167.58 9.1534L165.271 6.99782C164.196 5.99164 164.129 4.29229 165.123 3.20477L167.255 0.861744C168.248 -0.225773 169.929 -0.292969 171.015 0.711437L173.324 2.87586C174.4 3.88027 174.466 5.57962 173.473 6.66891Z" fill="#FFCC3D"/>
<path d="M9.05346 107.056L6.9213 109.39C5.91906 110.477 4.23817 110.546 3.16072 109.54L0.851893 107.385C-0.223808 106.378 -0.290274 104.679 0.703219 103.591L2.83538 101.248C3.82887 100.161 5.50977 100.094 6.59596 101.098L8.90479 103.263C9.98049 104.267 10.047 105.966 9.05346 107.056Z" fill="#FFCC3D"/>
<g opacity="0.4">
<path d="M153.521 160.141C153.505 160.141 153.49 160.141 153.474 160.141C153.19 160.136 152.965 159.899 152.97 159.614C152.975 159.328 153.208 159.094 153.491 159.107C154.095 159.117 154.742 158.737 155.024 158.178C155.305 157.62 155.24 156.881 154.868 156.38C154.707 156.166 154.49 155.979 154.257 155.779C154.131 155.671 154.004 155.561 153.885 155.446C153.344 154.932 153.068 154.389 153.059 153.834C153.052 153.238 153.365 152.642 153.965 152.108C154.095 151.993 154.231 151.883 154.366 151.775C154.628 151.567 154.875 151.369 155.052 151.137C155.424 150.647 155.489 149.924 155.209 149.376C155.079 149.121 155.177 148.808 155.429 148.677C155.683 148.545 155.989 148.647 156.12 148.9C156.582 149.805 156.479 150.958 155.865 151.768C155.611 152.103 155.302 152.35 155.003 152.589C154.88 152.686 154.758 152.783 154.642 152.886C154.385 153.114 154.079 153.461 154.084 153.82C154.089 154.148 154.361 154.476 154.588 154.691C154.695 154.794 154.808 154.891 154.922 154.988C155.186 155.215 155.457 155.448 155.686 155.756C156.297 156.575 156.397 157.736 155.937 158.649C155.484 159.547 154.516 160.143 153.519 160.143L153.521 160.141Z" fill="white"/>
</g>
<g opacity="0.4">
<path d="M162.816 143.076C162.8 143.076 162.784 143.076 162.768 143.076C162.485 143.071 162.259 142.834 162.265 142.549C162.27 142.263 162.524 142.027 162.786 142.042C163.393 142.049 164.035 141.672 164.318 141.113C164.6 140.554 164.537 139.815 164.163 139.315C164.002 139.101 163.785 138.913 163.552 138.714C163.426 138.606 163.298 138.496 163.18 138.381C162.639 137.867 162.363 137.324 162.354 136.768C162.347 136.173 162.66 135.577 163.26 135.043C163.389 134.928 163.526 134.82 163.661 134.71C163.923 134.501 164.17 134.303 164.346 134.072C164.719 133.582 164.783 132.859 164.504 132.311C164.374 132.056 164.472 131.743 164.724 131.612C164.978 131.481 165.284 131.582 165.415 131.835C165.877 132.742 165.773 133.893 165.16 134.703C164.906 135.039 164.596 135.285 164.297 135.524C164.177 135.621 164.054 135.718 163.937 135.821C163.68 136.049 163.374 136.395 163.379 136.754C163.384 137.083 163.655 137.41 163.883 137.626C163.989 137.729 164.103 137.826 164.217 137.923C164.481 138.15 164.752 138.383 164.981 138.691C165.592 139.509 165.691 140.671 165.231 141.584C164.778 142.482 163.811 143.078 162.814 143.078L162.816 143.076Z" fill="white"/>
</g>
<g opacity="0.4">
<path d="M225.028 185.201C225.012 185.201 224.997 185.201 224.981 185.201C224.698 185.196 224.472 184.959 224.477 184.674C224.482 184.389 224.743 184.152 224.998 184.167C225.614 184.179 226.247 183.797 226.531 183.238C226.812 182.679 226.747 181.94 226.375 181.44C226.214 181.226 225.997 181.037 225.764 180.839C225.639 180.731 225.513 180.621 225.392 180.506C224.851 179.99 224.573 179.447 224.566 178.893C224.559 178.298 224.872 177.702 225.472 177.168C225.602 177.053 225.738 176.943 225.875 176.835C226.137 176.626 226.384 176.43 226.56 176.197C226.931 175.709 226.996 174.984 226.718 174.436C226.588 174.181 226.688 173.868 226.94 173.737C227.192 173.606 227.501 173.707 227.631 173.962C228.093 174.869 227.989 176.02 227.375 176.828C227.12 177.164 226.812 177.41 226.513 177.649C226.391 177.746 226.268 177.843 226.153 177.947C225.896 178.176 225.591 178.522 225.595 178.881C225.598 179.21 225.871 179.537 226.099 179.753C226.205 179.855 226.319 179.953 226.431 180.05C226.695 180.276 226.966 180.511 227.195 180.817C227.806 181.636 227.905 182.798 227.445 183.71C226.992 184.609 226.025 185.205 225.028 185.205V185.201Z" fill="white"/>
</g>
<g opacity="0.4">
<path d="M189.873 153.502C189.295 153.502 188.72 153.323 188.253 152.975C188.026 152.805 187.977 152.48 188.145 152.25C188.312 152.02 188.634 151.97 188.862 152.142C189.362 152.515 190.093 152.572 190.642 152.282C191.191 151.992 191.564 151.351 191.547 150.724C191.54 150.455 191.468 150.174 191.394 149.875C191.354 149.714 191.312 149.551 191.281 149.389C191.135 148.651 191.221 148.046 191.533 147.59C191.868 147.1 192.465 146.798 193.259 146.715C193.43 146.697 193.603 146.688 193.777 146.68C194.109 146.662 194.424 146.646 194.7 146.559C195.283 146.379 195.751 145.825 195.839 145.215C195.879 144.932 196.134 144.736 196.42 144.777C196.699 144.817 196.894 145.081 196.853 145.364C196.71 146.374 195.967 147.252 195.003 147.551C194.604 147.675 194.21 147.696 193.829 147.716C193.673 147.725 193.518 147.732 193.364 147.748C193.023 147.783 192.577 147.887 192.376 148.181C192.19 148.451 192.225 148.878 192.285 149.187C192.313 149.332 192.349 149.477 192.386 149.622C192.47 149.962 192.559 150.312 192.57 150.695C192.598 151.719 192.014 152.727 191.116 153.201C190.731 153.404 190.303 153.503 189.871 153.503L189.873 153.502Z" fill="white"/>
</g>
<g opacity="0.4">
<path d="M176.922 169.29C176.824 169.29 176.723 169.281 176.622 169.262C176.046 169.156 175.485 168.749 175.189 168.224C174.865 167.649 174.781 167.027 174.701 166.424C174.675 166.235 174.65 166.047 174.617 165.862C174.554 165.508 174.342 164.664 173.76 164.47C173.358 164.334 172.896 164.532 172.359 164.762C172.056 164.892 171.742 165.027 171.409 165.11C170.431 165.354 169.354 165.092 168.595 164.424C167.836 163.757 167.428 162.714 167.531 161.702C167.561 161.418 167.806 161.213 168.095 161.241C168.376 161.271 168.581 161.526 168.551 161.81C168.483 162.482 168.763 163.202 169.267 163.644C169.77 164.086 170.514 164.268 171.163 164.106C171.416 164.042 171.68 163.929 171.958 163.808C172.592 163.536 173.31 163.227 174.084 163.487C174.871 163.752 175.418 164.53 175.625 165.678C175.661 165.879 175.688 166.083 175.716 166.286C175.785 166.813 175.852 167.312 176.078 167.711C176.224 167.973 176.524 168.192 176.803 168.243C176.963 168.273 177.09 168.245 177.187 168.166C177.403 167.983 177.727 168.014 177.907 168.233C178.087 168.454 178.058 168.779 177.839 168.963C177.582 169.179 177.263 169.292 176.919 169.292L176.922 169.29Z" fill="white"/>
</g>
<g opacity="0.4">
<path d="M215.195 204.014C214.973 204.014 214.745 203.961 214.526 203.857C213.998 203.606 213.557 203.065 213.405 202.481C213.237 201.841 213.316 201.217 213.391 200.614C213.416 200.425 213.439 200.237 213.453 200.05C213.481 199.693 213.491 198.823 212.979 198.481C212.622 198.244 212.125 198.317 211.55 198.4C211.222 198.448 210.881 198.492 210.542 198.49C209.536 198.472 208.56 197.938 207.995 197.097C207.432 196.255 207.303 195.141 207.659 194.19C207.761 193.923 208.057 193.788 208.321 193.889C208.585 193.992 208.718 194.29 208.618 194.557C208.38 195.189 208.469 195.956 208.844 196.515C209.218 197.074 209.891 197.442 210.558 197.454C210.831 197.459 211.103 197.417 211.403 197.374C212.085 197.275 212.86 197.164 213.538 197.615C214.231 198.075 214.563 198.969 214.472 200.131C214.455 200.334 214.43 200.538 214.404 200.743C214.338 201.272 214.276 201.77 214.394 202.216C214.469 202.508 214.701 202.796 214.96 202.918C215.104 202.987 215.233 202.996 215.349 202.941C215.604 202.821 215.908 202.934 216.029 203.194C216.148 203.454 216.036 203.761 215.779 203.882C215.593 203.968 215.394 204.013 215.193 204.013L215.195 204.014Z" fill="white"/>
</g>
<g opacity="0.4">
<path d="M238.305 216.688C238.193 216.688 238.078 216.65 237.984 216.573C237.648 216.3 237.459 215.892 237.448 215.425C237.436 214.834 237.719 214.196 238.171 213.798C238.664 213.363 239.252 213.156 239.818 212.956C239.997 212.895 240.173 212.833 240.347 212.762C240.675 212.629 241.452 212.253 241.527 211.636C241.578 211.209 241.295 210.79 240.966 210.306C240.779 210.032 240.586 209.747 240.439 209.432C240.009 208.513 240.048 207.392 240.544 206.507C241.039 205.621 241.97 205.011 242.972 204.914C243.25 204.889 243.504 205.095 243.532 205.379C243.56 205.664 243.353 205.917 243.072 205.945C242.407 206.01 241.765 206.431 241.436 207.018C241.108 207.605 241.08 208.378 241.366 208.988C241.478 209.227 241.641 209.466 241.812 209.719C242.202 210.293 242.645 210.944 242.547 211.761C242.447 212.594 241.802 213.292 240.73 213.724C240.543 213.8 240.35 213.867 240.158 213.934C239.661 214.109 239.192 214.274 238.848 214.576C238.624 214.774 238.47 215.114 238.477 215.402C238.48 215.563 238.531 215.685 238.629 215.765C238.849 215.943 238.884 216.27 238.708 216.493C238.606 216.62 238.458 216.686 238.309 216.686L238.305 216.688Z" fill="white"/>
</g>
<g opacity="0.4">
<path d="M207.131 224.705C206.933 224.705 206.745 224.588 206.661 224.394C206.489 223.996 206.507 223.545 206.713 223.126C206.972 222.597 207.516 222.164 208.098 222.021C208.733 221.865 209.349 221.957 209.944 222.045C210.129 222.074 210.316 222.1 210.502 222.12C210.855 222.157 211.716 222.185 212.062 221.674C212.303 221.32 212.242 220.816 212.172 220.233C212.132 219.902 212.092 219.561 212.104 219.212C212.142 218.196 212.69 217.221 213.535 216.668C214.378 216.116 215.481 216.008 216.417 216.39C216.68 216.498 216.805 216.799 216.7 217.064C216.594 217.329 216.298 217.458 216.032 217.35C215.415 217.098 214.652 217.17 214.091 217.538C213.531 217.904 213.153 218.578 213.127 219.251C213.118 219.515 213.152 219.803 213.188 220.107C213.272 220.799 213.365 221.584 212.905 222.261C212.441 222.944 211.52 223.267 210.397 223.152C210.196 223.131 209.994 223.101 209.792 223.073C209.272 222.995 208.781 222.922 208.336 223.03C208.046 223.101 207.756 223.331 207.63 223.589C207.56 223.734 207.547 223.865 207.598 223.982C207.712 224.243 207.593 224.549 207.334 224.664C207.268 224.694 207.198 224.708 207.128 224.708L207.131 224.705Z" fill="white"/>
</g>
<g opacity="0.4">
<path d="M188.995 217.941C188.902 217.941 188.806 217.915 188.722 217.862C188.358 217.63 188.124 217.246 188.062 216.781C187.984 216.196 188.194 215.529 188.596 215.082C189.037 214.592 189.596 214.32 190.139 214.056C190.308 213.973 190.478 213.892 190.642 213.801C190.956 213.632 191.683 213.168 191.687 212.548C191.69 212.118 191.36 211.734 190.978 211.29C190.761 211.039 190.538 210.779 190.356 210.484C189.824 209.621 189.738 208.504 190.13 207.566C190.524 206.629 191.379 205.916 192.364 205.703C192.645 205.644 192.913 205.821 192.972 206.1C193.032 206.38 192.855 206.656 192.579 206.716C191.926 206.857 191.335 207.349 191.074 207.971C190.814 208.592 190.873 209.365 191.227 209.936C191.365 210.16 191.554 210.378 191.751 210.61C192.204 211.137 192.717 211.733 192.712 212.555C192.706 213.395 192.143 214.16 191.127 214.714C190.95 214.811 190.765 214.9 190.581 214.99C190.107 215.22 189.659 215.439 189.353 215.778C189.152 216.001 189.039 216.357 189.077 216.641C189.098 216.801 189.163 216.917 189.269 216.984C189.509 217.138 189.581 217.458 189.429 217.699C189.331 217.854 189.164 217.939 188.995 217.939V217.941Z" fill="white"/>
</g>
<g opacity="0.4">
<path d="M165.523 226.537C164.67 226.537 163.822 226.18 163.232 225.552C163.038 225.345 163.047 225.016 163.251 224.82C163.458 224.623 163.781 224.63 163.976 224.839C164.436 225.329 165.156 225.582 165.819 225.481C166.479 225.382 167.099 224.928 167.397 224.325C167.514 224.088 167.601 223.812 167.692 223.52C167.901 222.855 168.135 222.102 168.831 221.679C169.541 221.246 170.482 221.331 171.479 221.918C171.654 222.02 171.826 222.132 171.995 222.243C172.438 222.531 172.856 222.804 173.304 222.89C173.596 222.949 173.954 222.86 174.175 222.678C174.299 222.576 174.362 222.461 174.363 222.333C174.367 222.05 174.596 221.822 174.876 221.822H174.885C175.168 221.826 175.394 222.063 175.388 222.349C175.381 222.784 175.18 223.186 174.822 223.483C174.369 223.856 173.697 224.022 173.109 223.909C172.466 223.783 171.943 223.444 171.439 223.113C171.282 223.011 171.124 222.906 170.963 222.813C170.655 222.632 169.884 222.247 169.359 222.567C168.995 222.788 168.843 223.272 168.668 223.833C168.569 224.151 168.465 224.48 168.313 224.791C167.862 225.7 166.965 226.358 165.97 226.508C165.823 226.531 165.672 226.542 165.523 226.542V226.537Z" fill="white"/>
</g>
<g opacity="0.4">
<path d="M175.467 203.725C175.282 203.725 175.089 203.689 174.9 203.617C174.355 203.408 173.874 202.904 173.678 202.333C173.461 201.707 173.492 201.079 173.52 200.473C173.529 200.283 173.538 200.092 173.54 199.905C173.54 199.546 173.484 198.678 172.947 198.379C172.574 198.172 172.084 198.282 171.516 198.409C171.194 198.481 170.862 198.556 170.519 198.577C169.515 198.639 168.502 198.183 167.874 197.387C167.246 196.591 167.033 195.491 167.316 194.515C167.395 194.241 167.68 194.084 167.953 194.163C168.224 194.245 168.38 194.531 168.301 194.807C168.112 195.454 168.261 196.214 168.675 196.741C169.092 197.268 169.786 197.581 170.456 197.542C170.718 197.527 170.996 197.463 171.292 197.397C171.965 197.245 172.728 197.074 173.44 197.47C174.166 197.875 174.565 198.74 174.563 199.907C174.563 200.112 174.552 200.317 174.544 200.522C174.517 201.054 174.495 201.557 174.645 201.992C174.743 202.276 174.998 202.547 175.264 202.648C175.413 202.704 175.544 202.702 175.654 202.641C175.901 202.501 176.214 202.589 176.352 202.839C176.49 203.088 176.403 203.404 176.155 203.544C175.943 203.664 175.709 203.725 175.467 203.725Z" fill="white"/>
</g>
<g opacity="0.4">
<path d="M206.769 178.465C206.584 178.465 206.391 178.429 206.202 178.357C205.657 178.148 205.176 177.644 204.98 177.073C204.763 176.447 204.794 175.819 204.822 175.213C204.831 175.024 204.84 174.833 204.842 174.645C204.842 174.286 204.786 173.418 204.249 173.119C203.876 172.912 203.386 173.022 202.818 173.149C202.496 173.222 202.164 173.296 201.821 173.317C200.819 173.381 199.804 172.923 199.176 172.127C198.55 171.331 198.337 170.231 198.62 169.255C198.699 168.981 198.984 168.824 199.257 168.903C199.528 168.985 199.684 169.271 199.605 169.547C199.416 170.194 199.565 170.955 199.979 171.482C200.395 172.009 201.09 172.323 201.76 172.283C202.022 172.267 202.3 172.203 202.596 172.138C203.269 171.986 204.032 171.814 204.744 172.21C205.47 172.615 205.868 173.48 205.867 174.647C205.867 174.852 205.856 175.057 205.847 175.262C205.823 175.795 205.798 176.297 205.949 176.732C206.047 177.017 206.302 177.287 206.568 177.388C206.717 177.444 206.85 177.443 206.958 177.381C207.205 177.241 207.516 177.33 207.656 177.579C207.794 177.828 207.707 178.145 207.458 178.284C207.247 178.405 207.012 178.465 206.771 178.465H206.769Z" fill="white"/>
</g>
<g opacity="0.4">
<path d="M244.154 169.576C243.969 169.576 243.777 169.54 243.59 169.468C243.044 169.259 242.563 168.755 242.365 168.184C242.148 167.558 242.18 166.93 242.208 166.324C242.216 166.135 242.225 165.944 242.227 165.756C242.227 165.397 242.173 164.529 241.634 164.23C241.261 164.023 240.773 164.133 240.205 164.26C239.883 164.333 239.549 164.407 239.206 164.428C238.213 164.49 237.188 164.034 236.562 163.238C235.934 162.442 235.722 161.342 236.005 160.366C236.086 160.092 236.366 159.933 236.642 160.016C236.913 160.098 237.069 160.386 236.988 160.66C236.799 161.307 236.946 162.066 237.363 162.594C237.779 163.123 238.486 163.438 239.143 163.395C239.406 163.38 239.684 163.316 239.979 163.25C240.653 163.098 241.415 162.927 242.127 163.323C242.855 163.728 243.254 164.593 243.25 165.76C243.25 165.963 243.24 166.168 243.231 166.375C243.205 166.907 243.182 167.41 243.332 167.845C243.43 168.129 243.686 168.4 243.952 168.501C244.1 168.557 244.231 168.555 244.34 168.494C244.588 168.354 244.9 168.442 245.038 168.692C245.176 168.941 245.089 169.257 244.842 169.397C244.63 169.517 244.396 169.578 244.154 169.578V169.576Z" fill="white"/>
</g>
<g opacity="0.4">
<path d="M229.189 139.578C229.105 139.578 229.019 139.557 228.941 139.513C228.565 139.303 228.308 138.933 228.22 138.473C228.108 137.893 228.28 137.216 228.656 136.746C229.068 136.231 229.612 135.927 230.137 135.632C230.302 135.54 230.466 135.448 230.625 135.349C230.928 135.161 231.627 134.655 231.598 134.035C231.577 133.605 231.225 133.243 230.819 132.822C230.588 132.583 230.35 132.337 230.153 132.052C229.572 131.221 229.423 130.111 229.761 129.152C230.099 128.194 230.914 127.432 231.883 127.161C232.161 127.085 232.439 127.248 232.514 127.524C232.589 127.8 232.428 128.084 232.156 128.16C231.512 128.339 230.95 128.866 230.727 129.501C230.501 130.136 230.606 130.903 230.989 131.453C231.141 131.669 231.34 131.876 231.552 132.095C232.033 132.594 232.581 133.159 232.621 133.98C232.663 134.818 232.145 135.617 231.164 136.227C230.992 136.334 230.814 136.434 230.636 136.535C230.176 136.793 229.74 137.037 229.453 137.395C229.266 137.628 229.172 137.989 229.226 138.272C229.257 138.429 229.327 138.54 229.437 138.602C229.686 138.74 229.775 139.057 229.637 139.306C229.544 139.478 229.369 139.573 229.187 139.573L229.189 139.578Z" fill="white"/>
</g>
<g opacity="0.4">
<path d="M267.986 148.801C267.801 148.801 267.608 148.765 267.42 148.693C266.874 148.484 266.393 147.98 266.197 147.409C265.98 146.783 266.012 146.155 266.039 145.549C266.048 145.36 266.057 145.169 266.059 144.981C266.059 144.622 266.005 143.756 265.466 143.455C265.093 143.248 264.603 143.358 264.035 143.485C263.713 143.558 263.381 143.632 263.038 143.653C262.022 143.715 261.02 143.259 260.392 142.463C259.765 141.667 259.552 140.567 259.835 139.591C259.914 139.317 260.199 139.16 260.472 139.239C260.743 139.321 260.899 139.607 260.82 139.883C260.631 140.53 260.78 141.291 261.194 141.818C261.611 142.345 262.303 142.658 262.975 142.619C263.237 142.603 263.516 142.539 263.811 142.474C264.485 142.322 265.247 142.15 265.959 142.546C266.676 142.946 267.085 143.834 267.082 144.983C267.082 145.186 267.071 145.391 267.063 145.598C267.036 146.131 267.014 146.633 267.164 147.068C267.262 147.352 267.517 147.623 267.783 147.724C267.932 147.78 268.063 147.779 268.173 147.717C268.42 147.577 268.733 147.665 268.871 147.915C269.009 148.164 268.922 148.481 268.674 148.62C268.462 148.741 268.228 148.801 267.986 148.801Z" fill="white"/>
</g>
<g opacity="0.4">
<path d="M259.634 133.788C259.573 133.788 259.51 133.777 259.449 133.753C259.048 133.595 258.744 133.266 258.595 132.822C258.406 132.264 258.483 131.569 258.793 131.051C259.132 130.483 259.629 130.106 260.11 129.742C260.26 129.627 260.411 129.514 260.554 129.394C260.829 129.166 261.453 128.568 261.339 127.958C261.259 127.535 260.864 127.224 260.404 126.863C260.143 126.658 259.874 126.448 259.639 126.195C258.952 125.452 258.653 124.372 258.859 123.376C259.066 122.381 259.767 121.512 260.692 121.111C260.948 120.998 261.254 121.118 261.366 121.381C261.478 121.645 261.357 121.949 261.096 122.062C260.484 122.329 260 122.927 259.863 123.588C259.727 124.25 259.933 124.994 260.388 125.486C260.568 125.678 260.794 125.857 261.033 126.045C261.579 126.472 262.197 126.957 262.347 127.763C262.501 128.577 262.085 129.461 261.208 130.193C261.053 130.322 260.89 130.446 260.727 130.57C260.306 130.89 259.909 131.19 259.673 131.585C259.519 131.843 259.475 132.212 259.568 132.485C259.618 132.637 259.704 132.738 259.821 132.784C260.085 132.886 260.217 133.187 260.113 133.454C260.035 133.659 259.841 133.786 259.636 133.786L259.634 133.788Z" fill="white"/>
</g>
<g opacity="0.4">
<path d="M153.456 186.261C153.194 186.261 152.97 186.058 152.946 185.789C152.919 185.504 153.129 185.251 153.411 185.227C154.665 185.113 155.826 184.143 156.169 182.917C156.514 181.692 156.031 180.249 155.022 179.487C154.768 179.294 154.476 179.133 154.168 178.96C153.526 178.602 152.863 178.233 152.444 177.541C151.732 176.371 152.136 174.921 152.855 174.001C153.577 173.076 154.611 172.512 155.524 172.014C155.772 171.878 156.083 171.971 156.218 172.222C156.353 172.473 156.26 172.788 156.01 172.924C155.146 173.398 154.25 173.886 153.659 174.643C153.178 175.259 152.867 176.258 153.316 176.999C153.594 177.457 154.114 177.747 154.663 178.053C154.988 178.235 155.326 178.422 155.637 178.657C156.995 179.683 157.621 181.552 157.157 183.202C156.694 184.852 155.191 186.109 153.503 186.261C153.488 186.261 153.472 186.263 153.458 186.263L153.456 186.261Z" fill="white"/>
</g>
<g opacity="0.4">
<path d="M139.843 169.921C139.761 169.921 139.675 169.9 139.598 169.857C138.662 169.339 138.283 168.162 138.531 166.54L138.563 166.339C138.703 165.447 138.846 164.526 138.4 163.934C138.01 163.415 137.307 163.285 136.493 163.133C136.061 163.053 135.615 162.97 135.192 162.818C133.83 162.328 132.798 161.08 132.561 159.637C132.327 158.194 132.91 156.676 134.046 155.771C134.269 155.594 134.592 155.633 134.765 155.858C134.94 156.082 134.902 156.408 134.68 156.584C133.845 157.249 133.401 158.408 133.572 159.467C133.744 160.526 134.533 161.481 135.533 161.84C135.88 161.964 136.268 162.036 136.677 162.112C137.571 162.278 138.584 162.468 139.213 163.304C139.923 164.25 139.738 165.444 139.572 166.498L139.54 166.696C139.458 167.235 139.346 168.537 140.086 168.947C140.335 169.085 140.425 169.399 140.289 169.651C140.196 169.822 140.02 169.919 139.838 169.919L139.843 169.921Z" fill="white"/>
</g>
<path d="M99.288 141.362C112.089 141.362 122.465 130.871 122.465 117.93C122.465 104.989 112.089 94.498 99.288 94.498C86.4875 94.498 76.1106 104.989 76.1106 117.93C76.1106 130.871 86.4875 141.362 99.288 141.362Z" fill="#05CE2B"/>
<path fill-rule="evenodd" clip-rule="evenodd" d="M112.753 108.081C113.471 108.806 113.471 109.982 112.754 110.707L95.8694 127.778C95.525 128.126 95.0579 128.322 94.5708 128.322C94.0837 128.322 93.6165 128.126 93.2721 127.778L85.8209 120.245C85.1037 119.52 85.1037 118.344 85.8209 117.619C86.5381 116.894 87.7009 116.894 88.4182 117.619L94.5707 123.839L110.156 108.081C110.873 107.356 112.036 107.356 112.753 108.081Z" fill="white"/>
</g>
<defs>
<clipPath id="clip0_1096_1422">
<rect width="300" height="240" fill="white"/>
</clipPath>
</defs>
</svg>
