<svg width="51" height="56" viewBox="0 0 51 56" fill="none" xmlns="http://www.w3.org/2000/svg">
<g clip-path="url(#clip0_3_45)">
<path d="M23.0948 27.6362L32.7109 18.02" stroke="#3A86FF" stroke-width="3" stroke-linecap="round" stroke-linejoin="round"/>
<path fill-rule="evenodd" clip-rule="evenodd" d="M32.7109 18.02L34.0217 9.36615L41.5171 2L42.6755 8.05538L48.7309 9.21385L41.3648 16.7092L32.7109 18.02Z" stroke="#3A86FF" stroke-width="3" stroke-linecap="round" stroke-linejoin="round"/>
<path d="M46.2617 22.2223C49.4325 34.2385 42.2601 46.5477 30.244 49.7162C18.2278 52.8846 5.92092 45.7169 2.75015 33.7008C-0.420623 21.6846 6.75168 9.3754 18.7678 6.20463C21.3801 5.51463 24.0963 5.30232 26.7825 5.57694" stroke="#3A86FF" stroke-width="3" stroke-linecap="round" stroke-linejoin="round"/>
<path d="M36.2625 25.0469C37.8732 31.5431 33.9132 38.1154 27.4171 39.7261C20.9209 41.3369 14.3486 37.3769 12.7378 30.8807C11.1271 24.3846 15.0871 17.8123 21.5832 16.2015C22.534 15.9661 23.5125 15.8461 24.4932 15.8461" stroke="#3A86FF" stroke-width="3" stroke-linecap="round" stroke-linejoin="round"/>
<path d="M12.7101 47L10.9794 53.9231" stroke="#3A86FF" stroke-width="3" stroke-linecap="round" stroke-linejoin="round"/>
<path d="M36.9409 47L38.6717 53.9231" stroke="#3A86FF" stroke-width="3" stroke-linecap="round" stroke-linejoin="round"/>
</g>
<defs>
<clipPath id="clip0_3_45">
<rect width="51" height="56" fill="white"/>
</clipPath>
</defs>
</svg>
