<svg width="51" height="56" viewBox="0 0 51 56" fill="none" xmlns="http://www.w3.org/2000/svg">
<path d="M30.796 0.342773C31.4937 0.653769 31.8433 1.24749 32.1512 1.89634C32.4461 2.51691 32.6475 3.30995 33.1524 3.66618C33.6588 4.02383 34.4903 3.9376 35.1794 4.04362C35.4268 4.08179 35.6757 4.11289 35.9246 4.15247C36.5662 4.25425 37.0122 4.61189 37.2251 5.20702C37.4466 5.82477 37.3172 6.3987 36.8496 6.86944C36.2857 7.43771 35.7131 7.9975 35.1247 8.54316C34.896 8.7552 34.7953 8.95028 34.8687 9.27682C35.0327 10.0176 35.1406 10.7696 35.2787 11.516C35.4053 12.2016 35.2283 12.7868 34.6543 13.2067C34.099 13.6124 33.4905 13.6293 32.8791 13.324C32.1756 12.9734 31.4722 12.6229 30.7831 12.2468C30.4982 12.0913 30.2695 12.0998 29.989 12.2567C29.32 12.6313 28.6309 12.972 27.9519 13.3311C27.3247 13.6619 26.7076 13.6604 26.1307 13.2448C25.5725 12.842 25.3812 12.2822 25.4977 11.6107C25.6329 10.829 25.7739 10.0458 25.8717 9.25845C25.8947 9.07044 25.8127 8.80892 25.6818 8.67321C25.138 8.112 24.5569 7.58473 23.9872 7.04614C23.4635 6.55137 23.2449 5.96755 23.488 5.27205C23.7225 4.602 24.2418 4.2698 24.9352 4.17084C25.6977 4.062 26.4644 3.97294 27.2197 3.82734C27.4254 3.78775 27.6657 3.61529 27.7692 3.43576C28.0944 2.8689 28.3821 2.27801 28.6468 1.68005C28.9144 1.07361 29.2956 0.594397 29.9358 0.345601H30.7975L30.796 0.342773ZM33.7049 11.9514C33.5437 11.0311 33.4344 10.2098 33.2517 9.40546C33.0748 8.62656 33.3236 8.03991 33.8904 7.50698C34.4846 6.95001 35.037 6.35064 35.6585 5.71734C34.8974 5.61415 34.1782 5.47985 33.4517 5.42613C32.4619 5.35121 31.7771 4.93702 31.393 4.00121C31.1082 3.30854 30.7183 2.65686 30.34 1.91613C29.9631 2.671 29.5905 3.31843 29.3128 4.00262C28.9345 4.93278 28.2742 5.37242 27.2715 5.44734C26.5407 5.50106 25.8185 5.66221 25.21 5.75692C25.7998 6.39587 26.3767 7.04897 26.9852 7.67096C27.4585 8.15583 27.6585 8.69583 27.5117 9.35881C27.4513 9.63447 27.4081 9.91436 27.3635 10.1928C27.2758 10.7512 27.1924 11.3096 27.0888 11.9797C27.9404 11.5344 28.6741 11.1711 29.3862 10.771C30.0566 10.3936 30.7011 10.3936 31.3729 10.7555C32.1095 11.1513 32.8604 11.5216 33.7034 11.9528L33.7049 11.9514Z" fill="#3A86FF"/>
<path d="M44.3289 6.97852C44.8957 6.987 45.3474 7.26265 45.6221 7.797C45.8984 8.33135 46.1357 8.88548 46.4349 9.40569C46.5299 9.57109 46.7558 9.72376 46.9471 9.76617C47.4707 9.88067 48.0073 9.9358 48.5396 10.0079C49.1927 10.0955 49.7106 10.3783 49.9192 11.0229C50.1249 11.6562 49.9293 12.2032 49.4287 12.6457C49.3884 12.681 49.3567 12.7277 49.3121 12.7545C48.0462 13.5137 47.8707 14.5852 48.2763 15.9083C48.5281 16.731 48.1828 17.3841 47.5196 17.6951C47.0679 17.9072 46.6176 17.8888 46.176 17.6612C45.7013 17.4152 45.2093 17.1933 44.7576 16.9106C44.3907 16.6816 44.0872 16.707 43.7318 16.9176C43.3031 17.1707 42.8457 17.3785 42.4026 17.6089C41.8271 17.9058 41.2647 17.91 40.7381 17.5128C40.2102 17.1156 40.0778 16.5741 40.2015 15.9521C40.2289 15.8136 40.2289 15.6652 40.2807 15.538C40.7554 14.3844 40.377 13.5179 39.3772 12.8422C39.2175 12.7348 39.0866 12.5793 38.9586 12.4337C38.5774 12.0025 38.4421 11.5148 38.6464 10.9607C38.8493 10.4122 39.2593 10.1012 39.8318 10.0065C40.3612 9.91884 40.8935 9.82554 41.4272 9.79444C41.8645 9.76899 42.099 9.5824 42.263 9.19506C42.4702 8.70878 42.7277 8.24229 42.9795 7.77438C43.2542 7.26548 43.6916 6.99689 44.3274 6.98134L44.3289 6.97852ZM40.3281 11.553C40.836 12.035 41.2575 12.4322 41.6732 12.8337C42.1005 13.2465 42.2688 13.7299 42.1408 14.3237C42.0228 14.875 41.9509 15.4376 41.8415 16.0992C42.4371 15.7938 42.9176 15.562 43.3837 15.3061C43.9663 14.9866 44.5346 14.981 45.1186 15.3019C45.5977 15.5662 46.0897 15.8065 46.6781 16.1105C46.5788 15.5012 46.5141 14.998 46.4105 14.5018C46.258 13.7766 46.4465 13.1899 47.0291 12.7065C47.4204 12.3799 47.7743 12.0096 48.2188 11.5883C47.5211 11.4781 46.9428 11.3763 46.3616 11.2985C45.7559 11.2165 45.3502 10.8999 45.0956 10.3599C44.8525 9.84674 44.5864 9.34349 44.29 8.75684C43.9793 9.3647 43.7131 9.88067 43.4513 10.3981C43.1924 10.9098 42.7852 11.2066 42.2012 11.2787C41.6229 11.3494 41.046 11.4455 40.3281 11.5516V11.553Z" fill="#3A86FF"/>
<path d="M12.2468 16.1798C12.3331 15.6694 12.4626 15.0277 12.536 14.3802C12.5576 14.1894 12.4756 13.9321 12.3461 13.7907C11.962 13.3723 11.5304 12.9963 11.1175 12.6047C10.6716 12.1806 10.463 11.6859 10.6485 11.0738C10.8399 10.4419 11.3017 10.1267 11.9361 10.0263C12.5014 9.93723 13.0754 9.88493 13.6351 9.76619C13.8264 9.72519 14.0508 9.57111 14.1472 9.40571C14.4407 8.90247 14.6795 8.36812 14.9384 7.84508C15.2161 7.28529 15.6663 6.97571 16.3022 6.97853C16.915 6.98136 17.3553 7.28246 17.6315 7.81681C17.8904 8.32006 18.1134 8.84451 18.4169 9.32231C18.545 9.52304 18.8154 9.70257 19.0528 9.75629C19.5908 9.87927 20.1504 9.91603 20.7 9.99519C21.2999 10.0814 21.7401 10.3924 21.9386 10.9607C22.1429 11.5473 21.9961 12.0746 21.5473 12.5128C21.2538 12.7984 20.992 13.1292 20.6583 13.3582C20.0612 13.7695 19.9907 14.2756 20.1821 14.9117C20.2986 15.2977 20.3346 15.709 20.4007 16.1091C20.4971 16.683 20.3101 17.1622 19.8469 17.5128C19.3837 17.8634 18.8615 17.9284 18.3292 17.6725C17.7667 17.4011 17.2229 17.0873 16.6518 16.8371C16.4748 16.7593 16.2015 16.7565 16.0274 16.8371C15.4419 17.1014 14.8953 17.4478 14.3083 17.7079C13.2812 18.1631 12.2065 17.4252 12.2497 16.1826L12.2468 16.1798ZM16.2907 8.74555C16.0001 9.3322 15.7397 9.84817 15.488 10.3656C15.229 10.8985 14.8219 11.2194 14.2162 11.3C13.6336 11.3763 13.0553 11.4781 12.4223 11.5784C12.8294 11.9841 13.1704 12.3672 13.5574 12.6994C14.1458 13.2055 14.3328 13.8049 14.1645 14.5499C14.0537 15.0376 13.9976 15.538 13.9012 16.1317C14.4651 15.8362 14.9456 15.6058 15.4045 15.3372C16.0188 14.9782 16.6158 14.981 17.2344 15.3189C17.7077 15.5761 18.194 15.808 18.7579 16.0935C18.6457 15.4659 18.5665 14.9443 18.4572 14.4311C18.3148 13.7695 18.4658 13.214 18.9895 12.7602C19.3995 12.4054 19.7965 12.0365 20.2008 11.6746C19.5318 11.447 18.9564 11.3523 18.3767 11.2802C17.7911 11.2081 17.3883 10.9056 17.1294 10.3952C16.8661 9.87503 16.6014 9.35765 16.2907 8.74838V8.74555Z" fill="#3A86FF"/>
<path d="M29.5658 15.793C30.6582 15.4548 31.9019 15.6093 33.0541 16.2393L33.3187 16.3945C34.6107 17.1971 35.4039 18.4436 35.4808 19.9746C35.5764 21.8694 35.5917 23.8057 35.3861 25.7148C35.3181 26.3473 35.1177 26.9486 34.8998 27.5078C34.6847 28.0598 34.4771 28.5199 34.2933 29.0225C35.7032 29.0172 38.3725 29.0077 39.434 29.0293C40.7912 28.918 41.9888 29.2117 42.9281 29.8447C43.8735 30.482 44.5246 31.4427 44.8139 32.5996C45.1732 34.038 44.856 35.3833 43.9408 36.5488L43.9418 36.5498C43.8667 36.6461 43.7827 36.7427 43.7025 36.833C44.22 37.9367 44.4793 38.8818 44.3568 39.8008C44.2323 40.7337 43.7277 41.5452 42.934 42.4053C43.2831 43.4909 43.4173 44.4014 43.1957 45.2529C42.9852 46.0614 42.4748 46.7371 41.7191 47.4258C41.7237 47.4322 41.7292 47.4379 41.7338 47.4443C43.5618 50.0145 41.9774 53.5609 38.8451 53.9912C38.4635 54.043 38.0787 54.0635 37.7015 54.0635C32.4937 54.0677 27.2943 54.0499 22.0912 54.0781C20.5908 54.0869 19.0172 54.012 17.5551 53.1211C16.9863 54.2076 16.0399 54.8269 14.8871 55.1367L14.8197 55.1543H1.16932C0.543744 54.7886 0.363055 53.9561 0.610728 53.3291C0.748417 52.9797 0.991564 52.751 1.28846 52.626C1.55937 52.512 1.84955 52.4946 2.08338 52.4961C3.85802 52.506 5.63166 52.5 7.41053 52.5C9.60096 52.5 11.7898 52.5028 13.9789 52.5C14.4997 52.4993 14.8049 52.3659 14.9818 52.1895C15.1364 52.0352 15.257 51.7834 15.2855 51.377L15.2924 51.1934V29.9062C15.2917 29.3402 15.1569 29.031 14.9828 28.8574C14.808 28.6835 14.4955 28.5488 13.9242 28.5488H3.47987L2.7035 28.5518C2.44107 28.5525 2.17559 28.5514 1.91249 28.5449C1.54481 28.5361 1.19135 28.4266 0.923228 28.1836C0.647977 27.934 0.514048 27.5886 0.514048 27.2207C0.514189 26.8551 0.64748 26.5105 0.919322 26.2598C1.1872 26.0128 1.54362 25.8984 1.91834 25.8945L3.43885 25.8877C3.94518 25.8879 4.45148 25.8903 4.95741 25.8945C7.71812 25.9002 12.4521 25.9127 13.6635 25.8818C14.8597 25.8513 15.9503 26.1246 16.8422 26.9727C17.7696 25.3913 19.1806 24.4618 20.7709 23.7295C22.5479 22.9112 24.1809 21.8401 25.9408 20.8203C25.9449 20.8159 25.9559 20.8049 25.9711 20.7822C26.0013 20.7369 26.0327 20.6753 26.0668 20.5996L26.6088 19.3926C26.7841 18.9944 26.9513 18.5972 27.1029 18.1943C27.5673 16.9611 28.4657 16.1337 29.5658 15.793ZM1.11854 54.9414L1.17518 54.9834L1.1703 54.9795C1.15199 54.9675 1.13548 54.953 1.11756 54.9404L1.11854 54.9414ZM1.33827 54.4434C1.37579 54.4747 1.41616 54.5055 1.46034 54.5342C1.47242 54.5421 1.47982 54.5567 1.48573 54.5732C1.47981 54.5566 1.47249 54.542 1.46034 54.5342C1.41624 54.5056 1.37574 54.4747 1.33827 54.4434ZM1.23182 54.3398C1.24959 54.3598 1.26932 54.3784 1.28944 54.3975C1.2693 54.3784 1.2496 54.3598 1.23182 54.3398ZM1.15174 54.2344C1.16443 54.2542 1.17898 54.2729 1.19374 54.292C1.17896 54.2729 1.16444 54.2542 1.15174 54.2344ZM1.09315 54.1211C1.10209 54.1425 1.11131 54.1638 1.12245 54.1846C1.11129 54.1638 1.1021 54.1425 1.09315 54.1211ZM1.05604 54.0029C1.06006 54.0214 1.0642 54.0396 1.06971 54.0576C1.06419 54.0396 1.06006 54.0214 1.05604 54.0029ZM1.04042 53.8516C1.04034 53.8814 1.04082 53.9106 1.04432 53.9395C1.04081 53.9106 1.04034 53.8814 1.04042 53.8516ZM1.03944 53.8027C1.03922 53.806 1.03961 53.8093 1.03944 53.8125C1.04186 53.7679 1.04758 53.7223 1.05799 53.6758L1.03944 53.8027ZM37.9701 53.5273C37.8806 53.5299 37.791 53.5312 37.7015 53.5312V53.5322C37.791 53.5322 37.8806 53.5309 37.9701 53.5283V53.5273ZM20.226 53.4609C20.3275 53.4737 20.4294 53.4847 20.5316 53.4941C20.3273 53.4754 20.1245 53.4501 19.9232 53.417L20.226 53.4609ZM39.0267 53.4199C38.9932 53.4268 38.9592 53.4315 38.9252 53.4375C38.9565 53.4319 38.988 53.4281 39.0189 53.4219L39.0267 53.4199ZM19.0287 53.208H19.0297H19.0287ZM39.641 53.2373C39.6671 53.2271 39.6934 53.2177 39.7191 53.207C39.6934 53.2177 39.6671 53.2271 39.641 53.2373ZM15.0961 52.7686C14.9518 52.8557 14.7863 52.9218 14.6 52.9658C14.8488 52.907 15.0601 52.8093 15.2338 52.6738L15.0961 52.7686ZM40.0961 53.0244C40.1097 53.0168 40.1236 53.0097 40.1371 53.002C40.1236 53.0097 40.1097 53.0168 40.0961 53.0244ZM40.3139 52.8936C40.3173 52.8913 40.3202 52.888 40.3236 52.8857C40.3201 52.888 40.3173 52.8913 40.3139 52.8936ZM40.4545 52.7959C40.4766 52.7799 40.4991 52.7645 40.5209 52.748C40.4991 52.7645 40.4766 52.7799 40.4545 52.7959ZM40.6293 52.6602C40.6528 52.6409 40.6767 52.6223 40.6996 52.6025C40.6766 52.6223 40.6528 52.6409 40.6293 52.6602ZM15.7572 51.8115C15.7278 51.9354 15.6888 52.05 15.64 52.1553C15.5914 52.2604 15.533 52.3559 15.4652 52.4424L15.4662 52.4434C15.6019 52.2702 15.6984 52.059 15.7572 51.8115ZM40.8178 52.4961C40.8364 52.4786 40.8552 52.4612 40.8734 52.4434C40.8552 52.4612 40.8364 52.4786 40.8178 52.4961ZM40.9506 52.3652C40.9771 52.3376 41.0031 52.3096 41.0287 52.2812C41.0031 52.3096 40.9771 52.3376 40.9506 52.3652ZM41.1088 52.1895C41.128 52.1666 41.1467 52.1434 41.1654 52.1201C41.1467 52.1434 41.128 52.1666 41.1088 52.1895ZM41.2426 52.0205C41.2647 51.991 41.2858 51.9608 41.307 51.9307C41.2858 51.9608 41.2647 51.9909 41.2426 52.0205ZM21.6254 51.9629L21.9125 51.9639C21.7494 51.9658 21.5882 51.9619 21.4291 51.9561C21.4942 51.9584 21.5596 51.9618 21.6254 51.9629ZM20.8939 51.9209C21.0429 51.9357 21.1935 51.9471 21.3461 51.9541C21.1935 51.9471 21.0429 51.9357 20.8939 51.9209ZM41.3764 51.8301C41.3943 51.8026 41.4119 51.775 41.4291 51.7471C41.4119 51.775 41.3943 51.8026 41.3764 51.8301ZM41.5043 51.6191C41.5126 51.6043 41.5206 51.5892 41.5287 51.5742C41.5206 51.5892 41.5126 51.6043 41.5043 51.6191ZM31.0775 18.3281C30.6862 18.251 30.4099 18.2897 30.2103 18.3896C30.0377 18.4763 29.8712 18.6337 29.7279 18.9062L29.6683 19.0303C29.2515 19.9701 28.8445 20.9976 28.3773 21.96L28.3764 21.9609C28.2123 22.2961 27.939 22.6797 27.5795 22.9355L27.4203 23.0371C26.3376 23.6463 25.2488 24.2453 24.1586 24.8398L20.8871 26.6152C20.098 27.0433 19.4986 27.6234 19.1088 28.3965C18.7442 29.1228 18.3874 29.843 18.059 30.5732L18.0599 30.5742C18.007 30.6931 17.9789 30.8672 17.9789 31.0732C17.9717 34.9587 17.974 43.0878 17.974 46.9756C17.974 47.0584 17.9819 47.2456 17.974 47.4023L17.9721 48.7988C17.9731 49.2613 17.9776 49.7221 17.9896 50.1826L17.9926 50.1895C17.9978 50.2053 18.0072 50.227 18.0209 50.251C18.0345 50.2747 18.0509 50.296 18.0658 50.3135C18.0732 50.3221 18.0792 50.3301 18.0844 50.335C18.0865 50.337 18.0896 50.3394 18.0902 50.3398L18.0922 50.3418L18.3021 50.4873C19.3584 51.1856 20.5362 51.4478 21.9056 51.4316C27.24 51.3694 32.5769 51.4045 37.9027 51.4102C38.538 51.4114 39.0147 51.2801 39.389 50.9043C40.0566 50.2327 39.9775 49.1883 39.1654 48.6133C38.9684 48.4737 38.704 48.2855 38.5121 48.0322C38.2978 47.7493 38.18 47.3956 38.2406 46.9639C38.3001 46.5437 38.4979 46.2352 38.7767 46.0156C39.0307 45.8157 39.3366 45.7032 39.5824 45.6201L39.7758 45.542C40.6935 45.1045 40.9506 43.9565 40.2553 43.1377C39.9413 42.7684 39.6258 42.3068 39.7308 41.7871C39.7844 41.5226 39.9346 41.3154 40.1078 41.1533C40.2775 40.9946 40.4933 40.8561 40.7308 40.7285L40.9359 40.6035C41.9032 39.933 41.9913 38.6269 41.0629 37.8086C40.6969 37.4857 40.3665 37.0648 40.4037 36.5488C40.4244 36.2625 40.5524 36.024 40.7318 35.8242L40.6693 35.7627L41.2406 35.4043C42.0915 34.8706 42.431 34.0246 42.2074 33.167C41.9901 32.3329 41.2514 31.7361 40.2455 31.6855C40.1356 31.6805 40.0231 31.6792 39.8998 31.6777C39.7825 31.6764 39.6541 31.6746 39.5258 31.6689C38.163 31.6969 34.9119 31.7054 33.5365 31.666L33.0707 31.6445C31.6813 31.5468 30.9111 30.1753 31.4086 28.9316L31.5961 28.4893C31.79 28.0507 32.001 27.6233 32.1957 27.2139C32.6485 26.2607 32.8749 25.2692 32.8617 24.2207C32.8454 22.911 32.8802 21.6875 32.8441 20.4121C32.815 19.3415 32.1092 18.5325 31.0775 18.3281ZM41.6068 51.4238C41.6151 51.4068 41.6222 51.3892 41.6303 51.3721C41.6222 51.3892 41.6151 51.4068 41.6068 51.4238ZM18.2377 51.0752C18.3732 51.1563 18.5109 51.23 18.6498 51.2988C18.5109 51.23 18.3732 51.1563 18.2377 51.0752ZM41.6889 51.2422C41.7027 51.2092 41.716 51.176 41.7289 51.1426C41.716 51.176 41.7027 51.2092 41.6889 51.2422ZM41.7621 51.0537C41.7798 51.0043 41.7964 50.9545 41.8119 50.9043C41.7964 50.9545 41.7798 51.0043 41.7621 51.0537ZM41.8324 50.835C41.8406 50.8064 41.8483 50.7778 41.8558 50.749C41.8483 50.7778 41.8406 50.8064 41.8324 50.835ZM41.892 50.5996C41.8959 50.5818 41.8991 50.5638 41.9027 50.5459C41.8991 50.5638 41.8959 50.5818 41.892 50.5996ZM41.931 50.3887C41.9351 50.3627 41.9383 50.3366 41.9418 50.3105C41.9383 50.3366 41.9351 50.3627 41.931 50.3887ZM41.9574 50.1826C41.9613 50.1427 41.9636 50.1026 41.9662 50.0625C41.9636 50.1026 41.9613 50.1427 41.9574 50.1826ZM41.9721 49.9551C41.9731 49.9239 41.9728 49.8926 41.973 49.8613C41.9728 49.8926 41.9731 49.9239 41.9721 49.9551ZM41.973 49.7227C41.9714 49.6709 41.9682 49.6192 41.9642 49.5674C41.9682 49.6192 41.9714 49.6709 41.973 49.7227ZM41.9603 49.5234C41.9559 49.4729 41.9495 49.4226 41.9428 49.3721C41.9495 49.4226 41.9559 49.4729 41.9603 49.5234ZM41.932 49.2842C41.9233 49.229 41.9122 49.1742 41.9008 49.1191C41.9122 49.1742 41.9233 49.229 41.932 49.2842ZM41.8871 49.0527C41.8795 49.0193 41.8693 48.9865 41.8607 48.9531C41.8693 48.9865 41.8795 49.0193 41.8871 49.0527ZM41.8285 48.8291C41.8205 48.8022 41.8108 48.7758 41.8021 48.749C41.8108 48.7758 41.8205 48.8022 41.8285 48.8291ZM39.0521 47.8428C39.1731 47.9636 39.3201 48.0713 39.473 48.1797C39.6075 48.2749 39.7279 48.3804 39.8324 48.4941C39.728 48.3804 39.6084 48.2749 39.474 48.1797C39.321 48.0712 39.1732 47.9636 39.0521 47.8428ZM41.3373 47.0566C41.2325 47.1515 41.1214 47.2478 41.0043 47.3457C41.1021 47.4785 41.2024 47.6144 41.3002 47.7529H41.3012C41.2034 47.6145 41.1021 47.4785 41.0043 47.3457C41.1214 47.2478 41.2325 47.1514 41.3373 47.0566ZM38.9457 47.7227C38.9726 47.7572 39.0024 47.7899 39.0336 47.8223C39.0024 47.79 38.9726 47.7572 38.9457 47.7227ZM38.8578 47.5879C38.8752 47.6201 38.8952 47.6506 38.9164 47.6807C38.8952 47.6506 38.8752 47.6201 38.8578 47.5879ZM38.7572 47.1416C38.7514 47.2698 38.7708 47.3827 38.809 47.4844C38.7708 47.3827 38.7514 47.2698 38.7572 47.1416ZM42.391 45.8203C42.3126 45.9572 42.2214 46.0927 42.1176 46.2285C42.2214 46.0927 42.3126 45.9572 42.391 45.8203ZM40.3871 42.4228C40.3958 42.4374 40.405 42.452 40.4144 42.4668C40.405 42.452 40.3958 42.4374 40.3871 42.4228ZM40.3217 42.3008C40.3336 42.3261 40.3471 42.3516 40.3617 42.3779C40.3471 42.3516 40.3336 42.3261 40.3217 42.3008ZM40.2826 42.2051C40.2902 42.2269 40.2991 42.2489 40.309 42.2715C40.2991 42.2489 40.2902 42.2269 40.2826 42.2051ZM40.2553 42.1045C40.2585 42.1206 40.2624 42.1368 40.267 42.1533C40.2624 42.1368 40.2585 42.1206 40.2553 42.1045ZM40.2435 42.0059C40.244 42.0239 40.2461 42.042 40.2484 42.0605C40.2461 42.042 40.244 42.0239 40.2435 42.0059ZM40.2494 41.916C40.247 41.9318 40.2454 41.9477 40.2445 41.9639C40.2454 41.9477 40.247 41.9318 40.2494 41.916ZM40.2709 41.8281C40.2657 41.843 40.2609 41.8579 40.2572 41.873C40.2609 41.8579 40.2657 41.843 40.2709 41.8281ZM40.3109 41.7402C40.3033 41.7539 40.2958 41.7674 40.2894 41.7812C40.2958 41.7674 40.3033 41.7539 40.3109 41.7402ZM40.3724 41.6494C40.3585 41.6671 40.3451 41.6843 40.3334 41.7021C40.3451 41.6843 40.3585 41.6671 40.3724 41.6494ZM40.4545 41.5576C40.4338 41.5778 40.4145 41.5979 40.3969 41.6182C40.4145 41.5979 40.4338 41.5778 40.4545 41.5576ZM40.5492 41.4746C40.5232 41.4955 40.4986 41.5161 40.476 41.5371C40.4986 41.5161 40.5232 41.4955 40.5492 41.4746ZM40.6449 41.4023C40.6207 41.4194 40.5975 41.4362 40.5756 41.4531C40.5975 41.4362 40.6207 41.4194 40.6449 41.4023ZM41.8226 40.4707C41.7789 40.5315 41.7325 40.5911 41.682 40.6484C41.7325 40.5912 41.7789 40.5315 41.8226 40.4707ZM43.8031 39.8887C43.7949 39.9315 43.785 39.974 43.7748 40.0166C43.7974 39.9219 43.8166 39.8268 43.8295 39.7305L43.8031 39.8887ZM42.2416 39.291C42.2387 39.3459 42.233 39.4006 42.226 39.4551C42.233 39.4006 42.2387 39.3459 42.2416 39.291ZM42.0355 38.2324C42.0748 38.3174 42.108 38.4039 42.1361 38.4912C42.1502 38.5349 42.1629 38.5789 42.1742 38.623C42.1968 38.7111 42.2144 38.7997 42.226 38.8887L42.2045 38.7549C42.1703 38.5775 42.114 38.4022 42.0355 38.2324ZM41.1937 37.1914C41.256 37.2625 41.33 37.3347 41.4144 37.4092C41.4935 37.4789 41.5666 37.5518 41.6342 37.627C41.5666 37.5518 41.4935 37.4789 41.4144 37.4092C41.33 37.3347 41.256 37.2625 41.1937 37.1914ZM43.0668 36.7363H43.0678H43.0668ZM41.0297 36.3076C41.0019 36.3522 40.9821 36.398 40.9662 36.4434C40.9821 36.398 41.0019 36.3522 41.0297 36.3076ZM43.9164 35.6348C43.8569 35.7399 43.7918 35.8435 43.7221 35.9463C43.7918 35.8435 43.8569 35.7399 43.9164 35.6348ZM42.431 34.9687C42.359 35.0828 42.2767 35.1923 42.1849 35.2969C42.1392 35.349 42.0909 35.3997 42.0404 35.4492C41.8888 35.5978 41.7159 35.7343 41.5228 35.8555L41.5258 35.8584C41.4318 35.9173 41.3493 35.9767 41.2777 36.0361C41.3494 35.9766 41.4326 35.9174 41.5267 35.8584L41.5238 35.8555C41.9098 35.6133 42.2152 35.3111 42.431 34.9697V34.9687ZM44.0551 35.3682C44.0756 35.325 44.0958 35.2819 44.1146 35.2383C44.0958 35.2819 44.0756 35.325 44.0551 35.3682ZM44.1566 35.1367C44.171 35.1007 44.1844 35.0645 44.1976 35.0283C44.1844 35.0645 44.171 35.1007 44.1566 35.1367ZM44.2348 34.9228C44.2465 34.8875 44.2573 34.852 44.268 34.8164C44.2573 34.852 44.2465 34.8875 44.2348 34.9228ZM44.2933 34.7275C44.3039 34.6889 44.3134 34.6502 44.3226 34.6113C44.3134 34.6502 44.3039 34.6889 44.2933 34.7275ZM42.6859 34.4297H42.6869H42.6859ZM44.3431 34.5244C44.3544 34.4716 44.3645 34.4185 44.3734 34.3652C44.3645 34.4185 44.3544 34.4716 44.3431 34.5244ZM44.3793 34.3271C44.3887 34.2672 44.3972 34.207 44.4037 34.1465C44.3972 34.207 44.3887 34.2672 44.3793 34.3271ZM44.4086 34.0996C44.4143 34.0396 44.4185 33.9795 44.4213 33.9189C44.4185 33.9795 44.4143 34.0396 44.4086 34.0996ZM42.806 33.6475C42.807 33.7146 42.8048 33.7814 42.8002 33.8477H42.8012C42.8103 33.715 42.8083 33.5802 42.7953 33.4443V33.4434C42.8019 33.5117 42.8051 33.5798 42.806 33.6475ZM44.4164 33.4805C44.4252 33.6115 44.4275 33.7414 44.4232 33.8701C44.4275 33.7414 44.4252 33.6116 44.4164 33.4805ZM41.5053 31.4893C41.6254 31.5543 41.7387 31.6284 41.8451 31.71C41.9517 31.7917 42.0508 31.8814 42.142 31.9785C42.2331 32.0755 42.3159 32.1799 42.39 32.291C42.427 32.3464 42.4621 32.4032 42.4945 32.4619C42.5596 32.5797 42.6149 32.704 42.6605 32.834C42.4554 32.2499 42.0462 31.7821 41.5053 31.4893ZM43.9623 31.8145C44.0189 31.9283 44.0714 32.0454 44.1185 32.166C44.0714 32.0454 44.0189 31.9283 43.9623 31.8145ZM41.1264 31.3213C40.994 31.2741 40.8561 31.236 40.7133 31.208C40.8561 31.236 40.994 31.2741 41.1264 31.3213ZM41.5961 29.7832V29.7822V29.7832ZM40.3705 29.5518V29.5508V29.5518ZM39.4574 29.5625V29.5615V29.5625ZM31.9027 29.1299H31.9017H31.9027ZM3.47889 28.0156L3.47792 28.0166H13.9242V28.0156H3.47889ZM34.1742 27.8809C34.2472 27.7046 34.3197 27.5283 34.389 27.3516C34.3197 27.5282 34.2472 27.7046 34.1742 27.8809ZM34.4359 27.2295C34.4715 27.1365 34.5065 27.0435 34.5394 26.9502C34.5064 27.0435 34.4715 27.1365 34.4359 27.2295ZM34.5873 26.8076C34.6154 26.7238 34.6414 26.6398 34.6664 26.5557C34.6414 26.6398 34.6154 26.7238 34.5873 26.8076ZM20.6342 26.1465V26.1475C21.5785 25.6357 22.5229 25.1238 23.4662 24.6103C22.5229 25.1236 21.5784 25.6348 20.6342 26.1465ZM33.3871 24.6348C33.3745 24.9145 33.3456 25.1905 33.3012 25.4629L33.3568 25.0518C33.3711 24.914 33.3808 24.7753 33.3871 24.6357V24.6348ZM27.3724 22.4219C27.3044 22.4799 27.2335 22.5317 27.1596 22.5732V22.5742C27.2336 22.5326 27.3042 22.4801 27.3724 22.4219ZM27.4174 22.3809C27.4332 22.3663 27.4488 22.3512 27.4642 22.3359C27.4488 22.3512 27.4333 22.3663 27.4174 22.3809ZM27.5121 22.2881C27.5258 22.2735 27.5388 22.2582 27.5521 22.2432C27.5388 22.2582 27.5258 22.2735 27.5121 22.2881ZM26.2201 21.2744L24.9281 22.0381C25.3575 21.7809 25.7876 21.5249 26.2201 21.2744C26.2458 21.2595 26.2693 21.2404 26.2924 21.2197C26.2693 21.2404 26.2458 21.2595 26.2201 21.2744ZM27.6889 22.0732C27.6973 22.0615 27.706 22.0499 27.7142 22.0381C27.706 22.0499 27.6973 22.0615 27.6889 22.0732ZM33.2689 19.6865H33.268H33.2689ZM34.9115 19.6309C34.9054 19.5877 34.9004 19.5446 34.893 19.502C34.9004 19.5446 34.9054 19.5877 34.9115 19.6309ZM34.8588 19.3359C34.853 19.3095 34.8475 19.283 34.8412 19.2568C34.8475 19.283 34.853 19.3095 34.8588 19.3359ZM34.807 19.1279C34.7968 19.0913 34.787 19.0547 34.7758 19.0186C34.787 19.0547 34.7968 19.0913 34.807 19.1279ZM34.726 18.8721C34.7168 18.8463 34.7084 18.8204 34.6986 18.7949C34.7084 18.8204 34.7168 18.8463 34.726 18.8721ZM34.642 18.6572C34.629 18.6271 34.6157 18.5971 34.6019 18.5674C34.6157 18.5971 34.629 18.6271 34.642 18.6572ZM34.5424 18.4453C34.5266 18.4143 34.5111 18.3831 34.4945 18.3525C34.5111 18.3831 34.5266 18.4143 34.5424 18.4453ZM34.4281 18.2373C34.4092 18.2053 34.3904 18.1731 34.3705 18.1416C34.3904 18.1731 34.4091 18.2053 34.4281 18.2373ZM34.2933 18.0244C34.275 17.9977 34.2558 17.9716 34.2367 17.9453C34.2558 17.9716 34.275 17.9977 34.2933 18.0244ZM34.1508 17.8311C34.1319 17.807 34.1126 17.7834 34.0931 17.7598C34.1126 17.7834 34.1319 17.807 34.1508 17.8311ZM33.9965 17.6455C33.9764 17.623 33.9556 17.6012 33.9349 17.5791C33.9556 17.6012 33.9764 17.623 33.9965 17.6455ZM33.8265 17.4668C33.8062 17.4466 33.7849 17.4271 33.764 17.4072C33.7849 17.4271 33.8062 17.4466 33.8265 17.4668ZM33.6478 17.2988C33.6243 17.2781 33.5997 17.2586 33.5756 17.2383C33.5997 17.2586 33.6243 17.2781 33.6478 17.2988ZM33.4555 17.1377C33.4288 17.1168 33.4007 17.0976 33.3734 17.0771C33.4007 17.0976 33.4288 17.1168 33.4555 17.1377ZM43.5219 36.2236L43.6605 36.0391C43.6629 36.0358 43.664 36.0316 43.6664 36.0283C43.62 36.0936 43.5724 36.1594 43.5219 36.2236ZM43.9359 35.5996C43.9668 35.5438 43.9968 35.4881 44.0248 35.4316C43.9968 35.4881 43.9668 35.5438 43.9359 35.5996ZM34.9359 19.8398C34.933 19.8068 34.9308 19.7739 34.9271 19.7412C34.9308 19.7739 34.933 19.8068 34.9359 19.8398Z" fill="#3A86FF"/>
<path d="M31.9755 8.84572C31.5462 8.66332 31.1637 8.50723 30.7885 8.33918C30.4456 8.18608 30.1181 8.18548 29.7766 8.34576C29.4139 8.5156 29.0402 8.6687 28.6064 8.85709C28.6584 8.57361 28.7009 8.33679 28.7464 8.10116C28.7691 7.98334 28.7903 7.86493 28.8218 7.74831C28.8959 7.46783 28.7947 7.23938 28.5537 7.03425C28.2437 6.77111 27.9499 6.49481 27.6495 6.2245C27.9594 6.18443 28.3273 6.11625 28.6995 6.09352C29.2102 6.06183 29.5473 5.87584 29.7392 5.48232C29.8806 5.19287 30.0712 4.91897 30.2624 4.59961C30.4551 4.91298 30.6537 5.18868 30.7988 5.48172C30.9944 5.87763 31.3432 6.05286 31.8473 6.08455C32.2166 6.10788 32.5837 6.16409 32.9713 6.20775C32.6548 6.47567 32.3734 6.72925 32.0708 6.96487C31.7821 7.18974 31.6553 7.43793 31.7455 7.76805C31.8385 8.10893 31.8949 8.4558 31.9763 8.84513L31.9755 8.84572Z" fill="#3A86FF"/>
<path d="M42.5507 12.1999C42.8417 12.1538 43.0746 12.1121 43.3086 12.0814C43.5456 12.0501 43.7097 11.9206 43.8145 11.699C43.921 11.4743 44.0282 11.2503 44.1539 10.9863C44.2738 11.2411 44.3815 11.4596 44.4799 11.6824C44.5835 11.9169 44.7471 12.0544 44.9922 12.09C45.2274 12.1244 45.4614 12.1686 45.7438 12.2158C45.5639 12.3987 45.4207 12.5596 45.2623 12.7013C45.0271 12.9113 44.9503 13.166 45.012 13.4809C45.0539 13.6957 45.0801 13.9149 45.1203 14.1794C44.8822 14.0475 44.6831 13.9431 44.4892 13.8283C44.2529 13.689 44.0229 13.6908 43.7872 13.8302C43.5985 13.9413 43.4041 14.0419 43.1631 14.1745C43.2073 13.8873 43.2359 13.643 43.2842 13.4036C43.336 13.1458 43.2673 12.9352 43.095 12.7566C42.9267 12.5817 42.7562 12.4098 42.5507 12.2005V12.1999Z" fill="#3A86FF"/>
<path d="M16.465 10.9876C16.5926 11.2509 16.7012 11.4752 16.8093 11.6995C16.9156 11.9201 17.0809 12.0509 17.3213 12.0821C17.5593 12.1132 17.7955 12.1548 18.0701 12.2526C17.9048 12.409 17.7412 12.5685 17.5729 12.7219C17.3579 12.9181 17.2959 13.1583 17.3544 13.4443C17.3998 13.6667 17.4317 13.8916 17.4778 14.1629C17.2463 14.0395 17.0461 13.9393 16.8524 13.828C16.5979 13.682 16.3534 13.6808 16.1012 13.836C15.9128 13.9515 15.7156 14.0517 15.4841 14.1794C15.5237 13.9228 15.5467 13.7064 15.5922 13.4956C15.6613 13.1735 15.5845 12.9144 15.343 12.6956C15.1847 12.552 15.0441 12.3864 14.877 12.211C15.1369 12.1682 15.3743 12.1242 15.6134 12.0906C15.8626 12.0558 16.0292 11.9171 16.1355 11.6867C16.2388 11.4624 16.3457 11.2399 16.465 10.9863V10.9876Z" fill="#3A86FF"/>
</svg>
