<svg width="276" height="160" viewBox="0 0 276 160" fill="none" xmlns="http://www.w3.org/2000/svg">
<g clip-path="url(#clip0_1196_1770)">
<path opacity="0.26" d="M231.809 87.128C244.198 87.128 254.242 77.0213 254.242 64.554C254.242 52.0867 244.198 41.98 231.809 41.98C219.42 41.98 209.376 52.0867 209.376 64.554C209.376 77.0213 219.42 87.128 231.809 87.128Z" fill="#C7C7C7"/>
<path d="M222.396 75.798C222.873 76.166 223.563 76.113 223.988 75.64L232.746 65.184C233.118 64.711 233.065 64.028 232.586 63.607C232.109 63.24 231.419 63.292 230.994 63.765L222.236 74.222C221.811 74.747 221.918 75.43 222.396 75.798ZM233.327 64.005C233.676 64.25 234.174 64.201 234.423 63.857L241.493 54.306C241.742 53.962 241.692 53.469 241.343 53.223C240.995 52.977 240.497 53.026 240.248 53.37L233.128 62.873C232.879 63.265 232.977 63.709 233.327 64.005Z" fill="white"/>
<path d="M232.596 67.326C234.552 67.326 236.138 65.7303 236.138 63.762C236.138 61.7936 234.552 60.198 232.596 60.198C230.64 60.198 229.054 61.7936 229.054 63.762C229.054 65.7303 230.64 67.326 232.596 67.326Z" fill="white"/>
<path d="M268.387 137.003C268.132 140.721 266.002 144.353 262.21 147.772C258.717 150.977 253.861 154.011 247.855 156.832H28.3022C23.8722 153.882 20.0382 150.293 16.8422 145.806C15.6922 144.226 14.6282 142.558 13.6912 140.849C-13.6578 90.935 51.3482 -4.53301 73.2002 0.166993C83.2542 2.30399 77.2902 24.099 93.8182 34.697C125.043 54.697 184.808 1.40699 202.445 17.432C211.859 26.022 196.097 42.559 201.976 67.902C211.944 110.978 269.75 116.533 268.387 137.003Z" fill="#F1F1F1"/>
<path d="M188.661 55.0092L185.357 149.172C185.202 153.545 181.595 157.009 177.204 157L98.9026 156.852C94.5397 156.843 90.9587 153.41 90.7834 149.067L90.715 147.398L87.3864 65.2067L86.9814 55.1873L188.661 55.0092Z" fill="#ABB7C7"/>
<path d="M176.891 75.6592L175.208 141.772C175.015 145.455 171.79 148.325 167.895 148.28L90.7154 147.398L87.3867 65.2067L170.232 68.4249C174.139 68.7496 177.085 71.9503 176.891 75.6592Z" fill="#C9D0D9"/>
<path d="M196 35.1257V49.7498C196 53.738 192.755 56.9718 188.75 56.9718H87.2498C83.2445 56.9718 80 53.738 80 49.7498V35.1257C80 31.1375 83.2445 27.9037 87.2498 27.9037H188.75C192.755 27.9037 196 31.1375 196 35.1257Z" fill="#C1CCDA"/>
<path d="M163.376 28.3489H159.169V24.2472C159.169 22.0104 157.343 20.1909 155.097 20.1909H121.621C119.376 20.1909 117.55 22.0104 117.55 24.2472V28.2145H113.343V24.2472C113.343 19.7002 117.057 16.0002 121.621 16.0002H155.097C159.662 16.0002 163.376 19.7002 163.376 24.2472V28.3489Z" fill="#C1CCDA"/>
<path d="M153.35 27.9037C152.864 39.0686 148.421 49.2085 141.386 56.9718H87.2498C83.2445 56.9718 80 53.738 80 49.7498V35.1257C80 31.1375 83.2445 27.9037 87.2498 27.9037H153.35Z" fill="#C9D0D9"/>
<path d="M115.357 79.8866H114.906C113.325 79.8866 112.044 81.1632 112.044 82.7381V127.591C112.044 129.166 113.325 130.443 114.906 130.443H115.357C116.938 130.443 118.219 129.166 118.219 127.591V82.7381C118.219 81.1632 116.938 79.8866 115.357 79.8866Z" fill="#7788A4"/>
<path d="M136.121 79.8866H135.671C134.09 79.8866 132.808 81.1632 132.808 82.7381V127.591C132.808 129.166 134.09 130.443 135.671 130.443H136.121C137.702 130.443 138.983 129.166 138.983 127.591V82.7381C138.983 81.1632 137.702 79.8866 136.121 79.8866Z" fill="#7788A4"/>
<path d="M156.887 79.8866H156.437C154.856 79.8866 153.574 81.1632 153.574 82.7381V127.591C153.574 129.166 154.856 130.443 156.437 130.443H156.887C158.468 130.443 159.75 129.166 159.75 127.591V82.7381C159.75 81.1632 158.468 79.8866 156.887 79.8866Z" fill="#7788A4"/>
<circle cx="84.5" cy="124.5" r="29.5" fill="#FF9210"/>
<path d="M89.4249 107.103L88.3613 129.262H80.6386L79.575 107.103H89.4249ZM84.5231 141.898C82.92 141.898 81.6252 141.464 80.6386 140.597C79.6829 139.699 79.2051 138.568 79.2051 137.206C79.2051 135.843 79.6829 134.713 80.6386 133.814C81.6252 132.916 82.92 132.467 84.5231 132.467C86.0953 132.467 87.3593 132.916 88.315 133.814C89.3016 134.713 89.7948 135.843 89.7948 137.206C89.7948 138.537 89.3016 139.652 88.315 140.55C87.3593 141.449 86.0953 141.898 84.5231 141.898Z" fill="white"/>
<path opacity="0.42" d="M275.495 158.182C275.495 158.561 275.297 158.899 275.001 159.152C274.704 159.405 274.259 159.532 273.765 159.532H1.73C0.79 159.532 0 158.942 0 158.182C0 157.802 0.198 157.464 0.494 157.212C0.791 156.958 1.236 156.832 1.73 156.832H273.765C274.705 156.832 275.495 157.422 275.495 158.182Z" fill="#C7C7C7"/>
<path d="M67.6731 24.4089V81.7119C67.6731 84.6789 64.8631 87.1199 61.4231 87.1199H18.0001C16.7421 87.1199 15.5961 86.8199 14.6341 86.2569C12.9331 85.2809 11.7861 83.6279 11.7861 81.7119V24.4089C11.7861 22.5309 12.9331 20.8419 14.6341 19.8649C15.5971 19.3009 16.7801 19.0009 18.0011 19.0009H61.4231C64.8631 19.0389 67.6731 21.4429 67.6731 24.4089Z" fill="#F1F1F1"/>
<path d="M66.886 41.9719V81.7959C66.886 84.7169 64.077 87.1199 60.64 87.1199H17.247C13.809 87.1199 11 84.7169 11 81.7959V54.6909C14.179 52.1029 18.17 49.9589 22.384 50.3279C28.261 50.8089 28.335 55.5419 34.138 56.8729C45.522 59.4609 57.535 44.2269 66.886 41.9719Z" fill="#ECECEC"/>
<path d="M14.149 21.1789V85.7709C14.149 85.9559 14.109 86.1429 13.993 86.3279C12.205 85.3619 11 83.7249 11 81.8289V25.0839C11 23.2259 12.205 21.5519 13.993 20.5859C14.11 20.8089 14.149 20.9939 14.149 21.1789Z" fill="#D5D5D5"/>
<path d="M43.2721 20.0469V84.9089C43.2721 85.6939 42.3821 86.3289 41.2671 86.3289H40.9111V18.9999H42.6041C43.0501 19.2619 43.2721 19.6349 43.2721 20.0469Z" fill="#D5D5D5"/>
<path d="M11.4258 50.7729H67.4258V53.9408H11.4258V50.7729ZM11.4258 42.0228H67.4258V45.1917H11.4258V42.0228ZM11.4258 32.6899H67.4258V35.8579H11.4258V32.6899ZM11.4258 23.9408H67.4258V27.1088H11.4258V23.9408Z" fill="white"/>
<path d="M37.7622 19.0009H40.9112V86.3279H37.7622V19.0009Z" fill="white"/>
<path d="M238.852 96.6484L216.586 105.917L198.833 89.5919C198.322 89.9211 197.942 90.4532 197.828 91.0983L193.392 116.253C193.278 116.901 193.456 117.534 193.826 118.019L216.085 108.757L234.283 125.758L234.453 125.788L239.281 98.4076C239.395 97.7626 239.22 97.1326 238.852 96.6484Z" fill="#77B9F9"/>
<path d="M195.211 118.869L234.283 125.758L222.939 108.495L209.735 106.167L193.826 118.019C194.156 118.451 194.639 118.768 195.211 118.869Z" fill="#67A6E3"/>
<path d="M200.431 89.2634C199.856 89.162 199.291 89.296 198.833 89.5909L213.876 112.37C214.559 113.404 215.93 113.646 216.926 112.908L238.852 96.6484C238.523 96.2126 238.038 95.8945 237.463 95.7931L200.431 89.2634Z" fill="#A0CDF9"/>
</g>
<defs>
<clipPath id="clip0_1196_1770">
<rect width="276" height="160" fill="white"/>
</clipPath>
</defs>
</svg>
