<svg width="276" height="160" viewBox="0 0 276 160" fill="none" xmlns="http://www.w3.org/2000/svg">
<path opacity="0.26" d="M231.809 87.128C244.198 87.128 254.242 77.0213 254.242 64.554C254.242 52.0867 244.198 41.98 231.809 41.98C219.42 41.98 209.376 52.0867 209.376 64.554C209.376 77.0213 219.42 87.128 231.809 87.128Z" fill="#C7C7C7"/>
<path d="M222.396 75.7982C222.873 76.1662 223.563 76.1132 223.988 75.6402L232.746 65.1842C233.118 64.7112 233.065 64.0282 232.586 63.6072C232.109 63.2402 231.419 63.2922 230.994 63.7652L222.236 74.2222C221.811 74.7472 221.918 75.4302 222.396 75.7982ZM233.327 64.0052C233.676 64.2502 234.174 64.2012 234.423 63.8572L241.493 54.3062C241.742 53.9622 241.692 53.4692 241.343 53.2232C240.995 52.9772 240.497 53.0262 240.248 53.3702L233.128 62.8732C232.879 63.2652 232.977 63.7092 233.327 64.0052Z" fill="white"/>
<path d="M232.596 67.3258C234.552 67.3258 236.138 65.7301 236.138 63.7618C236.138 61.7934 234.552 60.1978 232.596 60.1978C230.64 60.1978 229.054 61.7934 229.054 63.7618C229.054 65.7301 230.64 67.3258 232.596 67.3258Z" fill="white"/>
<path d="M268.387 137.003C268.132 140.721 266.002 144.353 262.21 147.772C258.717 150.977 253.861 154.011 247.855 156.832H28.3018C23.8717 153.882 20.0377 150.293 16.8417 145.806C15.6917 144.226 14.6278 142.558 13.6908 140.849C-13.6583 90.9348 51.3477 -4.53316 73.1997 0.16684C83.2537 2.30384 77.2897 24.0988 93.8177 34.6968C125.043 54.6968 184.808 1.40684 202.445 17.4318C211.859 26.0218 196.097 42.5588 201.976 67.9018C211.944 110.978 269.75 116.533 268.387 137.003Z" fill="#F1F1F1"/>
<path opacity="0.42" d="M275.495 158.182C275.495 158.561 275.297 158.899 275.001 159.152C274.704 159.405 274.259 159.532 273.765 159.532H1.73C0.79 159.532 0 158.942 0 158.182C0 157.802 0.198 157.464 0.494 157.212C0.791 156.958 1.236 156.832 1.73 156.832H273.765C274.705 156.832 275.495 157.422 275.495 158.182Z" fill="#C7C7C7"/>
<path d="M224.84 146.047C222.456 146.047 220.503 148.112 220.503 150.657C220.503 153.198 222.629 155.263 225.011 155.263V153.829C223.358 153.829 221.834 152.394 221.834 150.655C221.834 148.895 223.23 147.505 224.883 147.505L224.84 146.046V146.047Z" fill="#2A4C95"/>
<path d="M224.818 145.288L225.011 155.068C225.033 156.285 225.999 157.241 227.201 157.241H232.825C233.147 157.241 233.448 157.176 233.727 157.045C234.478 156.698 235.015 155.915 235.015 155.025V145.243C235.015 144.809 234.65 144.439 234.221 144.439L226.428 144.462H225.613C225.162 144.462 224.818 144.831 224.818 145.287V145.288Z" fill="url(#paint0_linear_764_2564)"/>
<path opacity="0.27" d="M222.972 117.228C222.607 119.14 222.5 121.684 223.874 123.661C225.204 125.573 226.6 125.096 227.952 126.987C229.799 129.551 229.541 133.572 228.639 136.181C228.059 137.854 227.072 138.701 227.115 140.354C227.158 142.027 228.232 143.57 228.897 144.461H231.945C232.804 144.004 233.985 143.178 234.435 141.81C235.122 139.81 233.555 138.723 233.749 136.745C234.092 133.507 238.643 133.181 240.682 129.377C241.455 127.921 242.142 125.422 240.919 121.206L222.972 117.228Z" fill="url(#paint1_linear_764_2564)"/>
<path d="M225.119 145.056L225.318 154.472C225.34 155.793 226.334 156.832 227.571 156.832H231.416C230.112 156.62 228.831 156.077 227.925 155.038C226.754 153.74 226.577 152.691 226.378 150.849C225.98 147.073 227.129 145.669 226.776 144.159H225.936C225.472 144.159 225.119 144.561 225.119 145.056Z" fill="#2A4C95"/>
<path d="M232.486 148.03H232.081V144.186H232.486V148.03Z" fill="white"/>
<path d="M231.124 150.41H233.328C233.53 150.41 233.688 150.263 233.688 150.073V148.34C233.688 148.15 233.53 148.002 233.328 148.002H231.124C230.921 148.002 230.764 148.15 230.764 148.34V150.072C230.764 150.241 230.921 150.41 231.124 150.41Z" fill="#FFBB04"/>
<path d="M67.6731 24.409V81.712C67.6731 84.679 64.8631 87.12 61.4231 87.12H18.0001C16.7421 87.12 15.5961 86.82 14.6341 86.257C12.9331 85.281 11.7861 83.628 11.7861 81.712V24.409C11.7861 22.531 12.9331 20.842 14.6341 19.865C15.5971 19.301 16.7801 19.001 18.0011 19.001H61.4231C64.8631 19.039 67.6731 21.443 67.6731 24.409Z" fill="#F1F1F1"/>
<path d="M66.886 41.9722V81.7962C66.886 84.7172 64.077 87.1202 60.64 87.1202H17.247C13.809 87.1202 11 84.7172 11 81.7962V54.6912C14.179 52.1032 18.17 49.9592 22.384 50.3282C28.261 50.8092 28.335 55.5422 34.138 56.8732C45.522 59.4612 57.535 44.2272 66.886 41.9722Z" fill="#ECECEC"/>
<path d="M14.149 21.1789V85.7709C14.149 85.9559 14.109 86.1429 13.993 86.3279C12.205 85.3619 11 83.7249 11 81.8289V25.0839C11 23.2259 12.205 21.5519 13.993 20.5859C14.11 20.8089 14.149 20.9939 14.149 21.1789Z" fill="#D5D5D5"/>
<path d="M43.2721 20.047V84.909C43.2721 85.694 42.3821 86.329 41.2671 86.329H40.9111V19H42.6041C43.0501 19.262 43.2721 19.635 43.2721 20.047Z" fill="#D5D5D5"/>
<path d="M11.4258 50.773H67.4258V53.9409H11.4258V50.773ZM11.4258 42.0229H67.4258V45.1918H11.4258V42.0229ZM11.4258 32.69H67.4258V35.8579H11.4258V32.69ZM11.4258 23.9409H67.4258V27.1089H11.4258V23.9409Z" fill="white"/>
<path d="M37.7617 19.001H40.9107V86.328H37.7617V19.001Z" fill="white"/>
<path d="M183 26.1631H93C87.4772 26.1631 83 30.6402 83 36.1631V146.981C83 152.504 87.4772 156.981 93 156.981H183C188.523 156.981 193 152.504 193 146.981V36.1631C193 30.6402 188.523 26.1631 183 26.1631Z" fill="#FF9210"/>
<path d="M178 37.2319H98C95.2386 37.2319 93 39.4705 93 42.2319V142.924C93 145.685 95.2386 147.924 98 147.924H178C180.761 147.924 183 145.685 183 142.924V42.2319C183 39.4705 180.761 37.2319 178 37.2319Z" fill="white"/>
<path d="M159.013 28.1748C157.916 28.1748 157.026 29.0358 157.026 30.0988V40.4718C157.026 41.5578 156.114 42.4418 154.991 42.4418H121.01C119.888 42.4418 118.975 41.5578 118.975 40.4718V30.0988C118.975 29.0358 118.085 28.1748 116.988 28.1748C115.89 28.1748 115.001 29.0358 115.001 30.0988V40.4718C115.001 43.6788 117.697 46.2878 121.01 46.2878H154.99C158.303 46.2878 160.999 43.6788 160.999 40.4718V30.0988C160.999 29.0358 160.11 28.1748 159.013 28.1748Z" fill="#5E9CD4"/>
<path d="M161 24.1499H115C111.134 24.1499 108 27.2839 108 31.1499V31.2379C108 35.1039 111.134 38.2379 115 38.2379H161C164.866 38.2379 168 35.1039 168 31.2379V31.1499C168 27.2839 164.866 24.1499 161 24.1499Z" fill="#FFEEC4"/>
<path d="M110.046 109.685H166.186C167.252 109.685 168.116 108.558 168.116 107.169C168.116 105.779 167.252 104.653 166.186 104.653H110.046C108.98 104.653 108.116 105.78 108.116 107.169C108.116 108.559 108.98 109.685 110.046 109.685Z" fill="#D5D5D5"/>
<circle cx="137.5" cy="77.4995" r="19.5" fill="#5D8EF9"/>
<path d="M140.755 65.9995L140.052 80.647H134.948L134.245 65.9995H140.755ZM137.515 88.9995C136.456 88.9995 135.6 88.7129 134.948 88.1397C134.316 87.546 134 86.7988 134 85.898C134 84.9973 134.316 84.2501 134.948 83.6564C135.6 83.0627 136.456 82.7659 137.515 82.7659C138.555 82.7659 139.39 83.0627 140.022 83.6564C140.674 84.2501 141 84.9973 141 85.898C141 86.7783 140.674 87.5153 140.022 88.109C139.39 88.7027 138.555 88.9995 137.515 88.9995Z" fill="white"/>
<path d="M110.046 122.766H166.186C167.252 122.766 168.116 121.64 168.116 120.251C168.116 118.861 167.252 117.735 166.186 117.735H110.046C108.98 117.735 108.116 118.861 108.116 120.251C108.116 121.64 108.98 122.766 110.046 122.766ZM110.046 135.848H166.186C167.252 135.848 168.116 134.722 168.116 133.332C168.116 131.943 167.252 130.817 166.186 130.817H110.046C108.98 130.817 108.116 131.943 108.116 133.332C108.116 134.722 108.98 135.848 110.046 135.848Z" fill="#D5D5D5"/>
<path d="M219.569 105.006L197.302 114.274L179.549 97.9492C179.038 98.2784 178.658 98.8105 178.544 99.4556L174.109 124.611C173.994 125.259 174.172 125.891 174.543 126.377L196.801 117.114L214.999 134.116L215.17 134.146L219.998 106.765C220.111 106.12 219.936 105.49 219.569 105.006Z" fill="#77B9F9"/>
<path d="M175.927 127.226L214.999 134.116L203.654 116.852L190.451 114.524L174.542 126.377C174.872 126.809 175.355 127.125 175.927 127.226Z" fill="#67A6E3"/>
<path d="M181.147 97.6208C180.572 97.5194 180.007 97.6534 179.549 97.9483L194.592 120.728C195.275 121.762 196.647 122.004 197.642 121.265L219.569 105.006C219.239 104.57 218.754 104.252 218.179 104.151L181.147 97.6208Z" fill="#A0CDF9"/>
<path fill-rule="evenodd" clip-rule="evenodd" d="M35.3766 97.6002C35.8356 97.37 35.9684 97.4035 36.0739 97.4773C36.1781 97.5503 36.2548 97.6627 36.2784 97.7966L42.706 134.48C42.73 134.616 42.6966 134.749 42.6235 134.853C42.5505 134.957 42.4372 135.034 42.3013 135.058C42.1634 135.082 42.0317 135.05 41.9265 134.977C41.8222 134.904 41.7454 134.79 41.7217 134.656L35.2941 97.9732C35.2702 97.8373 35.3036 97.7045 35.3766 97.6002Z" fill="#D8D8D8" stroke="#2173CF"/>
<path d="M60.9922 155.777C60.9922 156.887 55.1722 157.789 47.9922 157.789C40.8122 157.789 34.9922 156.888 34.9922 155.777C34.9922 154.665 40.8122 153.764 47.9942 153.764C55.1732 153.764 60.9922 154.665 60.9922 155.777Z" fill="#E6E6E6"/>
<path d="M37.607 154.224C37.607 155.344 38.516 156.254 39.637 156.254H57.307C58.427 156.254 59.337 155.344 59.337 154.224L63 125.786H33L37.607 154.224Z" fill="url(#paint2_linear_764_2564)" stroke="#1055C2" stroke-width="0.5"/>
<path fill-rule="evenodd" clip-rule="evenodd" d="M34.8477 117.736H61.1517C61.6417 117.736 62.0587 118.09 62.1387 118.572L62.8067 122.61C62.8967 123.155 62.5287 123.67 61.9837 123.76C61.9297 123.77 61.8747 123.774 61.8207 123.774H34.1787C33.6267 123.774 33.1787 123.326 33.1787 122.774C33.1787 122.719 33.1837 122.664 33.1927 122.61L33.8607 118.572C33.9407 118.09 34.3587 117.736 34.8477 117.736Z" fill="#1055C2"/>
<path d="M64 122.767H31C30.4477 122.767 30 123.214 30 123.767V125.792C30 126.344 30.4477 126.792 31 126.792H64C64.5523 126.792 65 126.344 65 125.792V123.767C65 123.214 64.5523 122.767 64 122.767Z" fill="#2173CF"/>
<path fill-rule="evenodd" clip-rule="evenodd" d="M34.5068 135.849H61.6458L60.1978 147.927H36.5298L34.5068 135.849Z" fill="#5D8EF9"/>
<defs>
<linearGradient id="paint0_linear_764_2564" x1="1285.07" y1="783.937" x2="-216.824" y2="783.937" gradientUnits="userSpaceOnUse">
<stop stop-color="#1B91FB"/>
<stop offset="1" stop-color="#2A4C95"/>
</linearGradient>
<linearGradient id="paint1_linear_764_2564" x1="1167.1" y1="-51.8889" x2="1167.1" y2="4447.96" gradientUnits="userSpaceOnUse">
<stop stop-color="white"/>
<stop offset="0.4231" stop-color="#A1D2FD"/>
<stop offset="1" stop-color="#1B91FB"/>
</linearGradient>
<linearGradient id="paint2_linear_764_2564" x1="2987.34" y1="3233.98" x2="742.771" y2="2238.08" gradientUnits="userSpaceOnUse">
<stop stop-color="#ACC5E9"/>
<stop offset="0.62747" stop-color="#D3E3FB"/>
<stop offset="1" stop-color="#EAF2FF"/>
</linearGradient>
</defs>
</svg>
