<svg width="502" height="290" viewBox="0 0 502 290" fill="none" xmlns="http://www.w3.org/2000/svg">
<g clip-path="url(#clip0_753_1568)">
<path d="M422.397 157.921C444.973 157.921 463.274 139.602 463.274 117.005C463.274 94.4075 444.973 76.0889 422.397 76.0889C399.821 76.0889 381.52 94.4075 381.52 117.005C381.52 139.602 399.821 157.921 422.397 157.921Z" fill="#EBEBEB"/>
<path fill-rule="evenodd" clip-rule="evenodd" d="M405.243 137.384C406.114 138.051 407.371 137.956 408.145 137.099L424.104 118.146C424.781 117.289 424.685 116.051 423.814 115.289C422.944 114.622 421.686 114.718 420.912 115.575L404.953 134.527C404.179 135.48 404.373 136.718 405.243 137.384Z" fill="white"/>
<path fill-rule="evenodd" clip-rule="evenodd" d="M425.163 116.008C425.799 116.454 426.706 116.365 427.159 115.74L440.042 98.4294C440.496 97.8048 440.405 96.9125 439.77 96.4663C439.135 96.0202 438.228 96.1094 437.774 96.734L424.801 113.955C424.347 114.669 424.528 115.472 425.163 116.008Z" fill="white"/>
<path d="M423.831 122.029C427.396 122.029 430.286 119.137 430.286 115.569C430.286 112.001 427.396 109.108 423.831 109.108C420.267 109.108 417.377 112.001 417.377 115.569C417.377 119.137 420.267 122.029 423.831 122.029Z" fill="white"/>
<path fill-rule="evenodd" clip-rule="evenodd" d="M489.049 248.318C488.583 255.056 484.702 261.64 477.794 267.836C471.429 273.646 462.58 279.145 451.635 284.257H51.5712C43.4985 278.913 36.5126 272.406 30.6909 264.273C28.5951 261.408 26.6546 258.387 24.9469 255.289C-24.8864 164.82 93.5647 -8.21678 133.385 0.30338C151.704 4.17618 140.837 43.6788 170.954 62.8878C227.851 99.1373 336.754 2.5496 368.89 31.5956C386.044 47.1643 357.324 77.1398 368.036 123.071C386.2 201.147 491.533 211.216 489.049 248.318Z" fill="url(#paint0_linear_753_1568)"/>
<path fill-rule="evenodd" clip-rule="evenodd" d="M502 286.704C502 287.392 501.64 288.003 501.099 288.462C500.559 288.921 499.749 289.15 498.848 289.15H3.15213C1.44098 289.15 0 288.08 0 286.704C0 286.015 0.360244 285.404 0.90061 284.945C1.44098 284.486 2.25152 284.257 3.15213 284.257H498.848C500.559 284.257 502 285.327 502 286.704Z" fill="#C6C6C6"/>
<path d="M409.697 264.711C405.355 264.711 401.795 268.453 401.795 273.062C401.795 277.671 405.668 281.414 410.01 281.414V278.814C406.998 278.814 404.221 276.214 404.221 273.062C404.221 269.871 406.763 267.35 409.775 267.35L409.697 264.711Z" fill="#2A4C95"/>
<path d="M409.658 263.332L410.01 281.059C410.049 283.265 411.809 284.999 414 284.999H424.249C424.835 284.999 425.383 284.88 425.891 284.644C427.261 284.014 428.238 282.596 428.238 280.98V263.253C428.238 262.466 427.573 261.796 426.791 261.796L412.592 261.835H411.105C410.284 261.835 409.658 262.505 409.658 263.332Z" fill="url(#paint1_linear_753_1568)"/>
<path opacity="0.27" d="M406.294 212.476C405.629 215.942 405.433 220.551 407.937 224.136C410.362 227.603 412.905 226.736 415.369 230.163C418.733 234.812 418.264 242.099 416.621 246.826C415.565 249.86 413.765 251.396 413.843 254.39C413.922 257.423 415.877 260.22 417.09 261.835H422.645C424.209 261.008 426.361 259.511 427.182 257.029C428.434 253.405 425.578 251.435 425.931 247.851C426.556 241.981 434.849 241.39 438.565 234.496C439.973 231.857 441.225 227.327 438.996 219.685L406.294 212.476Z" fill="url(#paint2_linear_753_1568)"/>
<path d="M410.206 262.913L410.568 279.979C410.608 282.375 412.42 284.257 414.674 284.257H421.68C419.304 283.872 416.969 282.888 415.319 281.006C413.185 278.653 412.863 276.751 412.5 273.414C411.776 266.568 413.869 264.025 413.225 261.287H411.695C410.85 261.287 410.206 262.014 410.206 262.913Z" fill="#2A4C95"/>
<path d="M423.634 268.305H422.897V261.337H423.634V268.305Z" fill="white"/>
<path d="M421.147 272.619H425.163C425.532 272.619 425.819 272.351 425.819 272.007V268.867C425.819 268.523 425.532 268.255 425.163 268.255H421.147C420.778 268.255 420.491 268.523 420.491 268.867V272.007C420.491 272.313 420.778 272.619 421.147 272.619Z" fill="#FFBB04"/>
<path opacity="0.617769" d="M154.413 142.129H344.82C350.213 142.129 354.585 146.511 354.585 151.917V272.316C354.585 277.722 350.213 282.104 344.82 282.104H154.413C149.02 282.104 144.648 277.722 144.648 272.316V151.917C144.648 146.511 149.02 142.129 154.413 142.129Z" fill="#76BAF9"/>
<path opacity="0.965588" fill-rule="evenodd" clip-rule="evenodd" d="M158.809 152.179H341.405C343.562 152.179 345.311 153.932 345.311 156.094V272.577H154.903V156.094C154.903 153.932 156.652 152.179 158.809 152.179Z" fill="white"/>
<path d="M211.047 272.315H282.328C282.328 275.018 280.142 277.21 277.446 277.21H215.929C213.233 277.21 211.047 275.018 211.047 272.315Z" fill="#8AC9F9"/>
<path opacity="0.22" fill-rule="evenodd" clip-rule="evenodd" d="M106.137 71.5334V175.397C106.137 180.774 101.015 185.198 94.7475 185.198H15.6254C13.334 185.198 11.2447 184.653 9.49242 183.632C6.39223 181.863 4.30298 178.868 4.30298 175.397V71.5334C4.30298 68.1303 6.39223 65.0675 9.49242 63.2979C11.2447 62.2769 13.4013 61.7324 15.6254 61.7324H94.7475C101.015 61.8005 106.137 66.1565 106.137 71.5334Z" fill="url(#paint3_linear_753_1568)"/>
<path opacity="0.4" fill-rule="evenodd" clip-rule="evenodd" d="M104.703 103.366V175.547C104.703 180.842 99.5844 185.198 93.3207 185.198H14.2509C7.98731 185.198 2.86865 180.842 2.86865 175.547V126.421C8.66082 121.73 15.9347 117.843 23.6127 118.513C34.3215 119.384 34.4562 127.963 45.0302 130.375C65.7743 135.067 87.6633 107.454 104.703 103.366Z" fill="white"/>
<path opacity="0.22" fill-rule="evenodd" clip-rule="evenodd" d="M8.60579 65.6819V182.751C8.60579 183.088 8.53497 183.425 8.32248 183.762C5.06435 182.01 2.86865 179.044 2.86865 175.607V72.7586C2.86865 69.3887 5.06435 66.3558 8.32248 64.6035C8.53497 65.0079 8.60579 65.3449 8.60579 65.6819Z" fill="url(#paint4_linear_753_1568)"/>
<path opacity="0.22" fill-rule="evenodd" clip-rule="evenodd" d="M61.6744 63.6275V181.19C61.6744 182.612 60.0507 183.762 58.0211 183.762H57.3716V61.7324H60.4566C61.2685 62.2062 61.6744 62.883 61.6744 63.6275Z" fill="#A1A1A1"/>
<path d="M104.703 111H2.86865V116.743H104.703V111Z" fill="white"/>
<path d="M104.703 98H2.86865V103.743H104.703V98Z" fill="white"/>
<path d="M104.703 85H2.86865V90.7426H104.703V85Z" fill="white"/>
<path d="M104.703 72H2.86865V77.7426H104.703V72Z" fill="white"/>
<path d="M57.3714 61.7324H51.6343V183.762H57.3714V61.7324Z" fill="white"/>
<g opacity="0.929093">
<path fill-rule="evenodd" clip-rule="evenodd" d="M161.428 121.023C157.326 119.994 154.122 116.787 153.094 112.68L152.918 111.98L152.742 112.68C151.715 116.787 148.511 119.994 144.408 121.023L143.708 121.199L144.408 121.375C148.511 122.403 151.715 125.61 152.742 129.717L152.918 130.418L153.094 129.717C154.122 125.61 157.326 122.403 161.428 121.375L162.129 121.199L161.428 121.023Z" fill="white"/>
<path fill-rule="evenodd" clip-rule="evenodd" d="M141.484 127.367C139.277 126.814 137.554 125.089 137.002 122.881L136.907 122.505L136.813 122.881C136.26 125.089 134.537 126.814 132.331 127.367L131.954 127.462L132.331 127.556C134.537 128.109 136.26 129.834 136.813 132.042L136.907 132.42L137.002 132.042C137.555 129.834 139.277 128.109 141.484 127.556L141.861 127.462L141.484 127.367Z" fill="white"/>
</g>
<path fill-rule="evenodd" clip-rule="evenodd" d="M69.5618 278.696C77.7964 278.696 84.472 280.137 84.472 281.913C84.472 283.69 77.7964 285.13 69.5618 285.13C61.3271 285.13 54.6516 283.69 54.6516 281.913C54.6516 280.137 61.3271 278.696 69.5618 278.696Z" fill="#C6C6C6"/>
<path d="M89.4314 263.198C90.5532 265.155 91.1815 267.348 91.1815 269.664C91.1815 277.932 83.171 284.635 73.2894 284.635C63.4078 284.635 55.3972 277.932 55.3972 269.664C55.3972 267.213 56.1008 264.9 57.3483 262.858C65.2745 264.108 81.0509 264.027 89.4314 263.198Z" fill="url(#paint5_linear_753_1568)"/>
<path d="M73.4137 259.89C82.4032 259.89 89.6906 261.607 89.6906 263.725C89.6906 265.844 82.4032 267.561 73.4137 267.561C64.4241 267.561 57.1367 265.844 57.1367 263.725C57.1367 261.607 64.4241 259.89 73.4137 259.89Z" fill="url(#paint6_linear_753_1568)"/>
<path d="M72.0468 260.879C71.1579 254.753 68.7126 245.908 61.3611 236.38C57.0307 230.768 57.0165 217.101 56.3911 215.594C59.7892 216.757 65.8934 219.757 72.0468 228.214C78.4972 237.08 74.4051 255.16 72.0468 260.879Z" fill="url(#paint7_linear_753_1568)"/>
<g filter="url(#filter0_i_753_1568)">
<path d="M72.0468 260.879C71.1579 254.753 68.7126 245.908 61.3611 236.38C57.0307 230.768 57.0165 217.101 56.3911 215.594C59.7892 216.757 65.8934 219.757 72.0468 228.214C78.4972 237.08 74.4051 255.16 72.0468 260.879Z" fill="black"/>
</g>
<mask id="mask0_753_1568" style="mask-type:luminance" maskUnits="userSpaceOnUse" x="56" y="215" width="20" height="46">
<path d="M72.0468 260.879C71.1579 254.753 68.7126 245.908 61.3611 236.38C57.0307 230.768 57.0165 217.101 56.3911 215.594C59.7892 216.757 65.8934 219.757 72.0468 228.214C78.4972 237.08 74.4051 255.16 72.0468 260.879Z" fill="white"/>
</mask>
<g mask="url(#mask0_753_1568)">
<g style="mix-blend-mode:multiply" opacity="0.5">
<path d="M71.7982 260.879C72.4766 245.989 70.6148 236.591 64.7615 227.72" stroke="#489C71" stroke-width="3"/>
</g>
</g>
<path d="M72.0742 267.167C69.328 262.793 64.4759 256.865 55.65 252.059C50.4509 249.228 45.8264 238.81 44.8403 237.87C47.8261 237.62 53.4967 237.865 61.0471 242.256C68.9621 246.859 71.9432 262.017 72.0742 267.167Z" fill="url(#paint8_linear_753_1568)"/>
<g filter="url(#filter1_i_753_1568)">
<path d="M72.0742 267.167C69.328 262.793 64.4759 256.865 55.65 252.059C50.4509 249.228 45.8264 238.81 44.8403 237.87C47.8261 237.62 53.4967 237.865 61.0471 242.256C68.9621 246.859 71.9432 262.017 72.0742 267.167Z" fill="black"/>
</g>
<mask id="mask1_753_1568" style="mask-type:luminance" maskUnits="userSpaceOnUse" x="44" y="237" width="29" height="31">
<path d="M72.0742 267.167C69.328 262.793 64.4759 256.865 55.65 252.059C50.4509 249.228 45.8264 238.81 44.8403 237.87C47.8261 237.62 53.4967 237.865 61.0471 242.256C68.9621 246.859 71.9432 262.017 72.0742 267.167Z" fill="white"/>
</mask>
<g mask="url(#mask1_753_1568)">
<g style="mix-blend-mode:multiply" opacity="0.5">
<path d="M71.8844 267.25C67.3754 255.668 62.7823 249.124 55.3208 244.316" stroke="#489C71" stroke-width="3"/>
</g>
</g>
<path d="M74.0463 267.766C76.2116 263.058 80.2721 256.533 88.4369 250.614C93.2465 247.127 96.4952 236.159 97.3548 235.097C94.3483 235.232 88.732 236.204 81.7835 241.546C74.4995 247.146 73.5055 262.621 74.0463 267.766Z" fill="url(#paint9_linear_753_1568)"/>
<g filter="url(#filter2_i_753_1568)">
<path d="M74.0463 267.766C76.2116 263.058 80.2721 256.533 88.4369 250.614C93.2465 247.127 96.4952 236.159 97.3548 235.097C94.3483 235.232 88.732 236.204 81.7835 241.546C74.4995 247.146 73.5055 262.621 74.0463 267.766Z" fill="black"/>
</g>
<mask id="mask2_753_1568" style="mask-type:luminance" maskUnits="userSpaceOnUse" x="73" y="235" width="25" height="33">
<path d="M74.0463 267.766C76.2116 263.058 80.2721 256.533 88.4369 250.614C93.2465 247.127 96.4952 236.159 97.3548 235.097C94.3483 235.232 88.732 236.204 81.7835 241.546C74.4995 247.146 73.5055 262.621 74.0463 267.766Z" fill="white"/>
</mask>
<g mask="url(#mask2_753_1568)">
<g style="mix-blend-mode:multiply" opacity="0.5">
<path d="M73.4165 267.756C76.3983 255.644 80.1205 248.538 86.9261 242.793" stroke="#489C71" stroke-width="3"/>
</g>
</g>
<path d="M205.86 230.954L201.954 224.71L200.24 225.784L204.146 232.028L205.86 230.954ZM204.146 232.028L200.24 225.784C199.525 224.641 201.238 223.567 201.954 224.71L205.86 230.954C206.575 232.098 204.862 233.172 204.146 232.028Z" fill="#ED5738"/>
<path d="M201.148 150.927C214.884 138.098 303.015 150.863 308.979 162.272C314.942 173.68 297.493 250.092 280.91 260.042C264.328 269.991 217.705 284.276 202.978 265.925C188.252 247.575 187.411 163.756 201.148 150.927Z" fill="#F1A481"/>
<path fill-rule="evenodd" clip-rule="evenodd" d="M200.213 213.934C192.306 214.28 185.366 211.314 184.284 203.857C182.183 189.38 185.777 164.131 196.247 153.378C200.008 149.516 203.323 148.065 206.12 148.209C211.846 146.231 220.735 145.459 230.947 145.575C239.274 145.67 221.561 200.516 250.736 203.586C287.672 207.471 271.162 149.359 277.435 150.59C293.791 153.801 306.809 158.126 308.976 162.272C313.874 171.642 302.979 224.858 289.742 249.091C286.862 254.363 298.493 277.373 295.53 279.151C281.071 287.827 271.77 279.194 245.558 279.921C219.345 280.648 204.204 274.932 204.622 269.857C205.296 261.683 206.654 249.562 205.035 239.211C204.217 233.976 202.193 224.662 200.213 213.934Z" fill="#5D8EF9"/>
<path d="M229.362 170.749C229.298 169.969 229.878 169.285 230.657 169.221C231.436 169.157 232.12 169.737 232.184 170.517C233.828 190.558 240.057 200.874 250.709 201.995C258.239 202.787 264.408 199.603 268.91 193.206C272.952 187.464 275.375 179.402 275.699 171.258C275.73 170.477 276.388 169.868 277.169 169.899C277.95 169.93 278.558 170.589 278.527 171.371C278.183 180.03 275.602 188.619 271.224 194.838C266.159 202.034 259.022 205.719 250.413 204.813C238.067 203.514 231.104 191.983 229.362 170.749Z" fill="white"/>
<path d="M198.222 210.898C193.537 209.794 188.49 207.089 184.036 203.069C183.622 202.695 183.589 202.055 183.963 201.64C184.337 201.225 184.976 201.192 185.39 201.566C189.748 205.499 194.191 207.944 198.739 208.898C199.125 210.278 199.911 210.898 198.222 210.898Z" fill="white"/>
<path d="M200.579 212.417C200.743 212.951 200.444 213.517 199.911 213.682C199.377 213.847 198.811 213.548 198.646 213.014C196.437 205.847 195.516 200.686 195.907 197.449C195.974 196.894 196.478 196.499 197.032 196.566C197.586 196.633 197.981 197.137 197.914 197.692C197.567 200.569 198.448 205.504 200.579 212.417Z" fill="#1D5EF8"/>
<path d="M228.727 157.439C225.108 156.291 218.589 150.542 219.623 146.059C220.698 141.4 224.414 138.28 227.922 139.091C228.059 139.123 228.193 139.16 228.325 139.202C228.445 138.446 228.585 137.716 228.746 137.017C232.534 120.597 249.164 110.42 265.89 114.285C282.617 118.151 293.107 134.595 289.32 151.015C285.533 167.434 266.146 194.315 249.419 190.449C238.301 187.88 231.156 172.372 228.727 157.439Z" fill="#FFBC9D"/>
<path fill-rule="evenodd" clip-rule="evenodd" d="M246.365 138.339L252.055 143.65C252.771 144.318 252.81 145.441 252.142 146.158C251.474 146.875 250.352 146.914 249.636 146.246L243.947 140.935C243.23 140.267 243.191 139.144 243.859 138.427C244.527 137.71 245.649 137.671 246.365 138.339Z" fill="#253238"/>
<path fill-rule="evenodd" clip-rule="evenodd" d="M271.776 142.943L279.038 140.153C279.953 139.801 280.978 140.258 281.329 141.174C281.68 142.089 281.224 143.115 280.309 143.467L273.047 146.257C272.132 146.608 271.107 146.151 270.756 145.236C270.405 144.321 270.861 143.294 271.776 142.943Z" fill="#22537F"/>
<path d="M255.287 163.106C255.2 163.285 255.063 163.434 254.892 163.536C254.244 163.919 254.255 164.001 254.998 164.483C256.002 165.133 257.679 165.524 258.89 165.362C260.309 165.173 261.9 164.432 263.651 163.123C262.406 162.488 261.152 161.491 259.883 160.141C259.027 159.231 258.601 157.95 258.584 156.29L255.287 163.106ZM261.202 146.235C261.772 145.056 263.546 145.852 263.046 147.063C260.448 153.36 259.987 157.299 261.355 158.754C262.98 160.482 264.497 161.491 265.886 161.812C266.69 161.998 266.945 163.019 266.322 163.561C263.761 165.792 261.381 167.072 259.157 167.368C257.463 167.594 255.303 167.091 253.9 166.182C252.101 165.017 251.789 163.21 253.591 161.967L261.202 146.235Z" fill="#ED5738"/>
<path d="M226.87 142.29C227.405 142.129 227.969 142.433 228.129 142.968C228.29 143.503 227.987 144.068 227.452 144.228C224.361 145.158 223.814 146.516 225.458 149.039C225.763 149.508 225.631 150.135 225.163 150.44C224.695 150.745 224.069 150.613 223.764 150.145C221.364 146.462 222.517 143.599 226.87 142.29Z" fill="#EC8B5F"/>
<path d="M245.582 172.923C245.024 172.913 244.579 172.452 244.59 171.893C244.6 171.334 245.061 170.889 245.619 170.9C252.854 171.032 257.885 174.691 260.55 181.737C260.747 182.26 260.484 182.844 259.962 183.042C259.44 183.24 258.856 182.976 258.659 182.454C256.282 176.171 251.978 173.041 245.582 172.923Z" fill="#EC8B5F"/>
<path d="M242.245 150.144L247.49 149.129L243.188 146.368C242.718 146.066 242.581 145.44 242.883 144.97C243.184 144.499 243.81 144.362 244.28 144.664L250.708 148.79C251.476 149.283 251.25 150.462 250.354 150.636L242.629 152.131C242.081 152.237 241.551 151.878 241.445 151.33C241.339 150.781 241.697 150.25 242.245 150.144Z" fill="#1C2229"/>
<path d="M272.575 157.089C273.754 157.362 274.93 156.626 275.202 155.446C275.475 154.266 274.74 153.089 273.561 152.816C272.382 152.544 271.206 153.28 270.934 154.46C270.662 155.64 271.397 156.817 272.575 157.089Z" fill="#1C2229"/>
<path fill-rule="evenodd" clip-rule="evenodd" d="M216.837 112.997C216.967 112.684 217.109 112.378 217.263 112.081C222.111 102.705 225.277 100.251 234.667 104.321C250.85 67.3177 352.752 114.664 322.454 126.976C324.611 141.259 306.748 145.538 300.352 141.798C299.975 154.277 289.521 161.027 284.051 161.203C285.274 159.25 287.406 153.367 288.279 149.582C286.371 142.587 284.931 140.567 285.623 132.25C280.077 135.94 269.853 136.91 260.434 138.376C256.241 139.029 242.484 137.429 238.287 131.476C236.843 137.736 236.808 144.272 232.421 153.129C228.863 154.299 230.503 142.815 228.343 140.651C225.801 138.104 222.449 141.101 220.759 141.731C219.815 139.339 214.887 127.427 215.688 118.019L216.837 112.997Z" fill="#253238"/>
<path d="M315.935 180.424C316.196 187.703 312.638 226.189 297.814 249.275C294.566 254.333 295.429 256.964 293.01 260.898C283.66 276.105 267.954 278.941 267.954 251.187C267.954 244.2 273.474 238.115 274.67 231.844C278.765 210.374 288.254 177.116 297.814 170.545C310.166 162.054 315.605 171.204 315.935 180.424Z" fill="#FFAA83"/>
<path fill-rule="evenodd" clip-rule="evenodd" d="M315.535 169.523C315.814 178.568 317.399 193.439 317.444 206.989C317.49 220.54 279.145 230.72 276.191 206.989C273.236 183.259 286.347 159.723 297.557 159.723C308.766 159.723 315.25 160.298 315.535 169.523Z" fill="url(#paint10_linear_753_1568)"/>
<path d="M315.373 208.898C301.278 220.583 287.794 220.807 275.283 209.515C274.869 209.141 274.835 208.501 275.209 208.086C275.583 207.671 276.223 207.638 276.637 208.012C288.377 218.609 300.738 218.403 314.084 207.339C314.514 206.983 315.151 207.043 315.507 207.473C315.863 207.903 315.803 208.541 315.373 208.898Z" fill="white"/>
<path d="M278.666 207.307C280.333 199.995 282.113 195.065 284.068 192.457C284.403 192.01 285.037 191.92 285.484 192.255C285.93 192.591 286.021 193.225 285.685 193.672C283.947 195.99 282.245 200.704 280.637 207.758C280.513 208.303 279.971 208.643 279.427 208.519C278.882 208.395 278.542 207.852 278.666 207.307Z" fill="#1D5EF8"/>
<path d="M275.277 232.32V228.166C275.277 227.607 275.73 227.154 276.288 227.154C276.847 227.154 277.299 227.607 277.299 228.166V232.32C277.299 232.879 276.847 233.332 276.288 233.332C275.73 233.332 275.277 232.879 275.277 232.32Z" fill="#EC8B5F"/>
<path d="M292.713 251.529C294.023 248.15 294.025 242.824 292.669 235.591C290.562 227.616 290.155 222.798 291.654 220.772C291.987 220.323 292.62 220.229 293.068 220.561C293.517 220.894 293.611 221.528 293.279 221.977C292.312 223.283 292.695 227.782 294.649 235.181C296.075 242.769 296.075 248.449 294.598 252.261C294.396 252.782 293.811 253.04 293.29 252.838C292.77 252.636 292.511 252.05 292.713 251.529Z" fill="#EC8B5F"/>
<path d="M254.939 222.719C253.329 220.732 253.857 219.964 253.211 217.505C252.988 216.658 254.004 215.317 253.872 214.421C253.774 213.755 252.753 212.793 252.763 212.117C252.781 210.917 253.642 209.732 253.872 208.502C254.074 207.422 252.58 206.547 253.211 204.793C253.842 203.038 255.599 202.847 256.239 201.921C256.748 201.185 254.114 200.099 256.239 197.972C258.365 195.844 264.68 195.046 267.83 196.536C266.867 202.565 272.236 202.908 275.256 201.097C276.018 200.64 275.776 196.934 276.947 196.934C277.93 196.934 280.495 196.934 281.859 197.972C289.883 204.078 292.456 208.437 291.491 220.91C291.009 227.136 273.674 228.237 267.83 227.017C264.462 226.313 257.267 225.591 254.939 222.719Z" fill="#FFAA83"/>
<path d="M269.26 190.353L277.501 192.106L274.813 205.145L266.573 203.392L269.26 190.353Z" fill="#1E5B89"/>
<path d="M277.012 193.476C291.995 193.476 304.141 181.319 304.141 166.322C304.141 151.325 291.995 139.168 277.012 139.168C262.03 139.168 249.884 151.325 249.884 166.322C249.884 181.319 262.03 193.476 277.012 193.476Z" fill="#4C91FC"/>
<path d="M277.012 190.778C290.32 190.778 301.108 179.979 301.108 166.659C301.108 153.339 290.32 142.541 277.012 142.541C263.705 142.541 252.917 153.339 252.917 166.659C252.917 179.979 263.705 190.778 277.012 190.778Z" fill="white"/>
<path d="M299.874 159.018C297.888 168.357 291.929 180.478 284.165 189.697C281.905 190.399 279.503 190.778 277.012 190.778C263.705 190.778 252.917 179.979 252.917 166.659C252.917 153.339 263.705 142.541 277.012 142.541C287.652 142.541 296.681 149.443 299.874 159.018Z" fill="#FFBC9D"/>
<path d="M277.181 176.611C284.44 176.611 290.324 170.721 290.324 163.455C290.324 156.19 284.44 150.3 277.181 150.3C269.922 150.3 264.038 156.19 264.038 163.455C264.038 170.721 269.922 176.611 277.181 176.611Z" fill="white"/>
<path d="M277.518 170.539C281.24 170.539 284.258 167.518 284.258 163.792C284.258 160.066 281.24 157.046 277.518 157.046C273.795 157.046 270.778 160.066 270.778 163.792C270.778 167.518 273.795 170.539 277.518 170.539Z" fill="#22537F"/>
<path d="M277.518 167.165C279.379 167.165 280.888 165.655 280.888 163.792C280.888 161.929 279.379 160.419 277.518 160.419C275.657 160.419 274.148 161.929 274.148 163.792C274.148 165.655 275.657 167.165 277.518 167.165Z" fill="#1C2229"/>
<path d="M282.067 164.13C283.836 164.13 285.269 162.695 285.269 160.925C285.269 159.155 283.836 157.721 282.067 157.721C280.299 157.721 278.866 159.155 278.866 160.925C278.866 162.695 280.299 164.13 282.067 164.13Z" fill="white"/>
<path d="M131.954 272.315H369.232C369.232 278.803 363.986 284.062 357.514 284.062H143.672C137.2 284.062 131.954 278.803 131.954 272.315Z" fill="#76BAF9"/>
</g>
<defs>
<filter id="filter0_i_753_1568" x="56.3911" y="205.594" width="19.1216" height="55.2852" filterUnits="userSpaceOnUse" color-interpolation-filters="sRGB">
<feFlood flood-opacity="0" result="BackgroundImageFix"/>
<feBlend mode="normal" in="SourceGraphic" in2="BackgroundImageFix" result="shape"/>
<feColorMatrix in="SourceAlpha" type="matrix" values="0 0 0 0 0 0 0 0 0 0 0 0 0 0 0 0 0 0 127 0" result="hardAlpha"/>
<feOffset dy="-10"/>
<feGaussianBlur stdDeviation="11"/>
<feComposite in2="hardAlpha" operator="arithmetic" k2="-1" k3="1"/>
<feColorMatrix type="matrix" values="0 0 0 0 0.221483 0 0 0 0 0.77854 0 0 0 0 0.610041 0 0 0 1 0"/>
<feBlend mode="normal" in2="shape" result="effect1_innerShadow_753_1568"/>
</filter>
<filter id="filter1_i_753_1568" x="44.8403" y="227.803" width="27.2339" height="39.3643" filterUnits="userSpaceOnUse" color-interpolation-filters="sRGB">
<feFlood flood-opacity="0" result="BackgroundImageFix"/>
<feBlend mode="normal" in="SourceGraphic" in2="BackgroundImageFix" result="shape"/>
<feColorMatrix in="SourceAlpha" type="matrix" values="0 0 0 0 0 0 0 0 0 0 0 0 0 0 0 0 0 0 127 0" result="hardAlpha"/>
<feOffset dy="-10"/>
<feGaussianBlur stdDeviation="11"/>
<feComposite in2="hardAlpha" operator="arithmetic" k2="-1" k3="1"/>
<feColorMatrix type="matrix" values="0 0 0 0 0.221483 0 0 0 0 0.77854 0 0 0 0 0.610041 0 0 0 1 0"/>
<feBlend mode="normal" in2="shape" result="effect1_innerShadow_753_1568"/>
</filter>
<filter id="filter2_i_753_1568" x="73.9224" y="225.097" width="23.4324" height="42.6699" filterUnits="userSpaceOnUse" color-interpolation-filters="sRGB">
<feFlood flood-opacity="0" result="BackgroundImageFix"/>
<feBlend mode="normal" in="SourceGraphic" in2="BackgroundImageFix" result="shape"/>
<feColorMatrix in="SourceAlpha" type="matrix" values="0 0 0 0 0 0 0 0 0 0 0 0 0 0 0 0 0 0 127 0" result="hardAlpha"/>
<feOffset dy="-10"/>
<feGaussianBlur stdDeviation="11"/>
<feComposite in2="hardAlpha" operator="arithmetic" k2="-1" k3="1"/>
<feColorMatrix type="matrix" values="0 0 0 0 0.221483 0 0 0 0 0.77854 0 0 0 0 0.610041 0 0 0 1 0"/>
<feBlend mode="normal" in2="shape" result="effect1_innerShadow_753_1568"/>
</filter>
<linearGradient id="paint0_linear_753_1568" x1="219.5" y1="66.5" x2="259" y2="345" gradientUnits="userSpaceOnUse">
<stop stop-color="#EFEFEF"/>
<stop offset="1" stop-color="#CFCFCF"/>
</linearGradient>
<linearGradient id="paint1_linear_753_1568" x1="2341.61" y1="1420.84" x2="-395.078" y2="1420.84" gradientUnits="userSpaceOnUse">
<stop stop-color="#1B91FB"/>
<stop offset="1" stop-color="#2A4C95"/>
</linearGradient>
<linearGradient id="paint2_linear_753_1568" x1="2126.68" y1="-94.0308" x2="2126.68" y2="8061.88" gradientUnits="userSpaceOnUse">
<stop stop-color="white"/>
<stop offset="0.4231" stop-color="#A1D2FD"/>
<stop offset="1" stop-color="#1B91FB"/>
</linearGradient>
<linearGradient id="paint3_linear_753_1568" x1="5092.4" y1="11921.1" x2="5092.4" y2="-13685.9" gradientUnits="userSpaceOnUse">
<stop stop-color="white"/>
<stop offset="0.1573" stop-color="#D4EAFE"/>
<stop offset="0.4628" stop-color="#85C4FD"/>
<stop offset="0.715" stop-color="#4CA9FC"/>
<stop offset="0.9007" stop-color="#2897FB"/>
<stop offset="1" stop-color="#1B91FB"/>
</linearGradient>
<linearGradient id="paint4_linear_753_1568" x1="292.594" y1="11510.3" x2="292.594" y2="-13203" gradientUnits="userSpaceOnUse">
<stop stop-color="white"/>
<stop offset="0.1573" stop-color="#D4EAFE"/>
<stop offset="0.4628" stop-color="#85C4FD"/>
<stop offset="0.715" stop-color="#4CA9FC"/>
<stop offset="0.9007" stop-color="#2897FB"/>
<stop offset="1" stop-color="#1B91FB"/>
</linearGradient>
<linearGradient id="paint5_linear_753_1568" x1="3633.83" y1="1770.37" x2="1000.41" y2="1071.59" gradientUnits="userSpaceOnUse">
<stop stop-color="#ACC5E9"/>
<stop offset="0.627469" stop-color="#D3E3FB"/>
<stop offset="1" stop-color="#EAF2FF"/>
</linearGradient>
<linearGradient id="paint6_linear_753_1568" x1="2583.29" y1="620.768" x2="1932.45" y2="1260.94" gradientUnits="userSpaceOnUse">
<stop stop-color="#86A8D9"/>
<stop offset="1" stop-color="#BCD0F2"/>
</linearGradient>
<linearGradient id="paint7_linear_753_1568" x1="939.553" y1="443.922" x2="2027.15" y2="4507.97" gradientUnits="userSpaceOnUse">
<stop stop-color="#B1FFBE"/>
<stop offset="0.444207" stop-color="#5CDB8E"/>
<stop offset="1" stop-color="#149654"/>
</linearGradient>
<linearGradient id="paint8_linear_753_1568" x1="2081.68" y1="-35.3315" x2="2403.85" y2="2840.82" gradientUnits="userSpaceOnUse">
<stop stop-color="#B1FFBE"/>
<stop offset="0.444207" stop-color="#5CDB8E"/>
<stop offset="1" stop-color="#149654"/>
</linearGradient>
<linearGradient id="paint9_linear_753_1568" x1="1044.8" y1="399.817" x2="2083.5" y2="3334.35" gradientUnits="userSpaceOnUse">
<stop stop-color="#B1FFBE"/>
<stop offset="0.444207" stop-color="#5CDB8E"/>
<stop offset="1" stop-color="#149654"/>
</linearGradient>
<linearGradient id="paint10_linear_753_1568" x1="5086.01" y1="4607.85" x2="2694.12" y2="854.407" gradientUnits="userSpaceOnUse">
<stop stop-color="#9CBCFF"/>
<stop offset="1" stop-color="#6386FF"/>
</linearGradient>
<clipPath id="clip0_753_1568">
<rect width="502" height="290" fill="white"/>
</clipPath>
</defs>
</svg>
