<svg width="448" height="232" viewBox="0 0 448 232" fill="none" xmlns="http://www.w3.org/2000/svg">
<g opacity="0.3">
<mask id="mask0_819_1595" style="mask-type:alpha" maskUnits="userSpaceOnUse" x="0" y="0" width="448" height="232">
<rect width="448" height="232" transform="matrix(-1 0 0 1 448 0)" fill="#3A86FF"/>
</mask>
<g mask="url(#mask0_819_1595)">
<path d="M10.5779 50.6853H117.418V199.19H10.5779V50.6853Z" fill="white"/>
<path d="M10.5779 50.6853H117.418V104.439H10.5779V50.6853Z" fill="#455A64"/>
<path d="M29.0789 117.611C29.0789 117.704 43.77 117.779 61.8849 117.779C79.9998 117.779 94.6909 117.704 94.6909 117.611C94.6909 117.517 80.006 117.449 61.8849 117.449C43.7638 117.449 29.0789 117.505 29.0789 117.611Z" fill="#263238"/>
<path d="M29.0789 132.072C29.0789 132.159 43.77 132.233 61.8849 132.233C79.9998 132.233 94.6909 132.159 94.6909 132.072C94.6909 131.984 80.006 131.91 61.8849 131.91C43.7638 131.91 29.0789 131.984 29.0789 132.072Z" fill="#263238"/>
<path d="M29.0789 146.551C29.0789 146.638 43.77 146.713 61.8849 146.713C79.9998 146.713 94.6909 146.638 94.6909 146.551C94.6909 146.464 80.006 146.383 61.8849 146.383C43.7638 146.383 29.0789 146.458 29.0789 146.551Z" fill="#263238"/>
<path d="M29.3528 163.24H93.5268C99.839 163.24 104.956 168.358 104.956 174.67V175.859C104.956 182.171 99.839 187.288 93.5268 187.288H29.3528C23.0406 187.288 17.9236 182.171 17.9236 175.859V174.67C17.9236 168.358 23.0406 163.24 29.3528 163.24Z" fill="#455A64"/>
<path d="M101.364 120.294C101.593 120.296 101.815 120.214 101.987 120.063L103.817 118.451C104.003 118.286 104.115 118.054 104.13 117.806C104.144 117.558 104.06 117.314 103.895 117.128C103.73 116.942 103.497 116.83 103.249 116.815C103.001 116.801 102.758 116.885 102.572 117.05L101.433 118.053L98.8555 115.202C98.6866 115.033 98.4594 114.935 98.2207 114.929C97.982 114.922 97.7499 115.008 97.5722 115.167C97.3944 115.327 97.2845 115.548 97.265 115.786C97.2455 116.024 97.3179 116.26 97.4673 116.447L100.667 119.976C100.754 120.075 100.861 120.155 100.982 120.21C101.102 120.264 101.232 120.293 101.364 120.294Z" fill="#455A64"/>
<path d="M101.364 134.767C101.593 134.769 101.815 134.687 101.987 134.536L103.817 132.93C103.909 132.849 103.984 132.75 104.039 132.639C104.093 132.528 104.124 132.407 104.132 132.284C104.147 132.036 104.063 131.791 103.898 131.604C103.733 131.418 103.5 131.305 103.251 131.289C103.003 131.274 102.758 131.358 102.572 131.524L101.433 132.526L98.8554 129.681C98.7759 129.582 98.6771 129.5 98.565 129.441C98.4529 129.381 98.3298 129.345 98.2033 129.335C98.0768 129.324 97.9495 129.34 97.8292 129.38C97.7089 129.421 97.5981 129.485 97.5036 129.57C97.4091 129.655 97.3329 129.758 97.2796 129.873C97.2263 129.988 97.1971 130.113 97.1937 130.24C97.1902 130.367 97.2127 130.493 97.2598 130.611C97.3068 130.729 97.3774 130.836 97.4672 130.926L100.667 134.456C100.754 134.555 100.861 134.634 100.981 134.687C101.102 134.741 101.232 134.768 101.364 134.767Z" fill="#455A64"/>
<path d="M101.364 149.246C101.593 149.249 101.815 149.167 101.987 149.016L103.817 147.404C104.003 147.239 104.115 147.006 104.13 146.758C104.144 146.51 104.06 146.267 103.895 146.081C103.73 145.895 103.497 145.783 103.249 145.768C103.001 145.753 102.758 145.838 102.572 146.003L101.433 147.005L98.8555 144.154C98.6866 143.985 98.4594 143.888 98.2207 143.881C97.982 143.875 97.7499 143.96 97.5722 144.12C97.3944 144.279 97.2845 144.501 97.265 144.739C97.2455 144.977 97.3179 145.213 97.4673 145.399L100.667 148.929C100.754 149.028 100.861 149.108 100.982 149.162C101.102 149.217 101.232 149.246 101.364 149.246Z" fill="#455A64"/>
<path d="M57.6331 65.0464L56.0955 68.1651L52.6468 68.6694L55.1431 71.0971L54.5517 74.5271L57.6331 72.9086L60.7145 74.5271L60.1294 71.0971L62.6194 68.6694L59.1769 68.1651L57.6331 65.0464Z" fill="white"/>
<path d="M69.7408 65.0464L68.1969 68.1651L64.7545 68.6694L67.2445 71.0971L66.6594 74.5271L69.7408 72.9086L72.8221 74.5271L72.2308 71.0971L74.7271 68.6694L71.2783 68.1651L69.7408 65.0464Z" fill="white"/>
<path d="M59.9489 77.9074L64.0014 75.7224L68.0913 77.814L67.2633 73.2946L70.519 70.0451L65.9623 69.4351L63.8831 65.3328L61.8911 69.4786L57.3468 70.1945L60.6772 73.3693L59.9489 77.9074Z" fill="white"/>
<path d="M71.322 69.771L66.205 69.0925L63.8706 64.4922L61.6421 69.1423L56.5437 69.9453L60.2788 73.4998L59.4633 78.5982L64.0014 76.1455L68.5954 78.4923L67.6679 73.4189L71.322 69.771ZM58.1498 70.4433L62.1401 69.8208L63.8893 66.173L65.7195 69.7773L69.7284 70.3002L66.8711 73.1512L67.5932 77.1477L63.9951 75.2802L60.4406 77.2037L61.0631 73.2135L58.1498 70.4433Z" fill="#455A64"/>
<path d="M10.5904 199.19C10.5904 197.883 10.6527 138.465 10.7398 50.685L10.5904 50.8344H117.419L117.257 50.6726C117.257 106.237 117.257 157.65 117.257 199.177L117.387 199.047L10.5468 199.177L117.387 199.308H117.524V199.177C117.524 157.65 117.524 106.237 117.524 50.6726V50.5107H117.35H10.5219H10.3787V50.6539C10.5219 138.465 10.5904 197.914 10.5904 199.19Z" fill="#263238"/>
<path d="M96.9258 31.7921C96.5986 31.1888 96.3952 30.5263 96.3274 29.8433C96.2597 29.1604 96.3291 28.4708 96.5314 27.815C96.7338 27.1592 97.0651 26.5504 97.5059 26.0244C97.9467 25.4983 98.4881 25.0656 99.0983 24.7516C98.9031 23.0655 99.3645 21.3689 100.387 20.0139C101.409 18.659 102.914 17.7496 104.589 17.4745C106.195 17.2815 107.82 17.7048 109.432 17.5803C111.044 17.4558 112.439 16.8333 113.97 16.5532C115.501 16.2731 117.263 16.4349 118.328 17.5803C119.492 18.8253 119.317 20.9356 118.39 22.3985C117.462 23.8614 115.968 24.8325 114.518 25.7663C114.953 25.7655 115.373 25.9229 115.701 26.2093C116.028 26.4956 116.241 26.8913 116.298 27.3225C116.389 28.207 116.149 29.0939 115.626 29.8125C114.835 31.0248 113.725 31.9952 112.418 32.6169C111.111 33.2386 109.657 33.4874 108.218 33.3359L104.153 33.2176C103.587 33.6058 102.95 33.8771 102.278 34.0156C101.606 34.1541 100.913 34.1571 100.24 34.0243C99.5666 33.8915 98.9267 33.6257 98.3576 33.2424C97.7886 32.8591 97.3018 32.366 96.9258 31.7921Z" fill="#263238"/>
<path d="M109.768 35.8072C110.186 35.8444 110.603 35.7257 110.938 35.474C111.274 35.2224 111.505 34.8555 111.586 34.444C111.65 34.0281 111.598 33.6026 111.437 33.214C111.276 32.8254 111.011 32.4886 110.671 32.2403C109.976 31.7639 109.138 31.5438 108.299 31.6178C107.463 31.6886 106.641 31.8794 105.859 32.1843C104.629 32.5889 103.452 33.1407 102.354 33.8277C101.958 34.0596 101.618 34.3763 101.358 34.7552C101.229 34.9463 101.154 35.1686 101.141 35.3986C101.128 35.6286 101.177 35.858 101.283 36.0625C101.62 36.6103 102.373 36.685 103.014 36.685C105.42 36.696 107.823 36.4876 110.191 36.0625" fill="#ACCFFF"/>
<path d="M111.106 34.4379C111.586 29.8811 118.016 25.7913 120.793 26.5196C121.499 25.205 122.685 24.213 124.104 23.7494C125.523 23.2857 127.065 23.3861 128.412 24.0296L135.982 20.6743C137.276 20.1016 138.634 19.5102 140.04 19.6347C141.447 19.7592 142.879 20.8797 142.829 22.2803C145.562 21.1909 148.98 23.9486 148.482 26.8557C148.889 26.9485 149.273 27.1237 149.611 27.3705C149.948 27.6173 150.231 27.9305 150.443 28.2909C150.655 28.6513 150.79 29.0512 150.842 29.466C150.893 29.8808 150.859 30.3017 150.741 30.7028C154.136 31.5432 157.361 32.958 160.278 34.8861C161.523 35.6891 162.725 36.6789 163.123 38.0795C163.521 39.4801 162.631 41.3103 161.174 41.3228C161.827 41.5404 162.403 41.9415 162.834 42.4781C163.264 43.0146 163.531 43.6639 163.602 44.3481C164.729 43.5638 166.31 45.0267 166.136 46.39C165.962 47.7532 164.797 48.7368 163.677 49.5025C162.556 50.2682 161.318 51.1023 160.869 52.3971C160.978 52.5265 161.112 52.6324 161.263 52.7084C161.414 52.7844 161.579 52.8289 161.747 52.8391C164.773 52.9885 167.256 55.2482 167.294 58.2736C167.294 58.5537 167.294 58.8152 167.294 59.0455C167.294 60.4275 166.347 62.4195 165.737 63.652C164.2 66.7646 162.532 67.6298 160.041 70.0763C162.121 71.3213 160.515 78.6171 152.466 78.505C144.174 88.8635 137.494 95.3874 126.818 103.262C125.293 104.389 123.307 105.528 121.627 104.656C120.631 105.901 118.875 106.3 117.3 106.076C115.742 105.755 114.25 105.172 112.887 104.351C111.286 104.935 109.545 105.009 107.901 104.564C106.256 104.118 104.791 103.174 103.705 101.861C102.292 101.812 100.905 101.47 99.6319 100.856C98.3588 100.242 97.2273 99.3694 96.3094 98.2945C93.1658 99.3963 89.3062 97.0993 88.7709 93.8124C87.0076 90.2494 85.8465 86.419 85.3346 82.4766C83.3053 83.3792 80.9148 81.5055 80.4293 79.3329C79.9437 77.1604 80.7655 74.9754 81.5747 72.8776C80.5165 74.1848 78.1696 73.3756 77.516 71.8318C76.8623 70.2879 77.379 68.5076 78.0327 66.9575C78.9827 64.6847 80.2055 62.5358 81.6743 60.5582C80.6098 57.8005 81.6307 53.0134 83.0376 50.4113C88.7148 39.9097 94.0497 34.3943 111.094 34.3818" fill="#263238"/>
<path d="M129.452 42.2316C128.872 41.3004 127.962 40.6222 126.904 40.3326C125.845 40.0429 124.717 40.1631 123.743 40.6691L101.103 48.5127C94.4545 51.9365 95.3447 62.3012 99.0486 68.8001C103.163 76.0212 108.467 84.674 112.681 89.3055C121.16 98.643 131.282 93.7003 131.282 93.7003L136.262 101.208L142.02 109.991C144.647 107.551 160.571 90.4198 160.571 90.4198L129.452 42.2316Z" fill="#FFBF9D"/>
<path d="M119.846 77.0732C119.803 76.986 118.807 77.4155 117.238 78.1812C116.846 78.3866 116.454 78.5423 116.23 78.3306C115.95 77.9727 115.785 77.5388 115.757 77.0856C115.52 75.9734 115.271 74.8052 115.01 73.5809C113.908 68.6009 112.856 64.6355 112.657 64.6791C112.457 64.7226 113.186 68.7876 114.287 73.749C114.568 74.994 114.835 76.1269 115.097 77.2412C115.156 77.8346 115.422 78.3881 115.85 78.8037C115.988 78.8975 116.145 78.9586 116.31 78.9823C116.475 79.0061 116.644 78.9918 116.802 78.9407C117.041 78.8635 117.269 78.7569 117.481 78.6232C118.987 77.7704 119.896 77.1479 119.846 77.0732Z" fill="#263238"/>
<path d="M131.282 93.6941C131.282 93.6941 137.295 90.5815 141.497 81.8665C141.497 81.8665 144.902 90.7123 133.666 97.2859L131.282 93.6941Z" fill="#FF9A6C"/>
<path d="M114.549 57.2901C114.947 57.5889 116.261 56.4621 118.078 55.5595C119.896 54.6569 121.558 54.2211 121.552 53.7293C121.552 53.4928 121.066 53.2811 120.27 53.2625C119.233 53.2814 118.214 53.5356 117.29 54.0057C116.366 54.4759 115.56 55.1498 114.935 55.9766C114.511 56.6364 114.399 57.1469 114.549 57.2901Z" fill="#263238"/>
<path d="M101.047 66.7272C101.514 66.8891 102.292 65.8993 103.462 65.1025C104.632 64.3057 105.796 63.8575 105.809 63.3906C105.809 63.1603 105.429 62.9362 104.782 62.9175C103.947 62.9216 103.135 63.1873 102.46 63.6769C101.768 64.1483 101.24 64.8225 100.947 65.6067C100.748 66.2168 100.854 66.6401 101.047 66.7272Z" fill="#263238"/>
<path d="M98.0151 76.9111C96.9041 75.2832 96.3875 73.3224 96.5523 71.3584C96.6892 70.3001 97.0938 69.2792 97.1187 68.2085C97.1747 65.899 95.5251 63.9443 94.6972 61.7905C94.1761 60.3906 93.9963 58.8867 94.1728 57.4035C94.3493 55.9203 94.8769 54.5006 95.7118 53.2621C97.1187 51.2203 99.3286 49.7637 100.418 47.5413C101.227 45.8979 101.358 43.9681 102.286 42.3807C104.047 39.2682 108.069 38.4216 111.623 38.1104C113.54 39.7289 113.491 42.3372 113.491 44.8459C113.475 46.1 113.189 47.3361 112.652 48.4695C112.114 49.6029 111.339 50.6071 110.378 51.4133C108.872 52.6583 106.78 53.617 106.481 55.5405C106.17 57.5636 108.125 59.3191 108.149 61.3609C108.181 64.2867 104.533 65.7994 103.35 68.4762C102.441 70.5367 103.138 72.9084 103.537 75.1307C103.935 77.3531 103.798 80.0734 101.906 81.306C100.446 79.994 99.1404 78.5195 98.0151 76.9111Z" fill="#263238"/>
<path d="M110.26 44.541C114.827 41.1391 120.011 38.6551 125.524 37.2266C127.161 36.8033 128.935 36.4796 130.504 37.1208C131.88 37.681 132.876 38.8887 133.735 40.1088C136.411 43.9123 138.229 49.6331 139.337 54.165L136.66 60.39C132.409 62.1517 129.551 54.6816 127.454 51.4135C125.774 51.7482 124.034 51.6048 122.431 50.9996C120.829 50.3943 119.429 49.3515 118.39 47.9897C116.862 48.0656 115.337 47.7947 113.929 47.1975C112.522 46.6002 111.267 45.6921 110.26 44.541Z" fill="#263238"/>
<path d="M135.714 58.9893C134.295 56.7234 136.648 54.389 139.306 54.1649C140.763 54.0404 142.419 54.694 143.931 57.0844C147.99 63.4464 140.763 66.2166 140.632 66.036C140.501 65.8555 137.376 61.6349 135.714 58.9893Z" fill="#FFBF9D"/>
<path d="M141.043 62.3884C141.043 62.3448 141.205 62.3884 141.447 62.3884C141.783 62.3341 142.085 62.151 142.288 61.8779C142.804 61.1994 142.686 59.7739 141.989 58.6036C141.656 58.048 141.203 57.5738 140.663 57.2154C140.476 57.055 140.254 56.9424 140.014 56.8871C139.775 56.8318 139.525 56.8355 139.287 56.8979C139.138 56.9449 139.01 57.043 138.925 57.1751C138.841 57.3072 138.806 57.4647 138.827 57.62C138.827 57.8503 138.976 57.9499 138.945 57.9873C138.914 58.0246 138.746 57.9873 138.627 57.6698C138.564 57.4884 138.564 57.291 138.627 57.1095C138.719 56.8655 138.902 56.6668 139.138 56.5555C139.432 56.4428 139.751 56.4065 140.063 56.45C140.376 56.4935 140.672 56.6155 140.924 56.8045C141.55 57.1815 142.071 57.7077 142.443 58.3359C143.221 59.6431 143.334 61.2617 142.58 62.1145C142.441 62.2729 142.268 62.3982 142.074 62.4812C141.88 62.5641 141.67 62.6026 141.46 62.5938C141.155 62.5316 141.03 62.4133 141.043 62.3884Z" fill="#FF9A6C"/>
<path d="M143.582 64.4675C143.582 64.4675 143.582 64.4675 143.657 64.536C143.732 64.6036 143.816 64.6602 143.906 64.704C144.269 64.8831 144.684 64.9272 145.076 64.8285C145.703 64.6946 146.294 64.4317 146.813 64.0566C147.148 63.8269 147.461 63.5664 147.747 63.2785C148.084 62.9603 148.367 62.5904 148.587 62.1829H148.488C148.944 62.6415 149.512 62.9737 150.136 63.1468C150.759 63.32 151.417 63.3282 152.044 63.1707C152.672 63.0132 153.248 62.6953 153.716 62.2482C154.183 61.8012 154.527 61.2402 154.713 60.6204L154.595 60.6764C154.981 60.8179 155.408 60.8023 155.784 60.6328C156.163 60.4618 156.485 60.1852 156.711 59.836C156.955 59.4686 157.071 59.031 157.041 58.591C157.011 58.1472 156.867 57.7185 156.624 57.346C156.118 56.5903 155.362 56.037 154.489 55.7835C153.593 55.5385 152.672 55.4026 151.743 55.3789L151.831 55.5283C151.97 55.1851 152.035 54.8165 152.022 54.4465C152.009 54.0765 151.918 53.7134 151.756 53.3807C151.44 52.6879 150.927 52.1034 150.281 51.6999C149.612 51.3115 148.874 51.0558 148.108 50.9467C147.337 50.8363 146.559 50.776 145.78 50.7661L145.886 50.8969C145.935 50.5029 145.901 50.103 145.785 49.7232C145.669 49.3435 145.474 48.9925 145.213 48.6932C144.692 48.0633 143.994 47.6037 143.209 47.3735C141.702 46.9377 140.159 47.2054 138.727 47.442L138.851 47.5166C138.555 46.7604 138.079 46.088 137.463 45.5581C136.848 45.0282 136.112 44.6568 135.321 44.4764C134.529 44.2959 133.705 44.3118 132.921 44.5228C132.136 44.7337 131.416 45.1332 130.821 45.6865L130.989 45.7238C130.709 45.1266 130.296 44.6016 129.781 44.1893C129.266 43.777 128.664 43.4885 128.02 43.3459C127.426 43.1911 126.806 43.1667 126.202 43.2741C125.599 43.3816 125.025 43.6184 124.521 43.9684H124.652C124.262 43.4579 123.762 43.0425 123.188 42.7535C122.614 42.4645 121.983 42.3095 121.34 42.3001C120.778 42.2735 120.217 42.3607 119.69 42.5565C119.162 42.7522 118.68 43.0525 118.271 43.4392H118.39C117.954 42.9067 117.394 42.4897 116.759 42.2254C116.21 41.9779 115.622 41.8263 115.022 41.7771C114.063 41.6709 113.096 41.8901 112.277 42.3997L112.04 42.5491C111.965 42.6051 111.897 42.6673 111.835 42.7234C111.711 42.8251 111.593 42.9332 111.48 43.0471C111.31 43.2301 111.154 43.4257 111.013 43.6322C110.913 43.8003 110.839 43.931 110.776 44.0244L110.702 44.1613C110.737 44.1233 110.768 44.0815 110.795 44.0368L111.05 43.6571C111.194 43.4572 111.352 43.2679 111.523 43.0906C111.635 42.9793 111.753 42.8753 111.878 42.7794L112.084 42.6113L112.32 42.4681C113.131 41.9916 114.076 41.7948 115.009 41.9079C115.595 41.967 116.168 42.1227 116.703 42.3685C117.314 42.6232 117.851 43.0278 118.265 43.5451L118.321 43.6135L118.377 43.5513C118.772 43.1815 119.237 42.8959 119.746 42.7118C120.254 42.5278 120.794 42.4491 121.334 42.4806C121.956 42.4971 122.566 42.6568 123.117 42.9472C123.668 43.2376 124.144 43.6509 124.509 44.1551L124.565 44.2361L124.64 44.18C125.124 43.8519 125.673 43.6325 126.25 43.5369C126.827 43.4412 127.418 43.4716 127.982 43.626C128.595 43.7626 129.169 44.0379 129.659 44.4307C130.149 44.8235 130.542 45.3234 130.809 45.8919L130.871 46.0289L130.977 45.9293C131.548 45.4068 132.237 45.0307 132.986 44.8332C133.735 44.6357 134.52 44.6227 135.275 44.7953C136.029 44.9679 136.731 45.321 137.319 45.8242C137.907 46.3275 138.365 46.9659 138.652 47.6847V47.7719H138.746C140.177 47.5353 141.684 47.2801 143.103 47.6972C143.835 47.9184 144.485 48.3516 144.971 48.9422C145.212 49.2171 145.393 49.5401 145.5 49.89C145.607 50.2398 145.639 50.6085 145.593 50.9716V51.0961H145.724C147.268 51.1396 148.836 51.2206 150.113 51.9925C150.723 52.368 151.208 52.9161 151.507 53.5674C151.658 53.8724 151.743 54.2056 151.757 54.5455C151.77 54.8854 151.713 55.2244 151.588 55.5407L151.526 55.6839H151.681C152.592 55.7046 153.498 55.8362 154.377 56.0761C155.206 56.3099 155.925 56.8305 156.406 57.5452C156.643 57.8669 156.778 58.2516 156.796 58.6506C156.814 59.0496 156.713 59.4448 156.506 59.7862C156.324 60.1113 156.037 60.3651 155.692 60.5064C155.347 60.6477 154.965 60.6681 154.607 60.5644L154.52 60.5332L154.489 60.6266C154.284 61.2645 153.908 61.8341 153.402 62.2731C152.896 62.7122 152.279 63.004 151.619 63.1166C151.059 63.201 150.487 63.1556 149.948 62.984C149.408 62.8124 148.915 62.5192 148.506 62.1269L148.444 62.0646L148.407 62.1393C148.195 62.5368 147.924 62.8999 147.604 63.2162C147.324 63.5018 147.017 63.7603 146.689 63.9881C146.183 64.3626 145.607 64.6315 144.996 64.7787C144.615 64.8785 144.211 64.8478 143.85 64.6916C143.688 64.5546 143.589 64.455 143.582 64.4675Z" fill="#455A64"/>
<path d="M162.14 41.0986C162.148 40.9193 162.135 40.7396 162.102 40.5632C162.019 40.0498 161.833 39.5585 161.554 39.119C161.12 38.4087 160.464 37.8616 159.687 37.5627C159.165 37.3686 158.607 37.2855 158.051 37.3187C157.495 37.3519 156.952 37.5008 156.456 37.7557H156.556C156.008 36.5698 155.032 35.6355 153.823 35.1412C153.157 34.8549 152.437 34.7148 151.713 34.7303C150.954 34.8009 150.204 34.9426 149.472 35.1536C149.097 35.2428 148.711 35.2764 148.326 35.2532C147.937 35.2251 147.559 35.1056 147.224 34.9046C146.527 34.5187 145.942 33.89 145.145 33.504C144.309 33.126 143.378 33.0076 142.474 33.1641C141.569 33.3205 140.733 33.7447 140.072 34.3817H140.252C139.822 33.5625 139.21 32.8531 138.462 32.3085C137.714 31.7639 136.851 31.3986 135.939 31.2409C135.027 31.0833 134.091 31.1374 133.204 31.3992C132.317 31.661 131.501 32.1235 130.821 32.7508H130.996C130.491 31.8708 129.744 31.154 128.844 30.6854C127.945 30.2169 126.929 30.0163 125.919 30.1074C124.908 30.1984 123.945 30.5774 123.144 31.1993C122.342 31.8212 121.736 32.66 121.397 33.6161L121.502 33.5538C120.47 33.4098 119.419 33.4904 118.421 33.7904C117.528 34.0413 116.67 34.4053 115.869 34.8735C114.557 35.6139 113.389 36.5838 112.42 37.737C111.788 38.4649 111.279 39.2913 110.914 40.1835C110.816 40.4177 110.737 40.6591 110.677 40.9056C110.651 40.9871 110.63 41.0703 110.615 41.1546C110.615 41.1546 110.714 40.8184 110.963 40.2084C111.351 39.3339 111.869 38.5236 112.501 37.8055C113.474 36.6777 114.64 35.7313 115.943 35.0105C116.736 34.5511 117.586 34.1975 118.471 33.9584C119.444 33.6749 120.467 33.6006 121.471 33.7406H121.546V33.6659C121.881 32.7544 122.47 31.9577 123.243 31.3695C124.016 30.7813 124.941 30.4261 125.908 30.3457C126.876 30.2652 127.847 30.4629 128.706 30.9155C129.566 31.368 130.278 32.0566 130.759 32.9002L130.828 33.0247L130.933 32.9313C131.59 32.3175 132.379 31.8643 133.24 31.6071C134.101 31.3499 135.01 31.2957 135.896 31.4489C136.781 31.6021 137.619 31.9585 138.344 32.49C139.068 33.0216 139.66 33.7138 140.072 34.5125L140.146 34.6494L140.252 34.5374C140.882 33.939 141.675 33.5423 142.531 33.3981C143.388 33.2539 144.268 33.3688 145.058 33.7281C145.811 34.0829 146.396 34.7054 147.131 35.1225C147.494 35.3337 147.901 35.4593 148.32 35.4898C148.722 35.5097 149.124 35.4719 149.515 35.3777C150.237 35.1694 150.977 35.0277 151.725 34.9544C152.423 34.9322 153.118 35.0618 153.761 35.3342C154.93 35.8001 155.881 36.689 156.425 37.8242L156.462 37.8989L156.531 37.8615C157.007 37.6123 157.529 37.4648 158.065 37.4284C158.601 37.3919 159.138 37.4674 159.643 37.6499C160.412 37.9281 161.068 38.4508 161.511 39.1377C161.79 39.5659 161.984 40.0434 162.084 40.5445C162.127 40.9118 162.127 41.0986 162.14 41.0986Z" fill="#455A64"/>
<path d="M104.888 85.0102C104.871 84.9037 104.832 84.802 104.773 84.7119C104.714 84.6217 104.636 84.5452 104.545 84.4873C104.329 84.3449 104.081 84.2592 103.823 84.2383C103.473 84.2257 103.124 84.2829 102.796 84.4064C102.397 84.5611 101.978 84.6595 101.551 84.6989C101.046 84.6927 100.556 84.5222 100.157 84.2134C99.6872 83.8651 99.2915 83.4271 98.9925 82.9248C98.6502 82.4081 98.37 81.8167 97.9281 81.244C97.1001 80.0737 95.7617 79.252 94.5416 78.1938C93.9035 77.6541 93.3806 76.9914 93.004 76.2453C92.801 75.8597 92.6836 75.4348 92.66 74.9997C92.6364 74.5646 92.707 74.1295 92.8671 73.7242C93.3127 72.9022 93.8562 72.1372 94.4856 71.4458C94.799 71.0556 95.0452 70.6159 95.2139 70.1448C95.3651 69.6505 95.3908 69.1263 95.2886 68.6196C95.0255 67.6271 94.6583 66.6652 94.193 65.7499C93.9816 65.2858 93.841 64.7927 93.776 64.287C93.7248 63.7824 93.8407 63.2751 94.1059 62.8428C94.5535 62.2992 95.0656 61.8121 95.631 61.3923C95.9093 61.1544 96.147 60.8727 96.3344 60.5582C96.5153 60.2354 96.6056 59.8698 96.5959 59.4999C96.5315 58.8058 96.368 58.1245 96.1103 57.4768C95.8956 56.8554 95.817 56.1952 95.88 55.5408C95.9327 54.9172 96.1142 54.3114 96.4132 53.7617C96.7121 53.212 97.122 52.7304 97.6168 52.3473C98.5509 51.6328 99.7203 51.2971 100.891 51.4073H101.028V51.2704C100.834 50.2694 100.856 49.2386 101.092 48.2467C101.329 47.2548 101.774 46.3247 102.398 45.5184C102.922 44.848 103.571 44.2857 104.309 43.8626C104.932 43.4965 105.615 43.2435 106.326 43.1156C107.33 42.9455 108.363 43.0665 109.301 43.4642C109.549 43.5651 109.789 43.6858 110.017 43.8252L110.198 43.9186H110.266L110.21 43.875L110.036 43.763C109.809 43.6146 109.57 43.4875 109.32 43.3832C108.378 42.9512 107.33 42.8082 106.307 42.9724C105.578 43.0906 104.878 43.3416 104.24 43.7132C103.481 44.1388 102.811 44.7074 102.267 45.3877C101.622 46.2115 101.16 47.1637 100.913 48.1804C100.667 49.1972 100.64 50.2549 100.835 51.2828L100.947 51.1646C99.7248 51.0396 98.5007 51.3846 97.5234 52.1295C96.9972 52.5265 96.5594 53.0288 96.2379 53.6044C95.9164 54.1799 95.7182 54.816 95.6559 55.4723C95.5915 56.1538 95.6722 56.8411 95.8925 57.4892C96.1411 58.1179 96.3023 58.7777 96.3718 59.4501C96.3621 59.7859 96.2771 60.1152 96.123 60.4136C95.969 60.7121 95.7497 60.9721 95.4816 61.1745C94.8952 61.6013 94.3678 62.1036 93.9129 62.6685C93.6233 63.1444 93.4966 63.7016 93.5519 64.2559C93.6139 64.7857 93.7589 65.3024 93.9814 65.7872C94.4402 66.6888 94.8033 67.6361 95.0645 68.6134C95.1659 69.0819 95.1444 69.5687 95.0023 70.0265C94.8418 70.4766 94.6083 70.8972 94.3113 71.2715C93.6703 71.976 93.1203 72.7582 92.6741 73.5997C92.4878 74.0351 92.413 74.51 92.4562 74.9816C92.4978 75.4362 92.6222 75.8792 92.8235 76.2889C93.2108 77.0581 93.751 77.7401 94.4109 78.2934C95.6559 79.3641 96.9881 80.1609 97.7973 81.2938C98.202 81.8541 98.5194 82.4392 98.868 82.9621C99.195 83.4757 99.6177 83.9216 100.113 84.2756C100.538 84.5951 101.057 84.7657 101.588 84.7612C102.017 84.7207 102.436 84.6158 102.833 84.4499C103.15 84.3225 103.488 84.2591 103.829 84.2632C104.078 84.2757 104.32 84.3506 104.533 84.4811C104.711 84.6088 104.837 84.7968 104.888 85.0102Z" fill="#455A64"/>
<path d="M86.1815 84.1198C86.1899 84.0662 86.1899 84.0116 86.1815 83.958L86.1005 83.4911C86.0258 83.074 85.9138 82.4764 85.7706 81.7107C85.6274 80.945 85.4282 79.9988 85.3037 78.8908C85.1082 77.6476 85.2679 76.3744 85.7644 75.218C86.0632 74.5955 86.5052 73.973 86.8973 73.3505C87.1045 73.0101 87.2656 72.6438 87.3767 72.2611C87.4951 71.8564 87.5122 71.4289 87.4265 71.0161C87.2584 70.1757 86.7479 69.4474 86.5052 68.6257C86.3803 68.22 86.3803 67.7863 86.5052 67.3807C86.6577 66.9575 86.8785 66.5622 87.1588 66.2103C87.4564 65.8369 87.719 65.4368 87.9432 65.0151C88.1625 64.5609 88.2363 64.05 88.1548 63.5522C87.8823 62.5854 87.4803 61.6598 86.9596 60.8008C86.7284 60.3628 86.5906 59.8816 86.555 59.3877C86.5478 59.142 86.5892 58.8973 86.6768 58.6676C86.7643 58.4379 86.8964 58.2278 87.0654 58.0493C87.7502 57.2961 88.8147 56.9537 89.6052 56.1818C89.9955 55.7777 90.2501 55.262 90.3336 54.7064C90.3961 54.175 90.3961 53.6381 90.3336 53.1066C90.29 52.5837 90.234 52.067 90.2402 51.5628C90.2344 51.0705 90.3521 50.5847 90.5826 50.1497C91.0681 49.2844 92.0268 48.8673 92.9107 48.5001C93.8391 48.1942 94.689 47.6884 95.4008 47.0185C95.9935 46.3157 96.4515 45.5096 96.7516 44.6405C97.0062 43.8266 97.3377 43.0387 97.7414 42.2875C98.6288 41.0451 99.8631 40.0923 101.29 39.5484C102.46 39.0872 103.72 38.8977 104.975 38.9944C105.922 39.0772 106.85 39.3061 107.726 39.6729C108.277 39.913 108.806 40.2004 109.308 40.532L109.706 40.781L109.849 40.8619L109.718 40.7623L109.332 40.4884C108.836 40.1414 108.309 39.8413 107.758 39.592C106.876 39.2047 105.939 38.9589 104.981 38.8637C103.712 38.7545 102.434 38.9376 101.246 39.399C99.7839 39.9463 98.5167 40.9146 97.6045 42.1816C97.1596 42.9195 96.7885 43.6993 96.4964 44.5098C96.1999 45.3532 95.7528 46.1357 95.1767 46.8193C94.4896 47.4599 93.672 47.9441 92.78 48.2386C92.318 48.4223 91.8706 48.6408 91.4416 48.8922C90.9809 49.1502 90.6001 49.5301 90.341 49.9902C90.0818 50.4503 89.9544 50.9728 89.9725 51.5005C89.9733 52.0246 90.0024 52.5483 90.0596 53.0693C90.1219 53.582 90.1219 54.1003 90.0596 54.6131C89.989 55.1221 89.7579 55.5953 89.3998 55.9639C88.6652 56.7047 87.6008 57.0471 86.8538 57.8314C86.4743 58.2371 86.2707 58.7764 86.2873 59.3317C86.3232 59.8564 86.4696 60.3676 86.7168 60.8319C87.1463 61.7532 87.7377 62.5874 87.8933 63.5211C87.9714 63.9785 87.9039 64.4488 87.7004 64.8657C87.4846 65.2755 87.2325 65.6651 86.9471 66.0298C86.648 66.4017 86.4162 66.823 86.2624 67.2748C86.1222 67.7227 86.1222 68.2027 86.2624 68.6506C86.5238 69.5159 87.0281 70.2317 87.1899 71.0223C87.3128 71.7975 87.1346 72.5903 86.6919 73.2384C86.3184 73.8983 85.8702 74.4834 85.5652 75.1433C85.0721 76.3226 84.919 77.6165 85.1232 78.8783C85.2601 79.9926 85.4842 80.9326 85.6336 81.7045C85.783 82.4764 85.92 83.0553 86.0072 83.4786C86.0507 83.6716 86.0819 83.821 86.1068 83.9393C86.1238 84.0024 86.1489 84.0631 86.1815 84.1198Z" fill="#455A64"/>
<path d="M88.0613 73.0208L87.9368 73.083C87.8217 73.1605 87.7276 73.2653 87.6629 73.388C87.5657 73.6372 87.5307 73.9064 87.5611 74.1722C87.5914 74.438 87.6863 74.6923 87.8372 74.9132C88.0628 75.2194 88.3287 75.4937 88.6278 75.7287C88.9793 75.9995 89.2915 76.318 89.5553 76.6749C89.8053 77.1128 89.9362 77.6086 89.9351 78.1129C89.9351 78.6544 89.9351 79.2334 89.9973 79.8496C90.0201 80.1805 90.1184 80.5018 90.2846 80.7888C90.4507 81.0758 90.6804 81.321 90.956 81.5055C91.5287 81.8852 92.201 82.0471 92.7924 82.4393C93.3594 82.8848 93.7338 83.531 93.8382 84.2445C94.0062 84.9729 94.0561 85.7634 94.2739 86.554C94.3746 86.9604 94.5498 87.3445 94.7906 87.687C95.0506 88.0309 95.3791 88.3171 95.7555 88.5274C96.5327 88.9034 97.3434 89.2056 98.177 89.43C99.0173 89.6474 99.7457 90.1715 100.219 90.8991C100.573 91.7312 100.826 92.6027 100.972 93.495C101.088 93.9561 101.286 94.3926 101.557 94.7835C101.845 95.1611 102.216 95.4677 102.64 95.68C103.465 96.0335 104.328 96.2904 105.211 96.4456C106.042 96.6051 106.832 96.9312 107.533 97.4043C108.168 97.9327 108.84 98.4154 109.544 98.8485C109.905 99.0481 110.308 99.1591 110.721 99.1722C111.118 99.1719 111.511 99.1024 111.885 98.9668C112.233 98.8427 112.589 98.7388 112.949 98.6555C113.299 98.5986 113.655 98.5882 114.007 98.6244C114.677 98.7352 115.33 98.9319 115.95 99.2096C116.572 99.4648 117.145 99.72 117.73 99.913C118.789 100.265 119.933 100.265 120.992 99.913C121.788 99.6643 122.518 99.2387 123.127 98.668C123.511 98.3063 123.834 97.8861 124.086 97.423C124.174 97.2635 124.249 97.0969 124.31 96.925C124 97.5523 123.578 98.1177 123.065 98.5933C122.459 99.1433 121.738 99.5516 120.955 99.7885C119.917 100.106 118.804 100.084 117.78 99.7262C117.207 99.5333 116.634 99.278 116.018 99.0166C115.384 98.7221 114.715 98.5128 114.026 98.3941C113.659 98.3413 113.285 98.3413 112.918 98.3941C112.549 98.4751 112.185 98.5791 111.829 98.7053C111.475 98.8336 111.102 98.8989 110.727 98.8983C110.345 98.8816 109.972 98.7772 109.637 98.5933C108.946 98.1588 108.285 97.6784 107.658 97.1553C106.936 96.6654 106.123 96.3266 105.267 96.1593C104.411 96.003 103.575 95.7482 102.777 95.3998C102.383 95.2061 102.04 94.9225 101.775 94.5719C101.518 94.2073 101.333 93.7976 101.227 93.3642C101.076 92.4521 100.815 91.5617 100.449 90.7124C100.22 90.308 99.895 89.9661 99.503 89.7164C99.113 89.4752 98.6949 89.2829 98.258 89.1436C97.4426 88.947 96.6451 88.6826 95.8738 88.3531C95.5258 88.1537 95.2211 87.8871 94.9774 87.5687C94.7515 87.2459 94.585 86.8854 94.4856 86.5042C94.2739 85.7448 94.2241 84.9604 94.0498 84.2134C93.9299 83.4519 93.5221 82.7655 92.9106 82.2961C92.2881 81.879 91.6034 81.7234 91.0431 81.3686C90.787 81.1999 90.573 80.9746 90.4176 80.7102C90.2622 80.4458 90.1695 80.1493 90.1467 79.8434C90.072 79.2583 90.1094 78.6731 90.072 78.1253C90.0658 77.5966 89.9198 77.079 89.6487 76.6251C89.3776 76.2605 89.0547 75.9375 88.6901 75.6664C88.3907 75.4438 88.1245 75.1797 87.8995 74.882C87.7502 74.6738 87.6536 74.4326 87.6178 74.1789C87.5821 73.9253 87.6082 73.6667 87.694 73.4254C87.7749 73.2579 87.9025 73.1174 88.0613 73.0208Z" fill="#455A64"/>
<path d="M125.717 75.9464C125.491 75.8109 125.221 75.7677 124.964 75.8256C124.706 75.8836 124.481 76.0383 124.335 76.2576C123.401 77.6458 122.467 79.034 121.527 80.4284L121.21 80.8891C121.965 81.5398 122.802 82.0882 123.7 82.52C124.09 82.7011 124.515 82.7949 124.945 82.7949C125.375 82.7949 125.8 82.7011 126.19 82.52C126.785 82.1508 127.248 81.6013 127.51 80.9513C127.939 79.8993 128.288 78.8223 127.808 77.7952C127.46 77.042 126.377 76.3697 125.717 75.9464Z" fill="#FF9A6C"/>
<path d="M146.471 60.8505C146.892 60.736 147.33 60.6919 147.766 60.7198C148.978 60.7742 150.13 61.2599 151.015 62.0893C151.634 62.6526 152.113 63.3515 152.416 64.1311C152.748 65.0317 152.863 65.9977 152.752 66.9511C152.637 68.0075 152.253 69.0169 151.638 69.8831C150.969 70.8153 150.034 71.5229 148.955 71.9124C147.883 72.3128 146.72 72.4034 145.599 72.1739C144.554 71.9582 143.594 71.4435 142.836 70.6923C142.196 70.0629 141.709 69.2949 141.414 68.4476C141.118 67.6003 141.021 66.6964 141.13 65.8057C141.247 65.1275 141.499 64.4798 141.871 63.9008C142.14 63.4611 142.469 63.061 142.848 62.7118C143.09 62.4927 143.363 62.3103 143.657 62.1702C143.757 62.1146 143.867 62.0806 143.981 62.0706C143.591 62.2511 143.235 62.4975 142.929 62.799C142.092 63.6175 141.533 64.6777 141.329 65.8306C141.239 66.6871 141.345 67.553 141.638 68.3628C141.931 69.1726 142.405 69.9053 143.022 70.5056C143.748 71.2139 144.662 71.698 145.655 71.9C146.726 72.1105 147.833 72.02 148.855 71.6385C149.879 71.2697 150.768 70.6017 151.407 69.7212C152 68.8942 152.373 67.9304 152.491 66.9199C152.604 66.0064 152.501 65.079 152.192 64.212C151.91 63.4628 151.461 62.7878 150.878 62.2387C150.031 61.4296 148.933 60.9334 147.766 60.8318C146.919 60.7758 146.477 60.8879 146.471 60.8505Z" fill="#E0E0E0"/>
<path d="M121.266 65.7497C121.496 66.11 121.859 66.3653 122.276 66.4608C122.692 66.5563 123.13 66.4842 123.494 66.2602C123.679 66.1613 123.842 66.0264 123.974 65.8635C124.106 65.7005 124.203 65.5129 124.261 65.3115C124.319 65.1102 124.337 64.8992 124.312 64.6912C124.287 64.4831 124.221 64.2821 124.117 64.1001C123.885 63.7411 123.523 63.4868 123.106 63.3914C122.69 63.2961 122.253 63.3672 121.888 63.5896C121.702 63.6872 121.538 63.8214 121.405 63.9842C121.272 64.147 121.174 64.335 121.116 64.5368C121.058 64.7386 121.041 64.9501 121.067 65.1586C121.092 65.367 121.16 65.5681 121.266 65.7497Z" fill="#263238"/>
<path d="M108.255 74.8321C108.488 75.1898 108.85 75.4431 109.266 75.5384C109.682 75.6336 110.119 75.5634 110.484 75.3425C110.669 75.2431 110.832 75.1076 110.964 74.9441C111.096 74.7806 111.194 74.5924 111.252 74.3905C111.31 74.1887 111.327 73.9772 111.302 73.7687C111.277 73.5602 111.21 73.3587 111.106 73.1762C110.874 72.8185 110.511 72.5652 110.095 72.47C109.68 72.3747 109.243 72.4449 108.878 72.6658C108.693 72.7653 108.53 72.9007 108.398 73.0642C108.266 73.2277 108.168 73.416 108.11 73.6178C108.052 73.8197 108.035 74.0311 108.06 74.2396C108.085 74.4481 108.151 74.6496 108.255 74.8321Z" fill="#263238"/>
<path d="M104.533 71.2464C104.8 71.3585 105.317 69.9329 106.724 69.1361C108.131 68.3393 109.619 68.5821 109.656 68.2895C109.656 68.1588 109.32 67.8911 108.66 67.7666C107.808 67.6109 106.929 67.7627 106.179 68.1947C105.429 68.6268 104.857 69.3112 104.564 70.1259C104.346 70.7609 104.402 71.2028 104.533 71.2464Z" fill="#263238"/>
<path d="M117.749 63.3221C118.079 63.3968 118.564 61.7223 120.145 60.6018C121.726 59.4813 123.469 59.5124 123.494 59.1825C123.494 59.0268 123.071 58.7903 122.287 58.7529C121.261 58.7272 120.256 59.0377 119.423 59.6369C118.597 60.23 117.992 61.0823 117.705 62.0584C117.5 62.8304 117.599 63.291 117.749 63.3221Z" fill="#263238"/>
<path d="M124.97 82.6445C124.97 82.6445 125.194 82.7316 125.592 82.6445C126.177 82.5027 126.703 82.183 127.099 81.7294C127.703 81.0762 128.104 80.2604 128.25 79.3826C128.346 78.8456 128.285 78.2926 128.076 77.7889C127.837 77.2656 127.481 76.8036 127.036 76.4381C126.611 76.0838 126.145 75.7808 125.648 75.5355C125.51 75.4496 125.355 75.3946 125.194 75.3742C125.033 75.3537 124.869 75.3684 124.715 75.4172C124.445 75.552 124.227 75.7704 124.092 76.0397L122.747 78.1811C122.305 78.8315 121.935 79.5288 121.646 80.2603C122.191 79.6935 122.672 79.067 123.077 78.3928C123.526 77.7703 124.005 77.0544 124.515 76.3136C124.789 75.8654 124.988 75.7596 125.437 76.0024C125.896 76.239 126.328 76.5249 126.725 76.8552C127.109 77.1377 127.412 77.5169 127.602 77.9542C127.793 78.3916 127.864 78.8715 127.808 79.3452C127.686 80.1412 127.355 80.8907 126.85 81.5178C126.511 81.9467 126.064 82.2776 125.555 82.4764C125.194 82.5947 124.964 82.6009 124.97 82.6445Z" fill="#263238"/>
<path d="M68.5768 58.4292C68.8125 57.6688 69.1386 56.9394 69.5479 56.2566C70.0569 55.4821 70.7073 54.8105 71.4652 54.2771C72.4615 53.5742 73.6297 53.1547 74.8454 53.0632H75.0384V52.864C74.9193 51.2477 75.4352 49.6487 76.4764 48.4069C77.046 47.6743 77.7706 47.0768 78.5982 46.657C79.4258 46.2373 80.3359 46.0058 81.2635 45.9791H81.5062V45.7363C81.5581 43.1306 82.6075 40.6441 84.4383 38.7891C85.8718 37.3538 87.7169 36.4008 89.7171 36.0626C91.5446 35.745 93.4242 35.9345 95.1516 36.6104L95.2636 36.654L95.3695 36.5855C97.1235 35.4091 99.1038 34.6118 101.184 34.2449C102.802 33.9454 104.457 33.9012 106.089 34.1141C107.525 34.3326 108.935 34.6976 110.297 35.2035C110.297 35.2035 110.216 35.1413 110.042 35.0541C109.868 34.967 109.606 34.83 109.258 34.6931C108.254 34.2955 107.211 34.0095 106.145 33.8402C104.485 33.5721 102.793 33.5721 101.134 33.8402C98.9892 34.1893 96.9422 34.9869 95.1267 36.1808H95.3446C93.5425 35.4493 91.5724 35.2337 89.6549 35.5583C87.5479 35.8996 85.6024 36.8974 84.0959 38.4094C82.1685 40.3554 81.0707 42.9728 81.0331 45.7114L81.2759 45.4686C80.2782 45.5025 79.3003 45.7567 78.4124 46.213C77.5245 46.6694 76.7486 47.3165 76.1403 48.1081C75.0386 49.4389 74.5022 51.1485 74.6463 52.8702L74.8205 52.6648C73.5406 52.7751 72.3175 53.2432 71.2909 54.0156C70.5161 54.5826 69.8639 55.3004 69.3736 56.1259C69.0634 56.644 68.8287 57.2037 68.6764 57.788C68.6189 57.9972 68.5855 58.2124 68.5768 58.4292Z" fill="#263238"/>
<path d="M108.455 26.3513C109.099 26.242 109.711 25.9911 110.247 25.6167C111.009 25.1256 111.665 24.4871 112.176 23.7387C112.687 22.9904 113.043 22.1473 113.223 21.2592C113.469 20.0008 113.324 18.6972 112.806 17.5241C112.218 16.1698 111.218 15.035 109.949 14.2809C108.509 13.4693 106.812 13.2441 105.211 13.6522C103.46 14.0598 101.94 15.1398 100.978 16.6589L101.258 16.5406C100.167 16.2823 99.0192 16.4076 98.0089 16.8954C97.1438 17.285 96.4044 17.908 95.8737 18.6945C95.3838 19.4692 95.1406 20.3744 95.1765 21.2903C95.1994 22.1518 95.4433 22.993 95.8848 23.7331C96.3263 24.4733 96.9505 25.0876 97.6976 25.5171L97.791 25.0689C97.1184 25.1475 96.4754 25.3901 95.9186 25.7755C95.3618 26.1608 94.9081 26.677 94.5976 27.2788C94.3018 27.8132 94.1243 28.4049 94.077 29.0138C94.0297 29.6228 94.1139 30.2348 94.3237 30.8084C94.67 31.7371 95.2616 32.5545 96.0354 33.1739C96.8093 33.7932 97.7365 34.1912 98.7185 34.3256C99.9909 34.4973 101.286 34.3052 102.454 33.7715C102.761 33.6394 103.057 33.4811 103.338 33.2984C103.524 33.1677 103.618 33.0992 103.611 33.0868C103.605 33.0743 103.201 33.3233 102.398 33.6284C101.254 34.0827 100.009 34.2224 98.7932 34.033C97.878 33.889 97.0184 33.5015 96.3043 32.9112C95.5903 32.3209 95.0481 31.5495 94.7345 30.6777C94.5512 30.158 94.482 29.6049 94.5314 29.056C94.5808 28.5071 94.7477 27.9753 95.0209 27.4967C95.2989 26.9642 95.7029 26.5077 96.1976 26.1671C96.6923 25.8264 97.2629 25.6118 97.8595 25.542L98.6625 25.4798L97.9591 25.0938C97.2894 24.7025 96.7308 24.1466 96.3364 23.4787C95.942 22.8108 95.7249 22.0532 95.7056 21.2779C95.6779 20.4631 95.8947 19.6588 96.3281 18.9684C96.7924 18.2711 97.4381 17.7137 98.1956 17.3561C99.0993 16.9194 100.125 16.8052 101.103 17.0324L101.283 17.0822L101.383 16.9203C102.271 15.5138 103.674 14.5106 105.292 14.1253C106.781 13.7404 108.361 13.9479 109.7 14.7042C110.898 15.4003 111.849 16.4538 112.42 17.7171C112.918 18.8092 113.075 20.0267 112.868 21.2094C112.542 22.9303 111.557 24.456 110.123 25.4611C109.598 25.8127 109.039 26.1109 108.455 26.3513Z" fill="#263238"/>
<path d="M148.998 21.2283C148.997 21.1206 148.98 21.0137 148.948 20.9108C148.88 20.611 148.786 20.3174 148.668 20.0331C148.23 18.948 147.558 17.9726 146.701 17.1758C145.393 15.9293 143.697 15.169 141.896 15.0219C140.756 14.9354 139.61 15.0824 138.529 15.4538C137.448 15.8252 136.454 16.4133 135.608 17.182L135.888 17.1446C133.766 16.0233 131.312 15.7008 128.972 16.2358C127.21 16.6529 125.599 17.5541 124.322 18.8378C123.157 20.0083 122.301 21.4502 121.832 23.0335L122.025 22.8717C120.175 23.1308 118.421 23.8547 116.927 24.9757C115.768 25.8361 114.782 26.9068 114.02 28.1319C113.527 28.9223 113.146 29.777 112.887 30.6717C112.787 30.9852 112.722 31.3088 112.694 31.6366C113.076 30.4587 113.601 29.3319 114.256 28.2812C115.029 27.1136 116.01 26.0985 117.151 25.287C118.606 24.2343 120.3 23.5604 122.081 23.3261H122.231L122.274 23.1829C122.738 21.6823 123.563 20.3185 124.677 19.2113C125.885 17.9864 127.412 17.1238 129.084 16.7213C131.306 16.2127 133.636 16.5106 135.658 17.5617L135.814 17.6426L135.938 17.5244C136.734 16.7944 137.669 16.2324 138.688 15.8719C139.706 15.5115 140.786 15.36 141.864 15.4265C143.584 15.5443 145.214 16.2346 146.496 17.3874C147.346 18.1394 148.034 19.0564 148.519 20.0829C148.855 20.8174 148.961 21.2407 148.998 21.2283Z" fill="#263238"/>
<path d="M187.164 67.9846C187.164 67.9846 186.492 66.7894 181.306 67.468C176.121 68.1465 155.578 82.3707 155.578 82.3707C155.578 82.3707 159.313 97.0681 148.015 99.8694C139.785 101.911 135.421 99.6141 135.421 99.6141C135.421 99.6141 121.645 116.745 120.519 123.73C120.519 123.73 186.909 170.181 176.133 165.133L187.164 165.257V67.9846Z" fill="#ACCFFF"/>
<path d="M121.596 120.586C121.415 121.078 118.844 124.141 121.39 137.786C123.706 150.18 133.84 162.686 133.84 162.686L154.047 144.503L121.596 120.586Z" fill="#ACCFFF"/>
<path d="M132.135 130.304C132.227 130.416 132.332 130.518 132.446 130.609L133.373 131.418C134.195 132.109 135.39 133.099 136.891 134.294C139.885 136.684 144.068 139.928 148.718 143.463C153.368 146.999 157.62 150.168 160.701 152.471L164.362 155.148L165.37 155.864C165.481 155.955 165.602 156.032 165.731 156.094C165.632 155.991 165.524 155.897 165.408 155.814L164.436 155.048L160.838 152.291L148.917 143.233C144.261 139.697 140.059 136.485 137.034 134.138L133.454 131.343L132.489 130.584C132.38 130.48 132.261 130.386 132.135 130.304Z" fill="#263238"/>
<path d="M165.731 12.9302H312.773V217.305H165.731V12.9302Z" fill="white"/>
<path d="M165.731 12.9302H312.773V86.9025H165.731V12.9302Z" fill="#ACCFFF"/>
<path d="M191.192 105.017C191.192 105.104 211.411 105.179 236.336 105.179C261.261 105.179 281.492 105.104 281.492 105.017C281.492 104.93 261.28 104.855 236.336 104.855C211.392 104.855 191.192 104.924 191.192 105.017Z" fill="#263238"/>
<path d="M191.192 124.937C191.192 125.025 211.411 125.099 236.336 125.099C261.261 125.099 281.492 125.025 281.492 124.937C281.492 124.85 261.28 124.776 236.336 124.776C211.392 124.776 191.192 124.85 191.192 124.937Z" fill="#263238"/>
<path d="M191.192 144.864C191.192 144.951 211.411 145.026 236.336 145.026C261.261 145.026 281.492 144.951 281.492 144.864C281.492 144.777 261.28 144.702 236.336 144.702C211.392 144.702 191.192 144.771 191.192 144.864Z" fill="#263238"/>
<path d="M191.565 167.828H279.892C288.577 167.828 295.617 174.868 295.617 183.553V185.202C295.617 193.887 288.577 200.927 279.892 200.927H191.565C182.881 200.927 175.841 193.887 175.841 185.202V183.553C175.841 174.868 182.881 167.828 191.565 167.828Z" fill="#ACCFFF"/>
<path d="M290.674 108.379C290.904 108.38 291.126 108.296 291.297 108.142L293.787 105.932C293.88 105.852 293.957 105.754 294.012 105.644C294.067 105.534 294.099 105.414 294.107 105.291C294.115 105.168 294.099 105.045 294.059 104.928C294.019 104.812 293.956 104.705 293.874 104.613C293.709 104.438 293.484 104.333 293.245 104.319C293.005 104.305 292.769 104.384 292.586 104.538L290.762 106.144L286.983 101.973C286.814 101.805 286.587 101.707 286.348 101.701C286.11 101.694 285.877 101.779 285.7 101.939C285.522 102.098 285.412 102.32 285.392 102.558C285.373 102.796 285.445 103.032 285.595 103.218L289.996 108.074C290.082 108.169 290.186 108.245 290.303 108.297C290.42 108.35 290.546 108.378 290.674 108.379Z" fill="#ACCFFF"/>
<path d="M290.674 128.299C290.903 128.303 291.125 128.221 291.297 128.069L293.787 125.853C293.879 125.771 293.954 125.672 294.007 125.561C294.061 125.451 294.092 125.33 294.1 125.208C294.107 125.085 294.09 124.962 294.05 124.845C294.009 124.729 293.946 124.622 293.865 124.53C293.783 124.438 293.684 124.363 293.573 124.309C293.462 124.256 293.342 124.224 293.219 124.217C292.971 124.203 292.728 124.287 292.542 124.452L290.718 126.058L286.939 121.881C286.77 121.713 286.543 121.615 286.304 121.608C286.066 121.602 285.834 121.687 285.656 121.847C285.478 122.006 285.368 122.228 285.349 122.466C285.329 122.704 285.402 122.94 285.551 123.126L289.952 127.982C290.042 128.085 290.153 128.167 290.278 128.222C290.402 128.277 290.538 128.303 290.674 128.299Z" fill="#ACCFFF"/>
<path d="M290.674 148.226C290.904 148.227 291.126 148.143 291.297 147.989L293.787 145.779C293.879 145.697 293.954 145.598 294.007 145.488C294.061 145.377 294.092 145.257 294.1 145.134C294.107 145.011 294.09 144.888 294.05 144.772C294.009 144.655 293.946 144.548 293.865 144.456C293.783 144.364 293.684 144.289 293.573 144.236C293.462 144.182 293.342 144.151 293.219 144.143C292.971 144.129 292.728 144.213 292.542 144.378L290.718 145.978L286.939 141.808C286.77 141.639 286.543 141.541 286.304 141.535C286.066 141.528 285.834 141.614 285.656 141.773C285.478 141.932 285.368 142.154 285.349 142.392C285.329 142.63 285.402 142.866 285.551 143.053L289.952 147.908C290.042 148.011 290.153 148.093 290.278 148.147C290.403 148.202 290.538 148.229 290.674 148.226Z" fill="#ACCFFF"/>
<path d="M229.351 35.1472L226.855 40.202L221.277 41.0112L225.311 44.9455L224.359 50.4982L229.351 47.8775L234.338 50.4982L233.385 44.9455L237.419 41.0112L231.841 40.202L229.351 35.1472Z" fill="white"/>
<path d="M239.044 35.1472L235.744 41.8267L228.374 42.8974L233.709 48.0953L232.451 55.4347L239.044 51.9673L245.63 55.4347L244.372 48.0953L249.707 42.8974L242.337 41.8267L239.044 35.1472Z" fill="white"/>
<path d="M231.648 56.5369L239.05 52.6524L246.445 56.5369L245.032 48.3074L251.015 42.4745L242.748 41.273L239.05 33.803L235.359 41.273L227.092 42.4745L233.074 48.3011L231.648 56.5369ZM248.388 43.3149L243.706 47.8841L244.814 54.3332L239.019 51.2829L233.23 54.3332L234.356 47.8903L229.675 43.3211L236.149 42.3811L239.05 36.5109L241.951 42.3749L248.388 43.3149Z" fill="#ACCFFF"/>
<path d="M165.731 217.311C165.731 216.004 165.794 133.765 165.881 12.9304L165.731 13.0798H312.755L312.593 12.918C312.593 89.3927 312.593 160.147 312.624 217.299L312.755 217.168L165.713 217.299L312.755 217.43H312.885V217.299C312.885 160.147 312.885 89.3927 312.917 12.918V12.7561H312.736H165.713H165.594V12.8993C165.675 133.796 165.731 216.004 165.731 217.311Z" fill="#263238"/>
<path d="M237.687 135.881C237.687 135.881 239.866 132.607 235.502 132.426C231.138 132.246 209.687 135.881 202.416 139.517L196.054 143.513L202.945 157.146H218.781C220.599 157.146 225.685 154.034 220.96 151.88C220.96 151.88 225.685 148.605 221.321 145.879C221.321 145.879 224.776 143.333 221.141 139.878L237.687 135.881Z" fill="#FFBF9D"/>
<path d="M201.139 140.867L165.034 159.779L151.488 146.819L135.347 161.36C135.347 161.36 151.345 180.148 160.614 181.785C169.883 183.422 205.982 154.394 205.982 154.394L201.139 140.867Z" fill="#FFBF9D"/>
<path d="M163.26 82.7505L163.596 82.9435C164.121 83.2127 164.68 83.4076 165.258 83.5224C165.533 83.553 165.806 83.6029 166.074 83.6718C166.233 83.7583 166.385 83.8582 166.528 83.9706C167.518 84.5496 168.775 84.5931 169.883 84.7363C171.128 84.867 172.467 85.06 173.438 85.8631C174.409 86.6661 174.845 88.2659 173.992 89.1935C174.393 89.2001 174.779 89.3531 175.076 89.6235C175.372 89.894 175.56 90.2634 175.604 90.6626C175.633 91.0641 175.559 91.4663 175.389 91.8313C175.219 92.1962 174.959 92.5117 174.633 92.748C173.973 93.2158 173.199 93.4955 172.392 93.5572C172.857 93.6354 173.274 93.8915 173.554 94.2714C173.834 94.6513 173.955 95.1251 173.892 95.5928C173.808 96.0582 173.607 96.4945 173.307 96.8604C173.008 97.2264 172.62 97.51 172.18 97.6844C171.299 98.0275 170.354 98.172 169.41 98.1077C168.194 98.064 166.976 98.089 165.762 98.1824C165.762 98.1824 165.762 99.3839 165.762 99.9254C165.762 100.66 165.762 100.087 165.762 100.087C165.106 100.471 164.397 100.758 163.658 100.94C162.021 101.475 160.963 101.911 159.488 102.291C158.386 102.577 157.303 102.714 156.711 101.973C155.286 100.193 159.033 97.616 159.033 97.616C157.931 96.9935 158.23 93.4638 159.867 92.9845C159.058 92.5861 158.548 92.6297 158.068 91.8578C157.821 91.4789 157.666 91.0471 157.616 90.5972C157.566 90.1473 157.623 89.692 157.782 89.2682C157.958 88.8515 158.266 88.5041 158.658 88.2792C159.051 88.0543 159.506 87.9643 159.954 88.0231C159.425 87.5672 159.046 86.9616 158.867 86.2861C158.688 85.6105 158.718 84.8966 158.952 84.2383C159.26 83.452 159.848 82.807 160.602 82.4268C160.976 82.2378 161.381 82.1176 161.797 82.072C161.954 82.044 162.114 82.044 162.27 82.072C162.34 82.0936 162.405 82.1273 162.463 82.1716C162.737 82.3148 162.974 82.5575 163.26 82.7505Z" fill="#FFBF9D"/>
<path d="M161.511 78.6917C161.522 78.3013 161.618 77.918 161.791 77.5678C161.964 77.2176 162.21 76.9088 162.513 76.6623C163.272 76.1456 164.642 76.2079 165.544 76.4071C165.601 77.5027 165.544 78.0567 165.619 79.1523C165.619 79.3827 165.551 79.5632 165.657 79.7748C165.937 80.3164 167.126 80.3974 167.673 80.6775C168.126 80.9524 168.456 81.3899 168.596 81.9004C168.736 82.4108 168.675 82.9555 168.427 83.4227C168.153 83.8769 167.755 84.2432 167.279 84.4781C166.804 84.7131 166.271 84.807 165.744 84.7487C164.683 84.614 163.71 84.0879 163.017 83.2733C162.465 82.6541 162.046 81.9277 161.787 81.1394C161.527 80.3512 161.433 79.5179 161.511 78.6917Z" fill="#FFBF9D"/>
<path d="M159.65 87.9608C159.65 88.048 162.843 88.3966 166.802 88.7327C170.761 89.0689 173.98 89.2743 173.986 89.1809C173.992 89.0875 170.792 88.7452 166.833 88.409C162.874 88.0729 159.656 87.8674 159.65 87.9608Z" fill="#FF9A6C"/>
<path d="M159.649 92.9595C160.258 93.1458 160.883 93.2709 161.517 93.333C163.04 93.5597 164.573 93.7093 166.111 93.7812C167.916 93.8746 169.547 93.8559 170.73 93.7812C171.37 93.7844 172.008 93.7218 172.635 93.5944C172 93.5315 171.361 93.517 170.724 93.5509C169.547 93.5509 167.922 93.5509 166.13 93.4388C164.337 93.3268 162.718 93.2085 161.548 93.0902C160.919 93.0025 160.284 92.9588 159.649 92.9595Z" fill="#FF9A6C"/>
<path d="M159.649 97.8464C160.159 97.9908 160.683 98.0744 161.212 98.0954C162.183 98.195 163.528 98.2697 165.015 98.2884C166.503 98.3071 167.848 98.2884 168.819 98.2884C169.348 98.3128 169.877 98.2836 170.4 98.2012C169.882 98.0982 169.354 98.0502 168.825 98.058C167.848 98.0145 166.503 97.9958 165.022 97.9709C163.54 97.946 162.196 97.9149 161.224 97.8713C160.701 97.8191 160.174 97.8107 159.649 97.8464Z" fill="#FF9A6C"/>
<path d="M161.803 80.2979C161.682 80.711 161.718 81.1543 161.903 81.5429C162.279 82.4801 162.988 83.2451 163.895 83.6905C164.372 83.9456 164.872 84.154 165.389 84.313C165.808 84.4615 166.242 84.5638 166.684 84.618C166.997 84.6534 167.313 84.5809 167.58 84.4126C167.761 84.2881 167.81 84.1698 167.798 84.1574C167.476 84.3675 167.088 84.4517 166.709 84.3939C166.284 84.3063 165.868 84.1835 165.464 84.0267C164.969 83.8572 164.488 83.6491 164.026 83.4042C163.18 82.9879 162.498 82.2995 162.09 81.4495C161.961 81.0745 161.866 80.6892 161.803 80.2979Z" fill="#FF9A6C"/>
<path d="M330.801 50.6853H437.642V199.19H330.801V50.6853Z" fill="white"/>
<path d="M330.801 50.6853H437.642V104.439H330.801V50.6853Z" fill="#455A64"/>
<path d="M349.296 117.611C349.296 117.704 363.987 117.779 382.102 117.779C400.217 117.779 414.908 117.704 414.908 117.611C414.908 117.517 400.223 117.449 382.102 117.449C363.981 117.449 349.296 117.505 349.296 117.611Z" fill="#263238"/>
<path d="M349.296 132.072C349.296 132.159 363.987 132.233 382.102 132.233C400.217 132.233 414.908 132.159 414.908 132.072C414.908 131.984 400.223 131.91 382.102 131.91C363.981 131.91 349.296 131.984 349.296 132.072Z" fill="#263238"/>
<path d="M349.296 146.551C349.296 146.638 363.987 146.713 382.102 146.713C400.217 146.713 414.908 146.638 414.908 146.551C414.908 146.464 400.223 146.383 382.102 146.383C363.981 146.383 349.296 146.458 349.296 146.551Z" fill="#263238"/>
<path d="M349.57 163.24H413.744C420.056 163.24 425.173 168.358 425.173 174.67V175.859C425.173 182.171 420.056 187.288 413.744 187.288H349.57C343.257 187.288 338.14 182.171 338.14 175.859V174.67C338.14 168.358 343.257 163.24 349.57 163.24Z" fill="#455A64"/>
<path d="M421.587 120.294C421.816 120.295 422.037 120.213 422.21 120.064L424.034 118.451C424.219 118.286 424.332 118.054 424.347 117.806C424.361 117.558 424.277 117.314 424.111 117.128C423.946 116.943 423.714 116.83 423.466 116.816C423.218 116.801 422.974 116.886 422.789 117.051L421.649 118.053L419.072 115.202C418.901 115.043 418.677 114.954 418.444 114.952C418.211 114.951 417.985 115.036 417.812 115.192C417.639 115.349 417.53 115.564 417.508 115.796C417.485 116.028 417.55 116.26 417.69 116.447L420.884 119.976C420.973 120.075 421.081 120.154 421.202 120.209C421.323 120.264 421.454 120.293 421.587 120.294Z" fill="#455A64"/>
<path d="M421.587 134.767C421.816 134.769 422.037 134.687 422.21 134.537L424.034 132.931C424.126 132.849 424.202 132.75 424.256 132.639C424.31 132.528 424.341 132.408 424.349 132.285C424.364 132.036 424.28 131.791 424.115 131.605C423.95 131.418 423.717 131.305 423.468 131.29C423.22 131.275 422.975 131.359 422.789 131.524L421.656 132.551L419.079 129.706C419.001 129.602 418.902 129.516 418.789 129.453C418.676 129.389 418.551 129.35 418.422 129.337C418.293 129.325 418.163 129.339 418.04 129.38C417.917 129.42 417.803 129.486 417.707 129.573C417.611 129.66 417.533 129.766 417.48 129.884C417.427 130.002 417.399 130.13 417.398 130.26C417.397 130.389 417.423 130.518 417.475 130.637C417.526 130.756 417.602 130.863 417.697 130.951L420.89 134.481C420.98 134.574 421.088 134.648 421.209 134.697C421.329 134.747 421.458 134.77 421.587 134.767Z" fill="#455A64"/>
<path d="M421.587 149.246C421.816 149.248 422.037 149.166 422.21 149.016L424.034 147.404C424.126 147.322 424.201 147.223 424.254 147.112C424.308 147.002 424.339 146.881 424.347 146.759C424.354 146.636 424.337 146.513 424.296 146.396C424.256 146.28 424.193 146.173 424.111 146.081C424.03 145.989 423.931 145.914 423.82 145.86C423.709 145.807 423.589 145.775 423.466 145.768C423.343 145.761 423.22 145.778 423.104 145.818C422.988 145.859 422.881 145.921 422.789 146.003L421.649 147.005L419.072 144.154C418.994 144.051 418.896 143.964 418.783 143.901C418.67 143.837 418.545 143.798 418.416 143.786C418.287 143.773 418.156 143.788 418.033 143.828C417.91 143.869 417.797 143.934 417.701 144.021C417.604 144.108 417.527 144.214 417.474 144.332C417.421 144.45 417.393 144.578 417.392 144.708C417.391 144.838 417.417 144.966 417.468 145.085C417.52 145.204 417.595 145.311 417.69 145.399L420.884 148.929C420.973 149.028 421.081 149.107 421.202 149.162C421.323 149.216 421.454 149.245 421.587 149.246Z" fill="#455A64"/>
<path d="M380.172 77.9074L384.218 75.7224L388.314 77.814L387.486 73.2946L390.742 70.0451L386.185 69.4351L384.1 65.3328L382.108 69.4786L377.564 70.1945L380.894 73.3693L380.172 77.9074Z" fill="white"/>
<path d="M330.801 199.19C330.801 197.883 330.857 138.465 330.944 50.6851L330.801 50.8344L437.629 50.8469L437.467 50.6851C437.467 106.25 437.467 157.663 437.498 199.19L437.629 199.059L330.789 199.19L437.629 199.321H437.76V199.19C437.76 157.663 437.76 106.25 437.791 50.6851V50.5232H437.629H330.801H330.652V50.6664C330.739 138.465 330.795 197.914 330.801 199.19Z" fill="#263238"/>
</g>
</g>
</svg>
