<svg width="448" height="232" viewBox="0 0 448 232" fill="none" xmlns="http://www.w3.org/2000/svg">
<g opacity="0.3">
<mask id="mask0_819_1490" style="mask-type:alpha" maskUnits="userSpaceOnUse" x="0" y="0" width="448" height="232">
<rect width="448" height="232" fill="#3A86FF"/>
</mask>
<g mask="url(#mask0_819_1490)">
<path d="M437.422 50.6853H330.581V199.19H437.422V50.6853Z" fill="white"/>
<path d="M437.422 50.6853H330.581V104.439H437.422V50.6853Z" fill="#455A64"/>
<path d="M418.921 117.611C418.921 117.704 404.23 117.779 386.115 117.779C368 117.779 353.309 117.704 353.309 117.611C353.309 117.517 367.994 117.449 386.115 117.449C404.236 117.449 418.921 117.505 418.921 117.611Z" fill="#263238"/>
<path d="M418.921 132.072C418.921 132.159 404.23 132.233 386.115 132.233C368 132.233 353.309 132.159 353.309 132.072C353.309 131.984 367.994 131.91 386.115 131.91C404.236 131.91 418.921 131.984 418.921 132.072Z" fill="#263238"/>
<path d="M418.921 146.551C418.921 146.638 404.23 146.713 386.115 146.713C368 146.713 353.309 146.638 353.309 146.551C353.309 146.464 367.994 146.383 386.115 146.383C404.236 146.383 418.921 146.458 418.921 146.551Z" fill="#263238"/>
<path d="M418.647 163.24H354.473C348.161 163.24 343.044 168.358 343.044 174.67V175.859C343.044 182.171 348.161 187.288 354.473 187.288H418.647C424.959 187.288 430.076 182.171 430.076 175.859V174.67C430.076 168.358 424.959 163.24 418.647 163.24Z" fill="#455A64"/>
<path d="M346.636 120.294C346.407 120.296 346.185 120.214 346.013 120.063L344.183 118.451C343.997 118.286 343.885 118.054 343.87 117.806C343.856 117.558 343.94 117.314 344.105 117.128C344.27 116.942 344.503 116.83 344.751 116.815C344.999 116.801 345.242 116.885 345.428 117.05L346.567 118.053L349.145 115.202C349.313 115.033 349.541 114.935 349.779 114.929C350.018 114.922 350.25 115.008 350.428 115.167C350.606 115.327 350.716 115.548 350.735 115.786C350.755 116.024 350.682 116.26 350.533 116.447L347.333 119.976C347.246 120.075 347.139 120.155 347.018 120.21C346.898 120.264 346.768 120.293 346.636 120.294Z" fill="#455A64"/>
<path d="M346.636 134.767C346.407 134.769 346.185 134.687 346.013 134.536L344.183 132.93C344.091 132.849 344.015 132.75 343.961 132.639C343.907 132.528 343.876 132.407 343.868 132.284C343.853 132.036 343.937 131.791 344.102 131.604C344.267 131.418 344.5 131.305 344.748 131.289C344.997 131.274 345.242 131.358 345.428 131.524L346.567 132.526L349.145 129.681C349.224 129.582 349.323 129.5 349.435 129.441C349.547 129.381 349.67 129.345 349.797 129.335C349.923 129.324 350.05 129.34 350.171 129.38C350.291 129.421 350.402 129.485 350.496 129.57C350.591 129.655 350.667 129.758 350.72 129.873C350.774 129.988 350.803 130.113 350.806 130.24C350.81 130.367 350.787 130.493 350.74 130.611C350.693 130.729 350.623 130.836 350.533 130.926L347.333 134.456C347.246 134.555 347.139 134.634 347.018 134.687C346.898 134.741 346.768 134.768 346.636 134.767Z" fill="#455A64"/>
<path d="M346.636 149.246C346.407 149.249 346.185 149.167 346.013 149.016L344.183 147.404C343.997 147.239 343.885 147.006 343.87 146.758C343.856 146.51 343.94 146.267 344.105 146.081C344.27 145.895 344.503 145.783 344.751 145.768C344.999 145.753 345.242 145.838 345.428 146.003L346.567 147.005L349.145 144.154C349.313 143.985 349.541 143.888 349.779 143.881C350.018 143.875 350.25 143.96 350.428 144.12C350.606 144.279 350.716 144.501 350.735 144.739C350.755 144.977 350.682 145.213 350.533 145.399L347.333 148.929C347.246 149.028 347.139 149.108 347.018 149.162C346.898 149.217 346.768 149.246 346.636 149.246Z" fill="#455A64"/>
<path d="M390.367 65.0464L391.904 68.1651L395.353 68.6694L392.857 71.0971L393.448 74.5271L390.367 72.9086L387.285 74.5271L387.871 71.0971L385.381 68.6694L388.823 68.1651L390.367 65.0464Z" fill="white"/>
<path d="M378.259 65.0464L379.803 68.1651L383.245 68.6694L380.755 71.0971L381.341 74.5271L378.259 72.9086L375.178 74.5271L375.769 71.0971L373.273 68.6694L376.722 68.1651L378.259 65.0464Z" fill="white"/>
<path d="M388.051 77.9074L383.999 75.7224L379.909 77.814L380.737 73.2946L377.481 70.0451L382.038 69.4351L384.117 65.3328L386.109 69.4786L390.653 70.1945L387.323 73.3693L388.051 77.9074Z" fill="white"/>
<path d="M376.678 69.771L381.795 69.0925L384.129 64.4922L386.358 69.1423L391.456 69.9453L387.721 73.4998L388.537 78.5982L383.999 76.1455L379.405 78.4923L380.332 73.4189L376.678 69.771ZM389.85 70.4433L385.86 69.8208L384.111 66.173L382.281 69.7773L378.272 70.3002L381.129 73.1512L380.407 77.1477L384.005 75.2802L387.559 77.2037L386.937 73.2135L389.85 70.4433Z" fill="#455A64"/>
<path d="M437.41 199.19C437.41 197.883 437.347 138.465 437.26 50.685L437.41 50.8344H330.581L330.743 50.6726C330.743 106.237 330.743 157.65 330.743 199.177L330.613 199.047L437.453 199.177L330.613 199.308H330.476V199.177C330.476 157.65 330.476 106.237 330.476 50.6726V50.5107H330.65H437.478H437.621V50.6539C437.478 138.465 437.41 197.914 437.41 199.19Z" fill="#263238"/>
<path d="M351.074 31.7921C351.401 31.1888 351.605 30.5263 351.673 29.8433C351.74 29.1604 351.671 28.4708 351.469 27.815C351.266 27.1592 350.935 26.5504 350.494 26.0244C350.053 25.4983 349.512 25.0656 348.902 24.7516C349.097 23.0655 348.635 21.3689 347.613 20.0139C346.591 18.659 345.086 17.7496 343.411 17.4745C341.805 17.2815 340.18 17.7048 338.568 17.5803C336.956 17.4558 335.561 16.8333 334.03 16.5532C332.499 16.2731 330.737 16.4349 329.672 17.5803C328.508 18.8253 328.683 20.9356 329.61 22.3985C330.538 23.8614 332.032 24.8325 333.482 25.7663C333.047 25.7655 332.627 25.9229 332.299 26.2093C331.972 26.4956 331.759 26.8913 331.702 27.3225C331.611 28.207 331.851 29.0939 332.374 29.8125C333.165 31.0248 334.275 31.9952 335.582 32.6169C336.889 33.2386 338.343 33.4874 339.782 33.3359L343.847 33.2176C344.413 33.6058 345.05 33.8771 345.722 34.0156C346.394 34.1541 347.087 34.1571 347.76 34.0243C348.433 33.8915 349.073 33.6257 349.642 33.2424C350.211 32.8591 350.698 32.366 351.074 31.7921Z" fill="#263238"/>
<path d="M338.232 35.8072C337.814 35.8444 337.397 35.7257 337.062 35.474C336.726 35.2224 336.496 34.8555 336.414 34.444C336.35 34.0281 336.402 33.6026 336.563 33.214C336.725 32.8254 336.99 32.4886 337.329 32.2403C338.024 31.7639 338.862 31.5438 339.701 31.6178C340.537 31.6886 341.359 31.8794 342.141 32.1843C343.371 32.5889 344.548 33.1407 345.646 33.8277C346.042 34.0596 346.382 34.3763 346.642 34.7552C346.771 34.9463 346.846 35.1686 346.859 35.3986C346.872 35.6286 346.823 35.858 346.717 36.0625C346.381 36.6103 345.627 36.685 344.986 36.685C342.58 36.696 340.177 36.4876 337.809 36.0625" fill="#ACCFFF"/>
<path d="M336.894 34.4379C336.414 29.8811 329.984 25.7913 327.207 26.5196C326.501 25.205 325.315 24.213 323.896 23.7494C322.477 23.2857 320.935 23.3861 319.588 24.0296L312.018 20.6743C310.723 20.1016 309.366 19.5102 307.959 19.6347C306.553 19.7592 305.121 20.8797 305.171 22.2803C302.438 21.1909 299.02 23.9486 299.518 26.8557C299.111 26.9485 298.727 27.1237 298.389 27.3705C298.052 27.6173 297.769 27.9305 297.557 28.2909C297.345 28.6513 297.21 29.0512 297.158 29.466C297.107 29.8808 297.141 30.3017 297.259 30.7028C293.864 31.5432 290.639 32.958 287.722 34.8861C286.477 35.6891 285.275 36.6789 284.877 38.0795C284.479 39.4801 285.369 41.3103 286.825 41.3228C286.173 41.5404 285.597 41.9415 285.166 42.4781C284.736 43.0146 284.469 43.6639 284.398 44.3481C283.271 43.5638 281.69 45.0267 281.864 46.39C282.038 47.7532 283.202 48.7368 284.323 49.5025C285.443 50.2682 286.682 51.1023 287.13 52.3971C287.022 52.5265 286.888 52.6324 286.737 52.7084C286.586 52.7844 286.421 52.8289 286.253 52.8391C283.227 52.9885 280.744 55.2482 280.706 58.2736C280.706 58.5537 280.706 58.8152 280.706 59.0455C280.706 60.4275 281.652 62.4195 282.262 63.652C283.8 66.7646 285.468 67.6298 287.958 70.0763C285.879 71.3213 287.485 78.6171 295.534 78.505C303.826 88.8635 310.506 95.3874 321.181 103.262C322.707 104.389 324.692 105.528 326.373 104.656C327.369 105.901 329.125 106.3 330.7 106.076C332.258 105.755 333.75 105.172 335.113 104.351C336.713 104.935 338.455 105.009 340.099 104.564C341.743 104.118 343.209 103.174 344.295 101.861C345.708 101.812 347.095 101.47 348.368 100.856C349.641 100.242 350.773 99.3694 351.69 98.2945C354.834 99.3963 358.694 97.0993 359.229 93.8124C360.992 90.2494 362.153 86.419 362.665 82.4766C364.695 83.3792 367.085 81.5055 367.571 79.3329C368.056 77.1604 367.234 74.9754 366.425 72.8776C367.483 74.1848 369.83 73.3756 370.484 71.8318C371.138 70.2879 370.621 68.5076 369.967 66.9575C369.017 64.6847 367.794 62.5358 366.326 60.5582C367.39 57.8005 366.369 53.0134 364.962 50.4113C359.285 39.9097 353.95 34.3943 336.906 34.3818" fill="#263238"/>
<path d="M318.548 42.2316C319.128 41.3004 320.038 40.6222 321.097 40.3326C322.155 40.0429 323.283 40.1631 324.257 40.6691L346.897 48.5127C353.546 51.9365 352.655 62.3012 348.952 68.8001C344.837 76.0212 339.533 84.674 335.319 89.3055C326.84 98.643 316.718 93.7003 316.718 93.7003L311.738 101.208L305.98 109.991C303.353 107.551 287.429 90.4198 287.429 90.4198L318.548 42.2316Z" fill="#FFBF9D"/>
<path d="M328.154 77.0732C328.197 76.986 329.193 77.4155 330.762 78.1812C331.154 78.3866 331.546 78.5423 331.77 78.3306C332.05 77.9727 332.215 77.5388 332.243 77.0856C332.48 75.9734 332.729 74.8052 332.99 73.5809C334.092 68.6009 335.144 64.6355 335.343 64.6791C335.543 64.7226 334.814 68.7876 333.713 73.749C333.432 74.994 333.165 76.1269 332.903 77.2412C332.844 77.8346 332.578 78.3881 332.15 78.8037C332.012 78.8975 331.855 78.9586 331.69 78.9823C331.525 79.0061 331.356 78.9918 331.198 78.9407C330.959 78.8635 330.731 78.7569 330.519 78.6232C329.013 77.7704 328.104 77.1479 328.154 77.0732Z" fill="#263238"/>
<path d="M316.718 93.6941C316.718 93.6941 310.705 90.5815 306.503 81.8665C306.503 81.8665 303.098 90.7123 314.334 97.2859L316.718 93.6941Z" fill="#FF9A6C"/>
<path d="M333.451 57.2901C333.053 57.5889 331.739 56.4621 329.921 55.5595C328.104 54.6569 326.442 54.2211 326.448 53.7293C326.448 53.4928 326.933 53.2811 327.73 53.2625C328.767 53.2814 329.786 53.5356 330.71 54.0057C331.634 54.4759 332.439 55.1498 333.065 55.9766C333.488 56.6364 333.6 57.1469 333.451 57.2901Z" fill="#263238"/>
<path d="M346.953 66.7272C346.486 66.8891 345.708 65.8993 344.538 65.1025C343.368 64.3057 342.203 63.8575 342.191 63.3906C342.191 63.1603 342.571 62.9362 343.218 62.9175C344.053 62.9216 344.865 63.1873 345.54 63.6769C346.232 64.1483 346.76 64.8225 347.053 65.6067C347.252 66.2168 347.146 66.6401 346.953 66.7272Z" fill="#263238"/>
<path d="M349.985 76.9111C351.096 75.2832 351.612 73.3224 351.448 71.3584C351.311 70.3001 350.906 69.2792 350.881 68.2085C350.825 65.899 352.475 63.9443 353.303 61.7905C353.824 60.3906 354.004 58.8867 353.827 57.4035C353.651 55.9203 353.123 54.5006 352.288 53.2621C350.881 51.2203 348.671 49.7637 347.582 47.5413C346.773 45.8979 346.642 43.9681 345.714 42.3807C343.953 39.2682 339.931 38.4216 336.377 38.1104C334.46 39.7289 334.509 42.3372 334.509 44.8459C334.525 46.1 334.811 47.3361 335.348 48.4695C335.886 49.6029 336.661 50.6071 337.622 51.4133C339.128 52.6583 341.22 53.617 341.519 55.5405C341.83 57.5636 339.875 59.3191 339.851 61.3609C339.819 64.2867 343.467 65.7994 344.65 68.4762C345.559 70.5367 344.862 72.9084 344.463 75.1307C344.065 77.3531 344.202 80.0734 346.094 81.306C347.554 79.994 348.86 78.5195 349.985 76.9111Z" fill="#263238"/>
<path d="M337.74 44.541C333.173 41.1391 327.989 38.6551 322.476 37.2266C320.839 36.8033 319.065 36.4796 317.496 37.1208C316.121 37.681 315.125 38.8887 314.266 40.1088C311.589 43.9123 309.771 49.6331 308.663 54.165L311.34 60.39C315.591 62.1517 318.449 54.6816 320.547 51.4135C322.226 51.7482 323.966 51.6048 325.569 50.9996C327.171 50.3943 328.571 49.3515 329.61 47.9897C331.138 48.0656 332.663 47.7947 334.071 47.1975C335.479 46.6002 336.733 45.6921 337.74 44.541Z" fill="#263238"/>
<path d="M312.286 58.9893C313.705 56.7234 311.352 54.389 308.694 54.1649C307.237 54.0404 305.581 54.694 304.069 57.0844C300.01 63.4464 307.237 66.2166 307.368 66.036C307.499 65.8555 310.624 61.6349 312.286 58.9893Z" fill="#FFBF9D"/>
<path d="M306.957 62.3884C306.957 62.3448 306.795 62.3884 306.553 62.3884C306.217 62.3341 305.915 62.151 305.712 61.8779C305.196 61.1994 305.314 59.7739 306.011 58.6036C306.344 58.048 306.797 57.5738 307.337 57.2154C307.524 57.055 307.746 56.9424 307.986 56.8871C308.225 56.8318 308.475 56.8355 308.713 56.8979C308.862 56.9449 308.99 57.043 309.075 57.1751C309.159 57.3072 309.194 57.4647 309.173 57.62C309.173 57.8503 309.024 57.9499 309.055 57.9873C309.086 58.0246 309.254 57.9873 309.373 57.6698C309.436 57.4884 309.436 57.291 309.373 57.1095C309.281 56.8655 309.098 56.6668 308.862 56.5555C308.568 56.4428 308.249 56.4065 307.937 56.45C307.624 56.4935 307.328 56.6155 307.076 56.8045C306.45 57.1815 305.929 57.7077 305.557 58.3359C304.779 59.6431 304.666 61.2617 305.42 62.1145C305.559 62.2729 305.732 62.3982 305.926 62.4812C306.12 62.5641 306.33 62.6026 306.54 62.5938C306.845 62.5316 306.97 62.4133 306.957 62.3884Z" fill="#FF9A6C"/>
<path d="M304.417 64.4675C304.417 64.4675 304.417 64.4675 304.343 64.536C304.268 64.6036 304.184 64.6602 304.094 64.704C303.731 64.8831 303.316 64.9272 302.923 64.8285C302.297 64.6946 301.706 64.4317 301.187 64.0566C300.852 63.8269 300.539 63.5664 300.253 63.2785C299.916 62.9603 299.633 62.5904 299.412 62.1829H299.512C299.056 62.6415 298.488 62.9737 297.864 63.1468C297.241 63.32 296.583 63.3282 295.956 63.1707C295.328 63.0132 294.752 62.6953 294.284 62.2482C293.816 61.8012 293.473 61.2402 293.287 60.6204L293.405 60.6764C293.019 60.8179 292.592 60.8023 292.216 60.6328C291.837 60.4618 291.515 60.1852 291.289 59.836C291.045 59.4686 290.929 59.031 290.959 58.591C290.989 58.1472 291.133 57.7185 291.376 57.346C291.882 56.5903 292.638 56.037 293.511 55.7835C294.407 55.5385 295.328 55.4026 296.256 55.3789L296.169 55.5283C296.03 55.1851 295.965 54.8165 295.978 54.4465C295.991 54.0765 296.082 53.7134 296.244 53.3807C296.56 52.6879 297.073 52.1034 297.719 51.6999C298.388 51.3115 299.126 51.0558 299.892 50.9467C300.663 50.8363 301.441 50.776 302.22 50.7661L302.114 50.8969C302.065 50.5029 302.099 50.103 302.215 49.7232C302.331 49.3435 302.526 48.9925 302.786 48.6932C303.308 48.0633 304.006 47.6037 304.791 47.3735C306.297 46.9377 307.841 47.2054 309.273 47.442L309.148 47.5166C309.444 46.7604 309.921 46.088 310.536 45.5581C311.152 45.0282 311.887 44.6568 312.679 44.4764C313.471 44.2959 314.295 44.3118 315.079 44.5228C315.864 44.7337 316.584 45.1332 317.179 45.6865L317.011 45.7238C317.291 45.1266 317.704 44.6016 318.219 44.1893C318.733 43.777 319.336 43.4885 319.98 43.3459C320.574 43.1911 321.194 43.1667 321.797 43.2741C322.401 43.3816 322.975 43.6184 323.479 43.9684H323.348C323.738 43.4579 324.238 43.0425 324.812 42.7535C325.386 42.4645 326.017 42.3095 326.66 42.3001C327.221 42.2735 327.783 42.3607 328.31 42.5565C328.838 42.7522 329.32 43.0525 329.729 43.4392H329.61C330.046 42.9067 330.606 42.4897 331.241 42.2254C331.79 41.9779 332.378 41.8263 332.978 41.7771C333.937 41.6709 334.904 41.8901 335.723 42.3997L335.96 42.5491C336.035 42.6051 336.103 42.6673 336.165 42.7234C336.289 42.8251 336.407 42.9332 336.52 43.0471C336.69 43.2301 336.846 43.4257 336.987 43.6322C337.087 43.8003 337.161 43.931 337.223 44.0244L337.298 44.1613C337.263 44.1233 337.231 44.0815 337.205 44.0368L336.95 43.6571C336.806 43.4572 336.647 43.2679 336.476 43.0906C336.365 42.9793 336.247 42.8753 336.122 42.7794L335.916 42.6113L335.68 42.4681C334.869 41.9916 333.924 41.7948 332.99 41.9079C332.404 41.967 331.832 42.1227 331.297 42.3685C330.686 42.6232 330.148 43.0278 329.735 43.5451L329.679 43.6135L329.623 43.5513C329.228 43.1815 328.763 42.8959 328.254 42.7118C327.746 42.5278 327.205 42.4491 326.666 42.4806C326.044 42.4971 325.433 42.6568 324.883 42.9472C324.332 43.2376 323.856 43.6509 323.491 44.1551L323.435 44.2361L323.36 44.18C322.876 43.8519 322.327 43.6325 321.75 43.5369C321.173 43.4412 320.582 43.4716 320.017 43.626C319.404 43.7626 318.831 44.0379 318.341 44.4307C317.851 44.8235 317.458 45.3234 317.191 45.8919L317.129 46.0289L317.023 45.9293C316.452 45.4068 315.762 45.0307 315.014 44.8332C314.265 44.6357 313.48 44.6227 312.725 44.7953C311.971 44.9679 311.269 45.321 310.681 45.8242C310.093 46.3275 309.635 46.9659 309.348 47.6847V47.7719H309.254C307.823 47.5353 306.316 47.2801 304.897 47.6972C304.165 47.9184 303.515 48.3516 303.029 48.9422C302.788 49.2171 302.607 49.5401 302.5 49.89C302.393 50.2398 302.361 50.6085 302.407 50.9716V51.0961H302.276C300.732 51.1396 299.163 51.2206 297.887 51.9925C297.277 52.368 296.792 52.9161 296.493 53.5674C296.342 53.8724 296.257 54.2056 296.243 54.5455C296.229 54.8854 296.287 55.2244 296.412 55.5407L296.474 55.6839H296.319C295.408 55.7046 294.502 55.8362 293.623 56.0761C292.794 56.3099 292.075 56.8305 291.594 57.5452C291.357 57.8669 291.221 58.2516 291.204 58.6506C291.186 59.0496 291.287 59.4448 291.494 59.7862C291.676 60.1113 291.963 60.3651 292.308 60.5064C292.653 60.6477 293.035 60.6681 293.393 60.5644L293.48 60.5332L293.511 60.6266C293.716 61.2645 294.092 61.8341 294.598 62.2731C295.104 62.7122 295.72 63.004 296.381 63.1166C296.941 63.201 297.513 63.1556 298.052 62.984C298.592 62.8124 299.085 62.5192 299.493 62.1269L299.556 62.0646L299.593 62.1393C299.805 62.5368 300.075 62.8999 300.396 63.2162C300.676 63.5018 300.982 63.7603 301.311 63.9881C301.817 64.3626 302.393 64.6315 303.004 64.7787C303.385 64.8785 303.788 64.8478 304.15 64.6916C304.312 64.5546 304.411 64.455 304.417 64.4675Z" fill="#455A64"/>
<path d="M285.861 41.0986C285.852 40.9193 285.865 40.7396 285.898 40.5632C285.981 40.0498 286.168 39.5585 286.446 39.119C286.88 38.4087 287.536 37.8616 288.313 37.5627C288.836 37.3686 289.393 37.2855 289.949 37.3187C290.505 37.3519 291.049 37.5008 291.544 37.7557H291.444C291.992 36.5698 292.968 35.6355 294.177 35.1412C294.843 34.8549 295.563 34.7148 296.288 34.7303C297.046 34.8009 297.796 34.9426 298.529 35.1536C298.903 35.2428 299.289 35.2764 299.674 35.2532C300.063 35.2251 300.441 35.1056 300.776 34.9046C301.473 34.5187 302.058 33.89 302.855 33.504C303.691 33.126 304.622 33.0076 305.526 33.1641C306.431 33.3205 307.268 33.7447 307.928 34.3817H307.748C308.178 33.5625 308.79 32.8531 309.538 32.3085C310.286 31.7639 311.149 31.3986 312.061 31.2409C312.973 31.0833 313.909 31.1374 314.796 31.3992C315.683 31.661 316.499 32.1235 317.179 32.7508H317.005C317.509 31.8708 318.256 31.154 319.156 30.6854C320.056 30.2169 321.071 30.0163 322.081 30.1074C323.092 30.1984 324.055 30.5774 324.856 31.1993C325.658 31.8212 326.264 32.66 326.604 33.6161L326.498 33.5538C327.53 33.4098 328.581 33.4904 329.579 33.7904C330.473 34.0413 331.33 34.4053 332.131 34.8735C333.443 35.6139 334.611 36.5838 335.58 37.737C336.212 38.4649 336.721 39.2913 337.087 40.1835C337.184 40.4177 337.263 40.6591 337.323 40.9056C337.35 40.9871 337.37 41.0703 337.385 41.1546C337.385 41.1546 337.286 40.8184 337.037 40.2084C336.649 39.3339 336.131 38.5236 335.499 37.8055C334.526 36.6777 333.36 35.7313 332.057 35.0105C331.264 34.5511 330.414 34.1975 329.529 33.9584C328.556 33.6749 327.533 33.6006 326.529 33.7406H326.454V33.6659C326.119 32.7544 325.53 31.9577 324.757 31.3695C323.984 30.7813 323.06 30.4261 322.092 30.3457C321.124 30.2652 320.153 30.4629 319.294 30.9155C318.434 31.368 317.722 32.0566 317.241 32.9002L317.173 33.0247L317.067 32.9313C316.41 32.3175 315.621 31.8643 314.76 31.6071C313.899 31.3499 312.99 31.2957 312.104 31.4489C311.219 31.6021 310.381 31.9585 309.656 32.49C308.932 33.0216 308.34 33.7138 307.928 34.5125L307.854 34.6494L307.748 34.5374C307.119 33.939 306.325 33.5423 305.469 33.3981C304.612 33.2539 303.733 33.3688 302.942 33.7281C302.189 34.0829 301.604 34.7054 300.869 35.1225C300.506 35.3337 300.099 35.4593 299.68 35.4898C299.278 35.5097 298.876 35.4719 298.485 35.3777C297.763 35.1694 297.023 35.0277 296.275 34.9544C295.577 34.9322 294.883 35.0618 294.239 35.3342C293.07 35.8001 292.119 36.689 291.575 37.8242L291.538 37.8989L291.469 37.8615C290.994 37.6123 290.471 37.4648 289.935 37.4284C289.399 37.3919 288.862 37.4674 288.357 37.6499C287.588 37.9281 286.932 38.4508 286.489 39.1377C286.211 39.5659 286.016 40.0434 285.917 40.5445C285.873 40.9118 285.873 41.0986 285.861 41.0986Z" fill="#455A64"/>
<path d="M343.112 85.0102C343.129 84.9037 343.168 84.802 343.227 84.7119C343.286 84.6217 343.364 84.5452 343.455 84.4873C343.671 84.3449 343.919 84.2592 344.177 84.2383C344.527 84.2257 344.876 84.2829 345.204 84.4064C345.603 84.5611 346.022 84.6595 346.449 84.6989C346.954 84.6927 347.444 84.5222 347.843 84.2134C348.313 83.8651 348.708 83.4271 349.007 82.9248C349.35 82.4081 349.63 81.8167 350.072 81.244C350.9 80.0737 352.238 79.252 353.458 78.1938C354.097 77.6541 354.619 76.9914 354.996 76.2453C355.199 75.8597 355.316 75.4348 355.34 74.9997C355.364 74.5646 355.293 74.1295 355.133 73.7242C354.687 72.9022 354.144 72.1372 353.514 71.4458C353.201 71.0556 352.955 70.6159 352.786 70.1448C352.635 69.6505 352.609 69.1263 352.711 68.6196C352.974 67.6271 353.342 66.6652 353.807 65.7499C354.018 65.2858 354.159 64.7927 354.224 64.287C354.275 63.7824 354.159 63.2751 353.894 62.8428C353.447 62.2992 352.934 61.8121 352.369 61.3923C352.091 61.1544 351.853 60.8727 351.666 60.5582C351.485 60.2354 351.394 59.8698 351.404 59.4999C351.468 58.8058 351.632 58.1245 351.89 57.4768C352.104 56.8554 352.183 56.1952 352.12 55.5408C352.067 54.9172 351.886 54.3114 351.587 53.7617C351.288 53.212 350.878 52.7304 350.383 52.3473C349.449 51.6328 348.28 51.2971 347.109 51.4073H346.972V51.2704C347.166 50.2694 347.144 49.2386 346.908 48.2467C346.671 47.2548 346.226 46.3247 345.602 45.5184C345.078 44.848 344.429 44.2857 343.691 43.8626C343.068 43.4965 342.385 43.2435 341.674 43.1156C340.67 42.9455 339.637 43.0665 338.699 43.4642C338.451 43.5651 338.211 43.6858 337.983 43.8252L337.802 43.9186H337.734L337.79 43.875L337.964 43.763C338.191 43.6146 338.43 43.4875 338.68 43.3832C339.622 42.9512 340.67 42.8082 341.693 42.9724C342.422 43.0906 343.122 43.3416 343.76 43.7132C344.519 44.1388 345.189 44.7074 345.733 45.3877C346.378 46.2115 346.84 47.1637 347.087 48.1804C347.333 49.1972 347.36 50.2549 347.165 51.2828L347.053 51.1646C348.275 51.0396 349.499 51.3846 350.477 52.1295C351.003 52.5265 351.441 53.0288 351.762 53.6044C352.084 54.1799 352.282 54.816 352.344 55.4723C352.408 56.1538 352.328 56.8411 352.108 57.4892C351.859 58.1179 351.698 58.7777 351.628 59.4501C351.638 59.7859 351.723 60.1152 351.877 60.4136C352.031 60.7121 352.25 60.9721 352.518 61.1745C353.105 61.6013 353.632 62.1036 354.087 62.6685C354.377 63.1444 354.503 63.7016 354.448 64.2559C354.386 64.7857 354.241 65.3024 354.019 65.7872C353.56 66.6888 353.197 67.6361 352.935 68.6134C352.834 69.0819 352.856 69.5687 352.998 70.0265C353.158 70.4766 353.392 70.8972 353.689 71.2715C354.33 71.976 354.88 72.7582 355.326 73.5997C355.512 74.0351 355.587 74.51 355.544 74.9816C355.502 75.4362 355.378 75.8792 355.177 76.2889C354.789 77.0581 354.249 77.7401 353.589 78.2934C352.344 79.3641 351.012 80.1609 350.203 81.2938C349.798 81.8541 349.481 82.4392 349.132 82.9621C348.805 83.4757 348.382 83.9216 347.887 84.2756C347.462 84.5951 346.943 84.7657 346.412 84.7612C345.983 84.7207 345.564 84.6158 345.167 84.4499C344.85 84.3225 344.512 84.2591 344.171 84.2632C343.922 84.2757 343.68 84.3506 343.467 84.4811C343.289 84.6088 343.163 84.7968 343.112 85.0102Z" fill="#455A64"/>
<path d="M361.819 84.1198C361.81 84.0662 361.81 84.0116 361.819 83.958L361.9 83.4911C361.974 83.074 362.086 82.4764 362.23 81.7107C362.373 80.945 362.572 79.9988 362.696 78.8908C362.892 77.6476 362.732 76.3744 362.236 75.218C361.937 74.5955 361.495 73.973 361.103 73.3505C360.896 73.0101 360.735 72.6438 360.623 72.2611C360.505 71.8564 360.488 71.4289 360.574 71.0161C360.742 70.1757 361.252 69.4474 361.495 68.6257C361.62 68.22 361.62 67.7863 361.495 67.3807C361.342 66.9575 361.122 66.5622 360.841 66.2103C360.544 65.8369 360.281 65.4368 360.057 65.0151C359.838 64.5609 359.764 64.05 359.845 63.5522C360.118 62.5854 360.52 61.6598 361.041 60.8008C361.272 60.3628 361.409 59.8816 361.445 59.3877C361.452 59.142 361.411 58.8973 361.323 58.6676C361.236 58.4379 361.104 58.2278 360.935 58.0493C360.25 57.2961 359.185 56.9537 358.395 56.1818C358.005 55.7777 357.75 55.262 357.667 54.7064C357.604 54.175 357.604 53.6381 357.667 53.1066C357.71 52.5837 357.766 52.067 357.76 51.5628C357.766 51.0705 357.648 50.5847 357.418 50.1497C356.932 49.2844 355.973 48.8673 355.089 48.5001C354.161 48.1942 353.311 47.6884 352.599 47.0185C352.007 46.3157 351.549 45.5096 351.249 44.6405C350.994 43.8266 350.662 43.0387 350.259 42.2875C349.371 41.0451 348.137 40.0923 346.71 39.5484C345.54 39.0872 344.28 38.8977 343.025 38.9944C342.079 39.0772 341.15 39.3061 340.274 39.6729C339.723 39.913 339.194 40.2004 338.693 40.532L338.294 40.781L338.151 40.8619L338.282 40.7623L338.668 40.4884C339.164 40.1414 339.691 39.8413 340.243 39.592C341.124 39.2047 342.061 38.9589 343.019 38.8637C344.289 38.7545 345.566 38.9376 346.754 39.399C348.216 39.9463 349.483 40.9146 350.396 42.1816C350.84 42.9195 351.212 43.6993 351.504 44.5098C351.8 45.3532 352.247 46.1357 352.823 46.8193C353.51 47.4599 354.328 47.9441 355.22 48.2386C355.682 48.4223 356.13 48.6408 356.558 48.8922C357.019 49.1502 357.4 49.5301 357.659 49.9902C357.918 50.4503 358.046 50.9728 358.028 51.5005C358.027 52.0246 357.998 52.5483 357.94 53.0693C357.878 53.582 357.878 54.1003 357.94 54.6131C358.011 55.1221 358.242 55.5953 358.6 55.9639C359.335 56.7047 360.399 57.0471 361.146 57.8314C361.526 58.2371 361.729 58.7764 361.713 59.3317C361.677 59.8564 361.531 60.3676 361.283 60.8319C360.854 61.7532 360.262 62.5874 360.107 63.5211C360.029 63.9785 360.096 64.4488 360.3 64.8657C360.515 65.2755 360.768 65.6651 361.053 66.0298C361.352 66.4017 361.584 66.823 361.738 67.2748C361.878 67.7227 361.878 68.2027 361.738 68.6506C361.476 69.5159 360.972 70.2317 360.81 71.0223C360.687 71.7975 360.865 72.5903 361.308 73.2384C361.682 73.8983 362.13 74.4834 362.435 75.1433C362.928 76.3226 363.081 77.6165 362.877 78.8783C362.74 79.9926 362.516 80.9326 362.366 81.7045C362.217 82.4764 362.08 83.0553 361.993 83.4786C361.949 83.6716 361.918 83.821 361.893 83.9393C361.876 84.0024 361.851 84.0631 361.819 84.1198Z" fill="#455A64"/>
<path d="M359.939 73.0208L360.063 73.083C360.178 73.1605 360.272 73.2653 360.337 73.388C360.434 73.6372 360.469 73.9064 360.439 74.1722C360.409 74.438 360.314 74.6923 360.163 74.9132C359.937 75.2194 359.671 75.4937 359.372 75.7287C359.021 75.9995 358.708 76.318 358.445 76.6749C358.195 77.1128 358.064 77.6086 358.065 78.1129C358.065 78.6544 358.065 79.2334 358.003 79.8496C357.98 80.1805 357.882 80.5018 357.715 80.7888C357.549 81.0758 357.32 81.321 357.044 81.5055C356.471 81.8852 355.799 82.0471 355.208 82.4393C354.641 82.8848 354.266 83.531 354.162 84.2445C353.994 84.9729 353.944 85.7634 353.726 86.554C353.625 86.9604 353.45 87.3445 353.209 87.687C352.949 88.0309 352.621 88.3171 352.245 88.5274C351.467 88.9034 350.657 89.2056 349.823 89.43C348.983 89.6474 348.254 90.1715 347.781 90.8991C347.427 91.7312 347.174 92.6027 347.028 93.495C346.912 93.9561 346.714 94.3926 346.443 94.7835C346.155 95.1611 345.784 95.4677 345.36 95.68C344.535 96.0335 343.672 96.2904 342.789 96.4456C341.958 96.6051 341.168 96.9312 340.467 97.4043C339.832 97.9327 339.16 98.4154 338.456 98.8485C338.095 99.0481 337.692 99.1591 337.279 99.1722C336.882 99.1719 336.489 99.1024 336.115 98.9668C335.767 98.8427 335.411 98.7388 335.051 98.6555C334.701 98.5986 334.345 98.5882 333.993 98.6244C333.323 98.7352 332.67 98.9319 332.05 99.2096C331.428 99.4648 330.855 99.72 330.27 99.913C329.211 100.265 328.067 100.265 327.008 99.913C326.212 99.6643 325.482 99.2387 324.873 98.668C324.489 98.3063 324.166 97.8861 323.914 97.423C323.826 97.2635 323.751 97.0969 323.69 96.925C324 97.5523 324.422 98.1177 324.935 98.5933C325.541 99.1433 326.262 99.5516 327.045 99.7885C328.083 100.106 329.196 100.084 330.22 99.7262C330.793 99.5333 331.366 99.278 331.982 99.0166C332.616 98.7221 333.285 98.5128 333.974 98.3941C334.341 98.3413 334.715 98.3413 335.082 98.3941C335.451 98.4751 335.815 98.5791 336.171 98.7053C336.525 98.8336 336.898 98.8989 337.273 98.8983C337.655 98.8816 338.028 98.7772 338.363 98.5933C339.054 98.1588 339.715 97.6784 340.342 97.1553C341.064 96.6654 341.877 96.3266 342.733 96.1593C343.589 96.003 344.425 95.7482 345.223 95.3998C345.617 95.2061 345.96 94.9225 346.225 94.5719C346.482 94.2073 346.667 93.7976 346.773 93.3642C346.924 92.4521 347.185 91.5617 347.551 90.7124C347.78 90.308 348.105 89.9661 348.497 89.7164C348.887 89.4752 349.305 89.2829 349.742 89.1436C350.557 88.947 351.355 88.6826 352.126 88.3531C352.474 88.1537 352.779 87.8871 353.023 87.5687C353.248 87.2459 353.415 86.8854 353.514 86.5042C353.726 85.7448 353.776 84.9604 353.95 84.2134C354.07 83.4519 354.478 82.7655 355.089 82.2961C355.712 81.879 356.397 81.7234 356.957 81.3686C357.213 81.1999 357.427 80.9746 357.582 80.7102C357.738 80.4458 357.831 80.1493 357.853 79.8434C357.928 79.2583 357.891 78.6731 357.928 78.1253C357.934 77.5966 358.08 77.079 358.351 76.6251C358.622 76.2605 358.945 75.9375 359.31 75.6664C359.609 75.4438 359.876 75.1797 360.101 74.882C360.25 74.6738 360.346 74.4326 360.382 74.1789C360.418 73.9253 360.392 73.6667 360.306 73.4254C360.225 73.2579 360.098 73.1174 359.939 73.0208Z" fill="#455A64"/>
<path d="M322.283 75.9464C322.51 75.8109 322.779 75.7677 323.037 75.8256C323.294 75.8836 323.519 76.0383 323.665 76.2576C324.599 77.6458 325.533 79.034 326.473 80.4284L326.79 80.8891C326.036 81.5398 325.198 82.0882 324.3 82.52C323.91 82.7011 323.485 82.7949 323.055 82.7949C322.625 82.7949 322.2 82.7011 321.81 82.52C321.215 82.1508 320.752 81.6013 320.491 80.9513C320.061 79.8993 319.712 78.8223 320.192 77.7952C320.54 77.042 321.623 76.3697 322.283 75.9464Z" fill="#FF9A6C"/>
<path d="M301.529 60.8505C301.108 60.736 300.67 60.6919 300.234 60.7198C299.022 60.7742 297.87 61.2599 296.985 62.0893C296.366 62.6526 295.887 63.3515 295.584 64.1311C295.252 65.0317 295.137 65.9977 295.248 66.9511C295.363 68.0075 295.747 69.0169 296.362 69.8831C297.031 70.8153 297.966 71.5229 299.045 71.9124C300.117 72.3128 301.28 72.4034 302.401 72.1739C303.446 71.9582 304.406 71.4435 305.164 70.6923C305.804 70.0629 306.291 69.2949 306.586 68.4476C306.882 67.6003 306.979 66.6964 306.87 65.8057C306.753 65.1275 306.501 64.4798 306.129 63.9008C305.86 63.4611 305.531 63.061 305.152 62.7118C304.91 62.4927 304.637 62.3103 304.343 62.1702C304.243 62.1146 304.133 62.0806 304.019 62.0706C304.409 62.2511 304.765 62.4975 305.071 62.799C305.908 63.6175 306.467 64.6777 306.671 65.8306C306.761 66.6871 306.655 67.553 306.362 68.3628C306.069 69.1726 305.595 69.9053 304.978 70.5056C304.252 71.2139 303.338 71.698 302.345 71.9C301.274 72.1105 300.167 72.02 299.145 71.6385C298.121 71.2697 297.232 70.6017 296.593 69.7212C296 68.8942 295.627 67.9304 295.509 66.9199C295.396 66.0064 295.499 65.079 295.808 64.212C296.09 63.4628 296.539 62.7878 297.122 62.2387C297.969 61.4296 299.067 60.9334 300.234 60.8318C301.081 60.7758 301.523 60.8879 301.529 60.8505Z" fill="#E0E0E0"/>
<path d="M326.734 65.7497C326.504 66.11 326.141 66.3653 325.724 66.4608C325.308 66.5563 324.87 66.4842 324.506 66.2602C324.321 66.1613 324.158 66.0264 324.026 65.8635C323.894 65.7005 323.797 65.5129 323.739 65.3115C323.681 65.1102 323.663 64.8992 323.688 64.6912C323.713 64.4831 323.779 64.2821 323.883 64.1001C324.115 63.7411 324.477 63.4868 324.894 63.3914C325.31 63.2961 325.747 63.3672 326.112 63.5896C326.298 63.6872 326.462 63.8214 326.595 63.9842C326.728 64.147 326.826 64.335 326.884 64.5368C326.942 64.7386 326.959 64.9501 326.933 65.1586C326.908 65.367 326.84 65.5681 326.734 65.7497Z" fill="#263238"/>
<path d="M339.745 74.8321C339.512 75.1898 339.15 75.4431 338.734 75.5384C338.318 75.6336 337.881 75.5634 337.516 75.3425C337.331 75.2431 337.168 75.1076 337.036 74.9441C336.904 74.7806 336.806 74.5924 336.748 74.3905C336.69 74.1887 336.673 73.9772 336.698 73.7687C336.723 73.5602 336.79 73.3587 336.894 73.1762C337.126 72.8185 337.489 72.5652 337.905 72.47C338.32 72.3747 338.757 72.4449 339.122 72.6658C339.307 72.7653 339.47 72.9007 339.602 73.0642C339.734 73.2277 339.832 73.416 339.89 73.6178C339.948 73.8197 339.965 74.0311 339.94 74.2396C339.915 74.4481 339.849 74.6496 339.745 74.8321Z" fill="#263238"/>
<path d="M343.467 71.2464C343.2 71.3585 342.683 69.9329 341.276 69.1361C339.869 68.3393 338.381 68.5821 338.344 68.2895C338.344 68.1588 338.68 67.8911 339.34 67.7666C340.192 67.6109 341.071 67.7627 341.821 68.1947C342.571 68.6268 343.143 69.3112 343.436 70.1259C343.654 70.7609 343.598 71.2028 343.467 71.2464Z" fill="#263238"/>
<path d="M330.251 63.3221C329.922 63.3968 329.436 61.7223 327.855 60.6018C326.274 59.4813 324.531 59.5124 324.506 59.1825C324.506 59.0268 324.929 58.7903 325.713 58.7529C326.739 58.7272 327.744 59.0377 328.577 59.6369C329.404 60.23 330.008 61.0823 330.295 62.0584C330.5 62.8304 330.401 63.291 330.251 63.3221Z" fill="#263238"/>
<path d="M323.03 82.6445C323.03 82.6445 322.806 82.7316 322.408 82.6445C321.823 82.5027 321.297 82.183 320.901 81.7294C320.297 81.0762 319.897 80.2604 319.75 79.3826C319.655 78.8456 319.715 78.2926 319.924 77.7889C320.164 77.2656 320.519 76.8036 320.964 76.4381C321.389 76.0838 321.855 75.7808 322.352 75.5355C322.49 75.4496 322.645 75.3946 322.806 75.3742C322.967 75.3537 323.131 75.3684 323.286 75.4172C323.555 75.552 323.773 75.7704 323.908 76.0397L325.253 78.1811C325.695 78.8315 326.065 79.5288 326.355 80.2603C325.809 79.6935 325.328 79.067 324.923 78.3928C324.475 77.7703 323.995 77.0544 323.485 76.3136C323.211 75.8654 323.012 75.7596 322.564 76.0024C322.104 76.239 321.672 76.5249 321.275 76.8552C320.891 77.1377 320.588 77.5169 320.398 77.9542C320.208 78.3916 320.136 78.8715 320.192 79.3452C320.314 80.1412 320.645 80.8907 321.15 81.5178C321.489 81.9467 321.936 82.2776 322.445 82.4764C322.806 82.5947 323.037 82.6009 323.03 82.6445Z" fill="#263238"/>
<path d="M379.423 58.4292C379.187 57.6688 378.861 56.9394 378.452 56.2566C377.943 55.4821 377.293 54.8105 376.535 54.2771C375.539 53.5742 374.37 53.1547 373.155 53.0632H372.962V52.864C373.081 51.2477 372.565 49.6487 371.524 48.4069C370.954 47.6743 370.229 47.0768 369.402 46.657C368.574 46.2373 367.664 46.0058 366.737 45.9791H366.494V45.7363C366.442 43.1306 365.392 40.6441 363.562 38.7891C362.128 37.3538 360.283 36.4008 358.283 36.0626C356.455 35.745 354.576 35.9345 352.848 36.6104L352.736 36.654L352.631 36.5855C350.877 35.4091 348.896 34.6118 346.816 34.2449C345.198 33.9454 343.543 33.9012 341.911 34.1141C340.475 34.3326 339.065 34.6976 337.703 35.2035C337.703 35.2035 337.784 35.1413 337.958 35.0541C338.132 34.967 338.394 34.83 338.742 34.6931C339.746 34.2955 340.789 34.0095 341.855 33.8402C343.515 33.5721 345.207 33.5721 346.866 33.8402C349.011 34.1893 351.058 34.9869 352.873 36.1808H352.655C354.457 35.4493 356.428 35.2337 358.345 35.5583C360.452 35.8996 362.398 36.8974 363.904 38.4094C365.831 40.3554 366.929 42.9728 366.967 45.7114L366.724 45.4686C367.722 45.5025 368.7 45.7567 369.588 46.213C370.475 46.6694 371.251 47.3165 371.86 48.1081C372.961 49.4389 373.498 51.1485 373.354 52.8702L373.179 52.6648C374.459 52.7751 375.683 53.2432 376.709 54.0156C377.484 54.5826 378.136 55.3004 378.626 56.1259C378.937 56.644 379.171 57.2037 379.324 57.788C379.381 57.9972 379.415 58.2124 379.423 58.4292Z" fill="#263238"/>
<path d="M339.545 26.3513C338.901 26.242 338.289 25.9911 337.753 25.6167C336.991 25.1256 336.335 24.4871 335.824 23.7387C335.313 22.9904 334.957 22.1473 334.777 21.2592C334.531 20.0008 334.676 18.6972 335.194 17.5241C335.782 16.1698 336.782 15.035 338.051 14.2809C339.491 13.4693 341.188 13.2441 342.789 13.6522C344.54 14.0598 346.06 15.1398 347.022 16.6589L346.742 16.5406C347.833 16.2823 348.981 16.4076 349.991 16.8954C350.856 17.285 351.596 17.908 352.126 18.6945C352.616 19.4692 352.859 20.3744 352.824 21.2903C352.801 22.1518 352.557 22.993 352.115 23.7331C351.674 24.4733 351.05 25.0876 350.302 25.5171L350.209 25.0689C350.882 25.1475 351.525 25.3901 352.081 25.7755C352.638 26.1608 353.092 26.677 353.402 27.2788C353.698 27.8132 353.876 28.4049 353.923 29.0138C353.97 29.6228 353.886 30.2348 353.676 30.8084C353.33 31.7371 352.738 32.5545 351.965 33.1739C351.191 33.7932 350.263 34.1912 349.281 34.3256C348.009 34.4973 346.714 34.3052 345.546 33.7715C345.239 33.6394 344.943 33.4811 344.662 33.2984C344.476 33.1677 344.382 33.0992 344.389 33.0868C344.395 33.0743 344.799 33.3233 345.602 33.6284C346.746 34.0827 347.991 34.2224 349.207 34.033C350.122 33.889 350.982 33.5015 351.696 32.9112C352.41 32.3209 352.952 31.5495 353.266 30.6777C353.449 30.158 353.518 29.6049 353.469 29.056C353.419 28.5071 353.252 27.9753 352.979 27.4967C352.701 26.9642 352.297 26.5077 351.802 26.1671C351.308 25.8264 350.737 25.6118 350.141 25.542L349.337 25.4798L350.041 25.0938C350.711 24.7025 351.269 24.1466 351.664 23.4787C352.058 22.8108 352.275 22.0532 352.294 21.2779C352.322 20.4631 352.105 19.6588 351.672 18.9684C351.208 18.2711 350.562 17.7137 349.804 17.3561C348.901 16.9194 347.875 16.8052 346.897 17.0324L346.717 17.0822L346.617 16.9203C345.729 15.5138 344.326 14.5106 342.708 14.1253C341.219 13.7404 339.639 13.9479 338.3 14.7042C337.102 15.4003 336.151 16.4538 335.58 17.7171C335.082 18.8092 334.925 20.0267 335.132 21.2094C335.458 22.9303 336.443 24.456 337.877 25.4611C338.402 25.8127 338.961 26.1109 339.545 26.3513Z" fill="#263238"/>
<path d="M299.002 21.2283C299.003 21.1206 299.02 21.0137 299.052 20.9108C299.12 20.611 299.214 20.3174 299.332 20.0331C299.77 18.948 300.442 17.9726 301.299 17.1758C302.607 15.9293 304.303 15.169 306.104 15.0219C307.244 14.9354 308.39 15.0824 309.471 15.4538C310.552 15.8252 311.546 16.4133 312.392 17.182L312.112 17.1446C314.234 16.0233 316.688 15.7008 319.028 16.2358C320.79 16.6529 322.401 17.5541 323.678 18.8378C324.843 20.0083 325.699 21.4502 326.168 23.0335L325.975 22.8717C327.825 23.1308 329.579 23.8547 331.073 24.9757C332.232 25.8361 333.218 26.9068 333.98 28.1319C334.473 28.9223 334.854 29.777 335.113 30.6717C335.213 30.9852 335.278 31.3088 335.306 31.6366C334.924 30.4587 334.399 29.3319 333.744 28.2812C332.971 27.1136 331.99 26.0985 330.849 25.287C329.394 24.2343 327.7 23.5604 325.919 23.3261H325.769L325.726 23.1829C325.262 21.6823 324.437 20.3185 323.323 19.2113C322.115 17.9864 320.588 17.1238 318.916 16.7213C316.694 16.2127 314.364 16.5106 312.342 17.5617L312.186 17.6426L312.062 17.5244C311.266 16.7944 310.331 16.2324 309.312 15.8719C308.294 15.5115 307.214 15.36 306.136 15.4265C304.416 15.5443 302.786 16.2346 301.504 17.3874C300.654 18.1394 299.966 19.0564 299.481 20.0829C299.145 20.8174 299.039 21.2407 299.002 21.2283Z" fill="#263238"/>
<path d="M260.836 67.9846C260.836 67.9846 261.508 66.7894 266.694 67.468C271.879 68.1465 292.422 82.3707 292.422 82.3707C292.422 82.3707 288.687 97.0681 299.985 99.8694C308.215 101.911 312.578 99.6141 312.578 99.6141C312.578 99.6141 326.354 116.745 327.481 123.73C327.481 123.73 261.091 170.181 271.867 165.133L260.836 165.257V67.9846Z" fill="#ACCFFF"/>
<path d="M326.404 120.586C326.585 121.078 329.156 124.141 326.61 137.786C324.294 150.18 314.16 162.686 314.16 162.686L293.953 144.503L326.404 120.586Z" fill="#ACCFFF"/>
<path d="M315.865 130.304C315.773 130.416 315.668 130.518 315.554 130.609L314.627 131.418C313.805 132.109 312.61 133.099 311.109 134.294C308.115 136.684 303.932 139.928 299.282 143.463C294.632 146.999 290.38 150.168 287.299 152.471L283.638 155.148L282.63 155.864C282.519 155.955 282.398 156.032 282.269 156.094C282.368 155.991 282.476 155.897 282.592 155.814L283.563 155.048L287.162 152.291L299.083 143.233C303.739 139.697 307.941 136.485 310.966 134.138L314.546 131.343L315.51 130.584C315.62 130.48 315.739 130.386 315.865 130.304Z" fill="#263238"/>
<path d="M282.269 12.9302H135.227V217.305H282.269V12.9302Z" fill="white"/>
<path d="M282.269 12.9302H135.227V86.9025H282.269V12.9302Z" fill="#ACCFFF"/>
<path d="M256.808 105.017C256.808 105.104 236.589 105.179 211.664 105.179C186.739 105.179 166.508 105.104 166.508 105.017C166.508 104.93 186.72 104.855 211.664 104.855C236.608 104.855 256.808 104.924 256.808 105.017Z" fill="#263238"/>
<path d="M256.808 124.937C256.808 125.025 236.589 125.099 211.664 125.099C186.739 125.099 166.508 125.025 166.508 124.937C166.508 124.85 186.72 124.776 211.664 124.776C236.608 124.776 256.808 124.85 256.808 124.937Z" fill="#263238"/>
<path d="M256.808 144.864C256.808 144.951 236.589 145.026 211.664 145.026C186.739 145.026 166.508 144.951 166.508 144.864C166.508 144.777 186.72 144.702 211.664 144.702C236.608 144.702 256.808 144.771 256.808 144.864Z" fill="#263238"/>
<path d="M256.435 167.828H168.107C159.423 167.828 152.383 174.868 152.383 183.553V185.202C152.383 193.887 159.423 200.927 168.107 200.927H256.435C265.119 200.927 272.159 193.887 272.159 185.202V183.553C272.159 174.868 265.119 167.828 256.435 167.828Z" fill="#ACCFFF"/>
<path d="M157.326 108.379C157.096 108.38 156.874 108.296 156.703 108.142L154.213 105.932C154.12 105.852 154.044 105.754 153.989 105.644C153.934 105.534 153.901 105.414 153.893 105.291C153.885 105.168 153.901 105.045 153.941 104.928C153.981 104.812 154.044 104.705 154.126 104.613C154.291 104.438 154.516 104.333 154.755 104.319C154.995 104.305 155.231 104.384 155.415 104.538L157.238 106.144L161.017 101.973C161.186 101.805 161.413 101.707 161.652 101.701C161.891 101.694 162.123 101.779 162.3 101.939C162.478 102.098 162.588 102.32 162.608 102.558C162.627 102.796 162.555 103.032 162.405 103.218L158.004 108.074C157.918 108.169 157.814 108.245 157.697 108.297C157.58 108.35 157.454 108.378 157.326 108.379Z" fill="#ACCFFF"/>
<path d="M157.326 128.299C157.097 128.303 156.875 128.221 156.703 128.069L154.213 125.853C154.121 125.771 154.046 125.672 153.993 125.561C153.939 125.451 153.908 125.33 153.9 125.208C153.893 125.085 153.91 124.962 153.95 124.845C153.991 124.729 154.054 124.622 154.135 124.53C154.217 124.438 154.316 124.363 154.427 124.309C154.538 124.256 154.658 124.224 154.781 124.217C155.029 124.203 155.272 124.287 155.458 124.452L157.282 126.058L161.061 121.881C161.23 121.713 161.457 121.615 161.696 121.608C161.934 121.602 162.166 121.687 162.344 121.847C162.522 122.006 162.632 122.228 162.651 122.466C162.671 122.704 162.598 122.94 162.449 123.126L158.048 127.982C157.958 128.085 157.847 128.167 157.722 128.222C157.598 128.277 157.462 128.303 157.326 128.299Z" fill="#ACCFFF"/>
<path d="M157.326 148.226C157.096 148.227 156.874 148.143 156.703 147.989L154.213 145.779C154.121 145.697 154.046 145.598 153.993 145.488C153.939 145.377 153.908 145.257 153.9 145.134C153.893 145.011 153.91 144.888 153.95 144.772C153.991 144.655 154.054 144.548 154.135 144.456C154.217 144.364 154.316 144.289 154.427 144.236C154.538 144.182 154.658 144.151 154.781 144.143C155.029 144.129 155.272 144.213 155.458 144.378L157.282 145.978L161.061 141.808C161.23 141.639 161.457 141.541 161.696 141.535C161.934 141.528 162.166 141.614 162.344 141.773C162.522 141.932 162.632 142.154 162.651 142.392C162.671 142.63 162.598 142.866 162.449 143.053L158.048 147.908C157.958 148.011 157.847 148.093 157.722 148.147C157.597 148.202 157.462 148.229 157.326 148.226Z" fill="#ACCFFF"/>
<path d="M218.649 35.1472L221.145 40.202L226.722 41.0112L222.689 44.9455L223.641 50.4982L218.649 47.8775L213.662 50.4982L214.615 44.9455L210.581 41.0112L216.159 40.202L218.649 35.1472Z" fill="white"/>
<path d="M208.956 35.1472L212.256 41.8267L219.626 42.8974L214.291 48.0953L215.549 55.4347L208.956 51.9673L202.37 55.4347L203.628 48.0953L198.293 42.8974L205.663 41.8267L208.956 35.1472Z" fill="white"/>
<path d="M216.352 56.5369L208.95 52.6524L201.555 56.5369L202.968 48.3074L196.985 42.4745L205.252 41.273L208.95 33.803L212.641 41.273L220.908 42.4745L214.926 48.3011L216.352 56.5369ZM199.612 43.3149L204.294 47.8841L203.186 54.3332L208.981 51.2829L214.77 54.3332L213.644 47.8903L218.325 43.3211L211.851 42.3811L208.95 36.5109L206.049 42.3749L199.612 43.3149Z" fill="#ACCFFF"/>
<path d="M282.269 217.311C282.269 216.004 282.206 133.765 282.119 12.9304L282.269 13.0798H135.245L135.407 12.918C135.407 89.3927 135.407 160.147 135.376 217.299L135.245 217.168L282.287 217.299L135.245 217.43H135.115V217.299C135.115 160.147 135.115 89.3927 135.083 12.918V12.7561H135.264H282.287H282.406V12.8993C282.325 133.796 282.269 216.004 282.269 217.311Z" fill="#263238"/>
<path d="M210.313 135.881C210.313 135.881 208.135 132.607 212.498 132.426C216.862 132.246 238.314 135.881 245.584 139.517L251.946 143.513L245.055 157.146H229.219C227.401 157.146 222.315 154.034 227.04 151.88C227.04 151.88 222.315 148.605 226.679 145.879C226.679 145.879 223.224 143.333 226.86 139.878L210.313 135.881Z" fill="#FFBF9D"/>
<path d="M246.861 140.867L282.966 159.779L296.512 146.819L312.653 161.36C312.653 161.36 296.655 180.148 287.386 181.785C278.117 183.422 242.017 154.394 242.017 154.394L246.861 140.867Z" fill="#FFBF9D"/>
<path d="M284.74 82.7505L284.404 82.9435C283.879 83.2127 283.32 83.4076 282.742 83.5224C282.467 83.553 282.194 83.6029 281.926 83.6718C281.767 83.7583 281.615 83.8582 281.472 83.9706C280.482 84.5496 279.225 84.5931 278.117 84.7363C276.872 84.867 275.533 85.06 274.562 85.8631C273.591 86.6661 273.155 88.2659 274.008 89.1935C273.607 89.2001 273.221 89.3531 272.924 89.6235C272.628 89.894 272.44 90.2634 272.396 90.6626C272.367 91.0641 272.441 91.4663 272.611 91.8313C272.781 92.1962 273.041 92.5117 273.367 92.748C274.027 93.2158 274.801 93.4955 275.608 93.5572C275.143 93.6354 274.726 93.8915 274.446 94.2714C274.166 94.6513 274.045 95.1251 274.108 95.5928C274.192 96.0582 274.393 96.4945 274.693 96.8604C274.992 97.2264 275.38 97.51 275.82 97.6844C276.701 98.0275 277.646 98.172 278.59 98.1077C279.806 98.064 281.024 98.089 282.238 98.1824C282.238 98.1824 282.238 99.3839 282.238 99.9254C282.238 100.66 282.238 100.087 282.238 100.087C282.894 100.471 283.603 100.758 284.342 100.94C285.979 101.475 287.037 101.911 288.512 102.291C289.614 102.577 290.697 102.714 291.289 101.973C292.714 100.193 288.967 97.616 288.967 97.616C290.069 96.9935 289.77 93.4638 288.133 92.9845C288.942 92.5861 289.452 92.6297 289.932 91.8578C290.179 91.4789 290.334 91.0471 290.384 90.5972C290.434 90.1473 290.377 89.692 290.218 89.2682C290.042 88.8515 289.734 88.5041 289.342 88.2792C288.949 88.0543 288.494 87.9643 288.046 88.0231C288.575 87.5672 288.954 86.9616 289.133 86.2861C289.312 85.6105 289.282 84.8966 289.048 84.2383C288.74 83.452 288.152 82.807 287.398 82.4268C287.024 82.2378 286.619 82.1176 286.203 82.072C286.046 82.044 285.886 82.044 285.73 82.072C285.66 82.0936 285.595 82.1273 285.537 82.1716C285.263 82.3148 285.026 82.5575 284.74 82.7505Z" fill="#FFBF9D"/>
<path d="M286.489 78.6917C286.478 78.3013 286.382 77.918 286.209 77.5678C286.036 77.2176 285.79 76.9088 285.487 76.6623C284.728 76.1456 283.358 76.2079 282.455 76.4071C282.399 77.5027 282.455 78.0567 282.381 79.1523C282.381 79.3827 282.449 79.5632 282.343 79.7748C282.063 80.3164 280.874 80.3974 280.326 80.6775C279.874 80.9524 279.544 81.3899 279.404 81.9004C279.264 82.4108 279.325 82.9555 279.573 83.4227C279.847 83.8769 280.245 84.2432 280.721 84.4781C281.196 84.7131 281.729 84.807 282.256 84.7487C283.317 84.614 284.29 84.0879 284.983 83.2733C285.535 82.6541 285.954 81.9277 286.213 81.1394C286.472 80.3512 286.566 79.5179 286.489 78.6917Z" fill="#FFBF9D"/>
<path d="M288.351 87.9608C288.351 88.048 285.157 88.3966 281.198 88.7327C277.239 89.0689 274.021 89.2743 274.014 89.1809C274.008 89.0875 277.208 88.7452 281.167 88.409C285.126 88.0729 288.344 87.8674 288.351 87.9608Z" fill="#FF9A6C"/>
<path d="M288.351 92.9595C287.742 93.1458 287.116 93.2709 286.483 93.333C284.96 93.5597 283.427 93.7093 281.889 93.7812C280.084 93.8746 278.453 93.8559 277.27 93.7812C276.63 93.7844 275.992 93.7218 275.365 93.5944C276 93.5315 276.639 93.517 277.276 93.5509C278.453 93.5509 280.077 93.5509 281.87 93.4388C283.663 93.3268 285.282 93.2085 286.452 93.0902C287.081 93.0025 287.715 92.9588 288.351 92.9595Z" fill="#FF9A6C"/>
<path d="M288.351 97.8464C287.841 97.9908 287.317 98.0744 286.788 98.0954C285.817 98.195 284.472 98.2697 282.985 98.2884C281.497 98.3071 280.152 98.2884 279.181 98.2884C278.652 98.3128 278.123 98.2836 277.6 98.2012C278.118 98.0982 278.646 98.0502 279.175 98.058C280.152 98.0145 281.497 97.9958 282.978 97.9709C284.46 97.946 285.804 97.9149 286.776 97.8713C287.299 97.8191 287.826 97.8107 288.351 97.8464Z" fill="#FF9A6C"/>
<path d="M286.197 80.2979C286.318 80.711 286.282 81.1543 286.097 81.5429C285.721 82.4801 285.012 83.2451 284.105 83.6905C283.628 83.9456 283.128 84.154 282.611 84.313C282.192 84.4615 281.758 84.5638 281.316 84.618C281.003 84.6534 280.687 84.5809 280.42 84.4126C280.239 84.2881 280.19 84.1698 280.202 84.1574C280.524 84.3675 280.912 84.4517 281.291 84.3939C281.716 84.3063 282.132 84.1835 282.536 84.0267C283.031 83.8572 283.512 83.6491 283.974 83.4042C284.82 82.9879 285.502 82.2995 285.91 81.4495C286.039 81.0745 286.134 80.6892 286.197 80.2979Z" fill="#FF9A6C"/>
<path d="M117.199 50.6853H10.3584V199.19H117.199V50.6853Z" fill="white"/>
<path d="M117.199 50.6853H10.3584V104.439H117.199V50.6853Z" fill="#455A64"/>
<path d="M98.7044 117.611C98.7044 117.704 84.0132 117.779 65.8983 117.779C47.7834 117.779 33.0923 117.704 33.0923 117.611C33.0923 117.517 47.7772 117.449 65.8983 117.449C84.0195 117.449 98.7044 117.505 98.7044 117.611Z" fill="#263238"/>
<path d="M98.7044 132.072C98.7044 132.159 84.0132 132.233 65.8983 132.233C47.7834 132.233 33.0923 132.159 33.0923 132.072C33.0923 131.984 47.7772 131.91 65.8983 131.91C84.0195 131.91 98.7044 131.984 98.7044 132.072Z" fill="#263238"/>
<path d="M98.7044 146.551C98.7044 146.638 84.0132 146.713 65.8983 146.713C47.7834 146.713 33.0923 146.638 33.0923 146.551C33.0923 146.464 47.7772 146.383 65.8983 146.383C84.0195 146.383 98.7044 146.458 98.7044 146.551Z" fill="#263238"/>
<path d="M98.4304 163.24H34.2563C27.9442 163.24 22.8271 168.358 22.8271 174.67V175.859C22.8271 182.171 27.9442 187.288 34.2563 187.288H98.4304C104.743 187.288 109.86 182.171 109.86 175.859V174.67C109.86 168.358 104.743 163.24 98.4304 163.24Z" fill="#455A64"/>
<path d="M26.4128 120.294C26.1842 120.295 25.9629 120.213 25.7903 120.064L23.9663 118.451C23.7806 118.286 23.6681 118.054 23.6535 117.806C23.6389 117.558 23.7234 117.314 23.8885 117.128C24.0536 116.943 24.2858 116.83 24.5338 116.816C24.7819 116.801 25.0256 116.886 25.2114 117.051L26.3505 118.053L28.9277 115.202C29.0987 115.043 29.3228 114.954 29.556 114.952C29.7892 114.951 30.0147 115.036 30.1879 115.192C30.3612 115.349 30.4698 115.564 30.4923 115.796C30.5149 116.028 30.4497 116.26 30.3097 116.447L27.1162 119.976C27.0274 120.075 26.919 120.154 26.7979 120.209C26.6768 120.264 26.5456 120.293 26.4128 120.294Z" fill="#455A64"/>
<path d="M26.4127 134.767C26.1841 134.769 25.9628 134.687 25.7902 134.537L23.9662 132.931C23.8739 132.849 23.7985 132.75 23.7444 132.639C23.6904 132.528 23.6587 132.408 23.6512 132.285C23.636 132.036 23.7202 131.791 23.8853 131.605C24.0504 131.418 24.2829 131.305 24.5315 131.29C24.7802 131.275 25.0247 131.359 25.2112 131.524L26.3442 132.551L28.9214 129.706C28.9992 129.602 29.0978 129.516 29.2108 129.453C29.3239 129.389 29.4489 129.35 29.5779 129.337C29.7069 129.325 29.8372 129.339 29.9603 129.38C30.0834 129.42 30.1968 129.486 30.2931 129.573C30.3894 129.66 30.4666 129.766 30.5198 129.884C30.5729 130.002 30.6009 130.13 30.6018 130.26C30.6028 130.389 30.5768 130.518 30.5254 130.637C30.474 130.756 30.3984 130.863 30.3033 130.951L27.1099 134.481C27.02 134.574 26.9115 134.648 26.7915 134.697C26.6714 134.747 26.5424 134.77 26.4127 134.767Z" fill="#455A64"/>
<path d="M26.4128 149.246C26.1842 149.248 25.9629 149.166 25.7903 149.016L23.9663 147.404C23.8744 147.322 23.7994 147.223 23.7457 147.112C23.692 147.002 23.6607 146.881 23.6535 146.759C23.6462 146.636 23.6633 146.513 23.7036 146.396C23.7439 146.28 23.8068 146.173 23.8885 146.081C23.9703 145.989 24.0693 145.914 24.1801 145.86C24.2908 145.807 24.411 145.775 24.5338 145.768C24.6567 145.761 24.7797 145.778 24.896 145.818C25.0122 145.859 25.1194 145.921 25.2114 146.003L26.3505 147.005L28.9277 144.154C29.0056 144.051 29.1041 143.964 29.2172 143.901C29.3302 143.837 29.4552 143.798 29.5842 143.786C29.7133 143.773 29.8435 143.788 29.9666 143.828C30.0898 143.869 30.2031 143.934 30.2994 144.021C30.3958 144.108 30.473 144.214 30.5261 144.332C30.5793 144.45 30.6072 144.578 30.6082 144.708C30.6091 144.838 30.5831 144.966 30.5317 145.085C30.4803 145.204 30.4047 145.311 30.3097 145.399L27.1162 148.929C27.0274 149.028 26.919 149.107 26.7979 149.162C26.6768 149.216 26.5456 149.245 26.4128 149.246Z" fill="#455A64"/>
<path d="M67.8281 77.9074L63.7818 75.7224L59.6857 77.814L60.5136 73.2946L57.2579 70.0451L61.8147 69.4351L63.9001 65.3328L65.8921 69.4786L70.4364 70.1945L67.106 73.3693L67.8281 77.9074Z" fill="white"/>
<path d="M117.199 199.19C117.199 197.883 117.143 138.465 117.056 50.6851L117.199 50.8344L10.3708 50.8469L10.5327 50.6851C10.5327 106.25 10.5327 157.663 10.5016 199.19L10.3708 199.059L117.211 199.19L10.3708 199.321H10.2401V199.19C10.2401 157.663 10.2401 106.25 10.209 50.6851V50.5232H10.3708H117.199H117.348V50.6664C117.261 138.465 117.205 197.914 117.199 199.19Z" fill="#263238"/>
</g>
</g>
</svg>
