<?xml version="1.0" encoding="utf-8"?>
<!-- Generator: Adobe Illustrator 27.0.0, SVG Export Plug-In . SVG Version: 6.00 Build 0)  -->
<svg version="1.1" id="Layer_1" xmlns="http://www.w3.org/2000/svg" xmlns:xlink="http://www.w3.org/1999/xlink" x="0px" y="0px"
	 viewBox="0 0 1920 1050" style="enable-background:new 0 0 1920 1050;" xml:space="preserve">
<style type="text/css">
	.st0{opacity:0.3;}
	.st1{fill:#ACCFFF;}
	.st2{fill:#FFFFFF;filter:url(#Adobe_OpacityMaskFilter);}
	.st3{mask:url(#mask0_819_1749_00000018934934190455438000000001527261922295840906_);}
	.st4{fill:#FFFFFF;}
	.st5{opacity:0.2;}
	.st6{opacity:0.1;enable-background:new    ;}
	.st7{fill:#263238;}
	.st8{fill:#FFFFFF;filter:url(#Adobe_OpacityMaskFilter_00000134234987184568245100000018357818358206400386_);}
	.st9{mask:url(#mask1_819_1749_00000054986990972139309580000012087582215780840885_);}
	.st10{clip-path:url(#SVGID_00000069359866418260530760000007370066175196333227_);}
	.st11{fill:#FFFFFF;stroke:#263238;stroke-linecap:round;stroke-linejoin:round;}
	.st12{clip-path:url(#SVGID_00000017486757023893688300000013112919794457684643_);}
	.st13{fill:none;stroke:#263238;stroke-linecap:round;stroke-linejoin:round;}
	.st14{fill:#263238;stroke:#263238;stroke-linecap:round;stroke-linejoin:round;}
	.st15{fill:#ACCFFF;stroke:#263238;stroke-linecap:round;stroke-linejoin:round;}
</style>
<g>
	<g>
		<g class="st0">
			<path class="st1" d="M548.6,900.9c30.3,3.4,60.9,2.7,91.1-2c27.5-4.6,54.1-13.1,79.2-25.1c129.7-59.7,226.5-205,214-351.1
				c-7.4-80.8-55-147-139.2-181.2c-60.2-24.6-164.7,14.4-221.9-21.4c-59.7-37.3-59.2-109.6-183.5-139.9
				c-79-19.6-164.4,50.2-198.3,116.4C149.6,379,154.6,470.1,178,569.8C214.2,727.4,383.6,882.7,548.6,900.9z"/>
			<defs>
				<filter id="Adobe_OpacityMaskFilter" filterUnits="userSpaceOnUse" x="56.6" y="215.3" width="900" height="533.4">
					<feColorMatrix  type="matrix" values="1 0 0 0 0  0 1 0 0 0  0 0 1 0 0  0 0 0 1 0"/>
				</filter>
			</defs>
			
				<mask maskUnits="userSpaceOnUse" x="56.6" y="215.3" width="900" height="533.4" id="mask0_819_1749_00000018934934190455438000000001527261922295840906_">
				<path class="st2" d="M384.2,726.5H168.4V214.8h215.8V726.5z M630.8,214.8H415v511.7h215.8V214.8z M877.4,214.8H661.6v511.7
					h215.8L877.4,214.8L877.4,214.8z"/>
			</mask>
			<g class="st3">
				<path class="st4" d="M641.7,312.3v3.3h1.9C643,314.5,642.4,313.4,641.7,312.3z"/>
				<g class="st5">
					<path class="st1" d="M451.6,315.3c-7.7-4.2-11.2-0.7-14-4.2c-2.8-3.5,7.7-12.6-13.3-21.7c0,0-1.4-19.6-30.1-20.3
						c-28.7-0.6-21,19.6-28.7,24.5c-7.7,4.9-9.8-2.8-17.5,2.1c-7.7,4.9-4.2,14.7-10.5,16.1c-6.3,1.4-14.7-6.3-22.5-1.4
						c-7.8,4.9-7.7,9.1-11.2,9.1c-3.5,0-10.5-2.8-14.7,0c-4.2,2.8-9,6.3-9,6.3h177.1C457.1,325.9,459.3,319.5,451.6,315.3z"/>
				</g>
				<g class="st5">
					<path class="st1" d="M950.7,395.7c-7.7-4.2-11.2-0.7-14-4.2c-2.8-3.5,7.7-12.6-13.3-21.7c0,0-1.4-19.6-30.1-20.3
						c-28.7-0.6-21,19.6-28.7,24.6c-7.7,4.9-9.8-2.8-17.5,2.1c-7.7,4.9-4.2,14.7-10.5,16.1c-6.3,1.4-14.7-6.3-22.5-1.4
						c-7.8,4.9-7.7,9.1-11.2,9.1c-3.5,0-10.5-2.8-14.7,0c-4.2,2.8-9,6.3-9,6.3h177.1C956.3,406.3,958.4,399.9,950.7,395.7z"/>
				</g>
				<g class="st5">
					<path class="st1" d="M490.5,394.3c-4.8-2.6-7-0.5-8.7-2.6c-1.8-2.2,4.8-7.9-8.3-13.5c0,0-0.9-12.3-18.8-12.7
						c-17.9-0.4-13.1,12.3-18,15.3c-4.9,3.1-6.1-1.8-10.9,1.3c-4.8,3.1-2.6,9.2-6.5,10.1c-3.9,0.9-9.2-3.9-14-0.9
						c-4.8,3.1-4.8,5.7-7,5.7c-2.2,0-6.6-1.7-9.2,0c-2.6,1.7-5.7,3.9-5.7,3.9h110.5C493.9,400.9,495.3,396.9,490.5,394.3z"/>
				</g>
				<path class="st6" d="M56.6,744.7V557.1h111.2V332h74.9v49.4h41.9v145.4h101.8v-79.6h47.9v43.9h35.3h15.8l1.3,16.5h41.4v-65.9
					h32.9V236h80.8v79.6h59.9V215.3h65.9V461h68.9v90.6h48.1v197.2"/>
				<path class="st6" d="M197.2,380.8H181v17.6h16.2V380.8z"/>
				<path class="st6" d="M230.9,380.8h-16.2v17.6h16.2V380.8z"/>
				<path class="st6" d="M197.2,417.4H181V435h16.2V417.4z"/>
				<path class="st6" d="M230.9,417.4h-16.2V435h16.2V417.4z"/>
				<path class="st6" d="M267.3,417.4h-16.2V435h16.2V417.4z"/>
				<path class="st6" d="M267.3,454h-16.2v17.6h16.2V454z"/>
				<path class="st6" d="M267.3,490.7h-16.2v17.6h16.2V490.7z"/>
				<path class="st6" d="M267.3,527.3h-16.2v17.6h16.2V527.3z"/>
				<path class="st6" d="M267.3,563.9h-16.2v17.6h16.2V563.9z"/>
				<path class="st6" d="M267.3,600.6h-16.2v17.6h16.2V600.6z"/>
				<path class="st6" d="M197.2,454H181v17.6h16.2V454z"/>
				<path class="st6" d="M230.9,454h-16.2v17.6h16.2V454z"/>
				<path class="st6" d="M197.2,490.7H181v17.6h16.2V490.7z"/>
				<path class="st6" d="M230.9,490.7h-16.2v17.6h16.2V490.7z"/>
				<path class="st6" d="M197.2,527.3H181v17.6h16.2V527.3z"/>
				<path class="st6" d="M230.9,527.3h-16.2v17.6h16.2V527.3z"/>
				<path class="st6" d="M197.2,563.9H181v17.6h16.2V563.9z"/>
				<path class="st6" d="M356.4,544.9h-16.2v17.6h16.2V544.9z"/>
				<path class="st6" d="M388.8,544.9h-16.2v17.6h16.2V544.9z"/>
				<path class="st6" d="M728.5,260.6h-16.2v17.6h16.2V260.6z"/>
				<path class="st6" d="M748.8,260.6h-16.2v17.6h16.2V260.6z"/>
				<path class="st6" d="M728.5,297.2h-16.2v17.6h16.2V297.2z"/>
				<path class="st6" d="M748.8,297.2h-16.2v17.6h16.2V297.2z"/>
				<path class="st6" d="M728.5,333.9h-16.2v17.6h16.2V333.9z"/>
				<path class="st6" d="M748.8,333.9h-16.2v17.6h16.2V333.9z"/>
				<path class="st6" d="M728.5,370.5h-16.2v17.6h16.2V370.5z"/>
				<path class="st6" d="M748.8,370.5h-16.2v17.6h16.2V370.5z"/>
				<path class="st6" d="M728.5,407.1h-16.2v17.6h16.2V407.1z"/>
				<path class="st6" d="M748.8,407.1h-16.2v17.6h16.2V407.1z"/>
				<path class="st6" d="M590.9,407.1h-16.2v17.6h16.2V407.1z"/>
				<path class="st6" d="M626,407.1h-16.2v17.6H626V407.1z"/>
				<path class="st6" d="M661.1,407.1h-16.2v17.6h16.2V407.1z"/>
				<path class="st6" d="M590.9,486.3h-16.2v17.6h16.2V486.3z"/>
				<path class="st6" d="M626,486.3h-16.2v17.6H626V486.3z"/>
				<path class="st6" d="M661.1,486.3h-16.2v17.6h16.2V486.3z"/>
				<path class="st6" d="M590.9,565.4h-16.2V583h16.2V565.4z"/>
				<path class="st6" d="M626,565.4h-16.2V583H626V565.4z"/>
				<path class="st6" d="M661.1,565.4h-16.2V583h16.2V565.4z"/>
				<path class="st6" d="M728.5,443.8h-16.2v17.6h16.2V443.8z"/>
				<path class="st6" d="M748.8,443.8h-16.2v17.6h16.2V443.8z"/>
				<path class="st6" d="M728.5,480.4h-16.2V498h16.2V480.4z"/>
				<path class="st6" d="M748.8,480.4h-16.2V498h16.2V480.4z"/>
				<path class="st6" d="M728.5,517.1h-16.2v17.6h16.2V517.1z"/>
				<path class="st6" d="M748.8,517.1h-16.2v17.6h16.2V517.1z"/>
				<path class="st6" d="M782.5,480.4h-16.2V498h16.2V480.4z"/>
				<path class="st6" d="M820.3,480.4h-16.2V498h16.2V480.4z"/>
				<path class="st6" d="M782.5,515.6h-16.2v17.6h16.2V515.6z"/>
				<path class="st6" d="M820.3,515.6h-16.2v17.6h16.2V515.6z"/>
				<path class="st6" d="M782.5,550.7h-16.2v17.6h16.2V550.7z"/>
				<path class="st6" d="M820.3,550.7h-16.2v17.6h16.2V550.7z"/>
				<path class="st6" d="M782.5,585.9h-16.2v17.6h16.2V585.9z"/>
				<path class="st6" d="M820.3,585.9h-16.2v17.6h16.2V585.9z"/>
				<path class="st6" d="M728.5,553.7h-16.2v17.6h16.2V553.7z"/>
				<path class="st6" d="M748.8,553.7h-16.2v17.6h16.2V553.7z"/>
				<path class="st6" d="M728.5,590.3h-16.2v17.6h16.2V590.3z"/>
				<path class="st6" d="M748.8,590.3h-16.2v17.6h16.2V590.3z"/>
				<path class="st6" d="M230.9,563.9h-16.2v17.6h16.2V563.9z"/>
				<path class="st6" d="M197.2,600.6H181v17.6h16.2V600.6z"/>
				<path class="st6" d="M230.9,600.6h-16.2v17.6h16.2V600.6z"/>
				<path class="st6" d="M197.2,637.2H181v17.6h16.2V637.2z"/>
				<path class="st6" d="M230.9,637.2h-16.2v17.6h16.2V637.2z"/>
				<path class="st6" d="M197.2,673.8H181v17.6h16.2V673.8z"/>
				<path class="st6" d="M230.9,673.8h-16.2v17.6h16.2V673.8z"/>
			</g>
			<path class="st7" d="M878.6,727.6H660.5V213.7h218L878.6,727.6L878.6,727.6z M662.7,725.3h213.6V215.9H662.7V725.3z M631.9,727.6
				H413.9V213.7h218.1V727.6z M416.1,725.3h213.6V215.9H416.1V725.3z M385.4,727.6H167.3V213.7h218.1V727.6z M169.5,725.3h213.6
				V215.9H169.5V725.3z"/>
			<path class="st7" d="M839.4,315.8c-4.3-13.9-21.2-20.9-33.3-26.1c-5.6-2.4-7.3-6.8-7.7-12.8c0-0.7,0-4.5,0.1-8.3h-23.9
				c0.1,3.8,0.2,7.6,0.2,8.3c-0.4,6-2,10.4-7.7,12.8c-12,5.2-29,12.1-33.3,26.1c-1.1,3.5-1.6,7.2-1.5,10.8h108.5
				C841,323,840.5,319.3,839.4,315.8z"/>
			<path class="st7" d="M788.3,153h-3.2v117.8h3.2V153z"/>
			<path class="st7" d="M319.8,315.8c-4.3-13.9-21.2-20.9-33.2-26.1c-5.6-2.4-7.3-6.8-7.7-12.8c0-0.7,0-4.5,0.1-8.3h-23.9
				c0,3.8,0.2,7.6,0.2,8.3c-0.4,6-2,10.4-7.7,12.8c-12,5.2-29,12.1-33.3,26.1c-1.1,3.5-1.6,7.2-1.5,10.8h108.5
				C321.4,323,320.9,319.3,319.8,315.8z"/>
			<path class="st7" d="M268.6,153h-3.2v117.8h3.2V153z"/>
			<path class="st1" d="M1374.6,900.9c30.3,3.4,60.9,2.7,91.1-2c27.5-4.6,54.1-13.1,79.2-25.1c129.7-59.7,226.5-205,214-351.1
				c-7.4-80.8-55-147-139.2-181.2c-60.2-24.6-164.7,14.4-221.9-21.4c-59.7-37.3-59.2-109.6-183.5-139.9
				c-79.1-19.6-164.4,50.2-198.3,116.4c-40.5,82.4-35.5,173.5-12.1,273.2C1040.2,727.4,1209.6,882.7,1374.6,900.9z"/>
			<defs>
				
					<filter id="Adobe_OpacityMaskFilter_00000044884744655757185460000001462469459213764016_" filterUnits="userSpaceOnUse" x="882.6" y="215.3" width="900" height="533.4">
					<feColorMatrix  type="matrix" values="1 0 0 0 0  0 1 0 0 0  0 0 1 0 0  0 0 0 1 0"/>
				</filter>
			</defs>
			
				<mask maskUnits="userSpaceOnUse" x="882.6" y="215.3" width="900" height="533.4" id="mask1_819_1749_00000054986990972139309580000012087582215780840885_">
				<path style="fill:#FFFFFF;filter:url(#Adobe_OpacityMaskFilter_00000044884744655757185460000001462469459213764016_);" d="
					M1210.2,726.5H994.4V214.8h215.8V726.5z M1456.8,214.8H1241v511.7h215.8V214.8z M1703.4,214.8h-215.8v511.7h215.8L1703.4,214.8
					L1703.4,214.8z"/>
			</mask>
			<g class="st9">
				<path class="st4" d="M1467.7,312.3v3.3h1.9C1469,314.5,1468.4,313.4,1467.7,312.3z"/>
				<g class="st5">
					<path class="st1" d="M1277.6,315.3c-7.7-4.2-11.2-0.7-14-4.2c-2.8-3.5,7.7-12.6-13.3-21.7c0,0-1.4-19.6-30.1-20.3
						c-28.7-0.6-21,19.6-28.7,24.5c-7.7,4.9-9.8-2.8-17.5,2.1c-7.7,4.9-4.2,14.7-10.5,16.1c-6.3,1.4-14.7-6.3-22.5-1.4
						c-7.8,4.9-7.7,9.1-11.2,9.1c-3.5,0-10.5-2.8-14.7,0c-4.2,2.8-9,6.3-9,6.3h177.1C1283.1,325.9,1285.3,319.5,1277.6,315.3z"/>
				</g>
				<g class="st5">
					<path class="st1" d="M1776.7,395.7c-7.7-4.2-11.2-0.7-14-4.2c-2.8-3.5,7.7-12.6-13.3-21.7c0,0-1.4-19.6-30.1-20.3
						c-28.7-0.6-21,19.6-28.7,24.6c-7.7,4.9-9.8-2.8-17.5,2.1c-7.7,4.9-4.2,14.7-10.5,16.1c-6.3,1.4-14.7-6.3-22.5-1.4
						c-7.8,4.9-7.7,9.1-11.2,9.1s-10.5-2.8-14.7,0c-4.2,2.8-9,6.3-9,6.3h177.1C1782.3,406.3,1784.4,399.9,1776.7,395.7z"/>
				</g>
				<g class="st5">
					<path class="st1" d="M1316.5,394.3c-4.8-2.6-7-0.5-8.7-2.6c-1.8-2.2,4.8-7.9-8.3-13.5c0,0-0.9-12.3-18.8-12.7
						c-17.9-0.4-13.1,12.3-18,15.3s-6.1-1.8-10.9,1.3c-4.8,3.1-2.6,9.2-6.5,10.1c-3.9,0.9-9.2-3.9-14-0.9c-4.8,3.1-4.8,5.7-7,5.7
						c-2.2,0-6.6-1.7-9.2,0c-2.6,1.7-5.7,3.9-5.7,3.9h110.5C1319.9,400.9,1321.3,396.9,1316.5,394.3z"/>
				</g>
				<path class="st6" d="M882.6,744.7V557.1h111.2V332h74.9v49.4h41.9v145.4h101.8v-79.6h47.9v43.9h35.2h15.8l1.3,16.5h41.4v-65.9
					h32.9V236h80.9v79.6h59.9V215.3h65.9V461h68.9v90.6h48.1v197.2"/>
				<path class="st6" d="M1023.2,380.8H1007v17.6h16.2V380.8z"/>
				<path class="st6" d="M1056.9,380.8h-16.2v17.6h16.2V380.8z"/>
				<path class="st6" d="M1023.2,417.4H1007V435h16.2V417.4z"/>
				<path class="st6" d="M1056.9,417.4h-16.2V435h16.2V417.4z"/>
				<path class="st6" d="M1093.3,417.4h-16.2V435h16.2V417.4z"/>
				<path class="st6" d="M1093.3,454h-16.2v17.6h16.2V454z"/>
				<path class="st6" d="M1093.3,490.7h-16.2v17.6h16.2V490.7z"/>
				<path class="st6" d="M1093.3,527.3h-16.2v17.6h16.2V527.3z"/>
				<path class="st6" d="M1093.3,563.9h-16.2v17.6h16.2V563.9z"/>
				<path class="st6" d="M1093.3,600.6h-16.2v17.6h16.2V600.6z"/>
				<path class="st6" d="M1023.2,454H1007v17.6h16.2V454z"/>
				<path class="st6" d="M1056.9,454h-16.2v17.6h16.2V454z"/>
				<path class="st6" d="M1023.2,490.7H1007v17.6h16.2V490.7z"/>
				<path class="st6" d="M1056.9,490.7h-16.2v17.6h16.2V490.7z"/>
				<path class="st6" d="M1023.2,527.3H1007v17.6h16.2V527.3z"/>
				<path class="st6" d="M1056.9,527.3h-16.2v17.6h16.2V527.3z"/>
				<path class="st6" d="M1023.2,563.9H1007v17.6h16.2V563.9z"/>
				<path class="st6" d="M1182.4,544.9h-16.2v17.6h16.2V544.9z"/>
				<path class="st6" d="M1214.8,544.9h-16.2v17.6h16.2V544.9z"/>
				<path class="st6" d="M1554.5,260.6h-16.2v17.6h16.2V260.6z"/>
				<path class="st6" d="M1574.8,260.6h-16.2v17.6h16.2V260.6z"/>
				<path class="st6" d="M1554.5,297.2h-16.2v17.6h16.2V297.2z"/>
				<path class="st6" d="M1574.8,297.2h-16.2v17.6h16.2V297.2z"/>
				<path class="st6" d="M1554.5,333.9h-16.2v17.6h16.2V333.9z"/>
				<path class="st6" d="M1574.8,333.9h-16.2v17.6h16.2V333.9z"/>
				<path class="st6" d="M1554.5,370.5h-16.2v17.6h16.2V370.5z"/>
				<path class="st6" d="M1574.8,370.5h-16.2v17.6h16.2V370.5z"/>
				<path class="st6" d="M1554.5,407.1h-16.2v17.6h16.2V407.1z"/>
				<path class="st6" d="M1574.8,407.1h-16.2v17.6h16.2V407.1z"/>
				<path class="st6" d="M1416.9,407.1h-16.2v17.6h16.2V407.1z"/>
				<path class="st6" d="M1452,407.1h-16.2v17.6h16.2V407.1z"/>
				<path class="st6" d="M1487.1,407.1h-16.2v17.6h16.2V407.1z"/>
				<path class="st6" d="M1416.9,486.3h-16.2v17.6h16.2V486.3z"/>
				<path class="st6" d="M1452,486.3h-16.2v17.6h16.2V486.3z"/>
				<path class="st6" d="M1487.1,486.3h-16.2v17.6h16.2V486.3z"/>
				<path class="st6" d="M1416.9,565.4h-16.2V583h16.2V565.4z"/>
				<path class="st6" d="M1452,565.4h-16.2V583h16.2V565.4z"/>
				<path class="st6" d="M1487.1,565.4h-16.2V583h16.2V565.4z"/>
				<path class="st6" d="M1554.5,443.8h-16.2v17.6h16.2V443.8z"/>
				<path class="st6" d="M1574.8,443.8h-16.2v17.6h16.2V443.8z"/>
				<path class="st6" d="M1554.5,480.4h-16.2V498h16.2V480.4z"/>
				<path class="st6" d="M1574.8,480.4h-16.2V498h16.2V480.4z"/>
				<path class="st6" d="M1554.5,517.1h-16.2v17.6h16.2V517.1z"/>
				<path class="st6" d="M1574.8,517.1h-16.2v17.6h16.2V517.1z"/>
				<path class="st6" d="M1608.5,480.4h-16.2V498h16.2V480.4z"/>
				<path class="st6" d="M1646.3,480.4h-16.2V498h16.2V480.4z"/>
				<path class="st6" d="M1608.5,515.6h-16.2v17.6h16.2V515.6z"/>
				<path class="st6" d="M1646.3,515.6h-16.2v17.6h16.2V515.6z"/>
				<path class="st6" d="M1608.5,550.7h-16.2v17.6h16.2V550.7z"/>
				<path class="st6" d="M1646.3,550.7h-16.2v17.6h16.2V550.7z"/>
				<path class="st6" d="M1608.5,585.9h-16.2v17.6h16.2V585.9z"/>
				<path class="st6" d="M1646.3,585.9h-16.2v17.6h16.2V585.9z"/>
				<path class="st6" d="M1554.5,553.7h-16.2v17.6h16.2V553.7z"/>
				<path class="st6" d="M1574.8,553.7h-16.2v17.6h16.2V553.7z"/>
				<path class="st6" d="M1554.5,590.3h-16.2v17.6h16.2V590.3z"/>
				<path class="st6" d="M1574.8,590.3h-16.2v17.6h16.2V590.3z"/>
				<path class="st6" d="M1056.9,563.9h-16.2v17.6h16.2V563.9z"/>
				<path class="st6" d="M1023.2,600.6H1007v17.6h16.2V600.6z"/>
				<path class="st6" d="M1056.9,600.6h-16.2v17.6h16.2V600.6z"/>
				<path class="st6" d="M1023.2,637.2H1007v17.6h16.2V637.2z"/>
				<path class="st6" d="M1056.9,637.2h-16.2v17.6h16.2V637.2z"/>
				<path class="st6" d="M1023.2,673.8H1007v17.6h16.2V673.8z"/>
				<path class="st6" d="M1056.9,673.8h-16.2v17.6h16.2V673.8z"/>
			</g>
			<path class="st7" d="M1704.6,727.6h-218.1V213.7h218L1704.6,727.6L1704.6,727.6z M1488.7,725.3h213.6V215.9h-213.6V725.3z
				 M1457.9,727.6h-218.1V213.7h218.1V727.6z M1242.1,725.3h213.6V215.9h-213.6V725.3z M1211.4,727.6H993.3V213.7h218.1V727.6z
				 M995.5,725.3h213.6V215.9H995.5V725.3z"/>
			<path class="st7" d="M1665.4,315.8c-4.3-13.9-21.2-20.9-33.2-26.1c-5.7-2.4-7.3-6.8-7.7-12.8c0-0.7,0-4.5,0.1-8.3h-23.9
				c0.1,3.8,0.2,7.6,0.2,8.3c-0.4,6-2,10.4-7.7,12.8c-12,5.2-29,12.1-33.3,26.1c-1.1,3.5-1.6,7.2-1.5,10.8h108.5
				C1667,323,1666.5,319.3,1665.4,315.8z"/>
			<path class="st7" d="M1614.3,153h-3.2v117.8h3.2V153z"/>
			<path class="st7" d="M1145.8,315.8c-4.3-13.9-21.2-20.9-33.2-26.1c-5.7-2.4-7.3-6.8-7.7-12.8c0-0.7,0-4.5,0.1-8.3h-23.9
				c0,3.8,0.2,7.6,0.2,8.3c-0.4,6-2,10.4-7.7,12.8c-12,5.2-29,12.1-33.3,26.1c-1.1,3.5-1.6,7.2-1.5,10.8h108.5
				C1147.4,323,1146.9,319.3,1145.8,315.8z"/>
			<path class="st7" d="M1094.6,153h-3.2v117.8h3.2V153z"/>
		</g>
		<g>
			<defs>
				<rect id="SVGID_1_" x="221" y="354" width="382" height="377"/>
			</defs>
			<clipPath id="SVGID_00000101798988447453656080000015599678973450238369_">
				<use xlink:href="#SVGID_1_"  style="overflow:visible;"/>
			</clipPath>
			<g style="clip-path:url(#SVGID_00000101798988447453656080000015599678973450238369_);">
				<path class="st1" d="M314.1,495.7c0,0,0-6.1-8.6-14.7c-8.6-8.5-14.1-13.5-14.1-13.5s-4.3,14.1,3.7,22.7c5.9,6,12.2,11.6,19,16.5
					V495.7z"/>
				<path class="st1" d="M301.6,534c0,0,0-6.1-8.6-14.7c-8.6-8.6-14.1-13.5-14.1-13.5s-4.3,14.1,3.7,22.7c5.9,6,12.2,11.5,19,16.5
					V534z"/>
				<path class="st1" d="M313.6,506.2c0,0,0.7-6.1,10.1-13.7c9.4-7.6,15.5-11.9,15.5-11.9s2.8,14.5-6.1,22.2
					c-6.5,5.4-13.4,10.2-20.7,14.4L313.6,506.2z"/>
				<path class="st1" d="M298.5,551.3c0,0,1.3-6,11.4-12.6s16.6-10.2,16.6-10.2s1.2,14.7-8.4,21.4c-7,4.7-14.4,8.8-22.1,12.2
					L298.5,551.3z"/>
				<path class="st1" d="M301.3,600.6c0,0,0-6.1,8.6-14.7c8.6-8.5,14.1-13.5,14.1-13.5s4.3,14.1-3.7,22.7c-5.9,6-12.2,11.6-19,16.5
					V600.6z"/>
				<path class="st1" d="M301.2,612.6c0,0,0.9-6.1-6.4-15.8c-7.3-9.7-12.1-15.3-12.1-15.3s-6.3,13.3,0.4,23
					c5,6.8,10.5,13.2,16.5,19.1L301.2,612.6z"/>
				<path class="st1" d="M292.7,648.3c0,0,0-6.1,8.6-14.7s14.1-13.5,14.1-13.5s4.3,14.1-3.7,22.7c-5.9,6-12.2,11.6-19,16.5V648.3z"
					/>
				<path class="st1" d="M298.5,680.6c0,0-1.6-5.9,4.6-16.4c6.1-10.5,10.2-16.6,10.2-16.6s7.7,12.6,2.2,22.8
					c-4.2,7.3-8.9,14.3-14.2,20.8L298.5,680.6z"/>
				<path class="st7" d="M306.9,710.6c-0.3,0-0.7-0.2-0.8-0.6c-0.1-0.4-11.9-36.9-14.2-50.4c-1.3-8,0.8-15.3,3.3-23.7
					c1.8-6.2,3.9-13.1,5-21.7c1.3-10-0.5-20-2.2-29.7c-1.7-9.7-3.3-18.8-1.6-26.9c1.6-7.6,4.4-14,7.3-20.8c3.1-7.2,6.3-14.7,8-23.8
					c1.1-6.2,1.9-12.6,2.3-18.9c0-0.5,0.4-0.8,0.9-0.8c0.5,0,0.8,0.4,0.8,0.9c-0.4,6.4-1.2,12.8-2.4,19.1c-1.8,9.3-5,16.8-8.1,24.1
					c-2.9,6.7-5.6,13.1-7.2,20.5c-1.7,7.8-0.1,16.7,1.6,26.3c1.7,9.8,3.5,19.9,2.2,30.2c-1.1,8.7-3.2,15.7-5,21.9
					c-2.5,8.6-4.5,15.4-3.3,23c2.2,13.3,14,49.8,14.1,50.2c0.1,0.4-0.1,0.9-0.5,1C307,710.6,306.9,710.6,306.9,710.6L306.9,710.6z"
					/>
				<path class="st7" d="M313.5,511c-0.2,0-0.5-0.1-0.7-0.3c-0.3-0.4-0.2-0.9,0.1-1.1l9.3-7.1c0.4-0.3,0.9-0.2,1.1,0.1
					c0.3,0.4,0.2,0.9-0.1,1.1l-9.3,7.1C313.8,511,313.7,511,313.5,511L313.5,511z"/>
				<path class="st7" d="M313.9,502.9c-0.3,0-0.6-0.1-0.7-0.4l-3.9-6.9c-0.2-0.4-0.1-0.9,0.3-1.1c0.4-0.2,0.9-0.1,1.1,0.3l3.9,6.9
					c0.2,0.4,0.1,0.9-0.3,1.1C314.2,502.8,314.1,502.9,313.9,502.9z"/>
				<path class="st7" d="M297.8,557.9c-0.2,0-0.5-0.1-0.7-0.3c-0.3-0.4-0.2-0.9,0.2-1.1c0.1-0.1,7.8-5.9,15.7-11.6
					c0.4-0.3,0.9-0.2,1.1,0.2c0.3,0.4,0.2,0.9-0.2,1.1c-7.9,5.7-15.6,11.5-15.7,11.6C298.1,557.9,297.9,557.9,297.8,557.9
					L297.8,557.9z"/>
				<path class="st7" d="M301.6,545.8c-0.3,0-0.6-0.2-0.7-0.4c-3.8-7.4-8.5-14.4-13.7-20.9c-0.3-0.3-0.2-0.9,0.1-1.1
					c0.3-0.3,0.9-0.2,1.1,0.1c5.3,6.5,10,13.7,13.9,21.2c0.2,0.4,0,0.9-0.3,1.1C301.9,545.8,301.8,545.8,301.6,545.8L301.6,545.8z"
					/>
				<path class="st7" d="M301.6,610.1c-0.1,0-0.3,0-0.4-0.1c-0.4-0.2-0.5-0.7-0.3-1.1c4.5-8.2,10.1-15.7,16.7-22.3
					c0.3-0.3,0.8-0.3,1.2,0c0.3,0.3,0.3,0.8,0,1.2c-6.5,6.5-12.1,13.9-16.4,21.9C302.2,610,302,610.1,301.6,610.1L301.6,610.1z"/>
				<path class="st7" d="M300.1,618.8c-0.3,0-0.6-0.2-0.8-0.5c-2.3-5.5-5.1-10.8-8.3-15.8c-4.4-6.5-5.1-7.4-5.1-7.5
					c-0.3-0.4-0.2-0.9,0.2-1.1c0.4-0.3,0.9-0.2,1.1,0.2c0,0,0.7,1,5.2,7.5c3.3,5.1,6.1,10.5,8.5,16c0.2,0.4,0,0.9-0.4,1.1
					C300.4,618.8,300.3,618.8,300.1,618.8z"/>
				<path class="st7" d="M292.7,660.3c-0.1,0-0.2,0-0.3-0.1c-0.4-0.2-0.6-0.6-0.5-1.1c2-4.9,4.3-9.7,7-14.2c2.7-4.2,5.8-8.2,9.2-12
					c0.3-0.3,0.8-0.4,1.2-0.1c0.3,0.3,0.4,0.8,0.1,1.2c-3.3,3.6-6.3,7.6-9,11.7c-2.6,4.4-5,9.1-6.9,14
					C293.3,660.1,293,660.3,292.7,660.3z"/>
				<path class="st7" d="M301.3,692c-0.4,0-0.8-0.3-0.8-0.7c-0.5-4.8,0.4-9.6,2.4-14c2.5-4.8,5.2-10.7,7-14.6c0.6-1.2,1-2.3,1.4-3
					c0.2-0.4,0.7-0.6,1.1-0.4c0.4,0.2,0.6,0.7,0.4,1.1c-0.4,0.8-0.8,1.8-1.4,3c-1.8,3.9-4.5,9.8-7,14.6c-1.9,4.1-2.7,8.6-2.3,13.1
					C302.1,691.6,301.8,692,301.3,692C301.3,692,301.3,692,301.3,692L301.3,692z"/>
				<path class="st1" d="M244,577.6c0,0-0.7-3.8,3.8-10.2c4.5-6.3,7.4-10,7.4-10s4.2,8.4,0.2,14.7c-3,4.4-6.4,8.6-10.2,12.4
					L244,577.6z"/>
				<path class="st1" d="M255.9,600.2c0,0-0.7-3.8,3.8-10.1c4.4-6.3,7.4-10,7.4-10s4.2,8.4,0.2,14.7c-3,4.4-6.4,8.6-10.1,12.4
					L255.9,600.2z"/>
				<path class="st1" d="M245.4,584c0,0-1.1-3.8-7.8-7.5c-6.8-3.8-11-5.8-11-5.8s-0.2,9.4,6.2,13.2c4.7,2.7,9.5,4.9,14.6,6.8
					L245.4,584z"/>
				<path class="st1" d="M259.8,610.7c0,0-1.5-3.6-8.6-6.6c-7.1-3-11.6-4.6-11.6-4.6s0.8,9.3,7.6,12.5c4.9,2.2,10,3.9,15.2,5.2
					L259.8,610.7z"/>
				<path class="st1" d="M263.4,641.9c0,0-0.7-3.8-7-8.3c-6.3-4.5-10.3-6.9-10.3-6.9s-1.2,9.3,4.8,13.8c4.3,3.1,8.9,5.9,13.7,8.3
					L263.4,641.9z"/>
				<path class="st1" d="M264.8,649.5c0,0-1.2-3.7,2.3-10.6c3.5-6.9,5.9-10.9,5.9-10.9s5.4,7.7,2.2,14.4c-2.4,4.8-5.1,9.4-8.3,13.7
					L264.8,649.5z"/>
				<path class="st1" d="M275.6,680.4c0,0,0.5-3.9,6.5-8.7c6.1-4.8,9.9-7.5,9.9-7.5s1.6,9.2-4,14.1c-4.2,3.4-8.6,6.4-13.2,9.1
					L275.6,680.4z"/>
				<path class="st1" d="M274,670.9c0,0-0.7-3.8-7-8.3c-6.3-4.5-10.3-6.9-10.3-6.9s-1.2,9.3,4.8,13.8c4.3,3.1,8.9,5.9,13.7,8.3
					L274,670.9z"/>
				<path class="st1" d="M273.9,691.8c0,0,0.3-3.9-4.7-9.8c-5-5.9-8.2-9.3-8.2-9.3s-3.5,8.7,1.1,14.6c3.4,4.1,7.1,8,11.2,11.5
					L273.9,691.8z"/>
				<path class="st7" d="M271.8,711.9c0,0-0.1,0-0.1,0c-0.4-0.1-0.8-0.5-0.7-0.9c0-0.2,3.5-24.3,3.4-33c0-4.8-2-8.8-4.5-13.8
					c-1.8-3.8-4-8-5.6-13.4c-1.9-6.3-1.9-12.9-1.9-19.2c0-6.1,0-12-1.9-16.6c-1.8-4.5-4.2-8.2-6.7-12c-2.8-4.3-5.6-8.7-7.8-14.3
					c-1.4-3.8-2.6-7.8-3.6-11.8c-0.1-0.4,0.2-0.9,0.6-1c0.4-0.1,0.9,0.2,1,0.6c0.9,3.9,2.1,7.8,3.5,11.6c2.1,5.5,4.9,9.8,7.6,14
					c2.6,4,5,7.7,6.8,12.3c2,4.9,2,10.9,2,17.2c0,6.2,0,12.6,1.8,18.7c1.6,5.3,3.7,9.5,5.5,13.1c2.5,5,4.6,9.3,4.7,14.5
					c0.1,8.7-3.3,32.2-3.4,33.2C272.5,711.6,272.2,711.9,271.8,711.9L271.8,711.9z"/>
				<path class="st7" d="M245.9,587.4c-0.1,0-0.3,0-0.4-0.1l-6.6-3.5c-0.4-0.2-0.6-0.7-0.3-1.1c0.2-0.4,0.7-0.6,1.1-0.3l6.6,3.5
					c0.4,0.2,0.6,0.7,0.3,1.1C246.5,587.2,246.2,587.4,245.9,587.4L245.9,587.4z"/>
				<path class="st7" d="M244.8,582.3c-0.1,0-0.2,0-0.3,0c-0.4-0.1-0.7-0.6-0.5-1l1.7-4.7c0.1-0.4,0.6-0.7,1-0.5
					c0.4,0.1,0.7,0.6,0.5,1l-1.7,4.7C245.4,582.1,245.1,582.3,244.8,582.3z"/>
				<path class="st7" d="M260.9,615.1c-0.1,0-0.2,0-0.4-0.1c0,0-5.5-2.8-11.1-5.6c-0.4-0.2-0.6-0.7-0.4-1.1c0.2-0.4,0.7-0.6,1.1-0.4
					c5.6,2.8,11.1,5.6,11.1,5.6c0.4,0.2,0.6,0.7,0.4,1.1C261.4,614.9,261.2,615.1,260.9,615.1L260.9,615.1z"/>
				<path class="st7" d="M257.1,607.9c0,0-0.2,0-0.2,0c-0.4-0.1-0.7-0.6-0.5-1c1.6-5.1,3.8-10.1,6.4-14.8c0.2-0.4,0.7-0.5,1.1-0.3
					c0.4,0.2,0.5,0.7,0.3,1.1c-2.6,4.6-4.7,9.5-6.3,14.5C257.8,607.7,257.5,607.9,257.1,607.9L257.1,607.9z"/>
				<path class="st7" d="M264.1,648.3c-0.2,0-0.5-0.1-0.6-0.3c-3.6-4.6-7.9-8.6-12.6-11.9c-0.4-0.3-0.5-0.8-0.2-1.1
					c0.3-0.4,0.8-0.5,1.1-0.2c4.9,3.4,9.3,7.6,13,12.3c0.3,0.4,0.2,0.9-0.1,1.1C264.5,648.2,264.3,648.3,264.1,648.3L264.1,648.3z"
					/>
				<path class="st7" d="M266,653.5c0,0-0.1,0-0.2,0c-0.4-0.1-0.7-0.5-0.6-1c0.9-3.8,2.1-7.5,3.6-11c2.1-4.7,2.5-5.3,2.5-5.3
					c0.2-0.4,0.7-0.6,1.1-0.4c0.4,0.2,0.6,0.7,0.4,1.1c0,0-0.4,0.7-2.4,5.2c-1.4,3.4-2.6,7.1-3.5,10.7
					C266.8,653.2,266.4,653.5,266,653.5L266,653.5z"/>
				<path class="st7" d="M274.9,685.4c-0.2,0-0.4-0.1-0.5-0.2c-0.3-0.3-0.4-0.8-0.1-1.1c2.2-2.7,4.6-5.2,7.2-7.4
					c1.7-1.2,3.2-2.5,4.5-3.9c0.3-0.3,0.8-0.3,1.2,0c0.3,0.3,0.3,0.8,0,1.2c-1.5,1.5-3,2.9-4.7,4.1c-2.5,2.2-4.8,4.6-6.9,7.2
					C275.4,685.3,275.1,685.4,274.9,685.4L274.9,685.4z"/>
				<path class="st7" d="M275.2,678.8c-0.3,0-0.5-0.1-0.7-0.4c-1.7-2.8-3.7-5.5-5.9-8.1c-2.1-2.2-4.4-4.4-6.9-6.3
					c-0.4-0.3-0.4-0.8-0.1-1.1c0.3-0.4,0.8-0.4,1.1-0.1c2.5,2,4.9,4.2,7.1,6.5c2.2,2.6,4.2,5.4,6,8.3c0.2,0.4,0.1,0.9-0.3,1.1
					C275.5,678.7,275.3,678.8,275.2,678.8L275.2,678.8z"/>
				<path class="st7" d="M273.3,699.6c-0.4,0-0.8-0.3-0.8-0.8c-0.2-2.8-1.2-5.5-2.8-7.9c-2.2-2.9-4.8-6.6-6.3-8.9l-0.9-1.3
					c-0.3-0.4-0.2-0.9,0.2-1.1c0.4-0.3,0.9-0.2,1.1,0.2l0.9,1.3c1.5,2.2,4.1,5.9,6.3,8.8c1.8,2.6,2.9,5.6,3.1,8.7
					C274.1,699.2,273.8,699.5,273.3,699.6C273.3,699.6,273.3,699.6,273.3,699.6z"/>
				<path class="st4" d="M262.3,706.8h56.3v17.7c0,3.1-2.6,5.7-5.7,5.7H268c-3.2,0-5.7-2.6-5.7-5.7V706.8z"/>
				<path class="st7" d="M312.8,731H268c-3.6,0-6.5-2.9-6.5-6.5v-17.7c0-0.5,0.4-0.8,0.8-0.8h56.3c0.5,0,0.8,0.4,0.8,0.8v17.7
					C319.4,728.1,316.4,731,312.8,731z M263.1,707.6v16.9c0,2.7,2.2,4.9,4.9,4.9h44.8c2.7,0,4.9-2.2,4.9-4.9v-16.9H263.1z"/>
				<path class="st4" d="M318,714.2h-55.7c-2.4,0-4.4-2-4.4-4.4c0-2.4,2-4.4,4.4-4.4H318c2.4,0,4.4,2,4.4,4.4
					C322.4,712.2,320.4,714.1,318,714.2C318,714.2,318,714.2,318,714.2z"/>
				<path class="st7" d="M318,715h-55.7c-2.9,0-5.2-2.3-5.2-5.2c0-2.9,2.4-5.2,5.2-5.2H318c2.9,0,5.2,2.3,5.2,5.2
					c0,1.4-0.5,2.7-1.5,3.7C320.7,714.4,319.4,715,318,715z M262.3,706.2c-2,0-3.6,1.6-3.6,3.6c0,2,1.6,3.6,3.6,3.6H318
					c0.9,0,1.8-0.4,2.5-1.1c0.7-0.7,1-1.6,1-2.5c0-2-1.6-3.6-3.6-3.6H262.3z"/>
				<path class="st4" d="M453.2,389.1c0,2.8-0.1,5.5-0.4,8.3c-0.4,1.7-3.5,4.4-2.6,6.5c0.9,2.2,2.6,8.3,2.6,8.3l-5.2,0.9
					c0,0-6.1,11.3-10,12.6c-3.9,1.3-21.4-8.2-21.4-8.2l-5.7,25.7l-13.5-12.6c0,0,5.7-15.7,6.1-19.6c0.4-3.9,0.9-31.8,4.8-40
					c3.9-8.3,12.2-14.4,26.6-12.6C448.8,360,458.9,372.9,453.2,389.1z"/>
				<path class="st7" d="M410.4,443.9c-0.2,0-0.4-0.1-0.6-0.2l-13.5-12.6c-0.2-0.2-0.3-0.6-0.2-0.9c0-0.2,5.6-15.6,6.1-19.4
					c0.1-0.8,0.2-2.7,0.3-5.2c0.5-9.9,1.4-28.4,4.6-35.1c4.8-10,14.5-14.6,27.4-13.1c7.6,0.9,14.1,4.9,17.8,10.8
					c3.7,6,4.3,13.4,1.7,20.9c0,2.7-0.1,5.5-0.4,8.2c-0.2,0.9-0.8,1.7-1.3,2.5c-0.8,1.2-1.8,2.6-1.4,3.6c0.9,2.2,2.6,8.1,2.6,8.4
					c0.1,0.2,0,0.5-0.1,0.7c-0.1,0.2-0.3,0.3-0.6,0.4l-4.8,0.8c-1.2,2.2-6.5,11.4-10.3,12.7c-3.7,1.2-17.1-5.6-21.1-7.7l-5.4,24.6
					c-0.1,0.3-0.3,0.5-0.6,0.6C410.6,443.9,410.5,443.9,410.4,443.9L410.4,443.9z M397.9,430.2l12.1,11.3l5.4-24.3
					c0-0.2,0.2-0.5,0.5-0.6c0.2-0.1,0.5-0.1,0.7,0c6.6,3.6,18.1,9,20.7,8.1c3-1,7.9-9.2,9.6-12.2c0.1-0.2,0.3-0.4,0.6-0.4l4.3-0.7
					c-0.5-1.8-1.7-5.7-2.3-7.3c-0.7-1.8,0.5-3.7,1.5-5.1c0.5-0.7,0.9-1.4,1.1-1.9c0.3-2.6,0.4-5.3,0.4-8.1c0-0.1,0-0.2,0-0.3
					c2.5-7.1,2-14.1-1.5-19.7c-3.4-5.5-9.5-9.2-16.6-10.1c-15.6-1.9-22.6,5.6-25.8,12.2c-3,6.4-4,25.4-4.4,34.5
					c-0.1,2.6-0.2,4.4-0.3,5.3C403.4,414.6,398.8,427.5,397.9,430.2z"/>
				<path class="st7" d="M429.6,387.3l-10.9,50.9L382.9,416c0,0,18.8-33.5,22.7-44c3.9-10.5,12.2-18.7,26.6-17
					c14.4,1.7,22.7,13.9,24.9,20.4c2.2,6.5-1.7,15.2-1.7,15.2L429.6,387.3z"/>
				<path class="st7" d="M418.7,439c-0.1,0-0.3,0-0.4-0.1l-35.8-22.2c-0.4-0.2-0.5-0.7-0.3-1.1c0.2-0.3,18.8-33.6,22.6-43.9
					c4.8-12.8,14.6-19.1,27.5-17.5c14.2,1.7,23.1,13.5,25.6,21c2.3,6.8-1.6,15.5-1.8,15.8c-0.1,0.3-0.5,0.5-0.9,0.5l-25-3.3
					l-10.7,50.2c0,0.3-0.2,0.5-0.5,0.6C419,439,418.9,439,418.7,439L418.7,439z M384,415.8l34.1,21.2l10.7-49.8
					c0.1-0.4,0.5-0.7,0.9-0.6l25.1,3.3c0.8-2,3.2-8.9,1.5-14.1c-2.4-7.1-10.8-18.3-24.2-19.9c-16.3-2-23.1,9.5-25.7,16.5
					C402.7,382,386.8,410.8,384,415.8L384,415.8z"/>
				<path class="st4" d="M414.5,566.5c0,0,78.4-3.1,83.9,4.3c5.5,7.4,14.2,110.7,21.7,128.1c3.8,8.7,31.4-0.1,28.9,4.8
					c-2.5,4.9-11.7,11.1-17.3,12.3c-5.6,1.2-9.3,4.3-16,6.2c-6.8,1.9-9.3-5.5-8.6-9.8c0.2-3.9,0-7.8-0.6-11.7c0,0-3.5-20.5-6.8-30.1
					C479,610.9,483,593,483,593s-37.6,13.5-68.5,12.3"/>
				<path class="st7" d="M513.6,723.3c-1.6,0-3.1-0.5-4.3-1.6c-2.6-2.3-3.5-6.4-3.1-9.4c0.2-3.8,0-7.6-0.6-11.4
					c0-0.2-3.5-20.6-6.8-30c-17.6-51-17.4-71.4-16.9-76.6c-6.9,2.3-40,13-67.5,11.9c-0.5,0-0.8-0.4-0.8-0.8c0-0.5,0.4-0.8,0.9-0.8
					c30.4,1.2,67.8-12.1,68.2-12.3c0.3-0.1,0.6,0,0.8,0.2c0.2,0.2,0.3,0.5,0.3,0.8c0,0.2-3.6,18.5,16.6,77.1
					c3.3,9.6,6.8,30.1,6.9,30.3c0.7,3.9,0.9,7.9,0.6,11.9c-0.4,2.5,0.4,6.1,2.5,8c1.3,1.2,3.1,1.5,5.1,0.9c3.3-0.9,5.8-2.1,8.3-3.2
					c2.5-1.2,4.9-2.3,7.8-2.9c5.3-1.2,14.3-7.1,16.7-11.9c0.1-0.1,0.1-0.2,0.1-0.2c-0.6-0.5-4.9-0.1-8,0.1c-8.2,0.7-18.5,1.5-20.9-4
					c-3.9-9.1-8.1-40.5-12-71c-3.4-26.3-7-53.6-9.6-57c-3.9-5.2-51.9-5.2-83.2-4c-0.4,0-0.8-0.3-0.9-0.8c0-0.5,0.3-0.8,0.8-0.8
					c8.1-0.3,78.9-2.9,84.6,4.6c2.8,3.7,6.1,28.8,9.9,57.7c3.8,28.9,8.1,61.7,11.9,70.5c2,4.5,12,3.7,19.3,3.1
					c5.8-0.5,8.7-0.7,9.6,0.7c0.2,0.3,0.4,0.9,0,1.7c-2.6,5.2-12.2,11.5-17.8,12.7c-2.7,0.6-5,1.7-7.5,2.8c-2.5,1.2-5.1,2.4-8.5,3.3
					C515.1,723.2,514.3,723.3,513.6,723.3L513.6,723.3z"/>
				<path class="st7" d="M549,703.7c1.4-2.9-7.4-1-15.7-0.8l1.6,5.1c0,0-8.6,2.8-15.7,4.6c-4,0.8-8.1,1.1-12.1,0.6
					c-0.2,4.4,2.4,10.6,8.7,8.9c6.8-1.9,10.5-4.9,16-6.2C537.3,714.8,546.6,708.6,549,703.7z"/>
				<path class="st7" d="M513.7,723.3c-1.5,0-2.9-0.5-4.1-1.4c-2.5-2-3.5-5.8-3.4-8.7c0-0.2,0.1-0.4,0.3-0.6
					c0.2-0.1,0.4-0.2,0.6-0.2c4,0.4,7.9,0.2,11.8-0.6c5.7-1.5,12.6-3.6,14.9-4.4l-1.3-4.3c-0.1-0.2,0-0.5,0.1-0.7
					c0.1-0.2,0.4-0.3,0.6-0.3c2.4-0.1,4.8-0.3,6.9-0.5c5.8-0.5,8.6-0.7,9.5,0.7c0.2,0.3,0.4,0.9,0,1.7c-2.6,5.2-12.1,11.4-17.8,12.7
					c-2.7,0.6-5,1.7-7.4,2.8c-2.5,1.2-5.1,2.4-8.6,3.3C515.1,723.2,514.3,723.3,513.7,723.3L513.7,723.3z M507.8,714.1
					c0.1,2.3,1,5,2.8,6.5c1.3,1,2.9,1.3,4.9,0.8c3.3-0.9,5.9-2.1,8.3-3.2c2.5-1.2,4.9-2.3,7.7-2.9c5.3-1.2,14.4-7.2,16.7-11.9
					c0.1-0.1,0.1-0.2,0.1-0.2c-0.6-0.5-4.9-0.1-8,0.1c-1.8,0.1-3.9,0.3-6,0.4l1.2,4.1c0.1,0.4-0.1,0.9-0.5,1
					c-0.1,0-8.7,2.8-15.8,4.6C515.5,714.2,511.6,714.5,507.8,714.1L507.8,714.1z"/>
				<path class="st4" d="M381.1,487.1c0,0,17.1,54.8,20.8,56.7c3.7,1.8,76.7-16.1,76.7-16.1s6,5.1,9.7,6.5c2.5,1,4.8,2.4,6.9,4.1
					c0,0,8.8,10.4,8.3,7.6c-0.5-2.8-4.2-6.7-4.2-6.7s7.9,8.5,8.8,7.5c0.9-0.9-6-8.5-6-8.5s10.4,9.7,11.1,7.8c0.5-1.3-6.3-9-6.3-9
					s11.4,11.3,11.4,9c0-2.3-5.1-7.9-8.3-10.2c-3.3-2.3-19.9-12.4-23.6-12.4c-3.7,0-69.3,1.8-69.3,1.8l-17.5-60.8"/>
				<path class="st7" d="M508,547.7L508,547.7c-0.8,0-2.2-1-3.8-2.4c0,0.2,0.1,0.4,0.1,0.5c0.1,0.9-0.3,1.2-0.6,1.3
					c-0.6,0.3-1.6,0.7-9.2-8.2c-1.9-1.6-4.2-2.9-6.6-3.9c-3.3-1.3-8.3-5.3-9.6-6.4c-13.1,3.2-73.1,17.9-76.9,16
					c-3.8-1.9-18.3-48-21.2-57.2c-0.1-0.4,0.1-0.9,0.5-1c0.4-0.1,0.9,0.1,1,0.5c6.5,20.9,17.8,54.6,20.4,56.2
					c3.1,1.1,48.3-9.4,76.1-16.2c0.3-0.1,0.5,0,0.7,0.2c0.1,0,5.9,5,9.5,6.4c2.6,1.1,5,2.5,7.2,4.3c2.3,2.7,5,5.6,6.6,7
					c-0.8-1.7-2.4-3.7-3.3-4.6c-0.1-0.1-0.2-0.2-0.3-0.3c-0.3-0.3-0.3-0.8,0-1.1c0.3-0.3,0.8-0.3,1.1,0c0,0,0.1,0.1,0.2,0.2
					c2.3,2.5,5,5.1,6.7,6.4c-1.1-1.6-3.2-4.2-5.3-6.4c-0.3-0.3-0.3-0.8,0-1.1c0.3-0.3,0.8-0.3,1.1,0c3.5,3.3,7.8,6.8,9.6,7.7
					c-0.8-1.4-3.4-4.8-5.9-7.7c-0.3-0.3-0.3-0.8,0-1.1c0.3-0.3,0.8-0.3,1.1,0c3.6,3.5,7.9,7.4,9.8,8.6c-1-2.2-4.7-6.5-7.7-8.6
					c-4.1-2.9-19.9-12.3-23.1-12.3c-3.6,0-68.6,1.8-69.3,1.8c-0.4,0-0.7-0.2-0.8-0.6l-17.5-60.8c-0.1-0.4,0.1-0.9,0.6-1
					c0.4-0.1,0.9,0.1,1,0.6l17.4,60.2c7.2-0.2,65.2-1.8,68.7-1.8c4.1,0,21,10.5,24,12.6c3,2.1,8.7,8,8.7,10.9c0,0.5-0.2,0.9-0.7,1
					c-0.4,0.1-1.1,0.5-5.1-2.9c0.5,1,0.7,1.7,0.6,2.1c-0.1,0.4-0.4,0.6-0.8,0.7c-0.9,0.2-2.7-0.9-4.8-2.5c1.2,1.9,0.7,2.4,0.4,2.7
					C508.6,547.5,508.3,547.6,508,547.7L508,547.7z"/>
				<path class="st4" d="M486.7,530.5c0.6,2,2,3.7,3.8,4.7c3.3,2.1,8.1,0.7,10.4,2.4c2.4,1.7,5.2,3.3,6.2,3.1
					c0.9-0.2-1.2-3.8-2.6-4.7c-1.4-0.9-9.3-7.6-9.3-7.6"/>
				<path class="st7" d="M506.9,541.5c-1.7,0-5.1-2.2-6.5-3.2c-0.9-0.7-2.5-0.8-4.1-0.8c-2-0.1-4.4-0.3-6.3-1.5
					c-2-1.1-3.5-3-4.1-5.2c-0.1-0.4,0.1-0.9,0.6-1c0.4-0.1,0.9,0.1,1,0.6c0.5,1.8,1.7,3.3,3.4,4.3c1.6,1,3.6,1.2,5.5,1.3
					c1.9,0.1,3.7,0.2,5,1.1c2.3,1.6,4.1,2.5,5,2.8c-0.4-0.9-1.5-2.6-2.3-3.1c-1.4-1-9-7.4-9.3-7.6c-0.3-0.3-0.4-0.8-0.1-1.2
					c0.3-0.3,0.8-0.4,1.1-0.1c2.7,2.3,8.1,6.8,9.2,7.5c1.3,0.9,3.4,3.9,3.2,5.3c-0.1,0.5-0.4,0.8-0.9,0.9
					C507.1,541.5,507,541.5,506.9,541.5L506.9,541.5z"/>
				<path class="st1" d="M398.2,424.9c0,0,15.2,11.1,18,20.7c2.7,9.7,13.4,41.9,10.6,47.9c-2.8,6-15.7,22.1-16.6,23.5
					c-0.9,1.4,11.1,59.4,12,66.8c0.9,7.4-3.3,16.6-13.8,20.3c-10.6,3.7-32.8,6-42.5-6c-9.7-12-9.3-26.7,2.8-56.2
					c3.5-8.6,6-16.6,6-16.6s-5.1-42.4-2.3-59.9C375.1,448,398.2,424.9,398.2,424.9z"/>
				<path class="st7" d="M389.8,608c-9.4,0-18.9-2.4-24.6-9.3c-10-12.4-9.3-27.8,2.7-57c3.2-7.8,5.6-15.2,5.9-16.4
					c-0.4-3.4-5-42.9-2.3-60c2.8-17.6,25.2-40.1,26.1-41c0.3-0.3,0.7-0.3,1.1-0.1c0.6,0.5,15.5,11.3,18.3,21.2
					c0.5,1.6,1.1,3.8,1.9,6.4c5.4,17.8,10.9,37.2,8.7,42c-2.2,4.8-10.6,15.7-14.7,20.9c-0.9,1.2-1.7,2.2-1.9,2.6
					c-0.1,2.4,4.1,24.2,7.2,40.2c2.4,12.5,4.5,23.2,4.9,26.2c0.9,7.5-3.2,17.3-14.4,21.1C403.7,606.7,396.8,608,389.8,608L389.8,608
					z M398.3,426c-3.4,3.5-22.7,24-25.2,39.6c-2.7,17.2,2.3,59.2,2.3,59.7c0,0.1,0,0.2,0,0.3c0,0.1-2.5,8.1-6,16.7
					c-11.8,28.9-12.6,43.4-2.9,55.4c9.6,11.9,32.2,9,41.6,5.7c10.3-3.6,14.2-12.6,13.3-19.4c-0.4-2.9-2.5-14.2-4.8-26.1
					c-6.8-35-7.6-40.5-7-41.3c0.2-0.3,1-1.3,2.1-2.8c4-5.2,12.3-16,14.5-20.6c2.2-4.7-5.2-29.2-8.7-40.9c-0.8-2.6-1.5-4.9-1.9-6.5
					C413.1,437.6,401,428.1,398.3,426L398.3,426z"/>
				<path class="st1" d="M386.8,563.4c0,0,101.2-3.3,110.5,1.7c9.3,5-30.3,141.6-30.3,141.6s3.8,5.7,7.3,10.2c2.8,3.6,6,6.9,9.6,9.8
					c1.1,0.7,4.1,1.1,3,2.6s-6.7,0.2-12.2-0.2s-10.7-2.8-11.5-4.4c-0.9-1.5-5.9-7.6-7.8-8.5c-2-0.9-5.2-3.5-3.7-6.3
					c1.5-2.8,6.3-7.2,6.5-8.7c0.2-1.5,6.5-40.1,7.2-48.5c3.6-49.4,6.5-61.6,6.5-61.6s-50.7,21.4-83.4,15.3"/>
				<path class="st7" d="M484.2,731c-1.4,0-3.2-0.2-5.2-0.5c-1.4-0.2-2.9-0.4-4.4-0.5c-5.6-0.4-11.1-2.9-12.2-4.8
					c-0.9-1.5-5.7-7.4-7.5-8.1c-1.3-0.6-3.6-2.1-4.3-4.3c-0.4-1.1-0.3-2.2,0.3-3.2c0.8-1.4,2.3-3.1,3.7-4.8c1.1-1.3,2.7-3.1,2.8-3.6
					c0-0.2,0.2-1,0.4-2.3c4.2-25.7,6.4-41.3,6.9-46.1c2.9-40.3,5.4-55.7,6.2-60.2c-8.5,3.4-52.9,20.3-82.4,14.8
					c-0.4-0.1-0.7-0.5-0.7-0.9c0.1-0.4,0.5-0.7,0.9-0.7c32.1,6,82.4-15,82.9-15.3c0.3-0.1,0.6-0.1,0.9,0.1c0.2,0.2,0.3,0.5,0.3,0.8
					c0,0.1-3,12.8-6.5,61.5c-0.4,4.9-2.7,20.5-6.9,46.2c-0.2,1.3-0.3,2.1-0.4,2.3c-0.1,1-1.2,2.3-3.1,4.5c-1.3,1.5-2.8,3.2-3.5,4.5
					c-0.3,0.6-0.4,1.2-0.2,1.9c0.5,1.4,2.1,2.7,3.5,3.3c2.2,1,7.3,7.2,8.2,8.8c0.6,1.1,5.4,3.5,10.9,3.9c1.5,0.1,3,0.3,4.5,0.5
					c2.7,0.3,6.5,0.8,7,0.1c0.1-0.1,0.1-0.1,0.1-0.1c-0.1-0.2-1.1-0.6-1.6-0.7c-0.5-0.2-0.9-0.4-1.3-0.6c-3.7-3-7-6.3-9.8-10
					c-3.5-4.5-7.3-10.2-7.3-10.3c-0.1-0.2-0.2-0.4-0.1-0.7c15.2-52.6,37-137.3,30.7-140.7c-7.2-3.9-75.1-2.8-110.1-1.6
					c-0.4,0-0.8-0.3-0.8-0.8c0-0.5,0.3-0.8,0.8-0.8c4.1-0.1,101.6-3.2,110.9,1.8c9.3,5-22.9,118.5-29.8,142.2c0.9,1.3,4.1,6,7,9.9
					c2.7,3.6,5.9,6.8,9.4,9.6c0.1,0.1,0.5,0.2,0.9,0.4c1.1,0.4,2.3,0.8,2.6,1.8c0.1,0.3,0.1,0.9-0.3,1.5
					C486.9,730.7,485.8,731,484.2,731L484.2,731z"/>
				<path class="st4" d="M497.2,565.2c-4.2-2.2-27.2-2.8-51.2-2.7l0.4,37.6c8.6-2.5,17.1-5.4,25.4-8.8c0,0-2.9,12.2-6.5,61.6
					c-0.6,8.4-7,47-7.2,48.5c-0.2,1.5-5,5.9-6.5,8.7c-1.5,2.8,1.7,5.4,3.7,6.3c2,0.9,7,6.9,7.8,8.5c0.9,1.5,6.1,3.9,11.5,4.4
					s11.1,1.7,12.2,0.2c1.1-1.5-2-2-3-2.6c-3.6-2.9-6.8-6.1-9.6-9.8c-3.5-4.5-7.3-10.2-7.3-10.2S506.5,570.1,497.2,565.2z"/>
				<path class="st7" d="M484.2,730.9c-1.4,0-3.2-0.2-5.3-0.5c-1.4-0.2-2.8-0.3-4.3-0.5c-5.6-0.5-11.1-2.9-12.2-4.8
					c-0.9-1.5-5.8-7.4-7.5-8.1c-1.3-0.6-3.6-2.1-4.4-4.2c-0.4-1.1-0.3-2.2,0.3-3.2c0.8-1.4,2.2-3.1,3.7-4.7c1.1-1.3,2.7-3.1,2.8-3.7
					c0-0.3,0.3-1.7,0.6-3.8c1.7-10.3,6.1-37.7,6.6-44.7c3-40.3,5.4-55.8,6.3-60.2c-7.8,3.1-15.9,5.9-24,8.2c-0.2,0.1-0.5,0-0.7-0.1
					c-0.2-0.1-0.3-0.4-0.3-0.7l-0.4-37.6c0-0.2,0.1-0.4,0.2-0.6c0.1-0.1,0.4-0.2,0.6-0.2c31,0,47.9,0.9,51.6,2.8
					c1.7,0.9,6.3,3.4-11.3,73.6c-8.2,32.5-17.5,64.8-18.6,68.6c0.9,1.3,4.1,6,7,9.9c2.7,3.6,5.9,6.8,9.4,9.6
					c0.1,0.1,0.5,0.2,0.9,0.4c1.1,0.4,2.3,0.8,2.6,1.8c0.1,0.3,0.1,0.9-0.3,1.5C486.9,730.7,485.7,730.9,484.2,730.9L484.2,730.9z
					 M471.8,590.4c0.2,0,0.4,0.1,0.5,0.2c0.2,0.2,0.3,0.5,0.3,0.8c0,0.1-2.9,12.8-6.5,61.5c-0.5,7-5,34.5-6.6,44.8
					c-0.3,2.1-0.6,3.5-0.6,3.8c-0.1,1-1.2,2.3-3.2,4.5c-1.3,1.5-2.8,3.2-3.5,4.5c-0.3,0.6-0.4,1.2-0.2,1.9c0.5,1.4,2.1,2.7,3.5,3.3
					c2.2,1,7.3,7.3,8.2,8.8c0.6,1.1,5.4,3.5,10.9,3.9c1.5,0.1,3,0.3,4.4,0.5c2.8,0.3,6.6,0.8,7.1,0.1c0.1-0.1,0.1-0.1,0.1-0.1
					c-0.1-0.2-1.1-0.6-1.6-0.7c-0.5-0.2-0.9-0.4-1.3-0.6c-3.7-3-7-6.3-9.8-10c-3.5-4.5-7.3-10.2-7.3-10.3c-0.1-0.2-0.2-0.4-0.1-0.7
					c15.2-52.6,37.1-137.3,30.8-140.7c-2.3-1.2-12.9-2.7-50-2.6l0.4,35.7c8.2-2.4,16.3-5.2,24.2-8.5
					C471.6,590.4,471.7,590.4,471.8,590.4L471.8,590.4z"/>
				<path class="st7" d="M483.9,726.8c-1.6-1.2-3.1-2.6-4.5-4h-11.2L456,704.5c-1.6,1.7-3.1,3.6-4.4,5.5c-1.5,2.8,1.7,5.4,3.7,6.3
					c2,0.9,7,6.9,7.8,8.5c0.9,1.5,6.1,3.9,11.5,4.4c5.4,0.4,11.1,1.7,12.2,0.2C487.9,727.9,484.9,727.5,483.9,726.8z"/>
				<path class="st7" d="M484.2,730.9c-1.4,0-3.2-0.2-5.3-0.5c-1.4-0.2-2.8-0.3-4.3-0.5c-5.6-0.5-11.1-2.9-12.2-4.8
					c-0.9-1.5-5.7-7.4-7.5-8.1c-1.3-0.6-3.6-2.1-4.3-4.2c-0.4-1.1-0.3-2.2,0.3-3.2c1.3-2.1,2.9-4,4.5-5.7c0.2-0.2,0.4-0.3,0.7-0.2
					c0.2,0,0.5,0.1,0.6,0.4l11.9,17.9h10.8c0.2,0,0.4,0.1,0.6,0.3c1.3,1.4,2.8,2.7,4.3,3.9c0.2,0.1,0.6,0.3,1,0.4
					c1,0.4,2.2,0.8,2.5,1.8c0.1,0.3,0.1,0.9-0.3,1.5C487,730.7,485.8,731,484.2,730.9L484.2,730.9z M455.9,705.9
					c-1.3,1.5-2.5,3-3.6,4.7c-0.3,0.6-0.3,1.2-0.1,1.8c0.5,1.4,2.1,2.7,3.5,3.3c2.2,1,7.3,7.3,8.2,8.8c0.6,1.1,5.4,3.5,10.9,3.9
					c1.5,0.1,3,0.3,4.4,0.5c2.8,0.3,6.6,0.8,7.1,0.1c0.1-0.1,0.1-0.1,0.1-0.1c-0.1-0.2-1.1-0.6-1.5-0.7c-0.5-0.2-0.9-0.4-1.3-0.6
					c0,0,0,0,0,0c-1.5-1.2-3-2.4-4.3-3.8h-10.9c-0.3,0-0.5-0.1-0.7-0.4L455.9,705.9L455.9,705.9z"/>
				<path class="st1" d="M383.3,481.2c0,0,23.4,52.5,27.3,53.8c3.9,1.3,74.3-24.9,74.3-24.9s6.5,4.3,10.4,5.3
					c2.6,0.7,5.1,1.8,7.4,3.3c0,0,9.9,9.3,9.2,6.5c-0.8-2.7-4.9-6.1-4.9-6.1s8.8,7.5,9.6,6.5c0.8-1-7-7.7-7-7.7s11.4,8.4,11.9,6.5
					c0.3-1.4-7.3-8.2-7.3-8.2s12.6,9.9,12.3,7.6c-0.3-2.3-6-7.2-9.5-9.1c-3.5-1.9-21.3-10.1-24.8-9.6c-3.6,0.4-68.7,9.9-68.7,9.9
					L399,456.6"/>
				<path class="st7" d="M410.8,535.8c-0.2,0-0.4,0-0.5-0.1c-4-1.4-23.8-45.4-27.8-54.2c-0.2-0.4,0-0.9,0.4-1.1
					c0.4-0.2,0.9,0,1.1,0.4c8.9,20,24,52.1,26.8,53.4c3.2,0.7,46.9-14.9,73.7-24.9c0.2-0.1,0.5-0.1,0.7,0.1c0.1,0,6.5,4.3,10.1,5.2
					c2.7,0.7,5.3,1.9,7.6,3.4c2.6,2.4,5.7,5.1,7.4,6.2c-0.9-1.6-2.7-3.3-3.7-4.2c-0.1-0.1-0.3-0.2-0.4-0.3c-0.3-0.3-0.4-0.8-0.1-1.1
					c0.3-0.3,0.8-0.4,1.1-0.1c0,0,0.1,0.1,0.3,0.3c2.5,2.1,5.4,4.3,7.1,5.4c-1.3-1.5-3.7-3.8-5.9-5.6c-0.3-0.3-0.4-0.8-0.1-1.1
					c0.3-0.3,0.8-0.4,1.1-0.1c3.9,2.9,8.5,5.9,10.4,6.5c-0.9-1.3-4-4.4-6.8-6.9c-0.3-0.3-0.4-0.8-0.1-1.1c0.3-0.3,0.8-0.4,1.1-0.1
					c4,3.1,8.6,6.4,10.7,7.5c-1.3-2.2-5.6-5.9-8.7-7.6c-3.8-2.1-21.2-9.9-24.4-9.5c-3.5,0.4-68,9.8-68.6,9.9c-0.4,0-0.7-0.1-0.9-0.5
					l-24.5-58.4c-0.2-0.4,0-0.9,0.4-1.1c0.4-0.2,0.9,0,1.1,0.4l24.3,57.8c6.7-1,64.7-9.4,68.1-9.8c4-0.5,22.3,8.1,25.3,9.7
					c3.2,1.7,9.5,6.9,9.9,9.7c0.1,0.5-0.1,0.9-0.5,1.1c-0.3,0.2-1,0.6-5.3-2.2c0.6,0.9,0.8,1.5,0.7,1.9c-0.1,0.4-0.4,0.7-0.7,0.8
					c-0.9,0.3-2.8-0.6-5.1-1.9c1.4,1.8,1,2.3,0.7,2.6c-0.2,0.2-0.4,0.3-0.8,0.4c-0.7,0-2.3-0.8-4-2c0.1,0.2,0.1,0.3,0.2,0.5
					c0.2,0.9-0.2,1.3-0.4,1.4c-0.5,0.3-1.5,0.9-10.1-7.1c-2.1-1.3-4.5-2.4-7-3.1c-3.4-0.8-8.8-4.2-10.3-5.2
					C472.4,515.5,417.6,535.8,410.8,535.8z"/>
				<path class="st4" d="M517,514.7c-3.5-1.9-21.3-10.1-24.8-9.6c-3.6,0.4-68.7,9.9-68.7,9.9l-4.8-11.3l-19,12.7
					c4.9,9.9,9.3,18.1,10.8,18.6c3.9,1.4,74.3-24.9,74.3-24.9s6.5,4.3,10.4,5.3c2.6,0.7,5.1,1.8,7.4,3.3c0,0,9.9,9.3,9.2,6.5
					c-0.8-2.7-4.9-6.1-4.9-6.1s8.8,7.5,9.6,6.5c0.8-1-7-7.7-7-7.7s11.4,8.4,11.9,6.5c0.3-1.4-7.3-8.2-7.3-8.2s12.6,9.9,12.3,7.6
					C526.1,521.6,520.5,516.6,517,514.7z"/>
				<path class="st7" d="M410.7,535.9c-0.2,0-0.4,0-0.5-0.1c-1.1-0.4-3.3-3-11.3-19c-0.2-0.4-0.1-0.8,0.3-1l19-12.7
					c0.2-0.1,0.5-0.2,0.7-0.1c0.2,0.1,0.4,0.2,0.5,0.5l4.5,10.7c7.1-1,64.6-9.4,68.1-9.8c4.1-0.5,22.4,8.1,25.3,9.7
					c3.2,1.7,9.5,6.9,9.9,9.8c0.1,0.5-0.1,0.9-0.5,1.1c-0.3,0.2-1,0.6-5.3-2.2c0.6,0.9,0.8,1.5,0.7,1.9c-0.1,0.4-0.4,0.7-0.7,0.8
					c-0.9,0.3-2.8-0.6-5.1-1.9c1.4,1.8,1,2.3,0.7,2.6c-0.2,0.2-0.4,0.3-0.8,0.4c-0.7,0-2.3-0.8-4-2c0.1,0.2,0.1,0.3,0.2,0.5
					c0.2,0.9-0.2,1.3-0.4,1.4c-0.5,0.3-1.5,0.9-10.1-7.1c-2.1-1.3-4.5-2.4-7-3.1c-3.4-0.8-8.8-4.2-10.3-5.2
					C472.4,515.6,417.8,535.9,410.7,535.9z M400.7,516.7c7.3,14.6,9.4,17.3,10,17.6c3.1,0.7,46.9-14.9,73.7-24.9
					c0.2-0.1,0.5-0.1,0.7,0.1c0.1,0,6.5,4.3,10.1,5.2c2.7,0.8,5.3,1.9,7.6,3.4c2.6,2.4,5.7,5.1,7.4,6.2c-0.9-1.6-2.7-3.3-3.7-4.2
					c-0.1-0.1-0.3-0.2-0.4-0.3c-0.3-0.3-0.4-0.8-0.1-1.1c0.3-0.3,0.8-0.4,1.1-0.1c0,0,0.1,0.1,0.3,0.3c2.5,2.1,5.4,4.3,7.1,5.4
					c-1.3-1.5-3.7-3.8-5.9-5.6c-0.3-0.3-0.4-0.8-0.1-1.1c0.3-0.3,0.8-0.4,1.1-0.1c3.9,2.9,8.5,5.9,10.4,6.5c-0.9-1.3-4-4.4-6.8-6.9
					c-0.3-0.3-0.4-0.8-0.1-1.1c0.3-0.3,0.8-0.4,1.1-0.1c4,3.1,8.6,6.4,10.7,7.5c-1.3-2.2-5.6-6-8.7-7.6c-4.3-2.4-21.3-9.9-24.4-9.5
					c-3.5,0.4-68,9.8-68.6,9.9c-0.4,0-0.7-0.1-0.9-0.5l-4.4-10.4L400.7,516.7L400.7,516.7z"/>
				<path class="st7" d="M407.8,607.7h-17.3v48h17.3V607.7z"/>
				<path class="st7" d="M403.4,643.4h-8.6v48h8.6V643.4z"/>
				<path class="st7" d="M397.5,610.2c-11.3,0-20.7-0.1-23.3-0.3c-8-0.7-11.6-3.4-12-3.7c-5.3-4.7-5.5-15.1-6-40.2
					c-0.1-6.8-0.3-14.5-0.6-23.4c-1.2-39.7-15.7-79.3-15.9-79.7c-0.5-1.4,0.2-3,1.6-3.6c0,0,0,0,0,0c1.4-0.5,3,0.2,3.6,1.6
					c0.1,0.4,15,40.9,16.2,81.5c0.3,9,0.4,16.7,0.6,23.5c0.4,21.2,0.6,32.8,4,36c2.7,1.5,5.8,2.4,9,2.5c7.2,0.6,74.3,0,75,0
					c1.5,0,2.8,1.2,2.8,2.8c0,1.5-1.2,2.8-2.8,2.8C447.9,609.9,419.2,610.2,397.5,610.2z"/>
				<path class="st7" d="M395.6,687.7c0,0-7.3,8.2-25.9,11.1c-9.8,1.5-20.1,3.4-29,8.2c-5.7,3-17.1,9.6-17.1,17.2
					c0,3.8,3,6.8,6.8,6.8c3.8,0,6.8-3,6.9-6.7c0-1.7-0.7-3.4-1.9-4.7c4.7-7,11.9-11.9,20.1-13.6c14.2-3.1,24.5-1.8,44.5-15.1
					L395.6,687.7z"/>
				<path class="st7" d="M401.8,687.7c0,0,7.2,8.2,25.9,11.1c9.8,1.5,20.1,3.4,29,8.2c5.7,3,17.1,9.6,17.1,17.2
					c-0.2,3.7-3.4,6.6-7.1,6.4c-3.5-0.2-6.3-3-6.5-6.4c0-1.7,0.7-3.4,1.8-4.6c-4.7-7-11.9-11.9-20.1-13.6
					c-14.2-3.1-24.5-1.8-44.5-15.1L401.8,687.7z"/>
				<path class="st7" d="M401.6,718.2H396c-0.6,0-1.1,0.5-1.1,1.1v10.6c0,0.6,0.5,1.1,1.1,1.1h5.6c0.6,0,1.1-0.5,1.1-1.1v-10.6
					C402.7,718.6,402.2,718.2,401.6,718.2z"/>
				<path class="st7" d="M400.6,688.9H397v42h3.7V688.9z"/>
				<path class="st4" d="M536.7,547.5h-50v2.5h50V547.5z"/>
				<path class="st7" d="M536.7,550.8h-50c-0.5,0-0.8-0.4-0.8-0.8v-2.5c0-0.5,0.4-0.8,0.8-0.8h50c0.5,0,0.8,0.4,0.8,0.8v2.5
					C537.5,550.4,537.1,550.8,536.7,550.8z M487.5,549.1h48.3v-0.8h-48.3V549.1z"/>
				<path class="st7" d="M559.3,438.6l6,9.6l-8.3,71.7l-6.5-0.8L559.3,438.6z"/>
				<path class="st7" d="M557.1,520.7C557.1,520.7,557,520.7,557.1,520.7l-6.6-0.8c-0.4,0-0.8-0.5-0.7-0.9l8.8-80.6
					c0-0.3,0.3-0.6,0.6-0.7c0.3-0.1,0.7,0.1,0.9,0.4l6,9.6c0.1,0.2,0.1,0.3,0.1,0.5l-8.3,71.7c0,0.2-0.1,0.4-0.3,0.5
					C557.4,520.7,557.2,520.7,557.1,520.7z M551.5,518.5l4.9,0.6l8.2-70.6l-4.6-7.4L551.5,518.5L551.5,518.5z"/>
				<path class="st4" d="M556.4,428.1l-10.7,92.3l4.7,0.5l10.7-92.3L556.4,428.1z"/>
				<path class="st7" d="M550.4,521.8C550.4,521.8,550.3,521.8,550.4,521.8l-4.8-0.5c-0.2,0-0.4-0.1-0.5-0.3
					c-0.1-0.2-0.2-0.4-0.2-0.6l10.7-92.3c0-0.2,0.1-0.4,0.3-0.5c0.2-0.1,0.4-0.2,0.6-0.2l4.7,0.5c0.4,0,0.8,0.5,0.7,0.9L551.2,521
					C551.1,521.5,550.8,521.8,550.4,521.8L550.4,521.8z M546.6,519.7l3.1,0.4l10.5-90.7l-3.1-0.4L546.6,519.7z"/>
				<path class="st4" d="M559.4,499.3l-2.7,47.3h-15.4v3.7h15.4h3.6v-3.7l2.7-46.9L559.4,499.3z"/>
				<path class="st7" d="M560.3,551.2h-19c-0.5,0-0.8-0.4-0.8-0.8v-3.7c0-0.5,0.4-0.8,0.8-0.8H556l2.6-46.6c0-0.2,0.1-0.4,0.3-0.6
					c0.2-0.1,0.4-0.2,0.6-0.2l3.5,0.4c0.4,0,0.8,0.4,0.7,0.9l-2.7,46.9v3.6C561.1,550.8,560.8,551.2,560.3,551.2L560.3,551.2z
					 M542.1,549.5h17.4v-2.9l2.6-46.2l-1.9-0.2l-2.6,46.5c0,0.4-0.4,0.8-0.8,0.8h-14.6V549.5z"/>
				<path class="st7" d="M589.8,711.4c-0.8,0-1.6-0.4-2.1-1.2l-96.7-156.2c-0.7-1.1-0.4-2.7,0.8-3.4c1.1-0.7,2.7-0.4,3.4,0.8
					l96.7,156.2c0.7,1.1,0.4,2.7-0.8,3.4C590.6,711.3,590.2,711.4,589.8,711.4L589.8,711.4z"/>
				<path class="st4" d="M601,549.9H479.3v4.9H601V549.9z"/>
				<path class="st7" d="M601,555.4H479.3c-0.3,0-0.6-0.3-0.6-0.6v-4.9c0-0.3,0.3-0.6,0.6-0.6H601c0.3,0,0.6,0.3,0.6,0.6v4.9
					C601.6,555.2,601.4,555.4,601,555.4z M479.9,554.3h120.6v-3.8H479.9V554.3z"/>
				<path class="st7" d="M602,456h-25v267.4h25V456z"/>
				<path class="st11" d="M525.2,584.5h-6.5v42.7h6.5V584.5z"/>
				<path class="st11" d="M525.2,633h-6.5v42.7h6.5V633z"/>
				<path class="st11" d="M525.2,681.4h-6.5v42.7h6.5V681.4z"/>
				<path class="st7" d="M602.1,730.8H221.6c-0.4,0-0.6-0.3-0.6-0.6c0-0.3,0.3-0.6,0.6-0.6h380.5c0.4,0,0.6,0.3,0.6,0.6
					C602.7,730.5,602.4,730.8,602.1,730.8L602.1,730.8z"/>
			</g>
		</g>
		<g>
			<defs>
				<rect id="SVGID_00000145056910152133042720000008293027110770549684_" x="1317" y="354" width="399" height="377"/>
			</defs>
			<clipPath id="SVGID_00000182507485469711591080000012537382630930125474_">
				<use xlink:href="#SVGID_00000145056910152133042720000008293027110770549684_"  style="overflow:visible;"/>
			</clipPath>
			<g style="clip-path:url(#SVGID_00000182507485469711591080000012537382630930125474_);">
				<path class="st1" d="M1655.8,488.2c0,0,0-6.3-8.8-15.1c-8.8-8.8-14.5-13.9-14.5-13.9s-4.4,14.5,3.8,23.4
					c6,6.2,12.6,11.9,19.6,17.1V488.2z"/>
				<path class="st1" d="M1643,527.7c0,0,0-6.3-8.8-15.1c-8.8-8.8-14.5-13.9-14.5-13.9s-4.4,14.5,3.8,23.4c6,6.2,12.6,11.9,19.6,17
					V527.7z"/>
				<path class="st1" d="M1655.3,499c0,0,0.7-6.3,10.4-14.1c9.7-7.9,15.9-12.3,15.9-12.3s2.9,14.9-6.2,22.9
					c-6.7,5.6-13.8,10.5-21.3,14.9L1655.3,499z"/>
				<path class="st1" d="M1639.8,545.6c0,0,1.3-6.2,11.8-13c10.4-6.8,17.1-10.5,17.1-10.5s1.3,15.1-8.6,22.1
					c-7.2,4.8-14.8,9-22.8,12.6L1639.8,545.6z"/>
				<path class="st1" d="M1642.7,596.5c0,0,0-6.3,8.9-15.1c8.8-8.8,14.5-13.9,14.5-13.9s4.4,14.5-3.8,23.4
					c-6,6.2-12.6,11.9-19.6,17.1V596.5z"/>
				<path class="st1" d="M1642.6,608.8c0,0,0.9-6.3-6.6-16.3c-7.5-10-12.4-15.8-12.4-15.8s-6.5,13.8,0.4,23.7
					c5.1,7,10.8,13.6,17,19.7L1642.6,608.8z"/>
				<path class="st1" d="M1633.8,645.6c0,0,0-6.3,8.9-15.1c8.8-8.8,14.5-13.9,14.5-13.9s4.4,14.5-3.8,23.4
					c-6,6.2-12.6,11.9-19.6,17.1V645.6z"/>
				<path class="st1" d="M1639.7,679c0,0-1.6-6.1,4.7-16.9c6.3-10.8,10.5-17.1,10.5-17.1s8,13,2.3,23.6c-4.3,7.6-9.2,14.7-14.6,21.5
					L1639.7,679z"/>
				<path class="st7" d="M1648.4,710c-0.4,0-0.7-0.2-0.8-0.6c-0.1-0.4-12.3-38.1-14.6-52c-1.4-8.3,0.8-15.8,3.4-24.5
					c1.9-6.4,4-13.6,5.1-22.4c1.3-10.4-0.5-20.7-2.2-30.6c-1.8-10-3.4-19.4-1.6-27.7c1.7-7.9,4.5-14.5,7.5-21.5
					c3.2-7.5,6.4-15.2,8.3-24.6c1.2-6.4,1.9-13,2.4-19.5c0-0.5,0.4-0.8,0.9-0.8c0.5,0,0.8,0.4,0.8,0.9c-0.4,6.6-1.3,13.2-2.4,19.7
					c-1.8,9.6-5.2,17.4-8.4,24.9c-3,6.9-5.7,13.5-7.4,21.2c-1.7,8-0.1,17.3,1.6,27.1c1.8,10.1,3.6,20.5,2.2,31.1
					c-1.2,8.9-3.3,16.2-5.2,22.6c-2.6,8.9-4.7,15.9-3.3,23.7c2.3,13.8,14.4,51.4,14.5,51.8c0.1,0.4-0.1,0.9-0.5,1.1
					C1648.5,709.9,1648.4,709.9,1648.4,710L1648.4,710z"/>
				<path class="st7" d="M1655.2,504.1c-0.2,0-0.5-0.1-0.7-0.3c-0.3-0.4-0.2-0.9,0.1-1.2l9.5-7.3c0.4-0.3,0.9-0.2,1.2,0.2
					c0.3,0.4,0.2,0.9-0.2,1.2l-9.5,7.3C1655.6,504,1655.4,504,1655.2,504.1L1655.2,504.1z"/>
				<path class="st7" d="M1655.7,495.6c-0.3,0-0.6-0.2-0.7-0.4l-4-7.1c-0.2-0.4-0.1-0.9,0.3-1.1c0.4-0.2,0.9-0.1,1.1,0.3l4,7.1
					c0.2,0.4,0.1,0.9-0.3,1.1C1655.9,495.6,1655.8,495.6,1655.7,495.6L1655.7,495.6z"/>
				<path class="st7" d="M1639,552.4c-0.2,0-0.5-0.1-0.7-0.3c-0.3-0.4-0.2-0.9,0.2-1.2c0.1-0.1,8.1-6.1,16.2-12
					c0.4-0.3,0.9-0.2,1.2,0.2s0.2,0.9-0.2,1.2c-8.1,5.9-16.1,11.9-16.2,12C1639.4,552.4,1639.2,552.4,1639,552.4L1639,552.4z"/>
				<path class="st7" d="M1643,539.9c-0.3,0-0.6-0.2-0.7-0.5c-3.9-7.6-8.7-14.9-14.1-21.5c-0.3-0.4-0.2-0.9,0.1-1.2
					c0.3-0.3,0.9-0.2,1.2,0.1c5.5,6.7,10.3,14.1,14.3,21.8c0.2,0.4,0,0.9-0.4,1.1C1643.3,539.9,1643.2,539.9,1643,539.9L1643,539.9z
					"/>
				<path class="st7" d="M1643,606.3c-0.1,0-0.3,0-0.4-0.1c-0.4-0.2-0.6-0.7-0.3-1.1c4.6-8.5,10.4-16.2,17.2-23
					c0.3-0.3,0.9-0.3,1.2,0c0.3,0.3,0.3,0.9,0,1.2c-6.7,6.7-12.4,14.3-16.9,22.6C1643.6,606.1,1643.3,606.3,1643,606.3L1643,606.3z"
					/>
				<path class="st7" d="M1641.5,615.2c-0.3,0-0.6-0.2-0.8-0.5c-2.4-5.6-5.3-11.1-8.6-16.3c-4.5-6.7-5.3-7.7-5.3-7.7
					c-0.3-0.4-0.2-0.9,0.2-1.2s0.9-0.2,1.2,0.2c0,0,0.7,1,5.3,7.8c3.3,5.3,6.3,10.8,8.7,16.6c0.2,0.4,0,0.9-0.4,1.1
					C1641.7,615.2,1641.6,615.2,1641.5,615.2z"/>
				<path class="st7" d="M1633.8,658.1c-0.1,0-0.2,0-0.3-0.1c-0.4-0.2-0.6-0.7-0.5-1.1c2-5,4.5-10,7.2-14.7c2.8-4.4,6-8.5,9.4-12.3
					c0.3-0.3,0.8-0.4,1.2-0.1c0.3,0.3,0.4,0.8,0.1,1.2c-3.4,3.8-6.5,7.8-9.2,12.1c-2.7,4.6-5.1,9.4-7.1,14.4
					C1634.5,657.9,1634.1,658.1,1633.8,658.1z"/>
				<path class="st7" d="M1642.6,690.8c-0.4,0-0.8-0.3-0.8-0.8c-0.5-4.9,0.4-9.9,2.5-14.4c2.6-4.9,5.3-11,7.2-15
					c0.6-1.3,1.1-2.4,1.5-3.1c0.2-0.4,0.7-0.6,1.1-0.4c0.4,0.2,0.6,0.7,0.4,1.1c-0.4,0.8-0.9,1.9-1.5,3.1
					c-1.8,4.1-4.6,10.2-7.2,15.1c-1.9,4.2-2.8,8.9-2.3,13.5C1643.5,690.4,1643.1,690.8,1642.6,690.8
					C1642.6,690.8,1642.6,690.8,1642.6,690.8L1642.6,690.8z"/>
				<path class="st1" d="M1583.6,572.7c0,0-0.7-4,3.9-10.5c4.6-6.5,7.6-10.3,7.6-10.3s4.4,8.6,0.2,15.1c-3.1,4.6-6.6,8.8-10.5,12.8
					L1583.6,572.7z"/>
				<path class="st1" d="M1595.9,596c0,0-0.7-4,3.9-10.5c4.6-6.5,7.6-10.3,7.6-10.3s4.4,8.6,0.2,15.1c-3.1,4.6-6.6,8.8-10.4,12.8
					L1595.9,596z"/>
				<path class="st1" d="M1585.2,579.4c0,0-1.1-3.9-8.1-7.8c-7-3.9-11.3-6-11.3-6s-0.2,9.7,6.4,13.7c4.8,2.7,9.8,5.1,15,7
					L1585.2,579.4z"/>
				<path class="st1" d="M1599.9,606.9c0,0-1.5-3.7-8.8-6.8s-11.9-4.8-11.9-4.8s0.8,9.6,7.8,12.9c5,2.2,10.3,4.1,15.6,5.4
					L1599.9,606.9z"/>
				<path class="st1" d="M1603.6,639.1c0,0-0.7-4-7.2-8.5c-6.5-4.6-10.6-7.1-10.6-7.1s-1.2,9.6,4.9,14.2c4.5,3.2,9.2,6.1,14.2,8.6
					L1603.6,639.1z"/>
				<path class="st1" d="M1605.1,646.9c0,0-1.2-3.8,2.4-10.9c3.6-7.1,6.1-11.3,6.1-11.3s5.5,7.9,2.3,14.9c-2.4,5-5.3,9.7-8.5,14.2
					L1605.1,646.9z"/>
				<path class="st1" d="M1616.2,678.8c0,0,0.5-4,6.7-8.9c6.3-5,10.2-7.7,10.2-7.7s1.7,9.5-4.1,14.5c-4.3,3.5-8.8,6.6-13.6,9.4
					L1616.2,678.8z"/>
				<path class="st1" d="M1614.5,669c0,0-0.7-4-7.2-8.5c-6.5-4.6-10.6-7.1-10.6-7.1s-1.2,9.6,4.9,14.2c4.5,3.2,9.2,6.1,14.1,8.6
					L1614.5,669z"/>
				<path class="st1" d="M1614.4,690.5c0,0,0.3-4-4.8-10.1c-5.2-6.1-8.4-9.6-8.4-9.6s-3.6,9,1.1,15c3.5,4.3,7.4,8.2,11.5,11.9
					L1614.4,690.5z"/>
				<path class="st7" d="M1612.3,711.2c0,0-0.1,0-0.1,0c-0.5-0.1-0.8-0.5-0.7-1c0-0.3,3.6-25.1,3.5-34c0-5-2-9.1-4.6-14.2
					c-1.9-3.9-4.1-8.2-5.8-13.8c-2-6.5-2-13.3-2-19.8c0-6.3,0-12.3-1.9-17.1c-1.8-4.6-4.3-8.4-6.9-12.4c-2.9-4.4-5.8-8.9-8-14.8
					c-1.4-4-2.7-8.1-3.7-12.1c-0.1-0.5,0.2-0.9,0.6-1c0.5-0.1,0.9,0.2,1,0.6c1,4,2.2,8.1,3.6,12c2.1,5.7,5,10.1,7.8,14.5
					c2.6,4.1,5.1,7.9,7.1,12.7c2.1,5.1,2.1,11.3,2,17.8c0,6.4,0,13,1.9,19.3c1.7,5.5,3.8,9.8,5.7,13.6c2.6,5.2,4.8,9.6,4.8,15
					c0.1,9-3.4,33.2-3.5,34.2C1613,711,1612.7,711.3,1612.3,711.2L1612.3,711.2z"/>
				<path class="st7" d="M1585.7,582.8c-0.1,0-0.3,0-0.4-0.1l-6.8-3.6c-0.4-0.2-0.6-0.7-0.3-1.1c0.2-0.4,0.7-0.6,1.1-0.4l6.8,3.6
					c0.4,0.2,0.6,0.7,0.3,1.1C1586.3,582.7,1586,582.8,1585.7,582.8z"/>
				<path class="st7" d="M1584.5,577.6c-0.1,0-0.2,0-0.3-0.1c-0.4-0.2-0.7-0.6-0.5-1.1l1.7-4.9c0.1-0.4,0.6-0.7,1.1-0.5
					c0.4,0.2,0.7,0.6,0.5,1.1l-1.7,4.9C1585.2,577.4,1584.8,577.6,1584.5,577.6z"/>
				<path class="st7" d="M1601.1,611.4c-0.1,0-0.2,0-0.4-0.1c0,0-5.7-2.9-11.4-5.8c-0.4-0.2-0.6-0.7-0.4-1.1
					c0.2-0.4,0.7-0.6,1.1-0.4c5.8,2.9,11.5,5.8,11.5,5.8c0.4,0.2,0.6,0.7,0.4,1.1C1601.7,611.2,1601.4,611.4,1601.1,611.4
					L1601.1,611.4z"/>
				<path class="st7" d="M1597.2,604c0,0-0.2,0-0.2,0c-0.4-0.1-0.7-0.6-0.6-1.1c1.7-5.3,3.9-10.4,6.6-15.3c0.2-0.4,0.7-0.6,1.1-0.3
					c0.4,0.2,0.6,0.7,0.3,1.1c-2.7,4.7-4.8,9.8-6.5,15C1597.9,603.8,1597.6,604,1597.2,604L1597.2,604z"/>
				<path class="st7" d="M1604.4,645.6c-0.2,0-0.5-0.1-0.7-0.3c-3.7-4.7-8.1-8.9-13-12.3c-0.4-0.3-0.5-0.8-0.2-1.2
					c0.3-0.4,0.8-0.5,1.2-0.2c5,3.5,9.5,7.8,13.4,12.6c0.3,0.4,0.2,0.9-0.1,1.2C1604.8,645.6,1604.6,645.6,1604.4,645.6
					L1604.4,645.6z"/>
				<path class="st7" d="M1606.3,651c0,0-0.1,0-0.2,0c-0.5-0.1-0.7-0.6-0.6-1c0.9-3.9,2.1-7.7,3.7-11.4c2.2-4.8,2.5-5.5,2.5-5.5
					c0.2-0.4,0.7-0.6,1.1-0.4c0.4,0.2,0.6,0.7,0.4,1.1c0,0-0.4,0.7-2.5,5.4c-1.5,3.5-2.7,7.3-3.6,11.1
					C1607.1,650.7,1606.8,651,1606.3,651L1606.3,651z"/>
				<path class="st7" d="M1615.5,683.9c-0.2,0-0.4-0.1-0.5-0.2c-0.3-0.3-0.4-0.8-0.1-1.2c2.2-2.8,4.7-5.3,7.4-7.7
					c1.7-1.3,3.2-2.6,4.7-4.1c0.3-0.3,0.9-0.3,1.2,0c0.3,0.3,0.3,0.9,0,1.2c-1.5,1.5-3.1,2.9-4.8,4.2c-2.6,2.2-5,4.7-7.1,7.4
					C1616,683.9,1615.7,684,1615.5,683.9L1615.5,683.9z"/>
				<path class="st7" d="M1615.8,677.1c-0.3,0-0.6-0.1-0.7-0.4c-1.8-2.9-3.8-5.7-6-8.3c-2.1-2.3-4.5-4.5-7.1-6.5
					c-0.4-0.3-0.4-0.8-0.1-1.2c0.3-0.4,0.8-0.4,1.2-0.1c2.6,2,5,4.3,7.3,6.7c2.3,2.7,4.4,5.6,6.2,8.5c0.2,0.4,0.1,0.9-0.3,1.2
					C1616.1,677.1,1616,677.1,1615.8,677.1z"/>
				<path class="st7" d="M1613.8,698.6c-0.4,0-0.8-0.3-0.8-0.8c-0.2-2.9-1.2-5.7-2.9-8.1c-2.3-3-4.9-6.8-6.5-9.1l-0.9-1.3
					c-0.3-0.4-0.2-0.9,0.2-1.2c0.4-0.3,0.9-0.2,1.2,0.2l0.9,1.3c1.6,2.3,4.2,6.1,6.5,9.1c1.8,2.7,2.9,5.8,3.2,9
					C1614.7,698.2,1614.4,698.6,1613.8,698.6C1613.9,698.6,1613.9,698.6,1613.8,698.6L1613.8,698.6z"/>
				<path class="st4" d="M1602.5,706h57.9v18.3c0,3.2-2.6,5.9-5.9,5.9h-46.1c-3.2,0-5.9-2.6-5.9-5.9V706z"/>
				<path class="st7" d="M1654.5,731h-46.1c-3.7,0-6.7-3-6.7-6.7V706c0-0.5,0.4-0.8,0.8-0.8h57.9c0.5,0,0.8,0.4,0.8,0.8v18.3
					C1661.2,728,1658.2,731,1654.5,731z M1603.3,706.8v17.4c0,2.8,2.3,5,5.1,5h46.1c2.8,0,5-2.3,5-5v-17.4H1603.3z"/>
				<path class="st4" d="M1659.8,713.6h-57.3c-2.5,0-4.5-2-4.5-4.5c0-2.5,2-4.5,4.5-4.5h57.3c2.5,0,4.5,2,4.5,4.5
					C1664.4,711.6,1662.4,713.6,1659.8,713.6C1659.8,713.6,1659.8,713.6,1659.8,713.6z"/>
				<path class="st7" d="M1659.8,714.5h-57.3c-3,0-5.4-2.4-5.4-5.4c0-2.9,2.4-5.4,5.4-5.4h57.3c3,0,5.4,2.4,5.4,5.4
					c0,1.4-0.5,2.8-1.6,3.8S1661.3,714.5,1659.8,714.5z M1602.5,705.4c-2,0-3.7,1.7-3.7,3.7c0,2,1.7,3.7,3.7,3.7h57.3
					c1,0,1.9-0.4,2.6-1.1c0.7-0.7,1.1-1.6,1.1-2.6c0-2-1.7-3.7-3.7-3.7H1602.5z"/>
				<path class="st4" d="M1536.4,479.3c0,0-17.6,56.6-21.4,58.5c-3.8,1.9-78.9-16.7-78.9-16.7s-6.2,5.2-10,6.7
					c-2.6,1.1-5,2.5-7.1,4.3c0,0-9.1,10.7-8.6,7.8s4.3-6.9,4.3-6.9s-8.1,8.7-9.1,7.8c-0.9-0.9,6.2-8.7,6.2-8.7s-10.7,10-11.4,8.1
					c-0.5-1.4,6.5-9.3,6.5-9.3s-11.7,11.6-11.7,9.3s5.2-8.1,8.5-10.5c3.3-2.4,20.5-12.8,24.3-12.8c3.8,0,71.3,1.9,71.3,1.9
					l18.1-62.8"/>
				<path class="st13" d="M1536.4,479.3c0,0-17.6,56.6-21.4,58.5c-3.8,1.9-78.9-16.7-78.9-16.7s-6.2,5.2-10,6.7
					c-2.6,1.1-5,2.5-7.1,4.3c0,0-9.1,10.7-8.6,7.8s4.3-6.9,4.3-6.9s-8.1,8.7-9.1,7.8c-0.9-0.9,6.2-8.7,6.2-8.7s-10.7,10-11.4,8.1
					c-0.5-1.4,6.5-9.3,6.5-9.3s-11.7,11.6-11.7,9.3s5.2-8.1,8.5-10.5c3.3-2.4,20.5-12.8,24.3-12.8c3.8,0,71.3,1.9,71.3,1.9
					l18.1-62.8"/>
				<path class="st4" d="M1427.8,524.1c-0.6,2.1-2,3.8-3.9,4.9c-3.4,2.2-8.3,0.7-10.7,2.4c-2.4,1.7-5.4,3.4-6.3,3.2
					c-1-0.2,1.2-3.9,2.7-4.9c1.5-1,9.5-7.8,9.5-7.8"/>
				<path class="st13" d="M1427.8,524.1c-0.6,2.1-2,3.8-3.9,4.9c-3.4,2.2-8.3,0.7-10.7,2.4c-2.4,1.7-5.4,3.4-6.3,3.2
					c-1-0.2,1.2-3.9,2.7-4.9c1.5-1,9.5-7.8,9.5-7.8"/>
				<path class="st14" d="M1435.7,704.3c0,0-8,2.7-12,4.3c-4,1.6-16.4,0.9-17.7,2.9c-1.3,2,4.1,3.2,11.6,6.9
					c7.5,3.7,13.9,1.3,15.5,1.8s5.5,3.2,11.2,0.4c5.7-2.8,2.2-13.8,2.2-13.8L1435.7,704.3z"/>
				<path class="st7" d="M1523.3,561c0,0-61.9,7.4-66.1,10.7c-4.2,3.4-21.9,132.9-21.9,132.9l10.8,2.5l31.7-99.7
					c0,0,37.2-9.7,56.6-8.1c19.4,1.6,25.4-2.8,29.3-13.9c4-11.1-1.2-19.4-7.1-21"/>
				<path class="st13" d="M1523.3,561c0,0-61.9,7.4-66.1,10.7c-4.2,3.4-21.9,132.9-21.9,132.9l10.8,2.5l31.7-99.7
					c0,0,37.2-9.7,56.6-8.1c19.4,1.6,25.4-2.8,29.3-13.9c4-11.1-1.2-19.4-7.1-21"/>
				<path class="st14" d="M1519.1,552c0,0-0.8,30.3-0.8,36.6c0,6.3,7.6,12.7,20.9,12.7c13.3,0,31.1-1.3,36.8-7
					c5.7-5.7,1.3-44.4,1.3-44.4L1519.1,552z"/>
				<path class="st15" d="M1507.2,450.1c0,0-4.3,17.9-2.2,30.3c2.2,12.4,9.8,36.3,9.2,42.3c-0.5,6,1.7,27.1,4.9,29.3
					c3.2,2.2,55.8,0,55.8,0s4.9-1.7,3.8-9.8c-1.1-8.1-7.1-41.7-11.9-68.8c-4.9-27.1-36.3-44.4-36.3-44.4L1507.2,450.1z"/>
				<path class="st11" d="M1488.2,356.4c0,0-8.1,0-11.9,6.5c-3.8,6.5,3.8,10.8,3.8,10.8s-4.3,14.1-4.3,16.8c0.3,2.6,1.1,5.2,2.2,7.6
					l-3.2,12.4l5.4,2.2c0,0,2.2,13,6,14.1c3.8,1.1,11.9-2.7,11.9-2.7l10.3,17.9l22.2-13l-7-17.3c0,0,11.4-23.8,9.2-38.5
					C1530.6,358.5,1503.9,351.5,1488.2,356.4z"/>
				<path class="st14" d="M1532.7,373.2c-2.2-14.6-28.7-21.7-44.4-16.8c0,0-8.1,0-11.9,6.5c-3.8,6.5,3.8,10.8,3.8,10.8
					s17.9-4.9,17.9-0.6c0,4.3-3.8,7-2.7,10.9c1.1,3.8,7.6,3.8,7.6,3.8l-0.5,8.1l4.9,3.3c0,0,0-8.1,3.2-7.6c3.2,0.6,5.4,1.7,5.4,7.6
					s-4.9,6.5-4.9,6.5s7,10.3,12.4,6C1523.4,411.7,1534.8,387.8,1532.7,373.2z"/>
				<path class="st11" d="M1531,421.4l-29.3,26l2.2,10.9l33.1-27.6L1531,421.4z"/>
				<path class="st11" d="M1415,529.7c5.9-4.1,12.1-7.7,18.5-10.8c8.1-3.2,76.4-4.9,76.4-4.9l2.9-12.3l21.5,9.7
					c-3.2,10.9-6.3,20-7.8,20.8c-3.7,2.1-79-6.7-79-6.7s-5.5,2.7-9.2,4.3c-2.6,1-5.3,1.5-8,1.6c0,0-8.5,11.1-8.2,8.2
					c0.3-2.9,3.9-7.1,3.9-7.1s-7.7,9.1-8.7,8.2c-1-0.9,5.8-9,5.8-9s-10.2,10.5-11,8.6c-0.6-1.3,6-9.6,6-9.6s-11.1,12.2-11.2,9.8
					S1411.8,532.3,1415,529.7z"/>
				<path class="st1" d="M1526.2,452.3c0,0-7.1,2.7-7.6,8.7c-0.5,6-8.7,53.1-8.7,53.1l24.4,17.4l16.2-61.7"/>
				<path class="st13" d="M1526.2,452.3c0,0-7.1,2.7-7.6,8.7c-0.5,6-8.7,53.1-8.7,53.1l24.4,17.4l16.2-61.7"/>
				<path class="st11" d="M1507.2,514.1c0,0,21.1,20.6,23.8,20.6c2.7,0,1.7-0.5,3.3-3.2c1.6-2.7,3.2-12.5,3.2-12.5l-26-13.5
					C1509.3,507.9,1507.8,510.9,1507.2,514.1z"/>
				<path class="st7" d="M1548.8,561.9c-21.7-4.1-43.8-5.7-65.8-4.7c-32.7,1.5-42.1,8-40.9,13.8c1.2,5.7,28.6,116.8,28.6,116.8
					l11.4-1.3l-6.3-100.9c0,0,39.4,13.2,63.5,15.7c24.1,2.5,30.3,0.2,36.8-7"/>
				<path class="st13" d="M1548.8,561.9c-21.7-4.1-43.8-5.7-65.8-4.7c-32.7,1.5-42.1,8-40.9,13.8c1.2,5.7,28.6,116.8,28.6,116.8
					l11.4-1.3l-6.3-100.9c0,0,39.4,13.2,63.5,15.7c24.1,2.5,30.3,0.2,36.8-7"/>
				<path class="st14" d="M1470.7,687.8c0,0-5.1,4.5-7.6,7.3c-2.6,2.8-18.9,12.2-20.3,13.9c-1.4,1.7,3,3.9,6.7,3.9
					c3.7,0,26.1-5.8,31.7-6.7c5.5-0.9,6.1-2.8,6.4-5.3c0.3-2.5-5.4-14.4-5.4-14.4L1470.7,687.8z"/>
				<path class="st7" d="M1551.1,603.8h-17.8v49.5h17.8V603.8z"/>
				<path class="st7" d="M1546.6,640.7h-8.9v49.5h8.9V640.7z"/>
				<path class="st7" d="M1543.8,606.3c11.7,0,21.3-0.1,24-0.3c8.3-0.7,11.9-3.5,12.3-3.8c5.5-4.9,5.7-15.6,6.2-41.5
					c0.1-7,0.3-14.9,0.6-24.2c1.2-40.9,16.2-81.9,16.3-82.3c0.6-1.5-0.1-3.1-1.6-3.7c-1.5-0.6-3.1,0.1-3.7,1.6c0,0.1,0,0.1-0.1,0.2
					c-0.2,0.4-15.4,42.2-16.7,84.1c-0.3,9.3-0.4,17.2-0.6,24.2c-0.4,21.9-0.7,33.9-4.1,37.1c-2.8,1.6-6,2.5-9.2,2.6
					c-7.4,0.6-76.5,0-77.2,0c-1.6,0-2.9,1.3-2.9,2.9c0,1.6,1.3,2.8,2.9,2.9C1491.9,606.1,1521.6,606.3,1543.8,606.3L1543.8,606.3z"
					/>
				<path class="st7" d="M1545.8,686.4c0,0,7.5,8.4,26.7,11.4c10.1,1.5,20.7,3.5,29.9,8.4c5.9,3.1,17.6,9.9,17.6,17.7
					c-0.2,3.9-3.5,6.8-7.3,6.6c-3.6-0.2-6.5-3-6.7-6.6c0-1.8,0.7-3.5,1.9-4.8c-4.8-7.2-12.2-12.2-20.7-14
					c-14.6-3.2-25.2-1.9-45.8-15.5L1545.8,686.4z"/>
				<path class="st7" d="M1539.4,686.4c0,0-7.5,8.4-26.7,11.4c-10.1,1.5-20.7,3.5-29.9,8.4c-5.9,3.1-17.6,9.9-17.6,17.7
					c0,3.9,3.1,7,6.9,7s7-3.1,7.1-6.9c0-1.8-0.7-3.5-1.9-4.9c4.8-7.2,12.2-12.2,20.7-14c14.6-3.2,25.2-1.9,45.8-15.5L1539.4,686.4z"
					/>
				<path class="st7" d="M1545.4,717.7h-5.8c-0.6,0-1.1,0.5-1.1,1.1v10.9c0,0.6,0.5,1.1,1.1,1.1h5.8c0.6,0,1.1-0.5,1.1-1.1v-10.9
					C1546.5,718.2,1546,717.7,1545.4,717.7z"/>
				<path class="st7" d="M1544.4,687.5h-3.8v43.3h3.8V687.5z"/>
				<path class="st7" d="M1715.4,730.8h-397.5c-0.3,0-0.6-0.3-0.6-0.6c0-0.4,0.3-0.6,0.6-0.6h397.5c0.3,0,0.6,0.3,0.6,0.6
					C1716,730.5,1715.7,730.8,1715.4,730.8z"/>
				<path class="st4" d="M1436.7,541.7h-51.4v2.5h51.4V541.7z"/>
				<path class="st7" d="M1384.4,544.2v-2.5c0-0.5,0.4-0.8,0.8-0.8h51.4c0.5,0,0.8,0.4,0.8,0.8v2.5c0,0.5-0.4,0.8-0.8,0.8h-51.4
					C1384.8,545,1384.4,544.7,1384.4,544.2z M1435.9,542.5h-49.8v0.9h49.8V542.5z"/>
				<path class="st7" d="M1371,512.4l-6.7,0.8l-8.6-74l6.2-9.9L1371,512.4z"/>
				<path class="st7" d="M1363.8,513.9c-0.2-0.1-0.3-0.3-0.3-0.6l-8.6-74c0-0.2,0-0.4,0.1-0.5l6.2-9.9c0.2-0.3,0.6-0.5,0.9-0.4
					c0.3,0.1,0.6,0.4,0.7,0.7l9,83.2c0,0.5-0.3,0.9-0.7,0.9l-6.7,0.8c0,0-0.1,0-0.1,0C1364.1,514.1,1363.9,514,1363.8,513.9z
					 M1361.4,431.8l-4.8,7.6l8.4,72.9l5-0.6L1361.4,431.8L1361.4,431.8z"/>
				<path class="st4" d="M1365,418.5l-4.8,0.6l11,95.2l4.8-0.6L1365,418.5z"/>
				<path class="st7" d="M1370.3,514.4l-11-95.2c-0.1-0.5,0.3-0.9,0.7-0.9l4.8-0.6c0.2,0,0.4,0,0.6,0.2c0.2,0.1,0.3,0.3,0.3,0.6
					l11,95.2c0,0.2,0,0.4-0.2,0.6c-0.1,0.2-0.3,0.3-0.6,0.3l-4.8,0.6c0,0-0.1,0-0.1,0C1370.8,515.1,1370.4,514.8,1370.3,514.4
					L1370.3,514.4z M1364.2,419.4l-3.2,0.4l10.8,93.6l3.2-0.4L1364.2,419.4z"/>
				<path class="st4" d="M1358.2,492.4l2.7,48.4v3.8h3.7h15.9v-3.8h-15.9l-2.8-48.9L1358.2,492.4z"/>
				<path class="st7" d="M1360.1,544.6v-3.7l-2.7-48.4c0-0.4,0.3-0.8,0.7-0.9l3.6-0.4c0.2,0,0.5,0,0.6,0.2c0.2,0.2,0.3,0.4,0.3,0.6
					l2.7,48.1h15.1c0.5,0,0.8,0.4,0.8,0.8v3.8c0,0.5-0.4,0.8-0.8,0.8h-19.5C1360.5,545.4,1360.1,545.1,1360.1,544.6L1360.1,544.6z
					 M1379.6,541.7h-15c-0.4,0-0.8-0.4-0.8-0.8l-2.7-48l-2,0.2l2.7,47.7v2.9h17.9V541.7z"/>
				<path class="st7" d="M1330.6,710.8c0.8,0,1.7-0.4,2.2-1.2l99.6-161.1c0.7-1.2,0.4-2.7-0.8-3.5c-1.2-0.7-2.7-0.4-3.5,0.8
					L1328.5,707c-0.7,1.2-0.4,2.7,0.8,3.5C1329.7,710.7,1330.2,710.8,1330.6,710.8L1330.6,710.8z"/>
				<path class="st4" d="M1444.3,544.2H1319v5.1h125.3V544.2z"/>
				<path class="st7" d="M1318.4,549.2v-5.1c0-0.3,0.3-0.6,0.6-0.6h125.3c0.3,0,0.6,0.3,0.6,0.6v5.1c0,0.3-0.3,0.6-0.6,0.6H1319
					C1318.7,549.9,1318.4,549.6,1318.4,549.2z M1443.7,544.8h-124.1v3.9h124.1V544.8z"/>
				<path class="st7" d="M1343.5,456h-25.6v267.4h25.6V456z"/>
				<path class="st11" d="M1403.8,579.9h-6.7v44.1h6.7V579.9z"/>
				<path class="st11" d="M1403.8,629.9h-6.7v44.1h6.7V629.9z"/>
				<path class="st11" d="M1403.8,679.9h-6.7v44.1h6.7V679.9z"/>
				<path class="st7" d="M1399.9,573.4h-82v156.8h82V573.4z"/>
			</g>
		</g>
	</g>
</g>
</svg>
