<svg width="30" height="30" viewBox="0 0 30 30" fill="none" xmlns="http://www.w3.org/2000/svg">
<g clip-path="url(#clip0_499_279)">
<path d="M15 30C23.2843 30 30 23.2843 30 15C30 6.71573 23.2843 0 15 0C6.71573 0 0 6.71573 0 15C0 23.2843 6.71573 30 15 30Z" fill="#1D67B1"/>
<path d="M22.1112 28.1928C22.4496 28.0151 22.781 27.8246 23.1048 27.6216C23.5255 27.3513 23.9324 27.0602 24.324 26.7492C24.7159 26.4386 25.0919 26.1086 25.4508 25.7604C25.8097 25.4121 26.1509 25.046 26.4732 24.6636C26.7949 24.2813 27.0973 23.8833 27.3792 23.4708C27.6624 23.0574 27.9248 22.6301 28.1652 22.1904C28.4048 21.7516 28.6222 21.301 28.8168 20.8404C29.011 20.3796 29.182 19.9095 29.3292 19.4316C29.4035 19.1711 29.4707 18.9086 29.5308 18.6444L18.6444 7.75801L18.63 7.74601C18.3851 7.50764 18.1202 7.29084 17.838 7.09801C17.4979 6.856 17.1336 6.65009 16.7508 6.48361C16.7424 6.47881 16.7352 6.47401 16.7268 6.47161L16.7232 6.46921C16.3303 6.30892 15.9217 6.19027 15.504 6.11521C15.1711 6.04835 14.8331 6.00981 14.4936 6.00001C13.3976 5.98008 12.3173 6.2624 11.3712 6.81601C9.99902 7.62056 9.00169 8.93621 8.59772 10.4747C8.19375 12.0132 8.41609 13.6491 9.21601 15.024C9.36721 15.2832 9.54001 15.5196 9.72241 15.7452C9.78001 15.8172 9.84241 15.8844 9.90481 15.954C9.97921 16.038 10.0488 16.128 10.1268 16.206L22.1112 28.194V28.1928Z" fill="#154082"/>
<path d="M14.4947 6.00001C13.3988 5.98008 12.3185 6.2624 11.3723 6.81601C9.99996 7.62036 9.00238 8.93592 8.59818 10.4744C8.19398 12.013 8.41613 13.649 9.21595 15.024C10.5611 17.328 13.2107 18.3264 15.6875 17.778L18.5915 22.7508C18.8343 23.1613 19.2291 23.4595 19.6903 23.5808C20.1514 23.7021 20.6419 23.6367 21.0551 23.3988C21.4657 23.1558 21.7639 22.7608 21.885 22.2993C22.0061 21.8379 21.9403 21.3473 21.7019 20.934L18.7979 15.9612C20.4935 14.0748 20.9255 11.2764 19.5803 8.97241C19.0594 8.08187 18.3177 7.34055 17.427 6.81992C16.5362 6.2993 15.5264 6.01692 14.4947 6.00001ZM14.4803 7.19281C15.306 7.20691 16.1141 7.43404 16.8261 7.85221C17.5382 8.27038 18.1302 8.8654 18.5447 9.57961C19.0914 10.5175 19.3029 11.6135 19.1443 12.6875C18.9858 13.7615 18.4667 14.7496 17.6723 15.4896L17.3243 15.816L20.6627 21.5412C20.7045 21.6088 20.732 21.6841 20.7437 21.7626C20.7554 21.8411 20.751 21.9212 20.7308 21.9979C20.7106 22.0747 20.675 22.1466 20.6262 22.2092C20.5774 22.2717 20.5163 22.3237 20.4467 22.362C20.3793 22.4035 20.304 22.4309 20.2256 22.4425C20.1473 22.4541 20.0673 22.4497 19.9907 22.4295C19.9141 22.4093 19.8423 22.3738 19.7799 22.325C19.7174 22.2763 19.6654 22.2154 19.6271 22.146L16.2851 16.4208L15.8303 16.5636C14.7953 16.8918 13.6794 16.8583 12.6658 16.4686C11.6523 16.079 10.8014 15.3563 10.2527 14.4192C9.9336 13.875 9.72502 13.2732 9.63897 12.6483C9.55292 12.0233 9.59109 11.3875 9.7513 10.7774C9.9115 10.1672 10.1906 9.59466 10.5726 9.0926C10.9545 8.59053 11.4318 8.1688 11.9771 7.85161C12.7357 7.40739 13.6014 7.17954 14.4803 7.19281ZM15.0119 8.55481C14.9111 8.55206 14.8113 8.57476 14.7215 8.62081C14.6149 8.67495 14.5268 8.75975 14.4687 8.86431C14.4105 8.96887 14.385 9.08842 14.3953 9.20761C14.4056 9.3268 14.4513 9.44019 14.5266 9.5332C14.6018 9.62621 14.7031 9.69461 14.8175 9.72961C15.6311 9.99361 16.2923 10.5912 16.6367 11.3736C16.7007 11.5194 16.82 11.6338 16.9683 11.6916C17.1166 11.7494 17.2818 11.746 17.4275 11.682C17.5733 11.618 17.6877 11.4988 17.7455 11.3505C17.8034 11.2022 17.7999 11.037 17.7359 10.8912C17.4975 10.3494 17.1473 9.86409 16.7083 9.46703C16.2693 9.06998 15.7513 8.77016 15.1883 8.58721C15.1315 8.56763 15.072 8.55671 15.0119 8.55481Z" fill="white"/>
</g>
<defs>
<clipPath id="clip0_499_279">
<rect width="30" height="30" fill="white"/>
</clipPath>
</defs>
</svg>
