<svg width="24" height="24" viewBox="0 0 24 24" fill="none" xmlns="http://www.w3.org/2000/svg">
<g clip-path="url(#clip0_499_288)">
<path d="M3 8H5C6.654 8 8 6.654 8 5V3C8 1.346 6.654 0 5 0H3C1.346 0 0 1.346 0 3V5C0 6.654 1.346 8 3 8ZM2 3C2 2.448 2.448 2 3 2H5C5.552 2 6 2.448 6 3V5C6 5.552 5.552 6 5 6H3C2.448 6 2 5.552 2 5V3ZM8 15V13C8 11.346 6.654 10 5 10H3C1.346 10 0 11.346 0 13V15C0 16.654 1.346 18 3 18H5C6.654 18 8 16.654 8 15ZM6 15C6 15.552 5.552 16 5 16H3C2.448 16 2 15.552 2 15V13C2 12.448 2.448 12 3 12H5C5.552 12 6 12.448 6 13V15ZM13 8H15C16.654 8 18 6.654 18 5V3C18 1.346 16.654 0 15 0H13C11.346 0 10 1.346 10 3V5C10 6.654 11.346 8 13 8ZM12 3C12 2.448 12.448 2 13 2H15C15.552 2 16 2.448 16 3V5C16 5.552 15.552 6 15 6H13C12.448 6 12 5.552 12 5V3ZM13 4.5V3.5C13 3.224 13.224 3 13.5 3H14.5C14.776 3 15 3.224 15 3.5V4.5C15 4.776 14.776 5 14.5 5H13.5C13.224 5 13 4.776 13 4.5ZM23.998 22.941C24.03 23.493 23.609 23.965 23.059 23.998C23.038 23.998 23.019 24 22.999 24C22.474 24 22.033 23.59 22.002 23.059C21.933 21.874 21.171 20.841 20.061 20.425L15.681 18.947C15.274 18.81 15 18.428 15 18V12.107C15 11.569 14.638 11.089 14.175 11.014C13.871 10.962 13.58 11.043 13.353 11.237C13.129 11.427 13 11.706 13 12V20.454C13 21.062 12.659 21.604 12.111 21.869C11.562 22.133 10.926 22.062 10.451 21.682C10.451 21.682 8.69 20.277 8.68 20.268C8.278 19.895 7.646 19.914 7.27 20.316C6.893 20.719 6.914 21.354 7.316 21.732L7.884 22.28C8.532 22.904 8.09 24 7.19 24C6.931 24 6.682 23.9 6.496 23.72L5.938 23.182C4.742 22.062 4.678 20.16 5.808 18.952C6.911 17.77 8.75 17.692 9.96 18.744C9.968 18.75 10.999 19.564 10.999 19.564V12.001C10.999 11.119 11.385 10.286 12.057 9.715C12.729 9.143 13.617 8.9 14.496 9.041C15.923 9.273 16.999 10.593 16.999 12.108V17.283L20.729 18.542C22.611 19.246 23.881 20.97 23.997 22.942L23.998 22.941Z" fill="black"/>
</g>
<defs>
<clipPath id="clip0_499_288">
<rect width="24" height="24" fill="white"/>
</clipPath>
</defs>
</svg>
