<svg xmlns="http://www.w3.org/2000/svg" width="512" height="512" viewBox="0 0 512 512" version="1.1"><path d="" stroke="none" fill="#080404" fill-rule="evenodd"/><path d="M 53.121 162.169 C 37.206 170.047, 39.636 197.195, 56.679 201.928 C 62.037 203.416, 449.963 203.416, 455.321 201.928 C 472.408 197.183, 474.793 169.887, 458.798 162.144 L 454.369 160 255.934 160.001 L 57.500 160.002 53.121 162.169 M 55.625 310.469 C 46.137 313.851, 40.633 324.378, 42.835 334.927 C 44.353 342.197, 47.901 347.289, 53.250 349.879 L 57.631 352 256 352 L 454.369 352 458.798 349.856 C 474.793 342.113, 472.408 314.817, 455.321 310.072 C 452.685 309.340, 390.721 309.023, 255.500 309.049 C 91.371 309.082, 58.870 309.312, 55.625 310.469" stroke="none" fill="#040404" fill-rule="evenodd"/></svg>