<svg width="150" height="150" viewBox="0 0 150 150" fill="none" xmlns="http://www.w3.org/2000/svg">
<path d="M130.475 122.64C126.256 112.212 119.181 105.107 109.446 101.526C107.15 100.68 104.773 99.903 102.477 99.1518C101.011 98.6743 99.4968 98.1778 98.0115 97.6685C97.6474 97.5443 96.7659 97.1783 96.3922 96.4716C95.3318 94.4726 94.348 92.4896 93.3036 90.3951C92.965 89.7171 92.6264 89.0391 92.2847 88.3547L92.0803 87.9473L92.3997 87.6226C96.9447 83.0039 99.5255 77.2552 100.286 70.0551L100.346 69.4853H102.301C103.215 69.4853 104.071 69.4853 104.927 69.4853C109.73 69.4694 112.605 66.5855 112.611 61.7726C112.615 59.8819 112.611 57.9879 112.611 56.094C112.605 53.2897 112.602 50.393 112.618 47.541C112.656 40.6496 111.26 34.6685 108.351 29.2541C103.234 19.7239 95.45 13.4118 85.2163 10.4929C83.5044 10.0059 81.687 9.70983 79.9303 9.42017C79.1286 9.28966 78.3013 9.15279 77.49 9H72.5489C72.5202 9.00955 72.4946 9.0191 72.4691 9.02865C72.3126 9.08276 72.1177 9.15279 71.8941 9.1687C65.5892 9.67482 59.8272 11.6133 54.7711 14.9333C44.3905 21.7451 38.6317 31.2371 37.6608 43.1419C37.2487 48.1808 37.3158 53.3565 37.3797 58.3635C37.3988 59.8341 37.418 61.3015 37.4276 62.7658C37.4404 65.3441 38.6924 67.3494 41.0496 68.559C42.2889 69.1988 42.4454 70.0551 42.5156 71.0259C42.5316 71.2392 42.5476 71.4556 42.5604 71.6721C42.6466 73.009 42.736 74.3936 43.2087 75.5332C44.3298 78.242 46.6199 79.6617 49.8012 79.6171C51.4812 79.6044 52.4075 80.1328 53.19 81.5906C54.1642 83.405 55.4578 85.0538 56.9238 86.865C57.6361 87.7467 57.7159 88.4629 57.2081 89.4242C56.1221 91.4773 55.0713 93.4859 54.161 95.5167C53.6116 96.7454 52.762 97.4743 51.3215 97.9517C50.1078 98.3528 48.8621 98.738 47.6612 99.1072C44.3618 100.126 40.9506 101.176 37.8652 102.698C24.9071 109.086 17.8898 120.087 17.0083 135.395C16.9604 136.232 17.1201 136.849 17.4842 137.234C17.8707 137.642 18.5318 137.846 19.4517 137.846L19.5411 137.852C36.0861 140.179 73.7019 141.99 75.037 141.997C94.7441 142.083 130.495 137.846 130.495 137.846C131.44 137.846 132.085 137.658 132.465 137.273C132.845 136.884 133.018 136.238 132.999 135.293C132.897 130.789 132.047 126.533 130.475 122.64ZM92.9746 98.3146C93.1471 98.6679 93.2429 99.2218 93.064 99.6611C91.6267 103.182 90.1479 106.756 88.7138 110.213L87.4426 113.291L77.5443 103.43L89.3302 91.0158L90.4992 93.3458C91.3616 95.0583 92.1729 96.6721 92.9746 98.3146ZM74.8773 100.689L68.9365 94.705H80.5499L74.8773 100.689ZM108.699 49.1548C108.737 49.3267 108.785 49.5368 108.785 49.7723V51.5931C108.795 55.0245 108.801 58.5736 108.782 62.0655C108.769 64.3796 107.52 65.6274 105.166 65.6687C104.748 65.6783 104.336 65.6783 103.917 65.6783H102.886C102.531 65.6751 102.177 65.6751 101.812 65.6751H101.123L102.486 48.4705H108.574L108.664 48.9988C108.673 49.0498 108.686 49.1007 108.699 49.1548ZM41.4201 43.8422C41.8449 36.0914 45.4126 28.3501 51.2065 22.6078C57.4189 16.4516 65.7329 12.9757 74.6218 12.8134C83.0828 12.6606 91.3265 15.8309 97.8103 21.742C104.307 27.6625 108.14 35.5184 108.606 43.855L108.641 44.5266H102.726L102.63 44.0046C102.502 43.3075 102.391 42.604 102.279 41.9228C102.039 40.4172 101.809 38.9975 101.436 37.5938C98.7302 27.4111 89.4835 19.8735 78.9465 19.2591C73.7435 18.9567 69.077 18.8453 64.6022 20.5515C54.49 24.4062 48.7887 31.8451 47.6548 42.6581C47.6325 42.8523 47.6165 43.0496 47.6005 43.2438C47.5845 43.4284 47.5686 43.6099 47.5494 43.7913C47.5239 44.0332 47.3833 44.1796 47.3226 44.2433C47.3099 44.2528 47.2971 44.2656 47.2811 44.2847L47.0895 44.5139H41.385L41.4201 43.8422ZM44.1701 65.6242C42.4709 65.4969 41.27 64.2491 41.2476 62.5843C41.2061 59.3598 41.2125 56.0622 41.2189 52.8759C41.2221 51.6122 41.2253 50.3453 41.2253 49.0689V48.4323H47.5015L48.8749 65.6465H48.1818C47.7698 65.6465 47.3578 65.6528 46.9521 65.6592C46.5561 65.6687 46.1536 65.6751 45.748 65.6751C45.221 65.6751 44.694 65.6624 44.1701 65.6242ZM49.897 75.7655C48.6002 75.7369 47.7666 75.444 47.1917 74.8202C46.3165 73.8652 46.2303 72.2705 46.3708 70.1728L46.4123 69.5808H49.5552L50.6763 75.7815L49.897 75.7655ZM51.494 41.4326C51.6345 40.936 51.7655 40.4299 51.8933 39.927C52.1775 38.8257 52.4682 37.6893 52.8802 36.5975C55.8794 28.6843 63.5865 23.2221 72.057 23.0056C76.4009 22.8942 80.8917 22.7765 85.2419 24.5144C93.9104 27.9713 99.4776 37.2023 98.4779 46.4619L98.4108 47.089L97.7816 47.0285C87.5895 46.0386 78.921 42.2093 72.0123 35.6489C71.003 34.6876 69.9809 34.3279 68.6043 34.4457C62.5357 34.9646 57.6361 37.2755 53.6244 41.5122C53.5382 41.6013 53.4583 41.7637 53.3721 41.9324C53.3178 42.0406 53.2635 42.152 53.206 42.2539L52.877 42.8236L51.3662 41.8973L51.494 41.4326ZM57.0676 80.5848L56.5948 79.6585H57.6361C58.0353 79.6585 58.4282 79.6585 58.8179 79.6585C60.0412 79.6521 61.1974 79.6489 62.3696 79.6935C62.9892 79.7158 63.4045 80.397 63.5546 80.6898C64.9568 83.405 67.1638 84.7292 70.3003 84.7355C70.7347 84.7355 71.1691 84.7387 71.6067 84.7419C72.7214 84.7514 73.8712 84.7578 74.9987 84.7228C78.9401 84.605 82.0159 81.5397 82 77.7454C81.9872 73.9257 79.0168 70.9336 75.0977 70.7808C73.1302 70.7044 71.3575 70.7076 69.6711 70.7872C66.9434 70.9209 64.9248 72.2037 63.6728 74.6069C63.3246 75.2753 62.8359 75.8929 61.6701 75.861C60.1753 75.8228 58.6741 75.8292 57.0835 75.8388C56.4383 75.8388 55.7804 75.8388 55.1 75.8388H54.5571L54.4708 75.3072C54.3143 74.3745 54.1514 73.4482 53.9853 72.5283C53.6244 70.5134 53.2539 68.4317 53.0207 66.369C52.4778 61.5944 52.0849 56.8388 51.6633 51.5581C51.6026 50.826 51.8741 49.9379 52.3532 49.2949C52.6407 48.9097 52.9217 48.5246 53.206 48.1362C54.8701 45.8508 56.5916 43.4921 59.0382 41.7605C61.8458 39.7774 64.9216 38.6283 68.1827 38.3514C68.895 38.2909 69.6519 38.7206 70.0831 39.1121C75.8164 44.2592 82.5078 47.7829 89.9754 49.575C91.6938 49.9888 93.4345 50.2785 95.2807 50.5872C96.1462 50.7336 97.0278 50.8801 97.9317 51.0456L98.5034 51.1506L98.4523 51.7268C98.3597 52.7708 98.2798 53.8085 98.2 54.843C98.0243 57.1221 97.8423 59.4808 97.5388 61.7822C97.4366 62.5684 97.3376 63.3578 97.2386 64.1472C96.801 67.655 96.3507 71.2837 95.4372 74.7501C93.7539 81.1545 89.5474 86.3939 83.8972 89.125C81.1184 90.4683 78.1448 91.1431 75.1297 91.1431C72.1145 91.1431 69.3325 90.5288 66.509 89.3033C62.6794 87.6385 58.8849 84.1371 57.0676 80.5848ZM66.7294 77.7263C66.739 76.0138 68.0965 74.6642 69.8883 74.5942C71.6386 74.521 73.373 74.5241 75.037 74.5973C76.8321 74.6769 78.1767 76.0361 78.1672 77.7613C78.1576 79.4611 76.8353 80.7789 75.0275 80.9031C74.6889 80.9254 74.3503 80.9317 74.015 80.9317C73.7467 80.9317 73.4784 80.9317 73.2133 80.9222C72.9545 80.919 72.6958 80.9126 72.4339 80.9126C72.1624 80.9158 71.8941 80.919 71.6226 80.9222C71.0413 80.9317 70.4409 80.9413 69.8404 80.8999C68.0294 80.7662 66.7198 79.4325 66.7294 77.7263ZM56.9909 98.3751C57.684 96.9459 58.3994 95.5262 59.0894 94.1543L60.0987 92.149L71.9069 103.825L62.6698 113.555L61.3411 110.35C59.8176 106.68 58.3803 103.213 56.9494 99.7215C56.7833 99.3173 56.8024 98.7634 56.9909 98.3751ZM20.6175 133.994L20.7804 133.224C20.9369 132.492 21.0743 131.75 21.2052 131.031C21.4895 129.48 21.7833 127.876 22.2784 126.358C25.9036 115.204 33.0454 107.861 43.5058 104.531C45.5947 103.869 47.6452 103.175 49.8172 102.44C50.8233 102.103 51.839 101.759 52.8834 101.409L53.4903 101.208L53.6915 101.816C57.486 113.339 64.3914 123.331 71.0733 132.995L71.7632 133.994H20.6175ZM75.6471 131.269L75.3181 131.785L74.7879 131.479C74.7496 131.457 74.7144 131.441 74.6825 131.425C74.5516 131.365 74.3567 131.272 74.2194 131.066C73.3091 129.684 72.402 128.303 71.4949 126.921C69.604 124.037 67.6461 121.058 65.6978 118.142C65.0717 117.203 65.142 116.452 65.9373 115.634C67.9751 113.53 69.9586 111.435 72.057 109.22C72.7948 108.44 73.5391 107.654 74.2928 106.858L74.7432 106.384L77.0493 108.676C79.5502 111.162 81.9169 113.511 84.2869 115.939C84.7692 116.433 84.6542 117.506 84.3412 117.989C83.4053 119.434 82.428 120.88 81.4826 122.28C80.7735 123.331 80.0421 124.416 79.333 125.489C78.4706 126.797 77.6146 128.156 76.7874 129.468C76.4105 130.069 76.0304 130.668 75.6471 131.269ZM78.2885 133.949L79.6332 131.982C86.3534 122.159 92.6999 112.88 96.3027 101.765L96.5135 101.122L97.1428 101.367C99.0592 102.115 101.039 102.739 102.953 103.341C107.261 104.7 111.717 106.104 115.512 108.949C123.452 114.899 127.898 122.844 129.105 133.24L129.188 133.949H78.2885Z" fill="#3A86FF"/>
<path d="M122.743 124.642C122.663 125.702 122.286 126.256 121.462 126.542C120.568 126.854 119.9 126.625 119.3 125.804C118.843 125.183 118.399 124.553 117.952 123.923C117.192 122.847 116.403 121.733 115.572 120.669C115.141 120.119 114.617 119.67 114.11 119.237C113.854 119.021 113.614 118.817 113.384 118.6C112.893 118.132 111.871 116.917 112.988 115.691C113.416 115.223 113.867 115.054 114.295 115.054C114.921 115.054 115.496 115.414 115.866 115.713C118.568 117.894 120.753 120.542 122.356 123.588C122.494 123.849 122.59 124.155 122.673 124.425C122.698 124.502 122.721 124.572 122.743 124.642Z" fill="#3A86FF"/>
<path d="M107.3 112.132C107.287 112.603 107.063 113.081 106.686 113.437C106.313 113.794 105.837 113.985 105.367 113.975C104.371 113.947 103.489 113.027 103.518 112.05C103.547 111.072 104.441 110.207 105.406 110.207H105.454C105.926 110.219 106.402 110.442 106.76 110.815C107.118 111.187 107.312 111.668 107.3 112.132Z" fill="#3A86FF"/>
</svg>
