<svg width="22" height="11" viewBox="0 0 22 11" fill="none" xmlns="http://www.w3.org/2000/svg">
<path d="M15.6779 0.223067C15.5291 0.364664 15.4453 0.557414 15.4453 0.75849C15.4453 0.959566 15.5291 1.15232 15.6779 1.29391L19.2947 4.76285H0.786255C0.352018 4.76285 0 5.10048 0 5.51697C0 5.93346 0.352018 6.27109 0.786255 6.27109H19.279L15.6779 9.71741C15.3731 10.0115 15.3731 10.4866 15.6779 10.7807C15.9846 11.0731 16.4799 11.0731 16.7865 10.7807L21.7871 5.98452C21.9231 5.85937 22 5.68643 22 5.50566C22 5.32489 21.9231 5.15194 21.7871 5.02679L16.7944 0.223067C16.6468 0.0803024 16.4458 0 16.2362 0C16.0265 0 15.8255 0.0803024 15.6779 0.223067Z" fill="white"/>
</svg>
