<?xml version="1.0" encoding="utf-8"?>
<!-- Generator: Adobe Illustrator 27.0.0, SVG Export Plug-In . SVG Version: 6.00 Build 0)  -->
<svg version="1.1" id="Layer_1" xmlns="http://www.w3.org/2000/svg" xmlns:xlink="http://www.w3.org/1999/xlink" x="0px" y="0px"
	 viewBox="0 0 448 512" style="enable-background:new 0 0 448 512;" xml:space="preserve">
<style type="text/css">
	.st0{fill:#FF0000;}
</style>
<path class="st0" d="M395.5,354.7l-103.7-99.9l99.9-103.7c12.3-12.7,11.9-33-0.8-45.2l-23-22.2c-12.7-12.3-33-11.9-45.2,0.8
	l-99.9,103.7l-103.7-100c-12.7-12.3-33-11.9-45.2,0.8l-22.2,23c-12.3,12.7-11.9,33,0.8,45.2l103.7,99.9l-100,103.8
	c-12.3,12.7-11.9,33,0.8,45.2l23,22.2c12.7,12.3,33,11.9,45.2-0.8l99.9-103.7l103.7,99.9c12.7,12.3,33,11.9,45.2-0.8l22.2-23
	C408.6,387.2,408.3,367,395.5,354.7z"/>
</svg>
