<?xml version="1.0" encoding="utf-8"?>
<!-- Generator: Adobe Illustrator 27.0.0, SVG Export Plug-In . SVG Version: 6.00 Build 0)  -->
<svg version="1.1" id="Layer_1" xmlns="http://www.w3.org/2000/svg" xmlns:xlink="http://www.w3.org/1999/xlink" x="0px" y="0px"
	 viewBox="0 0 420 254" style="enable-background:new 0 0 420 254;" xml:space="preserve">
<style type="text/css">
	.st0{opacity:0.34;}
	.st1{opacity:0.6;}
	.st2{fill:#53D0F7;fill-opacity:0.8;}
	.st3{opacity:0.41;}
	.st4{fill:#53D0F7;}
	.st5{opacity:0.35;}
	.st6{opacity:0.47;}
	.st7{opacity:0.7;}
	.st8{fill:#53D0F7;fill-opacity:0.5;}
	.st9{clip-path:url(#SVGID_00000130637830683799795000000006021565787918563248_);}
	.st10{fill:#3AAED5;fill-opacity:0.44;}
	.st11{opacity:0.22;}
	.st12{fill:#3AAED5;}
	.st13{fill:#3D85FD;}
	.st14{fill:#FFB44F;}
	.st15{fill:#233863;}
	.st16{fill:#73B0FF;}
	.st17{opacity:0.24;fill:#73B0FF;enable-background:new    ;}
	.st18{fill:#FFFFFF;}
	.st19{opacity:0.12;fill:#FFFFFF;enable-background:new    ;}
</style>
<g class="st0">
	<g class="st1">
		<path class="st2" d="M331.3,175.4c2.5,10.9,2,20.9-1.2,31.5c-4.1,13.3-13.3,25.8-26.5,33.4c-4.6,2.7-9.6,4.7-14.8,6.1
			c-0.8,1.4-1.8,2.7-2.7,3.9h44.2c11.2-13.4,17.7-30.7,18.7-48.2c0.3-4.7,0.2-9.5-0.4-14.2c-2.1-18.3-10.1-35.7-22.2-49.5
			c-0.2,1-0.3,1.9-0.4,2.9C324.5,153,328.7,164.3,331.3,175.4z"/>
	</g>
	<g class="st3">
		<path class="st4" d="M191.9,247.3c-2.6-3.5-4.6-8-7.3-11.6c-5.9,1.2-11.7,2.9-17.5,4.4c-12,3-24.4,5.3-36.8,5.5
			c-13.8,0.2-27.8-2.4-39.8-9.4c-9.1-5.3-17.2-13.4-21.5-23.2c1.2,13.4,6.1,26.4,14.4,37H194C193.3,249.1,192.6,248.2,191.9,247.3z"
			/>
	</g>
	<g class="st5">
		<path class="st2" d="M90.7,235.5c12,7,26,9.6,39.8,9.5c12.4-0.1,24.8-2.3,36.9-5.2c5.9-1.4,11.7-3.1,17.6-4.3
			c-2.4-3.2-5.4-5.6-9.8-6.2c-17.1-2-35.1,5.1-52.1,6.3c-11.4,0.8-23.6-0.8-32.8-7.6c-6-4.5-10.4-10.9-13.4-17.8
			c-6.2-14.4-6.4-30.8-1.1-45.5c3.5-9.9,12.1-17.5,15.1-27.6c2.5-8.5-0.4-17.3,0.4-25.8c0.2-1.7,0.5-3.5,1-5.2
			c2.9-9.1,17.1-22.2,25.8-26.6c20.8-10.5,42.4-15.6,64.6-16.1c-12.6-2.1-24.5-5.9-45.5-10.4c-25-5.4-53.1,13.1-67.9,34.6
			c-1.5,2.2-2.8,4.5-4,6.9c-5.1,10.7-6.5,23-4.2,34.5c2.8,13.6,11.4,24,8.3,38.5c-1.9,8.8-2.4,17-3.3,25.7
			c-0.8,6.8,0.5,13.3,3.1,19.2C73.5,222,81.5,230.1,90.7,235.5z"/>
	</g>
	<g class="st6">
		<path class="st4" d="M222,59.7c-4,0.3-7.6,0.5-11,0.6c11.5,1.6,23.1,4.4,34.6,8.1l43.2,14.1c20.3,6.6,33.8,26,32.5,47.2
			c0,0.1,0,0.3,0,0.4c-0.8,12.3-4.9,24.4-11.7,34.5c-6.2,9.2-14.7,19.4-16.8,30.6c-1.7,9,2,18,2.4,27.1c0.4,8.7-2.2,16.9-6.7,24
			c5.2-1.4,10.2-3.4,14.9-6.1c13.3-7.6,22.6-20,26.8-33.3c3.3-10.6,3.7-20.6,1.2-31.5c-2.5-11.2-6.8-22.4-5.5-34
			c0.1-1,0.3-1.9,0.4-2.9c1.3-7.1,4.1-14,3.5-21.1c-0.5-5.4-2.8-10.5-5.8-15c-9.7-15.2-25.4-25.8-42.3-32.2
			c-1.7-0.6-3.4-1.2-5.1-1.8C258.9,62.5,240.5,58.3,222,59.7z"/>
	</g>
	<g class="st7">
		<path class="st8" d="M88.6,99.1c-0.6,1.8-0.9,3.6-1.1,5.5c-0.8,9,2.2,18.3-0.3,27.3c-3,10.7-11.9,18.7-15.5,29.2
			c-5.3,15.5-5.1,32.9,1.4,48.1c3.1,7.3,7.7,14.1,13.9,18.8c9.6,7.2,22.1,8.8,33.9,7.9c17.5-1.4,36-9,53.7-6.9
			c4.6,0.5,7.6,3.1,10.1,6.5c2.8,3.8,4.9,8.5,7.6,12.2c0.7,1,1.4,1.9,2.2,2.8h92.2c1-1.3,1.9-2.6,2.8-4c4.6-7.3,7.2-15.7,6.8-24.6
			c-0.5-9.4-4.2-18.7-2.5-27.9c2.2-11.5,10.9-22.1,17.2-31.5c7-10.4,11.2-22.8,12-35.4c0-0.1,0-0.3,0-0.4
			c1.3-21.8-12.5-41.7-33.2-48.5l-44.1-14.5c-11.8-3.9-23.6-6.7-35.4-8.4c-7.9-1.1-15.9-1.7-23.7-1.7c-1.7,0-3.4,0-5.1,0.1
			c-22.8,0.7-45.1,6.2-66.4,17.4C106,75.6,91.5,89.5,88.6,99.1z"/>
	</g>
	<g class="st5">
		<path class="st4" d="M177.4,17.4c4.6,0,8.3-3.7,8.3-8.3c0-4.6-3.7-8.3-8.3-8.3c-4.6,0-8.3,3.7-8.3,8.3
			C169.1,13.7,172.8,17.4,177.4,17.4z"/>
	</g>
	<g class="st5">
		<path class="st4" d="M401.3,126.4c10.3,0,18.7-8.4,18.7-18.7S411.6,89,401.3,89c-10.3,0-18.7,8.4-18.7,18.7S391,126.4,401.3,126.4
			z"/>
	</g>
	<g class="st5">
		<path class="st4" d="M38.3,157.9c7.9-6.6,9-18.4,2.4-26.3c-6.6-7.9-18.4-9-26.3-2.4c-7.9,6.6-9,18.4-2.4,26.3
			C18.6,163.4,30.4,164.5,38.3,157.9z"/>
	</g>
	<g class="st5">
		<path class="st4" d="M323.5,32.3c3.1,0,5.7-2.5,5.7-5.7s-2.5-5.7-5.7-5.7c-3.1,0-5.7,2.5-5.7,5.7S320.4,32.3,323.5,32.3z"/>
	</g>
</g>
<g>
	<defs>
		<rect id="SVGID_1_" x="29.6" y="0.9" width="318.6" height="219.2"/>
	</defs>
	<clipPath id="SVGID_00000165931608644391363040000000902675537911252401_">
		<use xlink:href="#SVGID_1_"  style="overflow:visible;"/>
	</clipPath>
	<g style="clip-path:url(#SVGID_00000165931608644391363040000000902675537911252401_);">
		<path class="st10" d="M140.8,221.2c-0.3,0-0.5-0.2-0.5-0.5c0-17.6,7.4-34.6,20.2-46.6c2.3-2.1,4.7-4.1,7.3-5.9
			c0.2-0.2,0.6-0.1,0.7,0.1c0.2,0.2,0.1,0.6-0.1,0.7c-2.5,1.7-4.9,3.7-7.2,5.8c-12.6,11.8-19.9,28.6-19.9,45.9
			C141.3,220.9,141.1,221.2,140.8,221.2z"/>
		<path class="st10" d="M267.6,221.2c-0.3,0-0.5-0.2-0.5-0.5c0-7.2-1.2-14.2-3.6-20.9c-0.1-0.3,0-0.6,0.3-0.7c0.3-0.1,0.6,0,0.7,0.3
			c2.4,6.8,3.6,14,3.6,21.3C268.1,220.9,267.8,221.2,267.6,221.2z"/>
		<path class="st10" d="M262.6,196.6c-0.2,0-0.4-0.1-0.5-0.3c-4.9-11.7-13.2-21.5-23.9-28.4c-0.2-0.2-0.3-0.5-0.2-0.7
			c0.2-0.2,0.5-0.3,0.7-0.2c10.9,7,19.3,17,24.3,28.9c0.1,0.3,0,0.6-0.3,0.7C262.7,196.5,262.7,196.6,262.6,196.6z"/>
		<path class="st10" d="M172.2,166.5c-0.2,0-0.3-0.1-0.4-0.3c-0.1-0.2-0.1-0.6,0.2-0.7c9.7-5.7,20.9-8.7,32.2-8.7c9.5,0,18.5,2,27,6
			c0.3,0.1,0.4,0.4,0.2,0.7c-0.1,0.3-0.4,0.4-0.7,0.2c-8.4-3.9-17.3-5.9-26.6-5.9c-11.2,0-22.1,3-31.7,8.6
			C172.4,166.4,172.3,166.5,172.2,166.5z"/>
		<path class="st10" d="M129.5,221.2c-0.3,0-0.5-0.2-0.5-0.5c0-29.8,17.6-56.8,44.9-68.8c0.3-0.1,0.6,0,0.7,0.3
			c0.1,0.3,0,0.6-0.3,0.7c-26.9,11.8-44.3,38.5-44.3,67.9C130.1,220.9,129.8,221.2,129.5,221.2z"/>
		<path class="st10" d="M278.8,221.2c-0.3,0-0.5-0.2-0.5-0.5c0-23.4-11.2-45.6-30-59.6c-0.2-0.2-0.3-0.5-0.1-0.7
			c0.2-0.2,0.5-0.3,0.7-0.1c9.2,6.8,16.9,15.9,22.1,26.1c5.5,10.7,8.3,22.2,8.3,34.4C279.4,220.9,279.1,221.2,278.8,221.2z"/>
		<path class="st10" d="M244.2,158.1c-0.1,0-0.2,0-0.3-0.1c-1.5-1-3.1-1.9-4.7-2.7c-0.3-0.1-0.3-0.4-0.2-0.7
			c0.1-0.3,0.4-0.3,0.7-0.2c1.6,0.9,3.2,1.8,4.7,2.8c0.2,0.2,0.3,0.5,0.2,0.7C244.5,158,244.3,158.1,244.2,158.1z"/>
		<path class="st10" d="M236.2,153.7c-0.1,0-0.1,0-0.2-0.1c-10-4.7-20.6-7.1-31.7-7.1c-8.1,0-16.1,1.3-23.7,3.9
			c-0.3,0.1-0.6-0.1-0.7-0.3c-0.1-0.3,0.1-0.6,0.3-0.7c7.7-2.6,15.8-3.9,24.1-3.9c11.3,0,22.1,2.4,32.2,7.2c0.3,0.1,0.4,0.4,0.2,0.7
			C236.5,153.6,236.3,153.7,236.2,153.7z"/>
		<path class="st10" d="M291.3,221.2c-0.3,0-0.5-0.2-0.5-0.5c0-9.5-1.5-18.9-4.6-27.9c-0.1-0.3,0.1-0.6,0.3-0.7
			c0.3-0.1,0.6,0.1,0.7,0.3c3.1,9.1,4.6,18.5,4.6,28.2C291.9,220.9,291.6,221.2,291.3,221.2z"/>
		<path class="st10" d="M284.9,188.3c-0.2,0-0.4-0.1-0.5-0.3c-6.1-15-16.3-28-29.5-37.5c-0.2-0.2-0.3-0.5-0.1-0.7
			c0.2-0.2,0.5-0.3,0.7-0.1c13.3,9.7,23.6,22.8,29.8,37.9c0.1,0.3,0,0.6-0.3,0.7C285,188.3,285,188.3,284.9,188.3z"/>
		<path class="st10" d="M250.3,147.2c-0.1,0-0.2,0-0.3-0.1c-13.7-8.6-29.6-13.1-45.8-13.1c-7.3,0-14.6,0.9-21.6,2.7
			c-0.3,0.1-0.6-0.1-0.6-0.4c-0.1-0.3,0.1-0.6,0.4-0.6c7.1-1.8,14.5-2.8,21.9-2.8c16.4,0,32.5,4.6,46.3,13.2
			c0.2,0.1,0.3,0.5,0.2,0.7C250.6,147.1,250.4,147.2,250.3,147.2z"/>
		<path class="st10" d="M165.9,142.9c-0.2,0-0.4-0.1-0.5-0.3c-0.1-0.3,0-0.6,0.2-0.7c2.7-1.3,5.5-2.5,8.2-3.5c0.3-0.1,0.6,0,0.7,0.3
			c0.1,0.3,0,0.6-0.3,0.7c-2.8,1-5.5,2.2-8.1,3.5C166,142.9,165.9,142.9,165.9,142.9z"/>
		<path class="st10" d="M117,221.2c-0.3,0-0.5-0.2-0.5-0.5c0-15.6,4.1-30.9,12-44.2c7.6-13,18.4-23.8,31.4-31.4
			c0.2-0.1,0.6-0.1,0.7,0.2c0.1,0.2,0.1,0.6-0.2,0.7c-26.4,15.5-42.8,44.2-42.8,74.8C117.6,220.9,117.3,221.2,117,221.2z"/>
		<g class="st11">
			<path class="st12" d="M106.8,211.1c-0.4,0-0.8-0.3-0.8-0.8c0-13.7,2.8-26.9,8.3-39.3c5.3-12,12.8-22.6,22.4-31.6
				c3.5-3.2,7.2-6.2,11.1-8.9c0.3-0.2,0.8-0.2,1.1,0.2c0.2,0.3,0.2,0.8-0.2,1.1c-3.8,2.7-7.5,5.6-10.9,8.8
				c-19.2,18-30.2,43.4-30.2,69.7C107.6,210.7,107.2,211.1,106.8,211.1z"/>
			<path class="st12" d="M299.5,211.1c-0.4,0-0.8-0.3-0.8-0.8c0-10.9-1.8-21.6-5.4-31.8c-0.1-0.4,0.1-0.8,0.5-1
				c0.4-0.1,0.8,0.1,1,0.5c3.7,10.4,5.5,21.2,5.5,32.3C300.3,210.7,300,211.1,299.5,211.1z"/>
			<path class="st12" d="M292,173.6c-0.3,0-0.6-0.2-0.7-0.5c-7.5-17.8-20.1-32.8-36.4-43.3c-0.4-0.2-0.5-0.7-0.2-1.1
				c0.2-0.4,0.7-0.5,1.1-0.2c16.6,10.7,29.3,25.9,37,44c0.2,0.4,0,0.8-0.4,1C292.2,173.6,292.1,173.6,292,173.6z"/>
			<path class="st12" d="M154.5,127.8c-0.3,0-0.5-0.1-0.7-0.4c-0.2-0.4-0.1-0.8,0.3-1.1c14.8-8.7,31.8-13.2,49-13.2
				c14.4,0,28.2,3.1,41.1,9.1c0.4,0.2,0.6,0.6,0.4,1c-0.2,0.4-0.6,0.6-1,0.4c-12.7-5.9-26.3-9-40.5-9c-17,0-33.7,4.5-48.2,13
				C154.8,127.8,154.7,127.8,154.5,127.8z"/>
			<path class="st12" d="M89.6,211.1c-0.4,0-0.8-0.3-0.8-0.8c0-45.3,26.8-86.4,68.3-104.7c0.4-0.2,0.8,0,1,0.4c0.2,0.4,0,0.8-0.4,1
				c-40.9,18-67.4,58.5-67.4,103.2C90.4,210.7,90.1,211.1,89.6,211.1z"/>
			<path class="st12" d="M316.7,211.1c-0.4,0-0.8-0.3-0.8-0.8c0-35.5-17.1-69.4-45.7-90.6c-0.3-0.3-0.4-0.7-0.2-1.1
				c0.3-0.3,0.7-0.4,1.1-0.2c14,10.4,25.7,24.1,33.7,39.6c8.4,16.3,12.6,33.8,12.6,52.2C317.4,210.7,317.1,211.1,316.7,211.1z"/>
			<path class="st12" d="M263.9,115.2c-0.1,0-0.3,0-0.4-0.1c-2.3-1.5-4.7-2.9-7.1-4.2c-0.4-0.2-0.5-0.7-0.3-1c0.2-0.4,0.7-0.5,1-0.3
				c2.4,1.3,4.9,2.7,7.2,4.2c0.4,0.2,0.5,0.7,0.2,1.1C264.4,115.1,264.2,115.2,263.9,115.2z"/>
			<path class="st12" d="M251.8,108.5c-0.1,0-0.2,0-0.3-0.1c-15.1-7.2-31.4-10.8-48.3-10.8c-12.4,0-24.5,2-36.1,5.9
				c-0.4,0.1-0.8-0.1-1-0.5c-0.1-0.4,0.1-0.8,0.5-1c11.8-4,24.1-6,36.6-6c17.1,0,33.6,3.7,48.9,11c0.4,0.2,0.6,0.6,0.4,1
				C252.3,108.3,252.1,108.5,251.8,108.5z"/>
			<path class="st12" d="M335.7,211.1c-0.4,0-0.8-0.3-0.8-0.8c0-14.5-2.3-28.8-7-42.4c-0.1-0.4,0.1-0.8,0.5-1c0.4-0.1,0.8,0.1,1,0.5
				c4.7,13.8,7,28.2,7,42.9C336.5,210.7,336.1,211.1,335.7,211.1z"/>
			<path class="st12" d="M325.9,161c-0.3,0-0.6-0.2-0.7-0.5c-9.3-22.8-24.8-42.5-44.8-57c-0.3-0.3-0.4-0.7-0.2-1.1
				c0.3-0.3,0.7-0.4,1.1-0.2c20.3,14.7,36,34.6,45.4,57.7c0.2,0.4,0,0.8-0.4,1C326.1,161,326,161,325.9,161z"/>
			<path class="st12" d="M273.2,98.6c-0.1,0-0.3,0-0.4-0.1c-20.9-13-44.9-19.9-69.7-19.9c-11.1,0-22.2,1.4-32.9,4.1
				c-0.4,0.1-0.8-0.1-0.9-0.6c-0.1-0.4,0.1-0.8,0.6-0.9c10.8-2.8,22-4.2,33.3-4.2c25,0,49.4,7,70.5,20.1c0.4,0.2,0.5,0.7,0.2,1.1
				C273.7,98.4,273.5,98.6,273.2,98.6z"/>
			<path class="st12" d="M144.9,92c-0.3,0-0.6-0.2-0.7-0.4c-0.2-0.4,0-0.8,0.4-1c4.1-2,8.3-3.8,12.5-5.4c0.4-0.1,0.8,0.1,1,0.5
				c0.1,0.4-0.1,0.8-0.5,1c-4.2,1.5-8.4,3.3-12.4,5.3C145.1,92,145,92,144.9,92z"/>
			<path class="st12" d="M70.6,211.1c-0.4,0-0.8-0.3-0.8-0.8c0-23.7,6.3-46.9,18.2-67.2c11.5-19.7,28.1-36.2,47.8-47.8
				c0.4-0.2,0.8-0.1,1.1,0.3s0.1,0.8-0.3,1.1c-40.2,23.6-65.2,67.2-65.2,113.7C71.4,210.7,71.1,211.1,70.6,211.1z"/>
		</g>
		<path class="st12" d="M57,79.6c2.7,0,5-2.2,5-5c0-2.7-2.2-5-5-5c-2.7,0-5,2.2-5,5C52.1,77.4,54.3,79.6,57,79.6z"/>
		<path class="st12" d="M187.5,10.8c2.7,0,5-2.2,5-5s-2.2-5-5-5s-5,2.2-5,5S184.7,10.8,187.5,10.8z"/>
		<path class="st13" d="M88.9,73.5c0,1-0.8,1.9-1.9,1.9c-1,0-1.9-0.8-1.9-1.9c0-1,0.8-1.9,1.9-1.9C88,71.6,88.9,72.5,88.9,73.5z"/>
		<path class="st13" d="M306.5,56.9c0,1-0.8,1.9-1.9,1.9s-1.9-0.8-1.9-1.9c0-1,0.8-1.9,1.9-1.9S306.5,55.9,306.5,56.9z"/>
		<path class="st13" d="M125,21.3c1,0,1.9-0.8,1.9-1.9c0-1-0.8-1.9-1.9-1.9s-1.9,0.8-1.9,1.9C123.1,20.4,123.9,21.3,125,21.3z"/>
		<path class="st14" d="M62.7,110.6c1,0,1.9-0.8,1.9-1.9s-0.8-1.9-1.9-1.9s-1.9,0.8-1.9,1.9S61.7,110.6,62.7,110.6z"/>
		<path class="st14" d="M316.7,126.9c1,0,1.9-0.8,1.9-1.9c0-1-0.8-1.9-1.9-1.9s-1.9,0.8-1.9,1.9
			C314.9,126.1,315.7,126.9,316.7,126.9z"/>
		<path class="st14" d="M348.2,148.5c0,1.9-1.6,3.5-3.5,3.5s-3.5-1.6-3.5-3.5s1.6-3.5,3.5-3.5S348.2,146.6,348.2,148.5z"/>
		<path class="st14" d="M238.1,36.1c0,2.3-1.8,4.1-4.1,4.1c-2.3,0-4.1-1.8-4.1-4.1c0-2.3,1.8-4.1,4.1-4.1
			C236.2,32,238.1,33.9,238.1,36.1z"/>
		<path class="st13" d="M222.4,208.4l-65.3,0.1c-5,0-9.1-4.1-9.1-9.1l-0.1-42.5c0-5,4.1-9.1,9.1-9.1l65.3-0.1c5,0,9.1,4.1,9.1,9.1
			l0.1,42.5C231.5,204.3,227.4,208.4,222.4,208.4z"/>
		<path class="st15" d="M157.1,209.5c-2.7,0-5.2-1-7.1-2.9c-1.9-1.9-3-4.4-3-7.1L147,157c0-5.5,4.5-10,10-10l65.3-0.1c0,0,0,0,0,0
			c5.5,0,10,4.5,10,10l0.1,42.5c0,5.5-4.5,10-10,10L157.1,209.5C157.1,209.5,157.1,209.5,157.1,209.5z M222.3,148.6
			C222.3,148.6,222.3,148.6,222.3,148.6l-65.3,0.1c-4.5,0-8.2,3.7-8.2,8.2l0.1,42.5c0,2.2,0.9,4.2,2.4,5.8c1.6,1.5,3.6,2.4,5.8,2.4
			c0,0,0,0,0,0l65.3-0.1c2.2,0,4.2-0.9,5.8-2.4c1.5-1.6,2.4-3.6,2.4-5.8l-0.1-42.5C230.5,152.3,226.8,148.6,222.3,148.6z"/>
		<path class="st16" d="M222.4,208.4l-65.3,0.1c-5,0-9.1-4.1-9.1-9.1l-0.1-42.5c0-5,4.1-9.1,9.1-9.1l65.3-0.1c5,0,9.1,4.1,9.1,9.1
			l0.1,42.5C231.5,204.3,227.4,208.4,222.4,208.4z"/>
		<path class="st15" d="M157.1,209.5c-2.7,0-5.2-1-7.1-2.9c-1.9-1.9-3-4.4-3-7.1L147,157c0-5.5,4.5-10,10-10l65.3-0.1c0,0,0,0,0,0
			c5.5,0,10,4.5,10,10l0.1,42.5c0,5.5-4.5,10-10,10L157.1,209.5C157.1,209.5,157.1,209.5,157.1,209.5z M222.3,148.6
			C222.3,148.6,222.3,148.6,222.3,148.6l-65.3,0.1c-4.5,0-8.2,3.7-8.2,8.2l0.1,42.5c0,2.2,0.9,4.2,2.4,5.8c1.6,1.5,3.6,2.4,5.8,2.4
			c0,0,0,0,0,0l65.3-0.1c2.2,0,4.2-0.9,5.8-2.4c1.5-1.6,2.4-3.6,2.4-5.8l-0.1-42.5C230.5,152.3,226.8,148.6,222.3,148.6z"/>
		<path class="st17" d="M222.4,208.4l-65.3,0.1c-5,0-9.1-4.1-9.1-9.1l-0.1-42.5c0-5,4.1-9.1,9.1-9.1l65.3-0.1c5,0,9.1,4.1,9.1,9.1
			l0.1,42.5C231.5,204.3,227.4,208.4,222.4,208.4z"/>
		<path class="st18" d="M224.8,212.2l-70.1,0.1c-3.7,0-6.7-3-6.7-6.7l-0.1-47.3c0-3.7,3-6.7,6.7-6.7l70.1-0.1c3.7,0,6.7,3,6.7,6.7
			l0.1,47.3C231.5,209.2,228.5,212.2,224.8,212.2z"/>
		<path class="st15" d="M154.7,213c-4,0-7.3-3.3-7.3-7.3l-0.1-47.3c0-4,3.3-7.3,7.3-7.3l70.1-0.1c0,0,0,0,0,0c4,0,7.3,3.3,7.3,7.3
			l0.1,47.3c0,4-3.3,7.3-7.3,7.3L154.7,213C154.7,213,154.7,213,154.7,213z M224.8,211.6c3.4,0,6.1-2.7,6.1-6.1l-0.1-47.3
			c0-3.4-2.7-6.1-6.1-6.1c0,0,0,0,0,0l-70.1,0.1c-3.4,0-6.1,2.7-6.1,6.1l0.1,47.3c0,3.4,2.7,6.1,6.1,6.1c0,0,0,0,0,0L224.8,211.6z"
			/>
		<path class="st18" d="M224.8,216l-70.1,0.1c-3.7,0-6.7-3-6.7-6.7l-0.1-47.3c0-3.7,3-6.7,6.7-6.7l70.1-0.1c3.7,0,6.7,3,6.7,6.7
			l0.1,47.3C231.5,213,228.5,216,224.8,216z"/>
		<path class="st15" d="M154.7,216.8c-4,0-7.3-3.3-7.3-7.3l-0.1-47.3c0-1.9,0.8-3.8,2.1-5.2c1.4-1.4,3.2-2.2,5.2-2.2l70.1-0.1
			c0,0,0,0,0,0c4,0,7.3,3.3,7.3,7.3l0.1,47.3c0,4-3.3,7.3-7.3,7.3L154.7,216.8C154.7,216.8,154.7,216.8,154.7,216.8z M224.7,155.9
			C224.7,155.9,224.7,155.9,224.7,155.9l-70.1,0.1c-1.6,0-3.1,0.6-4.3,1.8c-1.2,1.2-1.8,2.7-1.8,4.3l0.1,47.3c0,3.4,2.7,6.1,6.1,6.1
			c0,0,0,0,0,0l70.1-0.1c3.4,0,6.1-2.7,6.1-6.1l-0.1-47.3C230.8,158.6,228.1,155.9,224.7,155.9z"/>
		<path class="st16" d="M225.4,143.9l-17.7,0c-3.3,0-6,2.7-6,6l0,8.5l-44.8,0.1c-5,0-9.1,4.1-9.1,9.1l0.1,42.5c0,5,4.1,9.1,9.1,9.1
			l65.3-0.1c5,0,9.1-4.1,9.1-9.1l-0.1-41.6v-0.9l0-17.6C231.4,146.5,228.7,143.9,225.4,143.9z"/>
		<path class="st15" d="M157.1,220.1c-5.5,0-10-4.5-10-10l-0.1-42.5c0-5.5,4.5-10,10-10l43.9-0.1l0-7.5c0-1.8,0.7-3.6,2-4.9
			c1.3-1.3,3-2,4.9-2l17.7,0c0,0,0,0,0,0c1.8,0,3.5,0.7,4.8,2c1.3,1.3,2,3,2,4.9l0.1,60.1c0,2.7-1,5.2-2.9,7.1c-1.9,1.9-4.4,3-7.1,3
			L157.1,220.1C157.1,220.1,157.1,220.1,157.1,220.1z M225.4,144.8l-17.7,0c-1.3,0-2.6,0.5-3.6,1.5c-1,1-1.5,2.2-1.5,3.6l0,8.5
			c0,0.5-0.4,0.9-0.9,0.9l-44.8,0.1c-4.5,0-8.2,3.7-8.2,8.2l0.1,42.5c0,4.5,3.7,8.2,8.2,8.2c0,0,0,0,0,0l65.3-0.1
			c2.2,0,4.2-0.9,5.8-2.4c1.5-1.6,2.4-3.6,2.4-5.8l-0.1-60.1c0-1.3-0.5-2.6-1.5-3.6C228,145.3,226.8,144.8,225.4,144.8
			C225.4,144.8,225.4,144.8,225.4,144.8z"/>
		<path class="st19" d="M224.6,150.7l-15.8,0c-2.9,0-5.3,2.4-5.3,5.3l0,7.6l-40.1,0.1c-4.5,0-8.1,3.7-8.1,8.2l0.1,38.1
			c0,4.5,3.7,8.1,8.2,8.1l58.4-0.1c4.5,0,8.1-3.7,8.1-8.2l-0.1-37.3v-0.8l0-15.7C230,153,227.6,150.6,224.6,150.7z"/>
		<path class="st18" d="M225.5,210.3c0,1.6-1.3,3-3,3c-1.6,0-3-1.3-3-3c0-1.6,1.3-3,3-3C224.2,207.3,225.5,208.6,225.5,210.3z"/>
		<path class="st18" d="M227.6,160c-0.3,0-0.6-0.3-0.6-0.6v-8.1c0-1.4-1.2-2.5-2.7-2.5h-5.9c-0.3,0-0.6-0.3-0.6-0.6
			c0-0.3,0.3-0.6,0.6-0.6h5.9c2.2,0,3.9,1.7,3.9,3.7v8.1C228.2,159.7,228,160,227.6,160z"/>
		<path class="st18" d="M192.1,194.1L185,187c-0.6-0.6-0.6-1.6,0-2.2c0.6-0.6,1.6-0.6,2.2,0l4.9,4.9l5-4.9c0.6-0.6,1.6-0.6,2.2,0
			c0.6,0.6,0.6,1.6,0,2.2L192.1,194.1z"/>
		<path class="st18" d="M192.1,193.4c-0.8,0-1.5-0.7-1.5-1.5v-15.4c0-0.8,0.7-1.5,1.5-1.5c0.8,0,1.5,0.7,1.5,1.5v15.4
			C193.6,192.8,193,193.4,192.1,193.4z"/>
		<path class="st18" d="M203.3,200.8h-22.6c-1.8,0-3.3-1.5-3.3-3.3v-8.2c0-0.8,0.7-1.5,1.5-1.5c0.8,0,1.5,0.7,1.5,1.5v8.2
			c0,0.1,0.1,0.2,0.2,0.2h22.6c0.2,0,0.4-0.2,0.4-0.4v-8c0-0.8,0.7-1.5,1.5-1.5c0.8,0,1.5,0.7,1.5,1.5v8
			C206.8,199.2,205.2,200.8,203.3,200.8z"/>
		<path class="st18" d="M195.5,142.1l-30.1-21.7c-0.3-0.2-0.4-0.7-0.2-1.1l29.4-40.8c0.2-0.3,0.7-0.4,1.1-0.2l30.1,21.7
			c0.3,0.2,0.4,0.7,0.2,1.1l-29.4,40.8C196.3,142.2,195.8,142.3,195.5,142.1z"/>
		<path class="st15" d="M195.9,143.1c-0.4,0-0.7-0.1-1-0.3l-30.1-21.7c-0.8-0.5-0.9-1.6-0.4-2.4l29.4-40.8c0.3-0.4,0.7-0.6,1.1-0.7
			c0.4-0.1,0.9,0,1.3,0.3l30.1,21.7c0.8,0.5,0.9,1.6,0.4,2.4l-29.4,40.8c-0.3,0.4-0.7,0.6-1.1,0.7
			C196.1,143.1,196,143.1,195.9,143.1z M166,119.7l29.9,21.6l29.3-40.6l-29.9-21.6L166,119.7z"/>
		<path class="st12" d="M195.5,142.1l-30.1-21.7c-0.3-0.2-0.4-0.7-0.2-1.1l29.4-40.8c0.2-0.3,0.7-0.4,1.1-0.2l30.1,21.7
			c0.3,0.2,0.4,0.7,0.2,1.1l-29.4,40.8C196.3,142.2,195.8,142.3,195.5,142.1z"/>
		<path class="st15" d="M195.9,143.1c-0.4,0-0.7-0.1-1-0.3l-30.1-21.7c-0.8-0.5-0.9-1.6-0.4-2.4l29.4-40.8c0.3-0.4,0.7-0.6,1.1-0.7
			c0.4-0.1,0.9,0,1.3,0.3l30.1,21.7c0.8,0.5,0.9,1.6,0.4,2.4l-29.4,40.8c-0.3,0.4-0.7,0.6-1.1,0.7
			C196.1,143.1,196,143.1,195.9,143.1z M166,119.7l29.9,21.6l29.3-40.6l-29.9-21.6L166,119.7z"/>
		<path class="st15" d="M213.9,109.3c-0.1,0-0.2,0-0.4-0.1l-5.2-3.7c-0.3-0.2-0.3-0.6-0.1-0.9c0.2-0.3,0.6-0.3,0.9-0.1l5.2,3.7
			c0.3,0.2,0.3,0.6,0.1,0.9C214.3,109.2,214.1,109.3,213.9,109.3z"/>
		<path class="st15" d="M208.4,117.1c-0.1,0-0.3,0-0.4-0.1l-22.7-16.4c-0.3-0.2-0.3-0.6-0.1-0.9s0.6-0.3,0.9-0.1l22.7,16.4
			c0.3,0.2,0.3,0.6,0.1,0.9C208.7,117,208.6,117.1,208.4,117.1z"/>
		<path class="st14" d="M204.6,122.3c-0.1,0-0.2,0-0.4-0.1l-9-6.5c-0.3-0.2-0.3-0.6-0.1-0.9c0.2-0.3,0.6-0.3,0.9-0.1l9,6.5
			c0.3,0.2,0.3,0.6,0.1,0.9C204.9,122.2,204.8,122.3,204.6,122.3z"/>
		<path class="st14" d="M187.4,109.9c-0.1,0-0.3,0-0.4-0.1l-5.5-4c-0.3-0.2-0.3-0.6-0.1-0.9c0.2-0.3,0.6-0.3,0.9-0.1l5.5,4
			c0.3,0.2,0.3,0.6,0.1,0.9C187.7,109.8,187.6,109.9,187.4,109.9z"/>
		<path class="st15" d="M191,121.4c-0.1,0-0.2,0-0.4-0.1l-14-10.1c-0.3-0.2-0.3-0.6-0.1-0.9c0.2-0.3,0.6-0.3,0.9-0.1l14,10.1
			c0.3,0.2,0.3,0.6,0.1,0.9C191.4,121.4,191.2,121.4,191,121.4z"/>
		<path class="st18" d="M198.5,137.2l-37.2-14.3c-0.4-0.2-0.6-0.6-0.4-1l19.4-50.3c0.2-0.4,0.6-0.6,1-0.4l37.2,14.3
			c0.4,0.2,0.6,0.6,0.4,1l-19.4,50.3C199.3,137.1,198.9,137.3,198.5,137.2z"/>
		<path class="st15" d="M198.8,138.1c-0.2,0-0.4,0-0.6-0.1L161,123.7c-0.9-0.3-1.3-1.3-1-2.2l19.4-50.3c0.3-0.9,1.3-1.3,2.2-1
			l37.2,14.3c0.9,0.3,1.3,1.3,1,2.2L200.3,137C200.1,137.7,199.4,138.1,198.8,138.1z M161.8,122.1l36.9,14.2l19.3-50.1L181,72
			L161.8,122.1z"/>
		<path class="st18" d="M198.5,137.2l-37.2-14.3c-0.4-0.2-0.6-0.6-0.4-1l19.4-50.3c0.2-0.4,0.6-0.6,1-0.4l37.2,14.3
			c0.4,0.2,0.6,0.6,0.4,1l-19.4,50.3C199.3,137.1,198.9,137.3,198.5,137.2z"/>
		<path class="st15" d="M198.8,138.1c-0.2,0-0.4,0-0.6-0.1L161,123.7c-0.9-0.3-1.3-1.3-1-2.2l19.4-50.3c0.3-0.9,1.3-1.3,2.2-1
			l37.2,14.3c0.9,0.3,1.3,1.3,1,2.2L200.3,137C200.1,137.7,199.4,138.1,198.8,138.1z M161.8,122.1l36.9,14.2l19.3-50.1L181,72
			L161.8,122.1z"/>
		<path class="st15" d="M187.8,89.7c-0.1,0-0.1,0-0.2,0l-6.4-2.5c-0.3-0.1-0.5-0.5-0.3-0.8c0.1-0.3,0.5-0.5,0.8-0.3l6.4,2.5
			c0.3,0.1,0.5,0.5,0.3,0.8C188.3,89.6,188,89.7,187.8,89.7z"/>
		<path class="st15" d="M204.8,107.7c-0.1,0-0.1,0-0.2,0l-28-10.8c-0.3-0.1-0.5-0.5-0.3-0.8c0.1-0.3,0.5-0.5,0.8-0.3l28,10.8
			c0.3,0.1,0.5,0.5,0.3,0.8C205.2,107.6,205,107.7,204.8,107.7z"/>
		<path class="st14" d="M202.3,114.2c-0.1,0-0.1,0-0.2,0l-11.1-4.3c-0.3-0.1-0.5-0.5-0.3-0.8c0.1-0.3,0.5-0.5,0.8-0.3l11.1,4.3
			c0.3,0.1,0.5,0.5,0.3,0.8C202.7,114.1,202.5,114.2,202.3,114.2z"/>
		<path class="st14" d="M181.1,106.1c-0.1,0-0.1,0-0.2,0l-6.8-2.6c-0.3-0.1-0.5-0.5-0.3-0.8c0.1-0.3,0.5-0.5,0.8-0.3l6.8,2.6
			c0.3,0.1,0.5,0.5,0.3,0.8C181.6,105.9,181.3,106.1,181.1,106.1z"/>
		<path class="st15" d="M188,117c-0.1,0-0.1,0-0.2,0l-17.2-6.6c-0.3-0.1-0.5-0.5-0.3-0.8c0.1-0.3,0.5-0.5,0.8-0.3l17.2,6.6
			c0.3,0.1,0.5,0.5,0.3,0.8C188.4,116.9,188.2,117,188,117z"/>
	</g>
</g>
</svg>
