<svg width="21" height="17" viewBox="0 0 21 17" fill="none" xmlns="http://www.w3.org/2000/svg">
<path fill-rule="evenodd" clip-rule="evenodd" d="M3.1 2.11112C2.39955 2.11112 1.7 2.76928 1.7 3.75001V13.8889C1.7 14.8696 2.39955 15.5278 3.1 15.5278H17.9C18.6004 15.5278 19.3 14.8696 19.3 13.8889V3.75001C19.3 2.76928 18.6004 2.11112 17.9 2.11112H3.1ZM0.5 3.75001C0.5 2.27615 1.59131 0.944458 3.1 0.944458H17.9C19.4087 0.944458 20.5 2.27615 20.5 3.75001V13.8889C20.5 15.3628 19.4087 16.6945 17.9 16.6945H3.1C1.59131 16.6945 0.5 15.3628 0.5 13.8889V3.75001Z" fill="#D4DCE5"/>
<path fill-rule="evenodd" clip-rule="evenodd" d="M1.65688 1.69876C1.86493 1.47097 2.20245 1.47074 2.41075 1.69826L9.7227 7.74023C9.83822 7.8667 9.97584 7.96751 10.1268 8.03596C10.2778 8.10441 10.4397 8.13965 10.6031 8.13965C10.7666 8.13965 10.9285 8.10441 11.0795 8.03596C11.2305 7.96751 11.5 7.75002 11.5 7.75002L18.591 1.91226C18.7991 1.68461 19.1367 1.68461 19.3448 1.91226C19.553 2.13992 19.553 2.50902 19.3448 2.73668L12.2375 8.56467C12 8.72224 11.7682 8.98587 11.4877 9.11299C11.2073 9.24012 10.9067 9.30555 10.6031 9.30555C10.2996 9.30555 9.99899 9.24012 9.71857 9.11299C9.43825 8.98591 9.18357 8.79968 8.96909 8.56494L1.65734 2.52318C1.44904 2.29566 1.44883 1.92656 1.65688 1.69876Z" fill="#D4DCE5"/>
</svg>
