<svg width="19" height="21" viewBox="0 0 19 21" fill="none" xmlns="http://www.w3.org/2000/svg">
<path fill-rule="evenodd" clip-rule="evenodd" d="M0 9.46461C0 7.55116 1.69667 6 3.78962 6H15.2104C17.3033 6 19 7.55116 19 9.46462V17.5354C19 19.4488 17.3033 21 15.2104 21H3.78962C1.69667 21 0 19.4488 0 17.5354V9.46461ZM3.78962 7.23397C2.4421 7.23397 1.34973 8.23267 1.34973 9.46461V17.5354C1.34973 18.7673 2.4421 19.766 3.78962 19.766H15.2104C16.5579 19.766 17.6503 18.7673 17.6503 17.5354V9.46462C17.6503 8.23267 16.5579 7.23397 15.2104 7.23397H3.78962Z" fill="#D4DCE5"/>
<path fill-rule="evenodd" clip-rule="evenodd" d="M5.34274 4.41543V5.83362H13.6573V4.41842C13.6573 2.67042 11.8538 1.16638 9.49999 1.16638C7.14774 1.16638 5.3448 2.66853 5.34274 4.41543ZM4 4.41462C4.00267 1.9279 6.52205 0 9.49999 0C12.4797 0 15 1.93015 15 4.41842V6.41681C15 6.7389 14.6994 7 14.3286 7H4.67137C4.30058 7 4 6.7389 4 6.41681L4 4.41462Z" fill="#D4DCE5"/>
<path fill-rule="evenodd" clip-rule="evenodd" d="M7.14512 11.4339C7.55299 10.4453 8.72615 9.85335 9.92462 10.0315C11.1231 10.2097 11.9991 11.1063 12 12.1557L12 12.1561C12 12.8247 11.6413 13.4486 11.0423 13.8535V14.6693C11.0423 15.4039 10.3524 15.9995 9.5013 16C9.09175 16.001 8.6985 15.8615 8.40833 15.612C8.11786 15.3624 7.9546 15.0231 7.9546 14.6693C7.9546 14.6693 7.9546 14.6693 7.9546 14.6693L7.95457 13.853C7.12185 13.2885 6.78062 12.3173 7.14512 11.4339L7.14512 11.4339ZM9.5013 16C9.50092 16 9.50055 16 9.50017 16V15.4611L9.50253 16C9.50212 16 9.50171 16 9.5013 16ZM9.71254 11.0937C9.11292 11.0046 8.52593 11.3007 8.32185 11.7954C8.11777 12.29 8.35584 12.8396 8.88585 13.0975C9.08218 13.193 9.20364 13.3724 9.20364 13.5669L9.20367 14.6693V14.6693C9.20367 14.7366 9.2347 14.801 9.28987 14.8485C9.34506 14.8959 9.41988 14.9224 9.4978 14.9222L9.50017 14.9222C9.66199 14.9222 9.79318 14.809 9.79318 14.6693V13.5669C9.79318 13.3719 9.91521 13.1922 10.1123 13.0968C10.5066 12.9061 10.7508 12.5465 10.7509 12.1565M9.71254 11.0937C10.3122 11.1828 10.7504 11.6314 10.7509 12.1564L9.71254 11.0937Z" fill="#D4DCE5"/>
</svg>
