<svg width="36" height="36" viewBox="0 0 36 36" fill="none" xmlns="http://www.w3.org/2000/svg">
<path d="M18 36C27.9411 36 36 27.9411 36 18C36 8.05888 27.9411 0 18 0C8.05888 0 0 8.05888 0 18C0 27.9411 8.05888 36 18 36Z" fill="#05CE2B"/>
<path fill-rule="evenodd" clip-rule="evenodd" d="M28.4574 10.4353C29.0144 10.9923 29.0144 11.8953 28.4575 12.4524L15.3449 25.5663C15.0775 25.8338 14.7147 25.9841 14.3364 25.9841C13.9581 25.9841 13.5953 25.8338 13.3278 25.5663L7.54105 19.7796C6.98404 19.2226 6.98404 18.3195 7.54105 17.7625C8.09805 17.2055 9.00114 17.2055 9.55815 17.7625L14.3363 22.5406L26.4403 10.4354C26.9972 9.87835 27.9003 9.8783 28.4574 10.4353Z" fill="white"/>
</svg>
