<svg width="20" height="19" viewBox="0 0 20 19" fill="none" xmlns="http://www.w3.org/2000/svg">
<path fill-rule="evenodd" clip-rule="evenodd" d="M16.7185 0.0826673C16.4237 -0.0875125 16.0466 0.0134844 15.8763 0.308236L13.9907 3.57379C12.706 2.98081 11.3762 2.67761 10.03 2.67761C6.41298 2.67761 2.914 4.86784 0.0924293 8.98528L0.0812388 9.00146L0.0714511 9.01545C-0.0225337 9.14814 -0.0249329 9.30417 0.070981 9.43535C2.15304 12.4851 4.60648 14.4825 7.20477 15.3219L5.70264 17.9215C5.53236 18.2163 5.6334 18.5932 5.92829 18.7633L6.19529 18.9174C6.49018 19.0875 6.86725 18.9866 7.03753 18.6918L17.2112 1.07857C17.3815 0.783823 17.2804 0.40693 16.9855 0.236743L16.7185 0.0826673ZM13.1727 4.9899C12.1271 4.53595 11.0713 4.31468 10.03 4.31468C7.40191 4.31468 4.68132 5.72411 2.26513 8.72672C2.03319 9.01499 2.03319 9.4352 2.26513 9.72347C4.0763 11.9743 6.05845 13.3302 8.04452 13.8682L9.08303 12.0702C7.8967 11.697 6.9157 10.6562 6.9157 9.22673C6.9157 7.41853 8.32112 5.95255 10.0545 5.95255C10.8546 5.95255 11.5849 6.26491 12.1393 6.77906L13.1727 4.9899ZM11.2822 8.26297C11.0152 7.85485 10.5763 7.58961 10.0545 7.58961C9.18707 7.58961 8.47765 8.32141 8.47765 9.22551C8.47765 9.82303 9.1275 10.5212 9.94382 10.58L11.2822 8.26297Z" fill="#D4DCE5"/>
<path d="M10.6426 15.7583C14.0199 15.5597 17.2685 13.3967 19.9139 9.49201C19.9693 9.41024 20.0003 9.32565 20.0003 9.22502C20.0003 9.12911 19.9737 9.04901 19.9209 8.97103C18.9043 7.4679 17.7982 6.22237 16.6298 5.24707L15.8248 6.66039C16.4957 7.23807 17.1526 7.92565 17.7882 8.72661C18.017 9.01488 18.017 9.43509 17.7882 9.72336C15.8716 12.1387 13.7609 13.5236 11.6595 13.973L10.6426 15.7583Z" fill="#D4DCE5"/>
</svg>
