<svg width="193" height="151" viewBox="0 0 193 151" fill="none" xmlns="http://www.w3.org/2000/svg">
<path d="M118.493 151C111.502 149.258 106.958 143.685 104.861 134.28C114.998 128.707 125.309 120.347 135.795 109.201C146.281 98.0542 153.622 85.8627 157.816 72.6263L156.243 72.6263C142.961 72.6263 132.649 69.143 125.309 62.1765C117.619 55.5583 113.774 46.8501 113.774 36.0519C113.774 25.9504 117.619 17.4164 125.309 10.4498C132.649 3.48327 141.563 1.07655e-05 152.049 1.16825e-05C164.632 1.27829e-05 174.594 4.35409 181.934 13.0623C189.274 22.1188 192.944 32.917 192.944 45.4568C192.944 66.7047 186.128 85.6886 172.497 102.408C158.865 119.128 140.863 135.325 118.493 151ZM13.6319 151C6.64116 149.258 2.09718 143.685 -2.90614e-05 134.28C10.1365 128.707 20.4479 120.347 30.934 109.201C41.4201 98.0542 48.7604 85.8627 52.9548 72.6263L51.3819 72.6263C38.0995 72.6263 27.7882 69.143 20.4479 62.1765C12.7581 55.5582 8.91319 46.8501 8.91319 36.0519C8.91319 25.9504 12.7581 17.4164 20.4479 10.4498C27.7882 3.48326 36.7014 1.59565e-06 47.1875 2.51264e-06C59.7708 3.61303e-06 69.7326 4.35408 77.0729 13.0623C84.4132 22.1188 88.0833 32.917 88.0833 45.4568C88.0833 66.7047 81.2674 85.6886 67.6354 102.408C54.0035 119.128 36.0023 135.325 13.6319 151Z" fill="#F8EEE2"/>
</svg>
