<svg width="30" height="31" viewBox="0 0 30 31" fill="none" xmlns="http://www.w3.org/2000/svg">
<path d="M29.6782 15.5036C29.6782 14.4811 29.5792 13.4256 29.4143 12.436H15.1318V18.2744H23.3121C22.9822 20.1545 21.8937 21.8037 20.2775 22.8593L25.1592 26.6525C28.0289 23.9808 29.6782 20.0885 29.6782 15.5036Z" fill="#4280EF"/>
<path d="M15.1312 30.2806C19.2214 30.2806 22.6518 28.9282 25.1586 26.6193L20.2769 22.859C18.9245 23.7825 17.1763 24.3103 15.1312 24.3103C11.173 24.3103 7.84157 21.6385 6.62113 18.0762L1.60742 21.9354C4.18024 27.048 9.39186 30.2806 15.1312 30.2806Z" fill="#34A353"/>
<path d="M6.62172 18.0433C5.99501 16.1631 5.99501 14.1181 6.62172 12.2379L1.60801 8.3457C-0.536005 12.6337 -0.536005 17.6804 1.60801 21.9355L6.62172 18.0433Z" fill="#F6B704"/>
<path d="M15.1312 6.00383C17.2752 5.97084 19.3863 6.79546 20.9366 8.27979L25.2576 3.92578C22.5198 1.35295 18.8915 -0.0324137 15.1312 0.000575839C9.39186 0.000575839 4.18024 3.23309 1.60742 8.34575L6.62113 12.238C7.84157 8.64262 11.173 6.00383 15.1312 6.00383Z" fill="#E54335"/>
</svg>
