<svg width="150" height="181" viewBox="0 0 150 181" fill="none" xmlns="http://www.w3.org/2000/svg">
<g clip-path="url(#clip0_489_113)">
<path d="M86 113C115.823 113 140 88.8234 140 59C140 29.1766 115.823 5 86 5C56.1766 5 32 29.1766 32 59C32 88.8234 56.1766 113 86 113Z" stroke="#FFECD6" stroke-width="10"/>
<path d="M21.5 75C30.6127 75 38 67.6127 38 58.5C38 49.3873 30.6127 42 21.5 42C12.3873 42 5 49.3873 5 58.5C5 67.6127 12.3873 75 21.5 75Z" stroke="#FFECD6" stroke-width="10"/>
<path d="M75 181C116.421 181 150 147.421 150 106C150 64.5786 116.421 31 75 31C33.5786 31 0 64.5786 0 106C0 147.421 33.5786 181 75 181Z" fill="#3A86FF"/>
<path d="M98.4317 151H50.5683C41.4332 151 34 143.512 34 134.312V78.6875C34 69.4867 41.4332 62 50.5683 62H98.4317C107.567 62 115 69.4867 115 78.6875V134.312C115 143.512 107.567 151 98.4317 151ZM50.5683 65.7086C43.462 65.7086 37.6812 71.5301 37.6812 78.6875V134.312C37.6812 141.47 43.462 147.291 50.5683 147.291H98.4317C105.538 147.291 111.319 141.47 111.319 134.312V78.6875C111.319 71.5301 105.538 65.7086 98.4317 65.7086H50.5683ZM92.9089 91.6664H56.0911C52.0298 91.6664 48.7268 88.3404 48.7268 84.25C48.7268 80.1596 52.0298 76.8336 56.0911 76.8336H92.9089C96.9701 76.8336 100.273 80.1596 100.273 84.25C100.273 88.3404 96.9701 91.6664 92.9089 91.6664ZM56.0911 80.5414C54.0622 80.5414 52.4089 82.203 52.4089 84.25C52.4089 86.297 54.0622 87.9586 56.0911 87.9586H92.9089C94.9378 87.9586 96.5911 86.297 96.5911 84.25C96.5911 82.203 94.9378 80.5414 92.9089 80.5414H56.0911ZM100.273 134.312C100.273 133.289 99.4479 132.459 98.4317 132.459H80.0228C79.0066 132.459 78.1821 133.289 78.1821 134.312C78.1821 135.336 79.0066 136.166 80.0228 136.166H98.4317C99.4479 136.166 100.273 135.336 100.273 134.312ZM56.0911 119.479C56.0911 118.455 55.2657 117.625 54.2495 117.625H50.5683C49.5521 117.625 48.7268 118.455 48.7268 119.479C48.7268 120.502 49.5521 121.334 50.5683 121.334H54.2495C55.2657 121.334 56.0911 120.502 56.0911 119.479ZM70.8179 119.479C70.8179 118.455 69.9934 117.625 68.9772 117.625H65.2951C64.2789 117.625 63.4545 118.455 63.4545 119.479C63.4545 120.502 64.2789 121.334 65.2951 121.334H68.9772C69.9934 121.334 70.8179 120.502 70.8179 119.479ZM56.0911 134.312C56.0911 133.289 55.2657 132.459 54.2495 132.459H50.5683C49.5521 132.459 48.7268 133.289 48.7268 134.312C48.7268 135.336 49.5521 136.166 50.5683 136.166H54.2495C55.2657 136.166 56.0911 135.336 56.0911 134.312ZM70.8179 134.312C70.8179 133.289 69.9934 132.459 68.9772 132.459H65.2951C64.2789 132.459 63.4545 133.289 63.4545 134.312C63.4545 135.336 64.2789 136.166 65.2951 136.166H68.9772C69.9934 136.166 70.8179 135.336 70.8179 134.312ZM85.5455 119.479C85.5455 118.455 84.7211 117.625 83.7049 117.625H80.0228C79.0066 117.625 78.1821 118.455 78.1821 119.479C78.1821 120.502 79.0066 121.334 80.0228 121.334H83.7049C84.7211 121.334 85.5455 120.502 85.5455 119.479ZM100.273 119.479C100.273 118.455 99.4479 117.625 98.4317 117.625H94.7505C93.7343 117.625 92.9089 118.455 92.9089 119.479C92.9089 120.502 93.7343 121.334 94.7505 121.334H98.4317C99.4479 121.334 100.273 120.502 100.273 119.479ZM56.0911 104.646C56.0911 103.623 55.2657 102.791 54.2495 102.791H50.5683C49.5521 102.791 48.7268 103.623 48.7268 104.646C48.7268 105.67 49.5521 106.5 50.5683 106.5H54.2495C55.2657 106.5 56.0911 105.67 56.0911 104.646ZM70.8179 104.646C70.8179 103.623 69.9934 102.791 68.9772 102.791H65.2951C64.2789 102.791 63.4545 103.623 63.4545 104.646C63.4545 105.67 64.2789 106.5 65.2951 106.5H68.9772C69.9934 106.5 70.8179 105.67 70.8179 104.646ZM85.5455 104.646C85.5455 103.623 84.7211 102.791 83.7049 102.791H80.0228C79.0066 102.791 78.1821 103.623 78.1821 104.646C78.1821 105.67 79.0066 106.5 80.0228 106.5H83.7049C84.7211 106.5 85.5455 105.67 85.5455 104.646ZM100.273 104.646C100.273 103.623 99.4479 102.791 98.4317 102.791H94.7505C93.7343 102.791 92.9089 103.623 92.9089 104.646C92.9089 105.67 93.7343 106.5 94.7505 106.5H98.4317C99.4479 106.5 100.273 105.67 100.273 104.646Z" fill="white"/>
</g>
<defs>
<clipPath id="clip0_489_113">
<rect width="150" height="181" fill="white"/>
</clipPath>
</defs>
</svg>
