<svg width="150" height="181" viewBox="0 0 150 181" fill="none" xmlns="http://www.w3.org/2000/svg">
<circle cx="86" cy="59" r="54" stroke="#FFECD6" stroke-width="10"/>
<circle cx="21.5" cy="58.5" r="16.5" stroke="#FFECD6" stroke-width="10"/>
<circle cx="75" cy="106" r="75" fill="#3A86FF"/>
<g clip-path="url(#clip0_15_54)">
<path d="M89.6713 106.5C96.6217 106.5 103.572 106.493 110.523 106.5C112.394 106.5 114.572 106.306 114.572 109.043C114.572 111.78 112.394 111.594 110.523 111.594C96.7485 111.608 82.9669 111.594 69.1928 111.594C67.1644 111.594 64.7705 111.676 64.8973 108.857C65.0166 106.351 67.2837 106.485 69.1854 106.485C76.009 106.485 82.8402 106.485 89.6638 106.485L89.6713 106.5Z" fill="#FDFEFE"/>
<path d="M87.0611 131.52C94.8766 131.52 102.685 131.505 110.5 131.527C112.35 131.527 114.587 131.326 114.512 134.085C114.438 136.591 112.335 136.353 110.62 136.353C95.1153 136.367 79.6185 136.367 64.1142 136.353C62.2648 136.353 59.9828 136.576 60.0723 133.839C60.1543 131.453 62.2349 131.527 63.9949 131.527C71.6837 131.513 79.3724 131.527 87.0611 131.527V131.52Z" fill="#FDFEFE"/>
<path d="M89.2835 86.5883C82.5941 86.5883 75.9121 86.5883 69.2227 86.5883C67.3583 86.5883 65.039 86.8046 64.9644 84.2541C64.8898 81.6887 67.1793 81.7409 69.0661 81.7335C82.8103 81.7335 96.5546 81.7186 110.299 81.7484C112.096 81.7484 114.415 81.368 114.497 84.0975C114.579 86.8792 112.275 86.566 110.455 86.5734C103.401 86.6032 96.3383 86.5883 89.2835 86.5883Z" fill="#FDFEFE"/>
<path d="M37.4983 81.7856C39.3702 81.9646 40.3397 83.5306 41.5627 84.694C45.2467 88.1916 44.3444 88.2886 47.7599 84.3062C50.1687 81.4947 52.5104 78.6236 54.9117 75.8121C55.9483 74.5965 56.9849 73.105 58.8568 74.686C60.4974 76.0656 60.0127 77.4677 58.8568 78.8548C55.0683 83.4039 51.2501 87.9381 47.4915 92.5095C46.0074 94.3143 44.4488 94.5231 42.7783 92.9048C40.4664 90.675 38.1993 88.4079 35.9695 86.1035C35.1865 85.2906 34.6197 84.3062 35.3356 83.113C35.8129 82.3151 36.499 81.8602 37.5058 81.7856H37.4983Z" fill="#FDFEFE"/>
<path d="M37.4983 106.806C39.3702 106.985 40.3397 108.551 41.5627 109.714C45.2467 113.212 44.3444 113.309 47.7599 109.326C50.1687 106.515 52.5104 103.644 54.9117 100.832C55.9483 99.6168 56.9849 98.1253 58.8568 99.7063C60.4974 101.086 60.0127 102.488 58.8568 103.875C55.0683 108.424 51.2501 112.958 47.4915 117.53C46.0074 119.335 44.4488 119.543 42.7783 117.925C40.4664 115.695 38.1993 113.428 35.9695 111.124C35.1865 110.311 34.6197 109.326 35.3356 108.133C35.8129 107.335 36.499 106.88 37.5058 106.806H37.4983Z" fill="#FDFEFE"/>
<path d="M49.7958 134.078C49.7287 136.927 47.6182 139.022 44.8291 139C41.9877 138.978 39.6759 136.502 39.8474 133.653C40.004 130.931 42.3308 128.835 45.0751 128.94C47.8866 129.052 49.8629 131.199 49.7958 134.078Z" fill="#FDFEFE"/>
</g>
<defs>
<clipPath id="clip0_15_54">
<rect width="79.572" height="65" fill="white" transform="translate(35 74)"/>
</clipPath>
</defs>
</svg>
