<svg width="150" height="181" viewBox="0 0 150 181" fill="none" xmlns="http://www.w3.org/2000/svg">
<circle cx="86" cy="59" r="54" stroke="#FFECD6" stroke-width="10"/>
<circle cx="21.5" cy="58.5" r="16.5" stroke="#FFECD6" stroke-width="10"/>
<circle cx="75" cy="106" r="75" fill="#3A86FF"/>
<g clip-path="url(#clip0_15_50)">
<path d="M72.7213 125.954C75.2556 125.954 77.7899 125.981 80.3243 125.948C83.5221 125.91 84.7893 124.79 84.9415 121.619C85.0177 119.977 85.6105 119.243 87.2801 118.933C90.5758 118.318 91.5221 116.556 90.4888 113.195C89.9667 111.498 90.3528 110.384 92.0442 109.758C94.1761 108.964 95.3399 107.474 94.8831 105.163C94.4154 102.802 92.6642 102.046 90.4398 102.057C86.6383 102.074 82.8314 102.122 79.0353 102.035C77.5071 102.003 76.9143 102.498 77.0122 104.042C77.0829 105.114 76.9796 106.218 76.8001 107.278C76.104 111.341 72.7811 114.142 68.8763 114.033C64.9171 113.924 61.4147 111.036 61.1754 107.006C60.8817 102.139 60.7947 97.2115 61.2298 92.3658C61.7791 86.2802 66.7661 82.1252 72.9062 82.0436C77.1591 81.9838 81.4174 81.9675 85.6703 82.0599C87.3399 82.098 88.5962 81.6466 89.7491 80.4175C91.5438 78.5032 93.4745 76.7193 95.3616 74.8975C96.2046 74.0871 97.1672 73.5433 98.2168 74.5331C99.2774 75.5283 99.1795 76.6269 98.206 77.6276C95.9327 79.9607 93.654 82.2938 91.3426 84.5888C90.1026 85.8179 88.5037 86.0735 86.8232 86.0681C82.6574 86.0518 78.4915 86.0246 74.3311 86.0735C68.0387 86.1497 65.0476 89.1952 65.0204 95.4821C65.0041 98.8322 64.9714 102.182 65.0367 105.532C65.0911 108.426 66.5377 109.916 69.0884 109.899C71.6227 109.883 72.966 108.382 72.9986 105.424C73.0313 102.253 73.0204 99.0878 72.9986 95.9172C72.9878 94.4162 73.3086 93.0402 75.0761 93.0293C76.724 93.0185 77.1536 94.3835 77.0177 95.7323C76.8273 97.6357 77.6975 98.0001 79.3725 97.9512C82.9891 97.8533 86.6166 97.8859 90.2332 97.9348C94.2794 97.9892 97.2162 99.8057 98.3963 103.069C99.707 106.691 98.8749 109.878 95.9436 112.369C95.0299 113.146 94.9592 113.94 94.9646 114.974C94.9973 118.28 93.4364 120.679 90.5595 122.212C89.6567 122.691 89.0149 123.137 88.6506 124.252C87.378 128.146 84.7294 129.995 80.4548 130.06C75.7505 130.136 71.0408 130.147 66.3311 130.044C64.5527 130.006 63.2257 130.539 62.0238 131.827C60.2998 133.682 58.4344 135.406 56.6288 137.184C55.7423 138.054 54.7525 138.375 53.7736 137.407C52.8491 136.488 52.9252 135.39 53.7899 134.498C56.1774 132.023 58.5812 129.565 61.0775 127.205C62.1597 126.182 63.6336 125.927 65.1346 125.948C67.6689 125.981 70.2033 125.959 72.7376 125.959L72.7213 125.954Z" fill="#FDFEFE"/>
<path d="M56.8083 91.3324C57.2216 93.8232 56.7811 95.5962 55.4759 97.6084C53.741 100.29 52.8219 103.515 51.6689 106.549C50.9783 108.366 49.9993 109.894 48.5908 111.243C45.3984 114.315 42.3093 117.491 39.1768 120.619C38.1978 121.598 37.1808 122.734 35.7505 121.38C34.1571 119.879 35.4405 118.824 36.4738 117.78C37.3658 116.882 38.2142 115.931 39.1659 115.104C44.5717 110.411 48.9062 105.075 50.777 97.9238C51.5439 94.9816 53.6431 92.7573 56.8083 91.3215V91.3324Z" fill="#FDFEFE"/>
<path d="M103.383 104.407C101.137 101.47 102.209 99.4794 104.569 97.4998C106.908 95.5365 108.958 93.2251 111.139 91.0769C112.025 90.2013 113.053 89.4345 114.168 90.5439C115.25 91.6153 114.984 92.8553 113.956 93.8832C110.464 97.3801 106.951 100.861 103.383 104.412V104.407Z" fill="#FDFEFE"/>
</g>
<defs>
<clipPath id="clip0_15_50">
<rect width="79.8586" height="64" fill="white" transform="translate(35 74)"/>
</clipPath>
</defs>
</svg>
