<svg width="150" height="181" viewBox="0 0 150 181" fill="none" xmlns="http://www.w3.org/2000/svg">
<circle cx="86" cy="59" r="54" stroke="#FFECD6" stroke-width="10"/>
<circle cx="21.5" cy="58.5" r="16.5" stroke="#FFECD6" stroke-width="10"/>
<circle cx="75" cy="106" r="75" fill="#3A86FF"/>
<g clip-path="url(#clip0_15_46)">
<path d="M75.3327 146C52.3499 146.126 34.3791 127.408 35.0148 104.019C35.6136 82.2632 55.1737 64.8024 77.4173 66.0665C83.686 66.4214 89.4521 68.2029 94.9741 71.0933C96.8961 72.0987 97.1697 73.0005 95.7725 74.6343C94.5823 76.024 93.5548 77.5616 92.4903 79.0475C91.9507 79.7941 91.3519 80.4372 90.3687 79.9789C89.3929 79.528 88.7054 78.6779 89.2599 77.6134C90.1469 75.9057 89.1046 75.4474 87.8405 75.0482C85.6228 74.346 83.4273 73.4589 81.1505 73.0523C79.4872 72.7566 77.4321 71.7512 76.7003 74.9595C76.3085 76.6893 73.9577 76.5045 73.5807 74.6416C73.1076 72.3426 71.777 72.764 70.365 72.8675C67.2528 73.0966 64.4068 74.2794 61.5533 75.4178C60.2153 75.9501 60.3558 76.6672 60.5258 77.9534C60.7845 79.8533 59.1286 80.9473 57.7832 79.6463C56.1126 78.0273 55.2329 78.9292 54.1388 79.868C52.0911 81.6274 50.0804 83.4459 48.5428 85.7006C47.9071 86.6246 46.9239 87.2826 48.2619 88.761C49.7773 90.4391 48.698 92.0728 46.606 91.6514C44.6988 91.267 44.5361 92.3168 44.0704 93.3665C43.0133 95.7246 42.3111 98.1937 41.9193 100.744C41.6827 102.296 41.1948 103.768 43.5308 104.47C44.9575 104.899 45.1645 106.784 43.7526 107.279C40.8991 108.277 41.8232 110.11 42.0819 111.973C42.3924 114.176 43.0872 116.261 43.9595 118.286C44.4474 119.417 44.5214 120.696 46.6799 120.267C48.7054 119.861 49.659 121.391 48.2397 123.254C47.6409 124.045 47.1974 124.555 47.8405 125.427C49.9621 128.317 52.4607 130.831 55.3585 132.945C55.8612 133.315 56.4083 133.514 57.007 132.989C59.55 130.794 60.7845 131.341 60.2745 134.704C60.0823 135.983 60.888 136.198 61.6051 136.508C64.3181 137.669 67.068 138.77 70.0471 139.029C71.5626 139.162 73.1519 139.657 73.7729 137.314C74.0834 136.161 75.9093 135.799 76.3898 137.033C77.676 140.337 80.1081 139.044 82.1632 138.696C84.0778 138.378 85.9037 137.536 87.7592 136.893C88.9346 136.486 90.2209 136.146 89.2673 134.387C88.7794 133.492 89.2229 132.716 89.9917 132.162C90.8196 131.57 91.7807 131.629 92.2759 132.435C93.3922 134.246 94.3828 133.396 95.5212 132.539C97.7019 130.912 99.6609 129.064 101.302 126.906C102.211 125.708 103.764 124.51 101.361 123.15C100.681 122.766 100.711 121.864 101.117 121.162C101.583 120.349 102.381 119.75 103.254 120.223C105.383 121.376 105.804 119.787 106.329 118.441C107.216 116.164 108.118 113.895 108.317 111.404C108.45 109.689 108.953 108.255 106.432 107.523C104.584 106.991 104.621 104.95 106.506 104.366C108.724 103.686 108.532 102.481 108.369 100.788C108.118 98.1789 107.245 95.7838 106.307 93.3886C105.752 91.9693 105.25 90.5796 103.187 91.7106C102.33 92.1763 101.487 91.511 101.08 90.683C100.548 89.5964 101.036 88.8054 102.056 88.2879C102.167 88.2288 102.285 88.1918 102.389 88.1253C110.099 83.2611 109.005 82.8398 112.368 90.8752C123.309 117.015 103.83 145.815 75.3327 145.97V146Z" fill="#FDFEFE"/>
<path d="M60.851 91.2523C62.1151 91.2227 62.8248 92.1246 63.601 92.8934C66.5653 95.8282 69.6479 98.6594 72.4275 101.757C74.2534 103.79 75.2809 103.871 77.2029 101.705C85.5858 92.2577 94.1831 83.0024 102.699 73.6733C103.364 72.9488 104.008 72.2096 104.702 71.5221C106.048 70.1841 107.327 68.0181 109.53 69.9919C111.659 71.9065 109.921 73.4959 108.598 74.9448C104.555 79.3876 100.489 83.8156 96.4378 88.251C90.2356 95.0372 83.9965 101.801 77.8534 108.646C76.168 110.524 74.623 111.212 72.627 109.223C68.199 104.802 63.7636 100.389 59.343 95.9612C58.4337 95.052 57.7832 94.0466 58.4929 92.6938C58.9956 91.7402 59.7274 91.2005 60.8363 91.2375L60.851 91.2523Z" fill="#FDFEFE"/>
</g>
<defs>
<clipPath id="clip0_15_46">
<rect width="80.4657" height="80" fill="white" transform="translate(35 66)"/>
</clipPath>
</defs>
</svg>
