<svg width="150" height="181" viewBox="0 0 150 181" fill="none" xmlns="http://www.w3.org/2000/svg">
<g clip-path="url(#clip0_489_113)">
<path d="M86 113C115.823 113 140 88.8234 140 59C140 29.1766 115.823 5 86 5C56.1766 5 32 29.1766 32 59C32 88.8234 56.1766 113 86 113Z" stroke="#FFECD6" stroke-width="10"/>
<path d="M21.5 75C30.6127 75 38 67.6127 38 58.5C38 49.3873 30.6127 42 21.5 42C12.3873 42 5 49.3873 5 58.5C5 67.6127 12.3873 75 21.5 75Z" stroke="#FFECD6" stroke-width="10"/>
<path d="M75 181C116.421 181 150 147.421 150 106C150 64.5786 116.421 31 75 31C33.5786 31 0 64.5786 0 106C0 147.421 33.5786 181 75 181Z" fill="#3A86FF"/>
<path d="M71.0664 62.1504C74.2434 62.1505 77.0481 63.9845 78.3545 66.7666H84.7393C85.8555 66.7667 86.7598 67.6718 86.7598 68.7881V71.3838H98.4121C101.486 71.3838 103.984 73.8838 103.984 76.9561V121.316C112.153 122.316 118.5 129.292 118.5 137.728C118.5 146.846 111.082 154.264 101.964 154.264C96.6644 154.264 91.9424 151.757 88.915 147.872H43.7217C40.6485 147.872 38.1504 145.373 38.1504 142.3V76.9561C38.1504 73.8829 40.6485 71.3841 43.7217 71.3838H55.3721V68.7881C55.3721 67.6719 56.2765 66.7669 57.3926 66.7666H63.7773C65.0838 63.9843 67.8893 62.1505 71.0664 62.1504ZM101.963 125.233C95.0735 125.234 89.467 130.838 89.4668 137.728C89.4668 144.616 95.0734 150.222 101.963 150.223C108.852 150.223 114.459 144.618 114.458 137.729V137.728C114.458 130.839 108.852 125.233 101.963 125.233ZM108.056 131.419C108.841 130.628 110.119 130.621 110.913 131.407C111.705 132.192 111.713 133.47 110.928 134.264L101.251 144.035C100.872 144.418 100.357 144.633 99.8203 144.635H99.8154C99.279 144.635 98.765 144.421 98.3867 144.043L93.0059 138.662C92.2167 137.873 92.2167 136.594 93.0059 135.805C93.7956 135.015 95.0746 135.017 95.8633 135.805L99.8076 139.749L108.055 131.42L108.056 131.419ZM43.7217 75.4248C42.8783 75.4251 42.1914 76.1126 42.1914 76.9561V142.3C42.1914 143.137 42.8677 143.819 43.7021 143.83H86.5967C85.8435 141.94 85.4277 139.881 85.4277 137.727C85.428 129.292 91.7758 122.315 99.9443 121.315V76.9561C99.9443 76.1125 99.2567 75.4249 98.4131 75.4248H86.7607V78.0215C86.7605 79.1376 85.8563 80.0419 84.7402 80.042H57.3945C56.2786 80.0416 55.3743 79.1374 55.374 78.0215V75.4248H43.7217ZM60.0137 124.743C61.1292 124.743 62.0337 125.648 62.0352 126.763V135.11C62.035 136.227 61.1299 137.131 60.0137 137.131H51.668C50.5515 137.131 49.6477 136.225 49.6475 135.11V126.764C49.6476 125.648 50.5518 124.743 51.668 124.743H60.0137ZM81.5957 133.088C82.7121 133.088 83.6172 133.993 83.6172 135.109C83.617 136.224 82.7122 137.13 81.5957 137.13H69.2471C68.1309 137.13 67.2258 136.226 67.2256 135.109C67.2256 133.994 68.1305 133.088 69.2471 133.088H81.5957ZM53.6885 133.088H57.9932V128.783H53.6885V133.088ZM81.5967 124.742C82.7119 124.744 83.617 125.647 83.6172 126.763C83.6172 127.878 82.7124 128.784 81.5957 128.784H69.2471C68.1308 128.784 67.2256 127.879 67.2256 126.763C67.2258 125.647 68.1309 124.742 69.2471 124.742H81.5967ZM60.0137 105.743C61.1295 105.743 62.0337 106.648 62.0352 107.764V116.11C62.035 117.227 61.1299 118.131 60.0137 118.131H51.668C50.5515 118.131 49.6477 117.225 49.6475 116.11V107.764C49.6476 106.648 50.5518 105.743 51.668 105.743H60.0137ZM90.4658 114.088C91.5822 114.088 92.4873 114.993 92.4873 116.109C92.4871 117.226 91.5821 118.13 90.4658 118.13H69.2471C68.1309 118.13 67.2258 117.226 67.2256 116.109C67.2256 114.994 68.1305 114.088 69.2471 114.088H90.4658ZM53.6885 114.089H57.9932V109.784H53.6885V114.089ZM90.4658 105.743C91.5821 105.743 92.4871 106.647 92.4873 107.764C92.4873 108.881 91.5816 109.784 90.4658 109.784H69.2471C68.1313 109.784 67.2256 108.881 67.2256 107.764C67.2258 106.648 68.1309 105.743 69.2471 105.743H90.4658ZM60.0137 86.7441C61.1295 86.7441 62.0337 87.6493 62.0352 88.7646V97.1113C62.035 98.2275 61.1299 99.1318 60.0137 99.1318H51.668C50.5518 99.1317 49.6476 98.2275 49.6475 97.1113V88.7646C49.6477 87.6485 50.5518 86.7443 51.668 86.7441H60.0137ZM90.4658 95.0889C91.5822 95.0889 92.4873 95.994 92.4873 97.1104C92.4871 98.2266 91.5821 99.1309 90.4658 99.1309H69.2461C68.131 99.1293 67.2258 98.2259 67.2256 97.1104C67.2256 95.994 68.1308 95.089 69.2471 95.0889H90.4658ZM53.6885 95.0898H57.9932V90.7852H53.6885V95.0898ZM90.4658 86.7441C91.5821 86.7441 92.4871 87.6484 92.4873 88.7646C92.4873 89.881 91.5822 90.7861 90.4658 90.7861H69.2461C68.1309 90.7845 67.2256 89.8803 67.2256 88.7646C67.2258 87.6485 68.1309 86.7442 69.2471 86.7441H90.4658ZM71.0674 66.1924C69.3193 66.1925 67.7999 67.3014 67.2578 68.9297L67.1621 69.2617C66.9432 70.1687 66.1316 70.8085 65.1982 70.8086H59.415V76.001H82.7188V70.8086H76.9355C76.0607 70.8083 75.2925 70.2462 75.0195 69.4287L74.9717 69.2617C74.5359 67.4542 72.9318 66.1926 71.0674 66.1924Z" fill="white"/>
</g>
<defs>
<clipPath id="clip0_489_113">
<rect width="150" height="181" fill="white"/>
</clipPath>
</defs>
</svg>
