<svg width="408" height="401" viewBox="0 0 408 401" fill="none" xmlns="http://www.w3.org/2000/svg">
<path d="M402.527 219.68C397.583 269.551 374.051 315.735 336.609 349.048C299.167 382.36 250.559 400.36 200.451 399.468C150.343 398.577 102.406 378.859 66.1731 344.236C29.94 309.613 8.06516 262.621 4.89863 212.605" stroke="#3A86FF" stroke-dasharray="8 8"/>
<path d="M5.95178 180.56C10.8563 130.594 34.4661 84.3284 72.0481 51.038C109.63 17.7475 158.407 -0.107206 208.599 1.05318C258.792 2.21356 306.691 22.3033 342.695 57.2949C378.698 92.2866 400.145 139.594 402.735 189.733" stroke="black" stroke-width="2" stroke-linejoin="round"/>
<path d="M231.083 204H176.917C166.579 204 158.167 195.587 158.167 185.25V122.75C158.167 112.412 166.579 104 176.917 104H231.083C241.421 104 249.833 112.412 249.833 122.75V185.25C249.833 195.587 241.421 204 231.083 204ZM176.917 108.167C168.875 108.167 162.333 114.708 162.333 122.75V185.25C162.333 193.292 168.875 199.833 176.917 199.833H231.083C239.125 199.833 245.667 193.292 245.667 185.25V122.75C245.667 114.708 239.125 108.167 231.083 108.167H176.917ZM224.833 137.333H183.167C178.571 137.333 174.833 133.596 174.833 129C174.833 124.404 178.571 120.667 183.167 120.667H224.833C229.429 120.667 233.167 124.404 233.167 129C233.167 133.596 229.429 137.333 224.833 137.333ZM183.167 124.833C180.871 124.833 179 126.7 179 129C179 131.3 180.871 133.167 183.167 133.167H224.833C227.129 133.167 229 131.3 229 129C229 126.7 227.129 124.833 224.833 124.833H183.167ZM233.167 185.25C233.167 184.1 232.233 183.167 231.083 183.167H210.25C209.1 183.167 208.167 184.1 208.167 185.25C208.167 186.4 209.1 187.333 210.25 187.333H231.083C232.233 187.333 233.167 186.4 233.167 185.25ZM183.167 168.583C183.167 167.433 182.233 166.5 181.083 166.5H176.917C175.767 166.5 174.833 167.433 174.833 168.583C174.833 169.733 175.767 170.667 176.917 170.667H181.083C182.233 170.667 183.167 169.733 183.167 168.583ZM199.833 168.583C199.833 167.433 198.9 166.5 197.75 166.5H193.583C192.433 166.5 191.5 167.433 191.5 168.583C191.5 169.733 192.433 170.667 193.583 170.667H197.75C198.9 170.667 199.833 169.733 199.833 168.583ZM183.167 185.25C183.167 184.1 182.233 183.167 181.083 183.167H176.917C175.767 183.167 174.833 184.1 174.833 185.25C174.833 186.4 175.767 187.333 176.917 187.333H181.083C182.233 187.333 183.167 186.4 183.167 185.25ZM199.833 185.25C199.833 184.1 198.9 183.167 197.75 183.167H193.583C192.433 183.167 191.5 184.1 191.5 185.25C191.5 186.4 192.433 187.333 193.583 187.333H197.75C198.9 187.333 199.833 186.4 199.833 185.25ZM216.5 168.583C216.5 167.433 215.567 166.5 214.417 166.5H210.25C209.1 166.5 208.167 167.433 208.167 168.583C208.167 169.733 209.1 170.667 210.25 170.667H214.417C215.567 170.667 216.5 169.733 216.5 168.583ZM233.167 168.583C233.167 167.433 232.233 166.5 231.083 166.5H226.917C225.767 166.5 224.833 167.433 224.833 168.583C224.833 169.733 225.767 170.667 226.917 170.667H231.083C232.233 170.667 233.167 169.733 233.167 168.583ZM183.167 151.917C183.167 150.767 182.233 149.833 181.083 149.833H176.917C175.767 149.833 174.833 150.767 174.833 151.917C174.833 153.067 175.767 154 176.917 154H181.083C182.233 154 183.167 153.067 183.167 151.917ZM199.833 151.917C199.833 150.767 198.9 149.833 197.75 149.833H193.583C192.433 149.833 191.5 150.767 191.5 151.917C191.5 153.067 192.433 154 193.583 154H197.75C198.9 154 199.833 153.067 199.833 151.917ZM216.5 151.917C216.5 150.767 215.567 149.833 214.417 149.833H210.25C209.1 149.833 208.167 150.767 208.167 151.917C208.167 153.067 209.1 154 210.25 154H214.417C215.567 154 216.5 153.067 216.5 151.917ZM233.167 151.917C233.167 150.767 232.233 149.833 231.083 149.833H226.917C225.767 149.833 224.833 150.767 224.833 151.917C224.833 153.067 225.767 154 226.917 154H231.083C232.233 154 233.167 153.067 233.167 151.917Z" fill="black"/>
<circle cx="403" cy="194" r="5" fill="#FF9210"/>
<circle cx="5" cy="209" r="5" fill="#FF9210"/>
<path d="M141.096 253.9C141.096 252.115 141.494 250.52 142.292 249.116C143.106 247.695 144.207 246.594 145.594 245.814C146.998 245.017 148.566 244.618 150.3 244.618C152.328 244.618 154.104 245.138 155.63 246.178C157.155 247.218 158.221 248.657 158.828 250.494H154.642C154.226 249.627 153.636 248.977 152.874 248.544C152.128 248.111 151.262 247.894 150.274 247.894C149.216 247.894 148.272 248.145 147.44 248.648C146.625 249.133 145.984 249.827 145.516 250.728C145.065 251.629 144.84 252.687 144.84 253.9C144.84 255.096 145.065 256.153 145.516 257.072C145.984 257.973 146.625 258.675 147.44 259.178C148.272 259.663 149.216 259.906 150.274 259.906C151.262 259.906 152.128 259.689 152.874 259.256C153.636 258.805 154.226 258.147 154.642 257.28H158.828C158.221 259.135 157.155 260.582 155.63 261.622C154.122 262.645 152.345 263.156 150.3 263.156C148.566 263.156 146.998 262.766 145.594 261.986C144.207 261.189 143.106 260.088 142.292 258.684C141.494 257.28 141.096 255.685 141.096 253.9ZM161.001 255.746C161.001 254.29 161.287 252.999 161.859 251.872C162.448 250.745 163.237 249.879 164.225 249.272C165.23 248.665 166.348 248.362 167.579 248.362C168.653 248.362 169.589 248.579 170.387 249.012C171.201 249.445 171.851 249.991 172.337 250.65V248.596H176.003V263H172.337V260.894C171.869 261.57 171.219 262.133 170.387 262.584C169.572 263.017 168.627 263.234 167.553 263.234C166.339 263.234 165.23 262.922 164.225 262.298C163.237 261.674 162.448 260.799 161.859 259.672C161.287 258.528 161.001 257.219 161.001 255.746ZM172.337 255.798C172.337 254.914 172.163 254.16 171.817 253.536C171.47 252.895 171.002 252.409 170.413 252.08C169.823 251.733 169.191 251.56 168.515 251.56C167.839 251.56 167.215 251.725 166.643 252.054C166.071 252.383 165.603 252.869 165.239 253.51C164.892 254.134 164.719 254.879 164.719 255.746C164.719 256.613 164.892 257.375 165.239 258.034C165.603 258.675 166.071 259.169 166.643 259.516C167.232 259.863 167.856 260.036 168.515 260.036C169.191 260.036 169.823 259.871 170.413 259.542C171.002 259.195 171.47 258.71 171.817 258.086C172.163 257.445 172.337 256.682 172.337 255.798ZM183.198 243.76V263H179.558V243.76H183.198ZM185.858 255.798C185.858 254.307 186.161 253.007 186.768 251.898C187.375 250.771 188.215 249.905 189.29 249.298C190.365 248.674 191.595 248.362 192.982 248.362C194.767 248.362 196.241 248.813 197.402 249.714C198.581 250.598 199.369 251.846 199.768 253.458H195.842C195.634 252.834 195.279 252.349 194.776 252.002C194.291 251.638 193.684 251.456 192.956 251.456C191.916 251.456 191.093 251.837 190.486 252.6C189.879 253.345 189.576 254.411 189.576 255.798C189.576 257.167 189.879 258.233 190.486 258.996C191.093 259.741 191.916 260.114 192.956 260.114C194.429 260.114 195.391 259.455 195.842 258.138H199.768C199.369 259.698 198.581 260.937 197.402 261.856C196.223 262.775 194.75 263.234 192.982 263.234C191.595 263.234 190.365 262.931 189.29 262.324C188.215 261.7 187.375 260.833 186.768 259.724C186.161 258.597 185.858 257.289 185.858 255.798ZM216.033 248.596V263H212.367V261.18C211.899 261.804 211.283 262.298 210.521 262.662C209.775 263.009 208.961 263.182 208.077 263.182C206.95 263.182 205.953 262.948 205.087 262.48C204.22 261.995 203.535 261.293 203.033 260.374C202.547 259.438 202.305 258.329 202.305 257.046V248.596H205.945V256.526C205.945 257.67 206.231 258.554 206.803 259.178C207.375 259.785 208.155 260.088 209.143 260.088C210.148 260.088 210.937 259.785 211.509 259.178C212.081 258.554 212.367 257.67 212.367 256.526V248.596H216.033ZM223.264 243.76V263H219.624V243.76H223.264ZM225.924 255.746C225.924 254.29 226.21 252.999 226.782 251.872C227.372 250.745 228.16 249.879 229.148 249.272C230.154 248.665 231.272 248.362 232.502 248.362C233.577 248.362 234.513 248.579 235.31 249.012C236.125 249.445 236.775 249.991 237.26 250.65V248.596H240.926V263H237.26V260.894C236.792 261.57 236.142 262.133 235.31 262.584C234.496 263.017 233.551 263.234 232.476 263.234C231.263 263.234 230.154 262.922 229.148 262.298C228.16 261.674 227.372 260.799 226.782 259.672C226.21 258.528 225.924 257.219 225.924 255.746ZM237.26 255.798C237.26 254.914 237.087 254.16 236.74 253.536C236.394 252.895 235.926 252.409 235.336 252.08C234.747 251.733 234.114 251.56 233.438 251.56C232.762 251.56 232.138 251.725 231.566 252.054C230.994 252.383 230.526 252.869 230.162 253.51C229.816 254.134 229.642 254.879 229.642 255.746C229.642 256.613 229.816 257.375 230.162 258.034C230.526 258.675 230.994 259.169 231.566 259.516C232.156 259.863 232.78 260.036 233.438 260.036C234.114 260.036 234.747 259.871 235.336 259.542C235.926 259.195 236.394 258.71 236.74 258.086C237.087 257.445 237.26 256.682 237.26 255.798ZM248.72 251.586V258.554C248.72 259.039 248.832 259.395 249.058 259.62C249.3 259.828 249.699 259.932 250.254 259.932H251.944V263H249.656C246.588 263 245.054 261.509 245.054 258.528V251.586H243.338V248.596H245.054V245.034H248.72V248.596H251.944V251.586H248.72ZM267.952 255.486C267.952 256.006 267.917 256.474 267.848 256.89H257.318C257.404 257.93 257.768 258.745 258.41 259.334C259.051 259.923 259.84 260.218 260.776 260.218C262.128 260.218 263.09 259.637 263.662 258.476H267.588C267.172 259.863 266.374 261.007 265.196 261.908C264.017 262.792 262.57 263.234 260.854 263.234C259.467 263.234 258.219 262.931 257.11 262.324C256.018 261.7 255.16 260.825 254.536 259.698C253.929 258.571 253.626 257.271 253.626 255.798C253.626 254.307 253.929 252.999 254.536 251.872C255.142 250.745 255.992 249.879 257.084 249.272C258.176 248.665 259.432 248.362 260.854 248.362C262.223 248.362 263.445 248.657 264.52 249.246C265.612 249.835 266.452 250.676 267.042 251.768C267.648 252.843 267.952 254.082 267.952 255.486ZM264.182 254.446C264.164 253.51 263.826 252.765 263.168 252.21C262.509 251.638 261.703 251.352 260.75 251.352C259.848 251.352 259.086 251.629 258.462 252.184C257.855 252.721 257.482 253.475 257.344 254.446H264.182Z" fill="black"/>
</svg>
