<svg width="408" height="401" viewBox="0 0 408 401" fill="none" xmlns="http://www.w3.org/2000/svg">
<path d="M402.527 219.68C397.583 269.551 374.051 315.735 336.609 349.048C299.167 382.36 250.559 400.36 200.451 399.468C150.343 398.577 102.406 378.859 66.1731 344.236C29.94 309.613 8.06516 262.621 4.89863 212.605" stroke="#3A86FF" stroke-dasharray="8 8"/>
<path d="M5.95178 180.56C10.8563 130.594 34.4661 84.3284 72.0481 51.038C109.63 17.7475 158.407 -0.107206 208.599 1.05318C258.792 2.21356 306.691 22.3033 342.695 57.2949C378.698 92.2866 400.145 139.594 402.735 189.733" stroke="black" stroke-width="2" stroke-linejoin="round"/>
<circle cx="403" cy="194" r="5" fill="#FF9210"/>
<circle cx="5" cy="209" r="5" fill="#FF9210"/>
<path d="M140.401 244.852V247.79H132.835V252.444H138.633V255.33H132.835V263H129.195V244.852H140.401ZM144.828 246.88C144.187 246.88 143.65 246.681 143.216 246.282C142.8 245.866 142.592 245.355 142.592 244.748C142.592 244.141 142.8 243.639 143.216 243.24C143.65 242.824 144.187 242.616 144.828 242.616C145.47 242.616 145.998 242.824 146.414 243.24C146.848 243.639 147.064 244.141 147.064 244.748C147.064 245.355 146.848 245.866 146.414 246.282C145.998 246.681 145.47 246.88 144.828 246.88ZM146.622 248.596V263H142.982V248.596H146.622ZM153.859 243.76V263H150.219V243.76H153.859ZM170.845 255.486C170.845 256.006 170.81 256.474 170.741 256.89H160.211C160.298 257.93 160.662 258.745 161.303 259.334C161.944 259.923 162.733 260.218 163.669 260.218C165.021 260.218 165.983 259.637 166.555 258.476H170.481C170.065 259.863 169.268 261.007 168.089 261.908C166.91 262.792 165.463 263.234 163.747 263.234C162.36 263.234 161.112 262.931 160.003 262.324C158.911 261.7 158.053 260.825 157.429 259.698C156.822 258.571 156.519 257.271 156.519 255.798C156.519 254.307 156.822 252.999 157.429 251.872C158.036 250.745 158.885 249.879 159.977 249.272C161.069 248.665 162.326 248.362 163.747 248.362C165.116 248.362 166.338 248.657 167.413 249.246C168.505 249.835 169.346 250.676 169.935 251.768C170.542 252.843 170.845 254.082 170.845 255.486ZM167.075 254.446C167.058 253.51 166.72 252.765 166.061 252.21C165.402 251.638 164.596 251.352 163.643 251.352C162.742 251.352 161.979 251.629 161.355 252.184C160.748 252.721 160.376 253.475 160.237 254.446H167.075ZM193.659 263L191.683 261.05C190.002 262.558 187.948 263.312 185.521 263.312C184.187 263.312 183.008 263.087 181.985 262.636C180.98 262.168 180.2 261.518 179.645 260.686C179.091 259.837 178.813 258.857 178.813 257.748C178.813 256.552 179.151 255.477 179.827 254.524C180.503 253.571 181.5 252.799 182.817 252.21C182.349 251.638 182.011 251.092 181.803 250.572C181.595 250.035 181.491 249.463 181.491 248.856C181.491 248.024 181.708 247.279 182.141 246.62C182.575 245.944 183.19 245.415 183.987 245.034C184.802 244.653 185.747 244.462 186.821 244.462C187.913 244.462 188.849 244.67 189.629 245.086C190.409 245.502 190.99 246.057 191.371 246.75C191.753 247.443 191.917 248.215 191.865 249.064H188.329C188.347 248.492 188.208 248.059 187.913 247.764C187.619 247.452 187.22 247.296 186.717 247.296C186.232 247.296 185.825 247.443 185.495 247.738C185.183 248.015 185.027 248.379 185.027 248.83C185.027 249.263 185.157 249.697 185.417 250.13C185.677 250.546 186.102 251.066 186.691 251.69L191.267 256.214C191.302 256.179 191.328 256.145 191.345 256.11C191.363 256.075 191.38 256.041 191.397 256.006L192.879 253.536H196.675L194.855 256.734C194.509 257.41 194.136 258.051 193.737 258.658L198.131 263H193.659ZM185.625 260.296C187.047 260.296 188.303 259.793 189.395 258.788L184.923 254.368C183.242 255.113 182.401 256.171 182.401 257.54C182.401 258.32 182.696 258.979 183.285 259.516C183.875 260.036 184.655 260.296 185.625 260.296ZM215.489 263L211.485 255.928H209.769V263H206.129V244.852H212.941C214.345 244.852 215.541 245.103 216.529 245.606C217.517 246.091 218.254 246.759 218.739 247.608C219.242 248.44 219.493 249.376 219.493 250.416C219.493 251.612 219.146 252.695 218.453 253.666C217.76 254.619 216.728 255.278 215.359 255.642L219.701 263H215.489ZM209.769 253.198H212.811C213.799 253.198 214.536 252.964 215.021 252.496C215.506 252.011 215.749 251.343 215.749 250.494C215.749 249.662 215.506 249.021 215.021 248.57C214.536 248.102 213.799 247.868 212.811 247.868H209.769V253.198ZM236.175 255.486C236.175 256.006 236.141 256.474 236.071 256.89H225.541C225.628 257.93 225.992 258.745 226.633 259.334C227.275 259.923 228.063 260.218 228.999 260.218C230.351 260.218 231.313 259.637 231.885 258.476H235.811C235.395 259.863 234.598 261.007 233.419 261.908C232.241 262.792 230.793 263.234 229.077 263.234C227.691 263.234 226.443 262.931 225.333 262.324C224.241 261.7 223.383 260.825 222.759 259.698C222.153 258.571 221.849 257.271 221.849 255.798C221.849 254.307 222.153 252.999 222.759 251.872C223.366 250.745 224.215 249.879 225.307 249.272C226.399 248.665 227.656 248.362 229.077 248.362C230.447 248.362 231.669 248.657 232.743 249.246C233.835 249.835 234.676 250.676 235.265 251.768C235.872 252.843 236.175 254.082 236.175 255.486ZM232.405 254.446C232.388 253.51 232.05 252.765 231.391 252.21C230.733 251.638 229.927 251.352 228.973 251.352C228.072 251.352 227.309 251.629 226.685 252.184C226.079 252.721 225.706 253.475 225.567 254.446H232.405ZM256.72 248.388C258.488 248.388 259.909 248.934 260.984 250.026C262.076 251.101 262.622 252.609 262.622 254.55V263H258.982V255.044C258.982 253.917 258.696 253.059 258.124 252.47C257.552 251.863 256.772 251.56 255.784 251.56C254.796 251.56 254.007 251.863 253.418 252.47C252.846 253.059 252.56 253.917 252.56 255.044V263H248.92V255.044C248.92 253.917 248.634 253.059 248.062 252.47C247.49 251.863 246.71 251.56 245.722 251.56C244.717 251.56 243.919 251.863 243.33 252.47C242.758 253.059 242.472 253.917 242.472 255.044V263H238.832V248.596H242.472V250.338C242.94 249.731 243.538 249.255 244.266 248.908C245.011 248.561 245.826 248.388 246.71 248.388C247.837 248.388 248.842 248.631 249.726 249.116C250.61 249.584 251.295 250.26 251.78 251.144C252.248 250.312 252.924 249.645 253.808 249.142C254.709 248.639 255.68 248.388 256.72 248.388ZM267.922 246.88C267.281 246.88 266.744 246.681 266.31 246.282C265.894 245.866 265.686 245.355 265.686 244.748C265.686 244.141 265.894 243.639 266.31 243.24C266.744 242.824 267.281 242.616 267.922 242.616C268.564 242.616 269.092 242.824 269.508 243.24C269.942 243.639 270.158 244.141 270.158 244.748C270.158 245.355 269.942 245.866 269.508 246.282C269.092 246.681 268.564 246.88 267.922 246.88ZM269.716 248.596V263H266.076V248.596H269.716ZM277.551 251.586V258.554C277.551 259.039 277.663 259.395 277.889 259.62C278.131 259.828 278.53 259.932 279.085 259.932H280.775V263H278.487C275.419 263 273.885 261.509 273.885 258.528V251.586H272.169V248.596H273.885V245.034H277.551V248.596H280.775V251.586H277.551Z" fill="black"/>
<g clip-path="url(#clip0_69_1029)">
<path d="M158.167 199.833V114.417C158.167 110.971 160.971 108.167 164.417 108.167H204V137.333H233.167V142.083C234.583 142.338 235.979 142.646 237.333 143.062V134.387L206.946 104H164.417C158.675 104 154 108.675 154 114.417V204H204.117C202.608 202.729 201.217 201.333 199.937 199.833H158.167ZM208.167 111.112L230.221 133.167H208.167V111.112ZM226.917 149.833C211.983 149.833 199.833 161.983 199.833 176.917C199.833 191.85 211.983 204 226.917 204C241.85 204 254 191.85 254 176.917C254 161.983 241.85 149.833 226.917 149.833ZM226.917 199.833C214.279 199.833 204 189.554 204 176.917C204 164.279 214.279 154 226.917 154C239.554 154 249.833 164.279 249.833 176.917C249.833 189.554 239.554 199.833 226.917 199.833ZM231.046 164.05C228.85 161.771 224.883 161.771 222.7 164.062L209.887 178.996H224.833V191.496H229V178.996H243.971L231.046 164.05ZM225.696 166.958C226.25 166.362 227.479 166.375 227.996 166.888L234.862 174.833H218.946L225.696 166.958Z" fill="black"/>
</g>
<defs>
<clipPath id="clip0_69_1029">
<rect width="100" height="100" fill="white" transform="translate(154 104)"/>
</clipPath>
</defs>
</svg>
