<svg width="408" height="401" viewBox="0 0 408 401" fill="none" xmlns="http://www.w3.org/2000/svg">
<path d="M5.47308 181.32C10.4169 131.449 33.9495 85.2646 71.3913 51.9524C108.833 18.6401 157.441 0.640007 207.549 1.53155C257.657 2.4231 305.594 22.141 341.827 56.7641C378.06 91.3872 399.935 138.379 403.101 188.395" stroke="#3A86FF" stroke-dasharray="8 8"/>
<g clip-path="url(#clip0_69_1021)">
<path d="M191.5 113.333V205H216.5V113.333C216.5 108.75 212.75 105 208.167 105H199.833C195.25 105 191.5 108.75 191.5 113.333ZM208.167 109.166C210.458 109.166 212.333 111.041 212.333 113.333V200.833H195.667V113.333C195.667 111.041 197.542 109.166 199.833 109.166H208.167ZM170.667 130H162.333C157.75 130 154 133.75 154 138.333V205H179V138.333C179 133.75 175.25 130 170.667 130ZM158.167 200.833V138.333C158.167 136.041 160.042 134.166 162.333 134.166H170.667C172.958 134.166 174.833 136.041 174.833 138.333V200.833H158.167ZM229 163.333V205H254V163.333C254 158.75 250.25 155 245.667 155H237.333C232.75 155 229 158.75 229 163.333ZM245.667 159.166C247.958 159.166 249.833 161.041 249.833 163.333V200.833H233.167V163.333C233.167 161.041 235.042 159.166 237.333 159.166H245.667Z" fill="black"/>
</g>
<path d="M402.048 220.44C397.144 270.406 373.534 316.672 335.952 349.962C298.37 383.253 249.593 401.107 199.401 399.947C149.208 398.786 101.309 378.697 65.3052 343.705C29.3018 308.713 7.85526 261.406 5.26502 211.267" stroke="black" stroke-width="2" stroke-linejoin="round"/>
<circle cx="5" cy="207" r="5" transform="rotate(-180 5 207)" fill="#FF9210"/>
<circle cx="403" cy="192" r="5" transform="rotate(-180 403 192)" fill="#FF9210"/>
<path d="M171.406 264L167.402 256.928H165.686V264H162.046V245.852H168.858C170.262 245.852 171.458 246.104 172.446 246.606C173.434 247.092 174.171 247.759 174.656 248.608C175.159 249.44 175.41 250.376 175.41 251.416C175.41 252.612 175.063 253.696 174.37 254.666C173.677 255.62 172.645 256.278 171.276 256.642L175.618 264H171.406ZM165.686 254.198H168.728C169.716 254.198 170.453 253.964 170.938 253.496C171.423 253.011 171.666 252.344 171.666 251.494C171.666 250.662 171.423 250.021 170.938 249.57C170.453 249.102 169.716 248.868 168.728 248.868H165.686V254.198ZM192.092 256.486C192.092 257.006 192.058 257.474 191.988 257.89H181.458C181.545 258.93 181.909 259.745 182.55 260.334C183.192 260.924 183.98 261.218 184.916 261.218C186.268 261.218 187.23 260.638 187.802 259.476H191.728C191.312 260.863 190.515 262.007 189.336 262.908C188.158 263.792 186.71 264.234 184.994 264.234C183.608 264.234 182.36 263.931 181.25 263.324C180.158 262.7 179.3 261.825 178.676 260.698C178.07 259.572 177.766 258.272 177.766 256.798C177.766 255.308 178.07 253.999 178.676 252.872C179.283 251.746 180.132 250.879 181.224 250.272C182.316 249.666 183.573 249.362 184.994 249.362C186.364 249.362 187.586 249.657 188.66 250.246C189.752 250.836 190.593 251.676 191.182 252.768C191.789 253.843 192.092 255.082 192.092 256.486ZM188.322 255.446C188.305 254.51 187.967 253.765 187.308 253.21C186.65 252.638 185.844 252.352 184.89 252.352C183.989 252.352 183.226 252.63 182.602 253.184C181.996 253.722 181.623 254.476 181.484 255.446H188.322ZM198.389 251.676C198.857 251.018 199.498 250.472 200.313 250.038C201.145 249.588 202.09 249.362 203.147 249.362C204.378 249.362 205.487 249.666 206.475 250.272C207.48 250.879 208.269 251.746 208.841 252.872C209.43 253.982 209.725 255.273 209.725 256.746C209.725 258.22 209.43 259.528 208.841 260.672C208.269 261.799 207.48 262.674 206.475 263.298C205.487 263.922 204.378 264.234 203.147 264.234C202.09 264.234 201.154 264.018 200.339 263.584C199.542 263.151 198.892 262.605 198.389 261.946V270.864H194.749V249.596H198.389V251.676ZM206.007 256.746C206.007 255.88 205.825 255.134 205.461 254.51C205.114 253.869 204.646 253.384 204.057 253.054C203.485 252.725 202.861 252.56 202.185 252.56C201.526 252.56 200.902 252.734 200.313 253.08C199.741 253.41 199.273 253.895 198.909 254.536C198.562 255.178 198.389 255.932 198.389 256.798C198.389 257.665 198.562 258.419 198.909 259.06C199.273 259.702 199.741 260.196 200.313 260.542C200.902 260.872 201.526 261.036 202.185 261.036C202.861 261.036 203.485 260.863 204.057 260.516C204.646 260.17 205.114 259.676 205.461 259.034C205.825 258.393 206.007 257.63 206.007 256.746ZM218.766 264.234C217.38 264.234 216.132 263.931 215.022 263.324C213.913 262.7 213.038 261.825 212.396 260.698C211.772 259.572 211.46 258.272 211.46 256.798C211.46 255.325 211.781 254.025 212.422 252.898C213.081 251.772 213.974 250.905 215.1 250.298C216.227 249.674 217.484 249.362 218.87 249.362C220.257 249.362 221.514 249.674 222.64 250.298C223.767 250.905 224.651 251.772 225.292 252.898C225.951 254.025 226.28 255.325 226.28 256.798C226.28 258.272 225.942 259.572 225.266 260.698C224.608 261.825 223.706 262.7 222.562 263.324C221.436 263.931 220.17 264.234 218.766 264.234ZM218.766 261.062C219.425 261.062 220.04 260.906 220.612 260.594C221.202 260.265 221.67 259.78 222.016 259.138C222.363 258.497 222.536 257.717 222.536 256.798C222.536 255.429 222.172 254.38 221.444 253.652C220.734 252.907 219.858 252.534 218.818 252.534C217.778 252.534 216.903 252.907 216.192 253.652C215.499 254.38 215.152 255.429 215.152 256.798C215.152 258.168 215.49 259.225 216.166 259.97C216.86 260.698 217.726 261.062 218.766 261.062ZM232.59 251.832C233.058 251.07 233.665 250.472 234.41 250.038C235.173 249.605 236.04 249.388 237.01 249.388V253.21H236.048C234.904 253.21 234.038 253.479 233.448 254.016C232.876 254.554 232.59 255.49 232.59 256.824V264H228.95V249.596H232.59V251.832ZM243.7 252.586V259.554C243.7 260.04 243.813 260.395 244.038 260.62C244.281 260.828 244.679 260.932 245.234 260.932H246.924V264H244.636C241.568 264 240.034 262.51 240.034 259.528V252.586H238.318V249.596H240.034V246.034H243.7V249.596H246.924V252.586H243.7Z" fill="black"/>
<defs>
<clipPath id="clip0_69_1021">
<rect width="100" height="100" fill="white" transform="matrix(0 -1 1 0 154 205)"/>
</clipPath>
</defs>
</svg>
