<svg width="54" height="16" viewBox="0 0 54 16" fill="none" xmlns="http://www.w3.org/2000/svg">
<path d="M53.7071 8.70711C54.0976 8.31658 54.0976 7.68342 53.7071 7.29289L47.3431 0.928932C46.9526 0.538408 46.3195 0.538408 45.9289 0.928932C45.5384 1.31946 45.5384 1.95262 45.9289 2.34315L51.5858 8L45.9289 13.6569C45.5384 14.0474 45.5384 14.6805 45.9289 15.0711C46.3195 15.4616 46.9526 15.4616 47.3431 15.0711L53.7071 8.70711ZM33 9H53V7H33V9Z" fill="black"/>
<path d="M0.292893 7.29289C-0.0976314 7.68342 -0.0976315 8.31658 0.292892 8.7071L6.65685 15.0711C7.04738 15.4616 7.68054 15.4616 8.07107 15.0711C8.46159 14.6805 8.46159 14.0474 8.07107 13.6569L2.41421 8L8.07107 2.34314C8.46159 1.95262 8.46159 1.31946 8.07107 0.928931C7.68054 0.538407 7.04738 0.538407 6.65686 0.928931L0.292893 7.29289ZM21 7L1 7L1 9L21 9L21 7Z" fill="black"/>
</svg>
