<svg width="116" height="97" viewBox="0 0 116 97" fill="none" xmlns="http://www.w3.org/2000/svg">
<rect width="104" height="97" rx="10" fill="#F3F8FF"/>
<path d="M27.127 35.9863C27.2686 35.3594 27.3721 34.7217 27.5576 34.1074C28.8242 29.916 32.6475 27.0576 37.0293 27.0361C40.4932 27.0195 43.958 27.0312 47.4219 27.0332C48.1602 27.0332 48.5781 27.373 48.5938 27.9687C48.6094 28.5713 48.1553 28.9726 47.4229 28.9736C43.9912 28.9785 40.5586 28.958 37.127 28.9814C33.1963 29.0078 30.0244 31.6181 29.2315 35.4336C28.3213 39.8135 31.4668 44.292 35.9209 44.915C36.7012 45.0244 37.501 45.0205 38.292 45.0263C40.2832 45.041 42.2744 45.0263 44.2656 45.0371C44.5508 45.039 44.7236 44.9668 44.8965 44.7177C46.0986 42.9883 48.5439 42.9883 49.748 44.7129C49.9043 44.9365 50.0498 45.0381 50.3281 45.0371C55.8643 45.0273 61.4004 45.0508 66.9365 45.0195C70.7979 44.998 73.9531 42.3633 74.7461 38.584C75.6611 34.2207 72.5625 29.7695 68.125 29.0937C67.584 29.0117 67.0303 28.9814 66.4824 28.9804C63.2285 28.9707 59.9746 28.9765 56.7207 28.9726C56.5117 28.9726 56.2959 28.9668 56.0967 28.915C55.625 28.7929 55.3447 28.3652 55.3926 27.8896C55.4375 27.4443 55.79 27.0957 56.2559 27.0439C56.3838 27.0293 56.5146 27.0332 56.6436 27.0332C60.0107 27.0332 63.3779 27.0273 66.7451 27.0342C71.7236 27.0449 75.8145 30.4599 76.7178 35.3467C77.7168 40.7549 73.7422 46.1992 68.2959 46.8691C67.7354 46.9385 67.167 46.9687 66.6025 46.9687C61.374 46.9765 56.1455 46.9726 50.916 46.9726C50.7246 46.9726 50.5332 46.9726 50.3057 46.9726C50.3057 47.747 50.3057 48.4824 50.3057 49.2568C51.3154 49.0176 52.2441 49.1552 53.0742 49.8408C53.8057 49.2773 54.6172 49.0166 55.5264 49.1982C56.4365 49.3799 57.1025 49.9121 57.5518 50.7344C58.2529 50.4414 58.9463 50.3545 59.6602 50.5351C60.9844 50.8701 61.8916 51.9834 61.9023 53.3515C61.9189 55.3584 61.9561 57.3681 61.8867 59.373C61.7871 62.2422 60.7764 64.7939 59.0088 67.0566C58.8301 67.2861 58.7471 67.624 58.7109 67.9228C58.6611 68.3379 58.707 68.7636 58.6943 69.1836C58.665 70.1787 57.9268 70.957 56.9424 70.9619C53.3809 70.9765 49.8193 70.9765 46.2588 70.9629C45.2695 70.959 44.5273 70.1924 44.502 69.1943C44.4834 68.4824 44.5205 67.7685 44.4834 67.0586C44.4697 66.789 44.3789 66.4844 44.2236 66.2666C42.7451 64.2011 41.2441 62.1513 39.75 60.0967C38.9834 59.0429 38.7139 57.9072 39.2529 56.6728C40.0508 54.8457 42.3682 54.2607 43.9512 55.4697C44.0635 55.5556 44.1748 55.6416 44.3369 55.7656C44.3369 52.8193 44.3369 49.9326 44.3369 46.998C44.1572 46.9892 43.9863 46.9746 43.8164 46.9746C41.6152 46.9726 39.4131 46.9844 37.2119 46.9707C32.249 46.9414 28.1836 43.5459 27.2686 38.6787C27.2217 38.4287 27.1738 38.1787 27.127 37.9287C27.127 37.2812 27.127 36.6338 27.127 35.9863ZM56.7549 69.0088C56.7549 68.4765 56.7812 67.9922 56.748 67.5117C56.708 66.9404 56.9014 66.5029 57.2754 66.0664C59.0664 63.9756 60.0234 61.5683 59.9717 58.7812C59.9395 57.0342 59.9688 55.2861 59.9639 53.539C59.9619 52.8291 59.5664 52.4033 58.9277 52.3955C58.2695 52.3867 57.8545 52.8213 57.8379 53.5469C57.8272 54 57.8975 54.4678 57.8037 54.9004C57.7412 55.1904 57.5068 55.5488 57.2529 55.664C56.999 55.7793 56.541 55.7353 56.3271 55.5664C56.0898 55.3779 55.9297 54.9756 55.9102 54.6553C55.8545 53.7685 55.9004 52.876 55.8818 51.9863C55.8721 51.4931 55.5381 51.1543 55.0791 51.1074C54.5918 51.0576 54.2021 51.3408 54.0928 51.8408C54.0586 51.997 54.0557 52.1611 54.0557 52.3222C54.0518 53.1308 54.0518 53.9404 54.0537 54.749C54.0547 55.1767 53.8848 55.5039 53.4922 55.6894C52.8145 56.0097 52.1289 55.5371 52.1123 54.7217C52.0938 53.8154 52.1182 52.9092 52.0986 52.0039C52.0879 51.4873 51.7344 51.1318 51.2637 51.1006C50.7617 51.0674 50.3701 51.3916 50.292 51.917C50.2686 52.0761 50.2734 52.2392 50.2734 52.4013C50.2695 53.2099 50.2832 54.0195 50.2617 54.8281C50.2471 55.376 49.8652 55.7549 49.3555 55.7861C48.8633 55.8164 48.4404 55.4609 48.3506 54.9238C48.3213 54.75 48.3262 54.5693 48.3262 54.3916C48.3252 51.8515 48.3252 49.3105 48.3242 46.7705C48.3242 46.5927 48.3291 46.4131 48.3076 46.2373C48.2451 45.7392 47.8516 45.3926 47.3506 45.3818C46.8496 45.3701 46.4365 45.6953 46.3535 46.1894C46.3193 46.3955 46.3223 46.6084 46.3223 46.8183C46.3203 50.4912 46.3193 54.165 46.3232 57.8379C46.3242 58.3535 46.2461 58.8183 45.7051 59.04C45.1875 59.2519 44.8096 58.999 44.457 58.6465C43.9307 58.1211 43.3994 57.5976 42.8525 57.0937C42.4365 56.7099 41.9111 56.6758 41.4688 56.9629C41.0029 57.2656 40.8057 57.7793 40.9951 58.3135C41.085 58.5674 41.2285 58.8105 41.3877 59.0303C42.9316 61.167 44.4795 63.3017 46.04 65.4267C46.3223 65.8105 46.4648 66.2031 46.4492 66.6826C46.4248 67.4521 46.4424 68.2236 46.4424 69.0107C49.9014 69.0088 53.2949 69.0088 56.7549 69.0088Z" fill="#263238"/>
<path d="M54.3449 37.0349C54.3449 35.9342 54.3385 34.8325 54.3477 33.7317C54.3523 33.1393 54.7225 32.758 55.2583 32.7599C55.795 32.7617 56.146 33.1411 56.1634 33.739C56.1643 33.7692 56.1643 33.7994 56.1643 33.8295C56.1643 35.7687 56.1661 37.7078 56.1634 39.647C56.1625 40.2924 55.9211 40.6691 55.4311 40.8145C54.9941 40.9443 54.5991 40.766 54.2499 40.265C53.5239 39.2209 52.8035 38.1723 52.0803 37.1264C51.988 36.9929 51.8911 36.864 51.7101 36.6153C51.7101 37.5113 51.7101 38.2728 51.7101 39.0353C51.7101 39.3535 51.7183 39.6716 51.7064 39.9898C51.6863 40.5319 51.2923 40.9297 50.7949 40.926C50.2975 40.9223 49.909 40.5246 49.8934 39.9779C49.8797 39.5089 49.8898 39.039 49.8898 38.569C49.8898 37.0084 49.8889 35.4478 49.8907 33.8871C49.8916 33.2883 50.0946 32.9473 50.5279 32.8056C50.9567 32.6657 51.3261 32.8294 51.6689 33.324C52.5311 34.5674 53.3905 35.8135 54.2508 37.0587C54.2819 37.0505 54.3139 37.0422 54.3449 37.0349Z" fill="#263238"/>
<path d="M47.3626 37.7515C47.0216 37.7515 46.7483 37.7698 46.4785 37.7478C45.9227 37.7012 45.5762 37.3127 45.5981 36.7906C45.6191 36.2933 45.9803 35.9504 46.5288 35.9385C47.1496 35.9257 47.7713 35.9239 48.3912 35.9404C48.9397 35.955 49.3045 36.3152 49.3018 36.8656C49.2917 39.0049 48.0721 40.7374 45.9117 40.9212C43.893 41.0922 41.8744 39.4941 41.6193 37.4736C41.4026 35.7538 41.9905 34.355 43.4515 33.4124C44.8612 32.5028 46.3387 32.521 47.7896 33.3585C48.4104 33.7169 48.5192 34.388 48.0657 34.8414C47.7329 35.1742 47.3581 35.1925 46.8214 34.9018C45.834 34.3678 44.7671 34.5059 44.0274 35.2629C43.3454 35.9614 43.1936 37.0521 43.659 37.9115C44.1262 38.7745 45.098 39.2463 46.0251 39.057C46.7144 38.9144 47.1268 38.4811 47.3626 37.7515Z" fill="#263238"/>
<path d="M64.7334 35.9953C64.7334 36.6161 64.7197 37.2369 64.7361 37.8577C64.77 39.0773 64.2141 39.9467 63.1654 40.5108C62.0985 41.085 61.0133 41.096 59.9674 40.4688C59.0028 39.891 58.4826 39.0444 58.5046 37.8805C58.5293 36.5338 58.5073 35.1862 58.5119 33.8386C58.5137 33.1529 58.8392 32.7653 59.4005 32.7589C59.9738 32.7516 60.3285 33.1621 60.3313 33.8569C60.3358 35.189 60.3313 36.521 60.3331 37.8531C60.3349 38.5781 60.8551 39.0965 61.582 39.1065C62.3545 39.1166 62.9085 38.5891 62.9104 37.8321C62.9131 36.5 62.9076 35.1679 62.9131 33.8359C62.9149 33.2645 63.1627 32.8933 63.5942 32.7817C64.1647 32.6345 64.705 33.0222 64.7233 33.6338C64.7462 34.4201 64.7288 35.2082 64.7288 35.9953H64.7334Z" fill="#263238"/>
<path d="M35.6153 32.6602C36.493 32.7653 37.2463 33.0533 37.9183 33.5525C38.3736 33.8907 38.4595 34.4046 38.1624 34.8279C37.8625 35.2548 37.388 35.2978 36.8742 35.0509C36.4372 34.8407 35.9581 34.7053 35.4836 34.5975C35.3236 34.5609 35.0951 34.6706 34.9451 34.7794C34.6828 34.9696 34.7376 35.2731 35.0503 35.4066C35.5778 35.6324 36.1318 35.8024 36.642 36.0612C37.0946 36.2897 37.5599 36.5476 37.9174 36.8977C38.54 37.5057 38.6982 38.292 38.4184 39.1203C38.0947 40.0775 37.3771 40.6453 36.4125 40.8391C35.0923 41.1051 33.9258 40.7349 32.9539 39.7996C32.5087 39.3708 32.4831 38.8204 32.8643 38.4364C33.241 38.057 33.7475 38.0661 34.1964 38.4812C34.691 38.9393 35.2624 39.1687 35.9353 39.0727C36.2937 39.0215 36.6411 38.8707 36.6941 38.4684C36.7462 38.0753 36.3952 37.9363 36.1081 37.8111C35.5266 37.5578 34.9323 37.3329 34.3445 37.0952C33.5271 36.7652 33.0435 36.1691 32.9731 35.2859C32.8972 34.3323 33.2995 33.5863 34.1315 33.1447C34.584 32.9052 35.1179 32.8174 35.6153 32.6602Z" fill="#263238"/>
<path d="M67.4191 38.2361C67.4191 38.8861 67.4283 39.474 67.4164 40.06C67.4081 40.4705 67.2299 40.7896 66.8312 40.9505C66.4884 41.0895 66.1437 41.0437 65.9124 40.7731C65.7497 40.583 65.6162 40.2977 65.6135 40.0536C65.5906 37.9792 65.5952 35.9038 65.6034 33.8294C65.6061 33.1839 65.9472 32.8593 66.5945 32.852C67.1851 32.8456 67.7757 32.8411 68.3663 32.8539C69.8163 32.8859 70.982 34.0625 71.0002 35.5015C71.0185 36.9561 69.905 38.1565 68.4559 38.2324C68.1277 38.2507 67.7976 38.2361 67.4191 38.2361ZM67.4484 34.676C67.4484 35.2775 67.4484 35.8279 67.4484 36.4076C68.0317 36.3929 68.6698 36.6142 69.0245 35.9961C69.1553 35.7685 69.1599 35.3498 69.0346 35.1175C68.6945 34.484 68.0481 34.6979 67.4484 34.676Z" fill="#263238"/>
<path d="M39.2195 36.8392C39.2195 35.7786 39.2086 34.719 39.2241 33.6585C39.2305 33.1913 39.524 32.8549 39.9272 32.7735C40.3441 32.6885 40.7838 32.8969 40.9392 33.2827C41.0051 33.4464 41.0334 33.6356 41.0343 33.8139C41.0407 35.828 41.0435 37.8421 41.0352 39.8571C41.0325 40.5154 40.6567 40.9332 40.1128 40.9277C39.5669 40.9213 39.2214 40.5108 39.2168 39.8388C39.2104 38.8396 39.215 37.8394 39.215 36.8401L39.2195 36.8392Z" fill="#263238"/>
<path d="M52.0137 27.037C52.5439 27.0468 52.959 27.4667 52.959 27.9921C52.959 28.5263 52.4971 28.9804 51.9688 28.9657C51.4561 28.9511 51.0244 28.5097 51.0234 27.996C51.0225 27.4521 51.4609 27.0273 52.0137 27.037Z" fill="#263238"/>
<path fill-rule="evenodd" clip-rule="evenodd" d="M102.64 52.8601V77H97V84H102.64H110.32H116V77H110.32V42H104.44C104.06 42.96 103.42 43.91 102.52 44.85C101.62 45.77 100.64 46.5699 99.58 47.25C98.5199 47.9301 97.5599 48.36 96.7 48.54L97.36 55.02C98.36 54.8401 99.2899 54.5601 100.15 54.1799C101.03 53.8 101.86 53.3601 102.64 52.8601Z" fill="#E1EEFF"/>
</svg>
