<svg width="107" height="97" viewBox="0 0 107 97" fill="none" xmlns="http://www.w3.org/2000/svg">
<g clip-path="url(#clip0_7_324)">
<path d="M91 0H7C1.47715 0 -3 4.47715 -3 10V87C-3 92.5229 1.47715 97 7 97H91C96.5229 97 101 92.5229 101 87V10C101 4.47715 96.5229 0 91 0Z" fill="#F3F8FF"/>
<path d="M66.0625 26.8182H50.5423C50.0322 26.8182 49.5177 26.6857 49.0605 26.4375L42.091 22.636C41.3292 22.2192 40.4745 22 39.6221 22H32.9353C27.4586 22 23 26.864 23 32.8409V64.1591C23 70.136 27.4586 75 32.9375 75H39.5625C40.172 75 40.6667 74.4604 40.6667 73.7955C40.6667 73.1305 40.172 72.5909 39.5625 72.5909H32.9375C28.6754 72.5909 25.2083 68.8086 25.2083 64.1591V38.8636H73.7917V64.1591C73.7917 68.8086 70.3246 72.5909 66.0625 72.5909H59.4375C58.828 72.5909 58.3333 73.1305 58.3333 73.7955C58.3333 74.4604 58.828 75 59.4375 75H66.0625C71.5414 75 76 70.136 76 64.1591V37.6591C76 31.6821 71.5414 26.8182 66.0625 26.8182ZM25.2083 32.8409C25.2083 28.1914 28.6754 24.4091 32.9375 24.4091H39.6243C40.1345 24.4091 40.649 24.5416 41.1061 24.7897L48.0756 28.5913C48.8375 29.008 49.6921 29.2273 50.5445 29.2273H66.0647C69.9514 29.2273 73.1777 32.3735 73.7144 36.4545H25.2083V32.8409ZM58.139 67.4114L52.585 73.6027C51.7326 74.5326 50.6174 74.9976 49.5022 75H49.4956C48.3826 75 47.2696 74.5375 46.4216 73.6124L40.8588 67.4114C40.4326 66.9368 40.4414 66.1731 40.8765 65.7081C41.3137 65.248 42.0137 65.2528 42.4377 65.7274L47.9917 71.9188C48.1154 72.0537 48.2501 72.1669 48.3958 72.2609V49.7045C48.3958 49.0396 48.8905 48.5 49.5 48.5C50.1095 48.5 50.6042 49.0396 50.6042 49.7045V72.2585C50.7499 72.1621 50.889 72.0465 51.0171 71.9091L56.5622 65.7274C56.9885 65.2528 57.6885 65.248 58.1235 65.7081C58.5586 66.1731 58.5674 66.9368 58.1412 67.4114H58.139Z" fill="#263238"/>
<path d="M103.322 51.168H85.8261V60.402C86.5821 59.466 87.6621 58.71 89.0661 58.134C90.4701 57.522 91.9641 57.216 93.5481 57.216C96.4281 57.216 98.7861 57.846 100.622 59.106C102.458 60.366 103.79 61.986 104.618 63.966C105.446 65.91 105.86 67.998 105.86 70.23C105.86 74.37 104.672 77.7 102.296 80.22C99.9561 82.74 96.6081 84 92.2521 84C88.1481 84 84.8721 82.974 82.4241 80.922C79.9761 78.87 78.5901 76.188 78.2661 72.876H85.6101C85.9341 74.316 86.6541 75.468 87.7701 76.332C88.9221 77.196 90.3801 77.628 92.1441 77.628C94.2681 77.628 95.8701 76.962 96.9501 75.63C98.0301 74.298 98.5701 72.534 98.5701 70.338C98.5701 68.106 98.0121 66.414 96.8961 65.262C95.8161 64.074 94.2141 63.48 92.0901 63.48C90.5781 63.48 89.3181 63.858 88.3101 64.614C87.3021 65.37 86.5821 66.378 86.1501 67.638H78.9141V44.526H103.322V51.168Z" fill="#E1EEFF"/>
</g>
<defs>
<clipPath id="clip0_7_324">
<rect width="107" height="97" fill="white"/>
</clipPath>
</defs>
</svg>
