<svg width="107" height="97" viewBox="0 0 107 97" fill="none" xmlns="http://www.w3.org/2000/svg">
<rect width="104" height="97" rx="10" fill="#F3F8FF"/>
<path d="M36.5702 35.9404C36.5702 35.6621 36.5702 35.4443 36.5702 35.2256C36.5702 32.8174 36.5673 30.4102 36.5712 28.0019C36.5751 25.5166 38.0282 24.0605 40.5009 24.0605C50.5585 24.0596 60.6161 24.0596 70.6747 24.0605C73.0849 24.0605 74.5565 25.5205 74.5565 27.9297C74.5595 41.9697 74.5595 56.0098 74.5565 70.0498C74.5565 72.459 73.081 73.9375 70.6874 73.9385C58.6103 73.9395 46.5341 73.9404 34.4569 73.9385C31.9999 73.9385 30.1005 72.499 29.577 70.2217C29.4745 69.7754 29.4472 69.3037 29.4472 68.8438C29.4403 59.1748 29.4403 49.5059 29.4433 39.8369C29.4442 37.3984 30.9149 35.9424 33.3583 35.9395C34.3944 35.9395 35.4306 35.9404 36.5702 35.9404ZM38.3134 71.5518C38.6366 71.5518 38.8515 71.5518 39.0663 71.5518C49.5507 71.5518 60.0341 71.5518 70.5185 71.5508C70.7216 71.5508 70.9267 71.5527 71.1288 71.5313C71.7177 71.4697 72.1132 71.0791 72.1796 70.4951C72.1982 70.3301 72.1894 70.1621 72.1894 69.9951C72.1894 55.9912 72.1894 41.9883 72.1894 27.9844C72.1894 27.8174 72.2021 27.6484 72.1767 27.4853C72.0907 26.9355 71.7909 26.5684 71.2255 26.4746C70.9901 26.4355 70.747 26.4297 70.5067 26.4297C60.5595 26.4277 50.6132 26.4277 40.6659 26.4277C39.2558 26.4277 38.9501 26.7393 38.9501 28.1699C38.9501 41.0986 38.954 54.0283 38.9452 66.957C38.9442 68.4805 39.1659 70.0381 38.3134 71.5518ZM36.5702 38.3027C35.4765 38.3027 34.4784 38.3027 33.4804 38.3027C32.1649 38.3037 31.8319 38.6328 31.8319 39.9375C31.8319 49.5449 31.8319 59.1533 31.8319 68.7607C31.8319 68.9463 31.829 69.1309 31.8378 69.3164C31.8895 70.4717 32.7538 71.4082 33.872 71.5244C35.1112 71.6533 36.1815 70.9795 36.4687 69.8438C36.5624 69.4736 36.5663 69.0732 36.5663 68.6865C36.5712 58.8018 36.5702 48.916 36.5702 39.0313C36.5702 38.8125 36.5702 38.5947 36.5702 38.3027Z" fill="#263238"/>
<path d="M48.4334 41.9198C47.7361 41.8602 47.0193 41.8837 46.3455 41.7255C44.825 41.3671 43.7752 40.0331 43.7195 38.4735C43.6873 37.5682 43.6843 36.66 43.7205 35.7548C43.7957 33.8886 45.2986 32.4305 47.1765 32.3866C48.0271 32.3661 48.8787 32.3661 49.7293 32.3876C51.6414 32.4354 53.1482 33.9628 53.1843 35.8817C53.2 36.7137 53.2009 37.5468 53.1834 38.3788C53.1453 40.2714 51.6638 41.7772 49.7693 41.8544C49.3259 41.8729 48.8816 41.8573 48.4373 41.8573C48.4363 41.8778 48.4343 41.8993 48.4334 41.9198ZM46.071 37.0887C46.071 37.4589 46.0652 37.828 46.072 38.1971C46.0877 39.0438 46.53 39.4862 47.3855 39.4979C48.1062 39.5087 48.8269 39.5106 49.5476 39.497C50.3162 39.4823 50.78 39.0702 50.8123 38.3182C50.8464 37.5253 50.8445 36.7284 50.8132 35.9345C50.7849 35.2196 50.3611 34.7792 49.6687 34.7518C48.8572 34.7186 48.0418 34.7186 47.2302 34.7509C46.5144 34.7792 46.0964 35.2489 46.074 35.9794C46.0623 36.3495 46.072 36.7196 46.071 37.0887Z" fill="#263238"/>
<path d="M48.4736 44.2031C49.1709 44.2637 49.8877 44.2402 50.5606 44.4004C52.0938 44.7656 53.1494 46.1465 53.1816 47.7168C53.1992 48.5674 53.2002 49.4189 53.1816 50.2686C53.1397 52.1748 51.6094 53.6943 49.6963 53.7334C48.8643 53.75 48.0313 53.751 47.1992 53.7334C45.2998 53.6953 43.7871 52.2256 43.7178 50.3301C43.6846 49.4248 43.6836 48.5166 43.7207 47.6123C43.7959 45.792 45.2588 44.3486 47.0811 44.2686C47.543 44.248 48.0059 44.2656 48.4678 44.2656C48.4707 44.2451 48.4727 44.2246 48.4736 44.2031ZM48.4287 46.624C48.041 46.624 47.6523 46.6104 47.2647 46.627C46.5439 46.6582 46.0938 47.1025 46.0772 47.8213C46.0586 48.5967 46.0606 49.373 46.0772 50.1484C46.0918 50.875 46.5195 51.3359 47.2432 51.3652C48.0361 51.3975 48.832 51.3936 49.626 51.3682C50.333 51.3447 50.7764 50.9287 50.8106 50.2256C50.8496 49.415 50.8486 48.5996 50.8135 47.7881C50.7822 47.0586 50.3262 46.6504 49.5938 46.625C49.2041 46.6123 48.8164 46.624 48.4287 46.624Z" fill="#263238"/>
<path d="M47.3105 61.539C48.5068 60.3359 49.6924 59.1405 50.8808 57.9472C51.0244 57.8027 51.165 57.6523 51.3281 57.5321C51.8154 57.1737 52.4306 57.2245 52.8476 57.6415C53.2597 58.0536 53.3213 58.6855 52.9775 59.163C52.8486 59.3417 52.6845 59.496 52.5273 59.6523C51.1142 61.0683 49.7021 62.4843 48.2842 63.8964C47.5537 64.6239 46.9638 64.62 46.2265 63.8915C45.5283 63.2011 44.832 62.5087 44.1455 61.8085C43.5224 61.1738 43.4912 60.5458 44.0371 60.0107C44.581 59.4765 45.1924 59.5204 45.8379 60.1474C46.289 60.5859 46.7334 61.0321 47.1816 61.4745C47.1943 61.4862 47.2138 61.4911 47.3105 61.539Z" fill="#263238"/>
<path d="M61.4629 47.8124C59.9082 47.8124 58.3535 47.8192 56.7988 47.8095C55.9287 47.8046 55.4541 47.3114 55.5098 46.5077C55.5557 45.8466 56.001 45.4452 56.7471 45.4355C57.9316 45.4198 59.1162 45.4247 60.3008 45.4237C62.2627 45.4218 64.2246 45.411 66.1865 45.4286C67.2148 45.4384 67.7725 46.2089 67.4268 47.081C67.2022 47.6493 66.7451 47.8144 66.1826 47.8124C64.6094 47.8105 63.0361 47.8134 61.4629 47.8124Z" fill="#263238"/>
<path d="M61.5202 59.6847C59.9831 59.6847 58.447 59.6905 56.9098 59.6817C56.2048 59.6778 55.8054 59.42 55.6384 58.9063C55.3737 58.0948 55.8727 57.3575 56.7419 57.3106C57.2585 57.2823 57.778 57.3028 58.2966 57.3028C60.8337 57.3028 63.3698 57.2999 65.9069 57.3067C66.1628 57.3077 66.4294 57.3224 66.6725 57.3946C67.1979 57.5499 67.4655 58.0118 67.4255 58.6075C67.3884 59.1524 67.0515 59.5763 66.5153 59.6378C66.0026 59.6964 65.4811 59.6817 64.9636 59.6847C63.8161 59.6886 62.6677 59.6847 61.5202 59.6847Z" fill="#263238"/>
<path d="M61.4648 35.9395C59.9091 35.9395 58.3535 35.9522 56.7988 35.9346C55.8544 35.9239 55.3173 35.1612 55.625 34.3155C55.8046 33.8204 56.1728 33.584 56.6865 33.5752C57.3339 33.5645 57.9824 33.5664 58.6308 33.5664C61.1308 33.5655 63.6308 33.5606 66.1308 33.5694C67.041 33.5723 67.539 34.085 67.4531 34.8858C67.3818 35.5547 66.9482 35.9307 66.1884 35.9356C64.6123 35.9473 63.038 35.9395 61.4648 35.9395Z" fill="#263238"/>
<path d="M59.1456 38.3038C59.8858 38.3038 60.627 38.294 61.3673 38.3057C62.1993 38.3194 62.6798 38.7579 62.6876 39.4844C62.6954 40.212 62.2178 40.6768 61.3926 40.6856C59.8741 40.7002 58.3555 40.7022 56.838 40.6846C56.043 40.6748 55.5802 40.2188 55.5733 39.5108C55.5665 38.7803 56.0469 38.3223 56.8682 38.3067C57.627 38.292 58.3868 38.3038 59.1456 38.3038Z" fill="#263238"/>
<path d="M59.1855 52.5566C58.4268 52.5566 57.667 52.5693 56.9082 52.5527C56.0586 52.5342 55.6084 52.1094 55.6094 51.3672C55.6104 50.626 56.0791 50.1875 56.9121 50.1826C58.4121 50.1738 59.9121 50.1738 61.4111 50.1826C62.2236 50.1875 62.7246 50.6543 62.7227 51.3721C62.7217 52.0732 62.2559 52.5098 61.4619 52.5537C61.4248 52.5557 61.3877 52.5566 61.3506 52.5566C60.6299 52.5566 59.9072 52.5566 59.1855 52.5566Z" fill="#263238"/>
<path d="M59.1307 62.0644C59.9081 62.0644 60.6864 62.0546 61.4628 62.0673C62.2079 62.08 62.6727 62.5282 62.6893 63.2177C62.7069 63.9257 62.2362 64.412 61.4638 64.4208C59.9091 64.4374 58.3534 64.4374 56.7987 64.4208C56.0272 64.413 55.5565 63.9267 55.5722 63.2187C55.5888 62.5116 56.0653 62.0741 56.8524 62.0654C57.6122 62.0566 58.371 62.0634 59.1307 62.0644Z" fill="#263238"/>
<path d="M94.0944 84V74.4H73.1544L96.2544 42H101.474V68.16H106.874V74.4H101.474V84H94.0944ZM83.2344 70.68L81.7944 68.16H94.0944V50.28L96.0744 52.44L83.2344 70.68Z" fill="#E1EEFF"/>
</svg>
