<svg width="110" height="97" viewBox="0 0 110 97" fill="none" xmlns="http://www.w3.org/2000/svg">
<rect width="104" height="97" rx="10" fill="#FFF3E6"/>
<g clip-path="url(#clip0_241_40)">
<mask id="mask0_241_40" style="mask-type:luminance" maskUnits="userSpaceOnUse" x="27" y="24" width="50" height="50">
<path d="M77 24H27V74H77V24Z" fill="white"/>
</mask>
<g mask="url(#mask0_241_40)">
<path d="M27.0928 68.8446C27.0928 58.5673 27.0928 48.2899 27.0928 38.0116C27.125 37.9042 27.166 37.7987 27.1885 37.6893C27.5439 35.9628 28.459 34.6298 29.9717 33.7147C30.956 33.12 32.0322 32.8778 33.1729 32.8798C34.0586 32.8817 34.9443 32.8798 35.875 32.8798C35.875 31.8632 35.8613 30.91 35.8779 29.9579C35.9326 26.7206 38.4609 24.1161 41.6289 24.1102C51.4688 24.0917 61.3086 24.0927 71.1484 24.1102C74.2803 24.1161 76.8867 26.7216 76.8926 29.8554C76.9111 39.6932 76.9102 49.5311 76.8926 59.369C76.8877 62.2997 74.5908 64.787 71.6699 65.0575C70.6729 65.1503 69.6621 65.1044 68.6582 65.1229C68.4873 65.1259 68.3164 65.1376 68.1191 65.1464C68.1191 66.1249 68.1367 67.0477 68.1162 67.9696C68.0645 70.2792 67.0586 72.0546 65.0322 73.1766C64.4092 73.5214 63.6738 73.6649 62.9902 73.9003C52.7432 73.9003 42.4961 73.9003 32.249 73.9003C32.1582 73.871 32.0693 73.8309 31.9756 73.8143C30.377 73.5253 29.0469 72.7528 28.1807 71.3856C27.6934 70.619 27.4482 69.6971 27.0928 68.8446ZM56.375 27.0282C51.5762 27.0282 46.7773 27.0272 41.9775 27.0292C40.0371 27.0301 38.8135 28.2372 38.8125 30.1825C38.8066 39.7948 38.8076 49.4071 38.8125 59.0194C38.8135 60.9696 40.0186 62.1835 41.9639 62.1854C51.5781 62.1913 61.1924 62.1913 70.8066 62.1854C72.7783 62.1845 73.9756 60.9618 73.9756 58.9843C73.9766 49.4042 73.9766 39.8241 73.9756 30.244C73.9756 28.2391 72.7686 27.0292 70.7715 27.0292C65.9727 27.0282 61.1738 27.0282 56.375 27.0282ZM35.875 35.8173C35.5908 35.8173 35.3516 35.8173 35.1123 35.8173C34.4316 35.8173 33.75 35.8055 33.0703 35.8202C31.2148 35.8612 30.0195 37.0819 30.0195 38.9413C30.0166 48.5194 30.0185 58.0975 30.0185 67.6747C30.0185 69.8036 31.1953 70.9755 33.331 70.9755C42.084 70.9755 50.8369 70.9755 59.5898 70.9755C60.4814 70.9755 61.373 70.9872 62.2646 70.9716C63.5879 70.9491 64.7939 70.1376 65.0205 68.8661C65.2353 67.6581 65.1768 66.4012 65.2402 65.1229C64.9014 65.1229 64.6924 65.1229 64.4844 65.1229C57.0283 65.1229 49.5713 65.1259 42.1152 65.1171C41.5996 65.1161 41.0723 65.0897 40.5713 64.9804C37.7129 64.3554 35.8789 62.036 35.877 59.0614C35.8721 51.5419 35.875 44.0223 35.875 36.5018C35.875 36.2958 35.875 36.0868 35.875 35.8173Z" fill="#263238"/>
<path d="M54.9132 46.2205C56.758 44.3748 58.5343 42.5769 60.3419 40.8103C60.6125 40.5457 61.006 40.3328 61.3751 40.2576C62.0001 40.1306 62.5451 40.4695 62.8146 41.0154C63.1037 41.6004 63.0285 42.1531 62.6105 42.6424C62.3478 42.95 62.046 43.2234 61.7599 43.5096C59.9044 45.367 58.049 47.2234 56.1916 49.0789C55.3078 49.9617 54.5539 49.9637 53.6798 49.0906C52.5675 47.9793 51.4542 46.8699 50.3458 45.7556C49.674 45.0808 49.6251 44.2019 50.2169 43.5926C50.8166 42.9754 51.7287 43.0096 52.4142 43.6922C53.2394 44.5135 54.0529 45.3484 54.9132 46.2205Z" fill="#263238"/>
</g>
</g>
<path d="M94.5163 84.8399C91.9963 84.8399 89.7063 84.5499 87.6463 83.9699C85.5863 83.3699 83.9363 82.7599 82.6963 82.1399L84.5563 75.6599C85.8763 76.3199 87.3963 76.9199 89.1163 77.4599C90.8363 77.9799 92.6363 78.2399 94.5163 78.2399C96.7163 78.2399 98.4763 77.7399 99.7963 76.7399C101.116 75.7199 101.776 74.1599 101.776 72.0599C101.776 69.9599 101.126 68.3799 99.8263 67.3199C98.5463 66.2399 96.6163 65.6999 94.0363 65.6999H89.7763V58.4999H93.9763C96.1363 58.4999 97.7863 57.9999 98.9263 56.9999C100.066 55.9999 100.636 54.6199 100.636 52.8599C100.636 51.3199 100.106 50.0899 99.0463 49.1699C98.0063 48.2299 96.4963 47.7599 94.5163 47.7599C92.8163 47.7599 91.2063 48.0199 89.6863 48.5399C88.1863 49.0599 86.6963 49.7399 85.2163 50.5799L84.0763 43.7999C85.4563 43.0799 87.0963 42.4599 88.9963 41.9399C90.9163 41.4199 93.0163 41.1599 95.2963 41.1599C98.0363 41.1599 100.346 41.6299 102.226 42.5699C104.106 43.4899 105.526 44.7599 106.486 46.3799C107.466 47.9999 107.956 49.8399 107.956 51.8999C107.956 54.5999 107.236 56.8899 105.796 58.7699C104.356 60.6499 102.316 61.9199 99.6763 62.5799L99.6163 61.1999C102.536 61.6799 104.906 62.8499 106.726 64.7099C108.546 66.5699 109.456 69.0199 109.456 72.0599C109.456 74.7999 108.826 77.1199 107.566 79.0199C106.326 80.9199 104.586 82.3699 102.346 83.3699C100.106 84.3499 97.4963 84.8399 94.5163 84.8399Z" fill="#FFE7CC"/>
<defs>
<clipPath id="clip0_241_40">
<rect width="50" height="50" fill="white" transform="translate(27 24)"/>
</clipPath>
</defs>
</svg>
