<svg width="115" height="97" viewBox="0 0 115 97" fill="none" xmlns="http://www.w3.org/2000/svg">
<rect width="104" height="97" rx="10" fill="#FFF3E6"/>
<g clip-path="url(#clip0_241_39)">
<mask id="mask0_241_39" style="mask-type:luminance" maskUnits="userSpaceOnUse" x="27" y="24" width="50" height="50">
<path d="M77 24H27V74H77V24Z" fill="white"/>
</mask>
<g mask="url(#mask0_241_39)">
<path d="M35.6229 54.4659C36.6698 53.5548 37.6903 52.6544 38.7245 51.7696C39.9471 50.7247 41.3329 49.9698 42.8729 49.504C43.1288 49.4269 43.2635 49.3448 43.2772 49.0235C43.5096 43.296 45.9198 38.7647 50.7235 35.5616C50.7499 35.544 50.7723 35.5196 50.829 35.4689C50.2147 34.6593 49.9755 33.7501 50.2655 32.7501C50.5585 31.7413 51.246 31.0978 52.2587 30.7403C52.1884 30.5929 52.1366 30.4649 52.0692 30.3448C51.3456 29.0421 50.6171 27.7433 49.8964 26.4386C49.4432 25.6183 49.6825 25.0333 50.5858 24.7823C52.0262 24.3829 53.4843 24.1378 54.9911 24.1339C57.0536 24.129 59.1044 24.1407 61.1073 24.7315C62.1571 25.0411 62.4032 25.5743 61.8749 26.5284C61.1073 27.9161 60.3358 29.3009 59.5477 30.7198C60.536 31.0841 61.2489 31.7052 61.5487 32.7101C61.8475 33.713 61.6327 34.631 61.0116 35.4425C65.7626 38.6446 68.1903 43.1388 68.6102 48.8302C68.6981 48.7843 68.8065 48.7394 68.9042 48.6759C69.6796 48.1739 70.4374 47.6437 71.2294 47.17C73.2577 45.9562 75.8856 46.8146 76.6444 49.0343C77.1376 50.4776 76.9374 52.0089 75.6747 53.1788C73.2723 55.4044 70.8934 57.6544 68.5038 59.8937C67.0487 61.2569 65.5848 62.6105 64.1425 63.9874C63.0673 65.0147 61.8104 65.5021 60.3202 65.4952C55.9589 65.4767 51.5985 65.4884 47.2372 65.4884C47.0653 65.4884 46.8944 65.4884 46.7811 65.4884C46.9091 65.8663 47.1669 66.2403 47.1102 66.5597C47.0477 66.9151 46.743 67.2628 46.4686 67.5411C44.5555 69.4796 42.6249 71.4005 40.6981 73.3253C39.9755 74.047 39.5458 74.0431 38.8134 73.3116C35.0878 69.586 31.3622 65.8605 27.6366 62.1349C26.9276 61.4259 26.9266 60.9933 27.6327 60.2872C29.535 58.3839 31.4374 56.4815 33.3407 54.5782C34.3495 53.5733 34.4843 53.5655 35.6229 54.4659ZM36.9852 55.8517C37.0731 55.9552 37.119 56.0177 37.1737 56.0733C39.5917 58.4933 42.0057 60.9161 44.4374 63.3214C44.5829 63.4659 44.8632 63.5362 45.0809 63.5372C50.1708 63.5489 55.2616 63.5392 60.3514 63.5528C61.3153 63.5558 62.1083 63.2423 62.8046 62.5792C64.4598 61.003 66.1366 59.4493 67.8046 57.8868C69.9579 55.8692 72.1083 53.8497 74.2645 51.837C74.7987 51.338 75.0966 50.756 74.9374 50.0177C74.6561 48.7052 73.2528 48.1681 72.08 48.9337C69.0956 50.881 66.121 52.8448 63.1346 54.7901C62.8212 54.9942 62.6845 55.1896 62.703 55.5968C62.7968 57.6925 61.2469 59.5353 59.1766 59.6212C56.7811 59.7198 54.3798 59.6583 51.9803 59.6466C51.4491 59.6437 51.0634 59.211 51.0516 58.7062C51.0389 58.1827 51.4335 57.7608 51.9852 57.7169C52.1307 57.7052 52.2772 57.712 52.4227 57.712C54.5136 57.712 56.6054 57.7149 58.6962 57.7101C59.912 57.7071 60.785 56.8751 60.7743 55.7442C60.7636 54.631 59.9022 53.8263 58.704 53.8214C57.5526 53.8165 56.4003 53.7784 55.2518 53.8321C54.1561 53.8829 53.2596 53.5294 52.3759 52.8917C49.4452 50.7794 46.2499 50.3448 42.8387 51.5685C40.4667 52.4161 38.8837 54.3224 36.9852 55.8517ZM61.8436 53.3146C63.2411 52.3985 64.5497 51.4972 65.9042 50.673C66.4364 50.3487 66.6132 49.9601 66.6102 49.379C66.5917 44.7257 64.7909 40.8897 61.1825 37.9884C57.7792 35.2511 53.7743 35.3683 50.413 38.1554C47.9481 40.1993 46.3759 42.8185 45.6102 45.9093C45.3641 46.9015 45.2811 47.9347 45.1307 48.9015C46.2684 48.9737 47.2743 48.9767 48.2616 49.1144C50.3427 49.4044 52.1981 50.2579 53.8553 51.545C54.1708 51.7901 54.4999 51.9591 54.9237 51.8272C54.9237 51.4552 54.9237 51.1017 54.9237 50.7726C54.619 50.6036 54.3212 50.4688 54.0585 50.2843C53.7948 50.0997 53.5497 49.881 53.3261 49.6485C52.83 49.1319 52.8055 48.5587 53.2382 48.1466C53.6659 47.7394 54.2108 47.8175 54.7362 48.3009C55.0038 48.547 55.3182 48.7784 55.6532 48.9054C56.162 49.0978 56.7177 48.7384 56.8544 48.2101C56.9872 47.6954 56.6434 47.1476 56.1044 47.0333C55.9637 47.003 55.8143 47.0138 55.6688 47.0011C54.494 46.8985 53.4794 46.086 53.1268 44.9659C52.7723 43.8419 53.0858 42.5099 54.0692 41.8761C54.7714 41.4239 55.0419 40.9571 54.9618 40.1485C54.911 39.63 55.3925 39.2374 55.8983 39.2306C56.4208 39.2237 56.8397 39.6212 56.8778 40.1739C56.8934 40.3995 56.8993 40.629 56.8798 40.8546C56.8514 41.1778 56.9384 41.3653 57.2714 41.5108C57.6337 41.67 57.9628 41.9308 58.2636 42.1974C58.6971 42.5821 58.7255 43.1329 58.3817 43.544C58.0262 43.9698 57.4755 44.0118 56.9921 43.6515C56.8241 43.5255 56.663 43.3858 56.4823 43.2823C56.0809 43.0528 55.6718 43.0421 55.3036 43.3468C54.9755 43.6192 54.8514 43.9786 54.997 44.3927C55.1552 44.8419 55.496 45.0372 55.9637 45.0675C57.4218 45.1622 58.4677 46.0392 58.7626 47.3966C59.0458 48.7003 58.4296 49.9269 57.1552 50.6231C57.0458 50.6827 56.9091 50.8048 56.8973 50.9103C56.8632 51.2228 56.8846 51.5411 56.8846 51.8888C58.7294 51.8399 60.5448 51.6632 61.8436 53.3146ZM34.5341 56.3263C32.8895 57.9659 31.2323 59.6192 29.6307 61.2169C32.9999 64.588 36.4071 67.9972 39.7704 71.3624C41.3973 69.7442 43.0585 68.0938 44.6864 66.4747C41.2977 63.089 37.8905 59.6817 34.5341 56.3263ZM52.1112 26.4122C52.8104 27.671 53.4862 28.9005 54.1845 30.1173C54.2391 30.213 54.454 30.2579 54.5927 30.255C55.077 30.2472 55.5604 30.1925 56.0448 30.1866C56.5555 30.1798 57.1786 30.3937 57.5468 30.171C57.9452 29.9298 58.1073 29.297 58.368 28.8321C58.8143 28.0353 59.2567 27.2364 59.7196 26.4054C57.1542 25.8673 54.6581 25.8556 52.1112 26.4122ZM55.9384 32.003C54.8798 32.211 53.829 32.3849 52.7968 32.6339C52.2304 32.7706 51.9745 33.3351 52.1356 33.8595C52.2889 34.3605 52.7723 34.5997 53.3397 34.4386C55.0663 33.9483 56.786 33.9659 58.5194 34.4298C58.786 34.5011 59.1844 34.4278 59.4022 34.2628C60.0057 33.8048 59.7782 32.8321 59.0028 32.629C58.0048 32.3692 56.9813 32.211 55.9384 32.003Z" fill="#263238"/>
<path d="M49.0984 58.7043C49.0848 59.2404 48.615 59.6769 48.0818 59.6496C47.5652 59.6232 47.1482 59.174 47.1609 58.6574C47.1736 58.1203 47.6414 57.6857 48.1775 57.7121C48.6941 57.7394 49.1121 58.1886 49.0984 58.7043Z" fill="#263238"/>
</g>
</g>
<path d="M88.64 84L99.68 67.02C101.14 64.78 102.31 62.89 103.19 61.35C104.09 59.81 104.74 58.46 105.14 57.3C105.54 56.14 105.74 55 105.74 53.88C105.74 52.16 105.25 50.81 104.27 49.83C103.31 48.85 101.96 48.36 100.22 48.36C98.12 48.36 96.23 48.88 94.55 49.92C92.89 50.96 91.4 52.14 90.08 53.46L89.12 45.72C90.92 44.28 92.83 43.16 94.85 42.36C96.89 41.56 99.2 41.16 101.78 41.16C104.32 41.16 106.43 41.68 108.11 42.72C109.81 43.76 111.08 45.14 111.92 46.86C112.76 48.58 113.18 50.46 113.18 52.5C113.18 54.08 112.96 55.67 112.52 57.27C112.08 58.85 111.35 60.61 110.33 62.55C109.33 64.47 107.98 66.72 106.28 69.3L101.36 76.8H114.68V84H88.64Z" fill="#FFE7CC"/>
<defs>
<clipPath id="clip0_241_39">
<rect width="50" height="50" fill="white" transform="translate(27 24)"/>
</clipPath>
</defs>
</svg>
