<svg width="115" height="97" viewBox="0 0 115 97" fill="none" xmlns="http://www.w3.org/2000/svg">
<g clip-path="url(#clip0_488_74)">
<path d="M94 0H10C4.47715 0 0 4.47715 0 10V87C0 92.5229 4.47715 97 10 97H94C99.5229 97 104 92.5229 104 87V10C104 4.47715 99.5229 0 94 0Z" fill="#FFF3E6"/>
<path d="M88.64 84.0002L99.68 67.0202C101.14 64.7802 102.31 62.8902 103.19 61.3502C104.09 59.8102 104.74 58.4602 105.14 57.3002C105.54 56.1402 105.74 55.0002 105.74 53.8802C105.74 52.1602 105.25 50.8102 104.27 49.8302C103.31 48.8502 101.96 48.3602 100.22 48.3602C98.12 48.3602 96.23 48.8802 94.55 49.9202C92.89 50.9602 91.4 52.1402 90.08 53.4602L89.12 45.7202C90.92 44.2802 92.83 43.1602 94.85 42.3602C96.89 41.5602 99.2 41.1602 101.78 41.1602C104.32 41.1602 106.43 41.6802 108.11 42.7202C109.81 43.7602 111.08 45.1402 111.92 46.8602C112.76 48.5802 113.18 50.4602 113.18 52.5002C113.18 54.0802 112.96 55.6702 112.52 57.2702C112.08 58.8502 111.35 60.6102 110.33 62.5502C109.33 64.4702 107.98 66.7202 106.28 69.3002L101.36 76.8002H114.68V84.0002H88.64Z" fill="#FFE7CC"/>
<g clip-path="url(#clip1_488_74)">
<path d="M59.3266 74C58.6192 73.8719 57.905 73.777 57.2065 73.6107C53.4532 72.7186 50.5199 70.6585 48.384 67.4892C48.1703 67.1723 47.9586 67.0373 47.5619 67.0392C43.3317 67.0549 39.1015 67.0539 34.8713 67.0471C32.2378 67.0422 30.1128 65.6179 29.3313 63.2859C29.1275 62.6794 29.0167 62.0133 29.0157 61.3745C28.9969 50.814 28.9959 40.2545 29.0068 29.694C29.0108 26.4533 31.4889 24.0147 34.7625 24.0078C40.3094 23.9961 45.8564 24.0068 51.4033 24C51.9 24 52.2838 24.1682 52.6241 24.5214C56.0817 28.1191 59.5442 31.712 63.0107 35.3029C63.3371 35.6414 63.4786 36.0239 63.4776 36.4905C63.4697 39.3546 63.4737 42.2177 63.4737 45.0819V45.5749C64.4273 45.9045 65.3682 46.153 66.2427 46.5452C70.9171 48.6405 73.8919 52.1796 74.7555 57.1732C75.7191 62.744 73.8335 67.3972 69.3787 70.9637C67.1617 72.7381 64.5797 73.688 61.7355 73.9345C61.6563 73.9413 61.5792 73.9775 61.502 74H59.3285H59.3266ZM50.6178 26.1109C50.42 26.0982 50.2914 26.0816 50.1628 26.0816C45.0758 26.0806 39.9889 26.0777 34.902 26.0865C34.528 26.0865 34.1412 26.1246 33.7811 26.2215C32.0894 26.6763 31.1081 27.9998 31.1061 29.8642C31.0982 40.3122 31.0962 50.7602 31.1189 61.2083C31.1199 61.8069 31.2505 62.4554 31.5087 62.9934C32.1953 64.4294 33.4586 64.9674 35.0177 64.9645C38.8374 64.9557 42.656 64.9616 46.4757 64.9616C46.636 64.9616 46.7952 64.9616 47.0327 64.9616C45.9326 62.1121 45.7238 59.2675 46.3985 56.3212C46.1838 56.3212 46.0048 56.3212 45.8267 56.3212C43.1764 56.3212 40.5261 56.3232 37.8758 56.3173C37.6483 56.3173 37.4118 56.2987 37.1952 56.2361C36.7262 56.1021 36.4581 55.6786 36.4938 55.1895C36.5274 54.7317 36.8509 54.358 37.3119 54.2798C37.5375 54.2416 37.7709 54.2387 38.0004 54.2387C40.8813 54.2357 43.7621 54.2318 46.6429 54.2445C46.9703 54.2465 47.1276 54.1428 47.279 53.8543C47.6945 53.0629 48.1604 52.297 48.6086 51.5213C48.6937 51.3736 48.7857 51.2298 48.9232 51.0038C48.6264 51.0038 48.4315 51.0038 48.2366 51.0038C44.8285 51.0038 41.4214 51.0038 38.0133 51.0019C37.7838 51.0019 37.5513 50.995 37.3257 50.9559C36.8351 50.8718 36.5106 50.4912 36.4898 50.01C36.468 49.5179 36.746 49.113 37.2298 48.9897C37.4642 48.9301 37.7165 48.9144 37.9609 48.9144C42.0595 48.9105 46.1591 48.9056 50.2577 48.9193C50.7089 48.9203 51.0591 48.8137 51.4182 48.5261C53.4294 46.9189 55.7236 45.9045 58.2809 45.5269C59.2801 45.3792 60.3 45.3636 61.3319 45.2863V37.2398C61.1201 37.2398 60.9421 37.2398 60.764 37.2398C59.0189 37.2398 57.2738 37.2505 55.5287 37.2368C52.5667 37.2133 50.6267 35.2785 50.6159 32.3547C50.6129 31.5408 50.6159 30.727 50.6159 29.9131C50.6159 28.662 50.6159 27.4109 50.6159 26.108L50.6178 26.1109ZM60.5147 71.9302C67.3289 71.9174 72.8749 66.4269 72.8808 59.6872C72.8868 52.9299 67.2943 47.409 60.4761 47.4413C53.649 47.4735 48.1001 52.9846 48.1318 59.7009C48.1634 66.4562 53.7183 71.9419 60.5147 71.9302ZM52.7181 27.6643C52.7181 29.4417 52.6845 31.0674 52.728 32.6902C52.7666 34.1233 53.8568 35.1259 55.3209 35.1435C56.5862 35.1592 57.8525 35.1474 59.1178 35.1474C59.3394 35.1474 59.561 35.1474 59.9083 35.1474C57.4805 32.6208 55.1468 30.1919 52.7181 27.6643Z" fill="#263238"/>
<path d="M42.8639 43.7074C44.6071 43.7074 46.3512 43.6947 48.0943 43.7132C49.0035 43.723 49.512 44.5251 49.0965 45.2431C48.8442 45.6794 48.4317 45.7831 47.9608 45.7821C45.8555 45.7782 43.7503 45.7802 41.6441 45.7802C40.3284 45.7802 39.0126 45.785 37.6969 45.7782C37.0429 45.7753 36.6136 45.4701 36.5117 44.9653C36.3702 44.2561 36.8293 43.7191 37.6316 43.7113C39.2105 43.6966 40.7894 43.7064 42.3683 43.7054C42.5325 43.7054 42.6977 43.7054 42.862 43.7054L42.8639 43.7074Z" fill="#263238"/>
<path d="M61.5823 55.5162V56.0454C61.5823 59.4631 61.5843 62.88 61.5793 66.2977C61.5793 66.5393 61.5605 66.7878 61.5012 67.0206C61.3874 67.4657 60.9719 67.7562 60.5129 67.7533C60.035 67.7503 59.6205 67.4324 59.5236 66.9619C59.4751 66.7252 59.4622 66.4787 59.4612 66.2361C59.4573 62.835 59.4583 59.4338 59.4583 56.0326C59.4583 55.8585 59.4583 55.6844 59.4583 55.5113C59.4197 55.4888 59.3801 55.4653 59.3415 55.4428C59.2307 55.5719 59.1239 55.7059 59.0072 55.8302C57.7953 57.1155 56.5824 58.4008 55.3656 59.6823C55.2093 59.8466 55.0391 60.008 54.8482 60.1293C54.4505 60.3826 53.9093 60.3083 53.5799 59.9835C53.2465 59.6559 53.1763 59.1325 53.4285 58.7285C53.5225 58.5779 53.6422 58.44 53.7649 58.3099C55.6822 56.2723 57.5994 54.2347 59.5206 52.2011C60.1943 51.487 60.7701 51.4851 61.4428 52.1952C63.3887 54.2504 65.3307 56.3095 67.2746 58.3666C67.6051 58.7158 67.8405 59.0924 67.6437 59.5952C67.4953 59.9747 67.2242 60.2066 66.8117 60.2662C66.3516 60.3328 66.0301 60.097 65.7403 59.7889C64.5086 58.4762 63.2769 57.1644 62.0472 55.8517C61.9265 55.7235 61.8167 55.5846 61.703 55.4516C61.6624 55.4731 61.6218 55.4946 61.5813 55.5162H61.5823Z" fill="#263238"/>
</g>
</g>
<defs>
<clipPath id="clip0_488_74">
<rect width="115" height="97" fill="white"/>
</clipPath>
<clipPath id="clip1_488_74">
<rect width="46" height="50" fill="white" transform="translate(29 24)"/>
</clipPath>
</defs>
</svg>
