<svg width="150" height="150" viewBox="0 0 150 150" fill="none" xmlns="http://www.w3.org/2000/svg">
<path d="M75.0163 130.019C51.4215 130.019 27.8285 130.019 4.2337 130.019C4.17148 130.019 4.10738 130.016 4.04516 130.019C0.594738 130.293 -1.01169 128.041 0.673928 124.444C4.85591 115.526 9.42064 106.786 13.7968 97.9587C14.1343 97.2762 14.5793 97.2234 15.2109 97.2234C40.9722 97.2366 66.7353 97.2384 92.4965 97.2384C106.634 97.2384 120.771 97.2403 134.91 97.2158C135.64 97.2158 136.008 97.4213 136.338 98.085C140.718 106.911 145.135 115.72 149.538 124.534C150.201 125.862 150.105 127.263 149.536 128.532C149.276 129.112 148.491 129.557 147.845 129.835C147.3 130.068 146.612 130.014 145.987 130.014C122.33 130.021 98.6734 130.019 75.0163 130.019ZM75.0427 115.367C96.2468 115.367 117.453 115.367 138.657 115.367C140.129 115.367 140.231 115.194 139.566 113.861C137.475 109.679 135.361 105.51 133.315 101.305C132.898 100.448 132.414 100.138 131.452 100.14C116.531 100.172 101.609 100.163 86.6874 100.163C63.975 100.163 41.2625 100.167 18.5501 100.142C17.6734 100.142 17.2001 100.404 16.8117 101.202C14.8188 105.291 12.7636 109.351 10.731 113.421C10.5915 113.702 10.4407 113.978 10.3144 114.266C9.98063 115.028 10.1541 115.322 10.9573 115.365C11.2081 115.379 11.4607 115.369 11.7115 115.369C32.8232 115.369 53.9329 115.369 75.0446 115.369L75.0427 115.367ZM75.0389 124.163C80.6614 124.163 86.282 124.163 91.9045 124.163C93.4185 124.163 93.7127 123.818 93.4638 122.368C93.279 121.286 93.098 120.202 92.9189 119.119C92.6304 117.379 92.3438 117.13 90.5847 117.13C80.5351 117.13 70.4836 117.13 60.434 117.13C59.9005 117.13 59.365 117.115 58.8333 117.136C57.9697 117.168 57.4286 117.579 57.2853 118.471C57.076 119.772 56.8422 121.069 56.6197 122.368C56.369 123.826 56.6574 124.163 58.1752 124.163C63.7977 124.163 69.4183 124.163 75.0408 124.163H75.0389Z" fill="#3A86FF"/>
<path d="M14.1758 94.8515C14.1758 94.4517 14.1758 94.1142 14.1758 93.7767C14.1758 70.9059 14.1758 48.0332 14.1758 25.1624C14.1777 21.9307 16.1065 20 19.3344 20C56.4707 20 93.6052 20 130.741 20C133.956 20 135.902 21.9496 135.902 25.1624C135.902 48.0031 135.902 70.8418 135.902 93.6825C135.902 94.0501 135.902 94.4197 135.902 94.8496H14.1758V94.8515ZM131.153 24.7457H18.9441V90.1547H131.151V24.7457H131.153Z" fill="#3A86FF"/>
<path d="M92.4401 110.72C92.54 111.881 92.6362 112.992 92.738 114.162H57.3477C57.4419 113.01 57.5343 111.881 57.6286 110.72H92.4401Z" fill="#3A86FF"/>
<path d="M66.5107 109.456V106.053H74.392V109.456H66.5107Z" fill="#3A86FF"/>
<path d="M75.6572 106.044H83.5498V109.468H75.6572V106.044Z" fill="#3A86FF"/>
<path d="M11.6132 114.213C12.1845 113.071 12.6483 112.079 13.18 111.123C13.2988 110.91 13.6495 110.703 13.8946 110.699C16.2496 110.667 18.6046 110.68 21.133 110.68C20.6503 111.838 20.2242 112.901 19.7528 113.944C19.6887 114.085 19.4021 114.2 19.2173 114.2C16.7379 114.217 14.2604 114.212 11.6113 114.212L11.6132 114.213Z" fill="#3A86FF"/>
<path d="M128.964 110.682C131.492 110.682 133.849 110.673 136.202 110.697C136.43 110.699 136.762 110.867 136.866 111.055C137.403 112.039 137.882 113.058 138.457 114.213C136.266 114.213 134.213 114.213 132.158 114.213C130.991 114.213 130.189 113.687 129.75 112.633C129.501 112.032 129.262 111.425 128.962 110.68L128.964 110.682Z" fill="#3A86FF"/>
<path d="M101.86 114.18H93.9106C93.8163 113.046 93.724 111.938 93.624 110.752H101.256C101.445 111.821 101.643 112.945 101.86 114.18Z" fill="#3A86FF"/>
<path d="M48.2314 114.149C48.4313 112.976 48.6199 111.87 48.8141 110.729H56.4351C56.3541 111.872 56.2749 112.978 56.1919 114.149H48.2333H48.2314Z" fill="#3A86FF"/>
<path d="M103.015 114.172C102.827 113.014 102.647 111.911 102.457 110.737H110.078C110.357 111.83 110.646 112.965 110.953 114.172H103.017H103.015Z" fill="#3A86FF"/>
<path d="M38.8023 110.682C38.4855 111.949 38.2065 113.065 37.9274 114.179H30.0254C30.3931 113.078 30.7192 112.038 31.102 111.016C31.1623 110.855 31.4753 110.697 31.6733 110.695C33.9924 110.672 36.3116 110.68 38.8023 110.68V110.682Z" fill="#3A86FF"/>
<path d="M111.281 110.684C113.768 110.684 116.146 110.674 118.525 110.703C118.697 110.705 118.955 110.944 119.023 111.129C119.379 112.096 119.689 113.08 120.066 114.215C118.716 114.215 117.481 114.215 116.244 114.215C115.08 114.215 113.917 114.238 112.756 114.196C112.512 114.187 112.122 113.989 112.064 113.797C111.766 112.814 111.553 111.806 111.281 110.684Z" fill="#3A86FF"/>
<path d="M39.1357 114.164C39.428 112.99 39.7052 111.872 39.988 110.723H47.6185C47.4337 111.877 47.2546 112.997 47.0679 114.164H39.1357Z" fill="#3A86FF"/>
<path d="M129.154 114.183H121.271C120.894 113.046 120.522 111.928 120.111 110.686C122.608 110.686 124.98 110.676 127.353 110.705C127.531 110.706 127.781 110.944 127.864 111.131C128.3 112.096 128.694 113.082 129.154 114.183Z" fill="#3A86FF"/>
<path d="M29.9662 110.684C29.5872 111.821 29.2629 112.858 28.882 113.874C28.8217 114.034 28.5143 114.198 28.3201 114.2C25.9067 114.223 23.4952 114.215 20.9121 114.215C21.3872 113.073 21.8115 112.015 22.2772 110.978C22.3432 110.833 22.6166 110.697 22.7957 110.697C25.1412 110.678 27.4868 110.684 29.9662 110.684Z" fill="#3A86FF"/>
<path d="M66.5088 104.771V101.419H74.4146V104.771H66.5088Z" fill="#3A86FF"/>
<path d="M83.5614 104.805H75.665V101.426H83.5614V104.805Z" fill="#3A86FF"/>
<path d="M127.031 105.987C129.403 105.987 131.63 105.976 133.855 106.004C134.083 106.006 134.415 106.176 134.518 106.366C135.058 107.348 135.538 108.363 136.123 109.532C134.418 109.532 132.869 109.539 131.321 109.53C130.382 109.524 129.23 109.816 128.566 109.379C127.908 108.944 127.74 107.763 127.367 106.905C127.257 106.655 127.176 106.391 127.029 105.989L127.031 105.987Z" fill="#3A86FF"/>
<path d="M23.092 105.989C22.6055 107.149 22.1888 108.184 21.7306 109.2C21.6628 109.353 21.4101 109.513 21.2423 109.515C18.8685 109.536 16.4947 109.528 13.9512 109.528C14.5376 108.363 15.041 107.33 15.5821 106.315C15.6651 106.161 15.9158 106.006 16.0893 106.004C18.367 105.983 20.6465 105.991 23.092 105.991V105.989Z" fill="#3A86FF"/>
<path d="M56.844 106.055C56.7517 107.22 56.6649 108.308 56.5744 109.46H49.0137C49.206 108.318 49.3908 107.216 49.5869 106.055H56.8422H56.844Z" fill="#3A86FF"/>
<path d="M41.1606 106.04H48.4065C48.2142 107.211 48.0332 108.316 47.8446 109.473H40.3027C40.5931 108.314 40.8722 107.197 41.1625 106.04H41.1606Z" fill="#3A86FF"/>
<path d="M109.775 109.492H102.242C102.054 108.359 101.865 107.233 101.667 106.042H108.905C109.186 107.16 109.473 108.295 109.775 109.492Z" fill="#3A86FF"/>
<path d="M31.5771 109.526C31.9542 108.391 32.2691 107.379 32.6368 106.387C32.7009 106.211 32.9875 106.01 33.1741 106.006C35.399 105.98 37.622 105.989 39.9694 105.989C39.6941 107.111 39.4584 108.138 39.1775 109.153C39.1341 109.305 38.8871 109.507 38.7325 109.509C36.3908 109.532 34.049 109.524 31.579 109.524L31.5771 109.526Z" fill="#3A86FF"/>
<path d="M93.2266 106.025H100.474C100.67 107.173 100.863 108.299 101.066 109.485H93.515C93.4208 108.35 93.3284 107.241 93.2266 106.025Z" fill="#3A86FF"/>
<path d="M118.501 109.524C116.026 109.524 113.68 109.534 111.336 109.504C111.176 109.502 110.927 109.24 110.874 109.055C110.601 108.095 110.377 107.122 110.096 105.987C111.202 105.987 112.221 105.987 113.237 105.987C114.398 105.987 115.562 105.964 116.721 106.006C116.972 106.015 117.359 106.196 117.436 106.396C117.822 107.38 118.128 108.397 118.503 109.524H118.501Z" fill="#3A86FF"/>
<path d="M127.208 109.528C124.77 109.528 122.518 109.545 120.269 109.505C120.022 109.502 119.654 109.226 119.56 108.991C119.192 108.067 118.913 107.109 118.542 105.987C119.151 105.987 119.66 105.987 120.171 105.987C121.766 105.987 123.363 106.015 124.958 105.972C125.558 105.955 125.856 106.159 126.056 106.713C126.382 107.618 126.78 108.495 127.208 109.528Z" fill="#3A86FF"/>
<path d="M22.8681 109.528C23.3432 108.376 23.7335 107.392 24.1672 106.426C24.2501 106.242 24.5103 106.013 24.6895 106.012C26.9294 105.983 29.1675 105.993 31.5262 105.993C31.1548 107.128 30.8437 108.135 30.4798 109.124C30.4157 109.3 30.1347 109.509 29.9518 109.511C27.6402 109.537 25.3286 109.528 22.8662 109.528H22.8681Z" fill="#3A86FF"/>
<path d="M57.7246 109.473C57.8264 108.293 57.9207 107.207 58.0187 106.057H65.2194V109.473H57.7246Z" fill="#3A86FF"/>
<path d="M92.3425 109.479H84.8496V105.991C87.148 105.991 89.3917 105.978 91.6373 106.019C91.8032 106.023 92.071 106.411 92.103 106.647C92.2218 107.545 92.2633 108.451 92.3444 109.479H92.3425Z" fill="#3A86FF"/>
<path d="M25.0117 101.345C24.5347 102.508 24.135 103.521 23.6938 104.515C23.6259 104.669 23.3638 104.829 23.1903 104.831C21.1521 104.854 19.1121 104.848 17.072 104.846C16.8665 104.846 16.6591 104.811 16.3291 104.779C16.874 103.691 17.3623 102.684 17.8865 101.696C17.9714 101.537 18.2089 101.362 18.3786 101.36C20.5318 101.338 22.6869 101.345 25.0098 101.345H25.0117Z" fill="#3A86FF"/>
<path d="M125.119 101.341C127.372 101.341 129.473 101.33 131.571 101.358C131.792 101.362 132.105 101.558 132.212 101.752C132.736 102.708 133.206 103.694 133.781 104.844C132.203 104.844 130.779 104.854 129.356 104.841C128.419 104.831 127.267 105.112 126.609 104.669C125.949 104.226 125.777 103.049 125.402 102.19C125.304 101.967 125.247 101.728 125.119 101.339V101.341Z" fill="#3A86FF"/>
<path d="M57.2305 101.402C57.1381 102.557 57.0513 103.642 56.9608 104.784H49.7998C49.9884 103.642 50.1712 102.544 50.3598 101.402H57.2305Z" fill="#3A86FF"/>
<path d="M93.119 104.773C93.0266 103.651 92.938 102.569 92.8418 101.409H99.7068C99.8954 102.497 100.084 103.594 100.288 104.773H93.119Z" fill="#3A86FF"/>
<path d="M49.2022 101.343C48.991 102.588 48.8081 103.666 48.6177 104.792H41.4736C41.7301 103.764 41.9488 102.789 42.2335 101.831C42.2919 101.632 42.5898 101.368 42.7803 101.364C44.8788 101.33 46.9773 101.343 49.2022 101.343Z" fill="#3A86FF"/>
<path d="M100.872 101.343C103.108 101.343 105.209 101.334 107.307 101.36C107.486 101.362 107.773 101.581 107.822 101.752C108.107 102.738 108.335 103.742 108.599 104.801H101.47C101.279 103.696 101.089 102.597 100.872 101.343Z" fill="#3A86FF"/>
<path d="M116.935 104.843C114.608 104.843 112.443 104.854 110.281 104.824C110.085 104.822 109.775 104.58 109.719 104.392C109.432 103.434 109.212 102.457 108.933 101.339C110.801 101.339 112.583 101.409 114.355 101.313C115.439 101.255 116.05 101.526 116.244 102.661C116.363 103.361 116.671 104.026 116.936 104.843H116.935Z" fill="#3A86FF"/>
<path d="M41.0436 101.343C41.0549 101.543 41.0738 101.611 41.0587 101.667C40.7853 102.693 40.8098 104.07 40.1443 104.637C39.5315 105.159 38.1758 104.828 37.1482 104.841C35.8642 104.858 34.5802 104.844 33.1416 104.844C33.5112 103.721 33.8279 102.689 34.2031 101.683C34.2635 101.518 34.584 101.358 34.7876 101.356C36.8541 101.332 38.9206 101.341 41.0436 101.341V101.343Z" fill="#3A86FF"/>
<path d="M125.256 104.845C122.922 104.845 120.759 104.854 118.597 104.828C118.408 104.826 118.114 104.635 118.05 104.466C117.682 103.478 117.369 102.471 116.994 101.343C119.238 101.343 121.333 101.334 123.427 101.36C123.612 101.362 123.88 101.577 123.961 101.76C124.397 102.725 124.785 103.711 125.254 104.843L125.256 104.845Z" fill="#3A86FF"/>
<path d="M84.8564 104.765V101.396H91.6592C91.7592 102.508 91.8553 103.592 91.9609 104.765H84.8564Z" fill="#3A86FF"/>
<path d="M65.2324 101.394V104.778H58.1279C58.2203 103.645 58.3108 102.544 58.4051 101.394H65.2324Z" fill="#3A86FF"/>
<path d="M33.083 101.343C32.7059 102.476 32.4193 103.434 32.0536 104.362C31.9706 104.575 31.6256 104.818 31.3955 104.822C29.2649 104.858 27.1325 104.843 24.8096 104.843C25.2941 103.687 25.724 102.637 26.186 101.6C26.2425 101.473 26.4782 101.354 26.6309 101.353C28.7276 101.336 30.8242 101.341 33.0811 101.341L33.083 101.343Z" fill="#3A86FF"/>
</svg>
