<svg width="151" height="150" viewBox="0 0 151 150" fill="none" xmlns="http://www.w3.org/2000/svg">
<path d="M131.893 139.254L150.007 144.148L149.985 144.989C143.83 146.632 137.675 148.269 131.16 150.007C131.307 146.61 129.196 146.822 127.049 146.822C87.6111 146.851 48.1729 146.851 8.73473 146.851C7.04934 146.851 5.37127 146.851 3.20958 146.851V142.205C3.20958 102.523 3.20958 62.8403 3.19492 23.1578C3.19492 21.1927 4.11089 18.519 0 19.4467C1.86126 12.5505 3.54665 6.27526 5.23205 0C5.4299 0.00730531 5.63508 0.0219159 5.83293 0.0292212C7.51832 6.29718 9.20371 12.5578 10.977 19.1618C8.17049 19.1107 7.75281 20.5937 7.75281 22.9898C7.83342 61.3354 7.79678 99.6737 7.8041 138.019C7.8041 139.32 7.95066 140.62 8.03859 142.234H11.6146C50.0782 142.234 88.5344 142.256 126.998 142.161C128.581 142.161 130.164 141.146 131.746 140.605C131.798 140.152 131.842 139.699 131.893 139.247V139.254Z" fill="#FF9210"/>
<path d="M10.7422 124.227V119.829C18.7661 118.653 26.7095 118.105 34.3377 116.257C59.9703 110.047 81.2576 96.2183 99.4525 77.5386C105.036 71.8039 109.741 65.2145 114.929 59.0853C116.35 57.4051 116.343 56.1559 114.006 54.9213C118.988 50.2971 123.751 45.8846 128.331 41.6403C126.902 47.4334 125.364 53.6575 123.781 60.0643C122.674 59.7428 121.766 59.4725 120.952 59.2315C93.4217 96.1817 59.091 121.473 10.7495 124.234L10.7422 124.227Z" fill="#FF9210"/>
<path d="M116.16 73.7034H124.843C124.931 75.0768 125.093 76.3552 125.093 77.6336C125.107 96.4959 125.122 115.366 125.063 134.228C125.063 135.696 124.675 138.348 124.155 138.428C121.561 138.823 118.857 138.596 116.204 138.414C115.947 138.399 115.581 137.179 115.581 136.522C115.596 115.833 115.654 95.1518 115.713 74.4631C115.713 74.3608 115.83 74.2586 116.153 73.696L116.16 73.7034Z" fill="#FF9210"/>
<path d="M100.889 89.2125H109.924V138.626H100.889V89.2125Z" fill="#FF9210"/>
<path d="M95.1585 138.794C92.5058 138.794 90.0803 138.947 87.6988 138.699C86.988 138.626 85.8302 137.449 85.8155 136.77C85.6983 125.856 85.7349 114.942 85.7349 103.757H95.1585V138.794Z" fill="#FF9210"/>
<path d="M71.0283 111.888H80.3053C80.3053 114.248 80.3053 116.483 80.3053 118.726C80.3053 124.307 80.2247 129.881 80.3639 135.462C80.4226 137.888 79.785 139.1 77.125 138.859C75.2052 138.684 73.2633 138.823 71.0283 138.823V111.888Z" fill="#FF9210"/>
<path d="M56.124 118.573H65.1152V138.516H56.124V118.573Z" fill="#FF9210"/>
<path d="M50.2544 123.511V138.626H41.1533V123.511H50.2544Z" fill="#FF9210"/>
<path d="M35.2173 138.706H26.2188V127.281H35.2173V138.706Z" fill="#FF9210"/>
<path d="M11.3584 128.603H20.4229V138.64H11.3584V128.603Z" fill="#FF9210"/>
</svg>
