<svg width="150" height="150" viewBox="0 0 150 150" fill="none" xmlns="http://www.w3.org/2000/svg">
<path d="M123.651 52.6065C123.651 51.2384 123.225 50.2032 122.27 49.2507C111.17 38.1869 100.136 27.1524 89.4754 16.4556C88.4718 15.4495 87.4099 15 86.0345 15H86.0224C73.5419 15.0219 60.8526 15.0194 48.5787 15.017H39.7336C35.8529 15.017 32.3464 16.3827 29.863 18.8588C27.3795 21.3398 26.009 24.839 26.009 28.7173C26.009 39.1881 26.009 49.6565 26.009 60.1273V75.0061C26.009 78.5782 26.009 82.1502 26.0041 85.7223C25.9968 97.4616 25.992 109.599 26.0552 121.54C26.0649 123.538 26.4707 125.525 27.1973 127.141C29.5009 132.264 33.7509 134.973 39.4857 134.981C50.5519 134.995 61.7298 135 72.8105 135C79.6388 135 86.433 135 93.1374 134.998C98.702 134.998 104.264 134.995 109.829 134.995C113.851 134.995 117.299 133.664 119.804 131.148C122.307 128.633 123.631 125.168 123.631 121.132V108.367C123.631 90.0939 123.631 71.1959 123.648 52.6113L123.651 52.6065ZM112.079 48.8983C107.331 48.9007 102.422 48.9056 97.5939 48.8959C92.7 48.8862 89.7743 45.9556 89.7645 41.0543C89.7572 37.3073 89.7645 33.4971 89.7645 29.8108C89.7645 28.4111 89.767 27.0114 89.7694 25.6117L113.049 48.8983H112.077H112.079ZM97.1881 54.8323C101.637 54.8396 106.087 54.8372 110.536 54.8323C112.526 54.8323 114.516 54.8323 116.504 54.8323H117.622V54.8518C117.644 55.1482 117.666 55.4301 117.666 55.6974V62.7249C117.67 81.9218 117.673 101.772 117.666 121.295C117.666 126.131 114.747 129.017 109.863 129.02C86.4986 129.02 63.1343 129.02 39.77 129.02C34.8906 129.02 31.977 126.087 31.9746 121.173C31.9722 90.3587 31.9722 59.5416 31.9746 28.727C31.9746 23.9666 34.9149 21.0045 39.6436 20.9972C46.1196 20.9899 52.6635 20.9875 59.1491 20.9875C63.0906 20.9875 67.0126 20.9875 70.8835 20.9875C74.9659 20.9875 79.0483 20.9875 83.1331 20.9875H83.8256V27.9251C83.8256 32.4157 83.8256 36.9063 83.8256 41.3969C83.8208 49.0417 89.5653 54.8178 97.1906 54.8299L97.1881 54.8323Z" fill="#FF9210"/>
<path d="M54.8245 101.85H49.0242L48.9974 102.309C48.9877 102.465 48.978 102.613 48.9683 102.759C48.9464 103.075 48.9245 103.376 48.9245 103.685C48.9197 106.744 48.9172 110.365 48.9245 114.01C48.9318 116.71 49.9889 117.762 52.7007 117.762C64.3185 117.762 75.9362 117.762 87.554 117.762C88.475 117.762 89.3935 117.762 90.3145 117.764C91.2209 117.764 92.137 117.767 93.0604 117.767C94.5402 117.767 96.0347 117.764 97.5145 117.752C99.4512 117.737 100.671 116.598 100.698 114.783C100.754 110.761 100.734 106.652 100.712 103.116C100.71 102.696 100.311 101.874 99.772 101.85C98.6299 101.802 97.5024 101.806 96.3068 101.811C95.9472 101.811 95.5803 101.814 95.2109 101.814H94.7249V111.706H54.8245V101.853V101.85Z" fill="#FF9210"/>
<path d="M77.6989 64.8315H71.8499V88.0088L63.9403 79.8464L59.5566 84.0843L63.4519 87.9844C66.3606 90.898 69.3665 93.9112 72.3214 96.8563C73.1889 97.7214 73.998 98.1539 74.8097 98.1539C75.6213 98.1539 76.4718 97.7044 77.3757 96.8004C81.2443 92.9368 85.1104 89.0707 88.9716 85.1997C89.1782 84.9931 89.3701 84.7744 89.5257 84.597C89.5888 84.5266 89.6447 84.461 89.6982 84.4026L90.0019 84.0673L85.6984 79.5791L77.6989 87.9115V64.8315Z" fill="#FF9210"/>
</svg>
