<svg width="150" height="150" viewBox="0 0 150 150" fill="none" xmlns="http://www.w3.org/2000/svg">
<path d="M101.855 117.587C102.858 119.341 103.766 120.933 104.678 122.522C106.087 124.978 107.511 127.427 108.898 129.895C109.163 130.367 109.449 130.56 110.005 130.553C112.723 130.522 115.442 130.544 118.16 130.537C119.153 130.534 119.932 130.896 120.369 131.82C121.024 133.198 120.135 134.794 118.621 134.974C118.352 135.005 118.079 134.997 117.807 134.997C89.4675 134.997 61.128 134.997 32.7871 134.997C32.5152 134.997 32.2433 135.007 31.9715 134.992C30.7155 134.919 29.7967 133.955 29.8102 132.732C29.8238 131.542 30.7305 130.621 31.9729 130.548C32.2665 130.53 32.5614 130.541 32.8564 130.541C35.4159 130.541 37.9768 130.552 40.5363 130.522C40.8122 130.519 41.2105 130.339 41.3396 130.117C43.6857 126.083 45.9992 122.03 48.3181 117.98C48.3616 117.904 48.3902 117.817 48.4867 117.594C48.1401 117.594 47.8641 117.594 47.5882 117.594C39.8186 117.594 32.0476 117.6 24.278 117.591C20.2219 117.587 16.9515 114.942 16.1536 111.026C16.0408 110.475 16.0054 109.901 16.0054 109.338C16 80.7049 16 52.0756 16 23.445C16 18.5132 19.5029 15 24.4316 15C58.2762 15 92.1208 15 125.965 15C130.893 15 134.396 18.4996 134.396 23.4409C134.4 52.1164 134.398 80.7906 134.4 109.466C134.4 113.957 130.819 117.551 126.26 117.585C122.229 117.615 118.196 117.591 114.163 117.591C110.402 117.591 106.642 117.589 102.881 117.587C102.594 117.587 102.309 117.587 101.855 117.587ZM75.2033 19.4571C58.6881 19.4571 42.1729 19.4571 25.6577 19.4571C25.1371 19.4571 24.6151 19.4435 24.0945 19.4639C21.9754 19.5496 20.4476 21.1274 20.4476 23.2451C20.4448 51.9437 20.4421 80.6423 20.4639 109.341C20.4639 109.952 20.6283 110.617 20.9056 111.161C21.6845 112.69 23.0546 113.147 24.7007 113.145C58.3877 113.133 92.0746 113.136 125.763 113.136C128.503 113.136 129.956 111.683 129.956 108.941C129.956 80.7416 129.956 52.5422 129.956 24.3413C129.956 23.8884 129.971 23.4341 129.947 22.9812C129.857 21.3015 128.673 19.8788 127.053 19.5551C126.547 19.4544 126.016 19.4612 125.496 19.4612C108.733 19.4571 91.9672 19.4571 75.2033 19.4571ZM46.3173 130.495H104.065C103.927 130.23 103.835 130.033 103.728 129.843C101.509 125.971 99.2828 122.104 97.0822 118.223C96.8144 117.751 96.5194 117.578 95.9703 117.578C82.1084 117.594 68.2451 117.594 54.3832 117.581C53.8939 117.581 53.6098 117.713 53.3624 118.148C51.2936 121.792 49.2017 125.423 47.1179 129.059C46.8624 129.505 46.6177 129.956 46.3187 130.496L46.3173 130.495Z" fill="#3A86FF"/>
<path d="M106.963 82.3643C108.042 82.3643 109.059 82.3412 110.076 82.3711C111.164 82.4024 111.975 83.0376 112.245 84.01C112.501 84.9268 112.15 85.9509 111.326 86.4406C110.973 86.6514 110.531 86.7548 110.115 86.8092C109.648 86.8717 109.166 86.8241 108.691 86.8241C85.9948 86.8241 63.2989 86.8241 40.6017 86.8241C39.1827 86.8241 38.2298 86.0774 38.0912 84.8669C37.9348 83.4959 38.9421 82.3969 40.4114 82.367C41.4064 82.3466 42.4014 82.3629 43.5024 82.3629C43.5024 82.0501 43.5024 81.7876 43.5024 81.5251C43.5024 74.953 43.4956 68.3795 43.512 61.8074C43.512 61.3082 43.3842 61.0539 42.8989 60.8526C40.1029 59.6924 38.3494 56.8796 38.5112 53.8942C38.6784 50.8053 40.7173 48.2102 43.6669 47.3329C46.5703 46.4692 49.7143 47.5165 51.5099 49.992C51.7995 50.3918 52.089 50.5319 52.5675 50.5251C54.3563 50.4979 56.1464 50.4979 57.9352 50.5238C58.3661 50.5292 58.5578 50.3905 58.7277 49.9947C60.7843 45.1771 66.8494 44.0333 70.5398 47.7668C70.8348 48.0647 71.0468 48.0973 71.4057 47.9042C73.3984 46.8283 75.4087 45.7865 77.3933 44.697C77.604 44.5814 77.8024 44.2318 77.8106 43.9843C77.8976 40.9145 79.2378 38.6077 82.0311 37.3142C84.7456 36.0575 87.3337 36.4764 89.6648 38.3371C90.0291 38.6281 90.3105 38.6989 90.7495 38.5397C92.7708 37.8053 94.8002 37.0925 96.8377 36.4084C97.3039 36.252 97.4942 36.0466 97.5595 35.5325C98.0121 31.9594 100.861 29.3602 104.446 29.1929C107.825 29.0352 110.925 31.4181 111.704 34.7722C112.498 38.1915 110.78 41.6 107.512 43.0159C107.061 43.2117 106.922 43.4362 106.922 43.9163C106.934 56.4947 106.932 69.0745 106.932 81.653C106.932 81.8542 106.949 82.0555 106.964 82.367L106.963 82.3643ZM102.488 82.3344C102.488 82.0147 102.488 81.7699 102.488 81.5251C102.488 79.3489 102.488 77.1741 102.488 74.9979C102.488 64.6405 102.484 54.2832 102.495 43.9258C102.495 43.4579 102.389 43.2049 101.912 43.0268C100.765 42.597 99.8186 41.853 99.0737 40.8832C98.8209 40.5554 98.617 40.4942 98.231 40.633C96.4435 41.279 94.6493 41.9128 92.8428 42.5018C92.3168 42.6731 92.1632 42.9003 92.1971 43.4607C92.3779 46.4747 90.6897 49.2194 87.9263 50.4095C87.4329 50.6217 87.2643 50.8611 87.2657 51.4024C87.2834 61.4646 87.2793 71.5282 87.2793 81.5904C87.2793 81.8298 87.2793 82.0678 87.2793 82.333H102.488V82.3344ZM82.8154 82.3221V81.2476C82.8154 71.301 82.8127 61.3531 82.8263 51.4065C82.8263 50.9128 82.6917 50.6761 82.2309 50.4381C81.4371 50.026 80.6827 49.5091 79.9881 48.9433C79.651 48.6686 79.4471 48.6794 79.1141 48.8576C77.0983 49.9362 75.0798 51.0093 73.0517 52.0621C72.7038 52.243 72.5882 52.4511 72.5678 52.8455C72.417 55.8772 70.9856 58.0847 68.2114 59.3469C67.7125 59.574 67.5711 59.827 67.5725 60.3493C67.5888 67.441 67.5834 74.5341 67.5847 81.6257C67.5847 81.8461 67.6065 82.0664 67.6201 82.3221H82.8181H82.8154ZM63.1467 82.3181C63.1467 82.0025 63.1467 81.7359 63.1467 81.468C63.1467 78.1602 63.1467 74.8523 63.1467 71.5445C63.1467 67.7838 63.1467 64.023 63.1467 60.2623C63.1467 59.9277 63.1943 59.623 62.7484 59.4476C60.7911 58.6804 59.4427 57.2863 58.6393 55.3454C58.5768 55.1931 58.3729 54.9972 58.2329 54.9945C56.4699 54.97 54.7083 54.9782 52.9046 54.9782C52.8461 55.2652 52.8053 55.5073 52.7482 55.7467C52.1923 58.1051 50.8289 59.823 48.6147 60.8063C48.075 61.0457 47.897 61.3123 47.8997 61.9012C47.9228 68.4706 47.9133 75.0414 47.9146 81.6108C47.9146 81.8325 47.9337 82.0542 47.9459 82.3167H63.1494L63.1467 82.3181ZM65.3718 55.5046C66.8929 55.4814 68.1434 54.2111 68.1189 52.7163C68.0931 51.2174 66.7882 49.958 65.2984 49.9947C63.8372 50.0314 62.5867 51.333 62.6179 52.7884C62.6492 54.2709 63.9215 55.5263 65.3718 55.5046ZM84.9699 46.5685C86.495 46.5917 87.7482 45.3852 87.7795 43.8592C87.8108 42.3998 86.5793 41.1321 85.0922 41.094C83.5793 41.056 82.3098 42.2787 82.2826 43.8034C82.2568 45.271 83.4937 46.5454 84.9699 46.5672V46.5685ZM104.719 33.6514C103.234 33.6406 101.978 34.8619 101.954 36.3377C101.93 37.8665 103.142 39.1151 104.67 39.1355C106.184 39.1559 107.437 37.91 107.436 36.388C107.433 34.9055 106.199 33.6637 104.72 33.6528L104.719 33.6514ZM48.4475 54.241C48.4434 52.7245 47.1861 51.4799 45.6746 51.4963C44.1943 51.5126 42.9642 52.7585 42.9669 54.2383C42.9696 55.7603 44.2201 56.998 45.7371 56.9844C47.2133 56.9694 48.4502 55.7167 48.4461 54.241H48.4475Z" fill="#3A86FF"/>
<path d="M30.2131 103.197H31.0341C40.0502 103.197 49.0677 103.192 58.0837 103.211C58.6533 103.211 58.9577 103.023 59.2785 102.562C61.4466 99.442 64.4655 97.8098 68.2525 97.7582C72.8958 97.6956 77.5418 97.6901 82.185 97.7609C86.0264 97.8194 89.0575 99.5114 91.2256 102.698C91.4472 103.025 91.6551 103.208 92.0819 103.207C101.257 103.193 110.432 103.196 119.607 103.193C119.764 103.193 119.921 103.176 120.19 103.159V102.297C120.19 77.2937 120.19 52.2892 120.19 27.286C120.19 27.0589 120.184 26.8317 120.2 26.6059C120.29 25.3723 121.218 24.5032 122.436 24.5032C123.609 24.5032 124.533 25.3655 124.642 26.5679C124.658 26.7474 124.649 26.9297 124.649 27.1119C124.649 52.9543 124.649 78.7966 124.647 104.639C124.647 105.024 124.662 105.414 124.605 105.792C124.446 106.825 123.589 107.577 122.547 107.631C122.299 107.644 122.049 107.635 121.8 107.635C111.446 107.635 101.094 107.62 90.7403 107.653C89.3688 107.657 88.5206 107.181 87.9117 105.92C86.7318 103.477 84.6902 102.233 81.9771 102.214C77.4466 102.184 72.9148 102.173 68.3843 102.215C65.6454 102.241 63.6187 103.536 62.4416 106.018C61.9087 107.14 61.1394 107.646 59.897 107.645C49.4306 107.626 38.9642 107.634 28.4977 107.634C26.5159 107.634 25.7588 106.868 25.7588 104.872C25.7588 79.0292 25.7588 53.1869 25.7601 27.3445C25.7601 27.0058 25.7561 26.6617 25.8118 26.3285C25.9967 25.2268 26.8979 24.4896 28.0111 24.4991C29.104 24.5086 30.016 25.288 30.1819 26.3747C30.2227 26.6413 30.2145 26.9174 30.2145 27.1881C30.2159 52.2144 30.2159 77.2407 30.2159 102.267C30.2159 102.536 30.2159 102.806 30.2159 103.196L30.2131 103.197Z" fill="#3A86FF"/>
<path d="M75.2695 89.57C86.7541 89.57 98.2386 89.5727 109.724 89.5659C110.505 89.5659 111.214 89.6979 111.755 90.3099C112.882 91.5884 112.251 93.5783 110.593 93.9537C110.289 94.023 109.965 94.0312 109.65 94.0312C86.7024 94.0339 63.7551 94.038 40.8092 94.0122C40.1703 94.0122 39.4526 93.819 38.9103 93.4885C38.1273 93.0111 37.9017 91.9801 38.179 91.1273C38.4617 90.2569 39.2202 89.6516 40.1363 89.5754C40.3389 89.5591 40.5441 89.57 40.748 89.57C52.2556 89.57 63.7633 89.57 75.2709 89.57H75.2695Z" fill="#3A86FF"/>
<path d="M48.038 40.3146C45.5941 40.3146 43.1514 40.3254 40.7075 40.3091C39.6527 40.3023 38.8385 39.6318 38.5843 38.6348C38.3314 37.6474 38.7406 36.6164 39.6581 36.1594C40.0469 35.9662 40.5226 35.8683 40.9603 35.867C45.7341 35.8466 50.5078 35.8493 55.2816 35.8588C56.6735 35.8615 57.6631 36.8218 57.6536 38.1152C57.644 39.3938 56.6409 40.3132 55.2327 40.3159C52.8349 40.32 50.4358 40.3159 48.038 40.3159V40.3132V40.3146Z" fill="#3A86FF"/>
<path d="M48.1555 28.3416C50.5084 28.3416 52.8613 28.3416 55.2142 28.3416C56.6482 28.3416 57.6174 29.2066 57.6541 30.5137C57.6894 31.7718 56.6863 32.7851 55.2971 32.7919C50.5002 32.8123 45.7047 32.811 40.9078 32.7947C39.5771 32.7906 38.6881 32.0207 38.5223 30.8347C38.3741 29.782 39.0497 28.7306 40.0909 28.4368C40.3682 28.3593 40.6699 28.347 40.9608 28.3457C43.3586 28.3389 45.7577 28.3416 48.1555 28.3416Z" fill="#3A86FF"/>
<path d="M64.7179 40.316C64.0165 40.316 63.3151 40.3282 62.6138 40.3133C61.3564 40.2861 60.4104 39.3462 60.39 38.1248C60.3696 36.913 61.2993 35.8997 62.5458 35.867C64.0152 35.829 65.4886 35.8276 66.958 35.8725C68.2017 35.9106 69.1111 36.9375 69.0785 38.1588C69.0458 39.349 68.1161 40.2766 66.89 40.3119C66.1669 40.3323 65.4424 40.316 64.7179 40.316Z" fill="#3A86FF"/>
<path d="M64.7316 28.3416C65.4561 28.3416 66.1806 28.328 66.9037 28.3443C68.0686 28.3702 68.9725 29.2216 69.0745 30.3668C69.1778 31.5216 68.3908 32.6546 67.215 32.7294C65.5716 32.8341 63.912 32.83 62.2686 32.7212C61.0901 32.6423 60.3275 31.5855 60.3914 30.4444C60.458 29.2665 61.3552 28.3838 62.5595 28.3457C63.2826 28.3226 64.0071 28.3416 64.7316 28.3416Z" fill="#3A86FF"/>
</svg>
