<svg width="150" height="150" viewBox="0 0 150 150" fill="none" xmlns="http://www.w3.org/2000/svg">
<path d="M36.7548 112.22C36.8648 112.26 36.9848 112.27 37.1048 112.27C37.3348 112.27 37.5648 112.24 37.7948 112.22C37.4448 112.24 37.0548 112.3 36.7548 112.22ZM36.7548 112.22C36.8648 112.26 36.9848 112.27 37.1048 112.27C37.3348 112.27 37.5648 112.24 37.7948 112.22C37.4448 112.24 37.0548 112.3 36.7548 112.22ZM36.7548 112.22C36.8648 112.26 36.9848 112.27 37.1048 112.27C37.3348 112.27 37.5648 112.24 37.7948 112.22C37.4448 112.24 37.0548 112.3 36.7548 112.22ZM36.7548 112.22C36.8648 112.26 36.9848 112.27 37.1048 112.27C37.3348 112.27 37.5648 112.24 37.7948 112.22C37.4448 112.24 37.0548 112.3 36.7548 112.22ZM36.7548 112.22C36.8648 112.26 36.9848 112.27 37.1048 112.27C37.3348 112.27 37.5648 112.24 37.7948 112.22C37.4448 112.24 37.0548 112.3 36.7548 112.22ZM36.7548 112.22C36.8648 112.26 36.9848 112.27 37.1048 112.27C37.3348 112.27 37.5648 112.24 37.7948 112.22C37.4448 112.24 37.0548 112.3 36.7548 112.22ZM36.7548 112.22C36.8648 112.26 36.9848 112.27 37.1048 112.27C37.3348 112.27 37.5648 112.24 37.7948 112.22C37.4448 112.24 37.0548 112.3 36.7548 112.22ZM36.7548 112.22C36.8648 112.26 36.9848 112.27 37.1048 112.27C37.3348 112.27 37.5648 112.24 37.7948 112.22C37.4448 112.24 37.0548 112.3 36.7548 112.22ZM118.515 102.78C115.825 100.88 114.185 98.49 113.355 95.25C111.505 88.04 110.655 80.27 110.595 70.05C110.505 55.35 102.115 42.75 88.7048 37.17C87.6848 36.75 86.6548 36.39 85.5648 36.01C85.0448 35.83 84.5248 35.65 84.0148 35.46L82.9348 35.07L83.4648 34.06C86.9448 27.37 86.3948 22.12 81.8148 18.44C79.8648 16.87 77.4248 16 74.9348 16C72.4448 16 69.8648 16.92 67.8948 18.59C63.5448 22.29 62.9748 27.67 66.2948 33.73L66.7448 34.9L65.2048 35.4C64.3748 35.77 63.5348 36.13 62.7248 36.47C60.5248 37.4 58.4348 38.29 56.5348 39.47C46.3648 45.78 40.7348 55.62 39.3148 69.55C38.8348 74.35 38.2648 79.22 37.7048 83.92C37.3048 87.41 36.8748 91.02 36.4948 94.57C36.1248 97.98 34.4848 100.64 31.5048 102.7C28.6748 104.65 27.4348 107.53 27.9048 111.04C28.5048 115.53 32.1248 118.58 36.8848 118.62C39.9048 118.65 43.0848 118.67 46.3348 118.67C49.8748 118.67 53.5448 118.65 57.5248 118.62H57.5948C59.3248 118.62 60.1548 119.34 60.4548 121.1C61.6248 127.98 67.8748 133.18 74.9748 133.18C82.0748 133.18 88.2748 127.97 89.4648 121.06C89.7648 119.33 90.5948 118.62 92.3548 118.62H92.4348C95.7348 118.65 99.0848 118.66 102.395 118.66C105.705 118.66 109.045 118.65 112.345 118.62C113.855 118.62 115.015 118.47 115.975 118.16C119.415 117.06 121.435 114.71 121.985 111.15C122.535 107.66 121.335 104.77 118.515 102.78ZM74.9748 21.4C76.4448 21.41 77.8148 21.98 78.8348 23.01C79.8748 24.05 80.4348 25.44 80.4348 26.93V27.92H80.3348C79.8748 30.49 77.6748 32.39 74.9648 32.39H74.9348C71.8648 32.37 69.4648 29.95 69.4848 26.87C69.5048 23.81 71.9148 21.4 74.9748 21.4ZM84.0248 119.8C83.8248 124 80.0448 127.49 75.4348 127.74C75.2648 127.75 75.0848 127.76 74.9148 127.76C70.3248 127.76 66.4948 124.45 65.8148 119.9L65.7048 119.11L84.0848 118.75L84.0248 119.8ZM116.495 110.92C115.745 113.22 113.485 113.22 112.635 113.22C106.325 113.21 100.025 113.21 93.7148 113.21H38.0148C37.9048 113.21 37.7748 113.22 37.6548 113.23C37.4648 113.25 37.2848 113.27 37.1048 113.27C36.7248 113.27 36.3948 113.19 36.1248 113.05L35.8048 112.88C34.9048 112.42 33.7848 111.85 33.5148 110.83C33.2748 109.91 33.6748 109 34.0348 108.19C34.1348 107.96 34.2248 107.74 34.3048 107.52C34.4848 107.04 34.8948 106.81 35.1448 106.67C35.1848 106.65 35.2248 106.63 35.2548 106.6C39.0748 104.01 41.1848 100.52 41.7248 95.94C42.0648 92.98 42.3848 90.03 42.7148 87.07C43.4048 80.78 44.1248 74.27 44.9848 67.88C46.7248 55.02 52.9448 46.31 63.4848 42C67.2048 40.48 71.0848 39.7 75.0148 39.7C91.5148 39.7 105.065 53.24 105.225 69.88C105.325 80.83 106.235 89.11 108.175 96.74C109.335 101.3 111.445 104.47 114.815 106.7C117.015 108.16 116.815 109.97 116.495 110.92ZM36.7548 112.22C36.8648 112.26 36.9848 112.27 37.1048 112.27C37.3348 112.27 37.5648 112.24 37.7948 112.22C37.4448 112.24 37.0548 112.3 36.7548 112.22ZM36.7548 112.22C36.8648 112.26 36.9848 112.27 37.1048 112.27C37.3348 112.27 37.5648 112.24 37.7948 112.22C37.4448 112.24 37.0548 112.3 36.7548 112.22ZM36.7548 112.22C36.8648 112.26 36.9848 112.27 37.1048 112.27C37.3348 112.27 37.5648 112.24 37.7948 112.22C37.4448 112.24 37.0548 112.3 36.7548 112.22ZM36.7548 112.22C36.8648 112.26 36.9848 112.27 37.1048 112.27C37.3348 112.27 37.5648 112.24 37.7948 112.22C37.4448 112.24 37.0548 112.3 36.7548 112.22ZM36.7548 112.22C36.8648 112.26 36.9848 112.27 37.1048 112.27C37.3348 112.27 37.5648 112.24 37.7948 112.22C37.4448 112.24 37.0548 112.3 36.7548 112.22ZM36.7548 112.22C36.8648 112.26 36.9848 112.27 37.1048 112.27C37.3348 112.27 37.5648 112.24 37.7948 112.22C37.4448 112.24 37.0548 112.3 36.7548 112.22ZM36.7548 112.22C36.8648 112.26 36.9848 112.27 37.1048 112.27C37.3348 112.27 37.5648 112.24 37.7948 112.22C37.4448 112.24 37.0548 112.3 36.7548 112.22ZM36.7548 112.22C36.8648 112.26 36.9848 112.27 37.1048 112.27C37.3348 112.27 37.5648 112.24 37.7948 112.22C37.4448 112.24 37.0548 112.3 36.7548 112.22ZM36.7548 112.22C36.8648 112.26 36.9848 112.27 37.1048 112.27C37.3348 112.27 37.5648 112.24 37.7948 112.22C37.4448 112.24 37.0548 112.3 36.7548 112.22Z" fill="#FF9210"/>
<path d="M138.814 105.17C138.184 105.98 136.994 106.71 135.864 106.99C135.744 107.02 135.634 107.03 135.524 107.03C134.694 107.03 134.014 106.26 133.664 105.54C133.134 104.46 133.304 103.47 134.174 102.41C139.484 95.98 142.794 87.85 143.474 79.54C143.504 79.22 143.524 78.9 143.544 78.57L143.624 78.65L143.584 76.34C143.554 74.62 143.394 72.9 143.094 71.22C142.524 68 141.854 65.3 141.054 62.97C139.624 58.81 137.594 55 135.004 51.64L134.864 51.46L134.664 51.21C134.044 50.42 133.614 49.63 133.434 48.92C133.144 47.76 133.974 46.71 134.954 46.26C135.344 46.08 135.734 45.99 136.104 45.99C136.904 45.99 137.674 46.4 138.314 47.16C142.344 52 145.214 57.23 146.824 62.73C151.364 78.21 148.674 92.49 138.814 105.17Z" fill="#FF9210"/>
<path d="M133.615 76.8701V77.0201C133.525 83.5101 131.385 89.7101 127.415 94.9201C126.635 95.9501 125.715 96.5201 124.825 96.5201C124.305 96.5201 123.795 96.3401 123.305 95.9801C122.725 95.5601 122.375 95.0301 122.275 94.3901C122.145 93.5701 122.445 92.5901 123.135 91.6401C130.005 82.1801 129.975 70.8501 123.065 61.3401C121.895 59.7401 121.975 58.0701 123.255 57.1101C123.745 56.7401 124.265 56.5601 124.805 56.5601C125.725 56.5601 126.635 57.0901 127.375 58.0601C131.475 63.5001 133.525 69.6501 133.615 76.8701Z" fill="#FF9210"/>
<path d="M16.5347 104.11C16.8247 105.27 15.9947 106.33 15.0147 106.77C14.6247 106.95 14.2347 107.04 13.8647 107.04C13.0547 107.04 12.2947 106.63 11.6547 105.87C7.62474 101.04 4.75474 95.8 3.14474 90.3C-1.40526 74.82 1.29474 60.55 11.1447 47.86C11.7847 47.05 12.9647 46.32 14.1047 46.04C14.2147 46.01 14.3347 46 14.4447 46C15.2747 46 15.9447 46.77 16.3047 47.5C16.8247 48.57 16.6647 49.56 15.7947 50.62C10.4747 57.05 7.17474 65.18 6.48474 73.49C6.40474 74.54 6.36474 75.62 6.38474 76.7C6.41474 78.41 6.58474 80.14 6.87474 81.82C7.44474 85.03 8.10474 87.73 8.91474 90.06C10.3447 94.22 12.3747 98.03 14.9647 101.39L15.1247 101.6L15.3047 101.82C15.9247 102.61 16.3547 103.41 16.5347 104.11Z" fill="#FF9210"/>
<path d="M26.7145 95.93C26.2245 96.29 25.7045 96.48 25.1645 96.48C24.2445 96.48 23.3345 95.94 22.5945 94.97C18.4945 89.53 16.4445 83.38 16.3545 76.15V76.02C16.4445 69.52 18.5845 63.33 22.5545 58.11C23.3345 57.09 24.2645 56.52 25.1545 56.52C25.6645 56.52 26.1745 56.7 26.6645 57.06C27.2445 57.47 27.5945 58.01 27.6945 58.64C27.8245 59.47 27.5245 60.45 26.8345 61.39C19.9645 70.86 19.9945 82.19 26.9045 91.69C28.0745 93.3 28.0045 94.96 26.7145 95.93Z" fill="#FF9210"/>
</svg>
