<svg width="150" height="150" viewBox="0 0 150 150" fill="none" xmlns="http://www.w3.org/2000/svg">
<path d="M7.52255 93.2707C7.52255 90.0476 7.52255 86.823 7.52255 83.5999C7.52255 70.5985 7.50814 57.5972 7.53407 44.5958C7.53984 41.5375 9.60914 38.892 12.5863 37.9877C13.3616 37.7526 14.1858 37.7211 15.0043 37.7641C15.2421 37.777 15.4006 37.8157 15.4482 38.1052C15.83 40.3896 16.4007 42.6324 17.0362 44.8552C17.7552 47.3661 18.591 49.8397 19.5147 52.2903C20.0882 53.8109 20.6704 55.3257 21.2872 56.829C22.2426 59.155 23.3334 61.4208 24.5309 63.6335C25.3984 65.2358 26.1852 66.8968 27.2198 68.3872C28.5052 70.2388 29.6235 72.195 30.9881 74.0037C32.7404 76.3239 34.3889 78.7287 36.3199 80.9042C37.9122 82.697 39.5132 84.4856 41.2352 86.1666C43.0033 87.8921 44.8176 89.5631 46.6577 91.2084C47.8941 92.3148 49.2516 93.2864 50.5384 94.3383C52.6826 96.0896 55.0416 97.54 57.3314 99.082C58.3242 99.7513 59.4208 100.282 60.4296 100.944C60.5621 101.031 60.8158 101.038 60.7509 101.243C60.6702 101.493 60.4396 101.359 60.2624 101.322C58.8603 101.028 57.4524 100.752 56.0085 100.822C54.0603 100.916 52.2878 101.445 50.7171 102.689C48.5311 104.419 47.4546 106.594 47.567 109.378C47.6203 110.705 47.5757 110.708 46.273 110.708C35.6613 110.708 25.0482 110.713 14.4366 110.703C11.5588 110.7 9.54718 109.21 8.21135 106.814C7.65224 105.812 7.52111 104.614 7.52111 103.444C7.51822 100.054 7.52111 96.6629 7.52111 93.2721L7.52255 93.2707Z" fill="#EAF0FE"/>
<path d="M132.899 120.325C132.509 119.848 132.121 119.369 131.735 118.891C131.169 118.191 130.582 117.468 129.997 116.761C128.55 115.014 126.711 114.197 124.533 114.338C124.397 114.346 124.338 114.335 124.319 114.33C124.306 114.315 124.269 114.26 124.217 114.114C123.498 112.08 122.956 109.948 122.432 107.884C122.269 107.244 122.106 106.603 121.939 105.964C120.852 101.829 119.218 97.5327 117.081 93.1918C114.682 88.3177 112.187 84.0857 109.457 80.2535C108.036 78.26 106.54 76.3711 105.013 74.6399C104.598 74.1684 104.178 73.684 103.773 73.2154C103.069 72.3999 102.341 71.5572 101.596 70.7475C100.051 69.0679 97.1201 68.1593 94.4658 68.5376C92.091 68.8759 90.222 70.1786 89.1974 72.2079C86.3312 70.4638 83.4088 70.2861 80.5138 71.6791C79.2313 72.2953 78.2529 73.3515 77.6044 74.8147C75.6605 73.8503 73.5379 73.6697 71.2942 74.2773C69.4237 74.7847 67.9871 75.9011 67.0245 77.5979C66.9913 77.5535 66.9596 77.509 66.9279 77.466L67.0374 77.499L65.9451 75.9727C65.9451 75.9727 65.9422 75.9684 65.9408 75.967L64.2764 73.1724L64.3687 73.7786C63.4853 72.5504 62.5803 71.2892 61.7057 70.0367C59.6479 67.0916 56.1318 65.6413 52.9572 66.4281C51.0363 66.9039 49.4181 68.1091 48.4036 69.8232C47.3329 71.6289 47.0519 73.7671 47.611 75.8437C48.016 77.3471 48.81 78.5738 49.4556 79.4753C50.9902 81.6164 52.5364 83.8033 54.0322 85.9201L55.3464 87.7788C55.3464 87.7788 55.3508 87.7846 55.3522 87.7889L55.3219 87.8505L55.5583 88.1701L55.5683 88.1844C56.7039 89.6333 57.7702 91.1825 58.8006 92.6801C59.2012 93.2634 59.6162 93.8668 60.0312 94.4572C60.8079 95.565 61.5817 96.6743 62.3541 97.785C64.52 100.896 66.7492 104.098 69.0592 107.208C67.9236 106.728 66.8371 106.272 65.7347 105.832C65.3601 105.682 64.9854 105.53 64.6107 105.376C62.5933 104.554 60.5067 103.704 58.2832 103.287C56.5122 102.954 54.8406 103.123 53.3146 103.79C51.7122 104.489 50.5565 105.657 49.9729 107.169C49.3114 108.879 49.4354 110.967 50.3086 112.896C51.2957 115.074 52.9745 116.636 54.7527 118.176C60.3107 122.985 66.9697 127.166 75.708 131.332C80.4922 133.613 84.8124 135.244 88.915 136.32C89.3372 136.431 89.7652 136.535 90.1787 136.637C91.6515 136.998 93.0435 137.339 94.3663 137.956L94.4168 137.979C94.6128 138.07 94.8145 138.163 94.9111 138.222C94.9082 138.34 94.875 138.572 94.8419 138.798L94.8361 138.838C94.5695 140.686 95.0393 142.384 96.2339 143.884C96.9602 144.799 97.6893 145.71 98.4185 146.622L99.3566 147.795L99.3912 147.841L99.433 147.88C100.753 149.11 102.044 149.766 103.497 149.947C103.809 149.985 104.116 150.005 104.417 150.005C105.847 150.005 107.129 149.565 108.243 148.691C110.235 147.128 112.235 145.512 114.169 143.949C114.866 143.386 115.564 142.823 116.261 142.261C118.018 140.846 119.774 139.432 121.53 138.016C124.917 135.286 128.421 132.462 131.87 129.694C133.327 128.524 134.231 126.923 134.414 125.185C134.595 123.468 134.056 121.743 132.899 120.327V120.325ZM129.664 124.636C129.683 125.267 129.318 125.681 128.638 126.225C125.704 128.576 123.458 130.379 121.355 132.07C119.346 133.686 117.339 135.304 115.33 136.922C112.082 139.539 108.834 142.156 105.583 144.769C104.611 145.551 103.672 145.465 102.871 144.521C101.85 143.315 100.881 142.125 99.995 140.981C99.2428 140.011 99.3768 139.036 100.371 138.236C106.645 133.189 114.921 126.531 123.302 119.776C123.926 119.273 124.438 119.02 124.916 119.02C125.477 119.02 125.991 119.369 126.585 120.082C127.116 120.721 127.648 121.38 128.163 122.018C128.539 122.485 128.916 122.952 129.297 123.416C129.576 123.756 129.693 124.126 129.666 124.579V124.607V124.636H129.664ZM75.0942 114.997C75.8377 115.367 76.8018 115.395 77.5511 115.07C78.1693 114.802 78.6102 114.315 78.7933 113.698C78.9791 113.071 78.8394 112.366 78.3883 111.659C78.0511 111.13 77.6592 110.636 77.2816 110.159C77.188 110.041 77.0957 109.924 77.005 109.807C76.4156 109.054 75.8089 108.265 75.2008 107.464C74.0696 105.975 72.9182 104.42 71.6789 102.713C69.3128 99.4531 67.0216 96.1712 64.8773 93.09C62.0659 89.0486 59.1723 84.9656 56.3739 81.0159C55.2254 79.395 54.0783 77.7756 52.9313 76.1533C52.3722 75.3622 52.1113 74.6127 52.1099 73.7958C52.1085 72.7238 52.5653 71.8238 53.3665 71.3236C54.1634 70.8263 55.1735 70.8077 56.139 71.272C56.7601 71.5716 57.2212 71.9413 57.5483 72.4057C60.5802 76.6864 63.6078 80.9715 66.6354 85.2565L66.8876 85.6119C66.8876 85.6119 66.8933 85.6263 66.8962 85.6334C66.9092 85.665 66.9221 85.6965 66.9351 85.7266L66.9596 85.7811L68.758 88.3163C70.2278 90.3871 71.6962 92.4566 73.1646 94.5289C73.5696 95.1021 73.9745 95.6754 74.378 96.2501C74.9227 97.024 75.4659 97.7979 76.015 98.5689C76.8926 99.7999 78.3105 100.109 79.4633 99.3213C80.583 98.5545 80.7819 97.0913 79.9345 95.8402C78.9518 94.3884 77.8854 92.9223 76.8536 91.5035C74.7469 88.6058 72.5681 85.6105 70.9181 82.5064C70.5722 81.8543 70.5852 81.0489 70.957 80.295C71.3677 79.4624 72.1199 78.8777 72.9715 78.7286C73.5897 78.6211 74.2022 78.6326 74.7915 78.7645C75.417 78.9035 75.8579 79.2087 76.2239 79.7547C78.1491 82.6267 80.1233 85.5331 82.0327 88.3449C82.7099 89.3424 83.3887 90.3413 84.0659 91.3402C84.9651 92.6658 86.3255 93.0198 87.5287 92.2402C88.0648 91.8934 88.4121 91.4032 88.5317 90.8242C88.6686 90.1636 88.4971 89.4499 88.0374 88.7605C87.6915 88.2432 87.3457 87.7244 87.0013 87.2056C85.9191 85.5761 84.7994 83.8922 83.6423 82.2699C83.5501 82.1409 83.4549 82.0105 83.3598 81.8786C82.2805 80.3839 81.1637 78.839 81.7661 77.1378C82.0687 76.2837 82.7416 75.1902 85.0862 75.56C86.1007 75.719 86.765 76.1433 87.2405 76.9343C88.327 78.7444 89.5562 80.4942 90.7451 82.1882C91.2869 82.9607 91.8474 83.7603 92.3849 84.55C93.4455 86.1107 94.5047 86.3772 96.1619 85.5016L96.2238 85.4686L96.4832 85.2293L96.5754 85.1003C97.1951 84.0197 97.0985 82.9205 96.2901 81.8342C96.1633 81.6651 96.035 81.4931 95.9068 81.3212C94.9154 79.9984 93.8894 78.6297 93.1934 77.2253C92.7438 76.3195 92.8446 75.3536 93.4931 74.3547L93.9427 73.6596C94.1646 73.4676 94.4975 73.3085 95.0148 73.2526C96.6936 73.0678 97.783 73.4547 98.6548 74.5453C99.4647 75.5585 100.316 76.5574 101.142 77.5248C102.125 78.6756 103.139 79.8665 104.079 81.0761C104.16 81.1807 104.242 81.2853 104.322 81.3914C105.931 83.4909 107.47 85.7581 108.899 88.13C112.796 94.5977 115.715 101.276 117.574 107.982C117.786 108.744 117.989 109.524 118.185 110.278C118.707 112.275 119.246 114.342 119.993 116.333C119.998 116.344 120.002 116.355 120.005 116.365C120.002 116.368 119.999 116.37 119.996 116.373C117.159 118.537 114.359 120.837 111.653 123.062C108.824 125.388 105.897 127.793 102.932 130.038L102.876 130.073L102.835 130.111C101.744 131.089 100.57 132.021 99.4344 132.922C98.8522 133.385 98.2499 133.863 97.662 134.344C95.5999 133.17 93.3749 132.583 91.2206 132.014C90.4742 131.817 89.7018 131.613 88.9496 131.388C85.9479 130.49 82.9693 129.398 80.0974 128.144C73.2237 125.142 66.7391 121.422 60.8237 117.088C58.8668 115.655 56.8422 114.054 55.2801 112.06C54.7196 111.345 54.4357 110.672 54.3853 109.938C54.2988 108.678 54.8219 108.05 56.0842 107.901C56.273 107.88 56.4618 107.868 56.6534 107.868C57.2889 107.868 57.9518 107.992 58.6997 108.244C62.7533 109.617 66.7492 111.352 70.6126 113.032C71.1097 113.248 71.6069 113.465 72.1055 113.68C72.3721 113.796 72.6401 113.909 72.9081 114.022C73.6358 114.33 74.3895 114.65 75.0985 115.003L75.0942 114.997Z" fill="#3A86FF"/>
<path d="M106.091 31.0685C106.176 31.0756 106.262 31.0828 106.347 31.0899C107.467 31.4626 107.829 32.2293 107.796 33.393C107.723 35.8752 107.8 38.3602 107.762 40.8424C107.752 41.5332 108.006 41.6894 108.641 41.6822C111.283 41.655 113.924 41.6679 116.566 41.6707C117.587 41.6722 118.391 42.4031 118.383 43.3002C118.373 44.2103 117.583 44.9025 116.545 44.9039C113.952 44.9053 111.359 44.9039 108.765 44.9068C107.77 44.9068 107.774 44.9096 107.774 45.8956C107.775 48.4982 107.772 51.1022 107.774 53.7047C107.774 54.4385 107.522 55.0247 106.801 55.2998C105.605 55.7584 104.534 55.0347 104.527 53.7506C104.513 51.0993 104.504 48.4495 104.534 45.7982C104.542 45.1289 104.372 44.8824 103.651 44.8924C101.034 44.9326 98.4159 44.8695 95.799 44.9225C94.6967 44.9455 93.9257 44.2346 93.9171 43.3002C93.9084 42.3429 94.7139 41.6693 95.8034 41.6679C98.3727 41.6679 100.942 41.6707 103.511 41.6693C104.519 41.6693 104.52 41.665 104.52 40.7005C104.52 38.2886 104.52 35.8766 104.52 33.4646C104.52 31.8423 104.648 31.6431 106.089 31.067L106.091 31.0685Z" fill="#3A86FF"/>
<path d="M125.726 86.0963C125.696 86.0204 125.665 85.943 125.634 85.867C125.623 85.7739 125.623 85.6764 125.602 85.5861C125.252 84.1458 125.948 83.2544 127.431 83.253C128.246 83.253 129.063 83.2415 129.879 83.2602C130.84 83.2817 131.532 83.9681 131.54 84.8753C131.549 85.804 130.905 86.5521 129.942 86.5478C128.527 86.5435 127.066 86.8358 125.726 86.0949V86.0963Z" fill="#3A86FF"/>
<path d="M74.8122 3.37471C74.6263 3.35608 74.4404 3.33745 74.2545 3.31882C73.2746 2.7384 72.9216 2.04047 73.1651 1.16769C73.3654 0.451124 74.1321 0.0097202 75.1883 0.00828707C75.9549 0.00828707 76.723 -0.00891049 77.4882 0.018319C78.4537 0.0527141 79.2304 0.823738 79.2088 1.68362C79.1857 2.57502 78.4292 3.29159 77.4666 3.31882C76.5818 3.34318 75.697 3.35608 74.8122 3.37328V3.37471Z" fill="#3A86FF"/>
<path d="M143.299 81.4158C144.055 81.4101 144.684 81.8558 144.939 82.5451C145.179 83.1972 145.007 83.9052 144.437 84.3408C143.478 85.0746 142.395 85.5905 141.232 85.9158C140.469 86.1294 139.714 85.7295 139.395 85.0273C139.067 84.3022 139.211 83.3935 139.845 83.0338C140.861 82.4577 141.937 81.9833 142.991 81.4746C143.094 81.4244 143.224 81.4302 143.297 81.4173L143.299 81.4158Z" fill="#3A86FF"/>
<path d="M100.797 2.307C100.781 2.23535 100.765 2.16512 100.749 2.09347C100.882 0.47403 101.408 0.00109762 103.071 0.00539701C103.765 0.00683014 104.46 -0.0103674 105.153 0.0154289C106.114 0.0512572 106.898 0.83088 106.87 1.68503C106.842 2.58933 106.101 3.29013 105.13 3.31736C104.246 3.34172 103.362 3.35176 102.478 3.36895C102.292 3.35319 102.105 3.33599 101.919 3.32023C101.438 3.10096 101.14 2.67818 100.798 2.30557L100.797 2.307Z" fill="#3A86FF"/>
<path d="M141.935 3.37465C141.967 3.23993 142 3.10522 142.032 2.97051C142.536 2.30553 143.128 1.83403 144.042 2.0662C144.501 2.18228 144.865 2.48038 145.187 2.78133C146.078 3.61255 147.238 4.25459 147.376 5.65619C147.363 5.74791 147.352 5.83963 147.34 5.93135C146.538 7.25127 145.369 7.58519 144.509 6.66368C143.742 5.8425 142.823 5.20332 142.027 4.42227C142.017 4.36064 142.007 4.29758 141.996 4.23596C141.975 3.94933 141.954 3.66271 141.934 3.37608L141.935 3.37465Z" fill="#3A86FF"/>
<path d="M62.3071 21.908C62.3071 21.4551 62.2956 21.0022 62.31 20.5508C62.3388 19.6651 62.9094 18.9973 63.6977 18.8998C64.6243 18.7866 65.401 19.2552 65.5537 20.181C65.7468 21.3533 65.7555 22.5529 65.548 23.728C65.4168 24.4661 64.6387 24.9935 63.9081 24.9476C63.0564 24.8946 62.3806 24.2898 62.3215 23.4772C62.284 22.9556 62.3143 22.4296 62.3143 21.9065H62.3071V21.908Z" fill="#3A86FF"/>
<path d="M130.286 3.37178C130.051 3.35458 129.817 3.33738 129.583 3.32019C129.123 3.10808 128.812 2.7326 128.508 2.34996C128.482 2.2611 128.456 2.17225 128.43 2.0834C128.508 0.522717 129.07 0.00249112 130.673 0.00535738C131.391 0.00535738 132.11 -0.0118402 132.826 0.0153893C133.786 0.0512175 134.561 0.827974 134.535 1.68785C134.508 2.57783 133.744 3.29869 132.792 3.32305C131.956 3.34455 131.12 3.35458 130.286 3.37035V3.37178Z" fill="#3A86FF"/>
<path d="M149.993 17.2918C149.993 17.7432 150.006 18.1961 149.99 18.6475C149.96 19.5303 149.385 20.1695 148.565 20.2526C147.649 20.3458 146.827 19.8399 146.722 18.9528C146.584 17.779 146.532 16.5795 146.768 15.4086C146.927 14.6261 147.715 14.1331 148.496 14.2163C149.251 14.2965 149.938 14.9701 149.984 15.7225C150.016 16.2441 149.99 16.7687 149.99 17.2918H149.993Z" fill="#3A86FF"/>
<path d="M146.715 42.9276C146.741 42.8402 146.765 42.7527 146.791 42.6653C147.438 41.8599 148.1 41.5776 148.801 41.8112C149.607 42.0777 149.982 42.6983 149.986 43.7817C149.989 44.5427 149.979 45.3051 149.985 46.0661C149.987 46.486 149.885 46.8587 149.607 47.1854C148.714 48.2287 147.36 47.9091 146.659 46.4832C146.649 45.3997 146.638 44.3163 146.627 43.2314C146.752 43.1583 146.757 43.0494 146.715 42.9276Z" fill="#3A86FF"/>
<path d="M146.659 60.2399C146.649 59.1564 146.637 58.073 146.627 56.9881C146.754 56.915 146.758 56.8061 146.715 56.6843C146.741 56.5968 146.767 56.5094 146.793 56.422C147.435 55.608 148.092 55.3285 148.804 55.5678C149.613 55.8387 149.983 56.4535 149.987 57.5398C149.99 58.3008 149.98 59.0633 149.986 59.8242C149.989 60.2442 149.887 60.6168 149.608 60.9435C148.715 61.9868 147.362 61.6658 146.66 60.2413L146.659 60.2399Z" fill="#3A86FF"/>
<path d="M146.659 32.7251C146.649 31.6417 146.638 30.5582 146.627 29.4733C146.752 29.4002 146.758 29.2913 146.715 29.1695C146.741 29.0821 146.767 28.9947 146.793 28.9058C147.43 28.1076 148.101 27.8209 148.804 28.0531C149.608 28.3182 149.985 28.9402 149.987 30.0237C149.99 30.7846 149.98 31.5471 149.986 32.3081C149.989 32.728 149.887 33.1006 149.608 33.4273C148.716 34.4721 147.362 34.1511 146.66 32.7251H146.659Z" fill="#3A86FF"/>
<path d="M149.991 72.2911C149.991 72.7669 150.009 73.2427 149.988 73.7185C149.952 74.5769 149.341 75.2146 148.52 75.282C147.631 75.3551 146.84 74.8664 146.729 74.0051C146.576 72.8313 146.539 71.6333 146.763 70.461C146.918 69.657 147.664 69.1754 148.467 69.2414C149.248 69.3058 149.945 70.0009 149.985 70.792C150.011 71.2907 149.99 71.7909 149.991 72.2911Z" fill="#3A86FF"/>
<path d="M116.309 3.37037C116.123 3.3546 115.936 3.3374 115.75 3.32164C114.777 2.71686 114.437 2.07052 114.653 1.2393C114.856 0.455379 115.632 0.00537614 116.769 0.00680927C117.486 0.0082424 118.204 -0.00465577 118.92 0.0139749C119.923 0.0397713 120.731 0.812228 120.703 1.69217C120.674 2.60651 119.894 3.30874 118.886 3.32737C118.027 3.34314 117.168 3.35603 116.308 3.37037H116.309Z" fill="#3A86FF"/>
<path d="M88.6442 3.37042C88.4583 3.35465 88.2709 3.33745 88.085 3.32169C87.1152 2.71834 86.7694 2.06197 86.9841 1.23792C87.1887 0.458295 87.9698 0.00399283 89.1024 0.00685909C89.8431 0.00829222 90.5852 -0.00890535 91.3259 0.0183241C92.2827 0.0541524 93.0652 0.838075 93.0378 1.69222C93.009 2.58363 92.2481 3.30019 91.2927 3.32312C90.4094 3.34462 89.5261 3.35465 88.6427 3.36898L88.6442 3.37042Z" fill="#3A86FF"/>
<path d="M65.5011 5.4025C66.7332 5.4068 67.5387 6.57194 67.0315 7.69121C66.6583 8.51383 66.2764 9.32928 65.9435 10.172C65.5847 11.0806 64.674 11.4331 63.8238 11.1006C62.9649 10.7638 62.5456 9.91543 62.8295 9.00253C63.1422 8.00077 63.5572 7.03914 64.1235 6.14916C64.4405 5.65043 64.9016 5.39247 65.5026 5.4025H65.5011Z" fill="#3A86FF"/>
<path d="M87.6457 41.5232C87.441 40.2133 86.9381 39.0051 86.4568 37.7855L86.4611 37.787C85.6153 36.4556 84.7348 35.1572 83.5186 34.1153C81.0141 31.9685 78.1176 30.9051 74.8119 30.9051C59.8325 30.9094 44.8517 30.9065 29.8723 30.9065C24.2062 30.9065 18.5416 30.8908 12.8755 30.9108C6.66759 30.9323 1.58944 35.0167 0.249296 41.0259C0.0417895 41.966 2.01308e-10 42.9176 2.01308e-10 43.8735C0.00288204 64.2153 -0.00576408 84.5557 0.00864611 104.898C0.0129692 111.921 5.67185 117.551 12.7242 117.576C17.8744 117.595 23.0246 117.584 28.1748 117.578C32.4762 117.584 42.095 117.584 44.6874 117.576C45.8864 117.574 46.6198 116.887 46.6026 115.825C46.5867 114.796 45.8604 114.153 44.6903 114.147C43.2032 114.14 41.7161 114.146 40.2289 114.146C39.1453 114.146 33.0743 114.146 29.3968 114.146C29.2829 114.136 29.1648 114.131 29.0437 114.131C23.6169 114.157 18.1914 114.171 12.7645 114.136C8.04809 114.104 4.26398 110.811 3.54347 106.179C3.46997 105.71 3.457 105.227 3.457 104.751C3.45268 84.4067 3.44404 64.062 3.457 43.7158C3.45989 38.4133 7.60714 34.3374 12.9317 34.3374C33.557 34.3374 54.1823 34.3346 74.8076 34.3403C79.1148 34.3403 82.6035 36.8397 83.9249 40.8295C84.2204 41.7224 84.3529 42.6367 84.3529 43.5754C84.3515 49.9743 84.3529 56.3747 84.3529 62.7736C84.3529 62.8911 84.3284 63.0101 84.3155 63.1276C84.3241 63.2222 84.3328 63.3168 84.3428 63.4113C84.6282 63.9688 84.9236 64.5149 85.6037 64.684C86.8272 64.9878 87.8013 64.1924 87.8027 62.851C87.8099 57.4567 87.8157 52.0624 87.7984 46.6695C87.7926 44.9541 87.9151 43.2343 87.6471 41.5246L87.6457 41.5232Z" fill="#3A86FF"/>
</svg>
