<svg width="150" height="150" viewBox="0 0 150 150" fill="none" xmlns="http://www.w3.org/2000/svg">
<path d="M1.06656 144.781C1.31233 144.549 1.88924 144.634 2.31612 144.631C10.1629 144.626 18.0097 144.631 25.8564 144.631C26.3531 144.631 26.8499 144.631 27.419 144.631C27.419 143.985 27.419 143.555 27.419 143.126C27.419 136.337 27.419 129.548 27.419 122.762C27.419 112.652 27.419 35.2735 27.4216 25.163C27.4216 23.1606 27.9416 22.6431 29.9415 22.6405C36.3239 22.6354 42.7038 22.6405 49.0862 22.638H50.5143C50.5635 22.268 50.6437 22.0145 50.6204 21.7687C50.2401 17.4637 53.5102 13.0656 59.3649 13.3346C60.9456 13.4071 62.5315 13.345 64.0864 13.345C65.1989 6.01566 68.5854 2.34711 74.5462 2.01596C76.9884 1.88143 79.2496 2.60065 81.221 4.04944C84.3203 6.32353 85.6527 9.52122 85.7252 13.3476C87.6345 13.3476 89.3963 13.3346 91.1607 13.3476C95.89 13.389 99.1239 16.5479 99.2662 21.2513C99.2791 21.6704 99.3102 22.0895 99.3386 22.6354C99.8819 22.6354 100.348 22.6354 100.813 22.6354C107.237 22.6354 113.661 22.6302 120.087 22.638C121.873 22.638 122.416 23.189 122.436 24.9327C122.439 25.2768 122.436 25.6235 122.436 25.9676C122.436 64.9867 122.434 104.008 122.431 143.027C122.431 143.524 122.431 144.021 122.431 144.631H124.162C131.836 144.631 139.512 144.631 147.185 144.631C147.614 144.631 148.052 144.616 148.476 144.668C149.431 144.784 149.987 145.408 150 146.305C150.013 147.244 149.498 147.946 148.489 148.114C148.153 148.171 147.801 148.15 147.457 148.15C136.937 148.168 126.418 148.202 115.896 148.199C78.1267 148.189 40.3573 148.165 2.58778 148.142C2.11433 148.142 1.51413 148.264 1.1985 148.026C0.673325 147.63 0.0213623 147.001 0.000656128 146.45C-0.0226288 145.894 0.585358 145.232 1.06656 144.774V144.781ZM74.8333 5.55774C70.9863 5.60689 67.786 8.86926 67.8145 12.7111C67.8455 16.6927 70.9992 19.8258 74.9808 19.8283C78.8925 19.8335 82.1109 16.5634 82.0695 12.6258C82.0281 8.7011 78.758 5.506 74.8333 5.55774ZM95.6054 20.5139C95.4553 18.4365 93.6625 16.9851 91.5177 16.9308C89.536 16.8816 87.5517 16.879 85.5699 16.9515C85.1715 16.967 84.6256 17.3188 84.4264 17.6733C82.3671 21.3289 79.2522 23.3184 75.0843 23.3727C70.7974 23.4296 67.6127 21.4065 65.4498 17.7069C65.2299 17.3292 64.6349 16.9721 64.1977 16.954C62.3039 16.8713 60.4049 16.8945 58.5086 16.9256C55.9809 16.967 54.2062 18.7392 54.1699 21.259C54.1415 23.4038 54.1648 25.5485 54.1648 27.7838H95.6442C95.6442 25.3131 95.7761 22.9018 95.6028 20.5139H95.6054ZM31.0928 144.484H118.776V26.2832H99.2584C99.2584 27.2379 99.2662 28.2029 99.2584 29.1705C99.2429 30.8236 98.6608 31.4394 96.9973 31.4394C82.2972 31.4471 67.5971 31.4471 52.8997 31.4368C51.2129 31.4368 50.6825 30.8728 50.6463 29.1679C50.6256 28.2287 50.6437 27.2896 50.6437 26.2729H31.0721C31.0358 26.692 30.9789 27.0645 30.9789 27.4371C30.9789 36.7119 31.1005 144.487 31.1005 144.487L31.0928 144.484Z" fill="#FF9210"/>
<path d="M62.1643 66.808C55.4429 66.808 48.7216 66.808 42.0002 66.808C41.6122 66.808 41.2215 66.7977 40.8386 66.8365C39.8762 66.9348 39.3614 67.5557 39.276 68.4483C39.1854 69.3744 39.6925 70.0212 40.5851 70.2696C41.0301 70.3938 41.5242 70.3782 41.9951 70.3782C55.3938 70.3808 68.7951 70.3782 82.1938 70.3782C82.4965 70.3782 82.7992 70.3912 83.0993 70.3679C84.3231 70.2696 85.0397 69.5659 84.9983 68.5233C84.9569 67.4936 84.2066 66.8209 82.9777 66.8184C76.0417 66.8054 69.103 66.8132 62.1669 66.8132V66.808H62.1643Z" fill="#FF9210"/>
<path d="M62.1355 40.9652C55.2873 40.9652 48.4392 40.9756 41.5885 40.9549C40.5485 40.9523 39.6481 41.1411 39.3687 42.2665C39.1204 43.2626 39.4722 44.0879 40.5226 44.3906C41.0452 44.5406 41.6247 44.5432 42.1784 44.5432C55.4451 44.551 68.7119 44.5484 81.9787 44.5484C82.3668 44.5484 82.7549 44.5639 83.1404 44.5329C84.2916 44.4423 85.1118 43.6429 84.9876 42.6365C84.8556 41.5499 84.2114 40.9678 83.0653 40.9704C79.7926 40.9807 76.5173 40.973 73.2446 40.973C69.5398 40.973 65.8351 40.973 62.1329 40.973V40.9626L62.1355 40.9652Z" fill="#FF9210"/>
<path d="M62.0435 54.3432C55.4955 54.3432 48.9449 54.3432 42.3969 54.3483C41.838 54.3483 41.2689 54.3276 40.7204 54.413C39.7658 54.5605 39.2742 55.2564 39.2794 56.1361C39.2845 57.0131 39.7709 57.6961 40.7359 57.841C41.0748 57.8927 41.4241 57.8798 41.7682 57.8798C55.3842 57.8824 68.9977 57.8849 82.6138 57.8849C82.9579 57.8849 83.3123 57.9005 83.6434 57.828C84.5774 57.6211 85.1673 56.9303 84.9577 56.0688C84.8051 55.4453 84.1842 54.7856 83.5969 54.4648C83.0898 54.1879 82.3344 54.3483 81.6902 54.3483C75.1421 54.3432 68.5915 54.3458 62.0435 54.3483V54.3432Z" fill="#FF9210"/>
<path d="M62.2151 132.635C68.8925 132.635 75.5698 132.635 82.2472 132.635C82.6353 132.635 83.0259 132.643 83.4088 132.604C84.4204 132.5 84.9922 131.9 84.9999 130.907C85.0077 129.859 84.4385 129.217 83.3571 129.122C83.0156 129.091 82.6689 129.096 82.3248 129.096C68.8847 129.096 55.4446 129.096 42.0044 129.096C41.6164 129.096 41.2257 129.085 40.8428 129.137C39.8312 129.274 39.2802 129.921 39.3061 130.894C39.3319 131.843 39.8468 132.539 40.8946 132.599C41.7535 132.645 42.6176 132.63 43.4765 132.63C49.7218 132.63 55.9697 132.63 62.2151 132.63V132.635Z" fill="#FF9210"/>
<path d="M59.0011 79.2573C53.356 79.2573 47.7135 79.2573 42.0684 79.2573C41.7243 79.2573 41.3776 79.2392 41.0335 79.2651C39.9107 79.3478 39.1656 80.0541 39.2277 81.0553C39.2975 82.1678 39.9443 82.7628 41.0645 82.8224C41.3647 82.8379 41.6674 82.8275 41.97 82.8275C53.431 82.8301 64.892 82.8353 76.353 82.8353C76.7824 82.8353 77.2274 82.8508 77.6362 82.7473C78.5417 82.5197 79.0436 81.8832 78.997 80.957C78.9505 80.0386 78.4072 79.4513 77.4836 79.2883C77.1472 79.2288 76.7954 79.2573 76.4513 79.2573C70.6354 79.2573 64.817 79.2573 59.0011 79.2573Z" fill="#FF9210"/>
<path d="M56.062 95.2794C60.8017 95.2794 65.5387 95.2794 70.2783 95.2794C70.6224 95.2794 70.9717 95.3027 71.3106 95.2613C72.3532 95.1371 73.0051 94.5343 73 93.4891C72.9948 92.4543 72.3687 91.8333 71.3132 91.7221C71.0156 91.691 70.7104 91.7014 70.4103 91.7014C60.8042 91.7014 51.1982 91.7014 41.5922 91.7014C41.4189 91.7014 41.2481 91.6962 41.0748 91.704C39.9623 91.748 39.2897 92.3223 39.1862 93.427C39.0905 94.4515 39.8951 95.238 41.0722 95.2639C42.8366 95.3027 44.6036 95.2742 46.3707 95.2768C49.602 95.2768 52.8333 95.2768 56.062 95.2768V95.2794Z" fill="#FF9210"/>
<path d="M96.8325 125.779C99.7715 122.817 102.586 119.981 105.401 117.146C106.221 116.321 107.023 115.48 107.874 114.688C108.788 113.837 109.791 113.785 110.531 114.479C111.279 115.182 111.271 116.354 110.394 117.236C106.211 121.453 102.012 125.655 97.7871 129.831C96.7807 130.824 95.5777 130.677 94.8507 129.476C93.5365 127.306 92.2869 125.096 91.0425 122.882C90.5018 121.917 90.6725 120.993 91.6298 120.416C92.5974 119.831 93.4977 120.15 94.0772 121.078C95.0034 122.563 95.8545 124.098 96.8351 125.777L96.8325 125.779Z" fill="#FF9210"/>
<path d="M96.8325 88.7791C99.7715 85.8169 102.586 82.9814 105.401 80.1459C106.221 79.3206 107.023 78.4798 107.874 77.6881C108.788 76.837 109.791 76.7852 110.531 77.4786C111.279 78.1823 111.271 79.3542 110.394 80.2364C106.211 84.4535 102.012 88.655 97.7871 92.8306C96.7807 93.824 95.5777 93.6766 94.8507 92.4761C93.5365 90.3055 92.2869 88.0961 91.0425 85.8816C90.5018 84.9166 90.6725 83.9929 91.6298 83.416C92.5974 82.8313 93.4977 83.1495 94.0772 84.0783C95.0034 85.5633 95.8545 87.0975 96.8351 88.7765L96.8325 88.7791Z" fill="#FF9210"/>
<path d="M96.8637 51.6397C99.2723 49.1793 101.546 46.8457 103.836 44.5251C105.135 43.2082 106.449 41.9017 107.774 40.6107C108.777 39.6302 109.851 39.55 110.604 40.352C111.336 41.1307 111.22 42.251 110.26 43.2108C106.183 47.2907 102.1 51.368 98.0072 55.435C96.7369 56.6975 95.5753 56.5423 94.6569 54.9926C93.472 52.9953 92.3129 50.9799 91.1694 48.9594C90.5123 47.7978 90.696 46.7991 91.6092 46.2351C92.5665 45.6401 93.5418 45.9816 94.2662 47.1976C95.0993 48.592 95.9065 49.9994 96.8637 51.6423V51.6397Z" fill="#FF9210"/>
<path d="M53.0953 107.726C57.0148 107.726 60.9343 107.736 64.8512 107.723C66.3181 107.718 67.2107 106.839 66.9571 105.623C66.6907 104.347 65.7153 104.145 64.5899 104.145C57.4417 104.158 50.2934 104.151 43.1452 104.151C42.413 104.151 41.6783 104.109 40.9487 104.166C39.8725 104.251 39.1584 104.81 39.1196 105.949C39.0834 106.976 39.8958 107.713 41.0807 107.718C45.0855 107.739 49.0904 107.726 53.0953 107.726Z" fill="#FF9210"/>
<path d="M53.0875 120.173C56.963 120.173 60.8385 120.175 64.714 120.17C66.2068 120.17 66.9597 119.601 66.9985 118.486C67.0399 117.306 66.2379 116.618 64.7399 116.618C56.9449 116.608 49.1499 116.6 41.3549 116.613C39.5853 116.615 38.5219 117.994 39.3964 119.226C39.7612 119.741 40.6615 120.121 41.329 120.134C45.2459 120.217 49.1654 120.175 53.0849 120.175L53.0875 120.173Z" fill="#FF9210"/>
</svg>
