<svg width="150" height="150" viewBox="0 0 150 150" fill="none" xmlns="http://www.w3.org/2000/svg">
<path d="M39.1663 29.1674V34.9607C23.4916 37.2801 22.6867 38.2863 24.7308 53.2196H124.847C128.205 39.5996 125.811 36.4011 110.825 35.1831C110.719 33.478 110.603 31.6775 110.454 29.2839C114.161 29.2839 117.487 28.998 120.749 29.3475C127.156 30.0253 131.869 35.2573 131.901 42.0355C132.028 66.0347 132.039 90.0444 131.901 114.044C131.859 121.775 126.584 126.912 118.747 126.943C89.6218 127.06 60.5071 127.06 31.3819 126.943C22.9833 126.912 17.8996 121.69 17.8678 113.27C17.7937 89.7903 17.7937 66.3206 17.8784 42.851C17.9102 34.4947 23.0786 29.4216 31.4243 29.178C33.8708 29.1039 36.3173 29.1674 39.1557 29.1674H39.1663ZM125.61 60.3791H24.3071C24.3071 78.6697 24.1695 96.6003 24.4131 114.531C24.466 118.598 27.5374 120.599 31.6891 120.599C60.5919 120.589 89.4947 120.599 118.408 120.578C122.877 120.578 125.515 118.1 125.546 113.779C125.695 96.1766 125.61 78.5638 125.61 60.3791Z" fill="#3A86FF"/>
<path d="M96.9935 29.5382V35.2256H52.8079C52.7232 33.3192 52.649 31.6246 52.5537 29.5382H96.9935Z" fill="#3A86FF"/>
<path d="M49.2061 25.2171C49.2061 23.4798 47.7978 22.0715 46.0606 22.0715C44.3233 22.0715 42.915 23.4798 42.915 25.2171V39.822C42.915 41.5593 44.3233 42.9676 46.0606 42.9676C47.7978 42.9676 49.2061 41.5593 49.2061 39.822V25.2171Z" fill="#3A86FF"/>
<path d="M107.743 25.2171C107.743 23.4798 106.335 22.0715 104.598 22.0715C102.86 22.0715 101.452 23.4798 101.452 25.2171V39.822C101.452 41.5593 102.86 42.9676 104.598 42.9676C106.335 42.9676 107.743 41.5593 107.743 39.822V25.2171Z" fill="#3A86FF"/>
<path d="M49.0152 69.2544H41.4427C38.9977 69.2544 37.0156 71.2364 37.0156 73.6814V81.254C37.0156 83.699 38.9977 85.681 41.4427 85.681H49.0152C51.4602 85.681 53.4422 83.699 53.4422 81.254V73.6814C53.4422 71.2364 51.4602 69.2544 49.0152 69.2544Z" fill="#3A86FF"/>
<path d="M78.565 69.2544H70.9925C68.5475 69.2544 66.5654 71.2364 66.5654 73.6814V81.254C66.5654 83.699 68.5475 85.681 70.9925 85.681H78.565C81.01 85.681 82.9921 83.699 82.9921 81.254V73.6814C82.9921 71.2364 81.01 69.2544 78.565 69.2544Z" fill="#3A86FF"/>
<path d="M108.114 69.2544H100.541C98.0963 69.2544 96.1143 71.2364 96.1143 73.6814V81.254C96.1143 83.699 98.0963 85.681 100.541 85.681H108.114C110.559 85.681 112.541 83.699 112.541 81.254V73.6814C112.541 71.2364 110.559 69.2544 108.114 69.2544Z" fill="#A0C5FF"/>
<path d="M49.0152 94.9482H41.4427C38.9977 94.9482 37.0156 96.9303 37.0156 99.3753V106.948C37.0156 109.393 38.9977 111.375 41.4427 111.375H49.0152C51.4602 111.375 53.4422 109.393 53.4422 106.948V99.3753C53.4422 96.9303 51.4602 94.9482 49.0152 94.9482Z" fill="#3A86FF"/>
<path d="M78.565 94.9482H70.9925C68.5475 94.9482 66.5654 96.9303 66.5654 99.3753V106.948C66.5654 109.393 68.5475 111.375 70.9925 111.375H78.565C81.01 111.375 82.9921 109.393 82.9921 106.948V99.3753C82.9921 96.9303 81.01 94.9482 78.565 94.9482Z" fill="#3A86FF"/>
<path d="M108.114 94.9482H100.541C98.0963 94.9482 96.1143 96.9303 96.1143 99.3753V106.948C96.1143 109.393 98.0963 111.375 100.541 111.375H108.114C110.559 111.375 112.541 109.393 112.541 106.948V99.3753C112.541 96.9303 110.559 94.9482 108.114 94.9482Z" fill="#3A86FF"/>
</svg>
