<svg width="150" height="150" viewBox="0 0 150 150" fill="none" xmlns="http://www.w3.org/2000/svg">
<path d="M148.933 144.781C148.688 144.549 148.111 144.634 147.684 144.631C139.837 144.626 131.99 144.631 124.144 144.631C123.647 144.631 123.15 144.631 122.581 144.631C122.581 143.985 122.581 143.555 122.581 143.126C122.581 136.337 122.581 129.548 122.581 122.762C122.581 112.652 122.581 35.2735 122.578 25.163C122.578 23.1606 122.058 22.6431 120.059 22.6405C113.676 22.6354 107.296 22.6405 100.914 22.638H99.4857C99.4365 22.268 99.3563 22.0145 99.3796 21.7687C99.7599 17.4637 96.4898 13.0656 90.6351 13.3346C89.0544 13.4071 87.4685 13.345 85.9136 13.345C84.8011 6.01566 81.4146 2.34711 75.4538 2.01596C73.0116 1.88143 70.7504 2.60065 68.7791 4.04944C65.6797 6.32353 64.3473 9.52122 64.2749 13.3476C62.3656 13.3476 60.6037 13.3346 58.8393 13.3476C54.11 13.389 50.8761 16.5479 50.7338 21.2513C50.7209 21.6704 50.6898 22.0895 50.6614 22.6354C50.1181 22.6354 49.6524 22.6354 49.1867 22.6354C42.7629 22.6354 36.339 22.6302 29.9126 22.638C28.1275 22.638 27.5842 23.189 27.5635 24.9327C27.5609 25.2768 27.5635 25.6235 27.5635 25.9676C27.5635 64.9867 27.5661 104.008 27.5687 143.027C27.5687 143.524 27.5687 144.021 27.5687 144.631H25.8379C18.1645 144.631 10.4885 144.631 2.81503 144.631C2.38557 144.631 1.94835 144.616 1.52406 144.668C0.569406 144.784 0.0131735 145.408 0.000237849 146.305C-0.0126978 147.244 0.502141 147.946 1.51112 148.114C1.84745 148.171 2.1993 148.15 2.54339 148.15C13.0626 148.168 23.5819 148.202 34.1038 148.199C71.8733 148.189 109.643 148.165 147.412 148.142C147.886 148.142 148.486 148.264 148.802 148.026C149.327 147.63 149.979 147.001 149.999 146.45C150.023 145.894 149.415 145.232 148.933 144.774V144.781ZM75.1667 5.55774C79.0137 5.60689 82.214 8.86926 82.1856 12.7111C82.1545 16.6927 79.0008 19.8258 75.0192 19.8283C71.1075 19.8335 67.8891 16.5634 67.9305 12.6258C67.9719 8.7011 71.242 5.506 75.1667 5.55774ZM54.3946 20.5139C54.5447 18.4365 56.3376 16.9851 58.4823 16.9308C60.464 16.8816 62.4483 16.879 64.4301 16.9515C64.8285 16.967 65.3744 17.3188 65.5736 17.6733C67.633 21.3289 70.7479 23.3184 74.9157 23.3727C79.2026 23.4296 82.3873 21.4065 84.5502 17.7069C84.7701 17.3292 85.3651 16.9721 85.8024 16.954C87.6961 16.8713 89.5951 16.8945 91.4915 16.9256C94.0191 16.967 95.7938 18.7392 95.8301 21.259C95.8585 23.4038 95.8352 25.5485 95.8352 27.7838H54.3558C54.3558 25.3131 54.2239 22.9018 54.3972 20.5139H54.3946ZM118.907 144.484H31.2243V26.2832H50.7416C50.7416 27.2379 50.7338 28.2029 50.7416 29.1705C50.7571 30.8236 51.3392 31.4394 53.0027 31.4394C67.7028 31.4471 82.4029 31.4471 97.1003 31.4368C98.7872 31.4368 99.3175 30.8728 99.3537 29.1679C99.3744 28.2287 99.3563 27.2896 99.3563 26.2729H118.928C118.964 26.692 119.021 27.0645 119.021 27.4371C119.021 36.7119 118.899 144.487 118.899 144.487L118.907 144.484Z" fill="#3A86FF"/>
<path d="M88.3738 66.808C95.0951 66.808 101.816 66.808 108.538 66.808C108.926 66.808 109.317 66.7977 109.699 66.8365C110.662 66.9348 111.177 67.5557 111.262 68.4483C111.353 69.3744 110.846 70.0212 109.953 70.2696C109.508 70.3938 109.014 70.3782 108.543 70.3782C95.1443 70.3808 81.743 70.3782 68.3442 70.3782C68.0415 70.3782 67.7388 70.3912 67.4387 70.3679C66.215 70.2696 65.4984 69.5659 65.5398 68.5233C65.5812 67.4936 66.3315 66.8209 67.5603 66.8184C74.4964 66.8054 81.4351 66.8132 88.3712 66.8132V66.808H88.3738Z" fill="#3A86FF"/>
<path d="M88.1155 40.9652C94.9636 40.9652 101.812 40.9756 108.662 40.9549C109.703 40.9523 110.603 41.1411 110.882 42.2665C111.131 43.2626 110.779 44.0879 109.728 44.3906C109.206 44.5406 108.626 44.5432 108.073 44.5432C94.8058 44.551 81.539 44.5484 68.2722 44.5484C67.8842 44.5484 67.4961 44.5639 67.1106 44.5329C65.9593 44.4423 65.1392 43.6429 65.2634 42.6365C65.3953 41.5499 66.0395 40.9678 67.1856 40.9704C70.4584 40.9807 73.7337 40.973 77.0064 40.973C80.7111 40.973 84.4159 40.973 88.1181 40.973V40.9626L88.1155 40.9652Z" fill="#3A86FF"/>
<path d="M88.5209 54.3432C95.069 54.3432 101.62 54.3432 108.168 54.3483C108.726 54.3483 109.296 54.3276 109.844 54.413C110.799 54.5605 111.29 55.2564 111.285 56.1361C111.28 57.0131 110.794 57.6961 109.829 57.841C109.49 57.8927 109.14 57.8798 108.796 57.8798C95.1802 57.8824 81.5667 57.8849 67.9507 57.8849C67.6066 57.8849 67.2522 57.9005 66.921 57.828C65.9871 57.6211 65.3972 56.9303 65.6067 56.0688C65.7594 55.4453 66.3803 54.7856 66.9676 54.4648C67.4746 54.1879 68.2301 54.3483 68.8743 54.3483C75.4223 54.3432 81.9729 54.3458 88.5209 54.3483V54.3432Z" fill="#3A86FF"/>
<path d="M88.3504 132.635C81.673 132.635 74.9956 132.635 68.3182 132.635C67.9301 132.635 67.5395 132.643 67.1566 132.604C66.145 132.5 65.5733 131.9 65.5655 130.907C65.5577 129.859 66.1269 129.217 67.2083 129.122C67.5498 129.091 67.8965 129.096 68.2406 129.096C81.6807 129.096 95.1209 129.096 108.561 129.096C108.949 129.096 109.34 129.085 109.723 129.137C110.734 129.274 111.285 129.921 111.259 130.894C111.234 131.843 110.719 132.539 109.671 132.599C108.812 132.645 107.948 132.63 107.089 132.63C100.844 132.63 94.5957 132.63 88.3504 132.63V132.635Z" fill="#3A86FF"/>
<path d="M85.5487 79.2573C91.1938 79.2573 96.8363 79.2573 102.481 79.2573C102.826 79.2573 103.172 79.2392 103.516 79.2651C104.639 79.3478 105.384 80.0541 105.322 81.0553C105.252 82.1678 104.605 82.7628 103.485 82.8224C103.185 82.8379 102.882 82.8275 102.58 82.8275C91.1188 82.8301 79.6578 82.8353 68.1968 82.8353C67.7674 82.8353 67.3224 82.8508 66.9136 82.7473C66.0081 82.5197 65.5062 81.8832 65.5528 80.957C65.5993 80.0386 66.1426 79.4513 67.0663 79.2883C67.4026 79.2288 67.7544 79.2573 68.0985 79.2573C73.9144 79.2573 79.7328 79.2573 85.5487 79.2573Z" fill="#3A86FF"/>
<path d="M82.4936 95.2794C77.754 95.2794 73.017 95.2794 68.2774 95.2794C67.9333 95.2794 67.584 95.3027 67.2451 95.2613C66.2025 95.1371 65.5505 94.5343 65.5557 93.4891C65.5609 92.4543 66.187 91.8333 67.2425 91.7221C67.54 91.691 67.8453 91.7014 68.1454 91.7014C77.7514 91.7014 87.3574 91.7014 96.9634 91.7014C97.1368 91.7014 97.3075 91.6962 97.4809 91.704C98.5933 91.748 99.266 92.3223 99.3695 93.427C99.4652 94.4515 98.6606 95.238 97.4834 95.2639C95.719 95.3027 93.952 95.2742 92.185 95.2768C88.9537 95.2768 85.7224 95.2768 82.4936 95.2768V95.2794Z" fill="#3A86FF"/>
<path d="M53.5075 85.5078C55.0209 83.9943 56.537 82.4834 58.0505 80.97C59.4216 79.5988 59.626 78.5458 58.7102 77.6507C57.8745 76.8332 56.8242 77.0815 55.5021 78.4035C53.9887 79.917 52.4752 81.4331 50.954 82.9543C49.7949 81.7953 48.6307 80.6311 47.4536 79.4539C46.2842 78.2328 45.314 76.8228 44.2637 77.141C42.3725 78.2276 42.2276 79.3272 43.7902 80.8924C45.3244 82.4317 46.8637 83.9685 48.3979 85.5052C47.2699 86.6332 46.1367 87.7664 44.9932 88.9099C43.7721 90.0793 42.3621 91.0494 42.6803 92.0998C43.7669 93.991 44.8665 94.1359 46.4317 92.5732C47.9374 91.0701 49.4431 89.5644 50.9488 88.0613C52.4312 89.5437 53.9111 91.0287 55.3935 92.5112C56.7647 93.8823 57.8176 94.0867 58.7128 93.1709C59.5303 92.3352 59.2819 91.2849 57.9599 89.9628C56.4775 88.4804 54.9951 86.998 53.5049 85.5104L53.5075 85.5078Z" fill="#3A86FF"/>
<path d="M45.0161 126.33C47.9551 123.368 50.7698 120.532 53.5846 117.697C54.4048 116.872 55.2068 116.031 56.0579 115.239C56.9712 114.388 57.975 114.336 58.7149 115.03C59.4626 115.733 59.4548 116.905 58.5778 117.787C54.3944 122.004 50.1955 126.206 45.9707 130.382C44.9643 131.375 43.7613 131.228 43.0343 130.027C41.7201 127.857 40.4705 125.647 39.2261 123.433C38.6854 122.468 38.8561 121.544 39.8134 120.967C40.7809 120.382 41.6813 120.701 42.2608 121.629C43.187 123.114 44.0381 124.649 45.0187 126.328L45.0161 126.33Z" fill="#3A86FF"/>
<path d="M45.0473 51.6397C47.4559 49.1793 49.73 46.8457 52.0196 44.5251C53.3183 43.2082 54.6326 41.9017 55.9572 40.6107C56.961 39.6302 58.0347 39.55 58.7875 40.352C59.5197 41.1307 59.4033 42.251 58.4434 43.2108C54.3661 47.2907 50.2836 51.368 46.1908 55.435C44.9205 56.6975 43.7589 56.5423 42.8405 54.9926C41.6556 52.9953 40.4965 50.9799 39.353 48.9594C38.6959 47.7978 38.8796 46.7991 39.7928 46.2351C40.7501 45.6401 41.7254 45.9816 42.4498 47.1976C43.2829 48.592 44.0901 49.9994 45.0473 51.6423V51.6397Z" fill="#3A86FF"/>
<path d="M79.4535 107.726C75.534 107.726 71.6145 107.736 67.6976 107.723C66.2307 107.718 65.3382 106.839 65.5917 105.623C65.8582 104.347 66.8335 104.145 67.9589 104.145C75.1072 104.158 82.2554 104.151 89.4036 104.151C90.1358 104.151 90.8705 104.109 91.6001 104.166C92.6763 104.251 93.3904 104.81 93.4292 105.949C93.4654 106.976 92.6531 107.713 91.4682 107.718C87.4633 107.739 83.4584 107.726 79.4535 107.726Z" fill="#3A86FF"/>
<path d="M79.4692 120.173C75.5936 120.173 71.7181 120.175 67.8426 120.17C66.3498 120.17 65.597 119.601 65.5582 118.486C65.5168 117.306 66.3188 116.618 67.8167 116.618C75.6118 116.608 83.4068 116.6 91.2018 116.613C92.9714 116.615 94.0347 117.994 93.1602 119.226C92.7955 119.741 91.8951 120.121 91.2277 120.134C87.3107 120.217 83.3912 120.175 79.4717 120.175L79.4692 120.173Z" fill="#3A86FF"/>
</svg>
