<svg width="150" height="150" viewBox="0 0 150 150" fill="none" xmlns="http://www.w3.org/2000/svg">
<path d="M74.9461 127.358C56.665 127.358 38.3823 127.337 20.1012 127.388C18.1877 127.393 16.8457 126.688 15.7792 125.211C13.6327 122.245 12.221 118.901 10.8756 115.535C7.54186 107.19 4.9293 98.6025 2.38478 89.9944C1.70273 87.6863 1.09211 85.3578 0.376037 83.0599C-0.486311 80.2942 0.231462 77.7854 1.58196 75.4093C3.02261 72.8716 5.19634 71.1435 7.96537 70.225C8.58109 70.0209 8.70866 69.7301 8.70866 69.1449C8.69335 57.4395 8.69505 45.734 8.69675 34.0268C8.69675 28.5976 12.1019 24.2808 17.2335 23.2466C18.0329 23.085 18.8646 23.0204 19.6828 23.0204C31.3865 23.0068 43.092 23.0204 54.7975 23C56.1582 22.9983 57.1685 23.495 58.0121 24.5563C62.4361 30.125 66.8976 35.6648 71.3215 41.2318C71.7502 41.7709 72.1822 41.9904 72.8813 41.9904C92.0689 41.9699 111.258 41.9716 130.446 41.9768C135.754 41.9768 140.047 45.4074 141.07 50.4727C141.231 51.2721 141.289 52.1038 141.291 52.9219C141.309 58.3069 141.313 63.6919 141.286 69.0769C141.282 69.7437 141.456 70.0379 142.126 70.2641C146.774 71.8323 149.987 76.2461 150.001 80.9984C150.001 81.3352 149.986 81.6856 149.896 82.007C146.671 93.3672 143.432 104.727 139.022 115.7C137.843 118.63 136.292 121.413 134.872 124.243C134.596 124.791 134.152 125.257 133.768 125.745C132.863 126.89 131.705 127.376 130.218 127.375C111.794 127.349 93.3718 127.358 74.9478 127.358H74.9461ZM74.9887 75.5165C63.6489 75.5165 52.3108 75.5165 40.971 75.5165C31.3049 75.5165 21.6371 75.5233 11.971 75.5097C10.5575 75.508 9.28356 75.8515 8.15587 76.7088C6.52303 77.9521 5.7049 80.0051 6.18965 81.6873C9.11177 91.8126 12.1598 101.901 15.8745 111.769C17.009 114.785 18.4241 117.697 19.7066 120.656C19.9634 121.25 20.3835 121.427 21.0435 121.427C51.3753 121.408 81.7071 121.41 112.041 121.41C117.654 121.41 123.267 121.396 128.879 121.428C129.606 121.432 130.045 121.214 130.346 120.571C130.849 119.494 131.448 118.457 131.902 117.362C136.778 105.619 140.389 93.454 143.908 81.2586C144.005 80.9219 144.004 80.5256 143.939 80.1769C143.424 77.3568 141.078 75.5182 138.006 75.5182C117 75.5165 95.9946 75.5182 74.9887 75.5182V75.5165ZM24.3041 69.5174C24.3041 69.0718 24.3041 68.7401 24.3041 68.4085C24.3041 65.2346 24.3007 62.0608 24.3075 58.8852C24.3126 56.5516 25.4709 55.3865 27.8198 55.3848C59.2504 55.3797 90.681 55.3797 122.112 55.3831C124.546 55.3831 125.689 56.5516 125.692 58.9856C125.695 62.1883 125.716 65.3911 125.675 68.5939C125.665 69.3559 125.898 69.5464 126.639 69.5345C129.247 69.4885 131.854 69.4902 134.462 69.5327C135.166 69.5447 135.317 69.2912 135.314 68.6517C135.299 63.4079 135.326 58.1658 135.307 52.9219C135.295 49.8501 133.361 47.9809 130.274 47.9809C109.648 47.9809 89.0209 47.9809 68.3943 47.9809C62.414 47.9809 56.4337 47.9843 50.4534 47.9758C49.8904 47.9758 49.3053 47.9758 48.7678 47.8329C47.5738 47.5165 46.7965 46.7239 46.5873 45.4857C46.3764 44.2355 46.7251 43.1027 47.8545 42.4802C48.5348 42.1043 49.4006 41.9189 50.1864 41.9104C54.408 41.8577 58.6313 41.8866 62.8546 41.8866C63.2066 41.8866 63.5604 41.8866 64.0724 41.8866C63.8326 41.543 63.7186 41.3576 63.5825 41.1892C60.5397 37.3844 57.4866 33.5897 54.4641 29.7678C54.0559 29.2524 53.6477 29.0075 52.9792 29.0092C47.5653 29.0245 42.1531 29.0024 36.7392 29.0041C31.0991 29.0058 25.459 29.0075 19.8205 29.0517C19.0177 29.0585 18.1537 29.1589 17.4291 29.4736C15.468 30.324 14.6907 31.9722 14.6907 34.054C14.6941 45.5316 14.6907 57.0109 14.6907 68.4884C14.6907 68.6296 14.6362 68.8133 14.7043 68.9051C14.871 69.1313 15.0921 69.4885 15.2945 69.4902C18.2387 69.5276 21.1829 69.5157 24.299 69.5157L24.3041 69.5174ZM30.4 61.4774C30.4 64.044 30.3881 66.5069 30.4238 68.9698C30.4272 69.1569 30.7351 69.4171 30.9545 69.5004C31.2028 69.594 31.5141 69.526 31.7964 69.526C60.2845 69.526 88.7743 69.526 117.262 69.526C117.802 69.526 118.342 69.4953 118.878 69.5362C119.446 69.5787 119.622 69.3474 119.61 68.8031C119.582 67.5002 119.598 66.1956 119.598 64.891C119.598 63.7651 119.598 62.6391 119.598 61.4774H30.4Z" fill="#3A86FF"/>
</svg>
