<svg width="150" height="150" viewBox="0 0 150 150" fill="none" xmlns="http://www.w3.org/2000/svg">
<path d="M109.854 98.8175C112.287 101.248 114.441 103.404 116.597 105.557C120.021 108.979 123.459 112.392 126.87 115.827C128.331 117.3 128.415 119.145 127.136 120.405C125.82 121.702 124.061 121.621 122.563 120.125C116.361 113.943 110.173 107.749 103.988 101.548C103.694 101.254 103.495 100.867 103.162 100.397C99.4662 104.118 95.9998 107.621 92.5195 111.115C89.5291 114.119 86.5331 117.118 83.5259 120.106C82.1035 121.517 80.4628 121.685 79.158 120.604C77.6488 119.353 77.6516 117.423 79.2168 115.847C82.9267 112.115 86.6535 108.396 90.3803 104.681C92.2479 102.819 94.1351 100.974 96.2771 98.8595H70.4752C70.6488 97.2076 70.8308 95.704 70.954 94.1976C71.0436 93.1112 71.528 92.7696 72.6508 92.778C79.032 92.8368 82.3331 92.806 88.7143 92.806C100.452 92.806 112.189 92.806 123.927 92.806C130.356 92.806 136.782 92.806 143.21 92.8088C143.432 92.8088 143.653 92.8088 143.95 92.8088V34.2555H61.1401V43.7167C59.1885 42.3643 57.2873 41.0707 55.4253 39.7239C55.1957 39.5587 55.0837 39.0995 55.0809 38.7747C55.0557 35.2831 55.0669 31.7943 55.0669 28.1572H95.0283C95.0283 27.2444 95.0003 26.4688 95.0339 25.696C95.1263 23.5008 96.599 22.0616 98.7858 22.0364C101.068 22.0112 103.353 22 105.635 22C108.74 22 110.157 23.4168 110.162 26.508C110.162 26.9672 110.162 27.4264 110.162 28.0172H150V98.8175H109.857H109.854Z" fill="#FF9210"/>
<path d="M88.9855 48.9637C84.8247 46.6398 80.328 47.7513 77.5336 51.7945C77.0968 52.4245 76.5956 53.1693 76.1812 53.9897C74.2856 57.7417 71.606 61.2473 67.7421 65.0244C65.5609 67.158 63.2677 68.8996 60.8373 70.2716C63.3125 67.2028 64.8077 63.3137 64.8301 59.0857C64.8553 54.2781 63.0213 49.7757 59.6697 46.399C56.2705 42.9774 51.687 41.0902 46.7646 41.0818H46.7394C36.9171 41.0818 28.8783 49.0673 28.8167 58.8953C28.7859 63.7309 30.6451 68.2808 34.0527 71.708C36.1639 73.8332 38.7119 75.362 41.495 76.2188C36.7883 77.6188 32.6639 79.1784 28.7719 81.0067C13.3804 88.2391 3.76529 100.245 0.189719 116.695C-0.787474 121.184 2.11331 126.056 6.52048 127.33C7.46127 127.601 8.37686 127.736 9.25046 127.736C12.7224 127.736 15.5588 125.636 16.9644 121.856C17.3508 120.814 17.642 119.773 17.9248 118.765C18.174 117.874 18.4064 117.037 18.6948 116.236C20.2768 111.835 23.0012 107.811 27.2235 103.667V127.593H66.4317V124.272C66.4317 123.743 66.4317 123.25 66.4317 122.755C66.4401 120.125 66.4345 117.454 66.4317 114.873C66.4205 108.813 66.4093 102.55 66.5661 96.4095C66.6921 91.5263 68.9404 87.4103 73.4456 83.8263L74.1792 83.2439C76.4248 81.4603 78.7488 79.6152 80.8796 77.5516C86.3787 72.2288 90.3407 66.6288 92.9895 60.4353C94.8067 56.1849 93.0875 51.2513 88.9911 48.9637H88.9855ZM33.8567 58.9261C33.9015 51.8617 39.6778 46.1218 46.7394 46.1218H46.759C50.3318 46.1274 53.6469 47.4853 56.0969 49.9521C58.4993 52.3685 59.8097 55.6025 59.7929 59.0605C59.7565 66.1752 53.9353 71.9684 46.815 71.974H46.8066C43.3346 71.974 40.0754 70.6188 37.6283 68.1576C35.1755 65.6908 33.8371 62.4121 33.8567 58.9317V58.9261ZM88.3499 58.4557C85.9699 64.022 82.3776 69.0844 77.3684 73.934C75.414 75.824 73.1908 77.5908 71.0404 79.3016L70.304 79.8868C64.6453 84.3947 61.6913 89.9107 61.5261 96.2835C61.3665 102.494 61.3777 108.791 61.3889 114.884C61.3945 117.398 61.3973 119.999 61.3889 122.556H32.2607V92.8003L28.1335 96.2219C27.7415 96.5467 27.3719 96.8435 27.0191 97.1291C26.2603 97.7395 25.5463 98.3162 24.8547 98.9602C19.4088 104.039 15.9424 108.987 13.9516 114.534C13.6016 115.505 13.3328 116.474 13.0696 117.409C12.8036 118.359 12.5544 119.255 12.2408 120.1C11.16 123.012 9.36526 122.906 7.92327 122.489C6.03608 121.943 4.69769 119.691 5.11769 117.765C8.38806 102.721 16.8272 92.1871 30.9195 85.5651C37.2111 82.6083 44.197 80.3852 53.5742 78.358C60.2633 76.9132 66.0509 73.7268 71.27 68.6252C75.54 64.4504 78.5332 60.5193 80.6836 56.2605C80.9552 55.7257 81.3248 55.1769 81.6804 54.6617C82.3216 53.7321 83.296 52.8165 84.6399 52.8165C85.2027 52.8165 85.8327 52.9789 86.5271 53.3653C88.3975 54.4097 89.1647 56.5517 88.3499 58.4557Z" fill="#FF9210"/>
</svg>
