<svg width="150" height="150" viewBox="0 0 150 150" fill="none" xmlns="http://www.w3.org/2000/svg">
<path d="M70.3341 93.6931C67.1336 88.6947 62.1979 86.3666 56.7561 84.7519C53.8351 83.8843 53.0061 80.1439 55.257 78.081C59.0552 74.6057 61.2435 70.017 62.945 65.4331C64.9357 60.0732 65.0321 54.2169 63.9572 48.5678C63.292 45.0781 61.4219 41.9932 57.9948 40.3833C49.9116 36.5803 41.7946 36.6719 33.721 40.499C30.8724 42.5957 28.3322 44.9045 28.0093 48.7461C27.9611 49.3535 27.9129 49.9608 27.8647 50.5633C27.4068 51.2718 27.2525 51.9804 27.2525 52.6793C27.2525 54.106 27.8984 55.5135 27.9996 56.9402C27.8743 60.8927 28.5973 64.4932 30.482 68.1613C32.4534 72.0029 34.3525 75.6999 37.5289 78.7027C39.0617 80.1488 37.8518 84.0434 35.8081 84.6362C32.4485 85.6147 29.1902 86.7763 26.3319 88.8731C19.4055 93.9582 18.0896 101.251 18.5861 109.127C18.7837 112.25 21.2467 114.41 24.3701 114.424C38.811 114.482 53.2567 114.482 67.7024 114.424C70.739 114.415 73.1924 112.38 73.4672 109.392C73.9685 103.897 73.4238 98.518 70.3341 93.6931ZM33.1908 52.9974C32.8004 53.5469 32.6269 53.7927 32.5016 53.812C32.4726 53.9132 32.4341 54.0096 32.3666 54.0867C32.4293 53.9903 32.463 53.9036 32.4775 53.8168C32.516 53.5999 32.4389 53.4023 32.4196 53.2047C33.0414 52.2407 33.133 51.2526 32.3907 50.2162C32.3859 50.1391 32.3762 50.0668 32.3666 49.9945C32.3955 50.0042 32.4244 50.0138 32.4534 50.0186C34.1356 44.6925 37.1963 43.0054 42.3345 42.8898C45.9302 42.8126 49.5212 42.6584 53.088 43.3139C57.2043 44.0225 60.588 47.8351 59.7156 55.1231C58.2744 53.1999 56.356 52.8914 54.2786 52.6648C51.9794 52.419 49.8248 51.4695 47.7088 50.5199C44.4408 49.0642 42.9418 49.8547 42.132 53.4794C39.2159 52.1539 36.3431 49.4017 33.1908 52.9974ZM35.6683 62.5026C36.0684 60.9553 36.4492 59.3888 36.642 57.8078C36.8348 56.2365 37.4566 56.116 38.6953 56.8149C40.6233 57.9042 42.6092 58.8875 44.5372 59.9817C45.6169 60.589 46.7448 61.2493 47.8582 60.401C49.1163 59.4466 49.1404 58.1115 48.3884 56.7426C48.292 56.5691 48.374 56.2991 48.374 55.9907C50.3598 56.4293 52.2734 56.8679 54.1966 57.2776C54.8714 57.4174 55.31 57.6343 55.4643 58.4489C55.8161 60.3335 56.356 62.1844 56.7512 64.0642C57.7683 68.918 54.7124 72.0463 51.7287 74.9865C49.338 77.3387 46.3688 78.1966 42.9611 76.7362C37.9 74.5768 34.3235 67.7227 35.6683 62.5026ZM42.4887 82.2551C42.4068 81.3923 43.3081 81.8551 43.5829 81.7538C44.812 82.0141 45.8338 82.0671 46.8846 82.0961C47.8052 82.125 49.1838 80.7368 49.6176 82.525C50.0032 84.106 51.1359 85.8461 48.5041 87.1089C45.9061 88.3573 44.1082 88.3814 42.2525 86.1063C41.1439 84.7423 42.614 83.571 42.4887 82.2551ZM69.052 108.013C68.8592 109.243 68.3338 109.941 66.8782 109.999C61.846 110.207 61.8509 110.264 61.846 105.256C61.846 104.051 61.8798 102.842 61.8171 101.641C61.74 100.248 60.9061 99.3277 59.5565 99.3374C58.2262 99.347 57.3104 100.21 57.2766 101.646C57.2236 103.656 57.1031 105.676 57.2814 107.666C57.4646 109.681 56.6452 110.086 54.8329 110.004C51.8637 109.864 48.8897 109.966 45.9206 109.966C42.7875 109.966 39.6545 109.917 36.5215 109.99C35.2731 110.019 34.8104 109.628 34.8586 108.356C34.9405 106.273 34.8923 104.182 34.8827 102.094C34.873 100.509 34.1404 99.3278 32.516 99.347C30.8965 99.3663 30.241 100.576 30.2506 102.143C30.2602 104.23 30.212 106.322 30.2699 108.409C30.2988 109.493 30.0048 109.927 28.8094 109.999C23.1603 110.356 22.5433 109.594 23.1555 103.892C24.1773 94.3824 29.5662 91.1674 36.9649 89.061C38.1989 88.7092 38.9026 89.5238 39.775 90.0106C41.9633 91.2301 43.6552 93.8811 46.1809 93.7654C48.5523 93.6545 50.4563 91.4759 52.2975 89.919C54.2352 88.2802 55.9897 89.3358 57.6863 89.8178C65.4225 92.0254 70.31 99.964 69.052 108.013Z" fill="#FF9210"/>
<path d="M132.349 126.768H17.651C7.91934 126.768 0 118.849 0 109.117V41.651C0 31.9193 7.91934 24 17.651 24H132.349C142.081 24 150 31.9193 150 41.651V109.117C150 118.849 142.081 126.768 132.349 126.768ZM17.651 29.3021C10.8403 29.3021 5.30206 34.8403 5.30206 41.651V109.117C5.30206 115.928 10.8403 121.466 17.651 121.466H132.349C139.16 121.466 144.698 115.928 144.698 109.117V41.651C144.698 34.8403 139.16 29.3021 132.349 29.3021H17.651Z" fill="#FF9210"/>
<path d="M128.107 68.0023H86.8331C85.4302 68.0023 84.293 69.1396 84.293 70.5425V70.5473C84.293 71.9502 85.4302 73.0875 86.8331 73.0875H128.107C129.51 73.0875 130.647 71.9502 130.647 70.5473V70.5425C130.647 69.1396 129.51 68.0023 128.107 68.0023Z" fill="#FF9210"/>
<path d="M128.107 81.5803H86.8331C85.4302 81.5803 84.293 82.7176 84.293 84.1205V84.1253C84.293 85.5282 85.4302 86.6655 86.8331 86.6655H128.107C129.51 86.6655 130.647 85.5282 130.647 84.1253V84.1205C130.647 82.7176 129.51 81.5803 128.107 81.5803Z" fill="#FF9210"/>
<path d="M106.74 95.1633H86.8331C85.4302 95.1633 84.293 96.3006 84.293 97.7035V97.7083C84.293 99.1112 85.4302 100.248 86.8331 100.248H106.74C108.143 100.248 109.28 99.1112 109.28 97.7083V97.7035C109.28 96.3006 108.143 95.1633 106.74 95.1633Z" fill="#FF9210"/>
<path d="M128.107 54.1011H86.8331C85.4302 54.1011 84.293 55.2383 84.293 56.6412V56.6461C84.293 58.049 85.4302 59.1862 86.8331 59.1862H128.107C129.51 59.1862 130.647 58.049 130.647 56.6461V56.6412C130.647 55.2383 129.51 54.1011 128.107 54.1011Z" fill="#FF9210"/>
</svg>
